<?xml version="1.0" encoding="us-ascii" standalone="no"?><svg xmlns="http://www.w3.org/2000/svg" xmlns:xlink="http://www.w3.org/1999/xlink" contentStyleType="text/css" height="1146px" preserveAspectRatio="none" style="width:3308px;height:1146px;background:#FFFFFF;" version="1.1" viewBox="0 0 3308 1146" width="3308px" zoomAndPan="magnify"><defs/><g><!--cluster Entites--><g id="cluster_Entites"><path d="M894.5,306 L944.5,306 A3.75,3.75 0 0 1 947,308.5 L954,329.6094 L1860.5,329.6094 A2.5,2.5 0 0 1 1863,332.1094 L1863,794 A2.5,2.5 0 0 1 1860.5,796.5 L894.5,796.5 A2.5,2.5 0 0 1 892,794 L892,308.5 A2.5,2.5 0 0 1 894.5,306 " fill="none" style="stroke:#000000;stroke-width:1.5;"/><line style="stroke:#000000;stroke-width:1.5;" x1="892" x2="954" y1="329.6094" y2="329.6094"/><text fill="#000000" font-family="sans-serif" font-size="14" font-weight="bold" lengthAdjust="spacing" textLength="49" x="896" y="322.5332">Entites</text></g><!--cluster CoucheAccesDonnees--><g id="cluster_CoucheAccesDonnees"><path d="M1889.5,512 L2049.5,512 A3.75,3.75 0 0 1 2052,514.5 L2059,535.6094 L3298.5,535.6094 A2.5,2.5 0 0 1 3301,538.1094 L3301,1137 A2.5,2.5 0 0 1 3298.5,1139.5 L1889.5,1139.5 A2.5,2.5 0 0 1 1887,1137 L1887,514.5 A2.5,2.5 0 0 1 1889.5,512 " fill="none" style="stroke:#000000;stroke-width:1.5;"/><line style="stroke:#000000;stroke-width:1.5;" x1="1887" x2="2059" y1="535.6094" y2="535.6094"/><text fill="#000000" font-family="sans-serif" font-size="14" font-weight="bold" lengthAdjust="spacing" textLength="159" x="1891" y="528.5332">CoucheAccesDonnees</text></g><!--cluster JSON--><g id="cluster_JSON"><path d="M2604.5,556 L2643.5,556 A3.75,3.75 0 0 1 2646,558.5 L2653,579.6094 L3274.5,579.6094 A2.5,2.5 0 0 1 3277,582.1094 L3277,1113 A2.5,2.5 0 0 1 3274.5,1115.5 L2604.5,1115.5 A2.5,2.5 0 0 1 2602,1113 L2602,558.5 A2.5,2.5 0 0 1 2604.5,556 " fill="none" style="stroke:#000000;stroke-width:1.5;"/><line style="stroke:#000000;stroke-width:1.5;" x1="2602" x2="2653" y1="579.6094" y2="579.6094"/><text fill="#000000" font-family="sans-serif" font-size="14" font-weight="bold" lengthAdjust="spacing" textLength="38" x="2606" y="572.5332">JSON</text></g><!--cluster XML--><g id="cluster_XML"><path d="M1913.5,556 L1944.5,556 A3.75,3.75 0 0 1 1947,558.5 L1954,579.6094 L2575.5,579.6094 A2.5,2.5 0 0 1 2578,582.1094 L2578,1113 A2.5,2.5 0 0 1 2575.5,1115.5 L1913.5,1115.5 A2.5,2.5 0 0 1 1911,1113 L1911,558.5 A2.5,2.5 0 0 1 1913.5,556 " fill="none" style="stroke:#000000;stroke-width:1.5;"/><line style="stroke:#000000;stroke-width:1.5;" x1="1911" x2="1954" y1="579.6094" y2="579.6094"/><text fill="#000000" font-family="sans-serif" font-size="14" font-weight="bold" lengthAdjust="spacing" textLength="30" x="1915" y="572.5332">XML</text></g><!--cluster Application--><g id="cluster_Application"><path d="M913.5,6 L992.5,6 A3.75,3.75 0 0 1 995,8.5 L1002,29.6094 L1192.5,29.6094 A2.5,2.5 0 0 1 1195,32.1094 L1195,279.5 A2.5,2.5 0 0 1 1192.5,282 L913.5,282 A2.5,2.5 0 0 1 911,279.5 L911,8.5 A2.5,2.5 0 0 1 913.5,6 " fill="none" style="stroke:#000000;stroke-width:1.5;"/><line style="stroke:#000000;stroke-width:1.5;" x1="911" x2="1002" y1="29.6094" y2="29.6094"/><text fill="#000000" font-family="sans-serif" font-size="14" font-weight="bold" lengthAdjust="spacing" textLength="78" x="915" y="22.5332">Application</text></g><!--cluster TraitementsLots--><g id="cluster_TraitementsLots"><path d="M8.5,350 L122.5,350 A3.75,3.75 0 0 1 125,352.5 L132,373.6094 L865.5,373.6094 A2.5,2.5 0 0 1 868,376.1094 L868,765.5 A2.5,2.5 0 0 1 865.5,768 L8.5,768 A2.5,2.5 0 0 1 6,765.5 L6,352.5 A2.5,2.5 0 0 1 8.5,350 " fill="none" style="stroke:#000000;stroke-width:1.5;"/><line style="stroke:#000000;stroke-width:1.5;" x1="6" x2="132" y1="373.6094" y2="373.6094"/><text fill="#000000" font-family="sans-serif" font-size="14" font-weight="bold" lengthAdjust="spacing" textLength="113" x="10" y="366.5332">TraitementsLots</text></g><!--cluster ModifierNomPrenomPremiereLettreMajuscules--><g id="cluster_ModifierNomPrenomPremiereLettreMajuscules"><path d="M32.5,591 L363.5,591 A3.75,3.75 0 0 1 366,593.5 L373,614.6094 L471.5,614.6094 A2.5,2.5 0 0 1 474,617.1094 L474,741.5 A2.5,2.5 0 0 1 471.5,744 L32.5,744 A2.5,2.5 0 0 1 30,741.5 L30,593.5 A2.5,2.5 0 0 1 32.5,591 " fill="none" style="stroke:#000000;stroke-width:1.5;"/><line style="stroke:#000000;stroke-width:1.5;" x1="30" x2="373" y1="614.6094" y2="614.6094"/><text fill="#000000" font-family="sans-serif" font-size="14" font-weight="bold" lengthAdjust="spacing" textLength="330" x="34" y="607.5332">ModifierNomPrenomPremiereLettreMajuscules</text></g><!--cluster ModifierPaysMajusculesClients--><g id="cluster_ModifierPaysMajusculesClients"><path d="M500.5,591 L721.5,591 A3.75,3.75 0 0 1 724,593.5 L731,614.6094 L841.5,614.6094 A2.5,2.5 0 0 1 844,617.1094 L844,741.5 A2.5,2.5 0 0 1 841.5,744 L500.5,744 A2.5,2.5 0 0 1 498,741.5 L498,593.5 A2.5,2.5 0 0 1 500.5,591 " fill="none" style="stroke:#000000;stroke-width:1.5;"/><line style="stroke:#000000;stroke-width:1.5;" x1="498" x2="731" y1="614.6094" y2="614.6094"/><text fill="#000000" font-family="sans-serif" font-size="14" font-weight="bold" lengthAdjust="spacing" textLength="220" x="502" y="607.5332">ModifierPaysMajusculesClients</text></g><!--class Client--><g id="elem_Client"><rect codeLine="12" fill="#FFFFFF" height="153.6563" id="Client" rx="2.5" ry="2.5" style="stroke:#000000;stroke-width:0.5;" width="614" x="1233" y="342"/><ellipse cx="1517.75" cy="358" fill="#ADD1B2" rx="11" ry="11" style="stroke:#181818;stroke-width:1.0;"/><path d="M1520.5156,353.875 Q1520.6719,353.6563 1520.8594,353.5469 Q1521.0469,353.4375 1521.2656,353.4375 Q1521.6406,353.4375 1521.875,353.6953 Q1522.1094,353.9531 1522.1094,354.5625 L1522.1094,356.0156 Q1522.1094,356.625 1521.875,356.8906 Q1521.6406,357.1563 1521.2656,357.1563 Q1520.9219,357.1563 1520.7188,356.9531 Q1520.5156,356.7656 1520.4063,356.25 Q1520.3594,355.8906 1520.1719,355.7031 Q1519.8438,355.3281 1519.2344,355.1094 Q1518.625,354.8906 1518,354.8906 Q1517.2344,354.8906 1516.6016,355.2188 Q1515.9688,355.5469 1515.4766,356.2969 Q1514.9844,357.0469 1514.9844,358.0781 L1514.9844,359.1719 Q1514.9844,360.4063 1515.875,361.2266 Q1516.7656,362.0469 1518.3594,362.0469 Q1519.2969,362.0469 1519.9531,361.7969 Q1520.3438,361.6406 1520.7656,361.2031 Q1521.0313,360.9375 1521.1797,360.8594 Q1521.3281,360.7813 1521.5313,360.7813 Q1521.8594,360.7813 1522.1172,361.0391 Q1522.375,361.2969 1522.375,361.6406 Q1522.375,361.9844 1522.0313,362.3906 Q1521.5313,362.9688 1520.7344,363.2969 Q1519.6563,363.75 1518.3594,363.75 Q1516.8438,363.75 1515.6406,363.125 Q1514.6563,362.625 1513.9688,361.5547 Q1513.2813,360.4844 1513.2813,359.2031 L1513.2813,358.0469 Q1513.2813,356.7188 1513.8984,355.5703 Q1514.5156,354.4219 1515.6094,353.8047 Q1516.7031,353.1875 1517.9375,353.1875 Q1518.6719,353.1875 1519.3203,353.3516 Q1519.9688,353.5156 1520.5156,353.875 Z " fill="#000000"/><text fill="#000000" font-family="sans-serif" font-size="14" lengthAdjust="spacing" textLength="36" x="1538.25" y="363.7285">Client</text><line style="stroke:#000000;stroke-width:0.5;" x1="1234" x2="1846" y1="374" y2="374"/><text fill="#000000" font-family="sans-serif" font-size="14" lengthAdjust="spacing" textLength="215" x="1239" y="392.5332">+Guid ClientId &#171;get&#187; &#171;private set&#187;</text><text fill="#000000" font-family="sans-serif" font-size="14" lengthAdjust="spacing" textLength="201" x="1239" y="410.1426">+string Nom &#171;get&#187; &#171;private set&#187;</text><text fill="#000000" font-family="sans-serif" font-size="14" lengthAdjust="spacing" textLength="222" x="1239" y="427.752">+string Prenom &#171;get&#187; &#171;private set&#187;</text><text fill="#000000" font-family="sans-serif" font-size="14" lengthAdjust="spacing" textLength="287" x="1239" y="445.3613">+List&lt;Adresse&gt; Adresses &#171;get&#187; &#171;private set&#187;</text><line style="stroke:#000000;stroke-width:0.5;" x1="1234" x2="1846" y1="452.4375" y2="452.4375"/><text fill="#000000" font-family="sans-serif" font-size="14" lengthAdjust="spacing" textLength="602" x="1239" y="470.9707">+ctor(p_clientId : Guid, p_nom : string, p_prenom : string, p_adresses : IEnumerable&lt;Adresse&gt;)</text><text fill="#000000" font-family="sans-serif" font-size="14" lengthAdjust="spacing" textLength="296" x="1239" y="488.5801">+AjouterModifierAdresse(p_adresse : Adresse)</text></g><!--class Adresse--><g id="elem_Adresse"><rect codeLine="21" fill="#FFFFFF" height="206.4844" id="Adresse" rx="2.5" ry="2.5" style="stroke:#000000;stroke-width:0.5;" width="366" x="1357" y="574.5"/><ellipse cx="1509.75" cy="590.5" fill="#ADD1B2" rx="11" ry="11" style="stroke:#181818;stroke-width:1.0;"/><path d="M1512.5156,586.375 Q1512.6719,586.1563 1512.8594,586.0469 Q1513.0469,585.9375 1513.2656,585.9375 Q1513.6406,585.9375 1513.875,586.1953 Q1514.1094,586.4531 1514.1094,587.0625 L1514.1094,588.5156 Q1514.1094,589.125 1513.875,589.3906 Q1513.6406,589.6563 1513.2656,589.6563 Q1512.9219,589.6563 1512.7188,589.4531 Q1512.5156,589.2656 1512.4063,588.75 Q1512.3594,588.3906 1512.1719,588.2031 Q1511.8438,587.8281 1511.2344,587.6094 Q1510.625,587.3906 1510,587.3906 Q1509.2344,587.3906 1508.6016,587.7188 Q1507.9688,588.0469 1507.4766,588.7969 Q1506.9844,589.5469 1506.9844,590.5781 L1506.9844,591.6719 Q1506.9844,592.9063 1507.875,593.7266 Q1508.7656,594.5469 1510.3594,594.5469 Q1511.2969,594.5469 1511.9531,594.2969 Q1512.3438,594.1406 1512.7656,593.7031 Q1513.0313,593.4375 1513.1797,593.3594 Q1513.3281,593.2813 1513.5313,593.2813 Q1513.8594,593.2813 1514.1172,593.5391 Q1514.375,593.7969 1514.375,594.1406 Q1514.375,594.4844 1514.0313,594.8906 Q1513.5313,595.4688 1512.7344,595.7969 Q1511.6563,596.25 1510.3594,596.25 Q1508.8438,596.25 1507.6406,595.625 Q1506.6563,595.125 1505.9688,594.0547 Q1505.2813,592.9844 1505.2813,591.7031 L1505.2813,590.5469 Q1505.2813,589.2188 1505.8984,588.0703 Q1506.5156,586.9219 1507.6094,586.3047 Q1508.7031,585.6875 1509.9375,585.6875 Q1510.6719,585.6875 1511.3203,585.8516 Q1511.9688,586.0156 1512.5156,586.375 Z " fill="#000000"/><text fill="#000000" font-family="sans-serif" font-size="14" lengthAdjust="spacing" textLength="52" x="1530.25" y="596.2285">Adresse</text><line style="stroke:#000000;stroke-width:0.5;" x1="1358" x2="1722" y1="606.5" y2="606.5"/><text fill="#000000" font-family="sans-serif" font-size="14" lengthAdjust="spacing" textLength="231" x="1363" y="625.0332">+Guid AdresseId &#171;get&#187; &#171;private set&#187;</text><text fill="#000000" font-family="sans-serif" font-size="14" lengthAdjust="spacing" textLength="277" x="1363" y="642.6426">+NumeroCivique : string &#171;get&#187; &#171;private set&#187;</text><text fill="#000000" font-family="sans-serif" font-size="14" lengthAdjust="spacing" textLength="354" x="1363" y="660.252">+InformationComplementaire : string &#171;get&#187; &#171;private set&#187;</text><text fill="#000000" font-family="sans-serif" font-size="14" lengthAdjust="spacing" textLength="242" x="1363" y="677.8613">+Odonyme : string &#171;get&#187; &#171;private set&#187;</text><text fill="#000000" font-family="sans-serif" font-size="14" lengthAdjust="spacing" textLength="241" x="1363" y="695.4707">+TypeVoie : string &#171;get&#187; &#171;private set&#187;</text><text fill="#000000" font-family="sans-serif" font-size="14" lengthAdjust="spacing" textLength="254" x="1363" y="713.0801">+CodePostal : string &#171;get&#187; &#171;private set&#187;</text><text fill="#000000" font-family="sans-serif" font-size="14" lengthAdjust="spacing" textLength="283" x="1363" y="730.6895">+NomMunicipalite : string &#171;get&#187; &#171;private set&#187;</text><text fill="#000000" font-family="sans-serif" font-size="14" lengthAdjust="spacing" textLength="206" x="1363" y="748.2988">+Etat : string &#171;get&#187; &#171;private set&#187;</text><text fill="#000000" font-family="sans-serif" font-size="14" lengthAdjust="spacing" textLength="216" x="1363" y="765.9082">+Pays : string  &#171;get&#187; &#171;private set&#187;</text><line style="stroke:#000000;stroke-width:0.5;" x1="1358" x2="1722" y1="772.9844" y2="772.9844"/></g><!--class IDepotClients--><g id="elem_IDepotClients"><rect codeLine="33" fill="#FFFFFF" height="118.4375" id="IDepotClients" rx="2.5" ry="2.5" style="stroke:#000000;stroke-width:0.5;" width="290" x="908" y="360"/><ellipse cx="1006.25" cy="376" fill="#B4A7E5" rx="11" ry="11" style="stroke:#181818;stroke-width:1.0;"/><path d="M1007.2031,372.6406 L1007.2031,379.2969 L1008.9219,379.2969 Q1009.5313,379.2969 1009.7969,379.5313 Q1010.0625,379.7656 1010.0625,380.1563 Q1010.0625,380.5313 1009.7969,380.7656 Q1009.5313,381 1008.9219,381 L1003.7813,381 Q1003.1719,381 1002.9063,380.7656 Q1002.6406,380.5313 1002.6406,380.1406 Q1002.6406,379.7656 1002.9063,379.5313 Q1003.1719,379.2969 1003.7813,379.2969 L1005.5,379.2969 L1005.5,372.6406 L1003.7813,372.6406 Q1003.1719,372.6406 1002.9063,372.4063 Q1002.6406,372.1719 1002.6406,371.7813 Q1002.6406,371.4063 1002.9063,371.1719 Q1003.1719,370.9375 1003.7813,370.9375 L1008.9219,370.9375 Q1009.5313,370.9375 1009.7969,371.1719 Q1010.0625,371.4063 1010.0625,371.7813 Q1010.0625,372.1719 1009.7969,372.4063 Q1009.5313,372.6406 1008.9219,372.6406 L1007.2031,372.6406 Z " fill="#000000"/><text fill="#000000" font-family="sans-serif" font-size="14" font-style="italic" lengthAdjust="spacing" textLength="85" x="1026.75" y="381.7285">IDepotClients</text><line style="stroke:#000000;stroke-width:0.5;" x1="909" x2="1197" y1="392" y2="392"/><line style="stroke:#000000;stroke-width:0.5;" x1="909" x2="1197" y1="400" y2="400"/><text fill="#000000" font-family="sans-serif" font-size="14" lengthAdjust="spacing" textLength="196" x="914" y="418.5332">+AjouterClient(p_client : Client)</text><text fill="#000000" font-family="sans-serif" font-size="14" lengthAdjust="spacing" textLength="182" x="914" y="436.1426">+ListerClients() : List&lt;Client&gt;</text><text fill="#000000" font-family="sans-serif" font-size="14" lengthAdjust="spacing" textLength="278" x="914" y="453.752">+RechercherClient(p_clientId : Guid) : Client</text><text fill="#000000" font-family="sans-serif" font-size="14" lengthAdjust="spacing" textLength="201" x="914" y="471.3613">+ModifierClient(p_client : Client)</text></g><!--class DepotClientsJSON--><g id="elem_DepotClientsJSON"><rect codeLine="70" fill="#FFFFFF" height="153.6563" id="DepotClientsJSON" rx="2.5" ry="2.5" style="stroke:#000000;stroke-width:0.5;" width="290" x="2971" y="600.5"/><ellipse cx="3053.75" cy="616.5" fill="#ADD1B2" rx="11" ry="11" style="stroke:#181818;stroke-width:1.0;"/><path d="M3056.5156,612.375 Q3056.6719,612.1563 3056.8594,612.0469 Q3057.0469,611.9375 3057.2656,611.9375 Q3057.6406,611.9375 3057.875,612.1953 Q3058.1094,612.4531 3058.1094,613.0625 L3058.1094,614.5156 Q3058.1094,615.125 3057.875,615.3906 Q3057.6406,615.6563 3057.2656,615.6563 Q3056.9219,615.6563 3056.7188,615.4531 Q3056.5156,615.2656 3056.4063,614.75 Q3056.3594,614.3906 3056.1719,614.2031 Q3055.8438,613.8281 3055.2344,613.6094 Q3054.625,613.3906 3054,613.3906 Q3053.2344,613.3906 3052.6016,613.7188 Q3051.9688,614.0469 3051.4766,614.7969 Q3050.9844,615.5469 3050.9844,616.5781 L3050.9844,617.6719 Q3050.9844,618.9063 3051.875,619.7266 Q3052.7656,620.5469 3054.3594,620.5469 Q3055.2969,620.5469 3055.9531,620.2969 Q3056.3438,620.1406 3056.7656,619.7031 Q3057.0313,619.4375 3057.1797,619.3594 Q3057.3281,619.2813 3057.5313,619.2813 Q3057.8594,619.2813 3058.1172,619.5391 Q3058.375,619.7969 3058.375,620.1406 Q3058.375,620.4844 3058.0313,620.8906 Q3057.5313,621.4688 3056.7344,621.7969 Q3055.6563,622.25 3054.3594,622.25 Q3052.8438,622.25 3051.6406,621.625 Q3050.6563,621.125 3049.9688,620.0547 Q3049.2813,618.9844 3049.2813,617.7031 L3049.2813,616.5469 Q3049.2813,615.2188 3049.8984,614.0703 Q3050.5156,612.9219 3051.6094,612.3047 Q3052.7031,611.6875 3053.9375,611.6875 Q3054.6719,611.6875 3055.3203,611.8516 Q3055.9688,612.0156 3056.5156,612.375 Z " fill="#000000"/><text fill="#000000" font-family="sans-serif" font-size="14" lengthAdjust="spacing" textLength="116" x="3074.25" y="622.2285">DepotClientsJSON</text><line style="stroke:#000000;stroke-width:0.5;" x1="2972" x2="3260" y1="632.5" y2="632.5"/><text fill="#000000" font-family="sans-serif" font-size="14" lengthAdjust="spacing" textLength="141" x="2977" y="651.0332">-m_nomFichier : string</text><line style="stroke:#000000;stroke-width:0.5;" x1="2972" x2="3260" y1="658.1094" y2="658.1094"/><text fill="#000000" font-family="sans-serif" font-size="14" lengthAdjust="spacing" textLength="175" x="2977" y="676.6426">+ctor(p_nomFichier : string)</text><text fill="#000000" font-family="sans-serif" font-size="14" lengthAdjust="spacing" textLength="196" x="2977" y="694.252">+AjouterClient(p_client : Client)</text><text fill="#000000" font-family="sans-serif" font-size="14" lengthAdjust="spacing" textLength="182" x="2977" y="711.8613">+ListerClients() : List&lt;Client&gt;</text><text fill="#000000" font-family="sans-serif" font-size="14" lengthAdjust="spacing" textLength="278" x="2977" y="729.4707">+RechercherClient(p_clientId : Guid) : Client</text><text fill="#000000" font-family="sans-serif" font-size="14" lengthAdjust="spacing" textLength="201" x="2977" y="747.0801">+ModifierClient(p_client : Client)</text></g><!--class ClientJSONDTO--><g id="elem_ClientJSONDTO"><rect codeLine="45" fill="#FFFFFF" height="171.2656" id="ClientJSONDTO" rx="2.5" ry="2.5" style="stroke:#000000;stroke-width:0.5;" width="317" x="2618.5" y="592"/><ellipse cx="2722.25" cy="608" fill="#ADD1B2" rx="11" ry="11" style="stroke:#181818;stroke-width:1.0;"/><path d="M2725.0156,603.875 Q2725.1719,603.6563 2725.3594,603.5469 Q2725.5469,603.4375 2725.7656,603.4375 Q2726.1406,603.4375 2726.375,603.6953 Q2726.6094,603.9531 2726.6094,604.5625 L2726.6094,606.0156 Q2726.6094,606.625 2726.375,606.8906 Q2726.1406,607.1563 2725.7656,607.1563 Q2725.4219,607.1563 2725.2188,606.9531 Q2725.0156,606.7656 2724.9063,606.25 Q2724.8594,605.8906 2724.6719,605.7031 Q2724.3438,605.3281 2723.7344,605.1094 Q2723.125,604.8906 2722.5,604.8906 Q2721.7344,604.8906 2721.1016,605.2188 Q2720.4688,605.5469 2719.9766,606.2969 Q2719.4844,607.0469 2719.4844,608.0781 L2719.4844,609.1719 Q2719.4844,610.4063 2720.375,611.2266 Q2721.2656,612.0469 2722.8594,612.0469 Q2723.7969,612.0469 2724.4531,611.7969 Q2724.8438,611.6406 2725.2656,611.2031 Q2725.5313,610.9375 2725.6797,610.8594 Q2725.8281,610.7813 2726.0313,610.7813 Q2726.3594,610.7813 2726.6172,611.0391 Q2726.875,611.2969 2726.875,611.6406 Q2726.875,611.9844 2726.5313,612.3906 Q2726.0313,612.9688 2725.2344,613.2969 Q2724.1563,613.75 2722.8594,613.75 Q2721.3438,613.75 2720.1406,613.125 Q2719.1563,612.625 2718.4688,611.5547 Q2717.7813,610.4844 2717.7813,609.2031 L2717.7813,608.0469 Q2717.7813,606.7188 2718.3984,605.5703 Q2719.0156,604.4219 2720.1094,603.8047 Q2721.2031,603.1875 2722.4375,603.1875 Q2723.1719,603.1875 2723.8203,603.3516 Q2724.4688,603.5156 2725.0156,603.875 Z " fill="#000000"/><text fill="#000000" font-family="sans-serif" font-size="14" lengthAdjust="spacing" textLength="101" x="2742.75" y="613.7285">ClientJSONDTO</text><line style="stroke:#000000;stroke-width:0.5;" x1="2619.5" x2="2934.5" y1="624" y2="624"/><text fill="#000000" font-family="sans-serif" font-size="14" lengthAdjust="spacing" textLength="168" x="2624.5" y="642.5332">+Guid ClientId &#171;get&#187; &#171;set&#187;</text><text fill="#000000" font-family="sans-serif" font-size="14" lengthAdjust="spacing" textLength="154" x="2624.5" y="660.1426">+string Nom &#171;get&#187; &#171;set&#187;</text><text fill="#000000" font-family="sans-serif" font-size="14" lengthAdjust="spacing" textLength="175" x="2624.5" y="677.752">+string Prenom &#171;get&#187; &#171;set&#187;</text><text fill="#000000" font-family="sans-serif" font-size="14" lengthAdjust="spacing" textLength="305" x="2624.5" y="695.3613">+List&lt;AdresseJSONDTO&gt; Adresses &#171;get&#187; &#171;set&#187;</text><line style="stroke:#000000;stroke-width:0.5;" x1="2619.5" x2="2934.5" y1="702.4375" y2="702.4375"/><text fill="#000000" font-family="sans-serif" font-size="14" lengthAdjust="spacing" textLength="42" x="2624.5" y="720.9707">+ctor()</text><text fill="#000000" font-family="sans-serif" font-size="14" lengthAdjust="spacing" textLength="139" x="2624.5" y="738.5801">+ctor(p_client : Client)</text><text fill="#000000" font-family="sans-serif" font-size="14" lengthAdjust="spacing" textLength="131" x="2624.5" y="756.1895">+VersEntite() : Client</text></g><!--class AdresseJSONDTO--><g id="elem_AdresseJSONDTO"><rect codeLine="55" fill="#FFFFFF" height="259.3125" id="AdresseJSONDTO" rx="2.5" ry="2.5" style="stroke:#000000;stroke-width:0.5;" width="319" x="2618.5" y="840.5"/><ellipse cx="2715.25" cy="856.5" fill="#ADD1B2" rx="11" ry="11" style="stroke:#181818;stroke-width:1.0;"/><path d="M2718.0156,852.375 Q2718.1719,852.1563 2718.3594,852.0469 Q2718.5469,851.9375 2718.7656,851.9375 Q2719.1406,851.9375 2719.375,852.1953 Q2719.6094,852.4531 2719.6094,853.0625 L2719.6094,854.5156 Q2719.6094,855.125 2719.375,855.3906 Q2719.1406,855.6563 2718.7656,855.6563 Q2718.4219,855.6563 2718.2188,855.4531 Q2718.0156,855.2656 2717.9063,854.75 Q2717.8594,854.3906 2717.6719,854.2031 Q2717.3438,853.8281 2716.7344,853.6094 Q2716.125,853.3906 2715.5,853.3906 Q2714.7344,853.3906 2714.1016,853.7188 Q2713.4688,854.0469 2712.9766,854.7969 Q2712.4844,855.5469 2712.4844,856.5781 L2712.4844,857.6719 Q2712.4844,858.9063 2713.375,859.7266 Q2714.2656,860.5469 2715.8594,860.5469 Q2716.7969,860.5469 2717.4531,860.2969 Q2717.8438,860.1406 2718.2656,859.7031 Q2718.5313,859.4375 2718.6797,859.3594 Q2718.8281,859.2813 2719.0313,859.2813 Q2719.3594,859.2813 2719.6172,859.5391 Q2719.875,859.7969 2719.875,860.1406 Q2719.875,860.4844 2719.5313,860.8906 Q2719.0313,861.4688 2718.2344,861.7969 Q2717.1563,862.25 2715.8594,862.25 Q2714.3438,862.25 2713.1406,861.625 Q2712.1563,861.125 2711.4688,860.0547 Q2710.7813,858.9844 2710.7813,857.7031 L2710.7813,856.5469 Q2710.7813,855.2188 2711.3984,854.0703 Q2712.0156,852.9219 2713.1094,852.3047 Q2714.2031,851.6875 2715.4375,851.6875 Q2716.1719,851.6875 2716.8203,851.8516 Q2717.4688,852.0156 2718.0156,852.375 Z " fill="#000000"/><text fill="#000000" font-family="sans-serif" font-size="14" lengthAdjust="spacing" textLength="117" x="2735.75" y="862.2285">AdresseJSONDTO</text><line style="stroke:#000000;stroke-width:0.5;" x1="2619.5" x2="2936.5" y1="872.5" y2="872.5"/><text fill="#000000" font-family="sans-serif" font-size="14" lengthAdjust="spacing" textLength="184" x="2624.5" y="891.0332">+Guid AdresseId &#171;get&#187; &#171;set&#187;</text><text fill="#000000" font-family="sans-serif" font-size="14" lengthAdjust="spacing" textLength="230" x="2624.5" y="908.6426">+NumeroCivique : string &#171;get&#187; &#171;set&#187;</text><text fill="#000000" font-family="sans-serif" font-size="14" lengthAdjust="spacing" textLength="307" x="2624.5" y="926.252">+InformationComplementaire : string &#171;get&#187; &#171;set&#187;</text><text fill="#000000" font-family="sans-serif" font-size="14" lengthAdjust="spacing" textLength="195" x="2624.5" y="943.8613">+Odonyme : string &#171;get&#187; &#171;set&#187;</text><text fill="#000000" font-family="sans-serif" font-size="14" lengthAdjust="spacing" textLength="194" x="2624.5" y="961.4707">+TypeVoie : string &#171;get&#187; &#171;set&#187;</text><text fill="#000000" font-family="sans-serif" font-size="14" lengthAdjust="spacing" textLength="207" x="2624.5" y="979.0801">+CodePostal : string &#171;get&#187; &#171;set&#187;</text><text fill="#000000" font-family="sans-serif" font-size="14" lengthAdjust="spacing" textLength="236" x="2624.5" y="996.6895">+NomMunicipalite : string &#171;get&#187; &#171;set&#187;</text><text fill="#000000" font-family="sans-serif" font-size="14" lengthAdjust="spacing" textLength="159" x="2624.5" y="1014.2988">+Etat : string &#171;get&#187; &#171;set&#187;</text><text fill="#000000" font-family="sans-serif" font-size="14" lengthAdjust="spacing" textLength="169" x="2624.5" y="1031.9082">+Pays : string  &#171;get&#187; &#171;set&#187;</text><line style="stroke:#000000;stroke-width:0.5;" x1="2619.5" x2="2936.5" y1="1038.9844" y2="1038.9844"/><text fill="#000000" font-family="sans-serif" font-size="14" lengthAdjust="spacing" textLength="42" x="2624.5" y="1057.5176">+ctor()</text><text fill="#000000" font-family="sans-serif" font-size="14" lengthAdjust="spacing" textLength="173" x="2624.5" y="1075.127">+ctor(p_adresse : Adresse)</text><text fill="#000000" font-family="sans-serif" font-size="14" lengthAdjust="spacing" textLength="147" x="2624.5" y="1092.7363">+VersEntite() : Adresse</text></g><!--class DepotClientsXML--><g id="elem_DepotClientsXML"><rect codeLine="94" fill="#FFFFFF" height="153.6563" id="DepotClientsXML" rx="2.5" ry="2.5" style="stroke:#000000;stroke-width:0.5;" width="290" x="2272" y="600.5"/><ellipse cx="2358.75" cy="616.5" fill="#ADD1B2" rx="11" ry="11" style="stroke:#181818;stroke-width:1.0;"/><path d="M2361.5156,612.375 Q2361.6719,612.1563 2361.8594,612.0469 Q2362.0469,611.9375 2362.2656,611.9375 Q2362.6406,611.9375 2362.875,612.1953 Q2363.1094,612.4531 2363.1094,613.0625 L2363.1094,614.5156 Q2363.1094,615.125 2362.875,615.3906 Q2362.6406,615.6563 2362.2656,615.6563 Q2361.9219,615.6563 2361.7188,615.4531 Q2361.5156,615.2656 2361.4063,614.75 Q2361.3594,614.3906 2361.1719,614.2031 Q2360.8438,613.8281 2360.2344,613.6094 Q2359.625,613.3906 2359,613.3906 Q2358.2344,613.3906 2357.6016,613.7188 Q2356.9688,614.0469 2356.4766,614.7969 Q2355.9844,615.5469 2355.9844,616.5781 L2355.9844,617.6719 Q2355.9844,618.9063 2356.875,619.7266 Q2357.7656,620.5469 2359.3594,620.5469 Q2360.2969,620.5469 2360.9531,620.2969 Q2361.3438,620.1406 2361.7656,619.7031 Q2362.0313,619.4375 2362.1797,619.3594 Q2362.3281,619.2813 2362.5313,619.2813 Q2362.8594,619.2813 2363.1172,619.5391 Q2363.375,619.7969 2363.375,620.1406 Q2363.375,620.4844 2363.0313,620.8906 Q2362.5313,621.4688 2361.7344,621.7969 Q2360.6563,622.25 2359.3594,622.25 Q2357.8438,622.25 2356.6406,621.625 Q2355.6563,621.125 2354.9688,620.0547 Q2354.2813,618.9844 2354.2813,617.7031 L2354.2813,616.5469 Q2354.2813,615.2188 2354.8984,614.0703 Q2355.5156,612.9219 2356.6094,612.3047 Q2357.7031,611.6875 2358.9375,611.6875 Q2359.6719,611.6875 2360.3203,611.8516 Q2360.9688,612.0156 2361.5156,612.375 Z " fill="#000000"/><text fill="#000000" font-family="sans-serif" font-size="14" lengthAdjust="spacing" textLength="108" x="2379.25" y="622.2285">DepotClientsXML</text><line style="stroke:#000000;stroke-width:0.5;" x1="2273" x2="2561" y1="632.5" y2="632.5"/><text fill="#000000" font-family="sans-serif" font-size="14" lengthAdjust="spacing" textLength="141" x="2278" y="651.0332">-m_nomFichier : string</text><line style="stroke:#000000;stroke-width:0.5;" x1="2273" x2="2561" y1="658.1094" y2="658.1094"/><text fill="#000000" font-family="sans-serif" font-size="14" lengthAdjust="spacing" textLength="175" x="2278" y="676.6426">+ctor(p_nomFichier : string)</text><text fill="#000000" font-family="sans-serif" font-size="14" lengthAdjust="spacing" textLength="196" x="2278" y="694.252">+AjouterClient(p_client : Client)</text><text fill="#000000" font-family="sans-serif" font-size="14" lengthAdjust="spacing" textLength="182" x="2278" y="711.8613">+ListerClients() : List&lt;Client&gt;</text><text fill="#000000" font-family="sans-serif" font-size="14" lengthAdjust="spacing" textLength="278" x="2278" y="729.4707">+RechercherClient(p_clientId : Guid) : Client</text><text fill="#000000" font-family="sans-serif" font-size="14" lengthAdjust="spacing" textLength="201" x="2278" y="747.0801">+ModifierClient(p_client : Client)</text></g><!--class ClientXMLDTO--><g id="elem_ClientXMLDTO"><rect codeLine="84" fill="#FFFFFF" height="171.2656" id="ClientXMLDTO" rx="2.5" ry="2.5" style="stroke:#000000;stroke-width:0.5;" width="309" x="1927.5" y="592"/><ellipse cx="2031.25" cy="608" fill="#ADD1B2" rx="11" ry="11" style="stroke:#181818;stroke-width:1.0;"/><path d="M2034.0156,603.875 Q2034.1719,603.6563 2034.3594,603.5469 Q2034.5469,603.4375 2034.7656,603.4375 Q2035.1406,603.4375 2035.375,603.6953 Q2035.6094,603.9531 2035.6094,604.5625 L2035.6094,606.0156 Q2035.6094,606.625 2035.375,606.8906 Q2035.1406,607.1563 2034.7656,607.1563 Q2034.4219,607.1563 2034.2188,606.9531 Q2034.0156,606.7656 2033.9063,606.25 Q2033.8594,605.8906 2033.6719,605.7031 Q2033.3438,605.3281 2032.7344,605.1094 Q2032.125,604.8906 2031.5,604.8906 Q2030.7344,604.8906 2030.1016,605.2188 Q2029.4688,605.5469 2028.9766,606.2969 Q2028.4844,607.0469 2028.4844,608.0781 L2028.4844,609.1719 Q2028.4844,610.4063 2029.375,611.2266 Q2030.2656,612.0469 2031.8594,612.0469 Q2032.7969,612.0469 2033.4531,611.7969 Q2033.8438,611.6406 2034.2656,611.2031 Q2034.5313,610.9375 2034.6797,610.8594 Q2034.8281,610.7813 2035.0313,610.7813 Q2035.3594,610.7813 2035.6172,611.0391 Q2035.875,611.2969 2035.875,611.6406 Q2035.875,611.9844 2035.5313,612.3906 Q2035.0313,612.9688 2034.2344,613.2969 Q2033.1563,613.75 2031.8594,613.75 Q2030.3438,613.75 2029.1406,613.125 Q2028.1563,612.625 2027.4688,611.5547 Q2026.7813,610.4844 2026.7813,609.2031 L2026.7813,608.0469 Q2026.7813,606.7188 2027.3984,605.5703 Q2028.0156,604.4219 2029.1094,603.8047 Q2030.2031,603.1875 2031.4375,603.1875 Q2032.1719,603.1875 2032.8203,603.3516 Q2033.4688,603.5156 2034.0156,603.875 Z " fill="#000000"/><text fill="#000000" font-family="sans-serif" font-size="14" lengthAdjust="spacing" textLength="93" x="2051.75" y="613.7285">ClientXMLDTO</text><line style="stroke:#000000;stroke-width:0.5;" x1="1928.5" x2="2235.5" y1="624" y2="624"/><text fill="#000000" font-family="sans-serif" font-size="14" lengthAdjust="spacing" textLength="168" x="1933.5" y="642.5332">+Guid ClientId &#171;get&#187; &#171;set&#187;</text><text fill="#000000" font-family="sans-serif" font-size="14" lengthAdjust="spacing" textLength="154" x="1933.5" y="660.1426">+string Nom &#171;get&#187; &#171;set&#187;</text><text fill="#000000" font-family="sans-serif" font-size="14" lengthAdjust="spacing" textLength="175" x="1933.5" y="677.752">+string Prenom &#171;get&#187; &#171;set&#187;</text><text fill="#000000" font-family="sans-serif" font-size="14" lengthAdjust="spacing" textLength="297" x="1933.5" y="695.3613">+List&lt;AdresseXMLDTO&gt; Adresses &#171;get&#187; &#171;set&#187;</text><line style="stroke:#000000;stroke-width:0.5;" x1="1928.5" x2="2235.5" y1="702.4375" y2="702.4375"/><text fill="#000000" font-family="sans-serif" font-size="14" lengthAdjust="spacing" textLength="42" x="1933.5" y="720.9707">+ctor()</text><text fill="#000000" font-family="sans-serif" font-size="14" lengthAdjust="spacing" textLength="139" x="1933.5" y="738.5801">+ctor(p_client : Client)</text><text fill="#000000" font-family="sans-serif" font-size="14" lengthAdjust="spacing" textLength="131" x="1933.5" y="756.1895">+VersEntite() : Client</text></g><!--class AdresseXMLDTO--><g id="elem_AdresseXMLDTO"><rect codeLine="103" fill="#FFFFFF" height="259.3125" id="AdresseXMLDTO" rx="2.5" ry="2.5" style="stroke:#000000;stroke-width:0.5;" width="319" x="1927.5" y="840.5"/><ellipse cx="2028.25" cy="856.5" fill="#ADD1B2" rx="11" ry="11" style="stroke:#181818;stroke-width:1.0;"/><path d="M2031.0156,852.375 Q2031.1719,852.1563 2031.3594,852.0469 Q2031.5469,851.9375 2031.7656,851.9375 Q2032.1406,851.9375 2032.375,852.1953 Q2032.6094,852.4531 2032.6094,853.0625 L2032.6094,854.5156 Q2032.6094,855.125 2032.375,855.3906 Q2032.1406,855.6563 2031.7656,855.6563 Q2031.4219,855.6563 2031.2188,855.4531 Q2031.0156,855.2656 2030.9063,854.75 Q2030.8594,854.3906 2030.6719,854.2031 Q2030.3438,853.8281 2029.7344,853.6094 Q2029.125,853.3906 2028.5,853.3906 Q2027.7344,853.3906 2027.1016,853.7188 Q2026.4688,854.0469 2025.9766,854.7969 Q2025.4844,855.5469 2025.4844,856.5781 L2025.4844,857.6719 Q2025.4844,858.9063 2026.375,859.7266 Q2027.2656,860.5469 2028.8594,860.5469 Q2029.7969,860.5469 2030.4531,860.2969 Q2030.8438,860.1406 2031.2656,859.7031 Q2031.5313,859.4375 2031.6797,859.3594 Q2031.8281,859.2813 2032.0313,859.2813 Q2032.3594,859.2813 2032.6172,859.5391 Q2032.875,859.7969 2032.875,860.1406 Q2032.875,860.4844 2032.5313,860.8906 Q2032.0313,861.4688 2031.2344,861.7969 Q2030.1563,862.25 2028.8594,862.25 Q2027.3438,862.25 2026.1406,861.625 Q2025.1563,861.125 2024.4688,860.0547 Q2023.7813,858.9844 2023.7813,857.7031 L2023.7813,856.5469 Q2023.7813,855.2188 2024.3984,854.0703 Q2025.0156,852.9219 2026.1094,852.3047 Q2027.2031,851.6875 2028.4375,851.6875 Q2029.1719,851.6875 2029.8203,851.8516 Q2030.4688,852.0156 2031.0156,852.375 Z " fill="#000000"/><text fill="#000000" font-family="sans-serif" font-size="14" lengthAdjust="spacing" textLength="109" x="2048.75" y="862.2285">AdresseXMLDTO</text><line style="stroke:#000000;stroke-width:0.5;" x1="1928.5" x2="2245.5" y1="872.5" y2="872.5"/><text fill="#000000" font-family="sans-serif" font-size="14" lengthAdjust="spacing" textLength="184" x="1933.5" y="891.0332">+Guid AdresseId &#171;get&#187; &#171;set&#187;</text><text fill="#000000" font-family="sans-serif" font-size="14" lengthAdjust="spacing" textLength="230" x="1933.5" y="908.6426">+NumeroCivique : string &#171;get&#187; &#171;set&#187;</text><text fill="#000000" font-family="sans-serif" font-size="14" lengthAdjust="spacing" textLength="307" x="1933.5" y="926.252">+InformationComplementaire : string &#171;get&#187; &#171;set&#187;</text><text fill="#000000" font-family="sans-serif" font-size="14" lengthAdjust="spacing" textLength="195" x="1933.5" y="943.8613">+Odonyme : string &#171;get&#187; &#171;set&#187;</text><text fill="#000000" font-family="sans-serif" font-size="14" lengthAdjust="spacing" textLength="194" x="1933.5" y="961.4707">+TypeVoie : string &#171;get&#187; &#171;set&#187;</text><text fill="#000000" font-family="sans-serif" font-size="14" lengthAdjust="spacing" textLength="207" x="1933.5" y="979.0801">+CodePostal : string &#171;get&#187; &#171;set&#187;</text><text fill="#000000" font-family="sans-serif" font-size="14" lengthAdjust="spacing" textLength="236" x="1933.5" y="996.6895">+NomMunicipalite : string &#171;get&#187; &#171;set&#187;</text><text fill="#000000" font-family="sans-serif" font-size="14" lengthAdjust="spacing" textLength="159" x="1933.5" y="1014.2988">+Etat : string &#171;get&#187; &#171;set&#187;</text><text fill="#000000" font-family="sans-serif" font-size="14" lengthAdjust="spacing" textLength="169" x="1933.5" y="1031.9082">+Pays : string  &#171;get&#187; &#171;set&#187;</text><line style="stroke:#000000;stroke-width:0.5;" x1="1928.5" x2="2245.5" y1="1038.9844" y2="1038.9844"/><text fill="#000000" font-family="sans-serif" font-size="14" lengthAdjust="spacing" textLength="42" x="1933.5" y="1057.5176">+ctor()</text><text fill="#000000" font-family="sans-serif" font-size="14" lengthAdjust="spacing" textLength="173" x="1933.5" y="1075.127">+ctor(p_adresse : Adresse)</text><text fill="#000000" font-family="sans-serif" font-size="14" lengthAdjust="spacing" textLength="147" x="1933.5" y="1092.7363">+VersEntite() : Adresse</text></g><!--class ClientUIConsole--><g id="elem_ClientUIConsole"><rect codeLine="122" fill="#FFFFFF" height="224.0938" id="ClientUIConsole" rx="2.5" ry="2.5" style="stroke:#000000;stroke-width:0.5;" width="252" x="927" y="42"/><ellipse cx="998.75" cy="58" fill="#ADD1B2" rx="11" ry="11" style="stroke:#181818;stroke-width:1.0;"/><path d="M1001.5156,53.875 Q1001.6719,53.6563 1001.8594,53.5469 Q1002.0469,53.4375 1002.2656,53.4375 Q1002.6406,53.4375 1002.875,53.6953 Q1003.1094,53.9531 1003.1094,54.5625 L1003.1094,56.0156 Q1003.1094,56.625 1002.875,56.8906 Q1002.6406,57.1563 1002.2656,57.1563 Q1001.9219,57.1563 1001.7188,56.9531 Q1001.5156,56.7656 1001.4063,56.25 Q1001.3594,55.8906 1001.1719,55.7031 Q1000.8438,55.3281 1000.2344,55.1094 Q999.625,54.8906 999,54.8906 Q998.2344,54.8906 997.6016,55.2188 Q996.9688,55.5469 996.4766,56.2969 Q995.9844,57.0469 995.9844,58.0781 L995.9844,59.1719 Q995.9844,60.4063 996.875,61.2266 Q997.7656,62.0469 999.3594,62.0469 Q1000.2969,62.0469 1000.9531,61.7969 Q1001.3438,61.6406 1001.7656,61.2031 Q1002.0313,60.9375 1002.1797,60.8594 Q1002.3281,60.7813 1002.5313,60.7813 Q1002.8594,60.7813 1003.1172,61.0391 Q1003.375,61.2969 1003.375,61.6406 Q1003.375,61.9844 1003.0313,62.3906 Q1002.5313,62.9688 1001.7344,63.2969 Q1000.6563,63.75 999.3594,63.75 Q997.8438,63.75 996.6406,63.125 Q995.6563,62.625 994.9688,61.5547 Q994.2813,60.4844 994.2813,59.2031 L994.2813,58.0469 Q994.2813,56.7188 994.8984,55.5703 Q995.5156,54.4219 996.6094,53.8047 Q997.7031,53.1875 998.9375,53.1875 Q999.6719,53.1875 1000.3203,53.3516 Q1000.9688,53.5156 1001.5156,53.875 Z " fill="#000000"/><text fill="#000000" font-family="sans-serif" font-size="14" lengthAdjust="spacing" textLength="100" x="1019.25" y="63.7285">ClientUIConsole</text><line style="stroke:#000000;stroke-width:0.5;" x1="928" x2="1178" y1="74" y2="74"/><text fill="#000000" font-family="sans-serif" font-size="14" lengthAdjust="spacing" textLength="192" x="933" y="92.5332">-m_depotClient : IDepotClients</text><line style="stroke:#000000;stroke-width:0.5;" x1="928" x2="1178" y1="99.6094" y2="99.6094"/><text fill="#000000" font-family="sans-serif" font-size="14" lengthAdjust="spacing" textLength="226" x="933" y="118.1426">+ctor(p_depotClient : IDepotClients)</text><text fill="#000000" font-family="sans-serif" font-size="14" lengthAdjust="spacing" textLength="98" x="933" y="135.752">-AfficherMenu()</text><text fill="#000000" font-family="sans-serif" font-size="14" lengthAdjust="spacing" textLength="147" x="933" y="153.3613">-SaisirChoixMenu() : int</text><text fill="#000000" font-family="sans-serif" font-size="14" lengthAdjust="spacing" textLength="85" x="933" y="170.9707">+ExecuterUI()</text><text fill="#000000" font-family="sans-serif" font-size="14" lengthAdjust="spacing" textLength="217" x="933" y="188.5801">-SaisirClientAvecAdresse() : Client</text><text fill="#000000" font-family="sans-serif" font-size="14" lengthAdjust="spacing" textLength="192" x="933" y="206.1895">-AfficherClient(p_client: Client)</text><text fill="#000000" font-family="sans-serif" font-size="14" lengthAdjust="spacing" textLength="219" x="933" y="223.7988">-RechercherEtAfficherClientParId()</text><text fill="#000000" font-family="sans-serif" font-size="14" lengthAdjust="spacing" textLength="154" x="933" y="241.4082">-ListerEtAfficherClients()</text><text fill="#000000" font-family="sans-serif" font-size="14" lengthAdjust="spacing" textLength="240" x="933" y="259.0176">-GenererAdresseAleatoire() : Adresse</text></g><!--class TraitementLot--><g id="elem_TraitementLot"><rect codeLine="137" fill="#FFFFFF" height="65.6094" id="TraitementLot" rx="2.5" ry="2.5" style="stroke:#000000;stroke-width:0.5;" width="120" x="401" y="386"/><ellipse cx="416" cy="402" fill="#B4A7E5" rx="11" ry="11" style="stroke:#181818;stroke-width:1.0;"/><path d="M416.9531,398.6406 L416.9531,405.2969 L418.6719,405.2969 Q419.2813,405.2969 419.5469,405.5313 Q419.8125,405.7656 419.8125,406.1563 Q419.8125,406.5313 419.5469,406.7656 Q419.2813,407 418.6719,407 L413.5313,407 Q412.9219,407 412.6563,406.7656 Q412.3906,406.5313 412.3906,406.1406 Q412.3906,405.7656 412.6563,405.5313 Q412.9219,405.2969 413.5313,405.2969 L415.25,405.2969 L415.25,398.6406 L413.5313,398.6406 Q412.9219,398.6406 412.6563,398.4063 Q412.3906,398.1719 412.3906,397.7813 Q412.3906,397.4063 412.6563,397.1719 Q412.9219,396.9375 413.5313,396.9375 L418.6719,396.9375 Q419.2813,396.9375 419.5469,397.1719 Q419.8125,397.4063 419.8125,397.7813 Q419.8125,398.1719 419.5469,398.4063 Q419.2813,398.6406 418.6719,398.6406 L416.9531,398.6406 Z " fill="#000000"/><text fill="#000000" font-family="sans-serif" font-size="14" font-style="italic" lengthAdjust="spacing" textLength="88" x="430" y="407.7285">TraitementLot</text><line style="stroke:#000000;stroke-width:0.5;" x1="402" x2="520" y1="418" y2="418"/><line style="stroke:#000000;stroke-width:0.5;" x1="402" x2="520" y1="426" y2="426"/><text fill="#000000" font-family="sans-serif" font-size="14" lengthAdjust="spacing" textLength="73" x="407" y="444.5332">+Executer()</text></g><!--class ModifierNomPrenomPremiereLettreMajusculesTraitementLot--><g id="elem_ModifierNomPrenomPremiereLettreMajusculesTraitementLot"><rect codeLine="146" fill="#FFFFFF" height="100.8281" id="ModifierNomPrenomPremiereLettreMajusculesTraitementLot" rx="2.5" ry="2.5" style="stroke:#000000;stroke-width:0.5;" width="411" x="46.5" y="627"/><ellipse cx="61.5" cy="643" fill="#ADD1B2" rx="11" ry="11" style="stroke:#181818;stroke-width:1.0;"/><path d="M64.2656,638.875 Q64.4219,638.6563 64.6094,638.5469 Q64.7969,638.4375 65.0156,638.4375 Q65.3906,638.4375 65.625,638.6953 Q65.8594,638.9531 65.8594,639.5625 L65.8594,641.0156 Q65.8594,641.625 65.625,641.8906 Q65.3906,642.1563 65.0156,642.1563 Q64.6719,642.1563 64.4688,641.9531 Q64.2656,641.7656 64.1563,641.25 Q64.1094,640.8906 63.9219,640.7031 Q63.5938,640.3281 62.9844,640.1094 Q62.375,639.8906 61.75,639.8906 Q60.9844,639.8906 60.3516,640.2188 Q59.7188,640.5469 59.2266,641.2969 Q58.7344,642.0469 58.7344,643.0781 L58.7344,644.1719 Q58.7344,645.4063 59.625,646.2266 Q60.5156,647.0469 62.1094,647.0469 Q63.0469,647.0469 63.7031,646.7969 Q64.0938,646.6406 64.5156,646.2031 Q64.7813,645.9375 64.9297,645.8594 Q65.0781,645.7813 65.2813,645.7813 Q65.6094,645.7813 65.8672,646.0391 Q66.125,646.2969 66.125,646.6406 Q66.125,646.9844 65.7813,647.3906 Q65.2813,647.9688 64.4844,648.2969 Q63.4063,648.75 62.1094,648.75 Q60.5938,648.75 59.3906,648.125 Q58.4063,647.625 57.7188,646.5547 Q57.0313,645.4844 57.0313,644.2031 L57.0313,643.0469 Q57.0313,641.7188 57.6484,640.5703 Q58.2656,639.4219 59.3594,638.8047 Q60.4531,638.1875 61.6875,638.1875 Q62.4219,638.1875 63.0703,638.3516 Q63.7188,638.5156 64.2656,638.875 Z " fill="#000000"/><text fill="#000000" font-family="sans-serif" font-size="14" lengthAdjust="spacing" textLength="379" x="75.5" y="648.7285">ModifierNomPrenomPremiereLettreMajusculesTraitementLot</text><line style="stroke:#000000;stroke-width:0.5;" x1="47.5" x2="456.5" y1="659" y2="659"/><text fill="#000000" font-family="sans-serif" font-size="14" lengthAdjust="spacing" textLength="192" x="52.5" y="677.5332">-m_depotClient : IDepotClients</text><line style="stroke:#000000;stroke-width:0.5;" x1="47.5" x2="456.5" y1="684.6094" y2="684.6094"/><text fill="#000000" font-family="sans-serif" font-size="14" lengthAdjust="spacing" textLength="226" x="52.5" y="703.1426">+ctor(p_depotClient : IDepotClients)</text><text fill="#000000" font-family="sans-serif" font-size="14" lengthAdjust="spacing" textLength="73" x="52.5" y="720.752">+Executer()</text></g><!--class ModifierPaysMajusculesClientsTraitementLot--><g id="elem_ModifierPaysMajusculesClientsTraitementLot"><rect codeLine="157" fill="#FFFFFF" height="100.8281" id="ModifierPaysMajusculesClientsTraitementLot" rx="2.5" ry="2.5" style="stroke:#000000;stroke-width:0.5;" width="314" x="514" y="627"/><ellipse cx="529" cy="643" fill="#ADD1B2" rx="11" ry="11" style="stroke:#181818;stroke-width:1.0;"/><path d="M531.7656,638.875 Q531.9219,638.6563 532.1094,638.5469 Q532.2969,638.4375 532.5156,638.4375 Q532.8906,638.4375 533.125,638.6953 Q533.3594,638.9531 533.3594,639.5625 L533.3594,641.0156 Q533.3594,641.625 533.125,641.8906 Q532.8906,642.1563 532.5156,642.1563 Q532.1719,642.1563 531.9688,641.9531 Q531.7656,641.7656 531.6563,641.25 Q531.6094,640.8906 531.4219,640.7031 Q531.0938,640.3281 530.4844,640.1094 Q529.875,639.8906 529.25,639.8906 Q528.4844,639.8906 527.8516,640.2188 Q527.2188,640.5469 526.7266,641.2969 Q526.2344,642.0469 526.2344,643.0781 L526.2344,644.1719 Q526.2344,645.4063 527.125,646.2266 Q528.0156,647.0469 529.6094,647.0469 Q530.5469,647.0469 531.2031,646.7969 Q531.5938,646.6406 532.0156,646.2031 Q532.2813,645.9375 532.4297,645.8594 Q532.5781,645.7813 532.7813,645.7813 Q533.1094,645.7813 533.3672,646.0391 Q533.625,646.2969 533.625,646.6406 Q533.625,646.9844 533.2813,647.3906 Q532.7813,647.9688 531.9844,648.2969 Q530.9063,648.75 529.6094,648.75 Q528.0938,648.75 526.8906,648.125 Q525.9063,647.625 525.2188,646.5547 Q524.5313,645.4844 524.5313,644.2031 L524.5313,643.0469 Q524.5313,641.7188 525.1484,640.5703 Q525.7656,639.4219 526.8594,638.8047 Q527.9531,638.1875 529.1875,638.1875 Q529.9219,638.1875 530.5703,638.3516 Q531.2188,638.5156 531.7656,638.875 Z " fill="#000000"/><text fill="#000000" font-family="sans-serif" font-size="14" lengthAdjust="spacing" textLength="282" x="543" y="648.7285">ModifierPaysMajusculesClientsTraitementLot</text><line style="stroke:#000000;stroke-width:0.5;" x1="515" x2="827" y1="659" y2="659"/><text fill="#000000" font-family="sans-serif" font-size="14" lengthAdjust="spacing" textLength="192" x="520" y="677.5332">-m_depotClient : IDepotClients</text><line style="stroke:#000000;stroke-width:0.5;" x1="515" x2="827" y1="684.6094" y2="684.6094"/><text fill="#000000" font-family="sans-serif" font-size="14" lengthAdjust="spacing" textLength="226" x="520" y="703.1426">+ctor(p_depotClient : IDepotClients)</text><text fill="#000000" font-family="sans-serif" font-size="14" lengthAdjust="spacing" textLength="73" x="520" y="720.752">+Executer()</text></g><!--link Client to Adresse--><g id="link_Client_Adresse"><path codeLine="10" d="M1540,496.26 C1540,520.78 1540,542.34 1540,568.4 " fill="none" id="Client-to-Adresse" style="stroke:#181818;stroke-width:1.0;"/><polygon fill="#181818" points="1540,574.4,1544,565.4,1540,569.4,1536,565.4,1540,574.4" style="stroke:#181818;stroke-width:1.0;"/><text fill="#000000" font-family="sans-serif" font-size="13" lengthAdjust="spacing" textLength="7" x="1532.6992" y="517.112">1</text><text fill="#000000" font-family="sans-serif" font-size="13" lengthAdjust="spacing" textLength="5" x="1534.8164" y="563.7313">*</text></g><!--reverse link IDepotClients to DepotClientsJSON--><g id="link_IDepotClients_DepotClientsJSON"><path codeLine="42" d="M1177.388,484.8942 C1195.388,492.2942 1197.57,491.87 1216,496 C1239.54,501.28 2930.87,494.4 2953,504 C2998.93,523.92 3037.98,563.78 3066.33,600.18 " fill="none" id="IDepotClients-backto-DepotClientsJSON" style="stroke:#181818;stroke-width:1.0;stroke-dasharray:7.0,7.0;"/><polygon fill="none" points="1160.74,478.05,1175.1066,490.4435,1179.6694,479.3448,1160.74,478.05" style="stroke:#181818;stroke-width:1.0;"/></g><!--link ClientJSONDTO to AdresseJSONDTO--><g id="link_ClientJSONDTO_AdresseJSONDTO"><path codeLine="43" d="M2777.29,763.31 C2777.37,787.42 2777.4493,808.24 2777.5393,834.34 " fill="none" id="ClientJSONDTO-to-AdresseJSONDTO" style="stroke:#181818;stroke-width:1.0;"/><polygon fill="#181818" points="2777.56,840.34,2781.5289,831.3263,2777.5428,835.34,2773.529,831.3538,2777.56,840.34" style="stroke:#181818;stroke-width:1.0;"/><text fill="#000000" font-family="sans-serif" font-size="13" lengthAdjust="spacing" textLength="7" x="2770.0141" y="784.8706">1</text><text fill="#000000" font-family="sans-serif" font-size="13" lengthAdjust="spacing" textLength="5" x="2772.3808" y="829.4477">*</text></g><!--reverse link IDepotClients to DepotClientsXML--><g id="link_IDepotClients_DepotClientsXML"><path codeLine="81" d="M1177.8521,485.0143 C1195.7121,492.3443 1197.73,491.88 1216,496 C1244.13,502.35 2227.56,492.49 2254,504 C2299.9,523.99 2338.95,563.86 2367.31,600.24 " fill="none" id="IDepotClients-backto-DepotClientsXML" style="stroke:#181818;stroke-width:1.0;stroke-dasharray:7.0,7.0;"/><polygon fill="none" points="1161.2,478.18,1175.574,490.565,1180.1302,479.4636,1161.2,478.18" style="stroke:#181818;stroke-width:1.0;"/></g><!--link ClientXMLDTO to AdresseXMLDTO--><g id="link_ClientXMLDTO_AdresseXMLDTO"><path codeLine="82" d="M2083.46,763.31 C2083.87,787.42 2084.2366,808.2409 2084.6866,834.3409 " fill="none" id="ClientXMLDTO-to-AdresseXMLDTO" style="stroke:#181818;stroke-width:1.0;"/><polygon fill="#181818" points="2084.79,840.34,2088.6343,831.2724,2084.7038,835.3407,2080.6354,831.4103,2084.79,840.34" style="stroke:#181818;stroke-width:1.0;"/><text fill="#000000" font-family="sans-serif" font-size="13" lengthAdjust="spacing" textLength="7" x="2076.2847" y="784.8706">1</text><text fill="#000000" font-family="sans-serif" font-size="13" lengthAdjust="spacing" textLength="5" x="2079.503" y="829.4477">*</text></g><!--link ClientUIConsole to IDepotClients--><g id="link_ClientUIConsole_IDepotClients"><path codeLine="120" d="M1053,266.15 C1053,298.4 1053,326.32 1053,353.9 " fill="none" id="ClientUIConsole-to-IDepotClients" style="stroke:#181818;stroke-width:1.0;"/><polygon fill="#181818" points="1053,359.9,1057,350.9,1053,354.9,1049,350.9,1053,359.9" style="stroke:#181818;stroke-width:1.0;"/><text fill="#000000" font-family="sans-serif" font-size="13" lengthAdjust="spacing" textLength="7" x="1045.7648" y="287.7264">1</text><text fill="#000000" font-family="sans-serif" font-size="13" lengthAdjust="spacing" textLength="7" x="1045.5734" y="349.2121">1</text></g><!--reverse link TraitementLot to ModifierNomPrenomPremiereLettreMajusculesTraitementLot--><g id="link_TraitementLot_ModifierNomPrenomPremiereLettreMajusculesTraitementLot"><path codeLine="143" d="M423.3695,466.1839 C387.6295,510.0439 334.69,575.02 292.68,626.58 " fill="none" id="TraitementLot-backto-ModifierNomPrenomPremiereLettreMajusculesTraitementLot" style="stroke:#181818;stroke-width:1.0;stroke-dasharray:7.0,7.0;"/><polygon fill="none" points="434.74,452.23,418.7182,462.3937,428.0208,469.9741,434.74,452.23" style="stroke:#181818;stroke-width:1.0;"/></g><!--reverse link IDepotClients to ModifierNomPrenomPremiereLettreMajusculesTraitementLot--><g id="link_IDepotClients_ModifierNomPrenomPremiereLettreMajusculesTraitementLot"><path codeLine="144" d="M923.7016,480.0914 C903.5816,487.4114 888.31,491.76 868,496 C827.75,504.4 537.08,491.2 498,504 C422.41,528.76 349.58,585.24 303.05,626.85 " fill="none" id="IDepotClients-backto-ModifierNomPrenomPremiereLettreMajusculesTraitementLot" style="stroke:#181818;stroke-width:1.0;"/><polygon fill="#181818" points="929.34,478.04,919.5148,477.3581,924.6413,479.7495,922.2499,484.876,929.34,478.04" style="stroke:#181818;stroke-width:1.0;"/></g><!--reverse link TraitementLot to ModifierPaysMajusculesClientsTraitementLot--><g id="link_TraitementLot_ModifierPaysMajusculesClientsTraitementLot"><path codeLine="154" d="M498.7848,466.1559 C534.7048,510.0159 587.92,575.02 630.13,626.58 " fill="none" id="TraitementLot-backto-ModifierPaysMajusculesClientsTraitementLot" style="stroke:#181818;stroke-width:1.0;stroke-dasharray:7.0,7.0;"/><polygon fill="none" points="487.38,452.23,494.1429,469.9575,503.4268,462.3542,487.38,452.23" style="stroke:#181818;stroke-width:1.0;"/></g><!--reverse link IDepotClients to ModifierPaysMajusculesClientsTraitementLot--><g id="link_IDepotClients_ModifierPaysMajusculesClientsTraitementLot"><path codeLine="155" d="M930.2471,481.0274 C915.3671,489.3074 905.79,495.13 892,504 C833.68,541.53 771.81,590.73 728.41,626.98 " fill="none" id="IDepotClients-backto-ModifierPaysMajusculesClientsTraitementLot" style="stroke:#181818;stroke-width:1.0;"/><polygon fill="#181818" points="935.49,478.11,925.6806,478.9909,931.1209,480.5412,929.5705,485.9815,935.49,478.11" style="stroke:#181818;stroke-width:1.0;"/></g><!--SRC=[xLXjRzCm4FwUNs6L3xH0g_8LLPLALgQWTflO2toRlEJQUaliO3lJnjX_uRVmox3hl2Tjao8q18lKHlRTStSvtpsE8su83J770N9zBCH4Iawk8WcEo-Wf-GPeQ8cY2dgmaBhUO_TcoLb4FPlvZAFFAoB1I1ZtW9lP5yFXq7gqB2jKwdW9Q4gbqakCs3u1Ab7dRGVr-sFKUTL14u-3462jvSPXh6KW-dgDNCbuDxnqrnB7G-_GOKIyDoYyf2nG8w4UWoxrEEHGdiB6XL2JpfH60N1yvSCezZpkvVnegx5_vMKqMe8SZzKzvEGMIq12ZtFwnWawKXuRAv-O27VhpuYGQPH9eaG3uEIQgINbS-QH1G4U8xjf9bGYuZdpx8_vxCUIGlhNQOa5ZV9ofBFCR79BlaQGBaO3e4CNZ0TO4aPj5eG-16efCE6jZ1nxZDu7hI1dzo5SCD8AOpCFJfYGs6-3KhKoZoXnIOXzrHfje5E9PHlz4tmlClsjWBW425Lriy0k8ES0GYPDAuYVFnwgvMLaQLSgHsQcLohXH5DqUqfdNTHc8X_g9t1NmFMlP3Pjzbxg80TBIdnxB8-QaX96ibcat4nS5yG1enH033wU7X_5zLvuR3JwFXYW_8pMp36P7XwS7TSHMYogybg2UMX0EutefYdDRAENEAXQbYdZrbpSsqJEjMLm0LoOdQ1RMiOwwjcOeJe6QiqylyKuBPYc3SEqOvOz6AKfapHcaAP5iM77gIsBv5MWKXVb3inLHXy5-XNW0t5NYWRIKAk1r2Zr_cLE-pAVDQCqfPXZD3NQG6X6KkMp6F5NqPc9wOdPh9JavwAjP_jDzVDCzlyHsUUuR1A6Fd7NIrGuDPuxDgE2-P2HaxeNoArAJXces7rUXjAdmeAHocDjKUxbh4uM2wBxPWuqwkO5fvW8mkqL8tT6fgoGGlTCxy3LdNpkr07NhYQtu2O7kPeEpDoNEh1A1lrSZqzb4NQ2kUCLOZ34KTOJ1Pr3eC3JS-R41ooPwgdjwtp6iQe5tNzYncJoXI0xW6Ho9IxGGvAjRc-drK72Iwfjp0wY_WCrXXb8oM6EhoFXHdxwXQBeTRrPDZPHmDPjlVt-liPoXRsVXJzU__ijYwQSBE8aKJkNeXRM9lqD3DIaV3VgYTByij9D8vMjlNkXfRtQjEYWaez_6hpXsBrRIx-V5fLoEqH9KehG-WK0]--></g></svg>