<?xml version="1.0" encoding="UTF-8" standalone="no"?><svg xmlns="http://www.w3.org/2000/svg" xmlns:xlink="http://www.w3.org/1999/xlink" contentScriptType="application/ecmascript" contentStyleType="text/css" height="568px" preserveAspectRatio="none" style="width:2258px;height:568px;" version="1.1" viewBox="0 0 2258 568" width="2258px" zoomAndPan="magnify"><defs><filter height="300%" id="f14srs8jux7xjr" width="300%" x="-1" y="-1"><feGaussianBlur result="blurOut" stdDeviation="2.0"/><feColorMatrix in="blurOut" result="blurOut2" type="matrix" values="0 0 0 0 0 0 0 0 0 0 0 0 0 0 0 0 0 0 .4 0"/><feOffset dx="4.0" dy="4.0" in="blurOut2" result="blurOut3"/><feBlend in="SourceGraphic" in2="blurOut3" mode="normal"/></filter></defs><g><!--MD5=[ab2a9c778be45ce09f2dd240b46c09a9]
class IDepotClients--><rect fill="#FFFFFF" filter="url(#f14srs8jux7xjr)" height="99.8203" id="IDepotClients" style="stroke: #000000; stroke-width: 1.5;" width="207" x="127" y="272"/><ellipse cx="188.25" cy="288" fill="#B4A7E5" rx="11" ry="11" style="stroke: #000000; stroke-width: 1.0;"/><path d="M184.6777,284.2651 L184.6777,282.1069 L192.0571,282.1069 L192.0571,284.2651 L189.5918,284.2651 L189.5918,292.3418 L192.0571,292.3418 L192.0571,294.5 L184.6777,294.5 L184.6777,292.3418 L187.1431,292.3418 L187.1431,284.2651 Z "/><text fill="#000000" font-family="sans-serif" font-size="12" font-style="italic" lengthAdjust="spacingAndGlyphs" textLength="76" x="208.75" y="292.5352">IDepotClients</text><line style="stroke: #000000; stroke-width: 1.5;" x1="128" x2="333" y1="304" y2="304"/><line style="stroke: #000000; stroke-width: 1.5;" x1="128" x2="333" y1="312" y2="312"/><text fill="#000000" font-family="sans-serif" font-size="11" lengthAdjust="spacingAndGlyphs" textLength="170" x="133" y="326.6348">+AjouterClient(p_client : Client)</text><text fill="#000000" font-family="sans-serif" font-size="11" lengthAdjust="spacingAndGlyphs" textLength="161" x="133" y="339.5898">+ListerClients() : List&lt;Client&gt;</text><text fill="#000000" font-family="sans-serif" font-size="11" lengthAdjust="spacingAndGlyphs" textLength="195" x="133" y="352.5449">+RechercherClient(p_clientId : Guid)</text><text fill="#000000" font-family="sans-serif" font-size="11" lengthAdjust="spacingAndGlyphs" textLength="174" x="133" y="365.5">+ModifierClient(p_client : Client)</text><!--MD5=[381a50664acc2610a3131cd21e751d0c]
class DepotClientsJSON--><rect fill="#FFFFFF" filter="url(#f14srs8jux7xjr)" height="99.8203" id="DepotClientsJSON" style="stroke: #000000; stroke-width: 1.5;" width="207" x="6" y="458"/><ellipse cx="54.75" cy="474" fill="#ADD1B2" rx="11" ry="11" style="stroke: #000000; stroke-width: 1.0;"/><path d="M57.2231,480.1431 Q56.6421,480.4419 56.0029,480.5913 Q55.3638,480.7407 54.6582,480.7407 Q52.1514,480.7407 50.8315,479.0889 Q49.5117,477.437 49.5117,474.3159 Q49.5117,471.1865 50.8315,469.5347 Q52.1514,467.8828 54.6582,467.8828 Q55.3638,467.8828 56.0112,468.0322 Q56.6587,468.1816 57.2231,468.4805 L57.2231,471.2031 Q56.5923,470.6221 55.9988,470.3523 Q55.4053,470.0825 54.7744,470.0825 Q53.4297,470.0825 52.7449,471.1492 Q52.0601,472.2158 52.0601,474.3159 Q52.0601,476.4077 52.7449,477.4744 Q53.4297,478.541 54.7744,478.541 Q55.4053,478.541 55.9988,478.2712 Q56.5923,478.0015 57.2231,477.4204 Z "/><text fill="#000000" font-family="sans-serif" font-size="12" lengthAdjust="spacingAndGlyphs" textLength="101" x="75.25" y="478.5352">DepotClientsJSON</text><line style="stroke: #000000; stroke-width: 1.5;" x1="7" x2="212" y1="490" y2="490"/><line style="stroke: #000000; stroke-width: 1.5;" x1="7" x2="212" y1="498" y2="498"/><text fill="#000000" font-family="sans-serif" font-size="11" lengthAdjust="spacingAndGlyphs" textLength="170" x="12" y="512.6348">+AjouterClient(p_client : Client)</text><text fill="#000000" font-family="sans-serif" font-size="11" lengthAdjust="spacingAndGlyphs" textLength="161" x="12" y="525.5898">+ListerClients() : List&lt;Client&gt;</text><text fill="#000000" font-family="sans-serif" font-size="11" lengthAdjust="spacingAndGlyphs" textLength="195" x="12" y="538.5449">+RechercherClient(p_clientId : Guid)</text><text fill="#000000" font-family="sans-serif" font-size="11" lengthAdjust="spacingAndGlyphs" textLength="174" x="12" y="551.5">+ModifierClient(p_client : Client)</text><!--MD5=[f8511494ff06e83f9c1b15495446ebaa]
class DepotClientsXML--><rect fill="#FFFFFF" filter="url(#f14srs8jux7xjr)" height="99.8203" id="DepotClientsXML" style="stroke: #000000; stroke-width: 1.5;" width="207" x="248" y="458"/><ellipse cx="298.75" cy="474" fill="#ADD1B2" rx="11" ry="11" style="stroke: #000000; stroke-width: 1.0;"/><path d="M301.2231,480.1431 Q300.6421,480.4419 300.0029,480.5913 Q299.3638,480.7407 298.6582,480.7407 Q296.1514,480.7407 294.8315,479.0889 Q293.5117,477.437 293.5117,474.3159 Q293.5117,471.1865 294.8315,469.5347 Q296.1514,467.8828 298.6582,467.8828 Q299.3638,467.8828 300.0112,468.0322 Q300.6587,468.1816 301.2231,468.4805 L301.2231,471.2031 Q300.5923,470.6221 299.9988,470.3523 Q299.4053,470.0825 298.7744,470.0825 Q297.4297,470.0825 296.7449,471.1492 Q296.0601,472.2158 296.0601,474.3159 Q296.0601,476.4077 296.7449,477.4744 Q297.4297,478.541 298.7744,478.541 Q299.4053,478.541 299.9988,478.2712 Q300.5923,478.0015 301.2231,477.4204 Z "/><text fill="#000000" font-family="sans-serif" font-size="12" lengthAdjust="spacingAndGlyphs" textLength="97" x="319.25" y="478.5352">DepotClientsXML</text><line style="stroke: #000000; stroke-width: 1.5;" x1="249" x2="454" y1="490" y2="490"/><line style="stroke: #000000; stroke-width: 1.5;" x1="249" x2="454" y1="498" y2="498"/><text fill="#000000" font-family="sans-serif" font-size="11" lengthAdjust="spacingAndGlyphs" textLength="170" x="254" y="512.6348">+AjouterClient(p_client : Client)</text><text fill="#000000" font-family="sans-serif" font-size="11" lengthAdjust="spacingAndGlyphs" textLength="161" x="254" y="525.5898">+ListerClients() : List&lt;Client&gt;</text><text fill="#000000" font-family="sans-serif" font-size="11" lengthAdjust="spacingAndGlyphs" textLength="195" x="254" y="538.5449">+RechercherClient(p_clientId : Guid)</text><text fill="#000000" font-family="sans-serif" font-size="11" lengthAdjust="spacingAndGlyphs" textLength="174" x="254" y="551.5">+ModifierClient(p_client : Client)</text><!--MD5=[ed6624c6556d5e7b1bd23032162d20b7]
class Client--><rect fill="#FFFFFF" filter="url(#f14srs8jux7xjr)" height="125.7305" id="Client" style="stroke: #000000; stroke-width: 1.5;" width="527" x="373" y="34"/><ellipse cx="616.25" cy="50" fill="#ADD1B2" rx="11" ry="11" style="stroke: #000000; stroke-width: 1.0;"/><path d="M618.7231,56.1431 Q618.1421,56.4419 617.5029,56.5913 Q616.8638,56.7407 616.1582,56.7407 Q613.6514,56.7407 612.3315,55.0889 Q611.0117,53.437 611.0117,50.3159 Q611.0117,47.1865 612.3315,45.5347 Q613.6514,43.8828 616.1582,43.8828 Q616.8638,43.8828 617.5112,44.0322 Q618.1587,44.1816 618.7231,44.4805 L618.7231,47.2031 Q618.0923,46.6221 617.4988,46.3523 Q616.9053,46.0825 616.2744,46.0825 Q614.9297,46.0825 614.2449,47.1492 Q613.5601,48.2158 613.5601,50.3159 Q613.5601,52.4077 614.2449,53.4744 Q614.9297,54.541 616.2744,54.541 Q616.9053,54.541 617.4988,54.2712 Q618.0923,54.0015 618.7231,53.4204 Z "/><text fill="#000000" font-family="sans-serif" font-size="12" lengthAdjust="spacingAndGlyphs" textLength="32" x="636.75" y="54.5352">Client</text><line style="stroke: #000000; stroke-width: 1.5;" x1="374" x2="899" y1="66" y2="66"/><text fill="#000000" font-family="sans-serif" font-size="11" lengthAdjust="spacingAndGlyphs" textLength="181" x="379" y="80.6348">+Guid ClientId «get» «private set»</text><text fill="#000000" font-family="sans-serif" font-size="11" lengthAdjust="spacingAndGlyphs" textLength="172" x="379" y="93.5898">+string Nom «get» «private set»</text><text fill="#000000" font-family="sans-serif" font-size="11" lengthAdjust="spacingAndGlyphs" textLength="188" x="379" y="106.5449">+string Prenom «get» «private set»</text><text fill="#000000" font-family="sans-serif" font-size="11" lengthAdjust="spacingAndGlyphs" textLength="246" x="379" y="119.5">+List&lt;Adresse&gt; Adresses «get» «private set»</text><line style="stroke: #000000; stroke-width: 1.5;" x1="374" x2="899" y1="125.8203" y2="125.8203"/><text fill="#000000" font-family="sans-serif" font-size="11" lengthAdjust="spacingAndGlyphs" textLength="515" x="379" y="140.4551">+ctor(p_clientId : Guid, p_nom : string, p_prenom : string, p_adresses : IEnumerable&lt;Adresse&gt;)</text><text fill="#000000" font-family="sans-serif" font-size="11" lengthAdjust="spacingAndGlyphs" textLength="253" x="379" y="153.4102">+AjouterModifierAdresse(p_adresse : Adresse)</text><!--MD5=[70c811998a0d7544d2536fae1accd5d3]
class Adresse--><rect fill="#FFFFFF" filter="url(#f14srs8jux7xjr)" height="151.6406" id="Adresse" style="stroke: #000000; stroke-width: 1.5;" width="276" x="498.5" y="246"/><ellipse cx="608.75" cy="262" fill="#ADD1B2" rx="11" ry="11" style="stroke: #000000; stroke-width: 1.0;"/><path d="M611.2231,268.1431 Q610.6421,268.4419 610.0029,268.5913 Q609.3638,268.7407 608.6582,268.7407 Q606.1514,268.7407 604.8315,267.0889 Q603.5117,265.437 603.5117,262.3159 Q603.5117,259.1865 604.8315,257.5347 Q606.1514,255.8828 608.6582,255.8828 Q609.3638,255.8828 610.0112,256.0322 Q610.6587,256.1816 611.2231,256.4805 L611.2231,259.2031 Q610.5923,258.6221 609.9988,258.3523 Q609.4053,258.0825 608.7744,258.0825 Q607.4297,258.0825 606.7449,259.1492 Q606.0601,260.2158 606.0601,262.3159 Q606.0601,264.4077 606.7449,265.4744 Q607.4297,266.541 608.7744,266.541 Q609.4053,266.541 609.9988,266.2712 Q610.5923,266.0015 611.2231,265.4204 Z "/><text fill="#000000" font-family="sans-serif" font-size="12" lengthAdjust="spacingAndGlyphs" textLength="47" x="629.25" y="266.5352">Adresse</text><line style="stroke: #000000; stroke-width: 1.5;" x1="499.5" x2="773.5" y1="278" y2="278"/><text fill="#000000" font-family="sans-serif" font-size="11" lengthAdjust="spacingAndGlyphs" textLength="196" x="504.5" y="292.6348">+NumeroCivique : string «get» «set»</text><text fill="#000000" font-family="sans-serif" font-size="11" lengthAdjust="spacingAndGlyphs" textLength="264" x="504.5" y="305.5898">+InformationComplementaire : string «get» «set»</text><text fill="#000000" font-family="sans-serif" font-size="11" lengthAdjust="spacingAndGlyphs" textLength="165" x="504.5" y="318.5449">+Odonyme : string «get» «set»</text><text fill="#000000" font-family="sans-serif" font-size="11" lengthAdjust="spacingAndGlyphs" textLength="162" x="504.5" y="331.5">+TypeVoie : string «get» «set»</text><text fill="#000000" font-family="sans-serif" font-size="11" lengthAdjust="spacingAndGlyphs" textLength="173" x="504.5" y="344.4551">+CodePostal : string «get» «set»</text><text fill="#000000" font-family="sans-serif" font-size="11" lengthAdjust="spacingAndGlyphs" textLength="202" x="504.5" y="357.4102">+NomMunicipalite : string «get» «set»</text><text fill="#000000" font-family="sans-serif" font-size="11" lengthAdjust="spacingAndGlyphs" textLength="133" x="504.5" y="370.3652">+Etat : string «get» «set»</text><text fill="#000000" font-family="sans-serif" font-size="11" lengthAdjust="spacingAndGlyphs" textLength="140" x="504.5" y="383.3203">+Pays : string  «get» «set»</text><line style="stroke: #000000; stroke-width: 1.5;" x1="499.5" x2="773.5" y1="389.6406" y2="389.6406"/><!--MD5=[c6a3e9841f0c57e28fdf2284cd93a375]
class ClientXMLDTO--><rect fill="#FFFFFF" filter="url(#f14srs8jux7xjr)" height="99.8203" id="ClientXMLDTO" style="stroke: #000000; stroke-width: 1.5;" width="258" x="935.5" y="47"/><ellipse cx="1019.25" cy="63" fill="#ADD1B2" rx="11" ry="11" style="stroke: #000000; stroke-width: 1.0;"/><path d="M1021.7231,69.1431 Q1021.1421,69.4419 1020.5029,69.5913 Q1019.8638,69.7407 1019.1582,69.7407 Q1016.6514,69.7407 1015.3315,68.0889 Q1014.0117,66.437 1014.0117,63.3159 Q1014.0117,60.1865 1015.3315,58.5347 Q1016.6514,56.8828 1019.1582,56.8828 Q1019.8638,56.8828 1020.5112,57.0322 Q1021.1587,57.1816 1021.7231,57.4805 L1021.7231,60.2031 Q1021.0923,59.6221 1020.4988,59.3523 Q1019.9053,59.0825 1019.2744,59.0825 Q1017.9297,59.0825 1017.2449,60.1492 Q1016.5601,61.2158 1016.5601,63.3159 Q1016.5601,65.4077 1017.2449,66.4744 Q1017.9297,67.541 1019.2744,67.541 Q1019.9053,67.541 1020.4988,67.2712 Q1021.0923,67.0015 1021.7231,66.4204 Z "/><text fill="#000000" font-family="sans-serif" font-size="12" lengthAdjust="spacingAndGlyphs" textLength="82" x="1039.75" y="67.5352">ClientXMLDTO</text><line style="stroke: #000000; stroke-width: 1.5;" x1="936.5" x2="1192.5" y1="79" y2="79"/><text fill="#000000" font-family="sans-serif" font-size="11" lengthAdjust="spacingAndGlyphs" textLength="181" x="941.5" y="93.6348">+Guid ClientId «get» «private set»</text><text fill="#000000" font-family="sans-serif" font-size="11" lengthAdjust="spacingAndGlyphs" textLength="172" x="941.5" y="106.5898">+string Nom «get» «private set»</text><text fill="#000000" font-family="sans-serif" font-size="11" lengthAdjust="spacingAndGlyphs" textLength="188" x="941.5" y="119.5449">+string Prenom «get» «private set»</text><text fill="#000000" font-family="sans-serif" font-size="11" lengthAdjust="spacingAndGlyphs" textLength="246" x="941.5" y="132.5">+List&lt;Adresse&gt; Adresses «get» «private set»</text><line style="stroke: #000000; stroke-width: 1.5;" x1="936.5" x2="1192.5" y1="138.8203" y2="138.8203"/><!--MD5=[2fc1a03e0ea9dd947f639b73d6756cfa]
class AdresseXMLDTO--><rect fill="#FFFFFF" filter="url(#f14srs8jux7xjr)" height="151.6406" id="AdresseXMLDTO" style="stroke: #000000; stroke-width: 1.5;" width="276" x="926.5" y="246"/><ellipse cx="1011.75" cy="262" fill="#ADD1B2" rx="11" ry="11" style="stroke: #000000; stroke-width: 1.0;"/><path d="M1014.2231,268.1431 Q1013.6421,268.4419 1013.0029,268.5913 Q1012.3638,268.7407 1011.6582,268.7407 Q1009.1514,268.7407 1007.8315,267.0889 Q1006.5117,265.437 1006.5117,262.3159 Q1006.5117,259.1865 1007.8315,257.5347 Q1009.1514,255.8828 1011.6582,255.8828 Q1012.3638,255.8828 1013.0112,256.0322 Q1013.6587,256.1816 1014.2231,256.4805 L1014.2231,259.2031 Q1013.5923,258.6221 1012.9988,258.3523 Q1012.4053,258.0825 1011.7744,258.0825 Q1010.4297,258.0825 1009.7449,259.1492 Q1009.0601,260.2158 1009.0601,262.3159 Q1009.0601,264.4077 1009.7449,265.4744 Q1010.4297,266.541 1011.7744,266.541 Q1012.4053,266.541 1012.9988,266.2712 Q1013.5923,266.0015 1014.2231,265.4204 Z "/><text fill="#000000" font-family="sans-serif" font-size="12" lengthAdjust="spacingAndGlyphs" textLength="97" x="1032.25" y="266.5352">AdresseXMLDTO</text><line style="stroke: #000000; stroke-width: 1.5;" x1="927.5" x2="1201.5" y1="278" y2="278"/><text fill="#000000" font-family="sans-serif" font-size="11" lengthAdjust="spacingAndGlyphs" textLength="196" x="932.5" y="292.6348">+NumeroCivique : string «get» «set»</text><text fill="#000000" font-family="sans-serif" font-size="11" lengthAdjust="spacingAndGlyphs" textLength="264" x="932.5" y="305.5898">+InformationComplementaire : string «get» «set»</text><text fill="#000000" font-family="sans-serif" font-size="11" lengthAdjust="spacingAndGlyphs" textLength="165" x="932.5" y="318.5449">+Odonyme : string «get» «set»</text><text fill="#000000" font-family="sans-serif" font-size="11" lengthAdjust="spacingAndGlyphs" textLength="162" x="932.5" y="331.5">+TypeVoie : string «get» «set»</text><text fill="#000000" font-family="sans-serif" font-size="11" lengthAdjust="spacingAndGlyphs" textLength="173" x="932.5" y="344.4551">+CodePostal : string «get» «set»</text><text fill="#000000" font-family="sans-serif" font-size="11" lengthAdjust="spacingAndGlyphs" textLength="202" x="932.5" y="357.4102">+NomMunicipalite : string «get» «set»</text><text fill="#000000" font-family="sans-serif" font-size="11" lengthAdjust="spacingAndGlyphs" textLength="133" x="932.5" y="370.3652">+Etat : string «get» «set»</text><text fill="#000000" font-family="sans-serif" font-size="11" lengthAdjust="spacingAndGlyphs" textLength="140" x="932.5" y="383.3203">+Pays : string  «get» «set»</text><line style="stroke: #000000; stroke-width: 1.5;" x1="927.5" x2="1201.5" y1="389.6406" y2="389.6406"/><!--MD5=[da31f5de147c5371561ac61575262c16]
class ClientJSONDTO--><rect fill="#FFFFFF" filter="url(#f14srs8jux7xjr)" height="99.8203" id="ClientJSONDTO" style="stroke: #000000; stroke-width: 1.5;" width="258" x="1246.5" y="47"/><ellipse cx="1328.25" cy="63" fill="#ADD1B2" rx="11" ry="11" style="stroke: #000000; stroke-width: 1.0;"/><path d="M1330.7231,69.1431 Q1330.1421,69.4419 1329.5029,69.5913 Q1328.8638,69.7407 1328.1582,69.7407 Q1325.6514,69.7407 1324.3315,68.0889 Q1323.0117,66.437 1323.0117,63.3159 Q1323.0117,60.1865 1324.3315,58.5347 Q1325.6514,56.8828 1328.1582,56.8828 Q1328.8638,56.8828 1329.5112,57.0322 Q1330.1587,57.1816 1330.7231,57.4805 L1330.7231,60.2031 Q1330.0923,59.6221 1329.4988,59.3523 Q1328.9053,59.0825 1328.2744,59.0825 Q1326.9297,59.0825 1326.2449,60.1492 Q1325.5601,61.2158 1325.5601,63.3159 Q1325.5601,65.4077 1326.2449,66.4744 Q1326.9297,67.541 1328.2744,67.541 Q1328.9053,67.541 1329.4988,67.2712 Q1330.0923,67.0015 1330.7231,66.4204 Z "/><text fill="#000000" font-family="sans-serif" font-size="12" lengthAdjust="spacingAndGlyphs" textLength="86" x="1348.75" y="67.5352">ClientJSONDTO</text><line style="stroke: #000000; stroke-width: 1.5;" x1="1247.5" x2="1503.5" y1="79" y2="79"/><text fill="#000000" font-family="sans-serif" font-size="11" lengthAdjust="spacingAndGlyphs" textLength="181" x="1252.5" y="93.6348">+Guid ClientId «get» «private set»</text><text fill="#000000" font-family="sans-serif" font-size="11" lengthAdjust="spacingAndGlyphs" textLength="172" x="1252.5" y="106.5898">+string Nom «get» «private set»</text><text fill="#000000" font-family="sans-serif" font-size="11" lengthAdjust="spacingAndGlyphs" textLength="188" x="1252.5" y="119.5449">+string Prenom «get» «private set»</text><text fill="#000000" font-family="sans-serif" font-size="11" lengthAdjust="spacingAndGlyphs" textLength="246" x="1252.5" y="132.5">+List&lt;Adresse&gt; Adresses «get» «private set»</text><line style="stroke: #000000; stroke-width: 1.5;" x1="1247.5" x2="1503.5" y1="138.8203" y2="138.8203"/><!--MD5=[e5d36b82b5a16e7f890ccd92894a10d8]
class AdresseJSONDTO--><rect fill="#FFFFFF" filter="url(#f14srs8jux7xjr)" height="151.6406" id="AdresseJSONDTO" style="stroke: #000000; stroke-width: 1.5;" width="276" x="1237.5" y="246"/><ellipse cx="1320.75" cy="262" fill="#ADD1B2" rx="11" ry="11" style="stroke: #000000; stroke-width: 1.0;"/><path d="M1323.2231,268.1431 Q1322.6421,268.4419 1322.0029,268.5913 Q1321.3638,268.7407 1320.6582,268.7407 Q1318.1514,268.7407 1316.8315,267.0889 Q1315.5117,265.437 1315.5117,262.3159 Q1315.5117,259.1865 1316.8315,257.5347 Q1318.1514,255.8828 1320.6582,255.8828 Q1321.3638,255.8828 1322.0112,256.0322 Q1322.6587,256.1816 1323.2231,256.4805 L1323.2231,259.2031 Q1322.5923,258.6221 1321.9988,258.3523 Q1321.4053,258.0825 1320.7744,258.0825 Q1319.4297,258.0825 1318.7449,259.1492 Q1318.0601,260.2158 1318.0601,262.3159 Q1318.0601,264.4077 1318.7449,265.4744 Q1319.4297,266.541 1320.7744,266.541 Q1321.4053,266.541 1321.9988,266.2712 Q1322.5923,266.0015 1323.2231,265.4204 Z "/><text fill="#000000" font-family="sans-serif" font-size="12" lengthAdjust="spacingAndGlyphs" textLength="101" x="1341.25" y="266.5352">AdresseJSONDTO</text><line style="stroke: #000000; stroke-width: 1.5;" x1="1238.5" x2="1512.5" y1="278" y2="278"/><text fill="#000000" font-family="sans-serif" font-size="11" lengthAdjust="spacingAndGlyphs" textLength="196" x="1243.5" y="292.6348">+NumeroCivique : string «get» «set»</text><text fill="#000000" font-family="sans-serif" font-size="11" lengthAdjust="spacingAndGlyphs" textLength="264" x="1243.5" y="305.5898">+InformationComplementaire : string «get» «set»</text><text fill="#000000" font-family="sans-serif" font-size="11" lengthAdjust="spacingAndGlyphs" textLength="165" x="1243.5" y="318.5449">+Odonyme : string «get» «set»</text><text fill="#000000" font-family="sans-serif" font-size="11" lengthAdjust="spacingAndGlyphs" textLength="162" x="1243.5" y="331.5">+TypeVoie : string «get» «set»</text><text fill="#000000" font-family="sans-serif" font-size="11" lengthAdjust="spacingAndGlyphs" textLength="173" x="1243.5" y="344.4551">+CodePostal : string «get» «set»</text><text fill="#000000" font-family="sans-serif" font-size="11" lengthAdjust="spacingAndGlyphs" textLength="202" x="1243.5" y="357.4102">+NomMunicipalite : string «get» «set»</text><text fill="#000000" font-family="sans-serif" font-size="11" lengthAdjust="spacingAndGlyphs" textLength="133" x="1243.5" y="370.3652">+Etat : string «get» «set»</text><text fill="#000000" font-family="sans-serif" font-size="11" lengthAdjust="spacingAndGlyphs" textLength="140" x="1243.5" y="383.3203">+Pays : string  «get» «set»</text><line style="stroke: #000000; stroke-width: 1.5;" x1="1238.5" x2="1512.5" y1="389.6406" y2="389.6406"/><!--MD5=[c7b422ec34d12d84443b82362095488f]
class ClientUIConsole--><rect fill="#FFFFFF" filter="url(#f14srs8jux7xjr)" height="177.5508" id="ClientUIConsole" style="stroke: #000000; stroke-width: 1.5;" width="214" x="123.5" y="8"/><ellipse cx="182.25" cy="24" fill="#ADD1B2" rx="11" ry="11" style="stroke: #000000; stroke-width: 1.0;"/><path d="M184.7231,30.1431 Q184.1421,30.4419 183.5029,30.5913 Q182.8638,30.7407 182.1582,30.7407 Q179.6514,30.7407 178.3315,29.0889 Q177.0117,27.437 177.0117,24.3159 Q177.0117,21.1865 178.3315,19.5347 Q179.6514,17.8828 182.1582,17.8828 Q182.8638,17.8828 183.5112,18.0322 Q184.1587,18.1816 184.7231,18.4805 L184.7231,21.2031 Q184.0923,20.6221 183.4988,20.3523 Q182.9053,20.0825 182.2744,20.0825 Q180.9297,20.0825 180.2449,21.1492 Q179.5601,22.2158 179.5601,24.3159 Q179.5601,26.4077 180.2449,27.4744 Q180.9297,28.541 182.2744,28.541 Q182.9053,28.541 183.4988,28.2712 Q184.0923,28.0015 184.7231,27.4204 Z "/><text fill="#000000" font-family="sans-serif" font-size="12" lengthAdjust="spacingAndGlyphs" textLength="88" x="202.75" y="28.5352">ClientUIConsole</text><line style="stroke: #000000; stroke-width: 1.5;" x1="124.5" x2="336.5" y1="40" y2="40"/><text fill="#000000" font-family="sans-serif" font-size="11" lengthAdjust="spacingAndGlyphs" textLength="159" x="129.5" y="54.6348">-m_depotClient : IDepotClient</text><line style="stroke: #000000; stroke-width: 1.5;" x1="124.5" x2="336.5" y1="60.9551" y2="60.9551"/><text fill="#000000" font-family="sans-serif" font-size="11" lengthAdjust="spacingAndGlyphs" textLength="189" x="129.5" y="75.5898">+ctor(p_depotClient : IDepotClient)</text><text fill="#000000" font-family="sans-serif" font-size="11" lengthAdjust="spacingAndGlyphs" textLength="89" x="129.5" y="88.5449">+AfficherMenu()</text><text fill="#000000" font-family="sans-serif" font-size="11" lengthAdjust="spacingAndGlyphs" textLength="130" x="129.5" y="101.5">+SaisirChoixMenu() : int</text><text fill="#000000" font-family="sans-serif" font-size="11" lengthAdjust="spacingAndGlyphs" textLength="75" x="129.5" y="114.4551">+ExecuterUI()</text><text fill="#000000" font-family="sans-serif" font-size="11" lengthAdjust="spacingAndGlyphs" textLength="187" x="129.5" y="127.4102">+SaisirClientAvecAdresse() : Client</text><text fill="#000000" font-family="sans-serif" font-size="11" lengthAdjust="spacingAndGlyphs" textLength="170" x="129.5" y="140.3652">+AfficherClient(p_client: Client)</text><text fill="#000000" font-family="sans-serif" font-size="11" lengthAdjust="spacingAndGlyphs" textLength="189" x="129.5" y="153.3203">+RechercherEtAfficherClientParId()</text><text fill="#000000" font-family="sans-serif" font-size="11" lengthAdjust="spacingAndGlyphs" textLength="137" x="129.5" y="166.2754">+ListerEtAfficherClients()</text><text fill="#000000" font-family="sans-serif" font-size="11" lengthAdjust="spacingAndGlyphs" textLength="202" x="129.5" y="179.2305">-GenererAdresseAleatoire() : Adresse</text><!--MD5=[1b0c2915387634bf4e789c113c92d827]
class TraitementLot--><rect fill="#FFFFFF" filter="url(#f14srs8jux7xjr)" height="60.9551" id="TraitementLot" style="stroke: #000000; stroke-width: 1.5;" width="112" x="1864.5" y="66.5"/><ellipse cx="1879.5" cy="82.5" fill="#B4A7E5" rx="11" ry="11" style="stroke: #000000; stroke-width: 1.0;"/><path d="M1875.9277,78.7651 L1875.9277,76.6069 L1883.3071,76.6069 L1883.3071,78.7651 L1880.8418,78.7651 L1880.8418,86.8418 L1883.3071,86.8418 L1883.3071,89 L1875.9277,89 L1875.9277,86.8418 L1878.3931,86.8418 L1878.3931,78.7651 Z "/><text fill="#000000" font-family="sans-serif" font-size="12" font-style="italic" lengthAdjust="spacingAndGlyphs" textLength="80" x="1893.5" y="87.0352">TraitementLot</text><line style="stroke: #000000; stroke-width: 1.5;" x1="1865.5" x2="1975.5" y1="98.5" y2="98.5"/><line style="stroke: #000000; stroke-width: 1.5;" x1="1865.5" x2="1975.5" y1="106.5" y2="106.5"/><text fill="#000000" font-family="sans-serif" font-size="11" lengthAdjust="spacingAndGlyphs" textLength="64" x="1870.5" y="121.1348">+Executer()</text><!--MD5=[c5358331cf8ae063edd27af746f4a17e]
class ModifierNomPrenomPremiereLettreMajusculesTraitementLot--><rect fill="#FFFFFF" filter="url(#f14srs8jux7xjr)" height="60.9551" id="ModifierNomPrenomPremiereLettreMajusculesTraitementLot" style="stroke: #000000; stroke-width: 1.5;" width="378" x="1548.5" y="291.5"/><ellipse cx="1563.5" cy="307.5" fill="#ADD1B2" rx="11" ry="11" style="stroke: #000000; stroke-width: 1.0;"/><path d="M1565.9731,313.6431 Q1565.3921,313.9419 1564.7529,314.0913 Q1564.1138,314.2407 1563.4082,314.2407 Q1560.9014,314.2407 1559.5815,312.5889 Q1558.2617,310.937 1558.2617,307.8159 Q1558.2617,304.6865 1559.5815,303.0347 Q1560.9014,301.3828 1563.4082,301.3828 Q1564.1138,301.3828 1564.7612,301.5322 Q1565.4087,301.6816 1565.9731,301.9805 L1565.9731,304.7031 Q1565.3423,304.1221 1564.7488,303.8523 Q1564.1553,303.5825 1563.5244,303.5825 Q1562.1797,303.5825 1561.4949,304.6492 Q1560.8101,305.7158 1560.8101,307.8159 Q1560.8101,309.9077 1561.4949,310.9744 Q1562.1797,312.041 1563.5244,312.041 Q1564.1553,312.041 1564.7488,311.7712 Q1565.3423,311.5015 1565.9731,310.9204 Z "/><text fill="#000000" font-family="sans-serif" font-size="12" lengthAdjust="spacingAndGlyphs" textLength="346" x="1577.5" y="312.0352">ModifierNomPrenomPremiereLettreMajusculesTraitementLot</text><line style="stroke: #000000; stroke-width: 1.5;" x1="1549.5" x2="1925.5" y1="323.5" y2="323.5"/><line style="stroke: #000000; stroke-width: 1.5;" x1="1549.5" x2="1925.5" y1="331.5" y2="331.5"/><text fill="#000000" font-family="sans-serif" font-size="11" lengthAdjust="spacingAndGlyphs" textLength="64" x="1554.5" y="346.1348">+Executer()</text><!--MD5=[2557689795cb60e02edc0ab7a85cd841]
class ModifierPaysMajusculesClientsTraitementLot--><rect fill="#FFFFFF" filter="url(#f14srs8jux7xjr)" height="60.9551" id="ModifierPaysMajusculesClientsTraitementLot" style="stroke: #000000; stroke-width: 1.5;" width="286" x="1961.5" y="291.5"/><ellipse cx="1976.5" cy="307.5" fill="#ADD1B2" rx="11" ry="11" style="stroke: #000000; stroke-width: 1.0;"/><path d="M1978.9731,313.6431 Q1978.3921,313.9419 1977.7529,314.0913 Q1977.1138,314.2407 1976.4082,314.2407 Q1973.9014,314.2407 1972.5815,312.5889 Q1971.2617,310.937 1971.2617,307.8159 Q1971.2617,304.6865 1972.5815,303.0347 Q1973.9014,301.3828 1976.4082,301.3828 Q1977.1138,301.3828 1977.7612,301.5322 Q1978.4087,301.6816 1978.9731,301.9805 L1978.9731,304.7031 Q1978.3423,304.1221 1977.7488,303.8523 Q1977.1553,303.5825 1976.5244,303.5825 Q1975.1797,303.5825 1974.4949,304.6492 Q1973.8101,305.7158 1973.8101,307.8159 Q1973.8101,309.9077 1974.4949,310.9744 Q1975.1797,312.041 1976.5244,312.041 Q1977.1553,312.041 1977.7488,311.7712 Q1978.3423,311.5015 1978.9731,310.9204 Z "/><text fill="#000000" font-family="sans-serif" font-size="12" lengthAdjust="spacingAndGlyphs" textLength="254" x="1990.5" y="312.0352">ModifierPaysMajusculesClientsTraitementLot</text><line style="stroke: #000000; stroke-width: 1.5;" x1="1962.5" x2="2246.5" y1="323.5" y2="323.5"/><line style="stroke: #000000; stroke-width: 1.5;" x1="1962.5" x2="2246.5" y1="331.5" y2="331.5"/><text fill="#000000" font-family="sans-serif" font-size="11" lengthAdjust="spacingAndGlyphs" textLength="64" x="1967.5" y="346.1348">+Executer()</text><!--MD5=[19adfe3b24a6c19873fa55b195191611]
reverse link IDepotClients to DepotClientsJSON--><path d="M187.02,389.11 C172.1,411.8 155.68,436.77 141.81,457.87 " fill="none" id="IDepotClients&lt;-DepotClientsJSON" style="stroke: #A80036; stroke-width: 1.0; stroke-dasharray: 7.0,7.0;"/><polygon fill="none" points="181.24,385.17,198.07,372.31,192.93,392.87,181.24,385.17" style="stroke: #A80036; stroke-width: 1.0;"/><!--MD5=[d761bc3755c2fedbb7239219a6f31ce4]
reverse link IDepotClients to DepotClientsXML--><path d="M273.98,389.11 C288.9,411.8 305.32,436.77 319.19,457.87 " fill="none" id="IDepotClients&lt;-DepotClientsXML" style="stroke: #A80036; stroke-width: 1.0; stroke-dasharray: 7.0,7.0;"/><polygon fill="none" points="268.07,392.87,262.93,372.31,279.76,385.17,268.07,392.87" style="stroke: #A80036; stroke-width: 1.0;"/><!--MD5=[73af334925bb211206659973f4e1ab45]
link Client to Adresse--><path d="M636.5,160.12 C636.5,185.01 636.5,214.01 636.5,240.48 " fill="none" id="Client-&gt;Adresse" style="stroke: #A80036; stroke-width: 1.0;"/><polygon fill="#A80036" points="636.5,245.74,640.5,236.74,636.5,240.74,632.5,236.74,636.5,245.74" style="stroke: #A80036; stroke-width: 1.0;"/><text fill="#000000" font-family="sans-serif" font-size="13" lengthAdjust="spacingAndGlyphs" textLength="8" x="628.0625" y="180.4441">1</text><text fill="#000000" font-family="sans-serif" font-size="13" lengthAdjust="spacingAndGlyphs" textLength="6" x="630.2141" y="235.3569">*</text><!--MD5=[2f7f2991185c7259beaf81b9c8660cfb]
link ClientXMLDTO to AdresseXMLDTO--><path d="M1064.5,147.21 C1064.5,174.5 1064.5,209.1 1064.5,240.24 " fill="none" id="ClientXMLDTO-&gt;AdresseXMLDTO" style="stroke: #A80036; stroke-width: 1.0;"/><polygon fill="#A80036" points="1064.5,245.61,1068.5257,236.6215,1064.5143,240.61,1060.5257,236.5986,1064.5,245.61" style="stroke: #A80036; stroke-width: 1.0;"/><text fill="#000000" font-family="sans-serif" font-size="13" lengthAdjust="spacingAndGlyphs" textLength="8" x="1055.9625" y="167.5661">1</text><text fill="#000000" font-family="sans-serif" font-size="13" lengthAdjust="spacingAndGlyphs" textLength="6" x="1058.2141" y="235.2145">*</text><!--MD5=[4b0760f767d69bab286038c1723b5b54]
link ClientJSONDTO to AdresseJSONDTO--><path d="M1375.5,147.21 C1375.5,174.5 1375.5,209.1 1375.5,240.24 " fill="none" id="ClientJSONDTO-&gt;AdresseJSONDTO" style="stroke: #A80036; stroke-width: 1.0;"/><polygon fill="#A80036" points="1375.5,245.61,1379.5257,236.6215,1375.5143,240.61,1371.5257,236.5986,1375.5,245.61" style="stroke: #A80036; stroke-width: 1.0;"/><text fill="#000000" font-family="sans-serif" font-size="13" lengthAdjust="spacingAndGlyphs" textLength="8" x="1366.9625" y="167.5661">1</text><text fill="#000000" font-family="sans-serif" font-size="13" lengthAdjust="spacingAndGlyphs" textLength="6" x="1369.2141" y="235.2145">*</text><!--MD5=[bccde14c5578bf5b5ec93606ed33c2c0]
link ClientUIConsole to IDepotClients--><path d="M230.5,186.14 C230.5,213.41 230.5,242.64 230.5,266.9 " fill="none" id="ClientUIConsole-&gt;IDepotClients" style="stroke: #A80036; stroke-width: 1.0;"/><polygon fill="#A80036" points="230.5,271.99,234.5,262.99,230.5,266.99,226.5,262.99,230.5,271.99" style="stroke: #A80036; stroke-width: 1.0;"/><text fill="#000000" font-family="sans-serif" font-size="13" lengthAdjust="spacingAndGlyphs" textLength="8" x="222.1938" y="206.1364">1</text><text fill="#000000" font-family="sans-serif" font-size="13" lengthAdjust="spacingAndGlyphs" textLength="8" x="221.9125" y="261.1476">1</text><!--MD5=[28ed4f9fcff8ce5627929d7049e40cdf]
reverse link TraitementLot to ModifierNomPrenomPremiereLettreMajusculesTraitementLot--><path d="M1883.5,143.08 C1847.26,187.25 1793.06,253.3 1761.9,291.26 " fill="none" id="TraitementLot&lt;-ModifierNomPrenomPremiereLettreMajusculesTraitementLot" style="stroke: #A80036; stroke-width: 1.0; stroke-dasharray: 7.0,7.0;"/><polygon fill="none" points="1878.1,138.63,1896.2,127.61,1888.92,147.51,1878.1,138.63" style="stroke: #A80036; stroke-width: 1.0;"/><!--MD5=[0841bdc90cc678eaa03027aa0fbba90a]
reverse link TraitementLot to ModifierPaysMajusculesClientsTraitementLot--><path d="M1957.7,143.08 C1994.14,187.25 2048.64,253.3 2079.97,291.26 " fill="none" id="TraitementLot&lt;-ModifierPaysMajusculesClientsTraitementLot" style="stroke: #A80036; stroke-width: 1.0; stroke-dasharray: 7.0,7.0;"/><polygon fill="none" points="1952.26,147.49,1944.93,127.61,1963.06,138.58,1952.26,147.49" style="stroke: #A80036; stroke-width: 1.0;"/><!--MD5=[eaa35bacc05e1d0b731519bc183679fb]
@startuml DiagClassesClients

skinparam classAttributeIconSize 0
skinparam class {
    BackgroundColor White
    BorderColor #000
}

IDepotClients <|.. DepotClientsJSON
IDepotClients <|.. DepotClientsXML
Client "1" - -> "*" Adresse
ClientXMLDTO "1" - -> "*" AdresseXMLDTO
ClientJSONDTO "1" - -> "*" AdresseJSONDTO
ClientUIConsole "1" - -> "1" IDepotClients

TraitementLot <|.. ModifierNomPrenomPremiereLettreMajusculesTraitementLot
TraitementLot <|.. ModifierPaysMajusculesClientsTraitementLot


interface IDepotClients {
    + AjouterClient(p_client : Client)
    + ListerClients() : List<Client>
    + RechercherClient(p_clientId : Guid)
    + ModifierClient(p_client : Client)
}

class DepotClientsXML {
    + AjouterClient(p_client : Client)
    + ListerClients() : List<Client>
    + RechercherClient(p_clientId : Guid)
    + ModifierClient(p_client : Client)
}

class DepotClientsJSON {
    + AjouterClient(p_client : Client)
    + ListerClients() : List<Client>
    + RechercherClient(p_clientId : Guid)
    + ModifierClient(p_client : Client)
}

class Client {
    + ctor(p_clientId : Guid, p_nom : string, p_prenom : string, p_adresses : IEnumerable<Adresse>)
    + Guid ClientId <<get>> <<private set>>
    + string Nom <<get>> <<private set>>
    + string Prenom <<get>> <<private set>>
    + List<Adresse> Adresses <<get>> <<private set>>
    + AjouterModifierAdresse(p_adresse : Adresse)
}

class ClientJSONDTO {
    + Guid ClientId <<get>> <<private set>>
    + string Nom <<get>> <<private set>>
    + string Prenom <<get>> <<private set>>
    + List<Adresse> Adresses <<get>> <<private set>>
}

class ClientXMLDTO {
    + Guid ClientId <<get>> <<private set>>
    + string Nom <<get>> <<private set>>
    + string Prenom <<get>> <<private set>>
    + List<Adresse> Adresses <<get>> <<private set>>
}

class Adresse {
    + NumeroCivique : string <<get>> <<set>>
    + InformationComplementaire : string <<get>> <<set>>
    + Odonyme : string <<get>> <<set>>
    + TypeVoie : string <<get>> <<set>>
    + CodePostal : string <<get>> <<set>>
    + NomMunicipalite : string <<get>> <<set>>
    + Etat : string <<get>> <<set>>
    + Pays : string  <<get>> <<set>>
}

class AdresseXMLDTO {
    + NumeroCivique : string <<get>> <<set>>
    + InformationComplementaire : string <<get>> <<set>>
    + Odonyme : string <<get>> <<set>>
    + TypeVoie : string <<get>> <<set>>
    + CodePostal : string <<get>> <<set>>
    + NomMunicipalite : string <<get>> <<set>>
    + Etat : string <<get>> <<set>>
    + Pays : string  <<get>> <<set>>
}

class AdresseJSONDTO {
    + NumeroCivique : string <<get>> <<set>>
    + InformationComplementaire : string <<get>> <<set>>
    + Odonyme : string <<get>> <<set>>
    + TypeVoie : string <<get>> <<set>>
    + CodePostal : string <<get>> <<set>>
    + NomMunicipalite : string <<get>> <<set>>
    + Etat : string <<get>> <<set>>
    + Pays : string  <<get>> <<set>>
}

class ClientUIConsole {
    - m_depotClient : IDepotClient
    + ctor(p_depotClient : IDepotClient)
    + AfficherMenu()
    + SaisirChoixMenu() : int
    + ExecuterUI()
    + SaisirClientAvecAdresse() : Client
    + AfficherClient(p_client: Client)
    + RechercherEtAfficherClientParId()
    + ListerEtAfficherClients()
    - GenererAdresseAleatoire() : Adresse
}

interface TraitementLot {
    + Executer()
}

class ModifierNomPrenomPremiereLettreMajusculesTraitementLot {
       + Executer()
}

class ModifierPaysMajusculesClientsTraitementLot {
    + Executer()
}
@enduml

PlantUML version 1.2020.10(Sun May 17 05:35:57 EDT 2020)
(GPL source distribution)
Java Runtime: OpenJDK Runtime Environment
JVM: OpenJDK 64-Bit Server VM
Java Version: 13.0.2+8
Operating System: Mac OS X
Default Encoding: UTF-8
Language: fr
Country: CA
--></g></svg>