<?xml version="1.0" encoding="UTF-8" standalone="no"?><svg xmlns="http://www.w3.org/2000/svg" xmlns:xlink="http://www.w3.org/1999/xlink" contentScriptType="application/ecmascript" contentStyleType="text/css" height="893px" preserveAspectRatio="none" style="width:1949px;height:893px;background:#FFFFFF;" version="1.1" viewBox="0 0 1949 893" width="1949px" zoomAndPan="magnify"><defs><filter height="300%" id="f15q4y7zam5wes" width="300%" x="-1" y="-1"><feGaussianBlur result="blurOut" stdDeviation="2.0"/><feColorMatrix in="blurOut" result="blurOut2" type="matrix" values="0 0 0 0 0 0 0 0 0 0 0 0 0 0 0 0 0 0 .4 0"/><feOffset dx="4.0" dy="4.0" in="blurOut2" result="blurOut3"/><feBlend in="SourceGraphic" in2="blurOut3" mode="normal"/></filter></defs><g><!--MD5=[5874d566586a6ddbc1a6cc88fa7772b4]
cluster Entites--><polygon fill="#FFFFFF" filter="url(#f15q4y7zam5wes)" points="16,259,72,259,79,281.4883,818,281.4883,818,661,16,661,16,259" style="stroke:#000000;stroke-width:1.5;"/><line style="stroke:#000000;stroke-width:1.5;" x1="16" x2="79" y1="281.4883" y2="281.4883"/><text fill="#000000" font-family="sans-serif" font-size="14" font-weight="bold" lengthAdjust="spacing" textLength="50" x="20" y="274.5352">Entites</text><!--MD5=[58411e8cd7c7842c91d66565eae2e7e4]
cluster CoucheAccesDonnees.JSON--><polygon fill="#FFFFFF" filter="url(#f15q4y7zam5wes)" points="842,477.5,1042,477.5,1049,499.9883,1375,499.9883,1375,886,842,886,842,477.5" style="stroke:#000000;stroke-width:1.5;"/><line style="stroke:#000000;stroke-width:1.5;" x1="842" x2="1049" y1="499.9883" y2="499.9883"/><text fill="#000000" font-family="sans-serif" font-size="14" font-weight="bold" lengthAdjust="spacing" textLength="194" x="846" y="493.0352">CoucheAccesDonnees.JSON</text><!--MD5=[1cee548357feb363aeb26581c5830677]
cluster CoucheAccesDonnees.XML--><polygon fill="#FFFFFF" filter="url(#f15q4y7zam5wes)" points="1399,477.5,1592,477.5,1599,499.9883,1932,499.9883,1932,886,1399,886,1399,477.5" style="stroke:#000000;stroke-width:1.5;"/><line style="stroke:#000000;stroke-width:1.5;" x1="1399" x2="1599" y1="499.9883" y2="499.9883"/><text fill="#000000" font-family="sans-serif" font-size="14" font-weight="bold" lengthAdjust="spacing" textLength="187" x="1403" y="493.0352">CoucheAccesDonnees.XML</text><!--MD5=[d64883541e3d62e3241c4d12decf100d]
cluster Application--><polygon fill="#FFFFFF" filter="url(#f15q4y7zam5wes)" points="575,6,663,6,670,28.4883,821,28.4883,821,235,575,235,575,6" style="stroke:#000000;stroke-width:1.5;"/><line style="stroke:#000000;stroke-width:1.5;" x1="575" x2="670" y1="28.4883" y2="28.4883"/><text fill="#000000" font-family="sans-serif" font-size="14" font-weight="bold" lengthAdjust="spacing" textLength="82" x="579" y="21.5352">Application</text><!--MD5=[cc516cdafd18f5166a12d2815e229259]
cluster TraitementsLots--><polygon fill="#FFFFFF" filter="url(#f15q4y7zam5wes)" points="1347,64.5,1472,64.5,1479,86.9883,1491,86.9883,1491,176.5,1347,176.5,1347,64.5" style="stroke:#000000;stroke-width:1.5;"/><line style="stroke:#000000;stroke-width:1.5;" x1="1347" x2="1479" y1="86.9883" y2="86.9883"/><text fill="#000000" font-family="sans-serif" font-size="14" font-weight="bold" lengthAdjust="spacing" textLength="119" x="1351" y="80.0352">TraitementsLots</text><!--MD5=[7f08c26b5c13ad971a2d66368e006df8]
cluster TraitementsLots.ModifierNomPrenomPremiereLettreMajuscules--><polygon fill="#FFFFFF" filter="url(#f15q4y7zam5wes)" points="956,291.5,1420,291.5,1427,313.9883,1430,313.9883,1430,403.5,956,403.5,956,291.5" style="stroke:#000000;stroke-width:1.5;"/><line style="stroke:#000000;stroke-width:1.5;" x1="956" x2="1427" y1="313.9883" y2="313.9883"/><text fill="#000000" font-family="sans-serif" font-size="14" font-weight="bold" lengthAdjust="spacing" textLength="458" x="960" y="307.0352">TraitementsLots.ModifierNomPrenomPremiereLettreMajuscules</text><!--MD5=[b67bd2e63e36cb1685839f263e4a745c]
cluster TraitementsLots.ModifierPaysMajusculesClients--><polygon fill="#FFFFFF" filter="url(#f15q4y7zam5wes)" points="1454,291.5,1807,291.5,1814,313.9883,1817,313.9883,1817,403.5,1454,403.5,1454,291.5" style="stroke:#000000;stroke-width:1.5;"/><line style="stroke:#000000;stroke-width:1.5;" x1="1454" x2="1814" y1="313.9883" y2="313.9883"/><text fill="#000000" font-family="sans-serif" font-size="14" font-weight="bold" lengthAdjust="spacing" textLength="347" x="1458" y="307.0352">TraitementsLots.ModifierPaysMajusculesClients</text><!--MD5=[ed6624c6556d5e7b1bd23032162d20b7]
class Client--><rect codeLine="12" fill="#FFFFFF" filter="url(#f15q4y7zam5wes)" height="125.7305" id="Client" style="stroke:#000000;stroke-width:1.5;" width="527" x="32.5" y="294"/><ellipse cx="275.75" cy="310" fill="#ADD1B2" rx="11" ry="11" style="stroke:#000000;stroke-width:1.0;"/><path d="M278.2231,316.1431 Q277.6421,316.4419 277.0029,316.5913 Q276.3638,316.7407 275.6582,316.7407 Q273.1514,316.7407 271.8315,315.0889 Q270.5117,313.437 270.5117,310.3159 Q270.5117,307.1865 271.8315,305.5347 Q273.1514,303.8828 275.6582,303.8828 Q276.3638,303.8828 277.0112,304.0322 Q277.6587,304.1816 278.2231,304.4805 L278.2231,307.2031 Q277.5923,306.6221 276.9988,306.3523 Q276.4053,306.0825 275.7744,306.0825 Q274.4297,306.0825 273.7449,307.1492 Q273.0601,308.2158 273.0601,310.3159 Q273.0601,312.4077 273.7449,313.4744 Q274.4297,314.541 275.7744,314.541 Q276.4053,314.541 276.9988,314.2712 Q277.5923,314.0015 278.2231,313.4204 Z " fill="#000000"/><text fill="#000000" font-family="sans-serif" font-size="12" lengthAdjust="spacing" textLength="32" x="296.25" y="314.5352">Client</text><line style="stroke:#000000;stroke-width:1.5;" x1="33.5" x2="558.5" y1="326" y2="326"/><text fill="#000000" font-family="sans-serif" font-size="11" lengthAdjust="spacing" textLength="181" x="38.5" y="340.6348">+Guid ClientId «get» «private set»</text><text fill="#000000" font-family="sans-serif" font-size="11" lengthAdjust="spacing" textLength="172" x="38.5" y="353.5898">+string Nom «get» «private set»</text><text fill="#000000" font-family="sans-serif" font-size="11" lengthAdjust="spacing" textLength="188" x="38.5" y="366.5449">+string Prenom «get» «private set»</text><text fill="#000000" font-family="sans-serif" font-size="11" lengthAdjust="spacing" textLength="246" x="38.5" y="379.5">+List&lt;Adresse&gt; Adresses «get» «private set»</text><line style="stroke:#000000;stroke-width:1.5;" x1="33.5" x2="558.5" y1="385.8203" y2="385.8203"/><text fill="#000000" font-family="sans-serif" font-size="11" lengthAdjust="spacing" textLength="515" x="38.5" y="400.4551">+ctor(p_clientId : Guid, p_nom : string, p_prenom : string, p_adresses : IEnumerable&lt;Adresse&gt;)</text><text fill="#000000" font-family="sans-serif" font-size="11" lengthAdjust="spacing" textLength="253" x="38.5" y="413.4102">+AjouterModifierAdresse(p_adresse : Adresse)</text><!--MD5=[70c811998a0d7544d2536fae1accd5d3]
class Adresse--><rect codeLine="21" fill="#FFFFFF" filter="url(#f15q4y7zam5wes)" height="164.5957" id="Adresse" style="stroke:#000000;stroke-width:1.5;" width="276" x="158" y="480"/><ellipse cx="268.25" cy="496" fill="#ADD1B2" rx="11" ry="11" style="stroke:#000000;stroke-width:1.0;"/><path d="M270.7231,502.1431 Q270.1421,502.4419 269.5029,502.5913 Q268.8638,502.7407 268.1582,502.7407 Q265.6514,502.7407 264.3315,501.0889 Q263.0117,499.437 263.0117,496.3159 Q263.0117,493.1865 264.3315,491.5347 Q265.6514,489.8828 268.1582,489.8828 Q268.8638,489.8828 269.5112,490.0322 Q270.1587,490.1816 270.7231,490.4805 L270.7231,493.2031 Q270.0923,492.6221 269.4988,492.3523 Q268.9053,492.0825 268.2744,492.0825 Q266.9297,492.0825 266.2449,493.1492 Q265.5601,494.2158 265.5601,496.3159 Q265.5601,498.4077 266.2449,499.4744 Q266.9297,500.541 268.2744,500.541 Q268.9053,500.541 269.4988,500.2712 Q270.0923,500.0015 270.7231,499.4204 Z " fill="#000000"/><text fill="#000000" font-family="sans-serif" font-size="12" lengthAdjust="spacing" textLength="47" x="288.75" y="500.5352">Adresse</text><line style="stroke:#000000;stroke-width:1.5;" x1="159" x2="433" y1="512" y2="512"/><text fill="#000000" font-family="sans-serif" font-size="11" lengthAdjust="spacing" textLength="194" x="164" y="526.6348">+Guid AdresseId «get» «private set»</text><text fill="#000000" font-family="sans-serif" font-size="11" lengthAdjust="spacing" textLength="196" x="164" y="539.5898">+NumeroCivique : string «get» «set»</text><text fill="#000000" font-family="sans-serif" font-size="11" lengthAdjust="spacing" textLength="264" x="164" y="552.5449">+InformationComplementaire : string «get» «set»</text><text fill="#000000" font-family="sans-serif" font-size="11" lengthAdjust="spacing" textLength="165" x="164" y="565.5">+Odonyme : string «get» «set»</text><text fill="#000000" font-family="sans-serif" font-size="11" lengthAdjust="spacing" textLength="162" x="164" y="578.4551">+TypeVoie : string «get» «set»</text><text fill="#000000" font-family="sans-serif" font-size="11" lengthAdjust="spacing" textLength="173" x="164" y="591.4102">+CodePostal : string «get» «set»</text><text fill="#000000" font-family="sans-serif" font-size="11" lengthAdjust="spacing" textLength="202" x="164" y="604.3652">+NomMunicipalite : string «get» «set»</text><text fill="#000000" font-family="sans-serif" font-size="11" lengthAdjust="spacing" textLength="133" x="164" y="617.3203">+Etat : string «get» «set»</text><text fill="#000000" font-family="sans-serif" font-size="11" lengthAdjust="spacing" textLength="140" x="164" y="630.2754">+Pays : string  «get» «set»</text><line style="stroke:#000000;stroke-width:1.5;" x1="159" x2="433" y1="636.5957" y2="636.5957"/><!--MD5=[ab2a9c778be45ce09f2dd240b46c09a9]
class IDepotClients--><rect codeLine="33" fill="#FFFFFF" filter="url(#f15q4y7zam5wes)" height="99.8203" id="IDepotClients" style="stroke:#000000;stroke-width:1.5;" width="207" x="594.5" y="307"/><ellipse cx="655.75" cy="323" fill="#B4A7E5" rx="11" ry="11" style="stroke:#000000;stroke-width:1.0;"/><path d="M652.1777,319.2651 L652.1777,317.1069 L659.5571,317.1069 L659.5571,319.2651 L657.0918,319.2651 L657.0918,327.3418 L659.5571,327.3418 L659.5571,329.5 L652.1777,329.5 L652.1777,327.3418 L654.6431,327.3418 L654.6431,319.2651 Z " fill="#000000"/><text fill="#000000" font-family="sans-serif" font-size="12" font-style="italic" lengthAdjust="spacing" textLength="76" x="676.25" y="327.5352">IDepotClients</text><line style="stroke:#000000;stroke-width:1.5;" x1="595.5" x2="800.5" y1="339" y2="339"/><line style="stroke:#000000;stroke-width:1.5;" x1="595.5" x2="800.5" y1="347" y2="347"/><text fill="#000000" font-family="sans-serif" font-size="11" lengthAdjust="spacing" textLength="170" x="600.5" y="361.6348">+AjouterClient(p_client : Client)</text><text fill="#000000" font-family="sans-serif" font-size="11" lengthAdjust="spacing" textLength="161" x="600.5" y="374.5898">+ListerClients() : List&lt;Client&gt;</text><text fill="#000000" font-family="sans-serif" font-size="11" lengthAdjust="spacing" textLength="195" x="600.5" y="387.5449">+RechercherClient(p_clientId : Guid)</text><text fill="#000000" font-family="sans-serif" font-size="11" lengthAdjust="spacing" textLength="174" x="600.5" y="400.5">+ModifierClient(p_client : Client)</text><!--MD5=[381a50664acc2610a3131cd21e751d0c]
class DepotClientsJSON--><rect codeLine="64" fill="#FFFFFF" filter="url(#f15q4y7zam5wes)" height="99.8203" id="DepotClientsJSON" style="stroke:#000000;stroke-width:1.5;" width="207" x="1151.5" y="512.5"/><ellipse cx="1200.25" cy="528.5" fill="#ADD1B2" rx="11" ry="11" style="stroke:#000000;stroke-width:1.0;"/><path d="M1202.7231,534.6431 Q1202.1421,534.9419 1201.5029,535.0913 Q1200.8638,535.2407 1200.1582,535.2407 Q1197.6514,535.2407 1196.3315,533.5889 Q1195.0117,531.937 1195.0117,528.8159 Q1195.0117,525.6865 1196.3315,524.0347 Q1197.6514,522.3828 1200.1582,522.3828 Q1200.8638,522.3828 1201.5112,522.5322 Q1202.1587,522.6816 1202.7231,522.9805 L1202.7231,525.7031 Q1202.0923,525.1221 1201.4988,524.8523 Q1200.9053,524.5825 1200.2744,524.5825 Q1198.9297,524.5825 1198.2449,525.6492 Q1197.5601,526.7158 1197.5601,528.8159 Q1197.5601,530.9077 1198.2449,531.9744 Q1198.9297,533.041 1200.2744,533.041 Q1200.9053,533.041 1201.4988,532.7712 Q1202.0923,532.5015 1202.7231,531.9204 Z " fill="#000000"/><text fill="#000000" font-family="sans-serif" font-size="12" lengthAdjust="spacing" textLength="101" x="1220.75" y="533.0352">DepotClientsJSON</text><line style="stroke:#000000;stroke-width:1.5;" x1="1152.5" x2="1357.5" y1="544.5" y2="544.5"/><line style="stroke:#000000;stroke-width:1.5;" x1="1152.5" x2="1357.5" y1="552.5" y2="552.5"/><text fill="#000000" font-family="sans-serif" font-size="11" lengthAdjust="spacing" textLength="170" x="1157.5" y="567.1348">+AjouterClient(p_client : Client)</text><text fill="#000000" font-family="sans-serif" font-size="11" lengthAdjust="spacing" textLength="161" x="1157.5" y="580.0898">+ListerClients() : List&lt;Client&gt;</text><text fill="#000000" font-family="sans-serif" font-size="11" lengthAdjust="spacing" textLength="195" x="1157.5" y="593.0449">+RechercherClient(p_clientId : Guid)</text><text fill="#000000" font-family="sans-serif" font-size="11" lengthAdjust="spacing" textLength="174" x="1157.5" y="606">+ModifierClient(p_client : Client)</text><!--MD5=[da31f5de147c5371561ac61575262c16]
class ClientJSONDTO--><rect codeLine="45" fill="#FFFFFF" filter="url(#f15q4y7zam5wes)" height="99.8203" id="ClientJSONDTO" style="stroke:#000000;stroke-width:1.5;" width="258" x="858" y="512.5"/><ellipse cx="939.75" cy="528.5" fill="#ADD1B2" rx="11" ry="11" style="stroke:#000000;stroke-width:1.0;"/><path d="M942.2231,534.6431 Q941.6421,534.9419 941.0029,535.0913 Q940.3638,535.2407 939.6582,535.2407 Q937.1514,535.2407 935.8315,533.5889 Q934.5117,531.937 934.5117,528.8159 Q934.5117,525.6865 935.8315,524.0347 Q937.1514,522.3828 939.6582,522.3828 Q940.3638,522.3828 941.0112,522.5322 Q941.6587,522.6816 942.2231,522.9805 L942.2231,525.7031 Q941.5923,525.1221 940.9988,524.8523 Q940.4053,524.5825 939.7744,524.5825 Q938.4297,524.5825 937.7449,525.6492 Q937.0601,526.7158 937.0601,528.8159 Q937.0601,530.9077 937.7449,531.9744 Q938.4297,533.041 939.7744,533.041 Q940.4053,533.041 940.9988,532.7712 Q941.5923,532.5015 942.2231,531.9204 Z " fill="#000000"/><text fill="#000000" font-family="sans-serif" font-size="12" lengthAdjust="spacing" textLength="86" x="960.25" y="533.0352">ClientJSONDTO</text><line style="stroke:#000000;stroke-width:1.5;" x1="859" x2="1115" y1="544.5" y2="544.5"/><text fill="#000000" font-family="sans-serif" font-size="11" lengthAdjust="spacing" textLength="181" x="864" y="559.1348">+Guid ClientId «get» «private set»</text><text fill="#000000" font-family="sans-serif" font-size="11" lengthAdjust="spacing" textLength="172" x="864" y="572.0898">+string Nom «get» «private set»</text><text fill="#000000" font-family="sans-serif" font-size="11" lengthAdjust="spacing" textLength="188" x="864" y="585.0449">+string Prenom «get» «private set»</text><text fill="#000000" font-family="sans-serif" font-size="11" lengthAdjust="spacing" textLength="246" x="864" y="598">+List&lt;Adresse&gt; Adresses «get» «private set»</text><line style="stroke:#000000;stroke-width:1.5;" x1="859" x2="1115" y1="604.3203" y2="604.3203"/><!--MD5=[e5d36b82b5a16e7f890ccd92894a10d8]
class AdresseJSONDTO--><rect codeLine="52" fill="#FFFFFF" filter="url(#f15q4y7zam5wes)" height="164.5957" id="AdresseJSONDTO" style="stroke:#000000;stroke-width:1.5;" width="276" x="858" y="705"/><ellipse cx="941.25" cy="721" fill="#ADD1B2" rx="11" ry="11" style="stroke:#000000;stroke-width:1.0;"/><path d="M943.7231,727.1431 Q943.1421,727.4419 942.5029,727.5913 Q941.8638,727.7407 941.1582,727.7407 Q938.6514,727.7407 937.3315,726.0889 Q936.0117,724.437 936.0117,721.3159 Q936.0117,718.1865 937.3315,716.5347 Q938.6514,714.8828 941.1582,714.8828 Q941.8638,714.8828 942.5112,715.0322 Q943.1587,715.1816 943.7231,715.4805 L943.7231,718.2031 Q943.0923,717.6221 942.4988,717.3523 Q941.9053,717.0825 941.2744,717.0825 Q939.9297,717.0825 939.2449,718.1492 Q938.5601,719.2158 938.5601,721.3159 Q938.5601,723.4077 939.2449,724.4744 Q939.9297,725.541 941.2744,725.541 Q941.9053,725.541 942.4988,725.2712 Q943.0923,725.0015 943.7231,724.4204 Z " fill="#000000"/><text fill="#000000" font-family="sans-serif" font-size="12" lengthAdjust="spacing" textLength="101" x="961.75" y="725.5352">AdresseJSONDTO</text><line style="stroke:#000000;stroke-width:1.5;" x1="859" x2="1133" y1="737" y2="737"/><text fill="#000000" font-family="sans-serif" font-size="11" lengthAdjust="spacing" textLength="194" x="864" y="751.6348">+Guid AdresseId «get» «private set»</text><text fill="#000000" font-family="sans-serif" font-size="11" lengthAdjust="spacing" textLength="196" x="864" y="764.5898">+NumeroCivique : string «get» «set»</text><text fill="#000000" font-family="sans-serif" font-size="11" lengthAdjust="spacing" textLength="264" x="864" y="777.5449">+InformationComplementaire : string «get» «set»</text><text fill="#000000" font-family="sans-serif" font-size="11" lengthAdjust="spacing" textLength="165" x="864" y="790.5">+Odonyme : string «get» «set»</text><text fill="#000000" font-family="sans-serif" font-size="11" lengthAdjust="spacing" textLength="162" x="864" y="803.4551">+TypeVoie : string «get» «set»</text><text fill="#000000" font-family="sans-serif" font-size="11" lengthAdjust="spacing" textLength="173" x="864" y="816.4102">+CodePostal : string «get» «set»</text><text fill="#000000" font-family="sans-serif" font-size="11" lengthAdjust="spacing" textLength="202" x="864" y="829.3652">+NomMunicipalite : string «get» «set»</text><text fill="#000000" font-family="sans-serif" font-size="11" lengthAdjust="spacing" textLength="133" x="864" y="842.3203">+Etat : string «get» «set»</text><text fill="#000000" font-family="sans-serif" font-size="11" lengthAdjust="spacing" textLength="140" x="864" y="855.2754">+Pays : string  «get» «set»</text><line style="stroke:#000000;stroke-width:1.5;" x1="859" x2="1133" y1="861.5957" y2="861.5957"/><!--MD5=[f8511494ff06e83f9c1b15495446ebaa]
class DepotClientsXML--><rect codeLine="83" fill="#FFFFFF" filter="url(#f15q4y7zam5wes)" height="99.8203" id="DepotClientsXML" style="stroke:#000000;stroke-width:1.5;" width="207" x="1708.5" y="512.5"/><ellipse cx="1759.25" cy="528.5" fill="#ADD1B2" rx="11" ry="11" style="stroke:#000000;stroke-width:1.0;"/><path d="M1761.7231,534.6431 Q1761.1421,534.9419 1760.5029,535.0913 Q1759.8638,535.2407 1759.1582,535.2407 Q1756.6514,535.2407 1755.3315,533.5889 Q1754.0117,531.937 1754.0117,528.8159 Q1754.0117,525.6865 1755.3315,524.0347 Q1756.6514,522.3828 1759.1582,522.3828 Q1759.8638,522.3828 1760.5112,522.5322 Q1761.1587,522.6816 1761.7231,522.9805 L1761.7231,525.7031 Q1761.0923,525.1221 1760.4988,524.8523 Q1759.9053,524.5825 1759.2744,524.5825 Q1757.9297,524.5825 1757.2449,525.6492 Q1756.5601,526.7158 1756.5601,528.8159 Q1756.5601,530.9077 1757.2449,531.9744 Q1757.9297,533.041 1759.2744,533.041 Q1759.9053,533.041 1760.4988,532.7712 Q1761.0923,532.5015 1761.7231,531.9204 Z " fill="#000000"/><text fill="#000000" font-family="sans-serif" font-size="12" lengthAdjust="spacing" textLength="97" x="1779.75" y="533.0352">DepotClientsXML</text><line style="stroke:#000000;stroke-width:1.5;" x1="1709.5" x2="1914.5" y1="544.5" y2="544.5"/><line style="stroke:#000000;stroke-width:1.5;" x1="1709.5" x2="1914.5" y1="552.5" y2="552.5"/><text fill="#000000" font-family="sans-serif" font-size="11" lengthAdjust="spacing" textLength="170" x="1714.5" y="567.1348">+AjouterClient(p_client : Client)</text><text fill="#000000" font-family="sans-serif" font-size="11" lengthAdjust="spacing" textLength="161" x="1714.5" y="580.0898">+ListerClients() : List&lt;Client&gt;</text><text fill="#000000" font-family="sans-serif" font-size="11" lengthAdjust="spacing" textLength="195" x="1714.5" y="593.0449">+RechercherClient(p_clientId : Guid)</text><text fill="#000000" font-family="sans-serif" font-size="11" lengthAdjust="spacing" textLength="174" x="1714.5" y="606">+ModifierClient(p_client : Client)</text><!--MD5=[c6a3e9841f0c57e28fdf2284cd93a375]
class ClientXMLDTO--><rect codeLine="76" fill="#FFFFFF" filter="url(#f15q4y7zam5wes)" height="99.8203" id="ClientXMLDTO" style="stroke:#000000;stroke-width:1.5;" width="258" x="1415" y="512.5"/><ellipse cx="1498.75" cy="528.5" fill="#ADD1B2" rx="11" ry="11" style="stroke:#000000;stroke-width:1.0;"/><path d="M1501.2231,534.6431 Q1500.6421,534.9419 1500.0029,535.0913 Q1499.3638,535.2407 1498.6582,535.2407 Q1496.1514,535.2407 1494.8315,533.5889 Q1493.5117,531.937 1493.5117,528.8159 Q1493.5117,525.6865 1494.8315,524.0347 Q1496.1514,522.3828 1498.6582,522.3828 Q1499.3638,522.3828 1500.0112,522.5322 Q1500.6587,522.6816 1501.2231,522.9805 L1501.2231,525.7031 Q1500.5923,525.1221 1499.9988,524.8523 Q1499.4053,524.5825 1498.7744,524.5825 Q1497.4297,524.5825 1496.7449,525.6492 Q1496.0601,526.7158 1496.0601,528.8159 Q1496.0601,530.9077 1496.7449,531.9744 Q1497.4297,533.041 1498.7744,533.041 Q1499.4053,533.041 1499.9988,532.7712 Q1500.5923,532.5015 1501.2231,531.9204 Z " fill="#000000"/><text fill="#000000" font-family="sans-serif" font-size="12" lengthAdjust="spacing" textLength="82" x="1519.25" y="533.0352">ClientXMLDTO</text><line style="stroke:#000000;stroke-width:1.5;" x1="1416" x2="1672" y1="544.5" y2="544.5"/><text fill="#000000" font-family="sans-serif" font-size="11" lengthAdjust="spacing" textLength="181" x="1421" y="559.1348">+Guid ClientId «get» «private set»</text><text fill="#000000" font-family="sans-serif" font-size="11" lengthAdjust="spacing" textLength="172" x="1421" y="572.0898">+string Nom «get» «private set»</text><text fill="#000000" font-family="sans-serif" font-size="11" lengthAdjust="spacing" textLength="188" x="1421" y="585.0449">+string Prenom «get» «private set»</text><text fill="#000000" font-family="sans-serif" font-size="11" lengthAdjust="spacing" textLength="246" x="1421" y="598">+List&lt;Adresse&gt; Adresses «get» «private set»</text><line style="stroke:#000000;stroke-width:1.5;" x1="1416" x2="1672" y1="604.3203" y2="604.3203"/><!--MD5=[2fc1a03e0ea9dd947f639b73d6756cfa]
class AdresseXMLDTO--><rect codeLine="90" fill="#FFFFFF" filter="url(#f15q4y7zam5wes)" height="164.5957" id="AdresseXMLDTO" style="stroke:#000000;stroke-width:1.5;" width="276" x="1415" y="705"/><ellipse cx="1500.25" cy="721" fill="#ADD1B2" rx="11" ry="11" style="stroke:#000000;stroke-width:1.0;"/><path d="M1502.7231,727.1431 Q1502.1421,727.4419 1501.5029,727.5913 Q1500.8638,727.7407 1500.1582,727.7407 Q1497.6514,727.7407 1496.3315,726.0889 Q1495.0117,724.437 1495.0117,721.3159 Q1495.0117,718.1865 1496.3315,716.5347 Q1497.6514,714.8828 1500.1582,714.8828 Q1500.8638,714.8828 1501.5112,715.0322 Q1502.1587,715.1816 1502.7231,715.4805 L1502.7231,718.2031 Q1502.0923,717.6221 1501.4988,717.3523 Q1500.9053,717.0825 1500.2744,717.0825 Q1498.9297,717.0825 1498.2449,718.1492 Q1497.5601,719.2158 1497.5601,721.3159 Q1497.5601,723.4077 1498.2449,724.4744 Q1498.9297,725.541 1500.2744,725.541 Q1500.9053,725.541 1501.4988,725.2712 Q1502.0923,725.0015 1502.7231,724.4204 Z " fill="#000000"/><text fill="#000000" font-family="sans-serif" font-size="12" lengthAdjust="spacing" textLength="97" x="1520.75" y="725.5352">AdresseXMLDTO</text><line style="stroke:#000000;stroke-width:1.5;" x1="1416" x2="1690" y1="737" y2="737"/><text fill="#000000" font-family="sans-serif" font-size="11" lengthAdjust="spacing" textLength="194" x="1421" y="751.6348">+Guid AdresseId «get» «private set»</text><text fill="#000000" font-family="sans-serif" font-size="11" lengthAdjust="spacing" textLength="196" x="1421" y="764.5898">+NumeroCivique : string «get» «set»</text><text fill="#000000" font-family="sans-serif" font-size="11" lengthAdjust="spacing" textLength="264" x="1421" y="777.5449">+InformationComplementaire : string «get» «set»</text><text fill="#000000" font-family="sans-serif" font-size="11" lengthAdjust="spacing" textLength="165" x="1421" y="790.5">+Odonyme : string «get» «set»</text><text fill="#000000" font-family="sans-serif" font-size="11" lengthAdjust="spacing" textLength="162" x="1421" y="803.4551">+TypeVoie : string «get» «set»</text><text fill="#000000" font-family="sans-serif" font-size="11" lengthAdjust="spacing" textLength="173" x="1421" y="816.4102">+CodePostal : string «get» «set»</text><text fill="#000000" font-family="sans-serif" font-size="11" lengthAdjust="spacing" textLength="202" x="1421" y="829.3652">+NomMunicipalite : string «get» «set»</text><text fill="#000000" font-family="sans-serif" font-size="11" lengthAdjust="spacing" textLength="133" x="1421" y="842.3203">+Etat : string «get» «set»</text><text fill="#000000" font-family="sans-serif" font-size="11" lengthAdjust="spacing" textLength="140" x="1421" y="855.2754">+Pays : string  «get» «set»</text><line style="stroke:#000000;stroke-width:1.5;" x1="1416" x2="1690" y1="861.5957" y2="861.5957"/><!--MD5=[c7b422ec34d12d84443b82362095488f]
class ClientUIConsole--><rect codeLine="106" fill="#FFFFFF" filter="url(#f15q4y7zam5wes)" height="177.5508" id="ClientUIConsole" style="stroke:#000000;stroke-width:1.5;" width="214" x="591" y="41"/><ellipse cx="649.75" cy="57" fill="#ADD1B2" rx="11" ry="11" style="stroke:#000000;stroke-width:1.0;"/><path d="M652.2231,63.1431 Q651.6421,63.4419 651.0029,63.5913 Q650.3638,63.7407 649.6582,63.7407 Q647.1514,63.7407 645.8315,62.0889 Q644.5117,60.437 644.5117,57.3159 Q644.5117,54.1865 645.8315,52.5347 Q647.1514,50.8828 649.6582,50.8828 Q650.3638,50.8828 651.0112,51.0322 Q651.6587,51.1816 652.2231,51.4805 L652.2231,54.2031 Q651.5923,53.6221 650.9988,53.3523 Q650.4053,53.0825 649.7744,53.0825 Q648.4297,53.0825 647.7449,54.1492 Q647.0601,55.2158 647.0601,57.3159 Q647.0601,59.4077 647.7449,60.4744 Q648.4297,61.541 649.7744,61.541 Q650.4053,61.541 650.9988,61.2712 Q651.5923,61.0015 652.2231,60.4204 Z " fill="#000000"/><text fill="#000000" font-family="sans-serif" font-size="12" lengthAdjust="spacing" textLength="88" x="670.25" y="61.5352">ClientUIConsole</text><line style="stroke:#000000;stroke-width:1.5;" x1="592" x2="804" y1="73" y2="73"/><text fill="#000000" font-family="sans-serif" font-size="11" lengthAdjust="spacing" textLength="165" x="597" y="87.6348">-m_depotClient : IDepotClients</text><line style="stroke:#000000;stroke-width:1.5;" x1="592" x2="804" y1="93.9551" y2="93.9551"/><text fill="#000000" font-family="sans-serif" font-size="11" lengthAdjust="spacing" textLength="195" x="597" y="108.5898">+ctor(p_depotClient : IDepotClients)</text><text fill="#000000" font-family="sans-serif" font-size="11" lengthAdjust="spacing" textLength="89" x="597" y="121.5449">+AfficherMenu()</text><text fill="#000000" font-family="sans-serif" font-size="11" lengthAdjust="spacing" textLength="130" x="597" y="134.5">+SaisirChoixMenu() : int</text><text fill="#000000" font-family="sans-serif" font-size="11" lengthAdjust="spacing" textLength="75" x="597" y="147.4551">+ExecuterUI()</text><text fill="#000000" font-family="sans-serif" font-size="11" lengthAdjust="spacing" textLength="187" x="597" y="160.4102">+SaisirClientAvecAdresse() : Client</text><text fill="#000000" font-family="sans-serif" font-size="11" lengthAdjust="spacing" textLength="170" x="597" y="173.3652">+AfficherClient(p_client: Client)</text><text fill="#000000" font-family="sans-serif" font-size="11" lengthAdjust="spacing" textLength="189" x="597" y="186.3203">+RechercherEtAfficherClientParId()</text><text fill="#000000" font-family="sans-serif" font-size="11" lengthAdjust="spacing" textLength="137" x="597" y="199.2754">+ListerEtAfficherClients()</text><text fill="#000000" font-family="sans-serif" font-size="11" lengthAdjust="spacing" textLength="202" x="597" y="212.2305">-GenererAdresseAleatoire() : Adresse</text><!--MD5=[1b0c2915387634bf4e789c113c92d827]
class TraitementLot--><rect codeLine="121" fill="#FFFFFF" filter="url(#f15q4y7zam5wes)" height="60.9551" id="TraitementLot" style="stroke:#000000;stroke-width:1.5;" width="112" x="1363" y="99.5"/><ellipse cx="1378" cy="115.5" fill="#B4A7E5" rx="11" ry="11" style="stroke:#000000;stroke-width:1.0;"/><path d="M1374.4277,111.7651 L1374.4277,109.6069 L1381.8071,109.6069 L1381.8071,111.7651 L1379.3418,111.7651 L1379.3418,119.8418 L1381.8071,119.8418 L1381.8071,122 L1374.4277,122 L1374.4277,119.8418 L1376.8931,119.8418 L1376.8931,111.7651 Z " fill="#000000"/><text fill="#000000" font-family="sans-serif" font-size="12" font-style="italic" lengthAdjust="spacing" textLength="80" x="1392" y="120.0352">TraitementLot</text><line style="stroke:#000000;stroke-width:1.5;" x1="1364" x2="1474" y1="131.5" y2="131.5"/><line style="stroke:#000000;stroke-width:1.5;" x1="1364" x2="1474" y1="139.5" y2="139.5"/><text fill="#000000" font-family="sans-serif" font-size="11" lengthAdjust="spacing" textLength="64" x="1369" y="154.1348">+Executer()</text><!--MD5=[c5358331cf8ae063edd27af746f4a17e]
class ModifierNomPrenomPremiereLettreMajusculesTraitementLot--><rect codeLine="129" fill="#FFFFFF" filter="url(#f15q4y7zam5wes)" height="60.9551" id="ModifierNomPrenomPremiereLettreMajusculesTraitementLot" style="stroke:#000000;stroke-width:1.5;" width="378" x="1036" y="326.5"/><ellipse cx="1051" cy="342.5" fill="#ADD1B2" rx="11" ry="11" style="stroke:#000000;stroke-width:1.0;"/><path d="M1053.4731,348.6431 Q1052.8921,348.9419 1052.2529,349.0913 Q1051.6138,349.2407 1050.9082,349.2407 Q1048.4014,349.2407 1047.0815,347.5889 Q1045.7617,345.937 1045.7617,342.8159 Q1045.7617,339.6865 1047.0815,338.0347 Q1048.4014,336.3828 1050.9082,336.3828 Q1051.6138,336.3828 1052.2612,336.5322 Q1052.9087,336.6816 1053.4731,336.9805 L1053.4731,339.7031 Q1052.8423,339.1221 1052.2488,338.8523 Q1051.6553,338.5825 1051.0244,338.5825 Q1049.6797,338.5825 1048.9949,339.6492 Q1048.3101,340.7158 1048.3101,342.8159 Q1048.3101,344.9077 1048.9949,345.9744 Q1049.6797,347.041 1051.0244,347.041 Q1051.6553,347.041 1052.2488,346.7712 Q1052.8423,346.5015 1053.4731,345.9204 Z " fill="#000000"/><text fill="#000000" font-family="sans-serif" font-size="12" lengthAdjust="spacing" textLength="346" x="1065" y="347.0352">ModifierNomPrenomPremiereLettreMajusculesTraitementLot</text><line style="stroke:#000000;stroke-width:1.5;" x1="1037" x2="1413" y1="358.5" y2="358.5"/><line style="stroke:#000000;stroke-width:1.5;" x1="1037" x2="1413" y1="366.5" y2="366.5"/><text fill="#000000" font-family="sans-serif" font-size="11" lengthAdjust="spacing" textLength="64" x="1042" y="381.1348">+Executer()</text><!--MD5=[2557689795cb60e02edc0ab7a85cd841]
class ModifierPaysMajusculesClientsTraitementLot--><rect codeLine="137" fill="#FFFFFF" filter="url(#f15q4y7zam5wes)" height="60.9551" id="ModifierPaysMajusculesClientsTraitementLot" style="stroke:#000000;stroke-width:1.5;" width="286" x="1470" y="326.5"/><ellipse cx="1485" cy="342.5" fill="#ADD1B2" rx="11" ry="11" style="stroke:#000000;stroke-width:1.0;"/><path d="M1487.4731,348.6431 Q1486.8921,348.9419 1486.2529,349.0913 Q1485.6138,349.2407 1484.9082,349.2407 Q1482.4014,349.2407 1481.0815,347.5889 Q1479.7617,345.937 1479.7617,342.8159 Q1479.7617,339.6865 1481.0815,338.0347 Q1482.4014,336.3828 1484.9082,336.3828 Q1485.6138,336.3828 1486.2612,336.5322 Q1486.9087,336.6816 1487.4731,336.9805 L1487.4731,339.7031 Q1486.8423,339.1221 1486.2488,338.8523 Q1485.6553,338.5825 1485.0244,338.5825 Q1483.6797,338.5825 1482.9949,339.6492 Q1482.3101,340.7158 1482.3101,342.8159 Q1482.3101,344.9077 1482.9949,345.9744 Q1483.6797,347.041 1485.0244,347.041 Q1485.6553,347.041 1486.2488,346.7712 Q1486.8423,346.5015 1487.4731,345.9204 Z " fill="#000000"/><text fill="#000000" font-family="sans-serif" font-size="12" lengthAdjust="spacing" textLength="254" x="1499" y="347.0352">ModifierPaysMajusculesClientsTraitementLot</text><line style="stroke:#000000;stroke-width:1.5;" x1="1471" x2="1755" y1="358.5" y2="358.5"/><line style="stroke:#000000;stroke-width:1.5;" x1="1471" x2="1755" y1="366.5" y2="366.5"/><text fill="#000000" font-family="sans-serif" font-size="11" lengthAdjust="spacing" textLength="64" x="1476" y="381.1348">+Executer()</text><!--MD5=[73af334925bb211206659973f4e1ab45]
link Client to Adresse--><path codeLine="10" d="M296,420.16 C296,437.36 296,456.35 296,474.68 " fill="none" id="Client-to-Adresse" style="stroke:#A80036;stroke-width:1.0;"/><polygon fill="#A80036" points="296,479.83,300,470.83,296,474.83,292,470.83,296,479.83" style="stroke:#A80036;stroke-width:1.0;"/><text fill="#000000" font-family="sans-serif" font-size="13" lengthAdjust="spacing" textLength="8" x="287.5625" y="440.4885">1</text><text fill="#000000" font-family="sans-serif" font-size="13" lengthAdjust="spacing" textLength="6" x="289.7234" y="469.1188">*</text><!--MD5=[19adfe3b24a6c19873fa55b195191611]
reverse link IDepotClients to DepotClientsJSON--><path codeLine="42" d="M821.38,375.99 C911.27,392.29 1034.27,421.3 1134,469.5 C1157.28,480.75 1180.47,496.87 1200.23,512.49 " fill="none" id="IDepotClients-backto-DepotClientsJSON" style="stroke:#A80036;stroke-width:1.0;stroke-dasharray:7.0,7.0;"/><polygon fill="none" points="820.06,382.87,801.57,372.51,822.48,369.08,820.06,382.87" style="stroke:#A80036;stroke-width:1.0;"/><!--MD5=[4b0760f767d69bab286038c1723b5b54]
link ClientJSONDTO to AdresseJSONDTO--><path codeLine="43" d="M988.99,612.71 C990.02,638.3 991.31,670.32 992.5,699.89 " fill="none" id="ClientJSONDTO-to-AdresseJSONDTO" style="stroke:#A80036;stroke-width:1.0;"/><polygon fill="#A80036" points="992.71,704.99,996.3471,695.8373,992.5102,699.994,988.3535,696.1571,992.71,704.99" style="stroke:#A80036;stroke-width:1.0;"/><text fill="#000000" font-family="sans-serif" font-size="13" lengthAdjust="spacing" textLength="8" x="980.7199" y="633.0661">1</text><text fill="#000000" font-family="sans-serif" font-size="13" lengthAdjust="spacing" textLength="6" x="986.1301" y="694.2935">*</text><!--MD5=[d761bc3755c2fedbb7239219a6f31ce4]
reverse link IDepotClients to DepotClientsXML--><path codeLine="73" d="M821.27,385.23 C881.01,397.53 953.96,411.24 1020,420 C1168.22,439.67 1551.17,416.57 1691,469.5 C1716.3,479.08 1740.74,495.73 1760.95,512.26 " fill="none" id="IDepotClients-backto-DepotClientsXML" style="stroke:#A80036;stroke-width:1.0;stroke-dasharray:7.0,7.0;"/><polygon fill="none" points="819.7,392.05,801.55,381.12,822.55,378.35,819.7,392.05" style="stroke:#A80036;stroke-width:1.0;"/><!--MD5=[2f7f2991185c7259beaf81b9c8660cfb]
link ClientXMLDTO to AdresseXMLDTO--><path codeLine="74" d="M1545.99,612.71 C1547.02,638.3 1548.31,670.32 1549.5,699.89 " fill="none" id="ClientXMLDTO-to-AdresseXMLDTO" style="stroke:#A80036;stroke-width:1.0;"/><polygon fill="#A80036" points="1549.71,704.99,1553.3471,695.8373,1549.5102,699.994,1545.3535,696.1571,1549.71,704.99" style="stroke:#A80036;stroke-width:1.0;"/><text fill="#000000" font-family="sans-serif" font-size="13" lengthAdjust="spacing" textLength="8" x="1537.7199" y="633.0661">1</text><text fill="#000000" font-family="sans-serif" font-size="13" lengthAdjust="spacing" textLength="6" x="1543.1301" y="694.2935">*</text><!--MD5=[bccde14c5578bf5b5ec93606ed33c2c0]
link ClientUIConsole to IDepotClients--><path codeLine="104" d="M698,219.28 C698,247.1 698,276.98 698,301.7 " fill="none" id="ClientUIConsole-to-IDepotClients" style="stroke:#A80036;stroke-width:1.0;"/><polygon fill="#A80036" points="698,306.89,702,297.89,698,301.89,694,297.89,698,306.89" style="stroke:#A80036;stroke-width:1.0;"/><text fill="#000000" font-family="sans-serif" font-size="13" lengthAdjust="spacing" textLength="8" x="689.7063" y="238.9835">1</text><text fill="#000000" font-family="sans-serif" font-size="13" lengthAdjust="spacing" textLength="8" x="689.4375" y="296.3914">1</text><!--MD5=[28ed4f9fcff8ce5627929d7049e40cdf]
reverse link TraitementLot to ModifierNomPrenomPremiereLettreMajusculesTraitementLot--><path codeLine="127" d="M1379.99,176.24 C1341.45,220.95 1283.6,288.04 1250.56,326.36 " fill="none" id="TraitementLot-backto-ModifierNomPrenomPremiereLettreMajusculesTraitementLot" style="stroke:#A80036;stroke-width:1.0;stroke-dasharray:7.0,7.0;"/><polygon fill="none" points="1374.88,171.45,1393.24,160.88,1385.48,180.6,1374.88,171.45" style="stroke:#A80036;stroke-width:1.0;"/><!--MD5=[0841bdc90cc678eaa03027aa0fbba90a]
reverse link TraitementLot to ModifierPaysMajusculesClientsTraitementLot--><path codeLine="135" d="M1458.01,176.24 C1496.55,220.95 1554.4,288.04 1587.44,326.36 " fill="none" id="TraitementLot-backto-ModifierPaysMajusculesClientsTraitementLot" style="stroke:#A80036;stroke-width:1.0;stroke-dasharray:7.0,7.0;"/><polygon fill="none" points="1452.52,180.6,1444.76,160.88,1463.12,171.45,1452.52,180.6" style="stroke:#A80036;stroke-width:1.0;"/><!--MD5=[a7496573aba9debddeccdf889717f144]
@startuml DiagClassesClients

skinparam classAttributeIconSize 0
skinparam class {
    BackgroundColor White
    BorderColor #000
}


package Entites {
    Client "1" - -> "*" Adresse

    class Client {
        + ctor(p_clientId : Guid, p_nom : string, p_prenom : string, p_adresses : IEnumerable<Adresse>)
        + Guid ClientId <<get>> <<private set>>
        + string Nom <<get>> <<private set>>
        + string Prenom <<get>> <<private set>>
        + List<Adresse> Adresses <<get>> <<private set>>
        + AjouterModifierAdresse(p_adresse : Adresse)
    }

    class Adresse {
        + Guid AdresseId <<get>> <<private set>>
        + NumeroCivique : string <<get>> <<set>>
        + InformationComplementaire : string <<get>> <<set>>
        + Odonyme : string <<get>> <<set>>
        + TypeVoie : string <<get>> <<set>>
        + CodePostal : string <<get>> <<set>>
        + NomMunicipalite : string <<get>> <<set>>
        + Etat : string <<get>> <<set>>
        + Pays : string  <<get>> <<set>>
    }

    interface IDepotClients {
        + AjouterClient(p_client : Client)
        + ListerClients() : List<Client>
        + RechercherClient(p_clientId : Guid)
        + ModifierClient(p_client : Client)
    }
}

package CoucheAccesDonnees.JSON {
    IDepotClients <|.. DepotClientsJSON
    ClientJSONDTO "1" - -> "*" AdresseJSONDTO

    class ClientJSONDTO {
        + Guid ClientId <<get>> <<private set>>
        + string Nom <<get>> <<private set>>
        + string Prenom <<get>> <<private set>>
        + List<Adresse> Adresses <<get>> <<private set>>
    }

    class AdresseJSONDTO {
        + Guid AdresseId <<get>> <<private set>>
        + NumeroCivique : string <<get>> <<set>>
        + InformationComplementaire : string <<get>> <<set>>
        + Odonyme : string <<get>> <<set>>
        + TypeVoie : string <<get>> <<set>>
        + CodePostal : string <<get>> <<set>>
        + NomMunicipalite : string <<get>> <<set>>
        + Etat : string <<get>> <<set>>
        + Pays : string  <<get>> <<set>>
    }

    class DepotClientsJSON {
        + AjouterClient(p_client : Client)
        + ListerClients() : List<Client>
        + RechercherClient(p_clientId : Guid)
        + ModifierClient(p_client : Client)
    }
}

package CoucheAccesDonnees.XML {
    IDepotClients <|.. DepotClientsXML
    ClientXMLDTO "1" - -> "*" AdresseXMLDTO

    class ClientXMLDTO {
        + Guid ClientId <<get>> <<private set>>
        + string Nom <<get>> <<private set>>
        + string Prenom <<get>> <<private set>>
        + List<Adresse> Adresses <<get>> <<private set>>
    }

    class DepotClientsXML {
        + AjouterClient(p_client : Client)
        + ListerClients() : List<Client>
        + RechercherClient(p_clientId : Guid)
        + ModifierClient(p_client : Client)
    }

    class AdresseXMLDTO {
        + Guid AdresseId <<get>> <<private set>>
        + NumeroCivique : string <<get>> <<set>>
        + InformationComplementaire : string <<get>> <<set>>
        + Odonyme : string <<get>> <<set>>
        + TypeVoie : string <<get>> <<set>>
        + CodePostal : string <<get>> <<set>>
        + NomMunicipalite : string <<get>> <<set>>
        + Etat : string <<get>> <<set>>
        + Pays : string  <<get>> <<set>>
    }
}

package Application {
    ClientUIConsole "1" - -> "1" IDepotClients

    class ClientUIConsole {
        - m_depotClient : IDepotClients
        + ctor(p_depotClient : IDepotClients)
        + AfficherMenu()
        + SaisirChoixMenu() : int
        + ExecuterUI()
        + SaisirClientAvecAdresse() : Client
        + AfficherClient(p_client: Client)
        + RechercherEtAfficherClientParId()
        + ListerEtAfficherClients()
        - GenererAdresseAleatoire() : Adresse
    }
}

package TraitementsLots {
    interface TraitementLot {
        + Executer()
    }
}

package TraitementsLots.ModifierNomPrenomPremiereLettreMajuscules {
    TraitementLot <|.. ModifierNomPrenomPremiereLettreMajusculesTraitementLot

    class ModifierNomPrenomPremiereLettreMajusculesTraitementLot {
        + Executer()
    }
}

package TraitementsLots.ModifierPaysMajusculesClients {
    TraitementLot <|.. ModifierPaysMajusculesClientsTraitementLot

    class ModifierPaysMajusculesClientsTraitementLot {
        + Executer()
    }
}

' TraitementsLots <.. TraitementsLots.ModifierNomPrenomPremiereLettreMajuscules
' TraitementsLots <.. TraitementsLots.ModifierPaysMajusculesClients

' Entites <.. CoucheAccesDonnees.JSON
' Entites <.. CoucheAccesDonnees.XML
' Entites <.. Application
' Entites <.. TraitementsLots

@enduml

@startuml DiagClassesClients

skinparam classAttributeIconSize 0
skinparam class {
    BackgroundColor White
    BorderColor #000
}


package Entites {
    Client "1" - -> "*" Adresse

    class Client {
        + ctor(p_clientId : Guid, p_nom : string, p_prenom : string, p_adresses : IEnumerable<Adresse>)
        + Guid ClientId <<get>> <<private set>>
        + string Nom <<get>> <<private set>>
        + string Prenom <<get>> <<private set>>
        + List<Adresse> Adresses <<get>> <<private set>>
        + AjouterModifierAdresse(p_adresse : Adresse)
    }

    class Adresse {
        + Guid AdresseId <<get>> <<private set>>
        + NumeroCivique : string <<get>> <<set>>
        + InformationComplementaire : string <<get>> <<set>>
        + Odonyme : string <<get>> <<set>>
        + TypeVoie : string <<get>> <<set>>
        + CodePostal : string <<get>> <<set>>
        + NomMunicipalite : string <<get>> <<set>>
        + Etat : string <<get>> <<set>>
        + Pays : string  <<get>> <<set>>
    }

    interface IDepotClients {
        + AjouterClient(p_client : Client)
        + ListerClients() : List<Client>
        + RechercherClient(p_clientId : Guid)
        + ModifierClient(p_client : Client)
    }
}

package CoucheAccesDonnees.JSON {
    IDepotClients <|.. DepotClientsJSON
    ClientJSONDTO "1" - -> "*" AdresseJSONDTO

    class ClientJSONDTO {
        + Guid ClientId <<get>> <<private set>>
        + string Nom <<get>> <<private set>>
        + string Prenom <<get>> <<private set>>
        + List<Adresse> Adresses <<get>> <<private set>>
    }

    class AdresseJSONDTO {
        + Guid AdresseId <<get>> <<private set>>
        + NumeroCivique : string <<get>> <<set>>
        + InformationComplementaire : string <<get>> <<set>>
        + Odonyme : string <<get>> <<set>>
        + TypeVoie : string <<get>> <<set>>
        + CodePostal : string <<get>> <<set>>
        + NomMunicipalite : string <<get>> <<set>>
        + Etat : string <<get>> <<set>>
        + Pays : string  <<get>> <<set>>
    }

    class DepotClientsJSON {
        + AjouterClient(p_client : Client)
        + ListerClients() : List<Client>
        + RechercherClient(p_clientId : Guid)
        + ModifierClient(p_client : Client)
    }
}

package CoucheAccesDonnees.XML {
    IDepotClients <|.. DepotClientsXML
    ClientXMLDTO "1" - -> "*" AdresseXMLDTO

    class ClientXMLDTO {
        + Guid ClientId <<get>> <<private set>>
        + string Nom <<get>> <<private set>>
        + string Prenom <<get>> <<private set>>
        + List<Adresse> Adresses <<get>> <<private set>>
    }

    class DepotClientsXML {
        + AjouterClient(p_client : Client)
        + ListerClients() : List<Client>
        + RechercherClient(p_clientId : Guid)
        + ModifierClient(p_client : Client)
    }

    class AdresseXMLDTO {
        + Guid AdresseId <<get>> <<private set>>
        + NumeroCivique : string <<get>> <<set>>
        + InformationComplementaire : string <<get>> <<set>>
        + Odonyme : string <<get>> <<set>>
        + TypeVoie : string <<get>> <<set>>
        + CodePostal : string <<get>> <<set>>
        + NomMunicipalite : string <<get>> <<set>>
        + Etat : string <<get>> <<set>>
        + Pays : string  <<get>> <<set>>
    }
}

package Application {
    ClientUIConsole "1" - -> "1" IDepotClients

    class ClientUIConsole {
        - m_depotClient : IDepotClients
        + ctor(p_depotClient : IDepotClients)
        + AfficherMenu()
        + SaisirChoixMenu() : int
        + ExecuterUI()
        + SaisirClientAvecAdresse() : Client
        + AfficherClient(p_client: Client)
        + RechercherEtAfficherClientParId()
        + ListerEtAfficherClients()
        - GenererAdresseAleatoire() : Adresse
    }
}

package TraitementsLots {
    interface TraitementLot {
        + Executer()
    }
}

package TraitementsLots.ModifierNomPrenomPremiereLettreMajuscules {
    TraitementLot <|.. ModifierNomPrenomPremiereLettreMajusculesTraitementLot

    class ModifierNomPrenomPremiereLettreMajusculesTraitementLot {
        + Executer()
    }
}

package TraitementsLots.ModifierPaysMajusculesClients {
    TraitementLot <|.. ModifierPaysMajusculesClientsTraitementLot

    class ModifierPaysMajusculesClientsTraitementLot {
        + Executer()
    }
}



@enduml

PlantUML version 1.2021.7(Sun May 23 08:40:07 EDT 2021)
(GPL source distribution)
Java Runtime: OpenJDK Runtime Environment
JVM: OpenJDK 64-Bit Server VM
Default Encoding: UTF-8
Language: fr
Country: CA
--></g></svg>