<?xml version="1.0" encoding="UTF-8" standalone="no"?><svg xmlns="http://www.w3.org/2000/svg" xmlns:xlink="http://www.w3.org/1999/xlink" contentScriptType="application/ecmascript" contentStyleType="text/css" height="903px" preserveAspectRatio="none" style="width:1960px;height:903px;" version="1.1" viewBox="0 0 1960 903" width="1960px" zoomAndPan="magnify"><defs><filter height="300%" id="f1fweqsatpboae" width="300%" x="-1" y="-1"><feGaussianBlur result="blurOut" stdDeviation="2.0"/><feColorMatrix in="blurOut" result="blurOut2" type="matrix" values="0 0 0 0 0 0 0 0 0 0 0 0 0 0 0 0 0 0 .4 0"/><feOffset dx="4.0" dy="4.0" in="blurOut2" result="blurOut3"/><feBlend in="SourceGraphic" in2="blurOut3" mode="normal"/></filter></defs><g><!--MD5=[5874d566586a6ddbc1a6cc88fa7772b4]
cluster Entites--><polygon fill="#FFFFFF" filter="url(#f1fweqsatpboae)" points="22,277,78,277,85,299.4883,824,299.4883,824,679,22,679,22,277" style="stroke: #000000; stroke-width: 1.5;"/><line style="stroke: #000000; stroke-width: 1.5;" x1="22" x2="85" y1="299.4883" y2="299.4883"/><text fill="#000000" font-family="sans-serif" font-size="14" font-weight="bold" lengthAdjust="spacingAndGlyphs" textLength="50" x="26" y="292.5352">Entites</text><!--MD5=[58411e8cd7c7842c91d66565eae2e7e4]
cluster CoucheAccesDonnees.JSON--><polygon fill="#FFFFFF" filter="url(#f1fweqsatpboae)" points="848,495.5,1048,495.5,1055,517.9883,1381,517.9883,1381,891,848,891,848,495.5" style="stroke: #000000; stroke-width: 1.5;"/><line style="stroke: #000000; stroke-width: 1.5;" x1="848" x2="1055" y1="517.9883" y2="517.9883"/><text fill="#000000" font-family="sans-serif" font-size="14" font-weight="bold" lengthAdjust="spacingAndGlyphs" textLength="194" x="852" y="511.0352">CoucheAccesDonnees.JSON</text><!--MD5=[1cee548357feb363aeb26581c5830677]
cluster CoucheAccesDonnees.XML--><polygon fill="#FFFFFF" filter="url(#f1fweqsatpboae)" points="1405,495.5,1598,495.5,1605,517.9883,1938,517.9883,1938,891,1405,891,1405,495.5" style="stroke: #000000; stroke-width: 1.5;"/><line style="stroke: #000000; stroke-width: 1.5;" x1="1405" x2="1605" y1="517.9883" y2="517.9883"/><text fill="#000000" font-family="sans-serif" font-size="14" font-weight="bold" lengthAdjust="spacingAndGlyphs" textLength="187" x="1409" y="511.0352">CoucheAccesDonnees.XML</text><!--MD5=[d64883541e3d62e3241c4d12decf100d]
cluster Application--><polygon fill="#FFFFFF" filter="url(#f1fweqsatpboae)" points="581,24,669,24,676,46.4883,827,46.4883,827,253,581,253,581,24" style="stroke: #000000; stroke-width: 1.5;"/><line style="stroke: #000000; stroke-width: 1.5;" x1="581" x2="676" y1="46.4883" y2="46.4883"/><text fill="#000000" font-family="sans-serif" font-size="14" font-weight="bold" lengthAdjust="spacingAndGlyphs" textLength="82" x="585" y="39.5352">Application</text><!--MD5=[cc516cdafd18f5166a12d2815e229259]
cluster TraitementsLots--><polygon fill="#FFFFFF" filter="url(#f1fweqsatpboae)" points="1353,82.5,1478,82.5,1485,104.9883,1497,104.9883,1497,194.5,1353,194.5,1353,82.5" style="stroke: #000000; stroke-width: 1.5;"/><line style="stroke: #000000; stroke-width: 1.5;" x1="1353" x2="1485" y1="104.9883" y2="104.9883"/><text fill="#000000" font-family="sans-serif" font-size="14" font-weight="bold" lengthAdjust="spacingAndGlyphs" textLength="119" x="1357" y="98.0352">TraitementsLots</text><!--MD5=[7f08c26b5c13ad971a2d66368e006df8]
cluster TraitementsLots.ModifierNomPrenomPremiereLettreMajuscules--><polygon fill="#FFFFFF" filter="url(#f1fweqsatpboae)" points="962,309.5,1426,309.5,1433,331.9883,1436,331.9883,1436,421.5,962,421.5,962,309.5" style="stroke: #000000; stroke-width: 1.5;"/><line style="stroke: #000000; stroke-width: 1.5;" x1="962" x2="1433" y1="331.9883" y2="331.9883"/><text fill="#000000" font-family="sans-serif" font-size="14" font-weight="bold" lengthAdjust="spacingAndGlyphs" textLength="458" x="966" y="325.0352">TraitementsLots.ModifierNomPrenomPremiereLettreMajuscules</text><!--MD5=[b67bd2e63e36cb1685839f263e4a745c]
cluster TraitementsLots.ModifierPaysMajusculesClients--><polygon fill="#FFFFFF" filter="url(#f1fweqsatpboae)" points="1460,309.5,1813,309.5,1820,331.9883,1823,331.9883,1823,421.5,1460,421.5,1460,309.5" style="stroke: #000000; stroke-width: 1.5;"/><line style="stroke: #000000; stroke-width: 1.5;" x1="1460" x2="1820" y1="331.9883" y2="331.9883"/><text fill="#000000" font-family="sans-serif" font-size="14" font-weight="bold" lengthAdjust="spacingAndGlyphs" textLength="347" x="1464" y="325.0352">TraitementsLots.ModifierPaysMajusculesClients</text><!--MD5=[ed6624c6556d5e7b1bd23032162d20b7]
class Client--><rect fill="#FFFFFF" filter="url(#f1fweqsatpboae)" height="125.7305" id="Client" style="stroke: #000000; stroke-width: 1.5;" width="527" x="38.5" y="312"/><ellipse cx="281.75" cy="328" fill="#ADD1B2" rx="11" ry="11" style="stroke: #000000; stroke-width: 1.0;"/><path d="M284.2231,334.1431 Q283.6421,334.4419 283.0029,334.5913 Q282.3638,334.7407 281.6582,334.7407 Q279.1514,334.7407 277.8315,333.0889 Q276.5117,331.437 276.5117,328.3159 Q276.5117,325.1865 277.8315,323.5347 Q279.1514,321.8828 281.6582,321.8828 Q282.3638,321.8828 283.0112,322.0322 Q283.6587,322.1816 284.2231,322.4805 L284.2231,325.2031 Q283.5923,324.6221 282.9988,324.3523 Q282.4053,324.0825 281.7744,324.0825 Q280.4297,324.0825 279.7449,325.1492 Q279.0601,326.2158 279.0601,328.3159 Q279.0601,330.4077 279.7449,331.4744 Q280.4297,332.541 281.7744,332.541 Q282.4053,332.541 282.9988,332.2712 Q283.5923,332.0015 284.2231,331.4204 Z "/><text fill="#000000" font-family="sans-serif" font-size="12" lengthAdjust="spacingAndGlyphs" textLength="32" x="302.25" y="332.5352">Client</text><line style="stroke: #000000; stroke-width: 1.5;" x1="39.5" x2="564.5" y1="344" y2="344"/><text fill="#000000" font-family="sans-serif" font-size="11" lengthAdjust="spacingAndGlyphs" textLength="181" x="44.5" y="358.6348">+Guid ClientId «get» «private set»</text><text fill="#000000" font-family="sans-serif" font-size="11" lengthAdjust="spacingAndGlyphs" textLength="172" x="44.5" y="371.5898">+string Nom «get» «private set»</text><text fill="#000000" font-family="sans-serif" font-size="11" lengthAdjust="spacingAndGlyphs" textLength="188" x="44.5" y="384.5449">+string Prenom «get» «private set»</text><text fill="#000000" font-family="sans-serif" font-size="11" lengthAdjust="spacingAndGlyphs" textLength="246" x="44.5" y="397.5">+List&lt;Adresse&gt; Adresses «get» «private set»</text><line style="stroke: #000000; stroke-width: 1.5;" x1="39.5" x2="564.5" y1="403.8203" y2="403.8203"/><text fill="#000000" font-family="sans-serif" font-size="11" lengthAdjust="spacingAndGlyphs" textLength="515" x="44.5" y="418.4551">+ctor(p_clientId : Guid, p_nom : string, p_prenom : string, p_adresses : IEnumerable&lt;Adresse&gt;)</text><text fill="#000000" font-family="sans-serif" font-size="11" lengthAdjust="spacingAndGlyphs" textLength="253" x="44.5" y="431.4102">+AjouterModifierAdresse(p_adresse : Adresse)</text><!--MD5=[70c811998a0d7544d2536fae1accd5d3]
class Adresse--><rect fill="#FFFFFF" filter="url(#f1fweqsatpboae)" height="164.5957" id="Adresse" style="stroke: #000000; stroke-width: 1.5;" width="276" x="164" y="498"/><ellipse cx="274.25" cy="514" fill="#ADD1B2" rx="11" ry="11" style="stroke: #000000; stroke-width: 1.0;"/><path d="M276.7231,520.1431 Q276.1421,520.4419 275.5029,520.5913 Q274.8638,520.7407 274.1582,520.7407 Q271.6514,520.7407 270.3315,519.0889 Q269.0117,517.437 269.0117,514.3159 Q269.0117,511.1865 270.3315,509.5347 Q271.6514,507.8828 274.1582,507.8828 Q274.8638,507.8828 275.5112,508.0322 Q276.1587,508.1816 276.7231,508.4805 L276.7231,511.2031 Q276.0923,510.6221 275.4988,510.3523 Q274.9053,510.0825 274.2744,510.0825 Q272.9297,510.0825 272.2449,511.1492 Q271.5601,512.2158 271.5601,514.3159 Q271.5601,516.4077 272.2449,517.4744 Q272.9297,518.541 274.2744,518.541 Q274.9053,518.541 275.4988,518.2712 Q276.0923,518.0015 276.7231,517.4204 Z "/><text fill="#000000" font-family="sans-serif" font-size="12" lengthAdjust="spacingAndGlyphs" textLength="47" x="294.75" y="518.5352">Adresse</text><line style="stroke: #000000; stroke-width: 1.5;" x1="165" x2="439" y1="530" y2="530"/><text fill="#000000" font-family="sans-serif" font-size="11" lengthAdjust="spacingAndGlyphs" textLength="194" x="170" y="544.6348">+Guid AdresseId «get» «private set»</text><text fill="#000000" font-family="sans-serif" font-size="11" lengthAdjust="spacingAndGlyphs" textLength="196" x="170" y="557.5898">+NumeroCivique : string «get» «set»</text><text fill="#000000" font-family="sans-serif" font-size="11" lengthAdjust="spacingAndGlyphs" textLength="264" x="170" y="570.5449">+InformationComplementaire : string «get» «set»</text><text fill="#000000" font-family="sans-serif" font-size="11" lengthAdjust="spacingAndGlyphs" textLength="165" x="170" y="583.5">+Odonyme : string «get» «set»</text><text fill="#000000" font-family="sans-serif" font-size="11" lengthAdjust="spacingAndGlyphs" textLength="162" x="170" y="596.4551">+TypeVoie : string «get» «set»</text><text fill="#000000" font-family="sans-serif" font-size="11" lengthAdjust="spacingAndGlyphs" textLength="173" x="170" y="609.4102">+CodePostal : string «get» «set»</text><text fill="#000000" font-family="sans-serif" font-size="11" lengthAdjust="spacingAndGlyphs" textLength="202" x="170" y="622.3652">+NomMunicipalite : string «get» «set»</text><text fill="#000000" font-family="sans-serif" font-size="11" lengthAdjust="spacingAndGlyphs" textLength="133" x="170" y="635.3203">+Etat : string «get» «set»</text><text fill="#000000" font-family="sans-serif" font-size="11" lengthAdjust="spacingAndGlyphs" textLength="140" x="170" y="648.2754">+Pays : string  «get» «set»</text><line style="stroke: #000000; stroke-width: 1.5;" x1="165" x2="439" y1="654.5957" y2="654.5957"/><!--MD5=[ab2a9c778be45ce09f2dd240b46c09a9]
class IDepotClients--><rect fill="#FFFFFF" filter="url(#f1fweqsatpboae)" height="99.8203" id="IDepotClients" style="stroke: #000000; stroke-width: 1.5;" width="207" x="600.5" y="325"/><ellipse cx="661.75" cy="341" fill="#B4A7E5" rx="11" ry="11" style="stroke: #000000; stroke-width: 1.0;"/><path d="M658.1777,337.2651 L658.1777,335.1069 L665.5571,335.1069 L665.5571,337.2651 L663.0918,337.2651 L663.0918,345.3418 L665.5571,345.3418 L665.5571,347.5 L658.1777,347.5 L658.1777,345.3418 L660.6431,345.3418 L660.6431,337.2651 Z "/><text fill="#000000" font-family="sans-serif" font-size="12" font-style="italic" lengthAdjust="spacingAndGlyphs" textLength="76" x="682.25" y="345.5352">IDepotClients</text><line style="stroke: #000000; stroke-width: 1.5;" x1="601.5" x2="806.5" y1="357" y2="357"/><line style="stroke: #000000; stroke-width: 1.5;" x1="601.5" x2="806.5" y1="365" y2="365"/><text fill="#000000" font-family="sans-serif" font-size="11" lengthAdjust="spacingAndGlyphs" textLength="170" x="606.5" y="379.6348">+AjouterClient(p_client : Client)</text><text fill="#000000" font-family="sans-serif" font-size="11" lengthAdjust="spacingAndGlyphs" textLength="161" x="606.5" y="392.5898">+ListerClients() : List&lt;Client&gt;</text><text fill="#000000" font-family="sans-serif" font-size="11" lengthAdjust="spacingAndGlyphs" textLength="195" x="606.5" y="405.5449">+RechercherClient(p_clientId : Guid)</text><text fill="#000000" font-family="sans-serif" font-size="11" lengthAdjust="spacingAndGlyphs" textLength="174" x="606.5" y="418.5">+ModifierClient(p_client : Client)</text><!--MD5=[381a50664acc2610a3131cd21e751d0c]
class DepotClientsJSON--><rect fill="#FFFFFF" filter="url(#f1fweqsatpboae)" height="99.8203" id="DepotClientsJSON" style="stroke: #000000; stroke-width: 1.5;" width="207" x="1157.5" y="530.5"/><ellipse cx="1206.25" cy="546.5" fill="#ADD1B2" rx="11" ry="11" style="stroke: #000000; stroke-width: 1.0;"/><path d="M1208.7231,552.6431 Q1208.1421,552.9419 1207.5029,553.0913 Q1206.8638,553.2407 1206.1582,553.2407 Q1203.6514,553.2407 1202.3315,551.5889 Q1201.0117,549.937 1201.0117,546.8159 Q1201.0117,543.6865 1202.3315,542.0347 Q1203.6514,540.3828 1206.1582,540.3828 Q1206.8638,540.3828 1207.5112,540.5322 Q1208.1587,540.6816 1208.7231,540.9805 L1208.7231,543.7031 Q1208.0923,543.1221 1207.4988,542.8523 Q1206.9053,542.5825 1206.2744,542.5825 Q1204.9297,542.5825 1204.2449,543.6492 Q1203.5601,544.7158 1203.5601,546.8159 Q1203.5601,548.9077 1204.2449,549.9744 Q1204.9297,551.041 1206.2744,551.041 Q1206.9053,551.041 1207.4988,550.7712 Q1208.0923,550.5015 1208.7231,549.9204 Z "/><text fill="#000000" font-family="sans-serif" font-size="12" lengthAdjust="spacingAndGlyphs" textLength="101" x="1226.75" y="551.0352">DepotClientsJSON</text><line style="stroke: #000000; stroke-width: 1.5;" x1="1158.5" x2="1363.5" y1="562.5" y2="562.5"/><line style="stroke: #000000; stroke-width: 1.5;" x1="1158.5" x2="1363.5" y1="570.5" y2="570.5"/><text fill="#000000" font-family="sans-serif" font-size="11" lengthAdjust="spacingAndGlyphs" textLength="170" x="1163.5" y="585.1348">+AjouterClient(p_client : Client)</text><text fill="#000000" font-family="sans-serif" font-size="11" lengthAdjust="spacingAndGlyphs" textLength="161" x="1163.5" y="598.0898">+ListerClients() : List&lt;Client&gt;</text><text fill="#000000" font-family="sans-serif" font-size="11" lengthAdjust="spacingAndGlyphs" textLength="195" x="1163.5" y="611.0449">+RechercherClient(p_clientId : Guid)</text><text fill="#000000" font-family="sans-serif" font-size="11" lengthAdjust="spacingAndGlyphs" textLength="174" x="1163.5" y="624">+ModifierClient(p_client : Client)</text><!--MD5=[da31f5de147c5371561ac61575262c16]
class ClientJSONDTO--><rect fill="#FFFFFF" filter="url(#f1fweqsatpboae)" height="99.8203" id="ClientJSONDTO" style="stroke: #000000; stroke-width: 1.5;" width="258" x="864" y="530.5"/><ellipse cx="945.75" cy="546.5" fill="#ADD1B2" rx="11" ry="11" style="stroke: #000000; stroke-width: 1.0;"/><path d="M948.2231,552.6431 Q947.6421,552.9419 947.0029,553.0913 Q946.3638,553.2407 945.6582,553.2407 Q943.1514,553.2407 941.8315,551.5889 Q940.5117,549.937 940.5117,546.8159 Q940.5117,543.6865 941.8315,542.0347 Q943.1514,540.3828 945.6582,540.3828 Q946.3638,540.3828 947.0112,540.5322 Q947.6587,540.6816 948.2231,540.9805 L948.2231,543.7031 Q947.5923,543.1221 946.9988,542.8523 Q946.4053,542.5825 945.7744,542.5825 Q944.4297,542.5825 943.7449,543.6492 Q943.0601,544.7158 943.0601,546.8159 Q943.0601,548.9077 943.7449,549.9744 Q944.4297,551.041 945.7744,551.041 Q946.4053,551.041 946.9988,550.7712 Q947.5923,550.5015 948.2231,549.9204 Z "/><text fill="#000000" font-family="sans-serif" font-size="12" lengthAdjust="spacingAndGlyphs" textLength="86" x="966.25" y="551.0352">ClientJSONDTO</text><line style="stroke: #000000; stroke-width: 1.5;" x1="865" x2="1121" y1="562.5" y2="562.5"/><text fill="#000000" font-family="sans-serif" font-size="11" lengthAdjust="spacingAndGlyphs" textLength="181" x="870" y="577.1348">+Guid ClientId «get» «private set»</text><text fill="#000000" font-family="sans-serif" font-size="11" lengthAdjust="spacingAndGlyphs" textLength="172" x="870" y="590.0898">+string Nom «get» «private set»</text><text fill="#000000" font-family="sans-serif" font-size="11" lengthAdjust="spacingAndGlyphs" textLength="188" x="870" y="603.0449">+string Prenom «get» «private set»</text><text fill="#000000" font-family="sans-serif" font-size="11" lengthAdjust="spacingAndGlyphs" textLength="246" x="870" y="616">+List&lt;Adresse&gt; Adresses «get» «private set»</text><line style="stroke: #000000; stroke-width: 1.5;" x1="865" x2="1121" y1="622.3203" y2="622.3203"/><!--MD5=[e5d36b82b5a16e7f890ccd92894a10d8]
class AdresseJSONDTO--><rect fill="#FFFFFF" filter="url(#f1fweqsatpboae)" height="151.6406" id="AdresseJSONDTO" style="stroke: #000000; stroke-width: 1.5;" width="276" x="864" y="723"/><ellipse cx="947.25" cy="739" fill="#ADD1B2" rx="11" ry="11" style="stroke: #000000; stroke-width: 1.0;"/><path d="M949.7231,745.1431 Q949.1421,745.4419 948.5029,745.5913 Q947.8638,745.7407 947.1582,745.7407 Q944.6514,745.7407 943.3315,744.0889 Q942.0117,742.437 942.0117,739.3159 Q942.0117,736.1865 943.3315,734.5347 Q944.6514,732.8828 947.1582,732.8828 Q947.8638,732.8828 948.5112,733.0322 Q949.1587,733.1816 949.7231,733.4805 L949.7231,736.2031 Q949.0923,735.6221 948.4988,735.3523 Q947.9053,735.0825 947.2744,735.0825 Q945.9297,735.0825 945.2449,736.1492 Q944.5601,737.2158 944.5601,739.3159 Q944.5601,741.4077 945.2449,742.4744 Q945.9297,743.541 947.2744,743.541 Q947.9053,743.541 948.4988,743.2712 Q949.0923,743.0015 949.7231,742.4204 Z "/><text fill="#000000" font-family="sans-serif" font-size="12" lengthAdjust="spacingAndGlyphs" textLength="101" x="967.75" y="743.5352">AdresseJSONDTO</text><line style="stroke: #000000; stroke-width: 1.5;" x1="865" x2="1139" y1="755" y2="755"/><text fill="#000000" font-family="sans-serif" font-size="11" lengthAdjust="spacingAndGlyphs" textLength="196" x="870" y="769.6348">+NumeroCivique : string «get» «set»</text><text fill="#000000" font-family="sans-serif" font-size="11" lengthAdjust="spacingAndGlyphs" textLength="264" x="870" y="782.5898">+InformationComplementaire : string «get» «set»</text><text fill="#000000" font-family="sans-serif" font-size="11" lengthAdjust="spacingAndGlyphs" textLength="165" x="870" y="795.5449">+Odonyme : string «get» «set»</text><text fill="#000000" font-family="sans-serif" font-size="11" lengthAdjust="spacingAndGlyphs" textLength="162" x="870" y="808.5">+TypeVoie : string «get» «set»</text><text fill="#000000" font-family="sans-serif" font-size="11" lengthAdjust="spacingAndGlyphs" textLength="173" x="870" y="821.4551">+CodePostal : string «get» «set»</text><text fill="#000000" font-family="sans-serif" font-size="11" lengthAdjust="spacingAndGlyphs" textLength="202" x="870" y="834.4102">+NomMunicipalite : string «get» «set»</text><text fill="#000000" font-family="sans-serif" font-size="11" lengthAdjust="spacingAndGlyphs" textLength="133" x="870" y="847.3652">+Etat : string «get» «set»</text><text fill="#000000" font-family="sans-serif" font-size="11" lengthAdjust="spacingAndGlyphs" textLength="140" x="870" y="860.3203">+Pays : string  «get» «set»</text><line style="stroke: #000000; stroke-width: 1.5;" x1="865" x2="1139" y1="866.6406" y2="866.6406"/><!--MD5=[f8511494ff06e83f9c1b15495446ebaa]
class DepotClientsXML--><rect fill="#FFFFFF" filter="url(#f1fweqsatpboae)" height="99.8203" id="DepotClientsXML" style="stroke: #000000; stroke-width: 1.5;" width="207" x="1714.5" y="530.5"/><ellipse cx="1765.25" cy="546.5" fill="#ADD1B2" rx="11" ry="11" style="stroke: #000000; stroke-width: 1.0;"/><path d="M1767.7231,552.6431 Q1767.1421,552.9419 1766.5029,553.0913 Q1765.8638,553.2407 1765.1582,553.2407 Q1762.6514,553.2407 1761.3315,551.5889 Q1760.0117,549.937 1760.0117,546.8159 Q1760.0117,543.6865 1761.3315,542.0347 Q1762.6514,540.3828 1765.1582,540.3828 Q1765.8638,540.3828 1766.5112,540.5322 Q1767.1587,540.6816 1767.7231,540.9805 L1767.7231,543.7031 Q1767.0923,543.1221 1766.4988,542.8523 Q1765.9053,542.5825 1765.2744,542.5825 Q1763.9297,542.5825 1763.2449,543.6492 Q1762.5601,544.7158 1762.5601,546.8159 Q1762.5601,548.9077 1763.2449,549.9744 Q1763.9297,551.041 1765.2744,551.041 Q1765.9053,551.041 1766.4988,550.7712 Q1767.0923,550.5015 1767.7231,549.9204 Z "/><text fill="#000000" font-family="sans-serif" font-size="12" lengthAdjust="spacingAndGlyphs" textLength="97" x="1785.75" y="551.0352">DepotClientsXML</text><line style="stroke: #000000; stroke-width: 1.5;" x1="1715.5" x2="1920.5" y1="562.5" y2="562.5"/><line style="stroke: #000000; stroke-width: 1.5;" x1="1715.5" x2="1920.5" y1="570.5" y2="570.5"/><text fill="#000000" font-family="sans-serif" font-size="11" lengthAdjust="spacingAndGlyphs" textLength="170" x="1720.5" y="585.1348">+AjouterClient(p_client : Client)</text><text fill="#000000" font-family="sans-serif" font-size="11" lengthAdjust="spacingAndGlyphs" textLength="161" x="1720.5" y="598.0898">+ListerClients() : List&lt;Client&gt;</text><text fill="#000000" font-family="sans-serif" font-size="11" lengthAdjust="spacingAndGlyphs" textLength="195" x="1720.5" y="611.0449">+RechercherClient(p_clientId : Guid)</text><text fill="#000000" font-family="sans-serif" font-size="11" lengthAdjust="spacingAndGlyphs" textLength="174" x="1720.5" y="624">+ModifierClient(p_client : Client)</text><!--MD5=[c6a3e9841f0c57e28fdf2284cd93a375]
class ClientXMLDTO--><rect fill="#FFFFFF" filter="url(#f1fweqsatpboae)" height="99.8203" id="ClientXMLDTO" style="stroke: #000000; stroke-width: 1.5;" width="258" x="1421" y="530.5"/><ellipse cx="1504.75" cy="546.5" fill="#ADD1B2" rx="11" ry="11" style="stroke: #000000; stroke-width: 1.0;"/><path d="M1507.2231,552.6431 Q1506.6421,552.9419 1506.0029,553.0913 Q1505.3638,553.2407 1504.6582,553.2407 Q1502.1514,553.2407 1500.8315,551.5889 Q1499.5117,549.937 1499.5117,546.8159 Q1499.5117,543.6865 1500.8315,542.0347 Q1502.1514,540.3828 1504.6582,540.3828 Q1505.3638,540.3828 1506.0112,540.5322 Q1506.6587,540.6816 1507.2231,540.9805 L1507.2231,543.7031 Q1506.5923,543.1221 1505.9988,542.8523 Q1505.4053,542.5825 1504.7744,542.5825 Q1503.4297,542.5825 1502.7449,543.6492 Q1502.0601,544.7158 1502.0601,546.8159 Q1502.0601,548.9077 1502.7449,549.9744 Q1503.4297,551.041 1504.7744,551.041 Q1505.4053,551.041 1505.9988,550.7712 Q1506.5923,550.5015 1507.2231,549.9204 Z "/><text fill="#000000" font-family="sans-serif" font-size="12" lengthAdjust="spacingAndGlyphs" textLength="82" x="1525.25" y="551.0352">ClientXMLDTO</text><line style="stroke: #000000; stroke-width: 1.5;" x1="1422" x2="1678" y1="562.5" y2="562.5"/><text fill="#000000" font-family="sans-serif" font-size="11" lengthAdjust="spacingAndGlyphs" textLength="181" x="1427" y="577.1348">+Guid ClientId «get» «private set»</text><text fill="#000000" font-family="sans-serif" font-size="11" lengthAdjust="spacingAndGlyphs" textLength="172" x="1427" y="590.0898">+string Nom «get» «private set»</text><text fill="#000000" font-family="sans-serif" font-size="11" lengthAdjust="spacingAndGlyphs" textLength="188" x="1427" y="603.0449">+string Prenom «get» «private set»</text><text fill="#000000" font-family="sans-serif" font-size="11" lengthAdjust="spacingAndGlyphs" textLength="246" x="1427" y="616">+List&lt;Adresse&gt; Adresses «get» «private set»</text><line style="stroke: #000000; stroke-width: 1.5;" x1="1422" x2="1678" y1="622.3203" y2="622.3203"/><!--MD5=[2fc1a03e0ea9dd947f639b73d6756cfa]
class AdresseXMLDTO--><rect fill="#FFFFFF" filter="url(#f1fweqsatpboae)" height="151.6406" id="AdresseXMLDTO" style="stroke: #000000; stroke-width: 1.5;" width="276" x="1421" y="723"/><ellipse cx="1506.25" cy="739" fill="#ADD1B2" rx="11" ry="11" style="stroke: #000000; stroke-width: 1.0;"/><path d="M1508.7231,745.1431 Q1508.1421,745.4419 1507.5029,745.5913 Q1506.8638,745.7407 1506.1582,745.7407 Q1503.6514,745.7407 1502.3315,744.0889 Q1501.0117,742.437 1501.0117,739.3159 Q1501.0117,736.1865 1502.3315,734.5347 Q1503.6514,732.8828 1506.1582,732.8828 Q1506.8638,732.8828 1507.5112,733.0322 Q1508.1587,733.1816 1508.7231,733.4805 L1508.7231,736.2031 Q1508.0923,735.6221 1507.4988,735.3523 Q1506.9053,735.0825 1506.2744,735.0825 Q1504.9297,735.0825 1504.2449,736.1492 Q1503.5601,737.2158 1503.5601,739.3159 Q1503.5601,741.4077 1504.2449,742.4744 Q1504.9297,743.541 1506.2744,743.541 Q1506.9053,743.541 1507.4988,743.2712 Q1508.0923,743.0015 1508.7231,742.4204 Z "/><text fill="#000000" font-family="sans-serif" font-size="12" lengthAdjust="spacingAndGlyphs" textLength="97" x="1526.75" y="743.5352">AdresseXMLDTO</text><line style="stroke: #000000; stroke-width: 1.5;" x1="1422" x2="1696" y1="755" y2="755"/><text fill="#000000" font-family="sans-serif" font-size="11" lengthAdjust="spacingAndGlyphs" textLength="196" x="1427" y="769.6348">+NumeroCivique : string «get» «set»</text><text fill="#000000" font-family="sans-serif" font-size="11" lengthAdjust="spacingAndGlyphs" textLength="264" x="1427" y="782.5898">+InformationComplementaire : string «get» «set»</text><text fill="#000000" font-family="sans-serif" font-size="11" lengthAdjust="spacingAndGlyphs" textLength="165" x="1427" y="795.5449">+Odonyme : string «get» «set»</text><text fill="#000000" font-family="sans-serif" font-size="11" lengthAdjust="spacingAndGlyphs" textLength="162" x="1427" y="808.5">+TypeVoie : string «get» «set»</text><text fill="#000000" font-family="sans-serif" font-size="11" lengthAdjust="spacingAndGlyphs" textLength="173" x="1427" y="821.4551">+CodePostal : string «get» «set»</text><text fill="#000000" font-family="sans-serif" font-size="11" lengthAdjust="spacingAndGlyphs" textLength="202" x="1427" y="834.4102">+NomMunicipalite : string «get» «set»</text><text fill="#000000" font-family="sans-serif" font-size="11" lengthAdjust="spacingAndGlyphs" textLength="133" x="1427" y="847.3652">+Etat : string «get» «set»</text><text fill="#000000" font-family="sans-serif" font-size="11" lengthAdjust="spacingAndGlyphs" textLength="140" x="1427" y="860.3203">+Pays : string  «get» «set»</text><line style="stroke: #000000; stroke-width: 1.5;" x1="1422" x2="1696" y1="866.6406" y2="866.6406"/><!--MD5=[c7b422ec34d12d84443b82362095488f]
class ClientUIConsole--><rect fill="#FFFFFF" filter="url(#f1fweqsatpboae)" height="177.5508" id="ClientUIConsole" style="stroke: #000000; stroke-width: 1.5;" width="214" x="597" y="59"/><ellipse cx="655.75" cy="75" fill="#ADD1B2" rx="11" ry="11" style="stroke: #000000; stroke-width: 1.0;"/><path d="M658.2231,81.1431 Q657.6421,81.4419 657.0029,81.5913 Q656.3638,81.7407 655.6582,81.7407 Q653.1514,81.7407 651.8315,80.0889 Q650.5117,78.437 650.5117,75.3159 Q650.5117,72.1865 651.8315,70.5347 Q653.1514,68.8828 655.6582,68.8828 Q656.3638,68.8828 657.0112,69.0322 Q657.6587,69.1816 658.2231,69.4805 L658.2231,72.2031 Q657.5923,71.6221 656.9988,71.3523 Q656.4053,71.0825 655.7744,71.0825 Q654.4297,71.0825 653.7449,72.1492 Q653.0601,73.2158 653.0601,75.3159 Q653.0601,77.4077 653.7449,78.4744 Q654.4297,79.541 655.7744,79.541 Q656.4053,79.541 656.9988,79.2712 Q657.5923,79.0015 658.2231,78.4204 Z "/><text fill="#000000" font-family="sans-serif" font-size="12" lengthAdjust="spacingAndGlyphs" textLength="88" x="676.25" y="79.5352">ClientUIConsole</text><line style="stroke: #000000; stroke-width: 1.5;" x1="598" x2="810" y1="91" y2="91"/><text fill="#000000" font-family="sans-serif" font-size="11" lengthAdjust="spacingAndGlyphs" textLength="159" x="603" y="105.6348">-m_depotClient : IDepotClient</text><line style="stroke: #000000; stroke-width: 1.5;" x1="598" x2="810" y1="111.9551" y2="111.9551"/><text fill="#000000" font-family="sans-serif" font-size="11" lengthAdjust="spacingAndGlyphs" textLength="189" x="603" y="126.5898">+ctor(p_depotClient : IDepotClient)</text><text fill="#000000" font-family="sans-serif" font-size="11" lengthAdjust="spacingAndGlyphs" textLength="89" x="603" y="139.5449">+AfficherMenu()</text><text fill="#000000" font-family="sans-serif" font-size="11" lengthAdjust="spacingAndGlyphs" textLength="130" x="603" y="152.5">+SaisirChoixMenu() : int</text><text fill="#000000" font-family="sans-serif" font-size="11" lengthAdjust="spacingAndGlyphs" textLength="75" x="603" y="165.4551">+ExecuterUI()</text><text fill="#000000" font-family="sans-serif" font-size="11" lengthAdjust="spacingAndGlyphs" textLength="187" x="603" y="178.4102">+SaisirClientAvecAdresse() : Client</text><text fill="#000000" font-family="sans-serif" font-size="11" lengthAdjust="spacingAndGlyphs" textLength="170" x="603" y="191.3652">+AfficherClient(p_client: Client)</text><text fill="#000000" font-family="sans-serif" font-size="11" lengthAdjust="spacingAndGlyphs" textLength="189" x="603" y="204.3203">+RechercherEtAfficherClientParId()</text><text fill="#000000" font-family="sans-serif" font-size="11" lengthAdjust="spacingAndGlyphs" textLength="137" x="603" y="217.2754">+ListerEtAfficherClients()</text><text fill="#000000" font-family="sans-serif" font-size="11" lengthAdjust="spacingAndGlyphs" textLength="202" x="603" y="230.2305">-GenererAdresseAleatoire() : Adresse</text><!--MD5=[1b0c2915387634bf4e789c113c92d827]
class TraitementLot--><rect fill="#FFFFFF" filter="url(#f1fweqsatpboae)" height="60.9551" id="TraitementLot" style="stroke: #000000; stroke-width: 1.5;" width="112" x="1369" y="117.5"/><ellipse cx="1384" cy="133.5" fill="#B4A7E5" rx="11" ry="11" style="stroke: #000000; stroke-width: 1.0;"/><path d="M1380.4277,129.7651 L1380.4277,127.6069 L1387.8071,127.6069 L1387.8071,129.7651 L1385.3418,129.7651 L1385.3418,137.8418 L1387.8071,137.8418 L1387.8071,140 L1380.4277,140 L1380.4277,137.8418 L1382.8931,137.8418 L1382.8931,129.7651 Z "/><text fill="#000000" font-family="sans-serif" font-size="12" font-style="italic" lengthAdjust="spacingAndGlyphs" textLength="80" x="1398" y="138.0352">TraitementLot</text><line style="stroke: #000000; stroke-width: 1.5;" x1="1370" x2="1480" y1="149.5" y2="149.5"/><line style="stroke: #000000; stroke-width: 1.5;" x1="1370" x2="1480" y1="157.5" y2="157.5"/><text fill="#000000" font-family="sans-serif" font-size="11" lengthAdjust="spacingAndGlyphs" textLength="64" x="1375" y="172.1348">+Executer()</text><!--MD5=[c5358331cf8ae063edd27af746f4a17e]
class ModifierNomPrenomPremiereLettreMajusculesTraitementLot--><rect fill="#FFFFFF" filter="url(#f1fweqsatpboae)" height="60.9551" id="ModifierNomPrenomPremiereLettreMajusculesTraitementLot" style="stroke: #000000; stroke-width: 1.5;" width="378" x="1042" y="344.5"/><ellipse cx="1057" cy="360.5" fill="#ADD1B2" rx="11" ry="11" style="stroke: #000000; stroke-width: 1.0;"/><path d="M1059.4731,366.6431 Q1058.8921,366.9419 1058.2529,367.0913 Q1057.6138,367.2407 1056.9082,367.2407 Q1054.4014,367.2407 1053.0815,365.5889 Q1051.7617,363.937 1051.7617,360.8159 Q1051.7617,357.6865 1053.0815,356.0347 Q1054.4014,354.3828 1056.9082,354.3828 Q1057.6138,354.3828 1058.2612,354.5322 Q1058.9087,354.6816 1059.4731,354.9805 L1059.4731,357.7031 Q1058.8423,357.1221 1058.2488,356.8523 Q1057.6553,356.5825 1057.0244,356.5825 Q1055.6797,356.5825 1054.9949,357.6492 Q1054.3101,358.7158 1054.3101,360.8159 Q1054.3101,362.9077 1054.9949,363.9744 Q1055.6797,365.041 1057.0244,365.041 Q1057.6553,365.041 1058.2488,364.7712 Q1058.8423,364.5015 1059.4731,363.9204 Z "/><text fill="#000000" font-family="sans-serif" font-size="12" lengthAdjust="spacingAndGlyphs" textLength="346" x="1071" y="365.0352">ModifierNomPrenomPremiereLettreMajusculesTraitementLot</text><line style="stroke: #000000; stroke-width: 1.5;" x1="1043" x2="1419" y1="376.5" y2="376.5"/><line style="stroke: #000000; stroke-width: 1.5;" x1="1043" x2="1419" y1="384.5" y2="384.5"/><text fill="#000000" font-family="sans-serif" font-size="11" lengthAdjust="spacingAndGlyphs" textLength="64" x="1048" y="399.1348">+Executer()</text><!--MD5=[2557689795cb60e02edc0ab7a85cd841]
class ModifierPaysMajusculesClientsTraitementLot--><rect fill="#FFFFFF" filter="url(#f1fweqsatpboae)" height="60.9551" id="ModifierPaysMajusculesClientsTraitementLot" style="stroke: #000000; stroke-width: 1.5;" width="286" x="1476" y="344.5"/><ellipse cx="1491" cy="360.5" fill="#ADD1B2" rx="11" ry="11" style="stroke: #000000; stroke-width: 1.0;"/><path d="M1493.4731,366.6431 Q1492.8921,366.9419 1492.2529,367.0913 Q1491.6138,367.2407 1490.9082,367.2407 Q1488.4014,367.2407 1487.0815,365.5889 Q1485.7617,363.937 1485.7617,360.8159 Q1485.7617,357.6865 1487.0815,356.0347 Q1488.4014,354.3828 1490.9082,354.3828 Q1491.6138,354.3828 1492.2612,354.5322 Q1492.9087,354.6816 1493.4731,354.9805 L1493.4731,357.7031 Q1492.8423,357.1221 1492.2488,356.8523 Q1491.6553,356.5825 1491.0244,356.5825 Q1489.6797,356.5825 1488.9949,357.6492 Q1488.3101,358.7158 1488.3101,360.8159 Q1488.3101,362.9077 1488.9949,363.9744 Q1489.6797,365.041 1491.0244,365.041 Q1491.6553,365.041 1492.2488,364.7712 Q1492.8423,364.5015 1493.4731,363.9204 Z "/><text fill="#000000" font-family="sans-serif" font-size="12" lengthAdjust="spacingAndGlyphs" textLength="254" x="1505" y="365.0352">ModifierPaysMajusculesClientsTraitementLot</text><line style="stroke: #000000; stroke-width: 1.5;" x1="1477" x2="1761" y1="376.5" y2="376.5"/><line style="stroke: #000000; stroke-width: 1.5;" x1="1477" x2="1761" y1="384.5" y2="384.5"/><text fill="#000000" font-family="sans-serif" font-size="11" lengthAdjust="spacingAndGlyphs" textLength="64" x="1482" y="399.1348">+Executer()</text><!--MD5=[73af334925bb211206659973f4e1ab45]
link Client to Adresse--><path d="M302,438.16 C302,455.36 302,474.35 302,492.68 " fill="none" id="Client-&gt;Adresse" style="stroke: #A80036; stroke-width: 1.0;"/><polygon fill="#A80036" points="302,497.83,306,488.83,302,492.83,298,488.83,302,497.83" style="stroke: #A80036; stroke-width: 1.0;"/><text fill="#000000" font-family="sans-serif" font-size="13" lengthAdjust="spacingAndGlyphs" textLength="8" x="293.5625" y="458.4885">1</text><text fill="#000000" font-family="sans-serif" font-size="13" lengthAdjust="spacingAndGlyphs" textLength="6" x="295.7234" y="487.1188">*</text><!--MD5=[19adfe3b24a6c19873fa55b195191611]
reverse link IDepotClients to DepotClientsJSON--><path d="M827.38,393.99 C917.27,410.29 1040.27,439.3 1140,487.5 C1163.28,498.75 1186.47,514.87 1206.23,530.49 " fill="none" id="IDepotClients&lt;-DepotClientsJSON" style="stroke: #A80036; stroke-width: 1.0; stroke-dasharray: 7.0,7.0;"/><polygon fill="none" points="826.06,400.87,807.57,390.51,828.48,387.08,826.06,400.87" style="stroke: #A80036; stroke-width: 1.0;"/><!--MD5=[4b0760f767d69bab286038c1723b5b54]
link ClientJSONDTO to AdresseJSONDTO--><path d="M995.04,630.63 C996.11,656.34 997.45,688.47 998.66,717.68 " fill="none" id="ClientJSONDTO-&gt;AdresseJSONDTO" style="stroke: #A80036; stroke-width: 1.0;"/><polygon fill="#A80036" points="998.87,722.72,1002.481,713.557,998.6559,717.7246,994.4883,713.8995,998.87,722.72" style="stroke: #A80036; stroke-width: 1.0;"/><text fill="#000000" font-family="sans-serif" font-size="13" lengthAdjust="spacingAndGlyphs" textLength="8" x="986.7766" y="650.9753">1</text><text fill="#000000" font-family="sans-serif" font-size="13" lengthAdjust="spacingAndGlyphs" textLength="6" x="992.2857" y="712.335">*</text><!--MD5=[d761bc3755c2fedbb7239219a6f31ce4]
reverse link IDepotClients to DepotClientsXML--><path d="M827.27,403.23 C887.01,415.53 959.96,429.24 1026,438 C1174.22,457.67 1557.17,434.57 1697,487.5 C1722.3,497.08 1746.74,513.73 1766.95,530.26 " fill="none" id="IDepotClients&lt;-DepotClientsXML" style="stroke: #A80036; stroke-width: 1.0; stroke-dasharray: 7.0,7.0;"/><polygon fill="none" points="825.7,410.05,807.55,399.12,828.55,396.35,825.7,410.05" style="stroke: #A80036; stroke-width: 1.0;"/><!--MD5=[2f7f2991185c7259beaf81b9c8660cfb]
link ClientXMLDTO to AdresseXMLDTO--><path d="M1552.04,630.63 C1553.11,656.34 1554.45,688.47 1555.66,717.68 " fill="none" id="ClientXMLDTO-&gt;AdresseXMLDTO" style="stroke: #A80036; stroke-width: 1.0;"/><polygon fill="#A80036" points="1555.87,722.72,1559.481,713.557,1555.6559,717.7246,1551.4883,713.8995,1555.87,722.72" style="stroke: #A80036; stroke-width: 1.0;"/><text fill="#000000" font-family="sans-serif" font-size="13" lengthAdjust="spacingAndGlyphs" textLength="8" x="1543.7766" y="650.9753">1</text><text fill="#000000" font-family="sans-serif" font-size="13" lengthAdjust="spacingAndGlyphs" textLength="6" x="1549.2857" y="712.335">*</text><!--MD5=[bccde14c5578bf5b5ec93606ed33c2c0]
link ClientUIConsole to IDepotClients--><path d="M704,237.28 C704,265.1 704,294.98 704,319.7 " fill="none" id="ClientUIConsole-&gt;IDepotClients" style="stroke: #A80036; stroke-width: 1.0;"/><polygon fill="#A80036" points="704,324.89,708,315.89,704,319.89,700,315.89,704,324.89" style="stroke: #A80036; stroke-width: 1.0;"/><text fill="#000000" font-family="sans-serif" font-size="13" lengthAdjust="spacingAndGlyphs" textLength="8" x="695.7063" y="256.9835">1</text><text fill="#000000" font-family="sans-serif" font-size="13" lengthAdjust="spacingAndGlyphs" textLength="8" x="695.4375" y="314.3914">1</text><!--MD5=[28ed4f9fcff8ce5627929d7049e40cdf]
reverse link TraitementLot to ModifierNomPrenomPremiereLettreMajusculesTraitementLot--><path d="M1385.99,194.24 C1347.45,238.95 1289.6,306.04 1256.56,344.36 " fill="none" id="TraitementLot&lt;-ModifierNomPrenomPremiereLettreMajusculesTraitementLot" style="stroke: #A80036; stroke-width: 1.0; stroke-dasharray: 7.0,7.0;"/><polygon fill="none" points="1380.88,189.45,1399.24,178.88,1391.48,198.6,1380.88,189.45" style="stroke: #A80036; stroke-width: 1.0;"/><!--MD5=[0841bdc90cc678eaa03027aa0fbba90a]
reverse link TraitementLot to ModifierPaysMajusculesClientsTraitementLot--><path d="M1464.01,194.24 C1502.55,238.95 1560.4,306.04 1593.44,344.36 " fill="none" id="TraitementLot&lt;-ModifierPaysMajusculesClientsTraitementLot" style="stroke: #A80036; stroke-width: 1.0; stroke-dasharray: 7.0,7.0;"/><polygon fill="none" points="1458.52,198.6,1450.76,178.88,1469.12,189.45,1458.52,198.6" style="stroke: #A80036; stroke-width: 1.0;"/><!--MD5=[373c26ac94d238c0ad6ed8bb25c3d0a1]
@startuml DiagClassesClients

skinparam classAttributeIconSize 0
skinparam class {
    BackgroundColor White
    BorderColor #000
}


package Entites {
    Client "1" - -> "*" Adresse

    class Client {
        + ctor(p_clientId : Guid, p_nom : string, p_prenom : string, p_adresses : IEnumerable<Adresse>)
        + Guid ClientId <<get>> <<private set>>
        + string Nom <<get>> <<private set>>
        + string Prenom <<get>> <<private set>>
        + List<Adresse> Adresses <<get>> <<private set>>
        + AjouterModifierAdresse(p_adresse : Adresse)
    }

    class Adresse {
        + Guid AdresseId <<get>> <<private set>>
        + NumeroCivique : string <<get>> <<set>>
        + InformationComplementaire : string <<get>> <<set>>
        + Odonyme : string <<get>> <<set>>
        + TypeVoie : string <<get>> <<set>>
        + CodePostal : string <<get>> <<set>>
        + NomMunicipalite : string <<get>> <<set>>
        + Etat : string <<get>> <<set>>
        + Pays : string  <<get>> <<set>>
    }

    interface IDepotClients {
        + AjouterClient(p_client : Client)
        + ListerClients() : List<Client>
        + RechercherClient(p_clientId : Guid)
        + ModifierClient(p_client : Client)
    }
}

package CoucheAccesDonnees.JSON {
    IDepotClients <|.. DepotClientsJSON
    ClientJSONDTO "1" - -> "*" AdresseJSONDTO

    class ClientJSONDTO {
        + Guid ClientId <<get>> <<private set>>
        + string Nom <<get>> <<private set>>
        + string Prenom <<get>> <<private set>>
        + List<Adresse> Adresses <<get>> <<private set>>
    }

    class AdresseJSONDTO {
        + NumeroCivique : string <<get>> <<set>>
        + InformationComplementaire : string <<get>> <<set>>
        + Odonyme : string <<get>> <<set>>
        + TypeVoie : string <<get>> <<set>>
        + CodePostal : string <<get>> <<set>>
        + NomMunicipalite : string <<get>> <<set>>
        + Etat : string <<get>> <<set>>
        + Pays : string  <<get>> <<set>>
    }

    class DepotClientsJSON {
        + AjouterClient(p_client : Client)
        + ListerClients() : List<Client>
        + RechercherClient(p_clientId : Guid)
        + ModifierClient(p_client : Client)
    }
}

package CoucheAccesDonnees.XML {
    IDepotClients <|.. DepotClientsXML
    ClientXMLDTO "1" - -> "*" AdresseXMLDTO

    class ClientXMLDTO {
        + Guid ClientId <<get>> <<private set>>
        + string Nom <<get>> <<private set>>
        + string Prenom <<get>> <<private set>>
        + List<Adresse> Adresses <<get>> <<private set>>
    }

    class DepotClientsXML {
        + AjouterClient(p_client : Client)
        + ListerClients() : List<Client>
        + RechercherClient(p_clientId : Guid)
        + ModifierClient(p_client : Client)
    }

    class AdresseXMLDTO {
        + NumeroCivique : string <<get>> <<set>>
        + InformationComplementaire : string <<get>> <<set>>
        + Odonyme : string <<get>> <<set>>
        + TypeVoie : string <<get>> <<set>>
        + CodePostal : string <<get>> <<set>>
        + NomMunicipalite : string <<get>> <<set>>
        + Etat : string <<get>> <<set>>
        + Pays : string  <<get>> <<set>>
    }
}

package Application {
    ClientUIConsole "1" - -> "1" IDepotClients

    class ClientUIConsole {
        - m_depotClient : IDepotClient
        + ctor(p_depotClient : IDepotClient)
        + AfficherMenu()
        + SaisirChoixMenu() : int
        + ExecuterUI()
        + SaisirClientAvecAdresse() : Client
        + AfficherClient(p_client: Client)
        + RechercherEtAfficherClientParId()
        + ListerEtAfficherClients()
        - GenererAdresseAleatoire() : Adresse
    }
}

package TraitementsLots {
    interface TraitementLot {
        + Executer()
    }
}

package TraitementsLots.ModifierNomPrenomPremiereLettreMajuscules {
    TraitementLot <|.. ModifierNomPrenomPremiereLettreMajusculesTraitementLot

    class ModifierNomPrenomPremiereLettreMajusculesTraitementLot {
        + Executer()
    }
}

package TraitementsLots.ModifierPaysMajusculesClients {
    TraitementLot <|.. ModifierPaysMajusculesClientsTraitementLot

    class ModifierPaysMajusculesClientsTraitementLot {
        + Executer()
    }
}

' TraitementsLots <.. TraitementsLots.ModifierNomPrenomPremiereLettreMajuscules
' TraitementsLots <.. TraitementsLots.ModifierPaysMajusculesClients

' Entites <.. CoucheAccesDonnees.JSON
' Entites <.. CoucheAccesDonnees.XML
' Entites <.. Application
' Entites <.. TraitementsLots

@enduml

@startuml DiagClassesClients

skinparam classAttributeIconSize 0
skinparam class {
    BackgroundColor White
    BorderColor #000
}


package Entites {
    Client "1" - -> "*" Adresse

    class Client {
        + ctor(p_clientId : Guid, p_nom : string, p_prenom : string, p_adresses : IEnumerable<Adresse>)
        + Guid ClientId <<get>> <<private set>>
        + string Nom <<get>> <<private set>>
        + string Prenom <<get>> <<private set>>
        + List<Adresse> Adresses <<get>> <<private set>>
        + AjouterModifierAdresse(p_adresse : Adresse)
    }

    class Adresse {
        + Guid AdresseId <<get>> <<private set>>
        + NumeroCivique : string <<get>> <<set>>
        + InformationComplementaire : string <<get>> <<set>>
        + Odonyme : string <<get>> <<set>>
        + TypeVoie : string <<get>> <<set>>
        + CodePostal : string <<get>> <<set>>
        + NomMunicipalite : string <<get>> <<set>>
        + Etat : string <<get>> <<set>>
        + Pays : string  <<get>> <<set>>
    }

    interface IDepotClients {
        + AjouterClient(p_client : Client)
        + ListerClients() : List<Client>
        + RechercherClient(p_clientId : Guid)
        + ModifierClient(p_client : Client)
    }
}

package CoucheAccesDonnees.JSON {
    IDepotClients <|.. DepotClientsJSON
    ClientJSONDTO "1" - -> "*" AdresseJSONDTO

    class ClientJSONDTO {
        + Guid ClientId <<get>> <<private set>>
        + string Nom <<get>> <<private set>>
        + string Prenom <<get>> <<private set>>
        + List<Adresse> Adresses <<get>> <<private set>>
    }

    class AdresseJSONDTO {
        + NumeroCivique : string <<get>> <<set>>
        + InformationComplementaire : string <<get>> <<set>>
        + Odonyme : string <<get>> <<set>>
        + TypeVoie : string <<get>> <<set>>
        + CodePostal : string <<get>> <<set>>
        + NomMunicipalite : string <<get>> <<set>>
        + Etat : string <<get>> <<set>>
        + Pays : string  <<get>> <<set>>
    }

    class DepotClientsJSON {
        + AjouterClient(p_client : Client)
        + ListerClients() : List<Client>
        + RechercherClient(p_clientId : Guid)
        + ModifierClient(p_client : Client)
    }
}

package CoucheAccesDonnees.XML {
    IDepotClients <|.. DepotClientsXML
    ClientXMLDTO "1" - -> "*" AdresseXMLDTO

    class ClientXMLDTO {
        + Guid ClientId <<get>> <<private set>>
        + string Nom <<get>> <<private set>>
        + string Prenom <<get>> <<private set>>
        + List<Adresse> Adresses <<get>> <<private set>>
    }

    class DepotClientsXML {
        + AjouterClient(p_client : Client)
        + ListerClients() : List<Client>
        + RechercherClient(p_clientId : Guid)
        + ModifierClient(p_client : Client)
    }

    class AdresseXMLDTO {
        + NumeroCivique : string <<get>> <<set>>
        + InformationComplementaire : string <<get>> <<set>>
        + Odonyme : string <<get>> <<set>>
        + TypeVoie : string <<get>> <<set>>
        + CodePostal : string <<get>> <<set>>
        + NomMunicipalite : string <<get>> <<set>>
        + Etat : string <<get>> <<set>>
        + Pays : string  <<get>> <<set>>
    }
}

package Application {
    ClientUIConsole "1" - -> "1" IDepotClients

    class ClientUIConsole {
        - m_depotClient : IDepotClient
        + ctor(p_depotClient : IDepotClient)
        + AfficherMenu()
        + SaisirChoixMenu() : int
        + ExecuterUI()
        + SaisirClientAvecAdresse() : Client
        + AfficherClient(p_client: Client)
        + RechercherEtAfficherClientParId()
        + ListerEtAfficherClients()
        - GenererAdresseAleatoire() : Adresse
    }
}

package TraitementsLots {
    interface TraitementLot {
        + Executer()
    }
}

package TraitementsLots.ModifierNomPrenomPremiereLettreMajuscules {
    TraitementLot <|.. ModifierNomPrenomPremiereLettreMajusculesTraitementLot

    class ModifierNomPrenomPremiereLettreMajusculesTraitementLot {
        + Executer()
    }
}

package TraitementsLots.ModifierPaysMajusculesClients {
    TraitementLot <|.. ModifierPaysMajusculesClientsTraitementLot

    class ModifierPaysMajusculesClientsTraitementLot {
        + Executer()
    }
}



@enduml

PlantUML version 1.2020.10(Sun May 17 05:35:57 EDT 2020)
(GPL source distribution)
Java Runtime: OpenJDK Runtime Environment
JVM: OpenJDK 64-Bit Server VM
Java Version: 13.0.2+8
Operating System: Mac OS X
Default Encoding: UTF-8
Language: fr
Country: CA
--></g></svg>