<?xml version="1.0" encoding="UTF-8" standalone="no"?><svg xmlns="http://www.w3.org/2000/svg" xmlns:xlink="http://www.w3.org/1999/xlink" contentScriptType="application/ecmascript" contentStyleType="text/css" height="931px" preserveAspectRatio="none" style="width:1869px;height:931px;background:#FFFFFF;" version="1.1" viewBox="0 0 1869 931" width="1869px" zoomAndPan="magnify"><defs><filter height="300%" id="f12ztd86t9lrjo" width="300%" x="-1" y="-1"><feGaussianBlur result="blurOut" stdDeviation="2.0"/><feColorMatrix in="blurOut" result="blurOut2" type="matrix" values="0 0 0 0 0 0 0 0 0 0 0 0 0 0 0 0 0 0 .4 0"/><feOffset dx="4.0" dy="4.0" in="blurOut2" result="blurOut3"/><feBlend in="SourceGraphic" in2="blurOut3" mode="normal"/></filter></defs><g><!--MD5=[5874d566586a6ddbc1a6cc88fa7772b4]
cluster Entites--><polygon fill="#FFFFFF" filter="url(#f12ztd86t9lrjo)" points="16,259,72,259,79,281.4883,818,281.4883,818,661,16,661,16,259" style="stroke:#000000;stroke-width:1.5;"/><line style="stroke:#000000;stroke-width:1.5;" x1="16" x2="79" y1="281.4883" y2="281.4883"/><text fill="#000000" font-family="sans-serif" font-size="14" font-weight="bold" lengthAdjust="spacing" textLength="50" x="20" y="274.5352">Entites</text><!--MD5=[58411e8cd7c7842c91d66565eae2e7e4]
cluster CoucheAccesDonnees.JSON--><polygon fill="#FFFFFF" filter="url(#f12ztd86t9lrjo)" points="842,458,1042,458,1049,480.4883,1335,480.4883,1335,924,842,924,842,458" style="stroke:#000000;stroke-width:1.5;"/><line style="stroke:#000000;stroke-width:1.5;" x1="842" x2="1049" y1="480.4883" y2="480.4883"/><text fill="#000000" font-family="sans-serif" font-size="14" font-weight="bold" lengthAdjust="spacing" textLength="194" x="846" y="473.5352">CoucheAccesDonnees.JSON</text><!--MD5=[1cee548357feb363aeb26581c5830677]
cluster CoucheAccesDonnees.XML--><polygon fill="#FFFFFF" filter="url(#f12ztd86t9lrjo)" points="1359,458,1552,458,1559,480.4883,1852,480.4883,1852,924,1359,924,1359,458" style="stroke:#000000;stroke-width:1.5;"/><line style="stroke:#000000;stroke-width:1.5;" x1="1359" x2="1559" y1="480.4883" y2="480.4883"/><text fill="#000000" font-family="sans-serif" font-size="14" font-weight="bold" lengthAdjust="spacing" textLength="187" x="1363" y="473.5352">CoucheAccesDonnees.XML</text><!--MD5=[d64883541e3d62e3241c4d12decf100d]
cluster Application--><polygon fill="#FFFFFF" filter="url(#f12ztd86t9lrjo)" points="575,6,663,6,670,28.4883,821,28.4883,821,235,575,235,575,6" style="stroke:#000000;stroke-width:1.5;"/><line style="stroke:#000000;stroke-width:1.5;" x1="575" x2="670" y1="28.4883" y2="28.4883"/><text fill="#000000" font-family="sans-serif" font-size="14" font-weight="bold" lengthAdjust="spacing" textLength="82" x="579" y="21.5352">Application</text><!--MD5=[cc516cdafd18f5166a12d2815e229259]
cluster TraitementsLots--><polygon fill="#FFFFFF" filter="url(#f12ztd86t9lrjo)" points="1307,64.5,1432,64.5,1439,86.9883,1451,86.9883,1451,176.5,1307,176.5,1307,64.5" style="stroke:#000000;stroke-width:1.5;"/><line style="stroke:#000000;stroke-width:1.5;" x1="1307" x2="1439" y1="86.9883" y2="86.9883"/><text fill="#000000" font-family="sans-serif" font-size="14" font-weight="bold" lengthAdjust="spacing" textLength="119" x="1311" y="80.0352">TraitementsLots</text><!--MD5=[7f08c26b5c13ad971a2d66368e006df8]
cluster TraitementsLots.ModifierNomPrenomPremiereLettreMajuscules--><polygon fill="#FFFFFF" filter="url(#f12ztd86t9lrjo)" points="916,291.5,1380,291.5,1387,313.9883,1390,313.9883,1390,403.5,916,403.5,916,291.5" style="stroke:#000000;stroke-width:1.5;"/><line style="stroke:#000000;stroke-width:1.5;" x1="916" x2="1387" y1="313.9883" y2="313.9883"/><text fill="#000000" font-family="sans-serif" font-size="14" font-weight="bold" lengthAdjust="spacing" textLength="458" x="920" y="307.0352">TraitementsLots.ModifierNomPrenomPremiereLettreMajuscules</text><!--MD5=[b67bd2e63e36cb1685839f263e4a745c]
cluster TraitementsLots.ModifierPaysMajusculesClients--><polygon fill="#FFFFFF" filter="url(#f12ztd86t9lrjo)" points="1414,291.5,1767,291.5,1774,313.9883,1777,313.9883,1777,403.5,1414,403.5,1414,291.5" style="stroke:#000000;stroke-width:1.5;"/><line style="stroke:#000000;stroke-width:1.5;" x1="1414" x2="1774" y1="313.9883" y2="313.9883"/><text fill="#000000" font-family="sans-serif" font-size="14" font-weight="bold" lengthAdjust="spacing" textLength="347" x="1418" y="307.0352">TraitementsLots.ModifierPaysMajusculesClients</text><!--MD5=[ed6624c6556d5e7b1bd23032162d20b7]
class Client--><rect codeLine="12" fill="#FFFFFF" filter="url(#f12ztd86t9lrjo)" height="125.7305" id="Client" style="stroke:#000000;stroke-width:1.5;" width="527" x="32.5" y="294"/><ellipse cx="275.75" cy="310" fill="#ADD1B2" rx="11" ry="11" style="stroke:#000000;stroke-width:1.0;"/><path d="M278.2231,316.1431 Q277.6421,316.4419 277.0029,316.5913 Q276.3638,316.7407 275.6582,316.7407 Q273.1514,316.7407 271.8315,315.0889 Q270.5117,313.437 270.5117,310.3159 Q270.5117,307.1865 271.8315,305.5347 Q273.1514,303.8828 275.6582,303.8828 Q276.3638,303.8828 277.0112,304.0322 Q277.6587,304.1816 278.2231,304.4805 L278.2231,307.2031 Q277.5923,306.6221 276.9988,306.3523 Q276.4053,306.0825 275.7744,306.0825 Q274.4297,306.0825 273.7449,307.1492 Q273.0601,308.2158 273.0601,310.3159 Q273.0601,312.4077 273.7449,313.4744 Q274.4297,314.541 275.7744,314.541 Q276.4053,314.541 276.9988,314.2712 Q277.5923,314.0015 278.2231,313.4204 Z " fill="#000000"/><text fill="#000000" font-family="sans-serif" font-size="12" lengthAdjust="spacing" textLength="32" x="296.25" y="314.5352">Client</text><line style="stroke:#000000;stroke-width:1.5;" x1="33.5" x2="558.5" y1="326" y2="326"/><text fill="#000000" font-family="sans-serif" font-size="11" lengthAdjust="spacing" textLength="181" x="38.5" y="340.6348">+Guid ClientId «get» «private set»</text><text fill="#000000" font-family="sans-serif" font-size="11" lengthAdjust="spacing" textLength="172" x="38.5" y="353.5898">+string Nom «get» «private set»</text><text fill="#000000" font-family="sans-serif" font-size="11" lengthAdjust="spacing" textLength="188" x="38.5" y="366.5449">+string Prenom «get» «private set»</text><text fill="#000000" font-family="sans-serif" font-size="11" lengthAdjust="spacing" textLength="246" x="38.5" y="379.5">+List&lt;Adresse&gt; Adresses «get» «private set»</text><line style="stroke:#000000;stroke-width:1.5;" x1="33.5" x2="558.5" y1="385.8203" y2="385.8203"/><text fill="#000000" font-family="sans-serif" font-size="11" lengthAdjust="spacing" textLength="515" x="38.5" y="400.4551">+ctor(p_clientId : Guid, p_nom : string, p_prenom : string, p_adresses : IEnumerable&lt;Adresse&gt;)</text><text fill="#000000" font-family="sans-serif" font-size="11" lengthAdjust="spacing" textLength="253" x="38.5" y="413.4102">+AjouterModifierAdresse(p_adresse : Adresse)</text><!--MD5=[70c811998a0d7544d2536fae1accd5d3]
class Adresse--><rect codeLine="21" fill="#FFFFFF" filter="url(#f12ztd86t9lrjo)" height="164.5957" id="Adresse" style="stroke:#000000;stroke-width:1.5;" width="316" x="138" y="480"/><ellipse cx="268.25" cy="496" fill="#ADD1B2" rx="11" ry="11" style="stroke:#000000;stroke-width:1.0;"/><path d="M270.7231,502.1431 Q270.1421,502.4419 269.5029,502.5913 Q268.8638,502.7407 268.1582,502.7407 Q265.6514,502.7407 264.3315,501.0889 Q263.0117,499.437 263.0117,496.3159 Q263.0117,493.1865 264.3315,491.5347 Q265.6514,489.8828 268.1582,489.8828 Q268.8638,489.8828 269.5112,490.0322 Q270.1587,490.1816 270.7231,490.4805 L270.7231,493.2031 Q270.0923,492.6221 269.4988,492.3523 Q268.9053,492.0825 268.2744,492.0825 Q266.9297,492.0825 266.2449,493.1492 Q265.5601,494.2158 265.5601,496.3159 Q265.5601,498.4077 266.2449,499.4744 Q266.9297,500.541 268.2744,500.541 Q268.9053,500.541 269.4988,500.2712 Q270.0923,500.0015 270.7231,499.4204 Z " fill="#000000"/><text fill="#000000" font-family="sans-serif" font-size="12" lengthAdjust="spacing" textLength="47" x="288.75" y="500.5352">Adresse</text><line style="stroke:#000000;stroke-width:1.5;" x1="139" x2="453" y1="512" y2="512"/><text fill="#000000" font-family="sans-serif" font-size="11" lengthAdjust="spacing" textLength="194" x="144" y="526.6348">+Guid AdresseId «get» «private set»</text><text fill="#000000" font-family="sans-serif" font-size="11" lengthAdjust="spacing" textLength="236" x="144" y="539.5898">+NumeroCivique : string «get» «private set»</text><text fill="#000000" font-family="sans-serif" font-size="11" lengthAdjust="spacing" textLength="304" x="144" y="552.5449">+InformationComplementaire : string «get» «private set»</text><text fill="#000000" font-family="sans-serif" font-size="11" lengthAdjust="spacing" textLength="205" x="144" y="565.5">+Odonyme : string «get» «private set»</text><text fill="#000000" font-family="sans-serif" font-size="11" lengthAdjust="spacing" textLength="202" x="144" y="578.4551">+TypeVoie : string «get» «private set»</text><text fill="#000000" font-family="sans-serif" font-size="11" lengthAdjust="spacing" textLength="213" x="144" y="591.4102">+CodePostal : string «get» «private set»</text><text fill="#000000" font-family="sans-serif" font-size="11" lengthAdjust="spacing" textLength="242" x="144" y="604.3652">+NomMunicipalite : string «get» «private set»</text><text fill="#000000" font-family="sans-serif" font-size="11" lengthAdjust="spacing" textLength="173" x="144" y="617.3203">+Etat : string «get» «private set»</text><text fill="#000000" font-family="sans-serif" font-size="11" lengthAdjust="spacing" textLength="180" x="144" y="630.2754">+Pays : string  «get» «private set»</text><line style="stroke:#000000;stroke-width:1.5;" x1="139" x2="453" y1="636.5957" y2="636.5957"/><!--MD5=[ab2a9c778be45ce09f2dd240b46c09a9]
class IDepotClients--><rect codeLine="33" fill="#FFFFFF" filter="url(#f12ztd86t9lrjo)" height="99.8203" id="IDepotClients" style="stroke:#000000;stroke-width:1.5;" width="207" x="594.5" y="307"/><ellipse cx="655.75" cy="323" fill="#B4A7E5" rx="11" ry="11" style="stroke:#000000;stroke-width:1.0;"/><path d="M652.1777,319.2651 L652.1777,317.1069 L659.5571,317.1069 L659.5571,319.2651 L657.0918,319.2651 L657.0918,327.3418 L659.5571,327.3418 L659.5571,329.5 L652.1777,329.5 L652.1777,327.3418 L654.6431,327.3418 L654.6431,319.2651 Z " fill="#000000"/><text fill="#000000" font-family="sans-serif" font-size="12" font-style="italic" lengthAdjust="spacing" textLength="76" x="676.25" y="327.5352">IDepotClients</text><line style="stroke:#000000;stroke-width:1.5;" x1="595.5" x2="800.5" y1="339" y2="339"/><line style="stroke:#000000;stroke-width:1.5;" x1="595.5" x2="800.5" y1="347" y2="347"/><text fill="#000000" font-family="sans-serif" font-size="11" lengthAdjust="spacing" textLength="170" x="600.5" y="361.6348">+AjouterClient(p_client : Client)</text><text fill="#000000" font-family="sans-serif" font-size="11" lengthAdjust="spacing" textLength="161" x="600.5" y="374.5898">+ListerClients() : List&lt;Client&gt;</text><text fill="#000000" font-family="sans-serif" font-size="11" lengthAdjust="spacing" textLength="195" x="600.5" y="387.5449">+RechercherClient(p_clientId : Guid)</text><text fill="#000000" font-family="sans-serif" font-size="11" lengthAdjust="spacing" textLength="174" x="600.5" y="400.5">+ModifierClient(p_client : Client)</text><!--MD5=[381a50664acc2610a3131cd21e751d0c]
class DepotClientsJSON--><rect codeLine="70" fill="#FFFFFF" filter="url(#f12ztd86t9lrjo)" height="99.8203" id="DepotClientsJSON" style="stroke:#000000;stroke-width:1.5;" width="207" x="1111.5" y="512.5"/><ellipse cx="1160.25" cy="528.5" fill="#ADD1B2" rx="11" ry="11" style="stroke:#000000;stroke-width:1.0;"/><path d="M1162.7231,534.6431 Q1162.1421,534.9419 1161.5029,535.0913 Q1160.8638,535.2407 1160.1582,535.2407 Q1157.6514,535.2407 1156.3315,533.5889 Q1155.0117,531.937 1155.0117,528.8159 Q1155.0117,525.6865 1156.3315,524.0347 Q1157.6514,522.3828 1160.1582,522.3828 Q1160.8638,522.3828 1161.5112,522.5322 Q1162.1587,522.6816 1162.7231,522.9805 L1162.7231,525.7031 Q1162.0923,525.1221 1161.4988,524.8523 Q1160.9053,524.5825 1160.2744,524.5825 Q1158.9297,524.5825 1158.2449,525.6492 Q1157.5601,526.7158 1157.5601,528.8159 Q1157.5601,530.9077 1158.2449,531.9744 Q1158.9297,533.041 1160.2744,533.041 Q1160.9053,533.041 1161.4988,532.7712 Q1162.0923,532.5015 1162.7231,531.9204 Z " fill="#000000"/><text fill="#000000" font-family="sans-serif" font-size="12" lengthAdjust="spacing" textLength="101" x="1180.75" y="533.0352">DepotClientsJSON</text><line style="stroke:#000000;stroke-width:1.5;" x1="1112.5" x2="1317.5" y1="544.5" y2="544.5"/><line style="stroke:#000000;stroke-width:1.5;" x1="1112.5" x2="1317.5" y1="552.5" y2="552.5"/><text fill="#000000" font-family="sans-serif" font-size="11" lengthAdjust="spacing" textLength="170" x="1117.5" y="567.1348">+AjouterClient(p_client : Client)</text><text fill="#000000" font-family="sans-serif" font-size="11" lengthAdjust="spacing" textLength="161" x="1117.5" y="580.0898">+ListerClients() : List&lt;Client&gt;</text><text fill="#000000" font-family="sans-serif" font-size="11" lengthAdjust="spacing" textLength="195" x="1117.5" y="593.0449">+RechercherClient(p_clientId : Guid)</text><text fill="#000000" font-family="sans-serif" font-size="11" lengthAdjust="spacing" textLength="174" x="1117.5" y="606">+ModifierClient(p_client : Client)</text><!--MD5=[da31f5de147c5371561ac61575262c16]
class ClientJSONDTO--><rect codeLine="45" fill="#FFFFFF" filter="url(#f12ztd86t9lrjo)" height="138.6855" id="ClientJSONDTO" style="stroke:#000000;stroke-width:1.5;" width="218" x="858" y="493"/><ellipse cx="919.75" cy="509" fill="#ADD1B2" rx="11" ry="11" style="stroke:#000000;stroke-width:1.0;"/><path d="M922.2231,515.1431 Q921.6421,515.4419 921.0029,515.5913 Q920.3638,515.7407 919.6582,515.7407 Q917.1514,515.7407 915.8315,514.0889 Q914.5117,512.437 914.5117,509.3159 Q914.5117,506.1865 915.8315,504.5347 Q917.1514,502.8828 919.6582,502.8828 Q920.3638,502.8828 921.0112,503.0322 Q921.6587,503.1816 922.2231,503.4805 L922.2231,506.2031 Q921.5923,505.6221 920.9988,505.3523 Q920.4053,505.0825 919.7744,505.0825 Q918.4297,505.0825 917.7449,506.1492 Q917.0601,507.2158 917.0601,509.3159 Q917.0601,511.4077 917.7449,512.4744 Q918.4297,513.541 919.7744,513.541 Q920.4053,513.541 920.9988,513.2712 Q921.5923,513.0015 922.2231,512.4204 Z " fill="#000000"/><text fill="#000000" font-family="sans-serif" font-size="12" lengthAdjust="spacing" textLength="86" x="940.25" y="513.5352">ClientJSONDTO</text><line style="stroke:#000000;stroke-width:1.5;" x1="859" x2="1075" y1="525" y2="525"/><text fill="#000000" font-family="sans-serif" font-size="11" lengthAdjust="spacing" textLength="141" x="864" y="539.6348">+Guid ClientId «get» «set»</text><text fill="#000000" font-family="sans-serif" font-size="11" lengthAdjust="spacing" textLength="132" x="864" y="552.5898">+string Nom «get» «set»</text><text fill="#000000" font-family="sans-serif" font-size="11" lengthAdjust="spacing" textLength="148" x="864" y="565.5449">+string Prenom «get» «set»</text><text fill="#000000" font-family="sans-serif" font-size="11" lengthAdjust="spacing" textLength="206" x="864" y="578.5">+List&lt;Adresse&gt; Adresses «get» «set»</text><line style="stroke:#000000;stroke-width:1.5;" x1="859" x2="1075" y1="584.8203" y2="584.8203"/><text fill="#000000" font-family="sans-serif" font-size="11" lengthAdjust="spacing" textLength="39" x="864" y="599.4551">+ctor()</text><text fill="#000000" font-family="sans-serif" font-size="11" lengthAdjust="spacing" textLength="121" x="864" y="612.4102">+ctor(p_client : Client)</text><text fill="#000000" font-family="sans-serif" font-size="11" lengthAdjust="spacing" textLength="111" x="864" y="625.3652">+VersEntite() : Client</text><!--MD5=[e5d36b82b5a16e7f890ccd92894a10d8]
class AdresseJSONDTO--><rect codeLine="55" fill="#FFFFFF" filter="url(#f12ztd86t9lrjo)" height="203.4609" id="AdresseJSONDTO" style="stroke:#000000;stroke-width:1.5;" width="276" x="858" y="705"/><ellipse cx="941.25" cy="721" fill="#ADD1B2" rx="11" ry="11" style="stroke:#000000;stroke-width:1.0;"/><path d="M943.7231,727.1431 Q943.1421,727.4419 942.5029,727.5913 Q941.8638,727.7407 941.1582,727.7407 Q938.6514,727.7407 937.3315,726.0889 Q936.0117,724.437 936.0117,721.3159 Q936.0117,718.1865 937.3315,716.5347 Q938.6514,714.8828 941.1582,714.8828 Q941.8638,714.8828 942.5112,715.0322 Q943.1587,715.1816 943.7231,715.4805 L943.7231,718.2031 Q943.0923,717.6221 942.4988,717.3523 Q941.9053,717.0825 941.2744,717.0825 Q939.9297,717.0825 939.2449,718.1492 Q938.5601,719.2158 938.5601,721.3159 Q938.5601,723.4077 939.2449,724.4744 Q939.9297,725.541 941.2744,725.541 Q941.9053,725.541 942.4988,725.2712 Q943.0923,725.0015 943.7231,724.4204 Z " fill="#000000"/><text fill="#000000" font-family="sans-serif" font-size="12" lengthAdjust="spacing" textLength="101" x="961.75" y="725.5352">AdresseJSONDTO</text><line style="stroke:#000000;stroke-width:1.5;" x1="859" x2="1133" y1="737" y2="737"/><text fill="#000000" font-family="sans-serif" font-size="11" lengthAdjust="spacing" textLength="154" x="864" y="751.6348">+Guid AdresseId «get» «set»</text><text fill="#000000" font-family="sans-serif" font-size="11" lengthAdjust="spacing" textLength="196" x="864" y="764.5898">+NumeroCivique : string «get» «set»</text><text fill="#000000" font-family="sans-serif" font-size="11" lengthAdjust="spacing" textLength="264" x="864" y="777.5449">+InformationComplementaire : string «get» «set»</text><text fill="#000000" font-family="sans-serif" font-size="11" lengthAdjust="spacing" textLength="165" x="864" y="790.5">+Odonyme : string «get» «set»</text><text fill="#000000" font-family="sans-serif" font-size="11" lengthAdjust="spacing" textLength="162" x="864" y="803.4551">+TypeVoie : string «get» «set»</text><text fill="#000000" font-family="sans-serif" font-size="11" lengthAdjust="spacing" textLength="173" x="864" y="816.4102">+CodePostal : string «get» «set»</text><text fill="#000000" font-family="sans-serif" font-size="11" lengthAdjust="spacing" textLength="202" x="864" y="829.3652">+NomMunicipalite : string «get» «set»</text><text fill="#000000" font-family="sans-serif" font-size="11" lengthAdjust="spacing" textLength="133" x="864" y="842.3203">+Etat : string «get» «set»</text><text fill="#000000" font-family="sans-serif" font-size="11" lengthAdjust="spacing" textLength="140" x="864" y="855.2754">+Pays : string  «get» «set»</text><line style="stroke:#000000;stroke-width:1.5;" x1="859" x2="1133" y1="861.5957" y2="861.5957"/><text fill="#000000" font-family="sans-serif" font-size="11" lengthAdjust="spacing" textLength="39" x="864" y="876.2305">+ctor()</text><text fill="#000000" font-family="sans-serif" font-size="11" lengthAdjust="spacing" textLength="134" x="864" y="889.1855">+ctor(p_client : Adresse)</text><text fill="#000000" font-family="sans-serif" font-size="11" lengthAdjust="spacing" textLength="124" x="864" y="902.1406">+VersEntite() : Adresse</text><!--MD5=[f8511494ff06e83f9c1b15495446ebaa]
class DepotClientsXML--><rect codeLine="92" fill="#FFFFFF" filter="url(#f12ztd86t9lrjo)" height="99.8203" id="DepotClientsXML" style="stroke:#000000;stroke-width:1.5;" width="207" x="1628.5" y="512.5"/><ellipse cx="1679.25" cy="528.5" fill="#ADD1B2" rx="11" ry="11" style="stroke:#000000;stroke-width:1.0;"/><path d="M1681.7231,534.6431 Q1681.1421,534.9419 1680.5029,535.0913 Q1679.8638,535.2407 1679.1582,535.2407 Q1676.6514,535.2407 1675.3315,533.5889 Q1674.0117,531.937 1674.0117,528.8159 Q1674.0117,525.6865 1675.3315,524.0347 Q1676.6514,522.3828 1679.1582,522.3828 Q1679.8638,522.3828 1680.5112,522.5322 Q1681.1587,522.6816 1681.7231,522.9805 L1681.7231,525.7031 Q1681.0923,525.1221 1680.4988,524.8523 Q1679.9053,524.5825 1679.2744,524.5825 Q1677.9297,524.5825 1677.2449,525.6492 Q1676.5601,526.7158 1676.5601,528.8159 Q1676.5601,530.9077 1677.2449,531.9744 Q1677.9297,533.041 1679.2744,533.041 Q1679.9053,533.041 1680.4988,532.7712 Q1681.0923,532.5015 1681.7231,531.9204 Z " fill="#000000"/><text fill="#000000" font-family="sans-serif" font-size="12" lengthAdjust="spacing" textLength="97" x="1699.75" y="533.0352">DepotClientsXML</text><line style="stroke:#000000;stroke-width:1.5;" x1="1629.5" x2="1834.5" y1="544.5" y2="544.5"/><line style="stroke:#000000;stroke-width:1.5;" x1="1629.5" x2="1834.5" y1="552.5" y2="552.5"/><text fill="#000000" font-family="sans-serif" font-size="11" lengthAdjust="spacing" textLength="170" x="1634.5" y="567.1348">+AjouterClient(p_client : Client)</text><text fill="#000000" font-family="sans-serif" font-size="11" lengthAdjust="spacing" textLength="161" x="1634.5" y="580.0898">+ListerClients() : List&lt;Client&gt;</text><text fill="#000000" font-family="sans-serif" font-size="11" lengthAdjust="spacing" textLength="195" x="1634.5" y="593.0449">+RechercherClient(p_clientId : Guid)</text><text fill="#000000" font-family="sans-serif" font-size="11" lengthAdjust="spacing" textLength="174" x="1634.5" y="606">+ModifierClient(p_client : Client)</text><!--MD5=[c6a3e9841f0c57e28fdf2284cd93a375]
class ClientXMLDTO--><rect codeLine="82" fill="#FFFFFF" filter="url(#f12ztd86t9lrjo)" height="138.6855" id="ClientXMLDTO" style="stroke:#000000;stroke-width:1.5;" width="218" x="1375" y="493"/><ellipse cx="1438.75" cy="509" fill="#ADD1B2" rx="11" ry="11" style="stroke:#000000;stroke-width:1.0;"/><path d="M1441.2231,515.1431 Q1440.6421,515.4419 1440.0029,515.5913 Q1439.3638,515.7407 1438.6582,515.7407 Q1436.1514,515.7407 1434.8315,514.0889 Q1433.5117,512.437 1433.5117,509.3159 Q1433.5117,506.1865 1434.8315,504.5347 Q1436.1514,502.8828 1438.6582,502.8828 Q1439.3638,502.8828 1440.0112,503.0322 Q1440.6587,503.1816 1441.2231,503.4805 L1441.2231,506.2031 Q1440.5923,505.6221 1439.9988,505.3523 Q1439.4053,505.0825 1438.7744,505.0825 Q1437.4297,505.0825 1436.7449,506.1492 Q1436.0601,507.2158 1436.0601,509.3159 Q1436.0601,511.4077 1436.7449,512.4744 Q1437.4297,513.541 1438.7744,513.541 Q1439.4053,513.541 1439.9988,513.2712 Q1440.5923,513.0015 1441.2231,512.4204 Z " fill="#000000"/><text fill="#000000" font-family="sans-serif" font-size="12" lengthAdjust="spacing" textLength="82" x="1459.25" y="513.5352">ClientXMLDTO</text><line style="stroke:#000000;stroke-width:1.5;" x1="1376" x2="1592" y1="525" y2="525"/><text fill="#000000" font-family="sans-serif" font-size="11" lengthAdjust="spacing" textLength="141" x="1381" y="539.6348">+Guid ClientId «get» «set»</text><text fill="#000000" font-family="sans-serif" font-size="11" lengthAdjust="spacing" textLength="132" x="1381" y="552.5898">+string Nom «get» «set»</text><text fill="#000000" font-family="sans-serif" font-size="11" lengthAdjust="spacing" textLength="148" x="1381" y="565.5449">+string Prenom «get» «set»</text><text fill="#000000" font-family="sans-serif" font-size="11" lengthAdjust="spacing" textLength="206" x="1381" y="578.5">+List&lt;Adresse&gt; Adresses «get» «set»</text><line style="stroke:#000000;stroke-width:1.5;" x1="1376" x2="1592" y1="584.8203" y2="584.8203"/><text fill="#000000" font-family="sans-serif" font-size="11" lengthAdjust="spacing" textLength="39" x="1381" y="599.4551">+ctor()</text><text fill="#000000" font-family="sans-serif" font-size="11" lengthAdjust="spacing" textLength="121" x="1381" y="612.4102">+ctor(p_client : Client)</text><text fill="#000000" font-family="sans-serif" font-size="11" lengthAdjust="spacing" textLength="111" x="1381" y="625.3652">+VersEntite() : Client</text><!--MD5=[2fc1a03e0ea9dd947f639b73d6756cfa]
class AdresseXMLDTO--><rect codeLine="99" fill="#FFFFFF" filter="url(#f12ztd86t9lrjo)" height="203.4609" id="AdresseXMLDTO" style="stroke:#000000;stroke-width:1.5;" width="276" x="1375" y="705"/><ellipse cx="1460.25" cy="721" fill="#ADD1B2" rx="11" ry="11" style="stroke:#000000;stroke-width:1.0;"/><path d="M1462.7231,727.1431 Q1462.1421,727.4419 1461.5029,727.5913 Q1460.8638,727.7407 1460.1582,727.7407 Q1457.6514,727.7407 1456.3315,726.0889 Q1455.0117,724.437 1455.0117,721.3159 Q1455.0117,718.1865 1456.3315,716.5347 Q1457.6514,714.8828 1460.1582,714.8828 Q1460.8638,714.8828 1461.5112,715.0322 Q1462.1587,715.1816 1462.7231,715.4805 L1462.7231,718.2031 Q1462.0923,717.6221 1461.4988,717.3523 Q1460.9053,717.0825 1460.2744,717.0825 Q1458.9297,717.0825 1458.2449,718.1492 Q1457.5601,719.2158 1457.5601,721.3159 Q1457.5601,723.4077 1458.2449,724.4744 Q1458.9297,725.541 1460.2744,725.541 Q1460.9053,725.541 1461.4988,725.2712 Q1462.0923,725.0015 1462.7231,724.4204 Z " fill="#000000"/><text fill="#000000" font-family="sans-serif" font-size="12" lengthAdjust="spacing" textLength="97" x="1480.75" y="725.5352">AdresseXMLDTO</text><line style="stroke:#000000;stroke-width:1.5;" x1="1376" x2="1650" y1="737" y2="737"/><text fill="#000000" font-family="sans-serif" font-size="11" lengthAdjust="spacing" textLength="154" x="1381" y="751.6348">+Guid AdresseId «get» «set»</text><text fill="#000000" font-family="sans-serif" font-size="11" lengthAdjust="spacing" textLength="196" x="1381" y="764.5898">+NumeroCivique : string «get» «set»</text><text fill="#000000" font-family="sans-serif" font-size="11" lengthAdjust="spacing" textLength="264" x="1381" y="777.5449">+InformationComplementaire : string «get» «set»</text><text fill="#000000" font-family="sans-serif" font-size="11" lengthAdjust="spacing" textLength="165" x="1381" y="790.5">+Odonyme : string «get» «set»</text><text fill="#000000" font-family="sans-serif" font-size="11" lengthAdjust="spacing" textLength="162" x="1381" y="803.4551">+TypeVoie : string «get» «set»</text><text fill="#000000" font-family="sans-serif" font-size="11" lengthAdjust="spacing" textLength="173" x="1381" y="816.4102">+CodePostal : string «get» «set»</text><text fill="#000000" font-family="sans-serif" font-size="11" lengthAdjust="spacing" textLength="202" x="1381" y="829.3652">+NomMunicipalite : string «get» «set»</text><text fill="#000000" font-family="sans-serif" font-size="11" lengthAdjust="spacing" textLength="133" x="1381" y="842.3203">+Etat : string «get» «set»</text><text fill="#000000" font-family="sans-serif" font-size="11" lengthAdjust="spacing" textLength="140" x="1381" y="855.2754">+Pays : string  «get» «set»</text><line style="stroke:#000000;stroke-width:1.5;" x1="1376" x2="1650" y1="861.5957" y2="861.5957"/><text fill="#000000" font-family="sans-serif" font-size="11" lengthAdjust="spacing" textLength="39" x="1381" y="876.2305">+ctor()</text><text fill="#000000" font-family="sans-serif" font-size="11" lengthAdjust="spacing" textLength="134" x="1381" y="889.1855">+ctor(p_client : Adresse)</text><text fill="#000000" font-family="sans-serif" font-size="11" lengthAdjust="spacing" textLength="124" x="1381" y="902.1406">+VersEntite() : Adresse</text><!--MD5=[c7b422ec34d12d84443b82362095488f]
class ClientUIConsole--><rect codeLine="118" fill="#FFFFFF" filter="url(#f12ztd86t9lrjo)" height="177.5508" id="ClientUIConsole" style="stroke:#000000;stroke-width:1.5;" width="214" x="591" y="41"/><ellipse cx="649.75" cy="57" fill="#ADD1B2" rx="11" ry="11" style="stroke:#000000;stroke-width:1.0;"/><path d="M652.2231,63.1431 Q651.6421,63.4419 651.0029,63.5913 Q650.3638,63.7407 649.6582,63.7407 Q647.1514,63.7407 645.8315,62.0889 Q644.5117,60.437 644.5117,57.3159 Q644.5117,54.1865 645.8315,52.5347 Q647.1514,50.8828 649.6582,50.8828 Q650.3638,50.8828 651.0112,51.0322 Q651.6587,51.1816 652.2231,51.4805 L652.2231,54.2031 Q651.5923,53.6221 650.9988,53.3523 Q650.4053,53.0825 649.7744,53.0825 Q648.4297,53.0825 647.7449,54.1492 Q647.0601,55.2158 647.0601,57.3159 Q647.0601,59.4077 647.7449,60.4744 Q648.4297,61.541 649.7744,61.541 Q650.4053,61.541 650.9988,61.2712 Q651.5923,61.0015 652.2231,60.4204 Z " fill="#000000"/><text fill="#000000" font-family="sans-serif" font-size="12" lengthAdjust="spacing" textLength="88" x="670.25" y="61.5352">ClientUIConsole</text><line style="stroke:#000000;stroke-width:1.5;" x1="592" x2="804" y1="73" y2="73"/><text fill="#000000" font-family="sans-serif" font-size="11" lengthAdjust="spacing" textLength="165" x="597" y="87.6348">-m_depotClient : IDepotClients</text><line style="stroke:#000000;stroke-width:1.5;" x1="592" x2="804" y1="93.9551" y2="93.9551"/><text fill="#000000" font-family="sans-serif" font-size="11" lengthAdjust="spacing" textLength="195" x="597" y="108.5898">+ctor(p_depotClient : IDepotClients)</text><text fill="#000000" font-family="sans-serif" font-size="11" lengthAdjust="spacing" textLength="89" x="597" y="121.5449">+AfficherMenu()</text><text fill="#000000" font-family="sans-serif" font-size="11" lengthAdjust="spacing" textLength="130" x="597" y="134.5">+SaisirChoixMenu() : int</text><text fill="#000000" font-family="sans-serif" font-size="11" lengthAdjust="spacing" textLength="75" x="597" y="147.4551">+ExecuterUI()</text><text fill="#000000" font-family="sans-serif" font-size="11" lengthAdjust="spacing" textLength="187" x="597" y="160.4102">+SaisirClientAvecAdresse() : Client</text><text fill="#000000" font-family="sans-serif" font-size="11" lengthAdjust="spacing" textLength="170" x="597" y="173.3652">+AfficherClient(p_client: Client)</text><text fill="#000000" font-family="sans-serif" font-size="11" lengthAdjust="spacing" textLength="189" x="597" y="186.3203">+RechercherEtAfficherClientParId()</text><text fill="#000000" font-family="sans-serif" font-size="11" lengthAdjust="spacing" textLength="137" x="597" y="199.2754">+ListerEtAfficherClients()</text><text fill="#000000" font-family="sans-serif" font-size="11" lengthAdjust="spacing" textLength="202" x="597" y="212.2305">-GenererAdresseAleatoire() : Adresse</text><!--MD5=[1b0c2915387634bf4e789c113c92d827]
class TraitementLot--><rect codeLine="133" fill="#FFFFFF" filter="url(#f12ztd86t9lrjo)" height="60.9551" id="TraitementLot" style="stroke:#000000;stroke-width:1.5;" width="112" x="1323" y="99.5"/><ellipse cx="1338" cy="115.5" fill="#B4A7E5" rx="11" ry="11" style="stroke:#000000;stroke-width:1.0;"/><path d="M1334.4277,111.7651 L1334.4277,109.6069 L1341.8071,109.6069 L1341.8071,111.7651 L1339.3418,111.7651 L1339.3418,119.8418 L1341.8071,119.8418 L1341.8071,122 L1334.4277,122 L1334.4277,119.8418 L1336.8931,119.8418 L1336.8931,111.7651 Z " fill="#000000"/><text fill="#000000" font-family="sans-serif" font-size="12" font-style="italic" lengthAdjust="spacing" textLength="80" x="1352" y="120.0352">TraitementLot</text><line style="stroke:#000000;stroke-width:1.5;" x1="1324" x2="1434" y1="131.5" y2="131.5"/><line style="stroke:#000000;stroke-width:1.5;" x1="1324" x2="1434" y1="139.5" y2="139.5"/><text fill="#000000" font-family="sans-serif" font-size="11" lengthAdjust="spacing" textLength="64" x="1329" y="154.1348">+Executer()</text><!--MD5=[c5358331cf8ae063edd27af746f4a17e]
class ModifierNomPrenomPremiereLettreMajusculesTraitementLot--><rect codeLine="141" fill="#FFFFFF" filter="url(#f12ztd86t9lrjo)" height="60.9551" id="ModifierNomPrenomPremiereLettreMajusculesTraitementLot" style="stroke:#000000;stroke-width:1.5;" width="378" x="996" y="326.5"/><ellipse cx="1011" cy="342.5" fill="#ADD1B2" rx="11" ry="11" style="stroke:#000000;stroke-width:1.0;"/><path d="M1013.4731,348.6431 Q1012.8921,348.9419 1012.2529,349.0913 Q1011.6138,349.2407 1010.9082,349.2407 Q1008.4014,349.2407 1007.0815,347.5889 Q1005.7617,345.937 1005.7617,342.8159 Q1005.7617,339.6865 1007.0815,338.0347 Q1008.4014,336.3828 1010.9082,336.3828 Q1011.6138,336.3828 1012.2612,336.5322 Q1012.9087,336.6816 1013.4731,336.9805 L1013.4731,339.7031 Q1012.8423,339.1221 1012.2488,338.8523 Q1011.6553,338.5825 1011.0244,338.5825 Q1009.6797,338.5825 1008.9949,339.6492 Q1008.3101,340.7158 1008.3101,342.8159 Q1008.3101,344.9077 1008.9949,345.9744 Q1009.6797,347.041 1011.0244,347.041 Q1011.6553,347.041 1012.2488,346.7712 Q1012.8423,346.5015 1013.4731,345.9204 Z " fill="#000000"/><text fill="#000000" font-family="sans-serif" font-size="12" lengthAdjust="spacing" textLength="346" x="1025" y="347.0352">ModifierNomPrenomPremiereLettreMajusculesTraitementLot</text><line style="stroke:#000000;stroke-width:1.5;" x1="997" x2="1373" y1="358.5" y2="358.5"/><line style="stroke:#000000;stroke-width:1.5;" x1="997" x2="1373" y1="366.5" y2="366.5"/><text fill="#000000" font-family="sans-serif" font-size="11" lengthAdjust="spacing" textLength="64" x="1002" y="381.1348">+Executer()</text><!--MD5=[2557689795cb60e02edc0ab7a85cd841]
class ModifierPaysMajusculesClientsTraitementLot--><rect codeLine="149" fill="#FFFFFF" filter="url(#f12ztd86t9lrjo)" height="60.9551" id="ModifierPaysMajusculesClientsTraitementLot" style="stroke:#000000;stroke-width:1.5;" width="286" x="1430" y="326.5"/><ellipse cx="1445" cy="342.5" fill="#ADD1B2" rx="11" ry="11" style="stroke:#000000;stroke-width:1.0;"/><path d="M1447.4731,348.6431 Q1446.8921,348.9419 1446.2529,349.0913 Q1445.6138,349.2407 1444.9082,349.2407 Q1442.4014,349.2407 1441.0815,347.5889 Q1439.7617,345.937 1439.7617,342.8159 Q1439.7617,339.6865 1441.0815,338.0347 Q1442.4014,336.3828 1444.9082,336.3828 Q1445.6138,336.3828 1446.2612,336.5322 Q1446.9087,336.6816 1447.4731,336.9805 L1447.4731,339.7031 Q1446.8423,339.1221 1446.2488,338.8523 Q1445.6553,338.5825 1445.0244,338.5825 Q1443.6797,338.5825 1442.9949,339.6492 Q1442.3101,340.7158 1442.3101,342.8159 Q1442.3101,344.9077 1442.9949,345.9744 Q1443.6797,347.041 1445.0244,347.041 Q1445.6553,347.041 1446.2488,346.7712 Q1446.8423,346.5015 1447.4731,345.9204 Z " fill="#000000"/><text fill="#000000" font-family="sans-serif" font-size="12" lengthAdjust="spacing" textLength="254" x="1459" y="347.0352">ModifierPaysMajusculesClientsTraitementLot</text><line style="stroke:#000000;stroke-width:1.5;" x1="1431" x2="1715" y1="358.5" y2="358.5"/><line style="stroke:#000000;stroke-width:1.5;" x1="1431" x2="1715" y1="366.5" y2="366.5"/><text fill="#000000" font-family="sans-serif" font-size="11" lengthAdjust="spacing" textLength="64" x="1436" y="381.1348">+Executer()</text><!--MD5=[73af334925bb211206659973f4e1ab45]
link Client to Adresse--><path codeLine="10" d="M296,420.16 C296,437.36 296,456.35 296,474.68 " fill="none" id="Client-to-Adresse" style="stroke:#A80036;stroke-width:1.0;"/><polygon fill="#A80036" points="296,479.83,300,470.83,296,474.83,292,470.83,296,479.83" style="stroke:#A80036;stroke-width:1.0;"/><text fill="#000000" font-family="sans-serif" font-size="13" lengthAdjust="spacing" textLength="8" x="287.5625" y="440.4885">1</text><text fill="#000000" font-family="sans-serif" font-size="13" lengthAdjust="spacing" textLength="6" x="289.7234" y="469.1188">*</text><!--MD5=[19adfe3b24a6c19873fa55b195191611]
reverse link IDepotClients to DepotClientsJSON--><path codeLine="42" d="M821.22,385.03 C932.81,409.76 1081.64,443.46 1094,450 C1123.55,465.62 1151.36,490.26 1172.85,512.4 " fill="none" id="IDepotClients-backto-DepotClientsJSON" style="stroke:#A80036;stroke-width:1.0;stroke-dasharray:7.0,7.0;"/><polygon fill="none" points="819.58,391.84,801.56,380.68,822.6,378.17,819.58,391.84" style="stroke:#A80036;stroke-width:1.0;"/><!--MD5=[4b0760f767d69bab286038c1723b5b54]
link ClientJSONDTO to AdresseJSONDTO--><path codeLine="43" d="M975.23,632.2 C977.74,653.12 980.55,676.61 983.29,699.4 " fill="none" id="ClientJSONDTO-to-AdresseJSONDTO" style="stroke:#A80036;stroke-width:1.0;"/><polygon fill="#A80036" points="983.9,704.55,986.7928,695.1356,983.3009,699.586,978.8504,696.0941,983.9,704.55" style="stroke:#A80036;stroke-width:1.0;"/><text fill="#000000" font-family="sans-serif" font-size="13" lengthAdjust="spacing" textLength="8" x="967.6332" y="652.1563">1</text><text fill="#000000" font-family="sans-serif" font-size="13" lengthAdjust="spacing" textLength="6" x="976.8383" y="694.4174">*</text><!--MD5=[d761bc3755c2fedbb7239219a6f31ce4]
reverse link IDepotClients to DepotClientsXML--><path codeLine="79" d="M821.48,389.88 C870.5,401.3 927.59,413.04 980,420 C1119.16,438.47 1481.49,395.85 1611,450 C1642.89,463.33 1671.67,488.97 1693.15,512.31 " fill="none" id="IDepotClients-backto-DepotClientsXML" style="stroke:#A80036;stroke-width:1.0;stroke-dasharray:7.0,7.0;"/><polygon fill="none" points="819.56,396.62,801.71,385.2,822.79,383,819.56,396.62" style="stroke:#A80036;stroke-width:1.0;"/><!--MD5=[2f7f2991185c7259beaf81b9c8660cfb]
link ClientXMLDTO to AdresseXMLDTO--><path codeLine="80" d="M1492.23,632.2 C1494.74,653.12 1497.55,676.61 1500.29,699.4 " fill="none" id="ClientXMLDTO-to-AdresseXMLDTO" style="stroke:#A80036;stroke-width:1.0;"/><polygon fill="#A80036" points="1500.9,704.55,1503.7928,695.1356,1500.3009,699.586,1495.8504,696.0941,1500.9,704.55" style="stroke:#A80036;stroke-width:1.0;"/><text fill="#000000" font-family="sans-serif" font-size="13" lengthAdjust="spacing" textLength="8" x="1484.6332" y="652.1563">1</text><text fill="#000000" font-family="sans-serif" font-size="13" lengthAdjust="spacing" textLength="6" x="1493.8383" y="694.4174">*</text><!--MD5=[bccde14c5578bf5b5ec93606ed33c2c0]
link ClientUIConsole to IDepotClients--><path codeLine="116" d="M698,219.28 C698,247.1 698,276.98 698,301.7 " fill="none" id="ClientUIConsole-to-IDepotClients" style="stroke:#A80036;stroke-width:1.0;"/><polygon fill="#A80036" points="698,306.89,702,297.89,698,301.89,694,297.89,698,306.89" style="stroke:#A80036;stroke-width:1.0;"/><text fill="#000000" font-family="sans-serif" font-size="13" lengthAdjust="spacing" textLength="8" x="689.7063" y="238.9835">1</text><text fill="#000000" font-family="sans-serif" font-size="13" lengthAdjust="spacing" textLength="8" x="689.4375" y="296.3914">1</text><!--MD5=[28ed4f9fcff8ce5627929d7049e40cdf]
reverse link TraitementLot to ModifierNomPrenomPremiereLettreMajusculesTraitementLot--><path codeLine="139" d="M1339.99,176.24 C1301.45,220.95 1243.6,288.04 1210.56,326.36 " fill="none" id="TraitementLot-backto-ModifierNomPrenomPremiereLettreMajusculesTraitementLot" style="stroke:#A80036;stroke-width:1.0;stroke-dasharray:7.0,7.0;"/><polygon fill="none" points="1334.88,171.45,1353.24,160.88,1345.48,180.6,1334.88,171.45" style="stroke:#A80036;stroke-width:1.0;"/><!--MD5=[0841bdc90cc678eaa03027aa0fbba90a]
reverse link TraitementLot to ModifierPaysMajusculesClientsTraitementLot--><path codeLine="147" d="M1418.01,176.24 C1456.55,220.95 1514.4,288.04 1547.44,326.36 " fill="none" id="TraitementLot-backto-ModifierPaysMajusculesClientsTraitementLot" style="stroke:#A80036;stroke-width:1.0;stroke-dasharray:7.0,7.0;"/><polygon fill="none" points="1412.52,180.6,1404.76,160.88,1423.12,171.45,1412.52,180.6" style="stroke:#A80036;stroke-width:1.0;"/><!--MD5=[d38f94403805be5b3355ef3afc74e5c5]
@startuml DiagClassesClients

skinparam classAttributeIconSize 0
skinparam class {
    BackgroundColor White
    BorderColor #000
}


package Entites {
    Client "1" - -> "*" Adresse

    class Client {
        + ctor(p_clientId : Guid, p_nom : string, p_prenom : string, p_adresses : IEnumerable<Adresse>)
        + Guid ClientId <<get>> <<private set>>
        + string Nom <<get>> <<private set>>
        + string Prenom <<get>> <<private set>>
        + List<Adresse> Adresses <<get>> <<private set>>
        + AjouterModifierAdresse(p_adresse : Adresse)
    }

    class Adresse {
        + Guid AdresseId <<get>> <<private set>>
        + NumeroCivique : string <<get>> <<private set>>
        + InformationComplementaire : string <<get>> <<private set>>
        + Odonyme : string <<get>> <<private set>>
        + TypeVoie : string <<get>> <<private set>>
        + CodePostal : string <<get>> <<private set>>
        + NomMunicipalite : string <<get>> <<private set>>
        + Etat : string <<get>> <<private set>>
        + Pays : string  <<get>> <<private set>>
    }

    interface IDepotClients {
        + AjouterClient(p_client : Client)
        + ListerClients() : List<Client>
        + RechercherClient(p_clientId : Guid)
        + ModifierClient(p_client : Client)
    }
}

package CoucheAccesDonnees.JSON {
    IDepotClients <|.. DepotClientsJSON
    ClientJSONDTO "1" - -> "*" AdresseJSONDTO

    class ClientJSONDTO {
        + Guid ClientId <<get>> <<set>>
        + string Nom <<get>> <<set>>
        + string Prenom <<get>> <<set>>
        + List<Adresse> Adresses <<get>> <<set>>
        + ctor()
        + ctor(p_client : Client)
        + VersEntite() : Client
    }

    class AdresseJSONDTO {
        + Guid AdresseId <<get>> <<set>>
        + NumeroCivique : string <<get>> <<set>>
        + InformationComplementaire : string <<get>> <<set>>
        + Odonyme : string <<get>> <<set>>
        + TypeVoie : string <<get>> <<set>>
        + CodePostal : string <<get>> <<set>>
        + NomMunicipalite : string <<get>> <<set>>
        + Etat : string <<get>> <<set>>
        + Pays : string  <<get>> <<set>>
        + ctor()
        + ctor(p_client : Adresse)
        + VersEntite() : Adresse
    }

    class DepotClientsJSON {
        + AjouterClient(p_client : Client)
        + ListerClients() : List<Client>
        + RechercherClient(p_clientId : Guid)
        + ModifierClient(p_client : Client)
    }
}

package CoucheAccesDonnees.XML {
    IDepotClients <|.. DepotClientsXML
    ClientXMLDTO "1" - -> "*" AdresseXMLDTO

    class ClientXMLDTO {
        + Guid ClientId <<get>> <<set>>
        + string Nom <<get>> <<set>>
        + string Prenom <<get>> <<set>>
        + List<Adresse> Adresses <<get>> <<set>>
        + ctor()
        + ctor(p_client : Client)
        + VersEntite() : Client
    }

    class DepotClientsXML {
        + AjouterClient(p_client : Client)
        + ListerClients() : List<Client>
        + RechercherClient(p_clientId : Guid)
        + ModifierClient(p_client : Client)
    }

    class AdresseXMLDTO {
        + Guid AdresseId <<get>> <<set>>
        + NumeroCivique : string <<get>> <<set>>
        + InformationComplementaire : string <<get>> <<set>>
        + Odonyme : string <<get>> <<set>>
        + TypeVoie : string <<get>> <<set>>
        + CodePostal : string <<get>> <<set>>
        + NomMunicipalite : string <<get>> <<set>>
        + Etat : string <<get>> <<set>>
        + Pays : string  <<get>> <<set>>
        + ctor()
        + ctor(p_client : Adresse)
        + VersEntite() : Adresse
    }
}

package Application {
    ClientUIConsole "1" - -> "1" IDepotClients

    class ClientUIConsole {
        - m_depotClient : IDepotClients
        + ctor(p_depotClient : IDepotClients)
        + AfficherMenu()
        + SaisirChoixMenu() : int
        + ExecuterUI()
        + SaisirClientAvecAdresse() : Client
        + AfficherClient(p_client: Client)
        + RechercherEtAfficherClientParId()
        + ListerEtAfficherClients()
        - GenererAdresseAleatoire() : Adresse
    }
}

package TraitementsLots {
    interface TraitementLot {
        + Executer()
    }
}

package TraitementsLots.ModifierNomPrenomPremiereLettreMajuscules {
    TraitementLot <|.. ModifierNomPrenomPremiereLettreMajusculesTraitementLot

    class ModifierNomPrenomPremiereLettreMajusculesTraitementLot {
        + Executer()
    }
}

package TraitementsLots.ModifierPaysMajusculesClients {
    TraitementLot <|.. ModifierPaysMajusculesClientsTraitementLot

    class ModifierPaysMajusculesClientsTraitementLot {
        + Executer()
    }
}

' TraitementsLots <.. TraitementsLots.ModifierNomPrenomPremiereLettreMajuscules
' TraitementsLots <.. TraitementsLots.ModifierPaysMajusculesClients

' Entites <.. CoucheAccesDonnees.JSON
' Entites <.. CoucheAccesDonnees.XML
' Entites <.. Application
' Entites <.. TraitementsLots

@enduml

@startuml DiagClassesClients

skinparam classAttributeIconSize 0
skinparam class {
    BackgroundColor White
    BorderColor #000
}


package Entites {
    Client "1" - -> "*" Adresse

    class Client {
        + ctor(p_clientId : Guid, p_nom : string, p_prenom : string, p_adresses : IEnumerable<Adresse>)
        + Guid ClientId <<get>> <<private set>>
        + string Nom <<get>> <<private set>>
        + string Prenom <<get>> <<private set>>
        + List<Adresse> Adresses <<get>> <<private set>>
        + AjouterModifierAdresse(p_adresse : Adresse)
    }

    class Adresse {
        + Guid AdresseId <<get>> <<private set>>
        + NumeroCivique : string <<get>> <<private set>>
        + InformationComplementaire : string <<get>> <<private set>>
        + Odonyme : string <<get>> <<private set>>
        + TypeVoie : string <<get>> <<private set>>
        + CodePostal : string <<get>> <<private set>>
        + NomMunicipalite : string <<get>> <<private set>>
        + Etat : string <<get>> <<private set>>
        + Pays : string  <<get>> <<private set>>
    }

    interface IDepotClients {
        + AjouterClient(p_client : Client)
        + ListerClients() : List<Client>
        + RechercherClient(p_clientId : Guid)
        + ModifierClient(p_client : Client)
    }
}

package CoucheAccesDonnees.JSON {
    IDepotClients <|.. DepotClientsJSON
    ClientJSONDTO "1" - -> "*" AdresseJSONDTO

    class ClientJSONDTO {
        + Guid ClientId <<get>> <<set>>
        + string Nom <<get>> <<set>>
        + string Prenom <<get>> <<set>>
        + List<Adresse> Adresses <<get>> <<set>>
        + ctor()
        + ctor(p_client : Client)
        + VersEntite() : Client
    }

    class AdresseJSONDTO {
        + Guid AdresseId <<get>> <<set>>
        + NumeroCivique : string <<get>> <<set>>
        + InformationComplementaire : string <<get>> <<set>>
        + Odonyme : string <<get>> <<set>>
        + TypeVoie : string <<get>> <<set>>
        + CodePostal : string <<get>> <<set>>
        + NomMunicipalite : string <<get>> <<set>>
        + Etat : string <<get>> <<set>>
        + Pays : string  <<get>> <<set>>
        + ctor()
        + ctor(p_client : Adresse)
        + VersEntite() : Adresse
    }

    class DepotClientsJSON {
        + AjouterClient(p_client : Client)
        + ListerClients() : List<Client>
        + RechercherClient(p_clientId : Guid)
        + ModifierClient(p_client : Client)
    }
}

package CoucheAccesDonnees.XML {
    IDepotClients <|.. DepotClientsXML
    ClientXMLDTO "1" - -> "*" AdresseXMLDTO

    class ClientXMLDTO {
        + Guid ClientId <<get>> <<set>>
        + string Nom <<get>> <<set>>
        + string Prenom <<get>> <<set>>
        + List<Adresse> Adresses <<get>> <<set>>
        + ctor()
        + ctor(p_client : Client)
        + VersEntite() : Client
    }

    class DepotClientsXML {
        + AjouterClient(p_client : Client)
        + ListerClients() : List<Client>
        + RechercherClient(p_clientId : Guid)
        + ModifierClient(p_client : Client)
    }

    class AdresseXMLDTO {
        + Guid AdresseId <<get>> <<set>>
        + NumeroCivique : string <<get>> <<set>>
        + InformationComplementaire : string <<get>> <<set>>
        + Odonyme : string <<get>> <<set>>
        + TypeVoie : string <<get>> <<set>>
        + CodePostal : string <<get>> <<set>>
        + NomMunicipalite : string <<get>> <<set>>
        + Etat : string <<get>> <<set>>
        + Pays : string  <<get>> <<set>>
        + ctor()
        + ctor(p_client : Adresse)
        + VersEntite() : Adresse
    }
}

package Application {
    ClientUIConsole "1" - -> "1" IDepotClients

    class ClientUIConsole {
        - m_depotClient : IDepotClients
        + ctor(p_depotClient : IDepotClients)
        + AfficherMenu()
        + SaisirChoixMenu() : int
        + ExecuterUI()
        + SaisirClientAvecAdresse() : Client
        + AfficherClient(p_client: Client)
        + RechercherEtAfficherClientParId()
        + ListerEtAfficherClients()
        - GenererAdresseAleatoire() : Adresse
    }
}

package TraitementsLots {
    interface TraitementLot {
        + Executer()
    }
}

package TraitementsLots.ModifierNomPrenomPremiereLettreMajuscules {
    TraitementLot <|.. ModifierNomPrenomPremiereLettreMajusculesTraitementLot

    class ModifierNomPrenomPremiereLettreMajusculesTraitementLot {
        + Executer()
    }
}

package TraitementsLots.ModifierPaysMajusculesClients {
    TraitementLot <|.. ModifierPaysMajusculesClientsTraitementLot

    class ModifierPaysMajusculesClientsTraitementLot {
        + Executer()
    }
}



@enduml

PlantUML version 1.2021.7(Sun May 23 08:40:07 EDT 2021)
(GPL source distribution)
Java Runtime: OpenJDK Runtime Environment
JVM: OpenJDK 64-Bit Server VM
Default Encoding: UTF-8
Language: fr
Country: CA
--></g></svg>