<?xml version="1.0" encoding="us-ascii" standalone="no"?><svg xmlns="http://www.w3.org/2000/svg" xmlns:xlink="http://www.w3.org/1999/xlink" contentStyleType="text/css" height="597px" preserveAspectRatio="none" style="width:1335px;height:597px;background:#FFFFFF;" version="1.1" viewBox="0 0 1335 597" width="1335px" zoomAndPan="magnify"><defs/><g><!--class Object--><g id="elem_Object"><rect fill="#F1F1F1" height="48" id="Object" rx="2.5" ry="2.5" style="stroke:#181818;stroke-width:0.5;" width="73" x="414.5" y="7"/><ellipse cx="429.5" cy="23" fill="#ADD1B2" rx="11" ry="11" style="stroke:#181818;stroke-width:1.0;"/><path d="M432.2656,18.875 Q432.4219,18.6563 432.6094,18.5469 Q432.7969,18.4375 433.0156,18.4375 Q433.3906,18.4375 433.625,18.6953 Q433.8594,18.9531 433.8594,19.5625 L433.8594,21.0156 Q433.8594,21.625 433.625,21.8906 Q433.3906,22.1563 433.0156,22.1563 Q432.6719,22.1563 432.4688,21.9531 Q432.2656,21.7656 432.1563,21.25 Q432.1094,20.8906 431.9219,20.7031 Q431.5938,20.3281 430.9844,20.1094 Q430.375,19.8906 429.75,19.8906 Q428.9844,19.8906 428.3516,20.2188 Q427.7188,20.5469 427.2266,21.2969 Q426.7344,22.0469 426.7344,23.0781 L426.7344,24.1719 Q426.7344,25.4063 427.625,26.2266 Q428.5156,27.0469 430.1094,27.0469 Q431.0469,27.0469 431.7031,26.7969 Q432.0938,26.6406 432.5156,26.2031 Q432.7813,25.9375 432.9297,25.8594 Q433.0781,25.7813 433.2813,25.7813 Q433.6094,25.7813 433.8672,26.0391 Q434.125,26.2969 434.125,26.6406 Q434.125,26.9844 433.7813,27.3906 Q433.2813,27.9688 432.4844,28.2969 Q431.4063,28.75 430.1094,28.75 Q428.5938,28.75 427.3906,28.125 Q426.4063,27.625 425.7188,26.5547 Q425.0313,25.4844 425.0313,24.2031 L425.0313,23.0469 Q425.0313,21.7188 425.6484,20.5703 Q426.2656,19.4219 427.3594,18.8047 Q428.4531,18.1875 429.6875,18.1875 Q430.4219,18.1875 431.0703,18.3516 Q431.7188,18.5156 432.2656,18.875 Z " fill="#000000"/><text fill="#000000" font-family="sans-serif" font-size="14" lengthAdjust="spacing" textLength="41" x="443.5" y="28.7285">Object</text><line style="stroke:#181818;stroke-width:0.5;" x1="415.5" x2="486.5" y1="39" y2="39"/><line style="stroke:#181818;stroke-width:0.5;" x1="415.5" x2="486.5" y1="47" y2="47"/></g><!--class Exception--><g id="elem_Exception"><rect codeLine="12" fill="#F1F1F1" height="153.6563" id="Exception" rx="2.5" ry="2.5" style="stroke:#181818;stroke-width:0.5;" width="407" x="247.5" y="115"/><ellipse cx="416.25" cy="131" fill="#ADD1B2" rx="11" ry="11" style="stroke:#181818;stroke-width:1.0;"/><path d="M419.0156,126.875 Q419.1719,126.6563 419.3594,126.5469 Q419.5469,126.4375 419.7656,126.4375 Q420.1406,126.4375 420.375,126.6953 Q420.6094,126.9531 420.6094,127.5625 L420.6094,129.0156 Q420.6094,129.625 420.375,129.8906 Q420.1406,130.1563 419.7656,130.1563 Q419.4219,130.1563 419.2188,129.9531 Q419.0156,129.7656 418.9063,129.25 Q418.8594,128.8906 418.6719,128.7031 Q418.3438,128.3281 417.7344,128.1094 Q417.125,127.8906 416.5,127.8906 Q415.7344,127.8906 415.1016,128.2188 Q414.4688,128.5469 413.9766,129.2969 Q413.4844,130.0469 413.4844,131.0781 L413.4844,132.1719 Q413.4844,133.4063 414.375,134.2266 Q415.2656,135.0469 416.8594,135.0469 Q417.7969,135.0469 418.4531,134.7969 Q418.8438,134.6406 419.2656,134.2031 Q419.5313,133.9375 419.6797,133.8594 Q419.8281,133.7813 420.0313,133.7813 Q420.3594,133.7813 420.6172,134.0391 Q420.875,134.2969 420.875,134.6406 Q420.875,134.9844 420.5313,135.3906 Q420.0313,135.9688 419.2344,136.2969 Q418.1563,136.75 416.8594,136.75 Q415.3438,136.75 414.1406,136.125 Q413.1563,135.625 412.4688,134.5547 Q411.7813,133.4844 411.7813,132.2031 L411.7813,131.0469 Q411.7813,129.7188 412.3984,128.5703 Q413.0156,127.4219 414.1094,126.8047 Q415.2031,126.1875 416.4375,126.1875 Q417.1719,126.1875 417.8203,126.3516 Q418.4688,126.5156 419.0156,126.875 Z " fill="#000000"/><text fill="#000000" font-family="sans-serif" font-size="14" lengthAdjust="spacing" textLength="61" x="436.75" y="136.7285">Exception</text><line style="stroke:#181818;stroke-width:0.5;" x1="248.5" x2="653.5" y1="147" y2="147"/><text fill="#000000" font-family="sans-serif" font-size="14" lengthAdjust="spacing" textLength="206" x="253.5" y="165.5332">InnerException : Exception &#171;get&#187;</text><text fill="#000000" font-family="sans-serif" font-size="14" lengthAdjust="spacing" textLength="144" x="253.5" y="183.1426">Message : string &#171;get&#187;</text><text fill="#000000" font-family="sans-serif" font-size="14" lengthAdjust="spacing" textLength="159" x="253.5" y="200.752">StackTrace : string &#171;get&#187;</text><line style="stroke:#181818;stroke-width:0.5;" x1="248.5" x2="653.5" y1="207.8281" y2="207.8281"/><ellipse cx="258.5" cy="222.1328" fill="#84BE84" rx="3" ry="3" style="stroke:#038048;stroke-width:1.0;"/><text fill="#000000" font-family="sans-serif" font-size="14" lengthAdjust="spacing" textLength="71" x="267.5" y="226.3613">Exception()</text><ellipse cx="258.5" cy="239.7422" fill="#84BE84" rx="3" ry="3" style="stroke:#038048;stroke-width:1.0;"/><text fill="#000000" font-family="sans-serif" font-size="14" lengthAdjust="spacing" textLength="191" x="267.5" y="243.9707">Exception(p_message : string)</text><ellipse cx="258.5" cy="257.3516" fill="#84BE84" rx="3" ry="3" style="stroke:#038048;stroke-width:1.0;"/><text fill="#000000" font-family="sans-serif" font-size="14" lengthAdjust="spacing" textLength="381" x="267.5" y="261.5801">Exception(p_message : string, p_innerException : Exception)</text></g><!--class SystemException--><g id="elem_SystemException"><rect fill="#F1F1F1" height="48" id="SystemException" rx="2.5" ry="2.5" style="stroke:#181818;stroke-width:0.5;" width="139" x="381.5" y="329"/><ellipse cx="396.5" cy="345" fill="#ADD1B2" rx="11" ry="11" style="stroke:#181818;stroke-width:1.0;"/><path d="M399.2656,340.875 Q399.4219,340.6563 399.6094,340.5469 Q399.7969,340.4375 400.0156,340.4375 Q400.3906,340.4375 400.625,340.6953 Q400.8594,340.9531 400.8594,341.5625 L400.8594,343.0156 Q400.8594,343.625 400.625,343.8906 Q400.3906,344.1563 400.0156,344.1563 Q399.6719,344.1563 399.4688,343.9531 Q399.2656,343.7656 399.1563,343.25 Q399.1094,342.8906 398.9219,342.7031 Q398.5938,342.3281 397.9844,342.1094 Q397.375,341.8906 396.75,341.8906 Q395.9844,341.8906 395.3516,342.2188 Q394.7188,342.5469 394.2266,343.2969 Q393.7344,344.0469 393.7344,345.0781 L393.7344,346.1719 Q393.7344,347.4063 394.625,348.2266 Q395.5156,349.0469 397.1094,349.0469 Q398.0469,349.0469 398.7031,348.7969 Q399.0938,348.6406 399.5156,348.2031 Q399.7813,347.9375 399.9297,347.8594 Q400.0781,347.7813 400.2813,347.7813 Q400.6094,347.7813 400.8672,348.0391 Q401.125,348.2969 401.125,348.6406 Q401.125,348.9844 400.7813,349.3906 Q400.2813,349.9688 399.4844,350.2969 Q398.4063,350.75 397.1094,350.75 Q395.5938,350.75 394.3906,350.125 Q393.4063,349.625 392.7188,348.5547 Q392.0313,347.4844 392.0313,346.2031 L392.0313,345.0469 Q392.0313,343.7188 392.6484,342.5703 Q393.2656,341.4219 394.3594,340.8047 Q395.4531,340.1875 396.6875,340.1875 Q397.4219,340.1875 398.0703,340.3516 Q398.7188,340.5156 399.2656,340.875 Z " fill="#000000"/><text fill="#000000" font-family="sans-serif" font-size="14" lengthAdjust="spacing" textLength="107" x="410.5" y="350.7285">SystemException</text><line style="stroke:#181818;stroke-width:0.5;" x1="382.5" x2="519.5" y1="361" y2="361"/><line style="stroke:#181818;stroke-width:0.5;" x1="382.5" x2="519.5" y1="369" y2="369"/></g><!--class IndexOutOfRangeException--><g id="elem_IndexOutOfRangeException"><rect fill="#F1F1F1" height="48" id="IndexOutOfRangeException" rx="2.5" ry="2.5" style="stroke:#181818;stroke-width:0.5;" width="206" x="7" y="490"/><ellipse cx="22" cy="506" fill="#ADD1B2" rx="11" ry="11" style="stroke:#181818;stroke-width:1.0;"/><path d="M24.7656,501.875 Q24.9219,501.6563 25.1094,501.5469 Q25.2969,501.4375 25.5156,501.4375 Q25.8906,501.4375 26.125,501.6953 Q26.3594,501.9531 26.3594,502.5625 L26.3594,504.0156 Q26.3594,504.625 26.125,504.8906 Q25.8906,505.1563 25.5156,505.1563 Q25.1719,505.1563 24.9688,504.9531 Q24.7656,504.7656 24.6563,504.25 Q24.6094,503.8906 24.4219,503.7031 Q24.0938,503.3281 23.4844,503.1094 Q22.875,502.8906 22.25,502.8906 Q21.4844,502.8906 20.8516,503.2188 Q20.2188,503.5469 19.7266,504.2969 Q19.2344,505.0469 19.2344,506.0781 L19.2344,507.1719 Q19.2344,508.4063 20.125,509.2266 Q21.0156,510.0469 22.6094,510.0469 Q23.5469,510.0469 24.2031,509.7969 Q24.5938,509.6406 25.0156,509.2031 Q25.2813,508.9375 25.4297,508.8594 Q25.5781,508.7813 25.7813,508.7813 Q26.1094,508.7813 26.3672,509.0391 Q26.625,509.2969 26.625,509.6406 Q26.625,509.9844 26.2813,510.3906 Q25.7813,510.9688 24.9844,511.2969 Q23.9063,511.75 22.6094,511.75 Q21.0938,511.75 19.8906,511.125 Q18.9063,510.625 18.2188,509.5547 Q17.5313,508.4844 17.5313,507.2031 L17.5313,506.0469 Q17.5313,504.7188 18.1484,503.5703 Q18.7656,502.4219 19.8594,501.8047 Q20.9531,501.1875 22.1875,501.1875 Q22.9219,501.1875 23.5703,501.3516 Q24.2188,501.5156 24.7656,501.875 Z " fill="#000000"/><text fill="#000000" font-family="sans-serif" font-size="14" lengthAdjust="spacing" textLength="174" x="36" y="511.7285">IndexOutOfRangeException</text><line style="stroke:#181818;stroke-width:0.5;" x1="8" x2="212" y1="522" y2="522"/><line style="stroke:#181818;stroke-width:0.5;" x1="8" x2="212" y1="530" y2="530"/></g><!--class NullReferenceException--><g id="elem_NullReferenceException"><rect fill="#F1F1F1" height="48" id="NullReferenceException" rx="2.5" ry="2.5" style="stroke:#181818;stroke-width:0.5;" width="182" x="248" y="490"/><ellipse cx="263" cy="506" fill="#ADD1B2" rx="11" ry="11" style="stroke:#181818;stroke-width:1.0;"/><path d="M265.7656,501.875 Q265.9219,501.6563 266.1094,501.5469 Q266.2969,501.4375 266.5156,501.4375 Q266.8906,501.4375 267.125,501.6953 Q267.3594,501.9531 267.3594,502.5625 L267.3594,504.0156 Q267.3594,504.625 267.125,504.8906 Q266.8906,505.1563 266.5156,505.1563 Q266.1719,505.1563 265.9688,504.9531 Q265.7656,504.7656 265.6563,504.25 Q265.6094,503.8906 265.4219,503.7031 Q265.0938,503.3281 264.4844,503.1094 Q263.875,502.8906 263.25,502.8906 Q262.4844,502.8906 261.8516,503.2188 Q261.2188,503.5469 260.7266,504.2969 Q260.2344,505.0469 260.2344,506.0781 L260.2344,507.1719 Q260.2344,508.4063 261.125,509.2266 Q262.0156,510.0469 263.6094,510.0469 Q264.5469,510.0469 265.2031,509.7969 Q265.5938,509.6406 266.0156,509.2031 Q266.2813,508.9375 266.4297,508.8594 Q266.5781,508.7813 266.7813,508.7813 Q267.1094,508.7813 267.3672,509.0391 Q267.625,509.2969 267.625,509.6406 Q267.625,509.9844 267.2813,510.3906 Q266.7813,510.9688 265.9844,511.2969 Q264.9063,511.75 263.6094,511.75 Q262.0938,511.75 260.8906,511.125 Q259.9063,510.625 259.2188,509.5547 Q258.5313,508.4844 258.5313,507.2031 L258.5313,506.0469 Q258.5313,504.7188 259.1484,503.5703 Q259.7656,502.4219 260.8594,501.8047 Q261.9531,501.1875 263.1875,501.1875 Q263.9219,501.1875 264.5703,501.3516 Q265.2188,501.5156 265.7656,501.875 Z " fill="#000000"/><text fill="#000000" font-family="sans-serif" font-size="14" lengthAdjust="spacing" textLength="150" x="277" y="511.7285">NullReferenceException</text><line style="stroke:#181818;stroke-width:0.5;" x1="249" x2="429" y1="522" y2="522"/><line style="stroke:#181818;stroke-width:0.5;" x1="249" x2="429" y1="530" y2="530"/></g><!--class InvalidOperationException--><g id="elem_InvalidOperationException"><rect fill="#F1F1F1" height="48" id="InvalidOperationException" rx="2.5" ry="2.5" style="stroke:#181818;stroke-width:0.5;" width="196" x="465" y="490"/><ellipse cx="480" cy="506" fill="#ADD1B2" rx="11" ry="11" style="stroke:#181818;stroke-width:1.0;"/><path d="M482.7656,501.875 Q482.9219,501.6563 483.1094,501.5469 Q483.2969,501.4375 483.5156,501.4375 Q483.8906,501.4375 484.125,501.6953 Q484.3594,501.9531 484.3594,502.5625 L484.3594,504.0156 Q484.3594,504.625 484.125,504.8906 Q483.8906,505.1563 483.5156,505.1563 Q483.1719,505.1563 482.9688,504.9531 Q482.7656,504.7656 482.6563,504.25 Q482.6094,503.8906 482.4219,503.7031 Q482.0938,503.3281 481.4844,503.1094 Q480.875,502.8906 480.25,502.8906 Q479.4844,502.8906 478.8516,503.2188 Q478.2188,503.5469 477.7266,504.2969 Q477.2344,505.0469 477.2344,506.0781 L477.2344,507.1719 Q477.2344,508.4063 478.125,509.2266 Q479.0156,510.0469 480.6094,510.0469 Q481.5469,510.0469 482.2031,509.7969 Q482.5938,509.6406 483.0156,509.2031 Q483.2813,508.9375 483.4297,508.8594 Q483.5781,508.7813 483.7813,508.7813 Q484.1094,508.7813 484.3672,509.0391 Q484.625,509.2969 484.625,509.6406 Q484.625,509.9844 484.2813,510.3906 Q483.7813,510.9688 482.9844,511.2969 Q481.9063,511.75 480.6094,511.75 Q479.0938,511.75 477.8906,511.125 Q476.9063,510.625 476.2188,509.5547 Q475.5313,508.4844 475.5313,507.2031 L475.5313,506.0469 Q475.5313,504.7188 476.1484,503.5703 Q476.7656,502.4219 477.8594,501.8047 Q478.9531,501.1875 480.1875,501.1875 Q480.9219,501.1875 481.5703,501.3516 Q482.2188,501.5156 482.7656,501.875 Z " fill="#000000"/><text fill="#000000" font-family="sans-serif" font-size="14" lengthAdjust="spacing" textLength="164" x="494" y="511.7285">InvalidOperationException</text><line style="stroke:#181818;stroke-width:0.5;" x1="466" x2="660" y1="522" y2="522"/><line style="stroke:#181818;stroke-width:0.5;" x1="466" x2="660" y1="530" y2="530"/></g><!--class ArgumentException--><g id="elem_ArgumentException"><rect codeLine="23" fill="#F1F1F1" height="153.6563" id="ArgumentException" rx="2.5" ry="2.5" style="stroke:#181818;stroke-width:0.5;" width="632" x="696" y="437"/><ellipse cx="946.75" cy="453" fill="#ADD1B2" rx="11" ry="11" style="stroke:#181818;stroke-width:1.0;"/><path d="M949.5156,448.875 Q949.6719,448.6563 949.8594,448.5469 Q950.0469,448.4375 950.2656,448.4375 Q950.6406,448.4375 950.875,448.6953 Q951.1094,448.9531 951.1094,449.5625 L951.1094,451.0156 Q951.1094,451.625 950.875,451.8906 Q950.6406,452.1563 950.2656,452.1563 Q949.9219,452.1563 949.7188,451.9531 Q949.5156,451.7656 949.4063,451.25 Q949.3594,450.8906 949.1719,450.7031 Q948.8438,450.3281 948.2344,450.1094 Q947.625,449.8906 947,449.8906 Q946.2344,449.8906 945.6016,450.2188 Q944.9688,450.5469 944.4766,451.2969 Q943.9844,452.0469 943.9844,453.0781 L943.9844,454.1719 Q943.9844,455.4063 944.875,456.2266 Q945.7656,457.0469 947.3594,457.0469 Q948.2969,457.0469 948.9531,456.7969 Q949.3438,456.6406 949.7656,456.2031 Q950.0313,455.9375 950.1797,455.8594 Q950.3281,455.7813 950.5313,455.7813 Q950.8594,455.7813 951.1172,456.0391 Q951.375,456.2969 951.375,456.6406 Q951.375,456.9844 951.0313,457.3906 Q950.5313,457.9688 949.7344,458.2969 Q948.6563,458.75 947.3594,458.75 Q945.8438,458.75 944.6406,458.125 Q943.6563,457.625 942.9688,456.5547 Q942.2813,455.4844 942.2813,454.2031 L942.2813,453.0469 Q942.2813,451.7188 942.8984,450.5703 Q943.5156,449.4219 944.6094,448.8047 Q945.7031,448.1875 946.9375,448.1875 Q947.6719,448.1875 948.3203,448.3516 Q948.9688,448.5156 949.5156,448.875 Z " fill="#000000"/><text fill="#000000" font-family="sans-serif" font-size="14" lengthAdjust="spacing" textLength="122" x="967.25" y="458.7285">ArgumentException</text><line style="stroke:#181818;stroke-width:0.5;" x1="697" x2="1327" y1="469" y2="469"/><text fill="#000000" font-family="sans-serif" font-size="14" lengthAdjust="spacing" textLength="164" x="702" y="487.5332">ParamName : string &#171;get&#187;</text><line style="stroke:#181818;stroke-width:0.5;" x1="697" x2="1327" y1="494.6094" y2="494.6094"/><ellipse cx="707" cy="508.9141" fill="#84BE84" rx="3" ry="3" style="stroke:#038048;stroke-width:1.0;"/><text fill="#000000" font-family="sans-serif" font-size="14" lengthAdjust="spacing" textLength="132" x="716" y="513.1426">ArgumentException()</text><ellipse cx="707" cy="526.5234" fill="#84BE84" rx="3" ry="3" style="stroke:#038048;stroke-width:1.0;"/><text fill="#000000" font-family="sans-serif" font-size="14" lengthAdjust="spacing" textLength="252" x="716" y="530.752">ArgumentException(p_message : string)</text><ellipse cx="707" cy="544.1328" fill="#84BE84" rx="3" ry="3" style="stroke:#038048;stroke-width:1.0;"/><text fill="#000000" font-family="sans-serif" font-size="14" lengthAdjust="spacing" textLength="442" x="716" y="548.3613">ArgumentException(p_message : string, p_innerException : Exception)</text><ellipse cx="707" cy="561.7422" fill="#84BE84" rx="3" ry="3" style="stroke:#038048;stroke-width:1.0;"/><text fill="#000000" font-family="sans-serif" font-size="14" lengthAdjust="spacing" textLength="416" x="716" y="565.9707">ArgumentException(p_message : string, p_nomParametre : string)</text><ellipse cx="707" cy="579.3516" fill="#84BE84" rx="3" ry="3" style="stroke:#038048;stroke-width:1.0;"/><text fill="#000000" font-family="sans-serif" font-size="14" lengthAdjust="spacing" textLength="606" x="716" y="583.5801">ArgumentException(p_message : string, p_nomParametre : string, p_innerException : Exception)</text></g><!--reverse link Object to Exception--><g id="link_Object_Exception"><path codeLine="2" d="M451,73.12 C451,88.97 451,92.97 451,114.67 " fill="none" id="Object-backto-Exception" style="stroke:#181818;stroke-width:1.0;"/><polygon fill="none" points="451,55.12,445,73.12,457,73.12,451,55.12" style="stroke:#181818;stroke-width:1.0;"/></g><!--reverse link Exception to SystemException--><g id="link_Exception_SystemException"><path codeLine="4" d="M451,287.24 C451,308.92 451,312.92 451,328.78 " fill="none" id="Exception-backto-SystemException" style="stroke:#181818;stroke-width:1.0;"/><polygon fill="none" points="451,269.24,445,287.24,457,287.24,451,269.24" style="stroke:#181818;stroke-width:1.0;"/></g><!--reverse link SystemException to IndexOutOfRangeException--><g id="link_SystemException_IndexOutOfRangeException"><path codeLine="6" d="M364.2128,381.8586 C319.9328,396.8686 278.98,412.62 230,437 C198.98,452.44 165.87,473.83 142.3,489.98 " fill="none" id="SystemException-backto-IndexOutOfRangeException" style="stroke:#181818;stroke-width:1.0;"/><polygon fill="none" points="381.26,376.08,362.2866,376.1762,366.139,387.5411,381.26,376.08" style="stroke:#181818;stroke-width:1.0;"/></g><!--reverse link SystemException to NullReferenceException--><g id="link_SystemException_NullReferenceException"><path codeLine="7" d="M424.3468,391.8375 C403.1168,421.9875 376.55,459.69 355.31,489.85 " fill="none" id="SystemException-backto-NullReferenceException" style="stroke:#181818;stroke-width:1.0;"/><polygon fill="none" points="434.71,377.12,419.4409,388.383,429.2526,395.2919,434.71,377.12" style="stroke:#181818;stroke-width:1.0;"/></g><!--reverse link SystemException to InvalidOperationException--><g id="link_SystemException_InvalidOperationException"><path codeLine="8" d="M477.6532,391.8375 C498.8832,421.9875 525.45,459.69 546.69,489.85 " fill="none" id="SystemException-backto-InvalidOperationException" style="stroke:#181818;stroke-width:1.0;"/><polygon fill="none" points="467.29,377.12,472.7474,395.2919,482.5591,388.383,467.29,377.12" style="stroke:#181818;stroke-width:1.0;"/></g><!--reverse link SystemException to ArgumentException--><g id="link_SystemException_ArgumentException"><path codeLine="10" d="M537.9481,378.6475 C594.6581,394.7175 661.24,413.59 743.73,436.97 " fill="none" id="SystemException-backto-ArgumentException" style="stroke:#181818;stroke-width:1.0;"/><polygon fill="none" points="520.63,373.74,536.3123,384.4202,539.5839,372.8748,520.63,373.74" style="stroke:#181818;stroke-width:1.0;"/></g><!--SRC=[dP11Zu8m58Jl_HKzhd7z0uQOUF30OSM8T_EipuPT-Y3jms3K_wxYhh020UsfcVawcMcm-KR5qZkDHdAMAqmvIaY8n_NkX0V7Q2h-at2dVDfY7cGSx9P06akyaPvdSRp47LearSNwj8SusWOfMhYfNKscLcS6YIkSYi6vSg8y2dazFX7QKXnN0C_Jo9D9WNsXSw3nwZks4Ub_PiYWVbOML8DV0CCozMDGKzArUKhlmtpAT1srbXy8SVwRNFkBt-aBi63cODfRrru-sjUTzXLzsAurhoLHOefnoFRzEeqXFNxz0W00]--></g></svg>