<?xml version="1.0" encoding="UTF-8" standalone="no"?><svg xmlns="http://www.w3.org/2000/svg" xmlns:xlink="http://www.w3.org/1999/xlink" contentScriptType="application/ecmascript" contentStyleType="text/css" height="546px" preserveAspectRatio="none" style="width:1203px;height:546px;" version="1.1" viewBox="0 0 1203 546" width="1203px" zoomAndPan="magnify"><defs><filter height="300%" id="f17f2khbqrqbxe" width="300%" x="-1" y="-1"><feGaussianBlur result="blurOut" stdDeviation="2.0"/><feColorMatrix in="blurOut" result="blurOut2" type="matrix" values="0 0 0 0 0 0 0 0 0 0 0 0 0 0 0 0 0 0 .4 0"/><feOffset dx="4.0" dy="4.0" in="blurOut2" result="blurOut3"/><feBlend in="SourceGraphic" in2="blurOut3" mode="normal"/></filter></defs><g><!--MD5=[aa7f586532e18719e6cefa70fc650583]
class Object--><rect fill="#FEFECE" filter="url(#f17f2khbqrqbxe)" height="48" id="Object" style="stroke: #A80036; stroke-width: 1.5;" width="70" x="384.5" y="8"/><ellipse cx="399.5" cy="24" fill="#ADD1B2" rx="11" ry="11" style="stroke: #A80036; stroke-width: 1.0;"/><path d="M401.9731,30.1431 Q401.3921,30.4419 400.7529,30.5913 Q400.1138,30.7407 399.4082,30.7407 Q396.9014,30.7407 395.5815,29.0889 Q394.2617,27.437 394.2617,24.3159 Q394.2617,21.1865 395.5815,19.5347 Q396.9014,17.8828 399.4082,17.8828 Q400.1138,17.8828 400.7612,18.0322 Q401.4087,18.1816 401.9731,18.4805 L401.9731,21.2031 Q401.3423,20.6221 400.7488,20.3523 Q400.1553,20.0825 399.5244,20.0825 Q398.1797,20.0825 397.4949,21.1492 Q396.8101,22.2158 396.8101,24.3159 Q396.8101,26.4077 397.4949,27.4744 Q398.1797,28.541 399.5244,28.541 Q400.1553,28.541 400.7488,28.2712 Q401.3423,28.0015 401.9731,27.4204 Z "/><text fill="#000000" font-family="sans-serif" font-size="12" lengthAdjust="spacingAndGlyphs" textLength="38" x="413.5" y="28.5352">Object</text><line style="stroke: #A80036; stroke-width: 1.5;" x1="385.5" x2="453.5" y1="40" y2="40"/><line style="stroke: #A80036; stroke-width: 1.5;" x1="385.5" x2="453.5" y1="48" y2="48"/><!--MD5=[8db60afef7a3447bbe27c5ed187fdac2]
class Exception--><rect fill="#FEFECE" filter="url(#f17f2khbqrqbxe)" height="125.7305" id="Exception" style="stroke: #A80036; stroke-width: 1.5;" width="350" x="244.5" y="116"/><ellipse cx="387.25" cy="132" fill="#ADD1B2" rx="11" ry="11" style="stroke: #A80036; stroke-width: 1.0;"/><path d="M389.7231,138.1431 Q389.1421,138.4419 388.5029,138.5913 Q387.8638,138.7407 387.1582,138.7407 Q384.6514,138.7407 383.3315,137.0889 Q382.0117,135.437 382.0117,132.3159 Q382.0117,129.1865 383.3315,127.5347 Q384.6514,125.8828 387.1582,125.8828 Q387.8638,125.8828 388.5112,126.0322 Q389.1587,126.1816 389.7231,126.4805 L389.7231,129.2031 Q389.0923,128.6221 388.4988,128.3523 Q387.9053,128.0825 387.2744,128.0825 Q385.9297,128.0825 385.2449,129.1492 Q384.5601,130.2158 384.5601,132.3159 Q384.5601,134.4077 385.2449,135.4744 Q385.9297,136.541 387.2744,136.541 Q387.9053,136.541 388.4988,136.2712 Q389.0923,136.0015 389.7231,135.4204 Z "/><text fill="#000000" font-family="sans-serif" font-size="12" lengthAdjust="spacingAndGlyphs" textLength="56" x="407.75" y="136.5352">Exception</text><line style="stroke: #A80036; stroke-width: 1.5;" x1="245.5" x2="593.5" y1="148" y2="148"/><text fill="#000000" font-family="sans-serif" font-size="11" lengthAdjust="spacingAndGlyphs" textLength="175" x="250.5" y="162.6348">InnerException : Exception «get»</text><text fill="#000000" font-family="sans-serif" font-size="11" lengthAdjust="spacingAndGlyphs" textLength="119" x="250.5" y="175.5898">Message : string «get»</text><text fill="#000000" font-family="sans-serif" font-size="11" lengthAdjust="spacingAndGlyphs" textLength="131" x="250.5" y="188.5449">StackTrace : string «get»</text><line style="stroke: #A80036; stroke-width: 1.5;" x1="245.5" x2="593.5" y1="194.8652" y2="194.8652"/><ellipse cx="255.5" cy="205.8652" fill="#84BE84" rx="3" ry="3" style="stroke: #038048; stroke-width: 1.0;"/><text fill="#000000" font-family="sans-serif" font-size="11" lengthAdjust="spacingAndGlyphs" textLength="61" x="264.5" y="209.5">Exception()</text><ellipse cx="255.5" cy="218.8203" fill="#84BE84" rx="3" ry="3" style="stroke: #038048; stroke-width: 1.0;"/><text fill="#000000" font-family="sans-serif" font-size="11" lengthAdjust="spacingAndGlyphs" textLength="162" x="264.5" y="222.4551">Exception(p_message : string)</text><ellipse cx="255.5" cy="231.7754" fill="#84BE84" rx="3" ry="3" style="stroke: #038048; stroke-width: 1.0;"/><text fill="#000000" font-family="sans-serif" font-size="11" lengthAdjust="spacingAndGlyphs" textLength="324" x="264.5" y="235.4102">Exception(p_message : string, p_innerException : Exception)</text><!--MD5=[66422815084ba23d8870f01e7424f1b1]
class SystemException--><rect fill="#FEFECE" filter="url(#f17f2khbqrqbxe)" height="48" id="SystemException" style="stroke: #A80036; stroke-width: 1.5;" width="128" x="355.5" y="302"/><ellipse cx="370.5" cy="318" fill="#ADD1B2" rx="11" ry="11" style="stroke: #A80036; stroke-width: 1.0;"/><path d="M372.9731,324.1431 Q372.3921,324.4419 371.7529,324.5913 Q371.1138,324.7407 370.4082,324.7407 Q367.9014,324.7407 366.5815,323.0889 Q365.2617,321.437 365.2617,318.3159 Q365.2617,315.1865 366.5815,313.5347 Q367.9014,311.8828 370.4082,311.8828 Q371.1138,311.8828 371.7612,312.0322 Q372.4087,312.1816 372.9731,312.4805 L372.9731,315.2031 Q372.3423,314.6221 371.7488,314.3523 Q371.1553,314.0825 370.5244,314.0825 Q369.1797,314.0825 368.4949,315.1492 Q367.8101,316.2158 367.8101,318.3159 Q367.8101,320.4077 368.4949,321.4744 Q369.1797,322.541 370.5244,322.541 Q371.1553,322.541 371.7488,322.2712 Q372.3423,322.0015 372.9731,321.4204 Z "/><text fill="#000000" font-family="sans-serif" font-size="12" lengthAdjust="spacingAndGlyphs" textLength="96" x="384.5" y="322.5352">SystemException</text><line style="stroke: #A80036; stroke-width: 1.5;" x1="356.5" x2="482.5" y1="334" y2="334"/><line style="stroke: #A80036; stroke-width: 1.5;" x1="356.5" x2="482.5" y1="342" y2="342"/><!--MD5=[f37177450992998d1423298c0cf8ccd7]
class IndexOutOfRangeException--><rect fill="#FEFECE" filter="url(#f17f2khbqrqbxe)" height="48" id="IndexOutOfRangeException" style="stroke: #A80036; stroke-width: 1.5;" width="189" x="6" y="449"/><ellipse cx="21" cy="465" fill="#ADD1B2" rx="11" ry="11" style="stroke: #A80036; stroke-width: 1.0;"/><path d="M23.4731,471.1431 Q22.8921,471.4419 22.2529,471.5913 Q21.6138,471.7407 20.9082,471.7407 Q18.4014,471.7407 17.0815,470.0889 Q15.7617,468.437 15.7617,465.3159 Q15.7617,462.1865 17.0815,460.5347 Q18.4014,458.8828 20.9082,458.8828 Q21.6138,458.8828 22.2612,459.0322 Q22.9087,459.1816 23.4731,459.4805 L23.4731,462.2031 Q22.8423,461.6221 22.2488,461.3523 Q21.6553,461.0825 21.0244,461.0825 Q19.6797,461.0825 18.9949,462.1492 Q18.3101,463.2158 18.3101,465.3159 Q18.3101,467.4077 18.9949,468.4744 Q19.6797,469.541 21.0244,469.541 Q21.6553,469.541 22.2488,469.2712 Q22.8423,469.0015 23.4731,468.4204 Z "/><text fill="#000000" font-family="sans-serif" font-size="12" lengthAdjust="spacingAndGlyphs" textLength="157" x="35" y="469.5352">IndexOutOfRangeException</text><line style="stroke: #A80036; stroke-width: 1.5;" x1="7" x2="194" y1="481" y2="481"/><line style="stroke: #A80036; stroke-width: 1.5;" x1="7" x2="194" y1="489" y2="489"/><!--MD5=[5122ea168f8bb6a33869bf3b65a140b8]
class NullReferenceException--><rect fill="#FEFECE" filter="url(#f17f2khbqrqbxe)" height="48" id="NullReferenceException" style="stroke: #A80036; stroke-width: 1.5;" width="168" x="230.5" y="449"/><ellipse cx="245.5" cy="465" fill="#ADD1B2" rx="11" ry="11" style="stroke: #A80036; stroke-width: 1.0;"/><path d="M247.9731,471.1431 Q247.3921,471.4419 246.7529,471.5913 Q246.1138,471.7407 245.4082,471.7407 Q242.9014,471.7407 241.5815,470.0889 Q240.2617,468.437 240.2617,465.3159 Q240.2617,462.1865 241.5815,460.5347 Q242.9014,458.8828 245.4082,458.8828 Q246.1138,458.8828 246.7612,459.0322 Q247.4087,459.1816 247.9731,459.4805 L247.9731,462.2031 Q247.3423,461.6221 246.7488,461.3523 Q246.1553,461.0825 245.5244,461.0825 Q244.1797,461.0825 243.4949,462.1492 Q242.8101,463.2158 242.8101,465.3159 Q242.8101,467.4077 243.4949,468.4744 Q244.1797,469.541 245.5244,469.541 Q246.1553,469.541 246.7488,469.2712 Q247.3423,469.0015 247.9731,468.4204 Z "/><text fill="#000000" font-family="sans-serif" font-size="12" lengthAdjust="spacingAndGlyphs" textLength="136" x="259.5" y="469.5352">NullReferenceException</text><line style="stroke: #A80036; stroke-width: 1.5;" x1="231.5" x2="397.5" y1="481" y2="481"/><line style="stroke: #A80036; stroke-width: 1.5;" x1="231.5" x2="397.5" y1="489" y2="489"/><!--MD5=[e85ab6a3f2258eff06ede6ec8714b2e3]
class InvalidOperationException--><rect fill="#FEFECE" filter="url(#f17f2khbqrqbxe)" height="48" id="InvalidOperationException" style="stroke: #A80036; stroke-width: 1.5;" width="182" x="433.5" y="449"/><ellipse cx="448.5" cy="465" fill="#ADD1B2" rx="11" ry="11" style="stroke: #A80036; stroke-width: 1.0;"/><path d="M450.9731,471.1431 Q450.3921,471.4419 449.7529,471.5913 Q449.1138,471.7407 448.4082,471.7407 Q445.9014,471.7407 444.5815,470.0889 Q443.2617,468.437 443.2617,465.3159 Q443.2617,462.1865 444.5815,460.5347 Q445.9014,458.8828 448.4082,458.8828 Q449.1138,458.8828 449.7612,459.0322 Q450.4087,459.1816 450.9731,459.4805 L450.9731,462.2031 Q450.3423,461.6221 449.7488,461.3523 Q449.1553,461.0825 448.5244,461.0825 Q447.1797,461.0825 446.4949,462.1492 Q445.8101,463.2158 445.8101,465.3159 Q445.8101,467.4077 446.4949,468.4744 Q447.1797,469.541 448.5244,469.541 Q449.1553,469.541 449.7488,469.2712 Q450.3423,469.0015 450.9731,468.4204 Z "/><text fill="#000000" font-family="sans-serif" font-size="12" lengthAdjust="spacingAndGlyphs" textLength="150" x="462.5" y="469.5352">InvalidOperationException</text><line style="stroke: #A80036; stroke-width: 1.5;" x1="434.5" x2="614.5" y1="481" y2="481"/><line style="stroke: #A80036; stroke-width: 1.5;" x1="434.5" x2="614.5" y1="489" y2="489"/><!--MD5=[3f8f3a60cf04f4acd30b0a7952307371]
class ArgumentException--><rect fill="#FEFECE" filter="url(#f17f2khbqrqbxe)" height="125.7305" id="ArgumentException" style="stroke: #A80036; stroke-width: 1.5;" width="542" x="650.5" y="410"/><ellipse cx="861.25" cy="426" fill="#ADD1B2" rx="11" ry="11" style="stroke: #A80036; stroke-width: 1.0;"/><path d="M863.7231,432.1431 Q863.1421,432.4419 862.5029,432.5913 Q861.8638,432.7407 861.1582,432.7407 Q858.6514,432.7407 857.3315,431.0889 Q856.0117,429.437 856.0117,426.3159 Q856.0117,423.1865 857.3315,421.5347 Q858.6514,419.8828 861.1582,419.8828 Q861.8638,419.8828 862.5112,420.0322 Q863.1587,420.1816 863.7231,420.4805 L863.7231,423.2031 Q863.0923,422.6221 862.4988,422.3523 Q861.9053,422.0825 861.2744,422.0825 Q859.9297,422.0825 859.2449,423.1492 Q858.5601,424.2158 858.5601,426.3159 Q858.5601,428.4077 859.2449,429.4744 Q859.9297,430.541 861.2744,430.541 Q861.9053,430.541 862.4988,430.2712 Q863.0923,430.0015 863.7231,429.4204 Z "/><text fill="#000000" font-family="sans-serif" font-size="12" lengthAdjust="spacingAndGlyphs" textLength="112" x="881.75" y="430.5352">ArgumentException</text><line style="stroke: #A80036; stroke-width: 1.5;" x1="651.5" x2="1191.5" y1="442" y2="442"/><text fill="#000000" font-family="sans-serif" font-size="11" lengthAdjust="spacingAndGlyphs" textLength="136" x="656.5" y="456.6348">ParamName : string «get»</text><line style="stroke: #A80036; stroke-width: 1.5;" x1="651.5" x2="1191.5" y1="462.9551" y2="462.9551"/><ellipse cx="661.5" cy="473.9551" fill="#84BE84" rx="3" ry="3" style="stroke: #038048; stroke-width: 1.0;"/><text fill="#000000" font-family="sans-serif" font-size="11" lengthAdjust="spacingAndGlyphs" textLength="115" x="670.5" y="477.5898">ArgumentException()</text><ellipse cx="661.5" cy="486.9102" fill="#84BE84" rx="3" ry="3" style="stroke: #038048; stroke-width: 1.0;"/><text fill="#000000" font-family="sans-serif" font-size="11" lengthAdjust="spacingAndGlyphs" textLength="216" x="670.5" y="490.5449">ArgumentException(p_message : string)</text><ellipse cx="661.5" cy="499.8652" fill="#84BE84" rx="3" ry="3" style="stroke: #038048; stroke-width: 1.0;"/><text fill="#000000" font-family="sans-serif" font-size="11" lengthAdjust="spacingAndGlyphs" textLength="378" x="670.5" y="503.5">ArgumentException(p_message : string, p_innerException : Exception)</text><ellipse cx="661.5" cy="512.8203" fill="#84BE84" rx="3" ry="3" style="stroke: #038048; stroke-width: 1.0;"/><text fill="#000000" font-family="sans-serif" font-size="11" lengthAdjust="spacingAndGlyphs" textLength="354" x="670.5" y="516.4551">ArgumentException(p_message : string, p_nomParametre : string)</text><ellipse cx="661.5" cy="525.7754" fill="#84BE84" rx="3" ry="3" style="stroke: #038048; stroke-width: 1.0;"/><text fill="#000000" font-family="sans-serif" font-size="11" lengthAdjust="spacingAndGlyphs" textLength="516" x="670.5" y="529.4102">ArgumentException(p_message : string, p_nomParametre : string, p_innerException : Exception)</text><!--MD5=[a2dae70d4a967aac1c60a1174929b81b]
reverse link Object to Exception--><path d="M419.5,76.71 C419.5,89.06 419.5,102.75 419.5,115.96 " fill="none" id="Object&lt;-Exception" style="stroke: #A80036; stroke-width: 1.0;"/><polygon fill="none" points="412.5,76.3,419.5,56.3,426.5,76.3,412.5,76.3" style="stroke: #A80036; stroke-width: 1.0;"/><!--MD5=[3a6789b07d32143821c4b6dfc94386d2]
reverse link Exception to SystemException--><path d="M419.5,262.66 C419.5,276.96 419.5,290.72 419.5,301.65 " fill="none" id="Exception&lt;-SystemException" style="stroke: #A80036; stroke-width: 1.0;"/><polygon fill="none" points="412.5,262.33,419.5,242.33,426.5,262.33,412.5,262.33" style="stroke: #A80036; stroke-width: 1.0;"/><!--MD5=[c21b2f5c82144fae8d017739e83ba38b]
reverse link SystemException to IndexOutOfRangeException--><path d="M337.38,357.23 C298.97,372.05 252.89,390.81 212.5,410 C187.61,421.82 160.55,436.74 139.27,448.98 " fill="none" id="SystemException&lt;-IndexOutOfRangeException" style="stroke: #A80036; stroke-width: 1.0;"/><polygon fill="none" points="334.94,350.66,356.13,350.07,339.94,363.74,334.94,350.66" style="stroke: #A80036; stroke-width: 1.0;"/><!--MD5=[eb88fbda5eafae6989821e8aaaa5148f]
reverse link SystemException to NullReferenceException--><path d="M390.73,366.74 C371.66,393.06 347.31,426.69 331.33,448.76 " fill="none" id="SystemException&lt;-NullReferenceException" style="stroke: #A80036; stroke-width: 1.0;"/><polygon fill="none" points="385.23,362.39,402.63,350.3,396.57,370.6,385.23,362.39" style="stroke: #A80036; stroke-width: 1.0;"/><!--MD5=[3e6d0630283ca2c68befc4c3f5a9e9ad]
reverse link SystemException to InvalidOperationException--><path d="M448.27,366.74 C467.34,393.06 491.69,426.69 507.67,448.76 " fill="none" id="SystemException&lt;-InvalidOperationException" style="stroke: #A80036; stroke-width: 1.0;"/><polygon fill="none" points="442.43,370.6,436.37,350.3,453.77,362.39,442.43,370.6" style="stroke: #A80036; stroke-width: 1.0;"/><!--MD5=[16404263cc7bc2b51f0dd4f30a01eeb5]
reverse link SystemException to ArgumentException--><path d="M503.15,351.16 C558.86,367.25 634.76,389.18 706.63,409.94 " fill="none" id="SystemException&lt;-ArgumentException" style="stroke: #A80036; stroke-width: 1.0;"/><polygon fill="none" points="500.86,357.79,483.59,345.51,504.75,344.34,500.86,357.79" style="stroke: #A80036; stroke-width: 1.0;"/><!--MD5=[02147f0f01d6f2f363a5fb8d09d4afd8]
@startuml Exception

Object <|- - Exception

Exception <|- - SystemException

SystemException <|- - IndexOutOfRangeException
SystemException <|- - NullReferenceException
SystemException <|- - InvalidOperationException

SystemException <|- - ArgumentException

class Exception {
    InnerException : Exception <<get>>
    Message : string <<get>>
    StackTrace : string <<get>>

    + Exception()
    + Exception(p_message : string)
    + Exception(p_message : string, p_innerException : Exception)

}

class ArgumentException {
    ParamName : string <<get>>

    + ArgumentException()
    + ArgumentException(p_message : string)
    + ArgumentException(p_message : string, p_innerException : Exception)
    + ArgumentException(p_message : string, p_nomParametre : string)
    + ArgumentException(p_message : string, p_nomParametre : string, p_innerException : Exception)

}

@enduml

PlantUML version 1.2020.10(Sun May 17 05:35:57 EDT 2020)
(GPL source distribution)
Java Runtime: OpenJDK Runtime Environment
JVM: OpenJDK 64-Bit Server VM
Java Version: 13.0.2+8
Operating System: Mac OS X
Default Encoding: UTF-8
Language: fr
Country: CA
--></g></svg>