<?xml version="1.0" encoding="UTF-8" standalone="no"?><svg xmlns="http://www.w3.org/2000/svg" xmlns:xlink="http://www.w3.org/1999/xlink" contentScriptType="application/ecmascript" contentStyleType="text/css" height="213px" preserveAspectRatio="none" style="width:112px;height:213px;" version="1.1" viewBox="0 0 112 213" width="112px" zoomAndPan="magnify"><defs><filter height="300%" id="f1agk1ia45egnc" width="300%" x="-1" y="-1"><feGaussianBlur result="blurOut" stdDeviation="2.0"/><feColorMatrix in="blurOut" result="blurOut2" type="matrix" values="0 0 0 0 0 0 0 0 0 0 0 0 0 0 0 0 0 0 .4 0"/><feOffset dx="4.0" dy="4.0" in="blurOut2" result="blurOut3"/><feBlend in="SourceGraphic" in2="blurOut3" mode="normal"/></filter></defs><g><!--MD5=[b45e2b44bcaac741a5cd2486a65a0a85]
class Bouton--><rect fill="#FFFFFF" filter="url(#f1agk1ia45egnc)" height="60.9551" id="Bouton" style="stroke: #000000; stroke-width: 1.5;" width="95" x="6" y="8"/><ellipse cx="31.8" cy="24" fill="#ADD1B2" rx="11" ry="11" style="stroke: #000000; stroke-width: 1.0;"/><path d="M34.2731,30.1431 Q33.6921,30.4419 33.0529,30.5913 Q32.4138,30.7407 31.7082,30.7407 Q29.2014,30.7407 27.8815,29.0889 Q26.5617,27.437 26.5617,24.3159 Q26.5617,21.1865 27.8815,19.5347 Q29.2014,17.8828 31.7082,17.8828 Q32.4138,17.8828 33.0612,18.0322 Q33.7087,18.1816 34.2731,18.4805 L34.2731,21.2031 Q33.6423,20.6221 33.0488,20.3523 Q32.4553,20.0825 31.8244,20.0825 Q30.4797,20.0825 29.7949,21.1492 Q29.1101,22.2158 29.1101,24.3159 Q29.1101,26.4077 29.7949,27.4744 Q30.4797,28.541 31.8244,28.541 Q32.4553,28.541 33.0488,28.2712 Q33.6423,28.0015 34.2731,27.4204 Z "/><text fill="#000000" font-family="sans-serif" font-size="12" lengthAdjust="spacingAndGlyphs" textLength="39" x="48.2" y="28.5352">Bouton</text><line style="stroke: #000000; stroke-width: 1.5;" x1="7" x2="100" y1="40" y2="40"/><line style="stroke: #000000; stroke-width: 1.5;" x1="7" x2="100" y1="48" y2="48"/><text fill="#000000" font-family="sans-serif" font-size="11" lengthAdjust="spacingAndGlyphs" textLength="83" x="12" y="62.6348">+ChangerEtat()</text><!--MD5=[26c21ef246a5aba7ae3bdc5d6b394b6a]
class Lampe--><rect fill="#FFFFFF" filter="url(#f1agk1ia45egnc)" height="73.9102" id="Lampe" style="stroke: #000000; stroke-width: 1.5;" width="73" x="17" y="129"/><ellipse cx="32.9" cy="145" fill="#ADD1B2" rx="11" ry="11" style="stroke: #000000; stroke-width: 1.0;"/><path d="M35.3731,151.1431 Q34.7921,151.4419 34.1529,151.5913 Q33.5138,151.7407 32.8082,151.7407 Q30.3014,151.7407 28.9815,150.0889 Q27.6617,148.437 27.6617,145.3159 Q27.6617,142.1865 28.9815,140.5347 Q30.3014,138.8828 32.8082,138.8828 Q33.5138,138.8828 34.1612,139.0322 Q34.8087,139.1816 35.3731,139.4805 L35.3731,142.2031 Q34.7423,141.6221 34.1488,141.3523 Q33.5553,141.0825 32.9244,141.0825 Q31.5797,141.0825 30.8949,142.1492 Q30.2101,143.2158 30.2101,145.3159 Q30.2101,147.4077 30.8949,148.4744 Q31.5797,149.541 32.9244,149.541 Q33.5553,149.541 34.1488,149.2712 Q34.7423,149.0015 35.3731,148.4204 Z "/><text fill="#000000" font-family="sans-serif" font-size="12" lengthAdjust="spacingAndGlyphs" textLength="39" x="47.1" y="149.5352">Lampe</text><line style="stroke: #000000; stroke-width: 1.5;" x1="18" x2="89" y1="161" y2="161"/><line style="stroke: #000000; stroke-width: 1.5;" x1="18" x2="89" y1="169" y2="169"/><text fill="#000000" font-family="sans-serif" font-size="11" lengthAdjust="spacingAndGlyphs" textLength="59" x="23" y="183.6348">+Allumer()</text><text fill="#000000" font-family="sans-serif" font-size="11" lengthAdjust="spacingAndGlyphs" textLength="61" x="23" y="196.5898">+Eteindre()</text><!--MD5=[76d3e9831be008fc85dc976db656462b]
link Bouton to Lampe--><path d="M53.5,69.24 C53.5,85.4 53.5,105.64 53.5,123.35 " fill="none" id="Bouton-&gt;Lampe" style="stroke: #A80036; stroke-width: 1.0;"/><polygon fill="#A80036" points="53.5,128.76,57.5,119.76,53.5,123.76,49.5,119.76,53.5,128.76" style="stroke: #A80036; stroke-width: 1.0;"/><!--MD5=[32ba8209cb6f87e8dc99989662de1b0d]
@startuml DIP_v02

skinparam classAttributeIconSize 0
skinparam class {
    BackgroundColor White
    BorderColor #000
}
allowmixing
' skinparam linetype ortho

Bouton - -> Lampe

class Bouton {
    + ChangerEtat()
}

class Lampe {
    + Allumer()
    + Eteindre()
}

@enduml

@startuml DIP_v02

skinparam classAttributeIconSize 0
skinparam class {
    BackgroundColor White
    BorderColor #000
}
allowmixing

Bouton - -> Lampe

class Bouton {
    + ChangerEtat()
}

class Lampe {
    + Allumer()
    + Eteindre()
}

@enduml

PlantUML version 1.2020.10(Sun May 17 05:35:57 EDT 2020)
(GPL source distribution)
Java Runtime: OpenJDK Runtime Environment
JVM: OpenJDK 64-Bit Server VM
Java Version: 13.0.2+8
Operating System: Mac OS X
Default Encoding: UTF-8
Language: fr
Country: CA
--></g></svg>