<?xml version="1.0" encoding="UTF-8" standalone="no"?><svg xmlns="http://www.w3.org/2000/svg" xmlns:xlink="http://www.w3.org/1999/xlink" contentScriptType="application/ecmascript" contentStyleType="text/css" height="239px" preserveAspectRatio="none" style="width:166px;height:239px;" version="1.1" viewBox="0 0 166 239" width="166px" zoomAndPan="magnify"><defs><filter height="300%" id="f16lx9u6r35wu7" width="300%" x="-1" y="-1"><feGaussianBlur result="blurOut" stdDeviation="2.0"/><feColorMatrix in="blurOut" result="blurOut2" type="matrix" values="0 0 0 0 0 0 0 0 0 0 0 0 0 0 0 0 0 0 .4 0"/><feOffset dx="4.0" dy="4.0" in="blurOut2" result="blurOut3"/><feBlend in="SourceGraphic" in2="blurOut3" mode="normal"/></filter></defs><g><!--MD5=[0dd3361ca4b0da0e3a3d975f587489e4]
class Panier--><rect fill="#FFFFFF" filter="url(#f16lx9u6r35wu7)" height="99.8203" id="Panier" style="stroke: #000000; stroke-width: 1.5;" width="149" x="6" y="8"/><ellipse cx="58.25" cy="24" fill="#ADD1B2" rx="11" ry="11" style="stroke: #000000; stroke-width: 1.0;"/><path d="M60.7231,30.1431 Q60.1421,30.4419 59.5029,30.5913 Q58.8638,30.7407 58.1582,30.7407 Q55.6514,30.7407 54.3315,29.0889 Q53.0117,27.437 53.0117,24.3159 Q53.0117,21.1865 54.3315,19.5347 Q55.6514,17.8828 58.1582,17.8828 Q58.8638,17.8828 59.5112,18.0322 Q60.1587,18.1816 60.7231,18.4805 L60.7231,21.2031 Q60.0923,20.6221 59.4988,20.3523 Q58.9053,20.0825 58.2744,20.0825 Q56.9297,20.0825 56.2449,21.1492 Q55.5601,22.2158 55.5601,24.3159 Q55.5601,26.4077 56.2449,27.4744 Q56.9297,28.541 58.2744,28.541 Q58.9053,28.541 59.4988,28.2712 Q60.0923,28.0015 60.7231,27.4204 Z "/><text fill="#000000" font-family="sans-serif" font-size="12" lengthAdjust="spacingAndGlyphs" textLength="36" x="78.75" y="28.5352">Panier</text><line style="stroke: #000000; stroke-width: 1.5;" x1="7" x2="154" y1="40" y2="40"/><line style="stroke: #000000; stroke-width: 1.5;" x1="7" x2="154" y1="48" y2="48"/><text fill="#000000" font-family="sans-serif" font-size="11" lengthAdjust="spacingAndGlyphs" textLength="134" x="12" y="62.6348">+Ajouter(article : Article)</text><text fill="#000000" font-family="sans-serif" font-size="11" lengthAdjust="spacingAndGlyphs" textLength="137" x="12" y="75.5898">+Annuler(article : Article)</text><text fill="#000000" font-family="sans-serif" font-size="11" lengthAdjust="spacingAndGlyphs" textLength="84" x="12" y="88.5449">+Sauvegarder()</text><text fill="#000000" font-family="sans-serif" font-size="11" lengthAdjust="spacingAndGlyphs" textLength="66" x="12" y="101.5">+Imprimer()</text><!--MD5=[d22815ff63be9cac9a63f8d1ea27d033]
class Article--><rect fill="#FFFFFF" filter="url(#f16lx9u6r35wu7)" height="60.9551" id="Article" style="stroke: #000000; stroke-width: 1.5;" width="78" x="41.5" y="168"/><ellipse cx="61" cy="184" fill="#ADD1B2" rx="11" ry="11" style="stroke: #000000; stroke-width: 1.0;"/><path d="M63.4731,190.1431 Q62.8921,190.4419 62.2529,190.5913 Q61.6138,190.7407 60.9082,190.7407 Q58.4014,190.7407 57.0815,189.0889 Q55.7617,187.437 55.7617,184.3159 Q55.7617,181.1865 57.0815,179.5347 Q58.4014,177.8828 60.9082,177.8828 Q61.6138,177.8828 62.2612,178.0322 Q62.9087,178.1816 63.4731,178.4805 L63.4731,181.2031 Q62.8423,180.6221 62.2488,180.3523 Q61.6553,180.0825 61.0244,180.0825 Q59.6797,180.0825 58.9949,181.1492 Q58.3101,182.2158 58.3101,184.3159 Q58.3101,186.4077 58.9949,187.4744 Q59.6797,188.541 61.0244,188.541 Q61.6553,188.541 62.2488,188.2712 Q62.8423,188.0015 63.4731,187.4204 Z "/><text fill="#000000" font-family="sans-serif" font-size="12" lengthAdjust="spacingAndGlyphs" textLength="36" x="76" y="188.5352">Article</text><line style="stroke: #000000; stroke-width: 1.5;" x1="42.5" x2="118.5" y1="200" y2="200"/><line style="stroke: #000000; stroke-width: 1.5;" x1="42.5" x2="118.5" y1="208" y2="208"/><text fill="#000000" font-family="sans-serif" font-size="11" lengthAdjust="spacingAndGlyphs" textLength="66" x="47.5" y="222.6348">+Imprimer()</text><!--MD5=[9d5f6204742c54563cf45f023d6b0978]
link Panier to Article--><path d="M80.5,108.22 C80.5,126.26 80.5,146.28 80.5,162.79 " fill="none" id="Panier-&gt;Article" style="stroke: #A80036; stroke-width: 1.0;"/><polygon fill="#A80036" points="80.5,167.79,84.5,158.79,80.5,162.79,76.5,158.79,80.5,167.79" style="stroke: #A80036; stroke-width: 1.0;"/><text fill="#000000" font-family="sans-serif" font-size="13" lengthAdjust="spacingAndGlyphs" textLength="6" x="73.8438" y="157.0388">*</text><!--MD5=[bc78136c1f14629cd03601a93e0c281f]
@startuml SRP_V01

skinparam classAttributeIconSize 0
skinparam class {
    BackgroundColor White
    BorderColor #000
}

Panier - -> "*" Article

class Article {
    + Imprimer()
}

class Panier {
    '+ Articles : List<Article> <<get>> <<private set>>
    + Ajouter(article : Article)
    + Annuler(article : Article)
    + Sauvegarder()
    + Imprimer()
}

@enduml

@startuml SRP_V01

skinparam classAttributeIconSize 0
skinparam class {
    BackgroundColor White
    BorderColor #000
}

Panier - -> "*" Article

class Article {
    + Imprimer()
}

class Panier {
    + Ajouter(article : Article)
    + Annuler(article : Article)
    + Sauvegarder()
    + Imprimer()
}

@enduml

PlantUML version 1.2020.10(Sun May 17 05:35:57 EDT 2020)
(GPL source distribution)
Java Runtime: OpenJDK Runtime Environment
JVM: OpenJDK 64-Bit Server VM
Java Version: 13.0.2+8
Operating System: Mac OS X
Default Encoding: UTF-8
Language: fr
Country: CA
--></g></svg>