<?xml version="1.0" encoding="us-ascii" standalone="no"?><svg xmlns="http://www.w3.org/2000/svg" xmlns:xlink="http://www.w3.org/1999/xlink" contentStyleType="text/css" height="311px" preserveAspectRatio="none" style="width:571px;height:311px;background:#FFFFFF;" version="1.1" viewBox="0 0 571 311" width="571px" zoomAndPan="magnify"><defs/><g><!--class Rectangle--><g id="elem_Rectangle"><rect codeLine="9" fill="#FFFFFF" height="83.2188" id="Rectangle" rx="2.5" ry="2.5" style="stroke:#000000;stroke-width:0.5;" width="139" x="244.5" y="115"/><ellipse cx="278.85" cy="131" fill="#ADD1B2" rx="11" ry="11" style="stroke:#181818;stroke-width:1.0;"/><path d="M281.6156,126.875 Q281.7719,126.6563 281.9594,126.5469 Q282.1469,126.4375 282.3656,126.4375 Q282.7406,126.4375 282.975,126.6953 Q283.2094,126.9531 283.2094,127.5625 L283.2094,129.0156 Q283.2094,129.625 282.975,129.8906 Q282.7406,130.1563 282.3656,130.1563 Q282.0219,130.1563 281.8188,129.9531 Q281.6156,129.7656 281.5063,129.25 Q281.4594,128.8906 281.2719,128.7031 Q280.9438,128.3281 280.3344,128.1094 Q279.725,127.8906 279.1,127.8906 Q278.3344,127.8906 277.7016,128.2188 Q277.0688,128.5469 276.5766,129.2969 Q276.0844,130.0469 276.0844,131.0781 L276.0844,132.1719 Q276.0844,133.4063 276.975,134.2266 Q277.8656,135.0469 279.4594,135.0469 Q280.3969,135.0469 281.0531,134.7969 Q281.4438,134.6406 281.8656,134.2031 Q282.1313,133.9375 282.2797,133.8594 Q282.4281,133.7813 282.6313,133.7813 Q282.9594,133.7813 283.2172,134.0391 Q283.475,134.2969 283.475,134.6406 Q283.475,134.9844 283.1313,135.3906 Q282.6313,135.9688 281.8344,136.2969 Q280.7563,136.75 279.4594,136.75 Q277.9438,136.75 276.7406,136.125 Q275.7563,135.625 275.0688,134.5547 Q274.3813,133.4844 274.3813,132.2031 L274.3813,131.0469 Q274.3813,129.7188 274.9984,128.5703 Q275.6156,127.4219 276.7094,126.8047 Q277.8031,126.1875 279.0375,126.1875 Q279.7719,126.1875 280.4203,126.3516 Q281.0688,126.5156 281.6156,126.875 Z " fill="#000000"/><text fill="#000000" font-family="sans-serif" font-size="14" lengthAdjust="spacing" textLength="64" x="297.15" y="136.7285">Rectangle</text><line style="stroke:#000000;stroke-width:0.5;" x1="245.5" x2="382.5" y1="147" y2="147"/><line style="stroke:#000000;stroke-width:0.5;" x1="245.5" x2="382.5" y1="155" y2="155"/><text fill="#000000" font-family="sans-serif" font-size="14" lengthAdjust="spacing" textLength="74" x="250.5" y="173.5332">+Dessiner()</text><text fill="#000000" font-family="sans-serif" font-size="14" lengthAdjust="spacing" textLength="127" x="250.5" y="191.1426">+Surface() : decimal</text></g><!--entity AppCalcGeo--><g id="elem_AppCalcGeo"><rect fill="#F1F1F1" height="47.6094" rx="2.5" ry="2.5" style="stroke:#181818;stroke-width:0.5;" width="266" x="7" y="7"/><rect fill="#F1F1F1" height="10" style="stroke:#181818;stroke-width:0.5;" width="15" x="253" y="12"/><rect fill="#F1F1F1" height="2" style="stroke:#181818;stroke-width:0.5;" width="4" x="251" y="14"/><rect fill="#F1F1F1" height="2" style="stroke:#181818;stroke-width:0.5;" width="4" x="251" y="18"/><text fill="#000000" font-family="sans-serif" font-size="14" lengthAdjust="spacing" textLength="226" x="22" y="41.5332">Application de calculs g&#233;om&#233;triques</text></g><!--entity AppDessinGeo--><g id="elem_AppDessinGeo"><rect fill="#F1F1F1" height="47.6094" rx="2.5" ry="2.5" style="stroke:#181818;stroke-width:0.5;" width="257" x="308.5" y="7"/><rect fill="#F1F1F1" height="10" style="stroke:#181818;stroke-width:0.5;" width="15" x="545.5" y="12"/><rect fill="#F1F1F1" height="2" style="stroke:#181818;stroke-width:0.5;" width="4" x="543.5" y="14"/><rect fill="#F1F1F1" height="2" style="stroke:#181818;stroke-width:0.5;" width="4" x="543.5" y="18"/><text fill="#000000" font-family="sans-serif" font-size="14" lengthAdjust="spacing" textLength="217" x="323.5" y="41.5332">Application g&#233;om&#233;trique de dessin</text></g><!--entity SurfaceDessinable--><g id="elem_SurfaceDessinable"><rect fill="#F1F1F1" height="47.6094" rx="2.5" ry="2.5" style="stroke:#181818;stroke-width:0.5;" width="252" x="249" y="258"/><rect fill="#F1F1F1" height="10" style="stroke:#181818;stroke-width:0.5;" width="15" x="481" y="263"/><rect fill="#F1F1F1" height="2" style="stroke:#181818;stroke-width:0.5;" width="4" x="479" y="265"/><rect fill="#F1F1F1" height="2" style="stroke:#181818;stroke-width:0.5;" width="4" x="479" y="269"/><text fill="#000000" font-family="sans-serif" font-size="14" lengthAdjust="spacing" textLength="212" x="264" y="292.5332">Cadriciel avec surface dessinable</text></g><!--link AppCalcGeo to Rectangle--><g id="link_AppCalcGeo_Rectangle"><path codeLine="18" d="M172.73,55.23 C196.35,72 223.9773,91.607 251.8573,111.397 " fill="none" id="AppCalcGeo-to-Rectangle" style="stroke:#181818;stroke-width:1.0;"/><polygon fill="#181818" points="256.75,114.87,251.7263,106.3987,252.6728,111.9759,247.0956,112.9223,256.75,114.87" style="stroke:#181818;stroke-width:1.0;"/></g><!--link AppDessinGeo to Rectangle--><g id="link_AppDessinGeo_Rectangle"><path codeLine="19" d="M413.86,55.23 C397.16,72 378.414,90.8288 358.704,110.6188 " fill="none" id="AppDessinGeo-to-Rectangle" style="stroke:#181818;stroke-width:1.0;"/><polygon fill="#181818" points="354.47,114.87,363.6552,111.3159,357.9984,111.3273,357.9869,105.6705,354.47,114.87" style="stroke:#181818;stroke-width:1.0;"/></g><!--link Rectangle to SurfaceDessinable--><g id="link_Rectangle_SurfaceDessinable"><path codeLine="20" d="M334.14,198.28 C343.93,218.09 352.6712,235.8013 360.9412,252.5313 " fill="none" id="Rectangle-to-SurfaceDessinable" style="stroke:#181818;stroke-width:1.0;stroke-dasharray:7.0,7.0;"/><polygon fill="#181818" points="363.6,257.91,363.1976,248.0694,361.3843,253.4277,356.026,251.6145,363.6,257.91" style="stroke:#181818;stroke-width:1.0;"/></g><!--link AppDessinGeo to SurfaceDessinable--><g id="link_AppDessinGeo_SurfaceDessinable"><path codeLine="21" d="M432.64,55.25 C426.45,87.5 414.35,147.54 401,198 C395.59,218.44 390.214,235.6434 384.734,252.2134 " fill="none" id="AppDessinGeo-to-SurfaceDessinable" style="stroke:#181818;stroke-width:1.0;stroke-dasharray:7.0,7.0;"/><polygon fill="#181818" points="382.85,257.91,389.4736,250.6211,384.42,253.1629,381.8782,248.1092,382.85,257.91" style="stroke:#181818;stroke-width:1.0;"/></g><!--SRC=[TP1DJiD038NtFeKbDgrGgwnPL2gfXDZI1Gl4mdLCi3e_OMO22CI1UevUZA49X5JjB9_Vz-RPSQkkeK0MsL2CovI2Rjeaj-pTMZy42uXZ2tu2vdTDlAs3RrrLUkC3tZzhacxYGoMXKo-Aee0l86FyczLtTJL0bt8ddCZLHlgyIrn9ZEeaJAQzi6x34x5CfdY5bR1QCZaBsDl6Et497vPDOvGfgNVPWKo6MnEntk-ytU_oAY-jn4UaYDbPvkcD-7Fy2Ff9gmvzVkcktH5VKXMKLGpIgp36hd1FqiR8WUxtMFsf04CTdCqMmp7W_qz7e-5Yy_dYHEW8FMs1Rm00]--></g></svg>