<?xml version="1.0" encoding="us-ascii" standalone="no"?><svg xmlns="http://www.w3.org/2000/svg" xmlns:xlink="http://www.w3.org/1999/xlink" contentStyleType="text/css" height="205px" preserveAspectRatio="none" style="width:405px;height:205px;background:#FFFFFF;" version="1.1" viewBox="0 0 405 205" width="405px" zoomAndPan="magnify"><defs/><g><!--class IFormeGeometriqueDessinable--><g id="elem_IFormeGeometriqueDessinable"><rect codeLine="13" fill="#FFFFFF" height="48" id="IFormeGeometriqueDessinable" rx="2.5" ry="2.5" style="stroke:#000000;stroke-width:0.5;" width="229" x="92.5" y="7"/><ellipse cx="107.5" cy="23" fill="#B4A7E5" rx="11" ry="11" style="stroke:#181818;stroke-width:1.0;"/><path d="M108.4531,19.6406 L108.4531,26.2969 L110.1719,26.2969 Q110.7813,26.2969 111.0469,26.5313 Q111.3125,26.7656 111.3125,27.1563 Q111.3125,27.5313 111.0469,27.7656 Q110.7813,28 110.1719,28 L105.0313,28 Q104.4219,28 104.1563,27.7656 Q103.8906,27.5313 103.8906,27.1406 Q103.8906,26.7656 104.1563,26.5313 Q104.4219,26.2969 105.0313,26.2969 L106.75,26.2969 L106.75,19.6406 L105.0313,19.6406 Q104.4219,19.6406 104.1563,19.4063 Q103.8906,19.1719 103.8906,18.7813 Q103.8906,18.4063 104.1563,18.1719 Q104.4219,17.9375 105.0313,17.9375 L110.1719,17.9375 Q110.7813,17.9375 111.0469,18.1719 Q111.3125,18.4063 111.3125,18.7813 Q111.3125,19.1719 111.0469,19.4063 Q110.7813,19.6406 110.1719,19.6406 L108.4531,19.6406 Z " fill="#000000"/><text fill="#000000" font-family="sans-serif" font-size="14" font-style="italic" lengthAdjust="spacing" textLength="197" x="121.5" y="28.7285">IFormeGeometriqueDessinable</text><line style="stroke:#000000;stroke-width:0.5;" x1="93.5" x2="320.5" y1="39" y2="39"/><line style="stroke:#000000;stroke-width:0.5;" x1="93.5" x2="320.5" y1="47" y2="47"/></g><!--class Rectangle--><g id="elem_Rectangle"><rect codeLine="17" fill="#FFFFFF" height="83.2188" id="Rectangle" rx="2.5" ry="2.5" style="stroke:#000000;stroke-width:0.5;" width="188" x="7" y="115"/><ellipse cx="64.75" cy="131" fill="#ADD1B2" rx="11" ry="11" style="stroke:#181818;stroke-width:1.0;"/><path d="M67.5156,126.875 Q67.6719,126.6563 67.8594,126.5469 Q68.0469,126.4375 68.2656,126.4375 Q68.6406,126.4375 68.875,126.6953 Q69.1094,126.9531 69.1094,127.5625 L69.1094,129.0156 Q69.1094,129.625 68.875,129.8906 Q68.6406,130.1563 68.2656,130.1563 Q67.9219,130.1563 67.7188,129.9531 Q67.5156,129.7656 67.4063,129.25 Q67.3594,128.8906 67.1719,128.7031 Q66.8438,128.3281 66.2344,128.1094 Q65.625,127.8906 65,127.8906 Q64.2344,127.8906 63.6016,128.2188 Q62.9688,128.5469 62.4766,129.2969 Q61.9844,130.0469 61.9844,131.0781 L61.9844,132.1719 Q61.9844,133.4063 62.875,134.2266 Q63.7656,135.0469 65.3594,135.0469 Q66.2969,135.0469 66.9531,134.7969 Q67.3438,134.6406 67.7656,134.2031 Q68.0313,133.9375 68.1797,133.8594 Q68.3281,133.7813 68.5313,133.7813 Q68.8594,133.7813 69.1172,134.0391 Q69.375,134.2969 69.375,134.6406 Q69.375,134.9844 69.0313,135.3906 Q68.5313,135.9688 67.7344,136.2969 Q66.6563,136.75 65.3594,136.75 Q63.8438,136.75 62.6406,136.125 Q61.6563,135.625 60.9688,134.5547 Q60.2813,133.4844 60.2813,132.2031 L60.2813,131.0469 Q60.2813,129.7188 60.8984,128.5703 Q61.5156,127.4219 62.6094,126.8047 Q63.7031,126.1875 64.9375,126.1875 Q65.6719,126.1875 66.3203,126.3516 Q66.9688,126.5156 67.5156,126.875 Z " fill="#000000"/><text fill="#000000" font-family="sans-serif" font-size="14" lengthAdjust="spacing" textLength="64" x="85.25" y="136.7285">Rectangle</text><line style="stroke:#000000;stroke-width:0.5;" x1="8" x2="194" y1="147" y2="147"/><text fill="#000000" font-family="sans-serif" font-size="14" lengthAdjust="spacing" textLength="176" x="13" y="165.5332">+Hauteur : float &#171;get&#187; &#171;set&#187;</text><text fill="#000000" font-family="sans-serif" font-size="14" lengthAdjust="spacing" textLength="176" x="13" y="183.1426">+Largeur : float &#171;get&#187; &#171;set&#187;</text><line style="stroke:#000000;stroke-width:0.5;" x1="8" x2="194" y1="190.2188" y2="190.2188"/></g><!--class Carre--><g id="elem_Carre"><rect codeLine="22" fill="#FFFFFF" height="65.6094" id="Carre" rx="2.5" ry="2.5" style="stroke:#000000;stroke-width:0.5;" width="168" x="230" y="123.5"/><ellipse cx="291.75" cy="139.5" fill="#ADD1B2" rx="11" ry="11" style="stroke:#181818;stroke-width:1.0;"/><path d="M294.5156,135.375 Q294.6719,135.1563 294.8594,135.0469 Q295.0469,134.9375 295.2656,134.9375 Q295.6406,134.9375 295.875,135.1953 Q296.1094,135.4531 296.1094,136.0625 L296.1094,137.5156 Q296.1094,138.125 295.875,138.3906 Q295.6406,138.6563 295.2656,138.6563 Q294.9219,138.6563 294.7188,138.4531 Q294.5156,138.2656 294.4063,137.75 Q294.3594,137.3906 294.1719,137.2031 Q293.8438,136.8281 293.2344,136.6094 Q292.625,136.3906 292,136.3906 Q291.2344,136.3906 290.6016,136.7188 Q289.9688,137.0469 289.4766,137.7969 Q288.9844,138.5469 288.9844,139.5781 L288.9844,140.6719 Q288.9844,141.9063 289.875,142.7266 Q290.7656,143.5469 292.3594,143.5469 Q293.2969,143.5469 293.9531,143.2969 Q294.3438,143.1406 294.7656,142.7031 Q295.0313,142.4375 295.1797,142.3594 Q295.3281,142.2813 295.5313,142.2813 Q295.8594,142.2813 296.1172,142.5391 Q296.375,142.7969 296.375,143.1406 Q296.375,143.4844 296.0313,143.8906 Q295.5313,144.4688 294.7344,144.7969 Q293.6563,145.25 292.3594,145.25 Q290.8438,145.25 289.6406,144.625 Q288.6563,144.125 287.9688,143.0547 Q287.2813,141.9844 287.2813,140.7031 L287.2813,139.5469 Q287.2813,138.2188 287.8984,137.0703 Q288.5156,135.9219 289.6094,135.3047 Q290.7031,134.6875 291.9375,134.6875 Q292.6719,134.6875 293.3203,134.8516 Q293.9688,135.0156 294.5156,135.375 Z " fill="#000000"/><text fill="#000000" font-family="sans-serif" font-size="14" lengthAdjust="spacing" textLength="36" x="312.25" y="145.2285">Carre</text><line style="stroke:#000000;stroke-width:0.5;" x1="231" x2="397" y1="155.5" y2="155.5"/><text fill="#000000" font-family="sans-serif" font-size="14" lengthAdjust="spacing" textLength="156" x="236" y="174.0332">+Cote : float &#171;get&#187; &#171;set&#187;</text><line style="stroke:#000000;stroke-width:0.5;" x1="231" x2="397" y1="181.1094" y2="181.1094"/></g><!--reverse link IFormeGeometriqueDessinable to Rectangle--><g id="link_IFormeGeometriqueDessinable_Rectangle"><path codeLine="10" d="M175.3384,68.8903 C160.9484,85.6603 152.86,95.08 135.87,114.87 " fill="none" id="IFormeGeometriqueDessinable-backto-Rectangle" style="stroke:#181818;stroke-width:1.0;stroke-dasharray:7.0,7.0;"/><polygon fill="none" points="187.06,55.23,170.7849,64.9831,179.8918,72.7975,187.06,55.23" style="stroke:#181818;stroke-width:1.0;"/></g><!--reverse link IFormeGeometriqueDessinable to Carre--><g id="link_IFormeGeometriqueDessinable_Carre"><path codeLine="11" d="M238.9155,68.8352 C255.4955,87.9752 267.43,101.75 285.89,123.05 " fill="none" id="IFormeGeometriqueDessinable-backto-Carre" style="stroke:#181818;stroke-width:1.0;stroke-dasharray:7.0,7.0;"/><polygon fill="none" points="227.13,55.23,234.3804,72.7637,243.4506,64.9067,227.13,55.23" style="stroke:#181818;stroke-width:1.0;"/></g><!--SRC=[XL31JW913BttAvfuy612zcms9Bf69E4a1yzbACE4sIbqkW54_ztH9MkyhBsyf7tjUwzv5zAUb5fqaN9-CDEmwepdJj8ol3DMaFzIy09Owf7SpgjqQTr85CMtRJ3k9w9hrhvxKrKLV0B5ACSsd4BoSFjxBuR4TjupYjfM0ERFeYtFM5ekDWuTFt7E8T4gCjOVamc-iZDAFlB_r8PK6I0aOzsGOnpRk40n2NsyGUCQz0vVg3oaKxp7JHGoh6lFDfqMpDzuPIr8_HXh4FXnDXnln7Xavmi0]--></g></svg>