<?xml version="1.0" encoding="UTF-8" standalone="no"?><svg xmlns="http://www.w3.org/2000/svg" xmlns:xlink="http://www.w3.org/1999/xlink" contentScriptType="application/ecmascript" contentStyleType="text/css" height="200px" preserveAspectRatio="none" style="width:354px;height:200px;" version="1.1" viewBox="0 0 354 200" width="354px" zoomAndPan="magnify"><defs><filter height="300%" id="fl9bmcpeqy1kd" width="300%" x="-1" y="-1"><feGaussianBlur result="blurOut" stdDeviation="2.0"/><feColorMatrix in="blurOut" result="blurOut2" type="matrix" values="0 0 0 0 0 0 0 0 0 0 0 0 0 0 0 0 0 0 .4 0"/><feOffset dx="4.0" dy="4.0" in="blurOut2" result="blurOut3"/><feBlend in="SourceGraphic" in2="blurOut3" mode="normal"/></filter></defs><g><!--MD5=[3abfc055aa2c519ebcfd2acfe702d4d6]
class IFormeGeometriqueDessinable--><rect fill="#FFFFFF" filter="url(#fl9bmcpeqy1kd)" height="48" id="IFormeGeometriqueDessinable" style="stroke: #000000; stroke-width: 1.5;" width="209" x="74.5" y="8"/><ellipse cx="89.5" cy="24" fill="#B4A7E5" rx="11" ry="11" style="stroke: #000000; stroke-width: 1.0;"/><path d="M85.9277,20.2651 L85.9277,18.1069 L93.3071,18.1069 L93.3071,20.2651 L90.8418,20.2651 L90.8418,28.3418 L93.3071,28.3418 L93.3071,30.5 L85.9277,30.5 L85.9277,28.3418 L88.3931,28.3418 L88.3931,20.2651 Z "/><text fill="#000000" font-family="sans-serif" font-size="12" font-style="italic" lengthAdjust="spacingAndGlyphs" textLength="177" x="103.5" y="28.5352">IFormeGeometriqueDessinable</text><line style="stroke: #000000; stroke-width: 1.5;" x1="75.5" x2="282.5" y1="40" y2="40"/><line style="stroke: #000000; stroke-width: 1.5;" x1="75.5" x2="282.5" y1="48" y2="48"/><!--MD5=[b5313cd49da22b0744b541f414f8445e]
class Rectangle--><rect fill="#FFFFFF" filter="url(#fl9bmcpeqy1kd)" height="73.9102" id="Rectangle" style="stroke: #000000; stroke-width: 1.5;" width="160" x="6" y="116"/><ellipse cx="53.75" cy="132" fill="#ADD1B2" rx="11" ry="11" style="stroke: #000000; stroke-width: 1.0;"/><path d="M56.2231,138.1431 Q55.6421,138.4419 55.0029,138.5913 Q54.3638,138.7407 53.6582,138.7407 Q51.1514,138.7407 49.8315,137.0889 Q48.5117,135.437 48.5117,132.3159 Q48.5117,129.1865 49.8315,127.5347 Q51.1514,125.8828 53.6582,125.8828 Q54.3638,125.8828 55.0112,126.0322 Q55.6587,126.1816 56.2231,126.4805 L56.2231,129.2031 Q55.5923,128.6221 54.9988,128.3523 Q54.4053,128.0825 53.7744,128.0825 Q52.4297,128.0825 51.7449,129.1492 Q51.0601,130.2158 51.0601,132.3159 Q51.0601,134.4077 51.7449,135.4744 Q52.4297,136.541 53.7744,136.541 Q54.4053,136.541 54.9988,136.2712 Q55.5923,136.0015 56.2231,135.4204 Z "/><text fill="#000000" font-family="sans-serif" font-size="12" lengthAdjust="spacingAndGlyphs" textLength="56" x="74.25" y="136.5352">Rectangle</text><line style="stroke: #000000; stroke-width: 1.5;" x1="7" x2="165" y1="148" y2="148"/><text fill="#000000" font-family="sans-serif" font-size="11" lengthAdjust="spacingAndGlyphs" textLength="148" x="12" y="162.6348">+Hauteur : float «get» «set»</text><text fill="#000000" font-family="sans-serif" font-size="11" lengthAdjust="spacingAndGlyphs" textLength="147" x="12" y="175.5898">+Largeur : float «get» «set»</text><line style="stroke: #000000; stroke-width: 1.5;" x1="7" x2="165" y1="181.9102" y2="181.9102"/><!--MD5=[271c9bd56a4dca82ed2c9fa58097638e]
class Carre--><rect fill="#FFFFFF" filter="url(#fl9bmcpeqy1kd)" height="60.9551" id="Carre" style="stroke: #000000; stroke-width: 1.5;" width="142" x="201" y="122.5"/><ellipse cx="251.75" cy="138.5" fill="#ADD1B2" rx="11" ry="11" style="stroke: #000000; stroke-width: 1.0;"/><path d="M254.2231,144.6431 Q253.6421,144.9419 253.0029,145.0913 Q252.3638,145.2407 251.6582,145.2407 Q249.1514,145.2407 247.8315,143.5889 Q246.5117,141.937 246.5117,138.8159 Q246.5117,135.6865 247.8315,134.0347 Q249.1514,132.3828 251.6582,132.3828 Q252.3638,132.3828 253.0112,132.5322 Q253.6587,132.6816 254.2231,132.9805 L254.2231,135.7031 Q253.5923,135.1221 252.9988,134.8523 Q252.4053,134.5825 251.7744,134.5825 Q250.4297,134.5825 249.7449,135.6492 Q249.0601,136.7158 249.0601,138.8159 Q249.0601,140.9077 249.7449,141.9744 Q250.4297,143.041 251.7744,143.041 Q252.4053,143.041 252.9988,142.7712 Q253.5923,142.5015 254.2231,141.9204 Z "/><text fill="#000000" font-family="sans-serif" font-size="12" lengthAdjust="spacingAndGlyphs" textLength="32" x="272.25" y="143.0352">Carre</text><line style="stroke: #000000; stroke-width: 1.5;" x1="202" x2="342" y1="154.5" y2="154.5"/><text fill="#000000" font-family="sans-serif" font-size="11" lengthAdjust="spacingAndGlyphs" textLength="130" x="207" y="169.1348">+Cote : float «get» «set»</text><line style="stroke: #000000; stroke-width: 1.5;" x1="202" x2="342" y1="175.4551" y2="175.4551"/><!--MD5=[fd22bedc954505ab2a9cf8e8144d5878]
reverse link IFormeGeometriqueDessinable to Rectangle--><path d="M148.34,72.23 C137.39,86.24 125.11,101.96 114.36,115.71 " fill="none" id="IFormeGeometriqueDessinable&lt;-Rectangle" style="stroke: #A80036; stroke-width: 1.0; stroke-dasharray: 7.0,7.0;"/><polygon fill="none" points="143.02,67.67,160.85,56.23,154.05,76.3,143.02,67.67" style="stroke: #A80036; stroke-width: 1.0;"/><!--MD5=[af97914073a46f77a1bb15ff1b3987eb]
reverse link IFormeGeometriqueDessinable to Carre--><path d="M209.64,72.21 C222.45,88.59 237.07,107.31 248.94,122.49 " fill="none" id="IFormeGeometriqueDessinable&lt;-Carre" style="stroke: #A80036; stroke-width: 1.0; stroke-dasharray: 7.0,7.0;"/><polygon fill="none" points="203.95,76.3,197.15,56.23,214.98,67.67,203.95,76.3" style="stroke: #A80036; stroke-width: 1.0;"/><!--MD5=[c989657072426dcb00923ee812e5528f]
@startuml LSP_v01_s01

skinparam classAttributeIconSize 0
skinparam class {
    BackgroundColor White
    BorderColor #000
}
allowmixing
'skinparam linetype ortho

IFormeGeometriqueDessinable <|.. Rectangle
IFormeGeometriqueDessinable <|.. Carre

interface IFormeGeometriqueDessinable {

}

class Rectangle {
    + Hauteur : float <<get>> <<set>>
    + Largeur : float <<get>> <<set>>
}

class Carre {
    + Cote : float <<get>> <<set>>
}

@enduml

@startuml LSP_v01_s01

skinparam classAttributeIconSize 0
skinparam class {
    BackgroundColor White
    BorderColor #000
}
allowmixing

IFormeGeometriqueDessinable <|.. Rectangle
IFormeGeometriqueDessinable <|.. Carre

interface IFormeGeometriqueDessinable {

}

class Rectangle {
    + Hauteur : float <<get>> <<set>>
    + Largeur : float <<get>> <<set>>
}

class Carre {
    + Cote : float <<get>> <<set>>
}

@enduml

PlantUML version 1.2020.10(Sun May 17 05:35:57 EDT 2020)
(GPL source distribution)
Java Runtime: OpenJDK Runtime Environment
JVM: OpenJDK 64-Bit Server VM
Java Version: 13.0.2+8
Operating System: Mac OS X
Default Encoding: UTF-8
Language: fr
Country: CA
--></g></svg>