<?xml version="1.0" encoding="us-ascii" standalone="no"?><svg xmlns="http://www.w3.org/2000/svg" xmlns:xlink="http://www.w3.org/1999/xlink" contentStyleType="text/css" height="456px" preserveAspectRatio="none" style="width:506px;height:456px;background:#FFFFFF;" version="1.1" viewBox="0 0 506 456" width="506px" zoomAndPan="magnify"><defs/><g><!--class DessinXYZDTO--><g id="elem_DessinXYZDTO"><rect fill="#FFFFFF" height="48" id="DessinXYZDTO" rx="2.5" ry="2.5" style="stroke:#000000;stroke-width:0.5;" width="130" x="174" y="7"/><ellipse cx="189" cy="23" fill="#ADD1B2" rx="11" ry="11" style="stroke:#181818;stroke-width:1.0;"/><path d="M191.7656,18.875 Q191.9219,18.6563 192.1094,18.5469 Q192.2969,18.4375 192.5156,18.4375 Q192.8906,18.4375 193.125,18.6953 Q193.3594,18.9531 193.3594,19.5625 L193.3594,21.0156 Q193.3594,21.625 193.125,21.8906 Q192.8906,22.1563 192.5156,22.1563 Q192.1719,22.1563 191.9688,21.9531 Q191.7656,21.7656 191.6563,21.25 Q191.6094,20.8906 191.4219,20.7031 Q191.0938,20.3281 190.4844,20.1094 Q189.875,19.8906 189.25,19.8906 Q188.4844,19.8906 187.8516,20.2188 Q187.2188,20.5469 186.7266,21.2969 Q186.2344,22.0469 186.2344,23.0781 L186.2344,24.1719 Q186.2344,25.4063 187.125,26.2266 Q188.0156,27.0469 189.6094,27.0469 Q190.5469,27.0469 191.2031,26.7969 Q191.5938,26.6406 192.0156,26.2031 Q192.2813,25.9375 192.4297,25.8594 Q192.5781,25.7813 192.7813,25.7813 Q193.1094,25.7813 193.3672,26.0391 Q193.625,26.2969 193.625,26.6406 Q193.625,26.9844 193.2813,27.3906 Q192.7813,27.9688 191.9844,28.2969 Q190.9063,28.75 189.6094,28.75 Q188.0938,28.75 186.8906,28.125 Q185.9063,27.625 185.2188,26.5547 Q184.5313,25.4844 184.5313,24.2031 L184.5313,23.0469 Q184.5313,21.7188 185.1484,20.5703 Q185.7656,19.4219 186.8594,18.8047 Q187.9531,18.1875 189.1875,18.1875 Q189.9219,18.1875 190.5703,18.3516 Q191.2188,18.5156 191.7656,18.875 Z " fill="#000000"/><text fill="#000000" font-family="sans-serif" font-size="14" lengthAdjust="spacing" textLength="98" x="203" y="28.7285">DessinXYZDTO</text><line style="stroke:#000000;stroke-width:0.5;" x1="175" x2="303" y1="39" y2="39"/><line style="stroke:#000000;stroke-width:0.5;" x1="175" x2="303" y1="47" y2="47"/></g><!--class FormeXYZDTO--><g id="elem_FormeXYZDTO"><rect codeLine="19" fill="#FFFFFF" height="48" id="FormeXYZDTO" rx="2.5" ry="2.5" style="stroke:#000000;stroke-width:0.5;" width="130" x="174" y="115"/><ellipse cx="189" cy="131" fill="#A9DCDF" rx="11" ry="11" style="stroke:#181818;stroke-width:1.0;"/><path d="M191.1875,132.7656 L187.0469,132.7656 L186.625,133.7969 L187.0469,133.7969 Q187.6563,133.7969 187.9219,134.0313 Q188.1875,134.2656 188.1875,134.6563 Q188.1875,135.0313 187.9219,135.2656 Q187.6563,135.5 187.0469,135.5 L184.75,135.5 Q184.1406,135.5 183.8828,135.2656 Q183.625,135.0313 183.625,134.6406 Q183.625,134.2656 183.8984,134.0234 Q184.1719,133.7813 184.7969,133.7969 L187.4688,127.1406 L186.3594,127.1406 Q185.75,127.1406 185.4844,126.9063 Q185.2188,126.6719 185.2188,126.2813 Q185.2188,125.9063 185.4844,125.6719 Q185.75,125.4375 186.3594,125.4375 L190.0313,125.4375 L193.4219,133.7969 Q194.0156,133.7969 194.2031,133.9375 Q194.5938,134.2031 194.5938,134.6563 Q194.5938,135.0313 194.3359,135.2656 Q194.0781,135.5 193.4688,135.5 L191.1719,135.5 Q190.5625,135.5 190.2969,135.2656 Q190.0313,135.0313 190.0313,134.6406 Q190.0313,134.2656 190.2969,134.0313 Q190.5625,133.7969 191.1719,133.7969 L191.5938,133.7969 L191.1875,132.7656 Z M190.4688,131.0625 L189.1094,127.6875 L187.7344,131.0625 L190.4688,131.0625 Z " fill="#000000"/><text fill="#000000" font-family="sans-serif" font-size="14" font-style="italic" lengthAdjust="spacing" textLength="98" x="203" y="136.7285">FormeXYZDTO</text><line style="stroke:#000000;stroke-width:0.5;" x1="175" x2="303" y1="147" y2="147"/><line style="stroke:#000000;stroke-width:0.5;" x1="175" x2="303" y1="155" y2="155"/></g><!--class CercleXYZDTO--><g id="elem_CercleXYZDTO"><rect codeLine="23" fill="#FFFFFF" height="83.2188" id="CercleXYZDTO" rx="2.5" ry="2.5" style="stroke:#000000;stroke-width:0.5;" width="200" x="7" y="223"/><ellipse cx="54.75" cy="239" fill="#ADD1B2" rx="11" ry="11" style="stroke:#181818;stroke-width:1.0;"/><path d="M57.5156,234.875 Q57.6719,234.6563 57.8594,234.5469 Q58.0469,234.4375 58.2656,234.4375 Q58.6406,234.4375 58.875,234.6953 Q59.1094,234.9531 59.1094,235.5625 L59.1094,237.0156 Q59.1094,237.625 58.875,237.8906 Q58.6406,238.1563 58.2656,238.1563 Q57.9219,238.1563 57.7188,237.9531 Q57.5156,237.7656 57.4063,237.25 Q57.3594,236.8906 57.1719,236.7031 Q56.8438,236.3281 56.2344,236.1094 Q55.625,235.8906 55,235.8906 Q54.2344,235.8906 53.6016,236.2188 Q52.9688,236.5469 52.4766,237.2969 Q51.9844,238.0469 51.9844,239.0781 L51.9844,240.1719 Q51.9844,241.4063 52.875,242.2266 Q53.7656,243.0469 55.3594,243.0469 Q56.2969,243.0469 56.9531,242.7969 Q57.3438,242.6406 57.7656,242.2031 Q58.0313,241.9375 58.1797,241.8594 Q58.3281,241.7813 58.5313,241.7813 Q58.8594,241.7813 59.1172,242.0391 Q59.375,242.2969 59.375,242.6406 Q59.375,242.9844 59.0313,243.3906 Q58.5313,243.9688 57.7344,244.2969 Q56.6563,244.75 55.3594,244.75 Q53.8438,244.75 52.6406,244.125 Q51.6563,243.625 50.9688,242.5547 Q50.2813,241.4844 50.2813,240.2031 L50.2813,239.0469 Q50.2813,237.7188 50.8984,236.5703 Q51.5156,235.4219 52.6094,234.8047 Q53.7031,234.1875 54.9375,234.1875 Q55.6719,234.1875 56.3203,234.3516 Q56.9688,234.5156 57.5156,234.875 Z " fill="#000000"/><text fill="#000000" font-family="sans-serif" font-size="14" lengthAdjust="spacing" textLength="96" x="75.25" y="244.7285">CercleXYZDTO</text><line style="stroke:#000000;stroke-width:0.5;" x1="8" x2="206" y1="255" y2="255"/><text fill="#000000" font-family="sans-serif" font-size="14" lengthAdjust="spacing" textLength="155" x="13" y="273.5332">+Rayon : int &#171;get&#187; &#171;set&#187;</text><text fill="#000000" font-family="sans-serif" font-size="14" lengthAdjust="spacing" textLength="188" x="13" y="291.1426">+Centre : Point2D&#171;get&#187; &#171;set&#187;</text><line style="stroke:#000000;stroke-width:0.5;" x1="8" x2="206" y1="298.2188" y2="298.2188"/></g><!--class PolygoneXYZDTO--><g id="elem_PolygoneXYZDTO"><rect codeLine="28" fill="#FFFFFF" height="65.6094" id="PolygoneXYZDTO" rx="2.5" ry="2.5" style="stroke:#000000;stroke-width:0.5;" width="257" x="242.5" y="231.5"/><ellipse cx="309.75" cy="247.5" fill="#ADD1B2" rx="11" ry="11" style="stroke:#181818;stroke-width:1.0;"/><path d="M312.5156,243.375 Q312.6719,243.1563 312.8594,243.0469 Q313.0469,242.9375 313.2656,242.9375 Q313.6406,242.9375 313.875,243.1953 Q314.1094,243.4531 314.1094,244.0625 L314.1094,245.5156 Q314.1094,246.125 313.875,246.3906 Q313.6406,246.6563 313.2656,246.6563 Q312.9219,246.6563 312.7188,246.4531 Q312.5156,246.2656 312.4063,245.75 Q312.3594,245.3906 312.1719,245.2031 Q311.8438,244.8281 311.2344,244.6094 Q310.625,244.3906 310,244.3906 Q309.2344,244.3906 308.6016,244.7188 Q307.9688,245.0469 307.4766,245.7969 Q306.9844,246.5469 306.9844,247.5781 L306.9844,248.6719 Q306.9844,249.9063 307.875,250.7266 Q308.7656,251.5469 310.3594,251.5469 Q311.2969,251.5469 311.9531,251.2969 Q312.3438,251.1406 312.7656,250.7031 Q313.0313,250.4375 313.1797,250.3594 Q313.3281,250.2813 313.5313,250.2813 Q313.8594,250.2813 314.1172,250.5391 Q314.375,250.7969 314.375,251.1406 Q314.375,251.4844 314.0313,251.8906 Q313.5313,252.4688 312.7344,252.7969 Q311.6563,253.25 310.3594,253.25 Q308.8438,253.25 307.6406,252.625 Q306.6563,252.125 305.9688,251.0547 Q305.2813,249.9844 305.2813,248.7031 L305.2813,247.5469 Q305.2813,246.2188 305.8984,245.0703 Q306.5156,243.9219 307.6094,243.3047 Q308.7031,242.6875 309.9375,242.6875 Q310.6719,242.6875 311.3203,242.8516 Q311.9688,243.0156 312.5156,243.375 Z " fill="#000000"/><text fill="#000000" font-family="sans-serif" font-size="14" lengthAdjust="spacing" textLength="114" x="330.25" y="253.2285">PolygoneXYZDTO</text><line style="stroke:#000000;stroke-width:0.5;" x1="243.5" x2="498.5" y1="263.5" y2="263.5"/><text fill="#000000" font-family="sans-serif" font-size="14" lengthAdjust="spacing" textLength="245" x="248.5" y="282.0332">+Sommets : List&lt;Point2D&gt; &#171;get&#187; &#171;set&#187;</text><line style="stroke:#000000;stroke-width:0.5;" x1="243.5" x2="498.5" y1="289.1094" y2="289.1094"/></g><!--class Point2DXYZDTO--><g id="elem_Point2DXYZDTO"><rect codeLine="14" fill="#FFFFFF" height="83.2188" id="Point2DXYZDTO" rx="2.5" ry="2.5" style="stroke:#000000;stroke-width:0.5;" width="137" x="170.5" y="366"/><ellipse cx="185.5" cy="382" fill="#ADD1B2" rx="11" ry="11" style="stroke:#181818;stroke-width:1.0;"/><path d="M188.2656,377.875 Q188.4219,377.6563 188.6094,377.5469 Q188.7969,377.4375 189.0156,377.4375 Q189.3906,377.4375 189.625,377.6953 Q189.8594,377.9531 189.8594,378.5625 L189.8594,380.0156 Q189.8594,380.625 189.625,380.8906 Q189.3906,381.1563 189.0156,381.1563 Q188.6719,381.1563 188.4688,380.9531 Q188.2656,380.7656 188.1563,380.25 Q188.1094,379.8906 187.9219,379.7031 Q187.5938,379.3281 186.9844,379.1094 Q186.375,378.8906 185.75,378.8906 Q184.9844,378.8906 184.3516,379.2188 Q183.7188,379.5469 183.2266,380.2969 Q182.7344,381.0469 182.7344,382.0781 L182.7344,383.1719 Q182.7344,384.4063 183.625,385.2266 Q184.5156,386.0469 186.1094,386.0469 Q187.0469,386.0469 187.7031,385.7969 Q188.0938,385.6406 188.5156,385.2031 Q188.7813,384.9375 188.9297,384.8594 Q189.0781,384.7813 189.2813,384.7813 Q189.6094,384.7813 189.8672,385.0391 Q190.125,385.2969 190.125,385.6406 Q190.125,385.9844 189.7813,386.3906 Q189.2813,386.9688 188.4844,387.2969 Q187.4063,387.75 186.1094,387.75 Q184.5938,387.75 183.3906,387.125 Q182.4063,386.625 181.7188,385.5547 Q181.0313,384.4844 181.0313,383.2031 L181.0313,382.0469 Q181.0313,380.7188 181.6484,379.5703 Q182.2656,378.4219 183.3594,377.8047 Q184.4531,377.1875 185.6875,377.1875 Q186.4219,377.1875 187.0703,377.3516 Q187.7188,377.5156 188.2656,377.875 Z " fill="#000000"/><text fill="#000000" font-family="sans-serif" font-size="14" lengthAdjust="spacing" textLength="105" x="199.5" y="387.7285">Point2DXYZDTO</text><line style="stroke:#000000;stroke-width:0.5;" x1="171.5" x2="306.5" y1="398" y2="398"/><text fill="#000000" font-family="sans-serif" font-size="14" lengthAdjust="spacing" textLength="122" x="176.5" y="416.5332">+X : int &#171;get&#187; &#171;set&#187;</text><text fill="#000000" font-family="sans-serif" font-size="14" lengthAdjust="spacing" textLength="123" x="176.5" y="434.1426">+Y : int &#171;get&#187; &#171;set&#187;</text><line style="stroke:#000000;stroke-width:0.5;" x1="171.5" x2="306.5" y1="441.2188" y2="441.2188"/></g><!--link DessinXYZDTO to FormeXYZDTO--><g id="link_DessinXYZDTO_FormeXYZDTO"><path codeLine="8" d="M239,55 C239,72.66 239,90.94 239,108.68 " fill="none" id="DessinXYZDTO-to-FormeXYZDTO" style="stroke:#181818;stroke-width:1.0;"/><polygon fill="#181818" points="239,114.68,243,105.68,239,109.68,235,105.68,239,114.68" style="stroke:#181818;stroke-width:1.0;"/><text fill="#000000" font-family="sans-serif" font-size="13" lengthAdjust="spacing" textLength="5" x="233.3906" y="104.34">*</text></g><!--reverse link FormeXYZDTO to CercleXYZDTO--><g id="link_FormeXYZDTO_CercleXYZDTO"><path codeLine="9" d="M201.0274,175.5292 C183.1074,192.2992 171.58,203.08 150.43,222.87 " fill="none" id="FormeXYZDTO-backto-CercleXYZDTO" style="stroke:#181818;stroke-width:1.0;"/><polygon fill="none" points="214.17,163.23,196.9276,171.1483,205.1271,179.9101,214.17,163.23" style="stroke:#181818;stroke-width:1.0;"/></g><!--reverse link FormeXYZDTO to PolygoneXYZDTO--><g id="link_FormeXYZDTO_PolygoneXYZDTO"><path codeLine="10" d="M276.9749,175.5268 C297.4349,194.6668 313.55,209.75 336.32,231.05 " fill="none" id="FormeXYZDTO-backto-PolygoneXYZDTO" style="stroke:#181818;stroke-width:1.0;"/><polygon fill="none" points="263.83,163.23,272.8759,179.9085,281.0738,171.1452,263.83,163.23" style="stroke:#181818;stroke-width:1.0;"/></g><!--link CercleXYZDTO to Point2DXYZDTO--><g id="link_CercleXYZDTO_Point2DXYZDTO"><path codeLine="11" d="M145.18,306.28 C162.69,324.99 179.299,342.7303 196.809,361.4303 " fill="none" id="CercleXYZDTO-to-Point2DXYZDTO" style="stroke:#181818;stroke-width:1.0;"/><polygon fill="#181818" points="200.91,365.81,197.6783,356.5064,197.4925,362.1602,191.8387,361.9744,200.91,365.81" style="stroke:#181818;stroke-width:1.0;"/><text fill="#000000" font-family="sans-serif" font-size="13" lengthAdjust="spacing" textLength="7" x="187.0217" y="355.0862">1</text></g><!--link PolygoneXYZDTO to Point2DXYZDTO--><g id="link_PolygoneXYZDTO_Point2DXYZDTO"><path codeLine="12" d="M340.72,297.85 C321.76,318.09 301.2906,339.9599 281.0406,361.5899 " fill="none" id="PolygoneXYZDTO-to-Point2DXYZDTO" style="stroke:#181818;stroke-width:1.0;"/><polygon fill="#181818" points="276.94,365.97,286.011,362.1336,280.3572,362.3199,280.1709,356.6662,276.94,365.97" style="stroke:#181818;stroke-width:1.0;"/><text fill="#000000" font-family="sans-serif" font-size="13" lengthAdjust="spacing" textLength="22" x="259.4019" y="355.2727">3..n</text></g><!--SRC=[VL1DIyGm4BtdLmprfdIfUfDIq1P141HNSDTRDZlKi6qYCxE7zUE_coKfjCkkkKnux-MzUU6DTP-QT0-cqyot8cHNMy47uztSVY4KYgSI-5OGpfqscvRyrgrhttc2jmyh61bFQwI8dXL5eNwLQf3PkiNolNbzWZol83lFuDvJZn5JepkKFtaEDPBfJhBFljkrtWtyM1pjBxEWiKwkcYIPleYYwzdC7UfKB3a1K-KBMC0D11pAiaMfgZ1vFnExFC66_dh5Gjh8k7DotTCnSz9YY7pHE-_-ZQtH2M6Gf9sFn0-T9bym9CnztwDmC7YqB6LogGxJqgv_]--></g></svg>