<?xml version="1.0" encoding="us-ascii" standalone="no"?><svg xmlns="http://www.w3.org/2000/svg" xmlns:xlink="http://www.w3.org/1999/xlink" contentStyleType="text/css" height="310px" preserveAspectRatio="none" style="width:1379px;height:310px;background:#FFFFFF;" version="1.1" viewBox="0 0 1379 310" width="1379px" zoomAndPan="magnify"><defs/><g><!--class DepotArticle--><g id="elem_DepotArticle"><rect codeLine="10" fill="#FFFFFF" height="118.4375" id="DepotArticle" rx="2.5" ry="2.5" style="stroke:#000000;stroke-width:0.5;" width="315" x="532" y="7"/><ellipse cx="646.75" cy="23" fill="#B4A7E5" rx="11" ry="11" style="stroke:#181818;stroke-width:1.0;"/><path d="M647.7031,19.6406 L647.7031,26.2969 L649.4219,26.2969 Q650.0313,26.2969 650.2969,26.5313 Q650.5625,26.7656 650.5625,27.1563 Q650.5625,27.5313 650.2969,27.7656 Q650.0313,28 649.4219,28 L644.2813,28 Q643.6719,28 643.4063,27.7656 Q643.1406,27.5313 643.1406,27.1406 Q643.1406,26.7656 643.4063,26.5313 Q643.6719,26.2969 644.2813,26.2969 L646,26.2969 L646,19.6406 L644.2813,19.6406 Q643.6719,19.6406 643.4063,19.4063 Q643.1406,19.1719 643.1406,18.7813 Q643.1406,18.4063 643.4063,18.1719 Q643.6719,17.9375 644.2813,17.9375 L649.4219,17.9375 Q650.0313,17.9375 650.2969,18.1719 Q650.5625,18.4063 650.5625,18.7813 Q650.5625,19.1719 650.2969,19.4063 Q650.0313,19.6406 649.4219,19.6406 L647.7031,19.6406 Z " fill="#000000"/><text fill="#000000" font-family="sans-serif" font-size="14" font-style="italic" lengthAdjust="spacing" textLength="77" x="667.25" y="28.7285">DepotArticle</text><line style="stroke:#000000;stroke-width:0.5;" x1="533" x2="846" y1="39" y2="39"/><line style="stroke:#000000;stroke-width:0.5;" x1="533" x2="846" y1="47" y2="47"/><text fill="#000000" font-family="sans-serif" font-size="14" lengthAdjust="spacing" textLength="303" x="538" y="65.5332">+Rechercher(p_motCles : string[]) : List&lt;Article&gt;</text><text fill="#000000" font-family="sans-serif" font-size="14" lengthAdjust="spacing" textLength="193" x="538" y="83.1426">+Enregistrer(p_article : Article)</text><text fill="#000000" font-family="sans-serif" font-size="14" lengthAdjust="spacing" textLength="270" x="538" y="100.752">+Obtenir(p_identifiantArticle: Guid) : Article</text><text fill="#000000" font-family="sans-serif" font-size="14" lengthAdjust="spacing" textLength="288" x="538" y="118.3613">+Supprimer(p_identifiantArticle: Guid) : Article</text></g><!--class DepotArticleCSV--><g id="elem_DepotArticleCSV"><rect codeLine="17" fill="#FFFFFF" height="118.4375" id="DepotArticleCSV" rx="2.5" ry="2.5" style="stroke:#000000;stroke-width:0.5;" width="315" x="7" y="185"/><ellipse cx="107.75" cy="201" fill="#ADD1B2" rx="11" ry="11" style="stroke:#181818;stroke-width:1.0;"/><path d="M110.5156,196.875 Q110.6719,196.6563 110.8594,196.5469 Q111.0469,196.4375 111.2656,196.4375 Q111.6406,196.4375 111.875,196.6953 Q112.1094,196.9531 112.1094,197.5625 L112.1094,199.0156 Q112.1094,199.625 111.875,199.8906 Q111.6406,200.1563 111.2656,200.1563 Q110.9219,200.1563 110.7188,199.9531 Q110.5156,199.7656 110.4063,199.25 Q110.3594,198.8906 110.1719,198.7031 Q109.8438,198.3281 109.2344,198.1094 Q108.625,197.8906 108,197.8906 Q107.2344,197.8906 106.6016,198.2188 Q105.9688,198.5469 105.4766,199.2969 Q104.9844,200.0469 104.9844,201.0781 L104.9844,202.1719 Q104.9844,203.4063 105.875,204.2266 Q106.7656,205.0469 108.3594,205.0469 Q109.2969,205.0469 109.9531,204.7969 Q110.3438,204.6406 110.7656,204.2031 Q111.0313,203.9375 111.1797,203.8594 Q111.3281,203.7813 111.5313,203.7813 Q111.8594,203.7813 112.1172,204.0391 Q112.375,204.2969 112.375,204.6406 Q112.375,204.9844 112.0313,205.3906 Q111.5313,205.9688 110.7344,206.2969 Q109.6563,206.75 108.3594,206.75 Q106.8438,206.75 105.6406,206.125 Q104.6563,205.625 103.9688,204.5547 Q103.2813,203.4844 103.2813,202.2031 L103.2813,201.0469 Q103.2813,199.7188 103.8984,198.5703 Q104.5156,197.4219 105.6094,196.8047 Q106.7031,196.1875 107.9375,196.1875 Q108.6719,196.1875 109.3203,196.3516 Q109.9688,196.5156 110.5156,196.875 Z " fill="#000000"/><text fill="#000000" font-family="sans-serif" font-size="14" lengthAdjust="spacing" textLength="105" x="128.25" y="206.7285">DepotArticleCSV</text><line style="stroke:#000000;stroke-width:0.5;" x1="8" x2="321" y1="217" y2="217"/><line style="stroke:#000000;stroke-width:0.5;" x1="8" x2="321" y1="225" y2="225"/><text fill="#000000" font-family="sans-serif" font-size="14" lengthAdjust="spacing" textLength="303" x="13" y="243.5332">+Rechercher(p_motCles : string[]) : List&lt;Article&gt;</text><text fill="#000000" font-family="sans-serif" font-size="14" lengthAdjust="spacing" textLength="193" x="13" y="261.1426">+Enregistrer(p_article : Article)</text><text fill="#000000" font-family="sans-serif" font-size="14" lengthAdjust="spacing" textLength="270" x="13" y="278.752">+Obtenir(p_identifiantArticle: Guid) : Article</text><text fill="#000000" font-family="sans-serif" font-size="14" lengthAdjust="spacing" textLength="288" x="13" y="296.3613">+Supprimer(p_identifiantArticle: Guid) : Article</text></g><!--class DepotArticleXML--><g id="elem_DepotArticleXML"><rect codeLine="24" fill="#FFFFFF" height="118.4375" id="DepotArticleXML" rx="2.5" ry="2.5" style="stroke:#000000;stroke-width:0.5;" width="315" x="357" y="185"/><ellipse cx="458.25" cy="201" fill="#ADD1B2" rx="11" ry="11" style="stroke:#181818;stroke-width:1.0;"/><path d="M461.0156,196.875 Q461.1719,196.6563 461.3594,196.5469 Q461.5469,196.4375 461.7656,196.4375 Q462.1406,196.4375 462.375,196.6953 Q462.6094,196.9531 462.6094,197.5625 L462.6094,199.0156 Q462.6094,199.625 462.375,199.8906 Q462.1406,200.1563 461.7656,200.1563 Q461.4219,200.1563 461.2188,199.9531 Q461.0156,199.7656 460.9063,199.25 Q460.8594,198.8906 460.6719,198.7031 Q460.3438,198.3281 459.7344,198.1094 Q459.125,197.8906 458.5,197.8906 Q457.7344,197.8906 457.1016,198.2188 Q456.4688,198.5469 455.9766,199.2969 Q455.4844,200.0469 455.4844,201.0781 L455.4844,202.1719 Q455.4844,203.4063 456.375,204.2266 Q457.2656,205.0469 458.8594,205.0469 Q459.7969,205.0469 460.4531,204.7969 Q460.8438,204.6406 461.2656,204.2031 Q461.5313,203.9375 461.6797,203.8594 Q461.8281,203.7813 462.0313,203.7813 Q462.3594,203.7813 462.6172,204.0391 Q462.875,204.2969 462.875,204.6406 Q462.875,204.9844 462.5313,205.3906 Q462.0313,205.9688 461.2344,206.2969 Q460.1563,206.75 458.8594,206.75 Q457.3438,206.75 456.1406,206.125 Q455.1563,205.625 454.4688,204.5547 Q453.7813,203.4844 453.7813,202.2031 L453.7813,201.0469 Q453.7813,199.7188 454.3984,198.5703 Q455.0156,197.4219 456.1094,196.8047 Q457.2031,196.1875 458.4375,196.1875 Q459.1719,196.1875 459.8203,196.3516 Q460.4688,196.5156 461.0156,196.875 Z " fill="#000000"/><text fill="#000000" font-family="sans-serif" font-size="14" lengthAdjust="spacing" textLength="104" x="478.75" y="206.7285">DepotArticleXML</text><line style="stroke:#000000;stroke-width:0.5;" x1="358" x2="671" y1="217" y2="217"/><line style="stroke:#000000;stroke-width:0.5;" x1="358" x2="671" y1="225" y2="225"/><text fill="#000000" font-family="sans-serif" font-size="14" lengthAdjust="spacing" textLength="303" x="363" y="243.5332">+Rechercher(p_motCles : string[]) : List&lt;Article&gt;</text><text fill="#000000" font-family="sans-serif" font-size="14" lengthAdjust="spacing" textLength="193" x="363" y="261.1426">+Enregistrer(p_article : Article)</text><text fill="#000000" font-family="sans-serif" font-size="14" lengthAdjust="spacing" textLength="270" x="363" y="278.752">+Obtenir(p_identifiantArticle: Guid) : Article</text><text fill="#000000" font-family="sans-serif" font-size="14" lengthAdjust="spacing" textLength="288" x="363" y="296.3613">+Supprimer(p_identifiantArticle: Guid) : Article</text></g><!--class DepotArticleJSON--><g id="elem_DepotArticleJSON"><rect codeLine="31" fill="#FFFFFF" height="118.4375" id="DepotArticleJSON" rx="2.5" ry="2.5" style="stroke:#000000;stroke-width:0.5;" width="315" x="707" y="185"/><ellipse cx="804.25" cy="201" fill="#ADD1B2" rx="11" ry="11" style="stroke:#181818;stroke-width:1.0;"/><path d="M807.0156,196.875 Q807.1719,196.6563 807.3594,196.5469 Q807.5469,196.4375 807.7656,196.4375 Q808.1406,196.4375 808.375,196.6953 Q808.6094,196.9531 808.6094,197.5625 L808.6094,199.0156 Q808.6094,199.625 808.375,199.8906 Q808.1406,200.1563 807.7656,200.1563 Q807.4219,200.1563 807.2188,199.9531 Q807.0156,199.7656 806.9063,199.25 Q806.8594,198.8906 806.6719,198.7031 Q806.3438,198.3281 805.7344,198.1094 Q805.125,197.8906 804.5,197.8906 Q803.7344,197.8906 803.1016,198.2188 Q802.4688,198.5469 801.9766,199.2969 Q801.4844,200.0469 801.4844,201.0781 L801.4844,202.1719 Q801.4844,203.4063 802.375,204.2266 Q803.2656,205.0469 804.8594,205.0469 Q805.7969,205.0469 806.4531,204.7969 Q806.8438,204.6406 807.2656,204.2031 Q807.5313,203.9375 807.6797,203.8594 Q807.8281,203.7813 808.0313,203.7813 Q808.3594,203.7813 808.6172,204.0391 Q808.875,204.2969 808.875,204.6406 Q808.875,204.9844 808.5313,205.3906 Q808.0313,205.9688 807.2344,206.2969 Q806.1563,206.75 804.8594,206.75 Q803.3438,206.75 802.1406,206.125 Q801.1563,205.625 800.4688,204.5547 Q799.7813,203.4844 799.7813,202.2031 L799.7813,201.0469 Q799.7813,199.7188 800.3984,198.5703 Q801.0156,197.4219 802.1094,196.8047 Q803.2031,196.1875 804.4375,196.1875 Q805.1719,196.1875 805.8203,196.3516 Q806.4688,196.5156 807.0156,196.875 Z " fill="#000000"/><text fill="#000000" font-family="sans-serif" font-size="14" lengthAdjust="spacing" textLength="112" x="824.75" y="206.7285">DepotArticleJSON</text><line style="stroke:#000000;stroke-width:0.5;" x1="708" x2="1021" y1="217" y2="217"/><line style="stroke:#000000;stroke-width:0.5;" x1="708" x2="1021" y1="225" y2="225"/><text fill="#000000" font-family="sans-serif" font-size="14" lengthAdjust="spacing" textLength="303" x="713" y="243.5332">+Rechercher(p_motCles : string[]) : List&lt;Article&gt;</text><text fill="#000000" font-family="sans-serif" font-size="14" lengthAdjust="spacing" textLength="193" x="713" y="261.1426">+Enregistrer(p_article : Article)</text><text fill="#000000" font-family="sans-serif" font-size="14" lengthAdjust="spacing" textLength="270" x="713" y="278.752">+Obtenir(p_identifiantArticle: Guid) : Article</text><text fill="#000000" font-family="sans-serif" font-size="14" lengthAdjust="spacing" textLength="288" x="713" y="296.3613">+Supprimer(p_identifiantArticle: Guid) : Article</text></g><!--class DepotArticleSQL--><g id="elem_DepotArticleSQL"><rect codeLine="38" fill="#FFFFFF" height="118.4375" id="DepotArticleSQL" rx="2.5" ry="2.5" style="stroke:#000000;stroke-width:0.5;" width="315" x="1057" y="185"/><ellipse cx="1157.75" cy="201" fill="#ADD1B2" rx="11" ry="11" style="stroke:#181818;stroke-width:1.0;"/><path d="M1160.5156,196.875 Q1160.6719,196.6563 1160.8594,196.5469 Q1161.0469,196.4375 1161.2656,196.4375 Q1161.6406,196.4375 1161.875,196.6953 Q1162.1094,196.9531 1162.1094,197.5625 L1162.1094,199.0156 Q1162.1094,199.625 1161.875,199.8906 Q1161.6406,200.1563 1161.2656,200.1563 Q1160.9219,200.1563 1160.7188,199.9531 Q1160.5156,199.7656 1160.4063,199.25 Q1160.3594,198.8906 1160.1719,198.7031 Q1159.8438,198.3281 1159.2344,198.1094 Q1158.625,197.8906 1158,197.8906 Q1157.2344,197.8906 1156.6016,198.2188 Q1155.9688,198.5469 1155.4766,199.2969 Q1154.9844,200.0469 1154.9844,201.0781 L1154.9844,202.1719 Q1154.9844,203.4063 1155.875,204.2266 Q1156.7656,205.0469 1158.3594,205.0469 Q1159.2969,205.0469 1159.9531,204.7969 Q1160.3438,204.6406 1160.7656,204.2031 Q1161.0313,203.9375 1161.1797,203.8594 Q1161.3281,203.7813 1161.5313,203.7813 Q1161.8594,203.7813 1162.1172,204.0391 Q1162.375,204.2969 1162.375,204.6406 Q1162.375,204.9844 1162.0313,205.3906 Q1161.5313,205.9688 1160.7344,206.2969 Q1159.6563,206.75 1158.3594,206.75 Q1156.8438,206.75 1155.6406,206.125 Q1154.6563,205.625 1153.9688,204.5547 Q1153.2813,203.4844 1153.2813,202.2031 L1153.2813,201.0469 Q1153.2813,199.7188 1153.8984,198.5703 Q1154.5156,197.4219 1155.6094,196.8047 Q1156.7031,196.1875 1157.9375,196.1875 Q1158.6719,196.1875 1159.3203,196.3516 Q1159.9688,196.5156 1160.5156,196.875 Z " fill="#000000"/><text fill="#000000" font-family="sans-serif" font-size="14" lengthAdjust="spacing" textLength="105" x="1178.25" y="206.7285">DepotArticleSQL</text><line style="stroke:#000000;stroke-width:0.5;" x1="1058" x2="1371" y1="217" y2="217"/><line style="stroke:#000000;stroke-width:0.5;" x1="1058" x2="1371" y1="225" y2="225"/><text fill="#000000" font-family="sans-serif" font-size="14" lengthAdjust="spacing" textLength="303" x="1063" y="243.5332">+Rechercher(p_motCles : string[]) : List&lt;Article&gt;</text><text fill="#000000" font-family="sans-serif" font-size="14" lengthAdjust="spacing" textLength="193" x="1063" y="261.1426">+Enregistrer(p_article : Article)</text><text fill="#000000" font-family="sans-serif" font-size="14" lengthAdjust="spacing" textLength="270" x="1063" y="278.752">+Obtenir(p_identifiantArticle: Guid) : Article</text><text fill="#000000" font-family="sans-serif" font-size="14" lengthAdjust="spacing" textLength="288" x="1063" y="296.3613">+Supprimer(p_identifiantArticle: Guid) : Article</text></g><!--reverse link DepotArticle to DepotArticleCSV--><g id="link_DepotArticle_DepotArticleCSV"><path codeLine="45" d="M514.9133,125.5307 C448.6233,147.7507 388.69,167.84 322.36,190.08 " fill="none" id="DepotArticle-backto-DepotArticleCSV" style="stroke:#181818;stroke-width:1.0;stroke-dasharray:7.0,7.0;"/><polygon fill="none" points="531.98,119.81,513.0064,119.8418,516.8201,131.2196,531.98,119.81" style="stroke:#181818;stroke-width:1.0;"/></g><!--reverse link DepotArticle to DepotArticleXML--><g id="link_DepotArticle_DepotArticleXML"><path codeLine="46" d="M619.0187,137.8844 C599.9087,157.1044 591.34,165.72 572.23,184.94 " fill="none" id="DepotArticle-backto-DepotArticleXML" style="stroke:#181818;stroke-width:1.0;stroke-dasharray:7.0,7.0;"/><polygon fill="none" points="631.71,125.12,614.7639,133.6539,623.2735,142.1148,631.71,125.12" style="stroke:#181818;stroke-width:1.0;"/></g><!--reverse link DepotArticle to DepotArticleJSON--><g id="link_DepotArticle_DepotArticleJSON"><path codeLine="47" d="M759.9813,137.8844 C779.0913,157.1044 787.66,165.72 806.77,184.94 " fill="none" id="DepotArticle-backto-DepotArticleJSON" style="stroke:#181818;stroke-width:1.0;stroke-dasharray:7.0,7.0;"/><polygon fill="none" points="747.29,125.12,755.7265,142.1148,764.2361,133.6539,747.29,125.12" style="stroke:#181818;stroke-width:1.0;"/></g><!--reverse link DepotArticle to DepotArticleSQL--><g id="link_DepotArticle_DepotArticleSQL"><path codeLine="48" d="M864.0867,125.5307 C930.3767,147.7507 990.31,167.84 1056.64,190.08 " fill="none" id="DepotArticle-backto-DepotArticleSQL" style="stroke:#181818;stroke-width:1.0;stroke-dasharray:7.0,7.0;"/><polygon fill="none" points="847.02,119.81,862.1799,131.2196,865.9936,119.8418,847.02,119.81" style="stroke:#181818;stroke-width:1.0;"/></g><!--SRC=[tPJVIyCm4CVVyrS4VD0YZ3wN8Smgeao75bIG8LbwQu-bIRbSyUV-TriRcVEbFZSG29VFzt9tkSHlqDQAL2MrKTxFc0bN3SEbTZR3Tv2nyFk8_12o7QTARmfoZSrJPnp9Xn8P-Xr7EL1lFOZZM6o5CiQzLFYAjX27Ety6BV1R3T8Hbqu8j0oqLXha6TIEPyIe3OG3Z-KTw1AecqVrS-KuDU1b8dqRiYsUbb6xdgFdQT2T1Dcv9IXQEtthL72Qo8150Lki62ns2EPW6TUex4y8YRneC8zseg39chechE2_ggqGVGr_vvTczsDFyV5wFlOKhxB5pTXpp6v7TerxtypqSpBv-p07YBQl1uYkBGQGjghY2m00]--></g></svg>