<?xml version="1.0" encoding="us-ascii" standalone="no"?><svg xmlns="http://www.w3.org/2000/svg" xmlns:xlink="http://www.w3.org/1999/xlink" contentStyleType="text/css" height="240px" preserveAspectRatio="none" style="width:927px;height:240px;background:#FFFFFF;" version="1.1" viewBox="0 0 927 240" width="927px" zoomAndPan="magnify"><defs/><g><!--class DepotDessin--><g id="elem_DepotDessin"><rect codeLine="12" fill="#FFFFFF" height="83.2188" id="DepotDessin" rx="2.5" ry="2.5" style="stroke:#000000;stroke-width:0.5;" width="281" x="323" y="7"/><ellipse cx="418.75" cy="23" fill="#B4A7E5" rx="11" ry="11" style="stroke:#181818;stroke-width:1.0;"/><path d="M419.7031,19.6406 L419.7031,26.2969 L421.4219,26.2969 Q422.0313,26.2969 422.2969,26.5313 Q422.5625,26.7656 422.5625,27.1563 Q422.5625,27.5313 422.2969,27.7656 Q422.0313,28 421.4219,28 L416.2813,28 Q415.6719,28 415.4063,27.7656 Q415.1406,27.5313 415.1406,27.1406 Q415.1406,26.7656 415.4063,26.5313 Q415.6719,26.2969 416.2813,26.2969 L418,26.2969 L418,19.6406 L416.2813,19.6406 Q415.6719,19.6406 415.4063,19.4063 Q415.1406,19.1719 415.1406,18.7813 Q415.1406,18.4063 415.4063,18.1719 Q415.6719,17.9375 416.2813,17.9375 L421.4219,17.9375 Q422.0313,17.9375 422.2969,18.1719 Q422.5625,18.4063 422.5625,18.7813 Q422.5625,19.1719 422.2969,19.4063 Q422.0313,19.6406 421.4219,19.6406 L419.7031,19.6406 Z " fill="#000000"/><text fill="#000000" font-family="sans-serif" font-size="14" font-style="italic" lengthAdjust="spacing" textLength="81" x="439.25" y="28.7285">DepotDessin</text><line style="stroke:#000000;stroke-width:0.5;" x1="324" x2="603" y1="39" y2="39"/><line style="stroke:#000000;stroke-width:0.5;" x1="324" x2="603" y1="47" y2="47"/><text fill="#000000" font-family="sans-serif" font-size="14" lengthAdjust="spacing" textLength="131" x="329" y="65.5332">+Dessin LireDepot();</text><text fill="#000000" font-family="sans-serif" font-size="14" lengthAdjust="spacing" textLength="269" x="329" y="83.1426">+void EnregistrerDessin(Dessin p_dessin);</text></g><!--class DepotDessinJSON--><g id="elem_DepotDessinJSON"><rect codeLine="22" fill="#FFFFFF" height="83.2188" id="DepotDessinJSON" rx="2.5" ry="2.5" style="stroke:#000000;stroke-width:0.5;" width="281" x="7" y="150"/><ellipse cx="85.25" cy="166" fill="#ADD1B2" rx="11" ry="11" style="stroke:#181818;stroke-width:1.0;"/><path d="M88.0156,161.875 Q88.1719,161.6563 88.3594,161.5469 Q88.5469,161.4375 88.7656,161.4375 Q89.1406,161.4375 89.375,161.6953 Q89.6094,161.9531 89.6094,162.5625 L89.6094,164.0156 Q89.6094,164.625 89.375,164.8906 Q89.1406,165.1563 88.7656,165.1563 Q88.4219,165.1563 88.2188,164.9531 Q88.0156,164.7656 87.9063,164.25 Q87.8594,163.8906 87.6719,163.7031 Q87.3438,163.3281 86.7344,163.1094 Q86.125,162.8906 85.5,162.8906 Q84.7344,162.8906 84.1016,163.2188 Q83.4688,163.5469 82.9766,164.2969 Q82.4844,165.0469 82.4844,166.0781 L82.4844,167.1719 Q82.4844,168.4063 83.375,169.2266 Q84.2656,170.0469 85.8594,170.0469 Q86.7969,170.0469 87.4531,169.7969 Q87.8438,169.6406 88.2656,169.2031 Q88.5313,168.9375 88.6797,168.8594 Q88.8281,168.7813 89.0313,168.7813 Q89.3594,168.7813 89.6172,169.0391 Q89.875,169.2969 89.875,169.6406 Q89.875,169.9844 89.5313,170.3906 Q89.0313,170.9688 88.2344,171.2969 Q87.1563,171.75 85.8594,171.75 Q84.3438,171.75 83.1406,171.125 Q82.1563,170.625 81.4688,169.5547 Q80.7813,168.4844 80.7813,167.2031 L80.7813,166.0469 Q80.7813,164.7188 81.3984,163.5703 Q82.0156,162.4219 83.1094,161.8047 Q84.2031,161.1875 85.4375,161.1875 Q86.1719,161.1875 86.8203,161.3516 Q87.4688,161.5156 88.0156,161.875 Z " fill="#000000"/><text fill="#000000" font-family="sans-serif" font-size="14" lengthAdjust="spacing" textLength="116" x="105.75" y="171.7285">DepotDessinJSON</text><line style="stroke:#000000;stroke-width:0.5;" x1="8" x2="287" y1="182" y2="182"/><line style="stroke:#000000;stroke-width:0.5;" x1="8" x2="287" y1="190" y2="190"/><text fill="#000000" font-family="sans-serif" font-size="14" lengthAdjust="spacing" textLength="131" x="13" y="208.5332">+Dessin LireDepot();</text><text fill="#000000" font-family="sans-serif" font-size="14" lengthAdjust="spacing" textLength="269" x="13" y="226.1426">+void EnregistrerDessin(Dessin p_dessin);</text></g><!--class DepotDessinXMLFormatAttributs--><g id="elem_DepotDessinXMLFormatAttributs"><rect codeLine="17" fill="#FFFFFF" height="83.2188" id="DepotDessinXMLFormatAttributs" rx="2.5" ry="2.5" style="stroke:#000000;stroke-width:0.5;" width="281" x="323" y="150"/><ellipse cx="357.8" cy="166" fill="#ADD1B2" rx="11" ry="11" style="stroke:#181818;stroke-width:1.0;"/><path d="M360.5656,161.875 Q360.7219,161.6563 360.9094,161.5469 Q361.0969,161.4375 361.3156,161.4375 Q361.6906,161.4375 361.925,161.6953 Q362.1594,161.9531 362.1594,162.5625 L362.1594,164.0156 Q362.1594,164.625 361.925,164.8906 Q361.6906,165.1563 361.3156,165.1563 Q360.9719,165.1563 360.7688,164.9531 Q360.5656,164.7656 360.4563,164.25 Q360.4094,163.8906 360.2219,163.7031 Q359.8938,163.3281 359.2844,163.1094 Q358.675,162.8906 358.05,162.8906 Q357.2844,162.8906 356.6516,163.2188 Q356.0188,163.5469 355.5266,164.2969 Q355.0344,165.0469 355.0344,166.0781 L355.0344,167.1719 Q355.0344,168.4063 355.925,169.2266 Q356.8156,170.0469 358.4094,170.0469 Q359.3469,170.0469 360.0031,169.7969 Q360.3938,169.6406 360.8156,169.2031 Q361.0813,168.9375 361.2297,168.8594 Q361.3781,168.7813 361.5813,168.7813 Q361.9094,168.7813 362.1672,169.0391 Q362.425,169.2969 362.425,169.6406 Q362.425,169.9844 362.0813,170.3906 Q361.5813,170.9688 360.7844,171.2969 Q359.7063,171.75 358.4094,171.75 Q356.8938,171.75 355.6906,171.125 Q354.7063,170.625 354.0188,169.5547 Q353.3313,168.4844 353.3313,167.2031 L353.3313,166.0469 Q353.3313,164.7188 353.9484,163.5703 Q354.5656,162.4219 355.6594,161.8047 Q356.7531,161.1875 357.9875,161.1875 Q358.7219,161.1875 359.3703,161.3516 Q360.0188,161.5156 360.5656,161.875 Z " fill="#000000"/><text fill="#000000" font-family="sans-serif" font-size="14" lengthAdjust="spacing" textLength="205" x="376.2" y="171.7285">DepotDessinXMLFormatAttributs</text><line style="stroke:#000000;stroke-width:0.5;" x1="324" x2="603" y1="182" y2="182"/><line style="stroke:#000000;stroke-width:0.5;" x1="324" x2="603" y1="190" y2="190"/><text fill="#000000" font-family="sans-serif" font-size="14" lengthAdjust="spacing" textLength="131" x="329" y="208.5332">+Dessin LireDepot();</text><text fill="#000000" font-family="sans-serif" font-size="14" lengthAdjust="spacing" textLength="269" x="329" y="226.1426">+void EnregistrerDessin(Dessin p_dessin);</text></g><!--class DepotDessinXMLFormatElements--><g id="elem_DepotDessinXMLFormatElements"><rect codeLine="27" fill="#FFFFFF" height="83.2188" id="DepotDessinXMLFormatElements" rx="2.5" ry="2.5" style="stroke:#000000;stroke-width:0.5;" width="281" x="639" y="150"/><ellipse cx="671.1" cy="166" fill="#ADD1B2" rx="11" ry="11" style="stroke:#181818;stroke-width:1.0;"/><path d="M673.8656,161.875 Q674.0219,161.6563 674.2094,161.5469 Q674.3969,161.4375 674.6156,161.4375 Q674.9906,161.4375 675.225,161.6953 Q675.4594,161.9531 675.4594,162.5625 L675.4594,164.0156 Q675.4594,164.625 675.225,164.8906 Q674.9906,165.1563 674.6156,165.1563 Q674.2719,165.1563 674.0688,164.9531 Q673.8656,164.7656 673.7563,164.25 Q673.7094,163.8906 673.5219,163.7031 Q673.1938,163.3281 672.5844,163.1094 Q671.975,162.8906 671.35,162.8906 Q670.5844,162.8906 669.9516,163.2188 Q669.3188,163.5469 668.8266,164.2969 Q668.3344,165.0469 668.3344,166.0781 L668.3344,167.1719 Q668.3344,168.4063 669.225,169.2266 Q670.1156,170.0469 671.7094,170.0469 Q672.6469,170.0469 673.3031,169.7969 Q673.6938,169.6406 674.1156,169.2031 Q674.3813,168.9375 674.5297,168.8594 Q674.6781,168.7813 674.8813,168.7813 Q675.2094,168.7813 675.4672,169.0391 Q675.725,169.2969 675.725,169.6406 Q675.725,169.9844 675.3813,170.3906 Q674.8813,170.9688 674.0844,171.2969 Q673.0063,171.75 671.7094,171.75 Q670.1938,171.75 668.9906,171.125 Q668.0063,170.625 667.3188,169.5547 Q666.6313,168.4844 666.6313,167.2031 L666.6313,166.0469 Q666.6313,164.7188 667.2484,163.5703 Q667.8656,162.4219 668.9594,161.8047 Q670.0531,161.1875 671.2875,161.1875 Q672.0219,161.1875 672.6703,161.3516 Q673.3188,161.5156 673.8656,161.875 Z " fill="#000000"/><text fill="#000000" font-family="sans-serif" font-size="14" lengthAdjust="spacing" textLength="211" x="688.9" y="171.7285">DepotDessinXMLFormatElements</text><line style="stroke:#000000;stroke-width:0.5;" x1="640" x2="919" y1="182" y2="182"/><line style="stroke:#000000;stroke-width:0.5;" x1="640" x2="919" y1="190" y2="190"/><text fill="#000000" font-family="sans-serif" font-size="14" lengthAdjust="spacing" textLength="131" x="645" y="208.5332">+Dessin LireDepot();</text><text fill="#000000" font-family="sans-serif" font-size="14" lengthAdjust="spacing" textLength="269" x="645" y="226.1426">+void EnregistrerDessin(Dessin p_dessin);</text></g><!--reverse link DepotDessin to DepotDessinJSON--><g id="link_DepotDessin_DepotDessinJSON"><path codeLine="8" d="M356.0836,97.428 C313.9736,116.228 280.49,131.16 238.38,149.95 " fill="none" id="DepotDessin-backto-DepotDessinJSON" style="stroke:#181818;stroke-width:1.0;"/><polygon fill="none" points="372.52,90.09,353.6376,91.9492,358.5296,102.9068,372.52,90.09" style="stroke:#181818;stroke-width:1.0;"/></g><!--reverse link DepotDessin to DepotDessinXMLFormatAttributs--><g id="link_DepotDessin_DepotDessinXMLFormatAttributs"><path codeLine="9" d="M463.5,108.28 C463.5,126.99 463.5,131.11 463.5,149.81 " fill="none" id="DepotDessin-backto-DepotDessinXMLFormatAttributs" style="stroke:#181818;stroke-width:1.0;"/><polygon fill="none" points="463.5,90.28,457.5,108.28,469.5,108.28,463.5,90.28" style="stroke:#181818;stroke-width:1.0;"/></g><!--reverse link DepotDessin to DepotDessinXMLFormatElements--><g id="link_DepotDessin_DepotDessinXMLFormatElements"><path codeLine="10" d="M570.9164,97.428 C613.0264,116.228 646.51,131.16 688.62,149.95 " fill="none" id="DepotDessin-backto-DepotDessinXMLFormatElements" style="stroke:#181818;stroke-width:1.0;"/><polygon fill="none" points="554.48,90.09,568.4704,102.9068,573.3624,91.9492,554.48,90.09" style="stroke:#181818;stroke-width:1.0;"/></g><!--SRC=[lP2x3i8m34NtV8Kb5X12wWuBK910F0O6s518JR5eaye933p-dK9QgImL0v39yJsMVQyzaiuaonHK8gtjEyUqEpcSAADNT448X7r7u2eWVmEfZZ6Rauw69Z4CwmCvz8hX2Dbt6q4GYBiG8MR6XMWjQUZTEXseDAQhvQ8MsCndOyEfTELrzZDyb62AEgS5QOUybmghN66a3SLtHemlkTdg5ihPK0GZpHYJTOpioMOna6sZLv7ZkKKVJktPlzxuJF9lhifqlxlm0G00]--></g></svg>