<?xml version="1.0" encoding="us-ascii" standalone="no"?><svg xmlns="http://www.w3.org/2000/svg" xmlns:xlink="http://www.w3.org/1999/xlink" contentStyleType="text/css" height="613px" preserveAspectRatio="none" style="width:2812px;height:613px;background:#FFFFFF;" version="1.1" viewBox="0 0 2812 613" width="2812px" zoomAndPan="magnify"><defs/><g><!--class IDisposable--><g id="elem_IDisposable"><rect codeLine="8" fill="#FFFFFF" height="65.6094" id="IDisposable" rx="2.5" ry="2.5" style="stroke:#000000;stroke-width:0.5;" width="106" x="372" y="238.5"/><ellipse cx="387" cy="254.5" fill="#B4A7E5" rx="11" ry="11" style="stroke:#181818;stroke-width:1.0;"/><path d="M387.9531,251.1406 L387.9531,257.7969 L389.6719,257.7969 Q390.2813,257.7969 390.5469,258.0313 Q390.8125,258.2656 390.8125,258.6563 Q390.8125,259.0313 390.5469,259.2656 Q390.2813,259.5 389.6719,259.5 L384.5313,259.5 Q383.9219,259.5 383.6563,259.2656 Q383.3906,259.0313 383.3906,258.6406 Q383.3906,258.2656 383.6563,258.0313 Q383.9219,257.7969 384.5313,257.7969 L386.25,257.7969 L386.25,251.1406 L384.5313,251.1406 Q383.9219,251.1406 383.6563,250.9063 Q383.3906,250.6719 383.3906,250.2813 Q383.3906,249.9063 383.6563,249.6719 Q383.9219,249.4375 384.5313,249.4375 L389.6719,249.4375 Q390.2813,249.4375 390.5469,249.6719 Q390.8125,249.9063 390.8125,250.2813 Q390.8125,250.6719 390.5469,250.9063 Q390.2813,251.1406 389.6719,251.1406 L387.9531,251.1406 Z " fill="#000000"/><text fill="#000000" font-family="sans-serif" font-size="14" font-style="italic" lengthAdjust="spacing" textLength="74" x="401" y="260.2285">IDisposable</text><line style="stroke:#000000;stroke-width:0.5;" x1="373" x2="477" y1="270.5" y2="270.5"/><line style="stroke:#000000;stroke-width:0.5;" x1="373" x2="477" y1="278.5" y2="278.5"/><text fill="#000000" font-family="sans-serif" font-size="14" lengthAdjust="spacing" textLength="69" x="378" y="297.0332">+Dispose()</text></g><!--class IObservable--><g id="elem_IObservable"><rect codeLine="12" fill="#FFFFFF" height="65.6094" id="IObservable" rx="2.5" ry="2.5" style="stroke:#000000;stroke-width:0.5;" width="463" x="1382.5" y="24.5"/><ellipse cx="1524.75" cy="40.5" fill="#B4A7E5" rx="11" ry="11" style="stroke:#181818;stroke-width:1.0;"/><path d="M1525.7031,37.1406 L1525.7031,43.7969 L1527.4219,43.7969 Q1528.0313,43.7969 1528.2969,44.0313 Q1528.5625,44.2656 1528.5625,44.6563 Q1528.5625,45.0313 1528.2969,45.2656 Q1528.0313,45.5 1527.4219,45.5 L1522.2813,45.5 Q1521.6719,45.5 1521.4063,45.2656 Q1521.1406,45.0313 1521.1406,44.6406 Q1521.1406,44.2656 1521.4063,44.0313 Q1521.6719,43.7969 1522.2813,43.7969 L1524,43.7969 L1524,37.1406 L1522.2813,37.1406 Q1521.6719,37.1406 1521.4063,36.9063 Q1521.1406,36.6719 1521.1406,36.2813 Q1521.1406,35.9063 1521.4063,35.6719 Q1521.6719,35.4375 1522.2813,35.4375 L1527.4219,35.4375 Q1528.0313,35.4375 1528.2969,35.6719 Q1528.5625,35.9063 1528.5625,36.2813 Q1528.5625,36.6719 1528.2969,36.9063 Q1528.0313,37.1406 1527.4219,37.1406 L1525.7031,37.1406 Z " fill="#000000"/><text fill="#000000" font-family="sans-serif" font-size="14" font-style="italic" lengthAdjust="spacing" textLength="76" x="1545.25" y="46.2285">IObservable</text><rect fill="#FFFFFF" height="17.0938" style="stroke:#000000;stroke-width:1.0;stroke-dasharray:2.0,2.0;" width="92" x="1756.5" y="21.5"/><text fill="#000000" font-family="sans-serif" font-size="12" font-style="italic" lengthAdjust="spacing" textLength="90" x="1757.5" y="34.957">TypeEvenement</text><line style="stroke:#000000;stroke-width:0.5;" x1="1383.5" x2="1844.5" y1="56.5" y2="56.5"/><line style="stroke:#000000;stroke-width:0.5;" x1="1383.5" x2="1844.5" y1="64.5" y2="64.5"/><text fill="#000000" font-family="sans-serif" font-size="14" lengthAdjust="spacing" textLength="451" x="1388.5" y="83.0332">+Subscribe(p_observateur : IObserver&lt;TypeEvenement&gt;) : IDisposable</text></g><!--class IObserver--><g id="elem_IObserver"><rect codeLine="16" fill="#FFFFFF" height="100.8281" id="IObserver" rx="2.5" ry="2.5" style="stroke:#000000;stroke-width:0.5;" width="246" x="1091" y="221"/><ellipse cx="1132.1" cy="237" fill="#B4A7E5" rx="11" ry="11" style="stroke:#181818;stroke-width:1.0;"/><path d="M1133.0531,233.6406 L1133.0531,240.2969 L1134.7719,240.2969 Q1135.3813,240.2969 1135.6469,240.5313 Q1135.9125,240.7656 1135.9125,241.1563 Q1135.9125,241.5313 1135.6469,241.7656 Q1135.3813,242 1134.7719,242 L1129.6313,242 Q1129.0219,242 1128.7563,241.7656 Q1128.4906,241.5313 1128.4906,241.1406 Q1128.4906,240.7656 1128.7563,240.5313 Q1129.0219,240.2969 1129.6313,240.2969 L1131.35,240.2969 L1131.35,233.6406 L1129.6313,233.6406 Q1129.0219,233.6406 1128.7563,233.4063 Q1128.4906,233.1719 1128.4906,232.7813 Q1128.4906,232.4063 1128.7563,232.1719 Q1129.0219,231.9375 1129.6313,231.9375 L1134.7719,231.9375 Q1135.3813,231.9375 1135.6469,232.1719 Q1135.9125,232.4063 1135.9125,232.7813 Q1135.9125,233.1719 1135.6469,233.4063 Q1135.3813,233.6406 1134.7719,233.6406 L1133.0531,233.6406 Z " fill="#000000"/><text fill="#000000" font-family="sans-serif" font-size="14" font-style="italic" lengthAdjust="spacing" textLength="62" x="1151.9" y="242.7285">IObserver</text><rect fill="#FFFFFF" height="17.0938" style="stroke:#000000;stroke-width:1.0;stroke-dasharray:2.0,2.0;" width="92" x="1248" y="218"/><text fill="#000000" font-family="sans-serif" font-size="12" font-style="italic" lengthAdjust="spacing" textLength="90" x="1249" y="231.457">TypeEvenement</text><line style="stroke:#000000;stroke-width:0.5;" x1="1092" x2="1336" y1="253" y2="253"/><line style="stroke:#000000;stroke-width:0.5;" x1="1092" x2="1336" y1="261" y2="261"/><text fill="#000000" font-family="sans-serif" font-size="14" lengthAdjust="spacing" textLength="105" x="1097" y="279.5332">+OnCompleted()</text><text fill="#000000" font-family="sans-serif" font-size="14" lengthAdjust="spacing" textLength="218" x="1097" y="297.1426">+OnError(p_exception : Exception)</text><text fill="#000000" font-family="sans-serif" font-size="14" lengthAdjust="spacing" textLength="234" x="1097" y="314.752">+OnNext(p_valeur : TypeEvenement)</text></g><!--class FactureModel--><g id="elem_FactureModel"><rect codeLine="22" fill="#FFFFFF" height="171.2656" id="FactureModel" rx="2.5" ry="2.5" style="stroke:#000000;stroke-width:0.5;" width="483" x="1372.5" y="186"/><ellipse cx="1566.25" cy="202" fill="#ADD1B2" rx="11" ry="11" style="stroke:#181818;stroke-width:1.0;"/><path d="M1569.0156,197.875 Q1569.1719,197.6563 1569.3594,197.5469 Q1569.5469,197.4375 1569.7656,197.4375 Q1570.1406,197.4375 1570.375,197.6953 Q1570.6094,197.9531 1570.6094,198.5625 L1570.6094,200.0156 Q1570.6094,200.625 1570.375,200.8906 Q1570.1406,201.1563 1569.7656,201.1563 Q1569.4219,201.1563 1569.2188,200.9531 Q1569.0156,200.7656 1568.9063,200.25 Q1568.8594,199.8906 1568.6719,199.7031 Q1568.3438,199.3281 1567.7344,199.1094 Q1567.125,198.8906 1566.5,198.8906 Q1565.7344,198.8906 1565.1016,199.2188 Q1564.4688,199.5469 1563.9766,200.2969 Q1563.4844,201.0469 1563.4844,202.0781 L1563.4844,203.1719 Q1563.4844,204.4063 1564.375,205.2266 Q1565.2656,206.0469 1566.8594,206.0469 Q1567.7969,206.0469 1568.4531,205.7969 Q1568.8438,205.6406 1569.2656,205.2031 Q1569.5313,204.9375 1569.6797,204.8594 Q1569.8281,204.7813 1570.0313,204.7813 Q1570.3594,204.7813 1570.6172,205.0391 Q1570.875,205.2969 1570.875,205.6406 Q1570.875,205.9844 1570.5313,206.3906 Q1570.0313,206.9688 1569.2344,207.2969 Q1568.1563,207.75 1566.8594,207.75 Q1565.3438,207.75 1564.1406,207.125 Q1563.1563,206.625 1562.4688,205.5547 Q1561.7813,204.4844 1561.7813,203.2031 L1561.7813,202.0469 Q1561.7813,200.7188 1562.3984,199.5703 Q1563.0156,198.4219 1564.1094,197.8047 Q1565.2031,197.1875 1566.4375,197.1875 Q1567.1719,197.1875 1567.8203,197.3516 Q1568.4688,197.5156 1569.0156,197.875 Z " fill="#000000"/><text fill="#000000" font-family="sans-serif" font-size="14" lengthAdjust="spacing" textLength="87" x="1586.75" y="207.7285">FactureModel</text><line style="stroke:#000000;stroke-width:0.5;" x1="1373.5" x2="1854.5" y1="218" y2="218"/><text fill="#000000" font-family="sans-serif" font-size="14" lengthAdjust="spacing" textLength="320" x="1378.5" y="236.5332">-m_lignesFactureModel : List&lt;LigneFactureModel&gt;</text><text fill="#000000" font-family="sans-serif" font-size="14" lengthAdjust="spacing" textLength="358" x="1378.5" y="254.1426">-m_observateurs : List&lt;IObserver&lt;FactureModelEvent&gt;&gt;</text><text fill="#000000" font-family="sans-serif" font-size="14" lengthAdjust="spacing" textLength="140" x="1378.5" y="271.752">+Total : decimal &#171;get&#187;</text><line style="stroke:#000000;stroke-width:0.5;" x1="1373.5" x2="1854.5" y1="278.8281" y2="278.8281"/><text fill="#000000" font-family="sans-serif" font-size="14" lengthAdjust="spacing" textLength="42" x="1378.5" y="297.3613">+ctor()</text><text fill="#000000" font-family="sans-serif" font-size="14" lengthAdjust="spacing" textLength="471" x="1378.5" y="314.9707">+Subscribe(p_observateur : IObserver&lt;FactureModelEvent&gt;) : IDisposable</text><text fill="#000000" font-family="sans-serif" font-size="14" lengthAdjust="spacing" textLength="452" x="1378.5" y="332.5801">+AjouterLigneFactureModel(p_ligneFactureModel : LigneFactureModel)</text><text fill="#000000" font-family="sans-serif" font-size="14" lengthAdjust="spacing" textLength="72" x="1378.5" y="350.1895">+Nouvelle()</text></g><!--class fEcranPrincipal--><g id="elem_fEcranPrincipal"><rect codeLine="32" fill="#FFFFFF" height="118.4375" id="fEcranPrincipal" rx="2.5" ry="2.5" style="stroke:#000000;stroke-width:0.5;" width="217" x="2176.5" y="212.5"/><ellipse cx="2233.25" cy="228.5" fill="#ADD1B2" rx="11" ry="11" style="stroke:#181818;stroke-width:1.0;"/><path d="M2236.0156,224.375 Q2236.1719,224.1563 2236.3594,224.0469 Q2236.5469,223.9375 2236.7656,223.9375 Q2237.1406,223.9375 2237.375,224.1953 Q2237.6094,224.4531 2237.6094,225.0625 L2237.6094,226.5156 Q2237.6094,227.125 2237.375,227.3906 Q2237.1406,227.6563 2236.7656,227.6563 Q2236.4219,227.6563 2236.2188,227.4531 Q2236.0156,227.2656 2235.9063,226.75 Q2235.8594,226.3906 2235.6719,226.2031 Q2235.3438,225.8281 2234.7344,225.6094 Q2234.125,225.3906 2233.5,225.3906 Q2232.7344,225.3906 2232.1016,225.7188 Q2231.4688,226.0469 2230.9766,226.7969 Q2230.4844,227.5469 2230.4844,228.5781 L2230.4844,229.6719 Q2230.4844,230.9063 2231.375,231.7266 Q2232.2656,232.5469 2233.8594,232.5469 Q2234.7969,232.5469 2235.4531,232.2969 Q2235.8438,232.1406 2236.2656,231.7031 Q2236.5313,231.4375 2236.6797,231.3594 Q2236.8281,231.2813 2237.0313,231.2813 Q2237.3594,231.2813 2237.6172,231.5391 Q2237.875,231.7969 2237.875,232.1406 Q2237.875,232.4844 2237.5313,232.8906 Q2237.0313,233.4688 2236.2344,233.7969 Q2235.1563,234.25 2233.8594,234.25 Q2232.3438,234.25 2231.1406,233.625 Q2230.1563,233.125 2229.4688,232.0547 Q2228.7813,230.9844 2228.7813,229.7031 L2228.7813,228.5469 Q2228.7813,227.2188 2229.3984,226.0703 Q2230.0156,224.9219 2231.1094,224.3047 Q2232.2031,223.6875 2233.4375,223.6875 Q2234.1719,223.6875 2234.8203,223.8516 Q2235.4688,224.0156 2236.0156,224.375 Z " fill="#000000"/><text fill="#000000" font-family="sans-serif" font-size="14" lengthAdjust="spacing" textLength="95" x="2253.75" y="234.2285">fEcranPrincipal</text><line style="stroke:#000000;stroke-width:0.5;" x1="2177.5" x2="2392.5" y1="244.5" y2="244.5"/><text fill="#000000" font-family="sans-serif" font-size="14" lengthAdjust="spacing" textLength="205" x="2182.5" y="263.0332">-m_factureModel : FactureModel</text><text fill="#000000" font-family="sans-serif" font-size="14" lengthAdjust="spacing" textLength="185" x="2182.5" y="280.6426">-m_ecranClient : fEcranClient</text><line style="stroke:#000000;stroke-width:0.5;" x1="2177.5" x2="2392.5" y1="287.7188" y2="287.7188"/><text fill="#000000" font-family="sans-serif" font-size="14" lengthAdjust="spacing" textLength="42" x="2182.5" y="306.252">+ctor()</text><text fill="#000000" font-family="sans-serif" font-size="14" lengthAdjust="spacing" textLength="22" x="2182.5" y="323.8613">...()</text></g><!--class fEcranClient--><g id="elem_fEcranClient"><rect codeLine="39" fill="#FFFFFF" height="83.2188" id="fEcranClient" rx="2.5" ry="2.5" style="stroke:#000000;stroke-width:0.5;" width="251" x="1890.5" y="230"/><ellipse cx="1973.25" cy="246" fill="#ADD1B2" rx="11" ry="11" style="stroke:#181818;stroke-width:1.0;"/><path d="M1976.0156,241.875 Q1976.1719,241.6563 1976.3594,241.5469 Q1976.5469,241.4375 1976.7656,241.4375 Q1977.1406,241.4375 1977.375,241.6953 Q1977.6094,241.9531 1977.6094,242.5625 L1977.6094,244.0156 Q1977.6094,244.625 1977.375,244.8906 Q1977.1406,245.1563 1976.7656,245.1563 Q1976.4219,245.1563 1976.2188,244.9531 Q1976.0156,244.7656 1975.9063,244.25 Q1975.8594,243.8906 1975.6719,243.7031 Q1975.3438,243.3281 1974.7344,243.1094 Q1974.125,242.8906 1973.5,242.8906 Q1972.7344,242.8906 1972.1016,243.2188 Q1971.4688,243.5469 1970.9766,244.2969 Q1970.4844,245.0469 1970.4844,246.0781 L1970.4844,247.1719 Q1970.4844,248.4063 1971.375,249.2266 Q1972.2656,250.0469 1973.8594,250.0469 Q1974.7969,250.0469 1975.4531,249.7969 Q1975.8438,249.6406 1976.2656,249.2031 Q1976.5313,248.9375 1976.6797,248.8594 Q1976.8281,248.7813 1977.0313,248.7813 Q1977.3594,248.7813 1977.6172,249.0391 Q1977.875,249.2969 1977.875,249.6406 Q1977.875,249.9844 1977.5313,250.3906 Q1977.0313,250.9688 1976.2344,251.2969 Q1975.1563,251.75 1973.8594,251.75 Q1972.3438,251.75 1971.1406,251.125 Q1970.1563,250.625 1969.4688,249.5547 Q1968.7813,248.4844 1968.7813,247.2031 L1968.7813,246.0469 Q1968.7813,244.7188 1969.3984,243.5703 Q1970.0156,242.4219 1971.1094,241.8047 Q1972.2031,241.1875 1973.4375,241.1875 Q1974.1719,241.1875 1974.8203,241.3516 Q1975.4688,241.5156 1976.0156,241.875 Z " fill="#000000"/><text fill="#000000" font-family="sans-serif" font-size="14" lengthAdjust="spacing" textLength="77" x="1993.75" y="251.7285">fEcranClient</text><line style="stroke:#000000;stroke-width:0.5;" x1="1891.5" x2="2140.5" y1="262" y2="262"/><line style="stroke:#000000;stroke-width:0.5;" x1="1891.5" x2="2140.5" y1="270" y2="270"/><text fill="#000000" font-family="sans-serif" font-size="14" lengthAdjust="spacing" textLength="239" x="1896.5" y="288.5332">+ctor(p_factureModel : FactureModel)</text><text fill="#000000" font-family="sans-serif" font-size="14" lengthAdjust="spacing" textLength="22" x="1896.5" y="306.1426">...()</text></g><!--class ObservateurEcranCaissier--><g id="elem_ObservateurEcranCaissier"><rect codeLine="44" fill="#FFFFFF" height="188.875" id="ObservateurEcranCaissier" rx="2.5" ry="2.5" style="stroke:#000000;stroke-width:0.5;" width="672" x="878" y="418"/><ellipse cx="1126.25" cy="434" fill="#ADD1B2" rx="11" ry="11" style="stroke:#181818;stroke-width:1.0;"/><path d="M1129.0156,429.875 Q1129.1719,429.6563 1129.3594,429.5469 Q1129.5469,429.4375 1129.7656,429.4375 Q1130.1406,429.4375 1130.375,429.6953 Q1130.6094,429.9531 1130.6094,430.5625 L1130.6094,432.0156 Q1130.6094,432.625 1130.375,432.8906 Q1130.1406,433.1563 1129.7656,433.1563 Q1129.4219,433.1563 1129.2188,432.9531 Q1129.0156,432.7656 1128.9063,432.25 Q1128.8594,431.8906 1128.6719,431.7031 Q1128.3438,431.3281 1127.7344,431.1094 Q1127.125,430.8906 1126.5,430.8906 Q1125.7344,430.8906 1125.1016,431.2188 Q1124.4688,431.5469 1123.9766,432.2969 Q1123.4844,433.0469 1123.4844,434.0781 L1123.4844,435.1719 Q1123.4844,436.4063 1124.375,437.2266 Q1125.2656,438.0469 1126.8594,438.0469 Q1127.7969,438.0469 1128.4531,437.7969 Q1128.8438,437.6406 1129.2656,437.2031 Q1129.5313,436.9375 1129.6797,436.8594 Q1129.8281,436.7813 1130.0313,436.7813 Q1130.3594,436.7813 1130.6172,437.0391 Q1130.875,437.2969 1130.875,437.6406 Q1130.875,437.9844 1130.5313,438.3906 Q1130.0313,438.9688 1129.2344,439.2969 Q1128.1563,439.75 1126.8594,439.75 Q1125.3438,439.75 1124.1406,439.125 Q1123.1563,438.625 1122.4688,437.5547 Q1121.7813,436.4844 1121.7813,435.2031 L1121.7813,434.0469 Q1121.7813,432.7188 1122.3984,431.5703 Q1123.0156,430.4219 1124.1094,429.8047 Q1125.2031,429.1875 1126.4375,429.1875 Q1127.1719,429.1875 1127.8203,429.3516 Q1128.4688,429.5156 1129.0156,429.875 Z " fill="#000000"/><text fill="#000000" font-family="sans-serif" font-size="14" lengthAdjust="spacing" textLength="167" x="1146.75" y="439.7285">ObservateurEcranCaissier</text><line style="stroke:#000000;stroke-width:0.5;" x1="879" x2="1549" y1="450" y2="450"/><text fill="#000000" font-family="sans-serif" font-size="14" lengthAdjust="spacing" textLength="202" x="884" y="468.5332">-m_seDesabonner : IDisposable</text><text fill="#000000" font-family="sans-serif" font-size="14" lengthAdjust="spacing" textLength="232" x="884" y="486.1426">-m_dgvFactureModel : DataGridView</text><text fill="#000000" font-family="sans-serif" font-size="14" lengthAdjust="spacing" textLength="113" x="884" y="503.752">-m_total : TextBox</text><line style="stroke:#000000;stroke-width:0.5;" x1="879" x2="1549" y1="510.8281" y2="510.8281"/><text fill="#000000" font-family="sans-serif" font-size="14" lengthAdjust="spacing" textLength="660" x="884" y="529.3613">+ctor(p_sujet : IObservable&lt;FactureModelEvent&gt;, p_dgvFactureModel : DataGridView, p_total : TextBox)</text><text fill="#000000" font-family="sans-serif" font-size="14" lengthAdjust="spacing" textLength="105" x="884" y="546.9707">+OnCompleted()</text><text fill="#000000" font-family="sans-serif" font-size="14" lengthAdjust="spacing" textLength="218" x="884" y="564.5801">+OnError(p_exception : Exception)</text><text fill="#000000" font-family="sans-serif" font-size="14" lengthAdjust="spacing" textLength="254" x="884" y="582.1895">+OnNext(p_valeur : FactureModelEvent)</text><text fill="#000000" font-family="sans-serif" font-size="14" lengthAdjust="spacing" textLength="113" x="884" y="599.7988">+SeDesabonner()</text></g><!--class ObservateurEcranClient--><g id="elem_ObservateurEcranClient"><rect codeLine="55" fill="#FFFFFF" height="171.2656" id="ObservateurEcranClient" rx="2.5" ry="2.5" style="stroke:#000000;stroke-width:0.5;" width="471" x="1585.5" y="427"/><ellipse cx="1740.75" cy="443" fill="#ADD1B2" rx="11" ry="11" style="stroke:#181818;stroke-width:1.0;"/><path d="M1743.5156,438.875 Q1743.6719,438.6563 1743.8594,438.5469 Q1744.0469,438.4375 1744.2656,438.4375 Q1744.6406,438.4375 1744.875,438.6953 Q1745.1094,438.9531 1745.1094,439.5625 L1745.1094,441.0156 Q1745.1094,441.625 1744.875,441.8906 Q1744.6406,442.1563 1744.2656,442.1563 Q1743.9219,442.1563 1743.7188,441.9531 Q1743.5156,441.7656 1743.4063,441.25 Q1743.3594,440.8906 1743.1719,440.7031 Q1742.8438,440.3281 1742.2344,440.1094 Q1741.625,439.8906 1741,439.8906 Q1740.2344,439.8906 1739.6016,440.2188 Q1738.9688,440.5469 1738.4766,441.2969 Q1737.9844,442.0469 1737.9844,443.0781 L1737.9844,444.1719 Q1737.9844,445.4063 1738.875,446.2266 Q1739.7656,447.0469 1741.3594,447.0469 Q1742.2969,447.0469 1742.9531,446.7969 Q1743.3438,446.6406 1743.7656,446.2031 Q1744.0313,445.9375 1744.1797,445.8594 Q1744.3281,445.7813 1744.5313,445.7813 Q1744.8594,445.7813 1745.1172,446.0391 Q1745.375,446.2969 1745.375,446.6406 Q1745.375,446.9844 1745.0313,447.3906 Q1744.5313,447.9688 1743.7344,448.2969 Q1742.6563,448.75 1741.3594,448.75 Q1739.8438,448.75 1738.6406,448.125 Q1737.6563,447.625 1736.9688,446.5547 Q1736.2813,445.4844 1736.2813,444.2031 L1736.2813,443.0469 Q1736.2813,441.7188 1736.8984,440.5703 Q1737.5156,439.4219 1738.6094,438.8047 Q1739.7031,438.1875 1740.9375,438.1875 Q1741.6719,438.1875 1742.3203,438.3516 Q1742.9688,438.5156 1743.5156,438.875 Z " fill="#000000"/><text fill="#000000" font-family="sans-serif" font-size="14" lengthAdjust="spacing" textLength="152" x="1761.25" y="448.7285">ObservateurEcranClient</text><line style="stroke:#000000;stroke-width:0.5;" x1="1586.5" x2="2055.5" y1="459" y2="459"/><text fill="#000000" font-family="sans-serif" font-size="14" lengthAdjust="spacing" textLength="202" x="1591.5" y="477.5332">-m_seDesabonner : IDisposable</text><text fill="#000000" font-family="sans-serif" font-size="14" lengthAdjust="spacing" textLength="144" x="1591.5" y="495.1426">-m_affichage : TextBox</text><line style="stroke:#000000;stroke-width:0.5;" x1="1586.5" x2="2055.5" y1="502.2188" y2="502.2188"/><text fill="#000000" font-family="sans-serif" font-size="14" lengthAdjust="spacing" textLength="459" x="1591.5" y="520.752">+ctor(p_sujet : IObservable&lt;FactureModelEvent&gt;, p_affichage : TextBox)</text><text fill="#000000" font-family="sans-serif" font-size="14" lengthAdjust="spacing" textLength="105" x="1591.5" y="538.3613">+OnCompleted()</text><text fill="#000000" font-family="sans-serif" font-size="14" lengthAdjust="spacing" textLength="218" x="1591.5" y="555.9707">+OnError(p_exception : Exception)</text><text fill="#000000" font-family="sans-serif" font-size="14" lengthAdjust="spacing" textLength="254" x="1591.5" y="573.5801">+OnNext(p_valeur : FactureModelEvent)</text><text fill="#000000" font-family="sans-serif" font-size="14" lengthAdjust="spacing" textLength="113" x="1591.5" y="591.1895">+SeDesabonner()</text></g><!--class UnsubscriberFactureModel--><g id="elem_UnsubscriberFactureModel"><rect codeLine="65" fill="#FFFFFF" height="118.4375" id="UnsubscriberFactureModel" rx="2.5" ry="2.5" style="stroke:#000000;stroke-width:0.5;" width="836" x="7" y="453.5"/><ellipse cx="335.75" cy="469.5" fill="#ADD1B2" rx="11" ry="11" style="stroke:#181818;stroke-width:1.0;"/><path d="M338.5156,465.375 Q338.6719,465.1563 338.8594,465.0469 Q339.0469,464.9375 339.2656,464.9375 Q339.6406,464.9375 339.875,465.1953 Q340.1094,465.4531 340.1094,466.0625 L340.1094,467.5156 Q340.1094,468.125 339.875,468.3906 Q339.6406,468.6563 339.2656,468.6563 Q338.9219,468.6563 338.7188,468.4531 Q338.5156,468.2656 338.4063,467.75 Q338.3594,467.3906 338.1719,467.2031 Q337.8438,466.8281 337.2344,466.6094 Q336.625,466.3906 336,466.3906 Q335.2344,466.3906 334.6016,466.7188 Q333.9688,467.0469 333.4766,467.7969 Q332.9844,468.5469 332.9844,469.5781 L332.9844,470.6719 Q332.9844,471.9063 333.875,472.7266 Q334.7656,473.5469 336.3594,473.5469 Q337.2969,473.5469 337.9531,473.2969 Q338.3438,473.1406 338.7656,472.7031 Q339.0313,472.4375 339.1797,472.3594 Q339.3281,472.2813 339.5313,472.2813 Q339.8594,472.2813 340.1172,472.5391 Q340.375,472.7969 340.375,473.1406 Q340.375,473.4844 340.0313,473.8906 Q339.5313,474.4688 338.7344,474.7969 Q337.6563,475.25 336.3594,475.25 Q334.8438,475.25 333.6406,474.625 Q332.6563,474.125 331.9688,473.0547 Q331.2813,471.9844 331.2813,470.7031 L331.2813,469.5469 Q331.2813,468.2188 331.8984,467.0703 Q332.5156,465.9219 333.6094,465.3047 Q334.7031,464.6875 335.9375,464.6875 Q336.6719,464.6875 337.3203,464.8516 Q337.9688,465.0156 338.5156,465.375 Z " fill="#000000"/><text fill="#000000" font-family="sans-serif" font-size="14" lengthAdjust="spacing" textLength="170" x="356.25" y="475.2285">UnsubscriberFactureModel</text><line style="stroke:#000000;stroke-width:0.5;" x1="8" x2="842" y1="485.5" y2="485.5"/><text fill="#000000" font-family="sans-serif" font-size="14" lengthAdjust="spacing" textLength="293" x="13" y="504.0332">-m_observer : IObserver&lt;FactureModelEvent&gt;</text><text fill="#000000" font-family="sans-serif" font-size="14" lengthAdjust="spacing" textLength="338" x="13" y="521.6426">-m_observers : List&lt;IObserver&lt;FactureModelEvent&gt;&gt;</text><line style="stroke:#000000;stroke-width:0.5;" x1="8" x2="842" y1="528.7188" y2="528.7188"/><text fill="#000000" font-family="sans-serif" font-size="14" lengthAdjust="spacing" textLength="824" x="13" y="547.252">+UnsubscribeSujetObservable(p_observers : List&lt;IObserver&lt;FactureModelEvent&gt;&gt;, p_observer : IObserver&lt;FactureModelEvent&gt;)</text><text fill="#000000" font-family="sans-serif" font-size="14" lengthAdjust="spacing" textLength="69" x="13" y="564.8613">+Dispose()</text></g><!--class FactureModelEvent--><g id="elem_FactureModelEvent"><rect codeLine="72" fill="#FFFFFF" height="100.8281" id="FactureModelEvent" rx="2.5" ry="2.5" style="stroke:#000000;stroke-width:0.5;" width="355" x="2328.5" y="7"/><ellipse cx="2440.25" cy="23" fill="#ADD1B2" rx="11" ry="11" style="stroke:#181818;stroke-width:1.0;"/><path d="M2443.0156,18.875 Q2443.1719,18.6563 2443.3594,18.5469 Q2443.5469,18.4375 2443.7656,18.4375 Q2444.1406,18.4375 2444.375,18.6953 Q2444.6094,18.9531 2444.6094,19.5625 L2444.6094,21.0156 Q2444.6094,21.625 2444.375,21.8906 Q2444.1406,22.1563 2443.7656,22.1563 Q2443.4219,22.1563 2443.2188,21.9531 Q2443.0156,21.7656 2442.9063,21.25 Q2442.8594,20.8906 2442.6719,20.7031 Q2442.3438,20.3281 2441.7344,20.1094 Q2441.125,19.8906 2440.5,19.8906 Q2439.7344,19.8906 2439.1016,20.2188 Q2438.4688,20.5469 2437.9766,21.2969 Q2437.4844,22.0469 2437.4844,23.0781 L2437.4844,24.1719 Q2437.4844,25.4063 2438.375,26.2266 Q2439.2656,27.0469 2440.8594,27.0469 Q2441.7969,27.0469 2442.4531,26.7969 Q2442.8438,26.6406 2443.2656,26.2031 Q2443.5313,25.9375 2443.6797,25.8594 Q2443.8281,25.7813 2444.0313,25.7813 Q2444.3594,25.7813 2444.6172,26.0391 Q2444.875,26.2969 2444.875,26.6406 Q2444.875,26.9844 2444.5313,27.3906 Q2444.0313,27.9688 2443.2344,28.2969 Q2442.1563,28.75 2440.8594,28.75 Q2439.3438,28.75 2438.1406,28.125 Q2437.1563,27.625 2436.4688,26.5547 Q2435.7813,25.4844 2435.7813,24.2031 L2435.7813,23.0469 Q2435.7813,21.7188 2436.3984,20.5703 Q2437.0156,19.4219 2438.1094,18.8047 Q2439.2031,18.1875 2440.4375,18.1875 Q2441.1719,18.1875 2441.8203,18.3516 Q2442.4688,18.5156 2443.0156,18.875 Z " fill="#000000"/><text fill="#000000" font-family="sans-serif" font-size="14" lengthAdjust="spacing" textLength="123" x="2460.75" y="28.7285">FactureModelEvent</text><line style="stroke:#000000;stroke-width:0.5;" x1="2329.5" x2="2682.5" y1="39" y2="39"/><text fill="#000000" font-family="sans-serif" font-size="14" lengthAdjust="spacing" textLength="286" x="2334.5" y="57.5332">+Type : FactureModelEventType &#171;get&#187; &#171;set&#187;</text><text fill="#000000" font-family="sans-serif" font-size="14" lengthAdjust="spacing" textLength="343" x="2334.5" y="75.1426">+LigneFactureModel : LigneFactureModel &#171;get&#187; &#171;set&#187;</text><text fill="#000000" font-family="sans-serif" font-size="14" lengthAdjust="spacing" textLength="273" x="2334.5" y="92.752">+FactureModel : FactureModel &#171;get&#187; &#171;set&#187;</text><line style="stroke:#000000;stroke-width:0.5;" x1="2329.5" x2="2682.5" y1="99.8281" y2="99.8281"/></g><!--class FactureModelEventType--><g id="elem_FactureModelEventType"><rect codeLine="78" fill="#FFFFFF" height="83.2188" id="FactureModelEventType" rx="2.5" ry="2.5" style="stroke:#000000;stroke-width:0.5;" width="187" x="2618.5" y="230"/><ellipse cx="2633.5" cy="246" fill="#EB937F" rx="11" ry="11" style="stroke:#181818;stroke-width:1.0;"/><path d="M2632.3594,246.7969 L2632.3594,249.2969 L2636.6875,249.2969 L2636.6875,248.375 Q2636.6875,247.7656 2636.9297,247.5 Q2637.1719,247.2344 2637.5469,247.2344 Q2637.9219,247.2344 2638.1563,247.5 Q2638.3906,247.7656 2638.3906,248.375 L2638.3906,251 L2630.3906,251 Q2629.7656,251 2629.5078,250.7656 Q2629.25,250.5313 2629.25,250.1406 Q2629.25,249.7656 2629.5156,249.5313 Q2629.7813,249.2969 2630.3906,249.2969 L2630.6563,249.2969 L2630.6563,242.6406 L2630.3906,242.6406 Q2629.7656,242.6406 2629.5078,242.4063 Q2629.25,242.1719 2629.25,241.7813 Q2629.25,241.4063 2629.5078,241.1719 Q2629.7656,240.9375 2630.3906,240.9375 L2638.0156,240.9375 L2638.0156,243.5313 Q2638.0156,244.1406 2637.7891,244.3984 Q2637.5625,244.6563 2637.1719,244.6563 Q2636.7969,244.6563 2636.5625,244.3984 Q2636.3281,244.1406 2636.3281,243.5313 L2636.3281,242.6406 L2632.3594,242.6406 L2632.3594,245.0938 L2633.8438,245.0938 Q2633.8438,244.4375 2633.9688,244.25 Q2634.2344,243.8438 2634.7031,243.8438 Q2635.0781,243.8438 2635.3125,244.1016 Q2635.5469,244.3594 2635.5469,244.9688 L2635.5469,246.9375 Q2635.5469,247.4844 2635.4219,247.6719 Q2635.1563,248.0625 2634.7031,248.0625 Q2634.2344,248.0625 2633.9688,247.6563 Q2633.8438,247.4688 2633.8438,246.7969 L2632.3594,246.7969 Z " fill="#000000"/><text fill="#000000" font-family="sans-serif" font-size="14" lengthAdjust="spacing" textLength="155" x="2647.5" y="251.7285">FactureModelEventType</text><line style="stroke:#000000;stroke-width:0.5;" x1="2619.5" x2="2804.5" y1="262" y2="262"/><text fill="#000000" font-family="sans-serif" font-size="14" lengthAdjust="spacing" textLength="96" x="2624.5" y="280.5332">AJOUT_LIGNE,</text><text fill="#000000" font-family="sans-serif" font-size="14" lengthAdjust="spacing" textLength="72" x="2624.5" y="298.1426">NOUVELLE</text><line style="stroke:#000000;stroke-width:0.5;" x1="2619.5" x2="2804.5" y1="305.2188" y2="305.2188"/></g><!--class LigneFactureModel--><g id="elem_LigneFactureModel"><rect fill="#FFFFFF" height="48" id="LigneFactureModel" rx="2.5" ry="2.5" style="stroke:#000000;stroke-width:0.5;" width="154" x="2429" y="247.5"/><ellipse cx="2444" cy="263.5" fill="#ADD1B2" rx="11" ry="11" style="stroke:#181818;stroke-width:1.0;"/><path d="M2446.7656,259.375 Q2446.9219,259.1563 2447.1094,259.0469 Q2447.2969,258.9375 2447.5156,258.9375 Q2447.8906,258.9375 2448.125,259.1953 Q2448.3594,259.4531 2448.3594,260.0625 L2448.3594,261.5156 Q2448.3594,262.125 2448.125,262.3906 Q2447.8906,262.6563 2447.5156,262.6563 Q2447.1719,262.6563 2446.9688,262.4531 Q2446.7656,262.2656 2446.6563,261.75 Q2446.6094,261.3906 2446.4219,261.2031 Q2446.0938,260.8281 2445.4844,260.6094 Q2444.875,260.3906 2444.25,260.3906 Q2443.4844,260.3906 2442.8516,260.7188 Q2442.2188,261.0469 2441.7266,261.7969 Q2441.2344,262.5469 2441.2344,263.5781 L2441.2344,264.6719 Q2441.2344,265.9063 2442.125,266.7266 Q2443.0156,267.5469 2444.6094,267.5469 Q2445.5469,267.5469 2446.2031,267.2969 Q2446.5938,267.1406 2447.0156,266.7031 Q2447.2813,266.4375 2447.4297,266.3594 Q2447.5781,266.2813 2447.7813,266.2813 Q2448.1094,266.2813 2448.3672,266.5391 Q2448.625,266.7969 2448.625,267.1406 Q2448.625,267.4844 2448.2813,267.8906 Q2447.7813,268.4688 2446.9844,268.7969 Q2445.9063,269.25 2444.6094,269.25 Q2443.0938,269.25 2441.8906,268.625 Q2440.9063,268.125 2440.2188,267.0547 Q2439.5313,265.9844 2439.5313,264.7031 L2439.5313,263.5469 Q2439.5313,262.2188 2440.1484,261.0703 Q2440.7656,259.9219 2441.8594,259.3047 Q2442.9531,258.6875 2444.1875,258.6875 Q2444.9219,258.6875 2445.5703,258.8516 Q2446.2188,259.0156 2446.7656,259.375 Z " fill="#000000"/><text fill="#000000" font-family="sans-serif" font-size="14" lengthAdjust="spacing" textLength="122" x="2458" y="269.2285">LigneFactureModel</text><line style="stroke:#000000;stroke-width:0.5;" x1="2430" x2="2582" y1="279.5" y2="279.5"/><line style="stroke:#000000;stroke-width:0.5;" x1="2430" x2="2582" y1="287.5" y2="287.5"/></g><!--link FactureModelEvent to FactureModel--><g id="link_FactureModelEvent_FactureModel"><path codeLine="83" d="M2328.43,76.71 C2226.15,89.36 2095.73,109.19 1982,138 C1930.99,150.92 1882.7873,166.1614 1832.4873,183.9314 " fill="none" id="FactureModelEvent-to-FactureModel" style="stroke:#181818;stroke-width:1.0;"/><polygon fill="#181818" points="1826.83,185.93,1836.6484,186.7036,1831.5444,184.2645,1833.9836,179.1605,1826.83,185.93" style="stroke:#181818;stroke-width:1.0;"/><text fill="#000000" font-family="sans-serif" font-size="13" lengthAdjust="spacing" textLength="7" x="2313.2253" y="74.7249">n</text><text fill="#000000" font-family="sans-serif" font-size="13" lengthAdjust="spacing" textLength="7" x="1838.4735" y="175.0954">1</text></g><!--link FactureModelEvent to LigneFactureModel--><g id="link_FactureModelEvent_LigneFactureModel"><path codeLine="84" d="M2506,108.2 C2506,152.14 2506,208.25 2506,241.45 " fill="none" id="FactureModelEvent-to-LigneFactureModel" style="stroke:#181818;stroke-width:1.0;"/><polygon fill="#181818" points="2506,247.45,2510,238.45,2506,242.45,2502,238.45,2506,247.45" style="stroke:#181818;stroke-width:1.0;"/><text fill="#000000" font-family="sans-serif" font-size="13" lengthAdjust="spacing" textLength="7" x="2498.5516" y="129.2496">n</text><text fill="#000000" font-family="sans-serif" font-size="13" lengthAdjust="spacing" textLength="7" x="2498.1031" y="236.7773">1</text></g><!--link FactureModelEvent to FactureModelEventType--><g id="link_FactureModelEvent_FactureModelEventType"><path codeLine="85" d="M2554.3,108.2 C2590.33,145.29 2634.7692,191.0164 2668.4492,225.6864 " fill="none" id="FactureModelEvent-to-FactureModelEventType" style="stroke:#181818;stroke-width:1.0;"/><polygon fill="#181818" points="2672.63,229.99,2669.228,220.7474,2669.146,226.4036,2663.4898,226.3217,2672.63,229.99" style="stroke:#181818;stroke-width:1.0;"/><text fill="#000000" font-family="sans-serif" font-size="13" lengthAdjust="spacing" textLength="7" x="2553.04" y="129.2496">n</text><text fill="#000000" font-family="sans-serif" font-size="13" lengthAdjust="spacing" textLength="7" x="2658.5297" y="219.296">1</text></g><!--link fEcranPrincipal to FactureModel--><g id="link_fEcranPrincipal_FactureModel"><path codeLine="87" d="M2207.21,212.41 C2191.8,202.55 2175.33,193.2 2159,186 C2110.08,164.42 2095.1,164.27 2042,158 C1966.13,149.05 1890.407,162.393 1819.127,184.223 " fill="none" id="fEcranPrincipal-to-FactureModel" style="stroke:#181818;stroke-width:1.0;"/><polygon fill="#181818" points="1813.39,185.98,1823.1668,187.1692,1818.1708,184.5158,1820.8241,179.5199,1813.39,185.98" style="stroke:#181818;stroke-width:1.0;"/><text fill="#000000" font-family="sans-serif" font-size="13" lengthAdjust="spacing" textLength="50" x="1991" y="152.4951">&#171;create&#187;</text><text fill="#000000" font-family="sans-serif" font-size="13" lengthAdjust="spacing" textLength="7" x="2190.3028" y="201.7233">1</text><text fill="#000000" font-family="sans-serif" font-size="13" lengthAdjust="spacing" textLength="7" x="1823.8365" y="175.1498">1</text></g><!--reverse link fEcranClient to fEcranPrincipal--><g id="link_fEcranClient_fEcranPrincipal"><path codeLine="88" d="M2147.57,271.5 C2159.15,271.5 2164.73,271.5 2176.31,271.5 " fill="none" id="fEcranClient-backto-fEcranPrincipal" style="stroke:#181818;stroke-width:1.0;"/><polygon fill="#181818" points="2141.57,271.5,2150.57,275.5,2146.57,271.5,2150.57,267.5,2141.57,271.5" style="stroke:#181818;stroke-width:1.0;"/><text fill="#000000" font-family="sans-serif" font-size="13" lengthAdjust="spacing" textLength="7" x="2149.4352" y="268.5117">1</text><text fill="#000000" font-family="sans-serif" font-size="13" lengthAdjust="spacing" textLength="7" x="2161.4216" y="268.4296">1</text></g><!--reverse link IObserver to FactureModel--><g id="link_IObserver_FactureModel"><path codeLine="91" d="M1343.05,271.5 C1354.86,271.5 1360.67,271.5 1372.48,271.5 " fill="none" id="IObserver-backto-FactureModel" style="stroke:#181818;stroke-width:1.0;"/><polygon fill="#181818" points="1337.05,271.5,1346.05,275.5,1342.05,271.5,1346.05,267.5,1337.05,271.5" style="stroke:#181818;stroke-width:1.0;"/><text fill="#000000" font-family="sans-serif" font-size="13" lengthAdjust="spacing" textLength="7" x="1345.1571" y="268.4994">n</text><text fill="#000000" font-family="sans-serif" font-size="13" lengthAdjust="spacing" textLength="7" x="1357.4403" y="268.734">1</text></g><!--link FactureModel to LigneFactureModel--><g id="link_FactureModel_LigneFactureModel"><path codeLine="92" d="M1773.84,185.86 C1811.12,169.79 1851.38,155.4 1890.5,147 C1999.79,123.53 2291.35,101.63 2393.5,147 C2439.69,167.52 2471.8754,212.2576 2489.7954,242.2876 " fill="none" id="FactureModel-to-LigneFactureModel" style="stroke:#181818;stroke-width:1.0;"/><polygon fill="#181818" points="2492.87,247.44,2491.693,237.6617,2490.3078,243.1464,2484.8232,241.7612,2492.87,247.44" style="stroke:#181818;stroke-width:1.0;"/><text fill="#000000" font-family="sans-serif" font-size="13" lengthAdjust="spacing" textLength="7" x="1780.764" y="175.0191">1</text><text fill="#000000" font-family="sans-serif" font-size="13" lengthAdjust="spacing" textLength="7" x="2481.6086" y="236.7648">n</text></g><!--reverse link IObserver to ObservateurEcranCaissier--><g id="link_IObserver_ObservateurEcranCaissier"><path codeLine="94" d="M1214,340.02 C1214,367.64 1214,384.96 1214,417.6 " fill="none" id="IObserver-backto-ObservateurEcranCaissier" style="stroke:#181818;stroke-width:1.0;stroke-dasharray:7.0,7.0;"/><polygon fill="none" points="1214,322.02,1208,340.02,1220,340.02,1214,322.02" style="stroke:#181818;stroke-width:1.0;"/></g><!--reverse link IObserver to ObservateurEcranClient--><g id="link_IObserver_ObservateurEcranClient"><path codeLine="95" d="M1303.9788,331.3344 C1324.8988,343.8744 1332.62,347.27 1355,357 C1444.92,396.08 1473.82,387.49 1567,418 C1575.82,420.89 1584.79,423.89 1593.84,426.96 " fill="none" id="IObserver-backto-ObservateurEcranClient" style="stroke:#181818;stroke-width:1.0;stroke-dasharray:7.0,7.0;"/><polygon fill="none" points="1288.54,322.08,1300.894,336.4807,1307.0636,326.1882,1288.54,322.08" style="stroke:#181818;stroke-width:1.0;"/></g><!--reverse link IDisposable to UnsubscriberFactureModel--><g id="link_IDisposable_UnsubscriberFactureModel"><path codeLine="96" d="M425,322.73 C425,360.7 425,406.52 425,453.23 " fill="none" id="IDisposable-backto-UnsubscriberFactureModel" style="stroke:#181818;stroke-width:1.0;stroke-dasharray:7.0,7.0;"/><polygon fill="none" points="425,304.73,419,322.73,431,322.73,425,304.73" style="stroke:#181818;stroke-width:1.0;"/></g><!--reverse link IObserver to UnsubscriberFactureModel--><g id="link_IObserver_UnsubscriberFactureModel"><path codeLine="97" d="M1084.9777,311.5796 C957.9877,350.0496 764.07,408.79 616.5,453.49 " fill="none" id="IObserver-backto-UnsubscriberFactureModel" style="stroke:#181818;stroke-width:1.0;stroke-dasharray:7.0,7.0;"/><polygon fill="#181818" points="1090.72,309.84,1080.9469,308.6211,1085.9348,311.2896,1083.2663,316.2775,1090.72,309.84" style="stroke:#181818;stroke-width:1.0;"/></g><!--reverse link IObservable to FactureModel--><g id="link_IObservable_FactureModel"><path codeLine="98" d="M1614,108.7 C1614,133.95 1614,152.29 1614,185.71 " fill="none" id="IObservable-backto-FactureModel" style="stroke:#181818;stroke-width:1.0;stroke-dasharray:7.0,7.0;"/><polygon fill="none" points="1614,90.7,1608,108.7,1620,108.7,1614,90.7" style="stroke:#181818;stroke-width:1.0;"/></g><!--SRC=[pLPDJnin4Btlhx3I0qGbg_IALf4WB8WgJIgHq6FaU2V1iB5NjZUbfVtljTVxuVs2eAfISqaOltdpvjaU8vyeIx30UqHYBEM5Ke9kKWMtXBCx-XFGs9Dr27hnaFvSOlAq4pnbqPJ7NA1l3rI1NU4Y0c6Z7yRZiVVRyoXJ8BQO0BgzeZBX4czYo9a-8Xk2qs43kjX840S33PO_4WWFm60FJ4tApBjq8ubM3AV9cbkqWbIWyo8PH2DrQDOg3PqLMqbblGMRydqIWu98gorYeH1SQ0NmJ21Hb3DT8on-Lx0vF2kDEk3OIgpLo7gt1bzZeb81NtW4SLvvXFRhcEuOoDhYEPfHgOAPMN4N9cMIOueiu5MNRevHeYQJNEsIAspu8o1qhty5mGwgLQ9qlyDtx46xK7CVBDV58zU7JxGQqjHnCvQrquWLckOyFK0SvqVAsheDYS3igw2Cq0Ixpcxhh2vXYG6JF8sfrguXbil-sVR4z_rsuJptnOKdhvNkv5fK1bjMJAMa89nk95o1zfGp1gB3P0E9TeU6arTOuHj1etiAtqkOoW_1KX_SI_vSLoxJHr3L9cUtjBtDPoXvevf1D0eD_yLjQsahpw_ZrwjMknjufD5ukwNa0U_WxrtieFe_V5enMKm0qJEwU3u7tfW9BVoxHfQZuywuMZbQ3gPZ6OtVHseUThrXxJcUWSlBRoP_bzLPF1-r-biw8tTspFZhoRtk7pAj3AqUMBhlqMORkFYyM2tNizkRUNYM1UQBrNqucuKckztrW0tGQ3H1Wq-3-cnz7ThgxXtKfMBFQuvz0nq9kdjG7NdQdI0W0lIjrrvqfiQmBJ9hhq2zypfMgopFK0UiLCEwklRAL1JyyltU9-1DdDNf_WEMuVhkhyjt1AmYhAi_gJr_fb_Vj_Rr3DZQ5fnqxK4lGV4OkXH_0000]--></g></svg>