<?xml version="1.0" encoding="UTF-8" standalone="no"?><svg xmlns="http://www.w3.org/2000/svg" xmlns:xlink="http://www.w3.org/1999/xlink" contentScriptType="application/ecmascript" contentStyleType="text/css" height="213px" preserveAspectRatio="none" style="width:594px;height:213px;" version="1.1" viewBox="0 0 594 213" width="594px" zoomAndPan="magnify"><defs><filter height="300%" id="f3bycmqr4yc7j" width="300%" x="-1" y="-1"><feGaussianBlur result="blurOut" stdDeviation="2.0"/><feColorMatrix in="blurOut" result="blurOut2" type="matrix" values="0 0 0 0 0 0 0 0 0 0 0 0 0 0 0 0 0 0 .4 0"/><feOffset dx="4.0" dy="4.0" in="blurOut2" result="blurOut3"/><feBlend in="SourceGraphic" in2="blurOut3" mode="normal"/></filter></defs><g><!--MD5=[bca097896a4a28c51096bc5860f847f2]
class ApplicationGraphique--><rect fill="#FFFFFF" filter="url(#f3bycmqr4yc7j)" height="73.9102" id="ApplicationGraphique" style="stroke: #000000; stroke-width: 1.5;" width="343" x="6" y="129"/><ellipse cx="110.75" cy="145" fill="#ADD1B2" rx="11" ry="11" style="stroke: #000000; stroke-width: 1.0;"/><path d="M113.2231,151.1431 Q112.6421,151.4419 112.0029,151.5913 Q111.3638,151.7407 110.6582,151.7407 Q108.1514,151.7407 106.8315,150.0889 Q105.5117,148.437 105.5117,145.3159 Q105.5117,142.1865 106.8315,140.5347 Q108.1514,138.8828 110.6582,138.8828 Q111.3638,138.8828 112.0112,139.0322 Q112.6587,139.1816 113.2231,139.4805 L113.2231,142.2031 Q112.5923,141.6221 111.9988,141.3523 Q111.4053,141.0825 110.7744,141.0825 Q109.4297,141.0825 108.7449,142.1492 Q108.0601,143.2158 108.0601,145.3159 Q108.0601,147.4077 108.7449,148.4744 Q109.4297,149.541 110.7744,149.541 Q111.4053,149.541 111.9988,149.2712 Q112.5923,149.0015 113.2231,148.4204 Z "/><text fill="#000000" font-family="sans-serif" font-size="12" lengthAdjust="spacingAndGlyphs" textLength="125" x="131.25" y="149.5352">ApplicationGraphique</text><line style="stroke: #000000; stroke-width: 1.5;" x1="7" x2="348" y1="161" y2="161"/><text fill="#000000" font-family="sans-serif" font-size="11" lengthAdjust="spacingAndGlyphs" textLength="331" x="12" y="175.6348">-FormesGeometriques : List&lt;IFormeGeometriqueDessinable&gt;</text><line style="stroke: #000000; stroke-width: 1.5;" x1="7" x2="348" y1="181.9551" y2="181.9551"/><text fill="#000000" font-family="sans-serif" font-size="11" lengthAdjust="spacingAndGlyphs" textLength="122" x="12" y="196.5898">+DessinerLesFormes()</text><!--MD5=[3abfc055aa2c519ebcfd2acfe702d4d6]
class IFormeGeometriqueDessinable--><rect fill="#FFFFFF" filter="url(#f3bycmqr4yc7j)" height="60.9551" id="IFormeGeometriqueDessinable" style="stroke: #000000; stroke-width: 1.5;" width="209" x="324" y="8"/><ellipse cx="339" cy="24" fill="#B4A7E5" rx="11" ry="11" style="stroke: #000000; stroke-width: 1.0;"/><path d="M335.4277,20.2651 L335.4277,18.1069 L342.8071,18.1069 L342.8071,20.2651 L340.3418,20.2651 L340.3418,28.3418 L342.8071,28.3418 L342.8071,30.5 L335.4277,30.5 L335.4277,28.3418 L337.8931,28.3418 L337.8931,20.2651 Z "/><text fill="#000000" font-family="sans-serif" font-size="12" font-style="italic" lengthAdjust="spacingAndGlyphs" textLength="177" x="353" y="28.5352">IFormeGeometriqueDessinable</text><line style="stroke: #000000; stroke-width: 1.5;" x1="325" x2="532" y1="40" y2="40"/><line style="stroke: #000000; stroke-width: 1.5;" x1="325" x2="532" y1="48" y2="48"/><text fill="#000000" font-family="sans-serif" font-size="11" lengthAdjust="spacingAndGlyphs" textLength="64" x="330" y="62.6348">+Dessiner()</text><!--MD5=[b5313cd49da22b0744b541f414f8445e]
class Rectangle--><rect fill="#FFFFFF" filter="url(#f3bycmqr4yc7j)" height="60.9551" id="Rectangle" style="stroke: #000000; stroke-width: 1.5;" width="88" x="384.5" y="135.5"/><ellipse cx="399.5" cy="151.5" fill="#ADD1B2" rx="11" ry="11" style="stroke: #000000; stroke-width: 1.0;"/><path d="M401.9731,157.6431 Q401.3921,157.9419 400.7529,158.0913 Q400.1138,158.2407 399.4082,158.2407 Q396.9014,158.2407 395.5815,156.5889 Q394.2617,154.937 394.2617,151.8159 Q394.2617,148.6865 395.5815,147.0347 Q396.9014,145.3828 399.4082,145.3828 Q400.1138,145.3828 400.7612,145.5322 Q401.4087,145.6816 401.9731,145.9805 L401.9731,148.7031 Q401.3423,148.1221 400.7488,147.8523 Q400.1553,147.5825 399.5244,147.5825 Q398.1797,147.5825 397.4949,148.6492 Q396.8101,149.7158 396.8101,151.8159 Q396.8101,153.9077 397.4949,154.9744 Q398.1797,156.041 399.5244,156.041 Q400.1553,156.041 400.7488,155.7712 Q401.3423,155.5015 401.9731,154.9204 Z "/><text fill="#000000" font-family="sans-serif" font-size="12" lengthAdjust="spacingAndGlyphs" textLength="56" x="413.5" y="156.0352">Rectangle</text><line style="stroke: #000000; stroke-width: 1.5;" x1="385.5" x2="471.5" y1="167.5" y2="167.5"/><line style="stroke: #000000; stroke-width: 1.5;" x1="385.5" x2="471.5" y1="175.5" y2="175.5"/><text fill="#000000" font-family="sans-serif" font-size="11" lengthAdjust="spacingAndGlyphs" textLength="64" x="390.5" y="190.1348">+Dessiner()</text><!--MD5=[36301a564b4c56d542208ba8d5f25649]
class Cercle--><rect fill="#FFFFFF" filter="url(#f3bycmqr4yc7j)" height="60.9551" id="Cercle" style="stroke: #000000; stroke-width: 1.5;" width="76" x="507.5" y="135.5"/><ellipse cx="526.1" cy="151.5" fill="#ADD1B2" rx="11" ry="11" style="stroke: #000000; stroke-width: 1.0;"/><path d="M528.5731,157.6431 Q527.9921,157.9419 527.3529,158.0913 Q526.7138,158.2407 526.0082,158.2407 Q523.5014,158.2407 522.1815,156.5889 Q520.8617,154.937 520.8617,151.8159 Q520.8617,148.6865 522.1815,147.0347 Q523.5014,145.3828 526.0082,145.3828 Q526.7138,145.3828 527.3612,145.5322 Q528.0087,145.6816 528.5731,145.9805 L528.5731,148.7031 Q527.9423,148.1221 527.3488,147.8523 Q526.7553,147.5825 526.1244,147.5825 Q524.7797,147.5825 524.0949,148.6492 Q523.4101,149.7158 523.4101,151.8159 Q523.4101,153.9077 524.0949,154.9744 Q524.7797,156.041 526.1244,156.041 Q526.7553,156.041 527.3488,155.7712 Q527.9423,155.5015 528.5731,154.9204 Z "/><text fill="#000000" font-family="sans-serif" font-size="12" lengthAdjust="spacingAndGlyphs" textLength="36" x="540.9" y="156.0352">Cercle</text><line style="stroke: #000000; stroke-width: 1.5;" x1="508.5" x2="582.5" y1="167.5" y2="167.5"/><line style="stroke: #000000; stroke-width: 1.5;" x1="508.5" x2="582.5" y1="175.5" y2="175.5"/><text fill="#000000" font-family="sans-serif" font-size="11" lengthAdjust="spacingAndGlyphs" textLength="64" x="513.5" y="190.1348">+Dessiner()</text><!--MD5=[58126bcd1f7dd5d082ee420a4eb5a1be]
reverse link IFormeGeometriqueDessinable to ApplicationGraphique--><path d="M364.67,71.42 C329.61,88.95 286,110.75 249.7,128.9 " fill="none" id="IFormeGeometriqueDessinable&lt;-ApplicationGraphique" style="stroke: #A80036; stroke-width: 1.0;"/><polygon fill="#A80036" points="369.33,69.08,359.4907,69.5146,364.855,71.3103,363.0593,76.6746,369.33,69.08" style="stroke: #A80036; stroke-width: 1.0;"/><text fill="#000000" font-family="sans-serif" font-size="13" lengthAdjust="spacingAndGlyphs" textLength="6" x="350.5074" y="89.539">*</text><!--MD5=[fd22bedc954505ab2a9cf8e8144d5878]
reverse link IFormeGeometriqueDessinable to Rectangle--><path d="M428.5,89.45 C428.5,105.05 428.5,121.75 428.5,135.47 " fill="none" id="IFormeGeometriqueDessinable&lt;-Rectangle" style="stroke: #A80036; stroke-width: 1.0; stroke-dasharray: 7.0,7.0;"/><polygon fill="none" points="421.5,89.24,428.5,69.24,435.5,89.24,421.5,89.24" style="stroke: #A80036; stroke-width: 1.0;"/><!--MD5=[a908d335985180b5729d178f36d8c326]
reverse link IFormeGeometriqueDessinable to Cercle--><path d="M469.91,83.92 C485.85,101.02 503.65,120.11 517.97,135.47 " fill="none" id="IFormeGeometriqueDessinable&lt;-Cercle" style="stroke: #A80036; stroke-width: 1.0; stroke-dasharray: 7.0,7.0;"/><polygon fill="none" points="464.75,88.64,456.23,69.24,474.99,79.1,464.75,88.64" style="stroke: #A80036; stroke-width: 1.0;"/><!--MD5=[0aa9632e452bf8ccbe8cfd7c7e072686]
@startuml OCP_V02_s01

skinparam classAttributeIconSize 0
skinparam class {
    BackgroundColor White
    BorderColor #000
}
allowmixing
'skinparam linetype ortho

class ApplicationGraphique {
    - FormesGeometriques : List<IFormeGeometriqueDessinable>
    + DessinerLesFormes()
}

'ApplicationGraphique - -> "*" FormeGeometrique

IFormeGeometriqueDessinable "*" <- -  ApplicationGraphique

interface IFormeGeometriqueDessinable {
    + Dessiner()
}

class Rectangle {
    + Dessiner()
}

class Cercle {
    + Dessiner()    
}

IFormeGeometriqueDessinable <|.. Rectangle
IFormeGeometriqueDessinable <|.. Cercle

@enduml

@startuml OCP_V02_s01

skinparam classAttributeIconSize 0
skinparam class {
    BackgroundColor White
    BorderColor #000
}
allowmixing

class ApplicationGraphique {
    - FormesGeometriques : List<IFormeGeometriqueDessinable>
    + DessinerLesFormes()
}


IFormeGeometriqueDessinable "*" <- -  ApplicationGraphique

interface IFormeGeometriqueDessinable {
    + Dessiner()
}

class Rectangle {
    + Dessiner()
}

class Cercle {
    + Dessiner()    
}

IFormeGeometriqueDessinable <|.. Rectangle
IFormeGeometriqueDessinable <|.. Cercle

@enduml

PlantUML version 1.2020.10(Sun May 17 05:35:57 EDT 2020)
(GPL source distribution)
Java Runtime: OpenJDK Runtime Environment
JVM: OpenJDK 64-Bit Server VM
Java Version: 13.0.2+8
Operating System: Mac OS X
Default Encoding: UTF-8
Language: fr
Country: CA
--></g></svg>