<?xml version="1.0" encoding="us-ascii" standalone="no"?><svg xmlns="http://www.w3.org/2000/svg" xmlns:xlink="http://www.w3.org/1999/xlink" contentStyleType="text/css" height="223px" preserveAspectRatio="none" style="width:666px;height:223px;background:#FFFFFF;" version="1.1" viewBox="0 0 666 223" width="666px" zoomAndPan="magnify"><defs/><g><!--class ApplicationGraphique--><g id="elem_ApplicationGraphique"><rect codeLine="10" fill="#FFFFFF" height="83.2188" id="ApplicationGraphique" rx="2.5" ry="2.5" style="stroke:#000000;stroke-width:0.5;" width="400" x="7" y="133"/><ellipse cx="134.75" cy="149" fill="#ADD1B2" rx="11" ry="11" style="stroke:#181818;stroke-width:1.0;"/><path d="M137.5156,144.875 Q137.6719,144.6563 137.8594,144.5469 Q138.0469,144.4375 138.2656,144.4375 Q138.6406,144.4375 138.875,144.6953 Q139.1094,144.9531 139.1094,145.5625 L139.1094,147.0156 Q139.1094,147.625 138.875,147.8906 Q138.6406,148.1563 138.2656,148.1563 Q137.9219,148.1563 137.7188,147.9531 Q137.5156,147.7656 137.4063,147.25 Q137.3594,146.8906 137.1719,146.7031 Q136.8438,146.3281 136.2344,146.1094 Q135.625,145.8906 135,145.8906 Q134.2344,145.8906 133.6016,146.2188 Q132.9688,146.5469 132.4766,147.2969 Q131.9844,148.0469 131.9844,149.0781 L131.9844,150.1719 Q131.9844,151.4063 132.875,152.2266 Q133.7656,153.0469 135.3594,153.0469 Q136.2969,153.0469 136.9531,152.7969 Q137.3438,152.6406 137.7656,152.2031 Q138.0313,151.9375 138.1797,151.8594 Q138.3281,151.7813 138.5313,151.7813 Q138.8594,151.7813 139.1172,152.0391 Q139.375,152.2969 139.375,152.6406 Q139.375,152.9844 139.0313,153.3906 Q138.5313,153.9688 137.7344,154.2969 Q136.6563,154.75 135.3594,154.75 Q133.8438,154.75 132.6406,154.125 Q131.6563,153.625 130.9688,152.5547 Q130.2813,151.4844 130.2813,150.2031 L130.2813,149.0469 Q130.2813,147.7188 130.8984,146.5703 Q131.5156,145.4219 132.6094,144.8047 Q133.7031,144.1875 134.9375,144.1875 Q135.6719,144.1875 136.3203,144.3516 Q136.9688,144.5156 137.5156,144.875 Z " fill="#000000"/><text fill="#000000" font-family="sans-serif" font-size="14" lengthAdjust="spacing" textLength="136" x="155.25" y="154.7285">ApplicationGraphique</text><line style="stroke:#000000;stroke-width:0.5;" x1="8" x2="406" y1="165" y2="165"/><text fill="#000000" font-family="sans-serif" font-size="14" lengthAdjust="spacing" textLength="388" x="13" y="183.5332">-FormesGeometriques : List&lt;IFormeGeometriqueDessinable&gt;</text><line style="stroke:#000000;stroke-width:0.5;" x1="8" x2="406" y1="190.6094" y2="190.6094"/><text fill="#000000" font-family="sans-serif" font-size="14" lengthAdjust="spacing" textLength="145" x="13" y="209.1426">+DessinerLesFormes()</text></g><!--class IFormeGeometriqueDessinable--><g id="elem_IFormeGeometriqueDessinable"><rect codeLine="19" fill="#FFFFFF" height="65.6094" id="IFormeGeometriqueDessinable" rx="2.5" ry="2.5" style="stroke:#000000;stroke-width:0.5;" width="229" x="375.5" y="7"/><ellipse cx="390.5" cy="23" fill="#B4A7E5" rx="11" ry="11" style="stroke:#181818;stroke-width:1.0;"/><path d="M391.4531,19.6406 L391.4531,26.2969 L393.1719,26.2969 Q393.7813,26.2969 394.0469,26.5313 Q394.3125,26.7656 394.3125,27.1563 Q394.3125,27.5313 394.0469,27.7656 Q393.7813,28 393.1719,28 L388.0313,28 Q387.4219,28 387.1563,27.7656 Q386.8906,27.5313 386.8906,27.1406 Q386.8906,26.7656 387.1563,26.5313 Q387.4219,26.2969 388.0313,26.2969 L389.75,26.2969 L389.75,19.6406 L388.0313,19.6406 Q387.4219,19.6406 387.1563,19.4063 Q386.8906,19.1719 386.8906,18.7813 Q386.8906,18.4063 387.1563,18.1719 Q387.4219,17.9375 388.0313,17.9375 L393.1719,17.9375 Q393.7813,17.9375 394.0469,18.1719 Q394.3125,18.4063 394.3125,18.7813 Q394.3125,19.1719 394.0469,19.4063 Q393.7813,19.6406 393.1719,19.6406 L391.4531,19.6406 Z " fill="#000000"/><text fill="#000000" font-family="sans-serif" font-size="14" font-style="italic" lengthAdjust="spacing" textLength="197" x="404.5" y="28.7285">IFormeGeometriqueDessinable</text><line style="stroke:#000000;stroke-width:0.5;" x1="376.5" x2="603.5" y1="39" y2="39"/><line style="stroke:#000000;stroke-width:0.5;" x1="376.5" x2="603.5" y1="47" y2="47"/><text fill="#000000" font-family="sans-serif" font-size="14" lengthAdjust="spacing" textLength="74" x="381.5" y="65.5332">+Dessiner()</text></g><!--class Rectangle--><g id="elem_Rectangle"><rect codeLine="23" fill="#FFFFFF" height="65.6094" id="Rectangle" rx="2.5" ry="2.5" style="stroke:#000000;stroke-width:0.5;" width="96" x="442" y="141.5"/><ellipse cx="457" cy="157.5" fill="#ADD1B2" rx="11" ry="11" style="stroke:#181818;stroke-width:1.0;"/><path d="M459.7656,153.375 Q459.9219,153.1563 460.1094,153.0469 Q460.2969,152.9375 460.5156,152.9375 Q460.8906,152.9375 461.125,153.1953 Q461.3594,153.4531 461.3594,154.0625 L461.3594,155.5156 Q461.3594,156.125 461.125,156.3906 Q460.8906,156.6563 460.5156,156.6563 Q460.1719,156.6563 459.9688,156.4531 Q459.7656,156.2656 459.6563,155.75 Q459.6094,155.3906 459.4219,155.2031 Q459.0938,154.8281 458.4844,154.6094 Q457.875,154.3906 457.25,154.3906 Q456.4844,154.3906 455.8516,154.7188 Q455.2188,155.0469 454.7266,155.7969 Q454.2344,156.5469 454.2344,157.5781 L454.2344,158.6719 Q454.2344,159.9063 455.125,160.7266 Q456.0156,161.5469 457.6094,161.5469 Q458.5469,161.5469 459.2031,161.2969 Q459.5938,161.1406 460.0156,160.7031 Q460.2813,160.4375 460.4297,160.3594 Q460.5781,160.2813 460.7813,160.2813 Q461.1094,160.2813 461.3672,160.5391 Q461.625,160.7969 461.625,161.1406 Q461.625,161.4844 461.2813,161.8906 Q460.7813,162.4688 459.9844,162.7969 Q458.9063,163.25 457.6094,163.25 Q456.0938,163.25 454.8906,162.625 Q453.9063,162.125 453.2188,161.0547 Q452.5313,159.9844 452.5313,158.7031 L452.5313,157.5469 Q452.5313,156.2188 453.1484,155.0703 Q453.7656,153.9219 454.8594,153.3047 Q455.9531,152.6875 457.1875,152.6875 Q457.9219,152.6875 458.5703,152.8516 Q459.2188,153.0156 459.7656,153.375 Z " fill="#000000"/><text fill="#000000" font-family="sans-serif" font-size="14" lengthAdjust="spacing" textLength="64" x="471" y="163.2285">Rectangle</text><line style="stroke:#000000;stroke-width:0.5;" x1="443" x2="537" y1="173.5" y2="173.5"/><line style="stroke:#000000;stroke-width:0.5;" x1="443" x2="537" y1="181.5" y2="181.5"/><text fill="#000000" font-family="sans-serif" font-size="14" lengthAdjust="spacing" textLength="74" x="448" y="200.0332">+Dessiner()</text></g><!--class Cercle--><g id="elem_Cercle"><rect codeLine="27" fill="#FFFFFF" height="65.6094" id="Cercle" rx="2.5" ry="2.5" style="stroke:#000000;stroke-width:0.5;" width="86" x="573" y="141.5"/><ellipse cx="593.85" cy="157.5" fill="#ADD1B2" rx="11" ry="11" style="stroke:#181818;stroke-width:1.0;"/><path d="M596.6156,153.375 Q596.7719,153.1563 596.9594,153.0469 Q597.1469,152.9375 597.3656,152.9375 Q597.7406,152.9375 597.975,153.1953 Q598.2094,153.4531 598.2094,154.0625 L598.2094,155.5156 Q598.2094,156.125 597.975,156.3906 Q597.7406,156.6563 597.3656,156.6563 Q597.0219,156.6563 596.8188,156.4531 Q596.6156,156.2656 596.5063,155.75 Q596.4594,155.3906 596.2719,155.2031 Q595.9438,154.8281 595.3344,154.6094 Q594.725,154.3906 594.1,154.3906 Q593.3344,154.3906 592.7016,154.7188 Q592.0688,155.0469 591.5766,155.7969 Q591.0844,156.5469 591.0844,157.5781 L591.0844,158.6719 Q591.0844,159.9063 591.975,160.7266 Q592.8656,161.5469 594.4594,161.5469 Q595.3969,161.5469 596.0531,161.2969 Q596.4438,161.1406 596.8656,160.7031 Q597.1313,160.4375 597.2797,160.3594 Q597.4281,160.2813 597.6313,160.2813 Q597.9594,160.2813 598.2172,160.5391 Q598.475,160.7969 598.475,161.1406 Q598.475,161.4844 598.1313,161.8906 Q597.6313,162.4688 596.8344,162.7969 Q595.7563,163.25 594.4594,163.25 Q592.9438,163.25 591.7406,162.625 Q590.7563,162.125 590.0688,161.0547 Q589.3813,159.9844 589.3813,158.7031 L589.3813,157.5469 Q589.3813,156.2188 589.9984,155.0703 Q590.6156,153.9219 591.7094,153.3047 Q592.8031,152.6875 594.0375,152.6875 Q594.7719,152.6875 595.4203,152.8516 Q596.0688,153.0156 596.6156,153.375 Z " fill="#000000"/><text fill="#000000" font-family="sans-serif" font-size="14" lengthAdjust="spacing" textLength="41" x="609.15" y="163.2285">Cercle</text><line style="stroke:#000000;stroke-width:0.5;" x1="574" x2="658" y1="173.5" y2="173.5"/><line style="stroke:#000000;stroke-width:0.5;" x1="574" x2="658" y1="181.5" y2="181.5"/><text fill="#000000" font-family="sans-serif" font-size="14" lengthAdjust="spacing" textLength="74" x="579" y="200.0332">+Dessiner()</text></g><!--reverse link IFormeGeometriqueDessinable to ApplicationGraphique--><g id="link_IFormeGeometriqueDessinable_ApplicationGraphique"><path codeLine="17" d="M416.0562,75.6144 C377.6162,93.6144 334.71,113.71 293.66,132.93 " fill="none" id="IFormeGeometriqueDessinable-backto-ApplicationGraphique" style="stroke:#181818;stroke-width:1.0;"/><polygon fill="#181818" points="421.49,73.07,411.6431,73.2641,416.9619,75.1904,415.0356,80.5092,421.49,73.07" style="stroke:#181818;stroke-width:1.0;"/><text fill="#000000" font-family="sans-serif" font-size="13" lengthAdjust="spacing" textLength="5" x="403.3975" y="94.2058">*</text></g><!--reverse link IFormeGeometriqueDessinable to Rectangle--><g id="link_IFormeGeometriqueDessinable_Rectangle"><path codeLine="31" d="M490,91.07 C490,111.75 490,120.55 490,141.26 " fill="none" id="IFormeGeometriqueDessinable-backto-Rectangle" style="stroke:#181818;stroke-width:1.0;stroke-dasharray:7.0,7.0;"/><polygon fill="none" points="490,73.07,484,91.07,496,91.07,490,73.07" style="stroke:#181818;stroke-width:1.0;"/></g><!--reverse link IFormeGeometriqueDessinable to Cercle--><g id="link_IFormeGeometriqueDessinable_Cercle"><path codeLine="32" d="M532.9054,86.1124 C552.5754,106.7924 565.65,120.55 585.34,141.26 " fill="none" id="IFormeGeometriqueDessinable-backto-Cercle" style="stroke:#181818;stroke-width:1.0;stroke-dasharray:7.0,7.0;"/><polygon fill="none" points="520.5,73.07,528.558,90.2476,537.2529,81.9773,520.5,73.07" style="stroke:#181818;stroke-width:1.0;"/></g><!--SRC=[XP1BJyCm48Jl-ojMvL0UIfKpYYgL8gfAFS61i-ikoQgEDwmTyIZyTz8OgL1LgM_UcPrlxB1btnWrDLfdGfZ5gBnk8osj-2V-9CmX_BVW3h0xTyPkIvNMR-RYHF6vuaX94TsGfkb5dkVm3SOvUQlvdNq9uqEUOq_neo4KZPK0fFnPqpYs9hBuXPgcujUMVg4PFeZM51OaDNLDEoNWBQuun6BPIt-KUmg1lLaxclRBDvWcf2iAAUVogYi7uvF4B9lYw7g4nx400wH-eyWoFFaA0FQHzCLOmg6GtL7VL3FzpYFPQ7nvnZKdjISj-_lUDeGllYQJ0-UyDS7W1m00]--></g></svg>