<?xml version="1.0" encoding="us-ascii" standalone="no"?><svg xmlns="http://www.w3.org/2000/svg" xmlns:xlink="http://www.w3.org/1999/xlink" contentStyleType="text/css" height="494px" preserveAspectRatio="none" style="width:2767px;height:494px;background:#FFFFFF;" version="1.1" viewBox="0 0 2767 494" width="2767px" zoomAndPan="magnify"><defs/><g><!--class Object--><g id="elem_Object"><rect fill="#F1F1F1" height="48" id="Object" rx="2.5" ry="2.5" style="stroke:#181818;stroke-width:0.5;" width="73" x="631.5" y="7"/><ellipse cx="646.5" cy="23" fill="#ADD1B2" rx="11" ry="11" style="stroke:#181818;stroke-width:1.0;"/><path d="M649.2656,18.875 Q649.4219,18.6563 649.6094,18.5469 Q649.7969,18.4375 650.0156,18.4375 Q650.3906,18.4375 650.625,18.6953 Q650.8594,18.9531 650.8594,19.5625 L650.8594,21.0156 Q650.8594,21.625 650.625,21.8906 Q650.3906,22.1563 650.0156,22.1563 Q649.6719,22.1563 649.4688,21.9531 Q649.2656,21.7656 649.1563,21.25 Q649.1094,20.8906 648.9219,20.7031 Q648.5938,20.3281 647.9844,20.1094 Q647.375,19.8906 646.75,19.8906 Q645.9844,19.8906 645.3516,20.2188 Q644.7188,20.5469 644.2266,21.2969 Q643.7344,22.0469 643.7344,23.0781 L643.7344,24.1719 Q643.7344,25.4063 644.625,26.2266 Q645.5156,27.0469 647.1094,27.0469 Q648.0469,27.0469 648.7031,26.7969 Q649.0938,26.6406 649.5156,26.2031 Q649.7813,25.9375 649.9297,25.8594 Q650.0781,25.7813 650.2813,25.7813 Q650.6094,25.7813 650.8672,26.0391 Q651.125,26.2969 651.125,26.6406 Q651.125,26.9844 650.7813,27.3906 Q650.2813,27.9688 649.4844,28.2969 Q648.4063,28.75 647.1094,28.75 Q645.5938,28.75 644.3906,28.125 Q643.4063,27.625 642.7188,26.5547 Q642.0313,25.4844 642.0313,24.2031 L642.0313,23.0469 Q642.0313,21.7188 642.6484,20.5703 Q643.2656,19.4219 644.3594,18.8047 Q645.4531,18.1875 646.6875,18.1875 Q647.4219,18.1875 648.0703,18.3516 Q648.7188,18.5156 649.2656,18.875 Z " fill="#000000"/><text fill="#000000" font-family="sans-serif" font-size="14" lengthAdjust="spacing" textLength="41" x="660.5" y="28.7285">Object</text><line style="stroke:#181818;stroke-width:0.5;" x1="632.5" x2="703.5" y1="39" y2="39"/><line style="stroke:#181818;stroke-width:0.5;" x1="632.5" x2="703.5" y1="47" y2="47"/></g><!--class Exception--><g id="elem_Exception"><rect fill="#F1F1F1" height="48" id="Exception" rx="2.5" ry="2.5" style="stroke:#181818;stroke-width:0.5;" width="93" x="621.5" y="115"/><ellipse cx="636.5" cy="131" fill="#ADD1B2" rx="11" ry="11" style="stroke:#181818;stroke-width:1.0;"/><path d="M639.2656,126.875 Q639.4219,126.6563 639.6094,126.5469 Q639.7969,126.4375 640.0156,126.4375 Q640.3906,126.4375 640.625,126.6953 Q640.8594,126.9531 640.8594,127.5625 L640.8594,129.0156 Q640.8594,129.625 640.625,129.8906 Q640.3906,130.1563 640.0156,130.1563 Q639.6719,130.1563 639.4688,129.9531 Q639.2656,129.7656 639.1563,129.25 Q639.1094,128.8906 638.9219,128.7031 Q638.5938,128.3281 637.9844,128.1094 Q637.375,127.8906 636.75,127.8906 Q635.9844,127.8906 635.3516,128.2188 Q634.7188,128.5469 634.2266,129.2969 Q633.7344,130.0469 633.7344,131.0781 L633.7344,132.1719 Q633.7344,133.4063 634.625,134.2266 Q635.5156,135.0469 637.1094,135.0469 Q638.0469,135.0469 638.7031,134.7969 Q639.0938,134.6406 639.5156,134.2031 Q639.7813,133.9375 639.9297,133.8594 Q640.0781,133.7813 640.2813,133.7813 Q640.6094,133.7813 640.8672,134.0391 Q641.125,134.2969 641.125,134.6406 Q641.125,134.9844 640.7813,135.3906 Q640.2813,135.9688 639.4844,136.2969 Q638.4063,136.75 637.1094,136.75 Q635.5938,136.75 634.3906,136.125 Q633.4063,135.625 632.7188,134.5547 Q632.0313,133.4844 632.0313,132.2031 L632.0313,131.0469 Q632.0313,129.7188 632.6484,128.5703 Q633.2656,127.4219 634.3594,126.8047 Q635.4531,126.1875 636.6875,126.1875 Q637.4219,126.1875 638.0703,126.3516 Q638.7188,126.5156 639.2656,126.875 Z " fill="#000000"/><text fill="#000000" font-family="sans-serif" font-size="14" lengthAdjust="spacing" textLength="61" x="650.5" y="136.7285">Exception</text><line style="stroke:#181818;stroke-width:0.5;" x1="622.5" x2="713.5" y1="147" y2="147"/><line style="stroke:#181818;stroke-width:0.5;" x1="622.5" x2="713.5" y1="155" y2="155"/></g><!--class SystemException--><g id="elem_SystemException"><rect fill="#F1F1F1" height="48" id="SystemException" rx="2.5" ry="2.5" style="stroke:#181818;stroke-width:0.5;" width="139" x="598.5" y="223"/><ellipse cx="613.5" cy="239" fill="#ADD1B2" rx="11" ry="11" style="stroke:#181818;stroke-width:1.0;"/><path d="M616.2656,234.875 Q616.4219,234.6563 616.6094,234.5469 Q616.7969,234.4375 617.0156,234.4375 Q617.3906,234.4375 617.625,234.6953 Q617.8594,234.9531 617.8594,235.5625 L617.8594,237.0156 Q617.8594,237.625 617.625,237.8906 Q617.3906,238.1563 617.0156,238.1563 Q616.6719,238.1563 616.4688,237.9531 Q616.2656,237.7656 616.1563,237.25 Q616.1094,236.8906 615.9219,236.7031 Q615.5938,236.3281 614.9844,236.1094 Q614.375,235.8906 613.75,235.8906 Q612.9844,235.8906 612.3516,236.2188 Q611.7188,236.5469 611.2266,237.2969 Q610.7344,238.0469 610.7344,239.0781 L610.7344,240.1719 Q610.7344,241.4063 611.625,242.2266 Q612.5156,243.0469 614.1094,243.0469 Q615.0469,243.0469 615.7031,242.7969 Q616.0938,242.6406 616.5156,242.2031 Q616.7813,241.9375 616.9297,241.8594 Q617.0781,241.7813 617.2813,241.7813 Q617.6094,241.7813 617.8672,242.0391 Q618.125,242.2969 618.125,242.6406 Q618.125,242.9844 617.7813,243.3906 Q617.2813,243.9688 616.4844,244.2969 Q615.4063,244.75 614.1094,244.75 Q612.5938,244.75 611.3906,244.125 Q610.4063,243.625 609.7188,242.5547 Q609.0313,241.4844 609.0313,240.2031 L609.0313,239.0469 Q609.0313,237.7188 609.6484,236.5703 Q610.2656,235.4219 611.3594,234.8047 Q612.4531,234.1875 613.6875,234.1875 Q614.4219,234.1875 615.0703,234.3516 Q615.7188,234.5156 616.2656,234.875 Z " fill="#000000"/><text fill="#000000" font-family="sans-serif" font-size="14" lengthAdjust="spacing" textLength="107" x="627.5" y="244.7285">SystemException</text><line style="stroke:#181818;stroke-width:0.5;" x1="599.5" x2="736.5" y1="255" y2="255"/><line style="stroke:#181818;stroke-width:0.5;" x1="599.5" x2="736.5" y1="263" y2="263"/></g><!--class IndexOutOfRangeException--><g id="elem_IndexOutOfRangeException"><rect fill="#F1F1F1" height="48" id="IndexOutOfRangeException" rx="2.5" ry="2.5" style="stroke:#181818;stroke-width:0.5;" width="206" x="7" y="331"/><ellipse cx="22" cy="347" fill="#ADD1B2" rx="11" ry="11" style="stroke:#181818;stroke-width:1.0;"/><path d="M24.7656,342.875 Q24.9219,342.6563 25.1094,342.5469 Q25.2969,342.4375 25.5156,342.4375 Q25.8906,342.4375 26.125,342.6953 Q26.3594,342.9531 26.3594,343.5625 L26.3594,345.0156 Q26.3594,345.625 26.125,345.8906 Q25.8906,346.1563 25.5156,346.1563 Q25.1719,346.1563 24.9688,345.9531 Q24.7656,345.7656 24.6563,345.25 Q24.6094,344.8906 24.4219,344.7031 Q24.0938,344.3281 23.4844,344.1094 Q22.875,343.8906 22.25,343.8906 Q21.4844,343.8906 20.8516,344.2188 Q20.2188,344.5469 19.7266,345.2969 Q19.2344,346.0469 19.2344,347.0781 L19.2344,348.1719 Q19.2344,349.4063 20.125,350.2266 Q21.0156,351.0469 22.6094,351.0469 Q23.5469,351.0469 24.2031,350.7969 Q24.5938,350.6406 25.0156,350.2031 Q25.2813,349.9375 25.4297,349.8594 Q25.5781,349.7813 25.7813,349.7813 Q26.1094,349.7813 26.3672,350.0391 Q26.625,350.2969 26.625,350.6406 Q26.625,350.9844 26.2813,351.3906 Q25.7813,351.9688 24.9844,352.2969 Q23.9063,352.75 22.6094,352.75 Q21.0938,352.75 19.8906,352.125 Q18.9063,351.625 18.2188,350.5547 Q17.5313,349.4844 17.5313,348.2031 L17.5313,347.0469 Q17.5313,345.7188 18.1484,344.5703 Q18.7656,343.4219 19.8594,342.8047 Q20.9531,342.1875 22.1875,342.1875 Q22.9219,342.1875 23.5703,342.3516 Q24.2188,342.5156 24.7656,342.875 Z " fill="#000000"/><text fill="#000000" font-family="sans-serif" font-size="14" lengthAdjust="spacing" textLength="174" x="36" y="352.7285">IndexOutOfRangeException</text><line style="stroke:#181818;stroke-width:0.5;" x1="8" x2="212" y1="363" y2="363"/><line style="stroke:#181818;stroke-width:0.5;" x1="8" x2="212" y1="371" y2="371"/></g><!--class NullReferenceException--><g id="elem_NullReferenceException"><rect fill="#F1F1F1" height="48" id="NullReferenceException" rx="2.5" ry="2.5" style="stroke:#181818;stroke-width:0.5;" width="182" x="248" y="331"/><ellipse cx="263" cy="347" fill="#ADD1B2" rx="11" ry="11" style="stroke:#181818;stroke-width:1.0;"/><path d="M265.7656,342.875 Q265.9219,342.6563 266.1094,342.5469 Q266.2969,342.4375 266.5156,342.4375 Q266.8906,342.4375 267.125,342.6953 Q267.3594,342.9531 267.3594,343.5625 L267.3594,345.0156 Q267.3594,345.625 267.125,345.8906 Q266.8906,346.1563 266.5156,346.1563 Q266.1719,346.1563 265.9688,345.9531 Q265.7656,345.7656 265.6563,345.25 Q265.6094,344.8906 265.4219,344.7031 Q265.0938,344.3281 264.4844,344.1094 Q263.875,343.8906 263.25,343.8906 Q262.4844,343.8906 261.8516,344.2188 Q261.2188,344.5469 260.7266,345.2969 Q260.2344,346.0469 260.2344,347.0781 L260.2344,348.1719 Q260.2344,349.4063 261.125,350.2266 Q262.0156,351.0469 263.6094,351.0469 Q264.5469,351.0469 265.2031,350.7969 Q265.5938,350.6406 266.0156,350.2031 Q266.2813,349.9375 266.4297,349.8594 Q266.5781,349.7813 266.7813,349.7813 Q267.1094,349.7813 267.3672,350.0391 Q267.625,350.2969 267.625,350.6406 Q267.625,350.9844 267.2813,351.3906 Q266.7813,351.9688 265.9844,352.2969 Q264.9063,352.75 263.6094,352.75 Q262.0938,352.75 260.8906,352.125 Q259.9063,351.625 259.2188,350.5547 Q258.5313,349.4844 258.5313,348.2031 L258.5313,347.0469 Q258.5313,345.7188 259.1484,344.5703 Q259.7656,343.4219 260.8594,342.8047 Q261.9531,342.1875 263.1875,342.1875 Q263.9219,342.1875 264.5703,342.3516 Q265.2188,342.5156 265.7656,342.875 Z " fill="#000000"/><text fill="#000000" font-family="sans-serif" font-size="14" lengthAdjust="spacing" textLength="150" x="277" y="352.7285">NullReferenceException</text><line style="stroke:#181818;stroke-width:0.5;" x1="249" x2="429" y1="363" y2="363"/><line style="stroke:#181818;stroke-width:0.5;" x1="249" x2="429" y1="371" y2="371"/></g><!--class InvalidOperationException--><g id="elem_InvalidOperationException"><rect fill="#F1F1F1" height="48" id="InvalidOperationException" rx="2.5" ry="2.5" style="stroke:#181818;stroke-width:0.5;" width="196" x="465" y="331"/><ellipse cx="480" cy="347" fill="#ADD1B2" rx="11" ry="11" style="stroke:#181818;stroke-width:1.0;"/><path d="M482.7656,342.875 Q482.9219,342.6563 483.1094,342.5469 Q483.2969,342.4375 483.5156,342.4375 Q483.8906,342.4375 484.125,342.6953 Q484.3594,342.9531 484.3594,343.5625 L484.3594,345.0156 Q484.3594,345.625 484.125,345.8906 Q483.8906,346.1563 483.5156,346.1563 Q483.1719,346.1563 482.9688,345.9531 Q482.7656,345.7656 482.6563,345.25 Q482.6094,344.8906 482.4219,344.7031 Q482.0938,344.3281 481.4844,344.1094 Q480.875,343.8906 480.25,343.8906 Q479.4844,343.8906 478.8516,344.2188 Q478.2188,344.5469 477.7266,345.2969 Q477.2344,346.0469 477.2344,347.0781 L477.2344,348.1719 Q477.2344,349.4063 478.125,350.2266 Q479.0156,351.0469 480.6094,351.0469 Q481.5469,351.0469 482.2031,350.7969 Q482.5938,350.6406 483.0156,350.2031 Q483.2813,349.9375 483.4297,349.8594 Q483.5781,349.7813 483.7813,349.7813 Q484.1094,349.7813 484.3672,350.0391 Q484.625,350.2969 484.625,350.6406 Q484.625,350.9844 484.2813,351.3906 Q483.7813,351.9688 482.9844,352.2969 Q481.9063,352.75 480.6094,352.75 Q479.0938,352.75 477.8906,352.125 Q476.9063,351.625 476.2188,350.5547 Q475.5313,349.4844 475.5313,348.2031 L475.5313,347.0469 Q475.5313,345.7188 476.1484,344.5703 Q476.7656,343.4219 477.8594,342.8047 Q478.9531,342.1875 480.1875,342.1875 Q480.9219,342.1875 481.5703,342.3516 Q482.2188,342.5156 482.7656,342.875 Z " fill="#000000"/><text fill="#000000" font-family="sans-serif" font-size="14" lengthAdjust="spacing" textLength="164" x="494" y="352.7285">InvalidOperationException</text><line style="stroke:#181818;stroke-width:0.5;" x1="466" x2="660" y1="363" y2="363"/><line style="stroke:#181818;stroke-width:0.5;" x1="466" x2="660" y1="371" y2="371"/></g><!--class ArgumentException--><g id="elem_ArgumentException"><rect fill="#F1F1F1" height="48" id="ArgumentException" rx="2.5" ry="2.5" style="stroke:#181818;stroke-width:0.5;" width="154" x="696" y="331"/><ellipse cx="711" cy="347" fill="#ADD1B2" rx="11" ry="11" style="stroke:#181818;stroke-width:1.0;"/><path d="M713.7656,342.875 Q713.9219,342.6563 714.1094,342.5469 Q714.2969,342.4375 714.5156,342.4375 Q714.8906,342.4375 715.125,342.6953 Q715.3594,342.9531 715.3594,343.5625 L715.3594,345.0156 Q715.3594,345.625 715.125,345.8906 Q714.8906,346.1563 714.5156,346.1563 Q714.1719,346.1563 713.9688,345.9531 Q713.7656,345.7656 713.6563,345.25 Q713.6094,344.8906 713.4219,344.7031 Q713.0938,344.3281 712.4844,344.1094 Q711.875,343.8906 711.25,343.8906 Q710.4844,343.8906 709.8516,344.2188 Q709.2188,344.5469 708.7266,345.2969 Q708.2344,346.0469 708.2344,347.0781 L708.2344,348.1719 Q708.2344,349.4063 709.125,350.2266 Q710.0156,351.0469 711.6094,351.0469 Q712.5469,351.0469 713.2031,350.7969 Q713.5938,350.6406 714.0156,350.2031 Q714.2813,349.9375 714.4297,349.8594 Q714.5781,349.7813 714.7813,349.7813 Q715.1094,349.7813 715.3672,350.0391 Q715.625,350.2969 715.625,350.6406 Q715.625,350.9844 715.2813,351.3906 Q714.7813,351.9688 713.9844,352.2969 Q712.9063,352.75 711.6094,352.75 Q710.0938,352.75 708.8906,352.125 Q707.9063,351.625 707.2188,350.5547 Q706.5313,349.4844 706.5313,348.2031 L706.5313,347.0469 Q706.5313,345.7188 707.1484,344.5703 Q707.7656,343.4219 708.8594,342.8047 Q709.9531,342.1875 711.1875,342.1875 Q711.9219,342.1875 712.5703,342.3516 Q713.2188,342.5156 713.7656,342.875 Z " fill="#000000"/><text fill="#000000" font-family="sans-serif" font-size="14" lengthAdjust="spacing" textLength="122" x="725" y="352.7285">ArgumentException</text><line style="stroke:#181818;stroke-width:0.5;" x1="697" x2="849" y1="363" y2="363"/><line style="stroke:#181818;stroke-width:0.5;" x1="697" x2="849" y1="371" y2="371"/></g><!--class ArgumentNullException--><g id="elem_ArgumentNullException"><rect fill="#F1F1F1" height="48" id="ArgumentNullException" rx="2.5" ry="2.5" style="stroke:#181818;stroke-width:0.5;" width="177" x="418.5" y="439"/><ellipse cx="433.5" cy="455" fill="#ADD1B2" rx="11" ry="11" style="stroke:#181818;stroke-width:1.0;"/><path d="M436.2656,450.875 Q436.4219,450.6563 436.6094,450.5469 Q436.7969,450.4375 437.0156,450.4375 Q437.3906,450.4375 437.625,450.6953 Q437.8594,450.9531 437.8594,451.5625 L437.8594,453.0156 Q437.8594,453.625 437.625,453.8906 Q437.3906,454.1563 437.0156,454.1563 Q436.6719,454.1563 436.4688,453.9531 Q436.2656,453.7656 436.1563,453.25 Q436.1094,452.8906 435.9219,452.7031 Q435.5938,452.3281 434.9844,452.1094 Q434.375,451.8906 433.75,451.8906 Q432.9844,451.8906 432.3516,452.2188 Q431.7188,452.5469 431.2266,453.2969 Q430.7344,454.0469 430.7344,455.0781 L430.7344,456.1719 Q430.7344,457.4063 431.625,458.2266 Q432.5156,459.0469 434.1094,459.0469 Q435.0469,459.0469 435.7031,458.7969 Q436.0938,458.6406 436.5156,458.2031 Q436.7813,457.9375 436.9297,457.8594 Q437.0781,457.7813 437.2813,457.7813 Q437.6094,457.7813 437.8672,458.0391 Q438.125,458.2969 438.125,458.6406 Q438.125,458.9844 437.7813,459.3906 Q437.2813,459.9688 436.4844,460.2969 Q435.4063,460.75 434.1094,460.75 Q432.5938,460.75 431.3906,460.125 Q430.4063,459.625 429.7188,458.5547 Q429.0313,457.4844 429.0313,456.2031 L429.0313,455.0469 Q429.0313,453.7188 429.6484,452.5703 Q430.2656,451.4219 431.3594,450.8047 Q432.4531,450.1875 433.6875,450.1875 Q434.4219,450.1875 435.0703,450.3516 Q435.7188,450.5156 436.2656,450.875 Z " fill="#000000"/><text fill="#000000" font-family="sans-serif" font-size="14" lengthAdjust="spacing" textLength="145" x="447.5" y="460.7285">ArgumentNullException</text><line style="stroke:#181818;stroke-width:0.5;" x1="419.5" x2="594.5" y1="471" y2="471"/><line style="stroke:#181818;stroke-width:0.5;" x1="419.5" x2="594.5" y1="479" y2="479"/></g><!--class ArgumentOutOfRangeException--><g id="elem_ArgumentOutOfRangeException"><rect fill="#F1F1F1" height="48" id="ArgumentOutOfRangeException" rx="2.5" ry="2.5" style="stroke:#181818;stroke-width:0.5;" width="234" x="631" y="439"/><ellipse cx="646" cy="455" fill="#ADD1B2" rx="11" ry="11" style="stroke:#181818;stroke-width:1.0;"/><path d="M648.7656,450.875 Q648.9219,450.6563 649.1094,450.5469 Q649.2969,450.4375 649.5156,450.4375 Q649.8906,450.4375 650.125,450.6953 Q650.3594,450.9531 650.3594,451.5625 L650.3594,453.0156 Q650.3594,453.625 650.125,453.8906 Q649.8906,454.1563 649.5156,454.1563 Q649.1719,454.1563 648.9688,453.9531 Q648.7656,453.7656 648.6563,453.25 Q648.6094,452.8906 648.4219,452.7031 Q648.0938,452.3281 647.4844,452.1094 Q646.875,451.8906 646.25,451.8906 Q645.4844,451.8906 644.8516,452.2188 Q644.2188,452.5469 643.7266,453.2969 Q643.2344,454.0469 643.2344,455.0781 L643.2344,456.1719 Q643.2344,457.4063 644.125,458.2266 Q645.0156,459.0469 646.6094,459.0469 Q647.5469,459.0469 648.2031,458.7969 Q648.5938,458.6406 649.0156,458.2031 Q649.2813,457.9375 649.4297,457.8594 Q649.5781,457.7813 649.7813,457.7813 Q650.1094,457.7813 650.3672,458.0391 Q650.625,458.2969 650.625,458.6406 Q650.625,458.9844 650.2813,459.3906 Q649.7813,459.9688 648.9844,460.2969 Q647.9063,460.75 646.6094,460.75 Q645.0938,460.75 643.8906,460.125 Q642.9063,459.625 642.2188,458.5547 Q641.5313,457.4844 641.5313,456.2031 L641.5313,455.0469 Q641.5313,453.7188 642.1484,452.5703 Q642.7656,451.4219 643.8594,450.8047 Q644.9531,450.1875 646.1875,450.1875 Q646.9219,450.1875 647.5703,450.3516 Q648.2188,450.5156 648.7656,450.875 Z " fill="#000000"/><text fill="#000000" font-family="sans-serif" font-size="14" lengthAdjust="spacing" textLength="202" x="660" y="460.7285">ArgumentOutOfRangeException</text><line style="stroke:#181818;stroke-width:0.5;" x1="632" x2="864" y1="471" y2="471"/><line style="stroke:#181818;stroke-width:0.5;" x1="632" x2="864" y1="479" y2="479"/></g><!--class ArithmeticException--><g id="elem_ArithmeticException"><rect fill="#F1F1F1" height="48" id="ArithmeticException" rx="2.5" ry="2.5" style="stroke:#181818;stroke-width:0.5;" width="155" x="1022.5" y="331"/><ellipse cx="1037.5" cy="347" fill="#ADD1B2" rx="11" ry="11" style="stroke:#181818;stroke-width:1.0;"/><path d="M1040.2656,342.875 Q1040.4219,342.6563 1040.6094,342.5469 Q1040.7969,342.4375 1041.0156,342.4375 Q1041.3906,342.4375 1041.625,342.6953 Q1041.8594,342.9531 1041.8594,343.5625 L1041.8594,345.0156 Q1041.8594,345.625 1041.625,345.8906 Q1041.3906,346.1563 1041.0156,346.1563 Q1040.6719,346.1563 1040.4688,345.9531 Q1040.2656,345.7656 1040.1563,345.25 Q1040.1094,344.8906 1039.9219,344.7031 Q1039.5938,344.3281 1038.9844,344.1094 Q1038.375,343.8906 1037.75,343.8906 Q1036.9844,343.8906 1036.3516,344.2188 Q1035.7188,344.5469 1035.2266,345.2969 Q1034.7344,346.0469 1034.7344,347.0781 L1034.7344,348.1719 Q1034.7344,349.4063 1035.625,350.2266 Q1036.5156,351.0469 1038.1094,351.0469 Q1039.0469,351.0469 1039.7031,350.7969 Q1040.0938,350.6406 1040.5156,350.2031 Q1040.7813,349.9375 1040.9297,349.8594 Q1041.0781,349.7813 1041.2813,349.7813 Q1041.6094,349.7813 1041.8672,350.0391 Q1042.125,350.2969 1042.125,350.6406 Q1042.125,350.9844 1041.7813,351.3906 Q1041.2813,351.9688 1040.4844,352.2969 Q1039.4063,352.75 1038.1094,352.75 Q1036.5938,352.75 1035.3906,352.125 Q1034.4063,351.625 1033.7188,350.5547 Q1033.0313,349.4844 1033.0313,348.2031 L1033.0313,347.0469 Q1033.0313,345.7188 1033.6484,344.5703 Q1034.2656,343.4219 1035.3594,342.8047 Q1036.4531,342.1875 1037.6875,342.1875 Q1038.4219,342.1875 1039.0703,342.3516 Q1039.7188,342.5156 1040.2656,342.875 Z " fill="#000000"/><text fill="#000000" font-family="sans-serif" font-size="14" lengthAdjust="spacing" textLength="123" x="1051.5" y="352.7285">ArithmeticException</text><line style="stroke:#181818;stroke-width:0.5;" x1="1023.5" x2="1176.5" y1="363" y2="363"/><line style="stroke:#181818;stroke-width:0.5;" x1="1023.5" x2="1176.5" y1="371" y2="371"/></g><!--class DivideByZeroException--><g id="elem_DivideByZeroException"><rect fill="#F1F1F1" height="48" id="DivideByZeroException" rx="2.5" ry="2.5" style="stroke:#181818;stroke-width:0.5;" width="177" x="900.5" y="439"/><ellipse cx="915.5" cy="455" fill="#ADD1B2" rx="11" ry="11" style="stroke:#181818;stroke-width:1.0;"/><path d="M918.2656,450.875 Q918.4219,450.6563 918.6094,450.5469 Q918.7969,450.4375 919.0156,450.4375 Q919.3906,450.4375 919.625,450.6953 Q919.8594,450.9531 919.8594,451.5625 L919.8594,453.0156 Q919.8594,453.625 919.625,453.8906 Q919.3906,454.1563 919.0156,454.1563 Q918.6719,454.1563 918.4688,453.9531 Q918.2656,453.7656 918.1563,453.25 Q918.1094,452.8906 917.9219,452.7031 Q917.5938,452.3281 916.9844,452.1094 Q916.375,451.8906 915.75,451.8906 Q914.9844,451.8906 914.3516,452.2188 Q913.7188,452.5469 913.2266,453.2969 Q912.7344,454.0469 912.7344,455.0781 L912.7344,456.1719 Q912.7344,457.4063 913.625,458.2266 Q914.5156,459.0469 916.1094,459.0469 Q917.0469,459.0469 917.7031,458.7969 Q918.0938,458.6406 918.5156,458.2031 Q918.7813,457.9375 918.9297,457.8594 Q919.0781,457.7813 919.2813,457.7813 Q919.6094,457.7813 919.8672,458.0391 Q920.125,458.2969 920.125,458.6406 Q920.125,458.9844 919.7813,459.3906 Q919.2813,459.9688 918.4844,460.2969 Q917.4063,460.75 916.1094,460.75 Q914.5938,460.75 913.3906,460.125 Q912.4063,459.625 911.7188,458.5547 Q911.0313,457.4844 911.0313,456.2031 L911.0313,455.0469 Q911.0313,453.7188 911.6484,452.5703 Q912.2656,451.4219 913.3594,450.8047 Q914.4531,450.1875 915.6875,450.1875 Q916.4219,450.1875 917.0703,450.3516 Q917.7188,450.5156 918.2656,450.875 Z " fill="#000000"/><text fill="#000000" font-family="sans-serif" font-size="14" lengthAdjust="spacing" textLength="145" x="929.5" y="460.7285">DivideByZeroException</text><line style="stroke:#181818;stroke-width:0.5;" x1="901.5" x2="1076.5" y1="471" y2="471"/><line style="stroke:#181818;stroke-width:0.5;" x1="901.5" x2="1076.5" y1="479" y2="479"/></g><!--class NotFiniteNumberException--><g id="elem_NotFiniteNumberException"><rect fill="#F1F1F1" height="48" id="NotFiniteNumberException" rx="2.5" ry="2.5" style="stroke:#181818;stroke-width:0.5;" width="198" x="1113" y="439"/><ellipse cx="1128" cy="455" fill="#ADD1B2" rx="11" ry="11" style="stroke:#181818;stroke-width:1.0;"/><path d="M1130.7656,450.875 Q1130.9219,450.6563 1131.1094,450.5469 Q1131.2969,450.4375 1131.5156,450.4375 Q1131.8906,450.4375 1132.125,450.6953 Q1132.3594,450.9531 1132.3594,451.5625 L1132.3594,453.0156 Q1132.3594,453.625 1132.125,453.8906 Q1131.8906,454.1563 1131.5156,454.1563 Q1131.1719,454.1563 1130.9688,453.9531 Q1130.7656,453.7656 1130.6563,453.25 Q1130.6094,452.8906 1130.4219,452.7031 Q1130.0938,452.3281 1129.4844,452.1094 Q1128.875,451.8906 1128.25,451.8906 Q1127.4844,451.8906 1126.8516,452.2188 Q1126.2188,452.5469 1125.7266,453.2969 Q1125.2344,454.0469 1125.2344,455.0781 L1125.2344,456.1719 Q1125.2344,457.4063 1126.125,458.2266 Q1127.0156,459.0469 1128.6094,459.0469 Q1129.5469,459.0469 1130.2031,458.7969 Q1130.5938,458.6406 1131.0156,458.2031 Q1131.2813,457.9375 1131.4297,457.8594 Q1131.5781,457.7813 1131.7813,457.7813 Q1132.1094,457.7813 1132.3672,458.0391 Q1132.625,458.2969 1132.625,458.6406 Q1132.625,458.9844 1132.2813,459.3906 Q1131.7813,459.9688 1130.9844,460.2969 Q1129.9063,460.75 1128.6094,460.75 Q1127.0938,460.75 1125.8906,460.125 Q1124.9063,459.625 1124.2188,458.5547 Q1123.5313,457.4844 1123.5313,456.2031 L1123.5313,455.0469 Q1123.5313,453.7188 1124.1484,452.5703 Q1124.7656,451.4219 1125.8594,450.8047 Q1126.9531,450.1875 1128.1875,450.1875 Q1128.9219,450.1875 1129.5703,450.3516 Q1130.2188,450.5156 1130.7656,450.875 Z " fill="#000000"/><text fill="#000000" font-family="sans-serif" font-size="14" lengthAdjust="spacing" textLength="166" x="1142" y="460.7285">NotFiniteNumberException</text><line style="stroke:#181818;stroke-width:0.5;" x1="1114" x2="1310" y1="471" y2="471"/><line style="stroke:#181818;stroke-width:0.5;" x1="1114" x2="1310" y1="479" y2="479"/></g><!--class OverflowException--><g id="elem_OverflowException"><rect fill="#F1F1F1" height="48" id="OverflowException" rx="2.5" ry="2.5" style="stroke:#181818;stroke-width:0.5;" width="148" x="1346" y="439"/><ellipse cx="1361" cy="455" fill="#ADD1B2" rx="11" ry="11" style="stroke:#181818;stroke-width:1.0;"/><path d="M1363.7656,450.875 Q1363.9219,450.6563 1364.1094,450.5469 Q1364.2969,450.4375 1364.5156,450.4375 Q1364.8906,450.4375 1365.125,450.6953 Q1365.3594,450.9531 1365.3594,451.5625 L1365.3594,453.0156 Q1365.3594,453.625 1365.125,453.8906 Q1364.8906,454.1563 1364.5156,454.1563 Q1364.1719,454.1563 1363.9688,453.9531 Q1363.7656,453.7656 1363.6563,453.25 Q1363.6094,452.8906 1363.4219,452.7031 Q1363.0938,452.3281 1362.4844,452.1094 Q1361.875,451.8906 1361.25,451.8906 Q1360.4844,451.8906 1359.8516,452.2188 Q1359.2188,452.5469 1358.7266,453.2969 Q1358.2344,454.0469 1358.2344,455.0781 L1358.2344,456.1719 Q1358.2344,457.4063 1359.125,458.2266 Q1360.0156,459.0469 1361.6094,459.0469 Q1362.5469,459.0469 1363.2031,458.7969 Q1363.5938,458.6406 1364.0156,458.2031 Q1364.2813,457.9375 1364.4297,457.8594 Q1364.5781,457.7813 1364.7813,457.7813 Q1365.1094,457.7813 1365.3672,458.0391 Q1365.625,458.2969 1365.625,458.6406 Q1365.625,458.9844 1365.2813,459.3906 Q1364.7813,459.9688 1363.9844,460.2969 Q1362.9063,460.75 1361.6094,460.75 Q1360.0938,460.75 1358.8906,460.125 Q1357.9063,459.625 1357.2188,458.5547 Q1356.5313,457.4844 1356.5313,456.2031 L1356.5313,455.0469 Q1356.5313,453.7188 1357.1484,452.5703 Q1357.7656,451.4219 1358.8594,450.8047 Q1359.9531,450.1875 1361.1875,450.1875 Q1361.9219,450.1875 1362.5703,450.3516 Q1363.2188,450.5156 1363.7656,450.875 Z " fill="#000000"/><text fill="#000000" font-family="sans-serif" font-size="14" lengthAdjust="spacing" textLength="116" x="1375" y="460.7285">OverflowException</text><line style="stroke:#181818;stroke-width:0.5;" x1="1347" x2="1493" y1="471" y2="471"/><line style="stroke:#181818;stroke-width:0.5;" x1="1347" x2="1493" y1="479" y2="479"/></g><!--class IOException--><g id="elem_IOException"><rect fill="#F1F1F1" height="48" id="IOException" rx="2.5" ry="2.5" style="stroke:#181818;stroke-width:0.5;" width="107" x="2034.5" y="331"/><ellipse cx="2049.5" cy="347" fill="#ADD1B2" rx="11" ry="11" style="stroke:#181818;stroke-width:1.0;"/><path d="M2052.2656,342.875 Q2052.4219,342.6563 2052.6094,342.5469 Q2052.7969,342.4375 2053.0156,342.4375 Q2053.3906,342.4375 2053.625,342.6953 Q2053.8594,342.9531 2053.8594,343.5625 L2053.8594,345.0156 Q2053.8594,345.625 2053.625,345.8906 Q2053.3906,346.1563 2053.0156,346.1563 Q2052.6719,346.1563 2052.4688,345.9531 Q2052.2656,345.7656 2052.1563,345.25 Q2052.1094,344.8906 2051.9219,344.7031 Q2051.5938,344.3281 2050.9844,344.1094 Q2050.375,343.8906 2049.75,343.8906 Q2048.9844,343.8906 2048.3516,344.2188 Q2047.7188,344.5469 2047.2266,345.2969 Q2046.7344,346.0469 2046.7344,347.0781 L2046.7344,348.1719 Q2046.7344,349.4063 2047.625,350.2266 Q2048.5156,351.0469 2050.1094,351.0469 Q2051.0469,351.0469 2051.7031,350.7969 Q2052.0938,350.6406 2052.5156,350.2031 Q2052.7813,349.9375 2052.9297,349.8594 Q2053.0781,349.7813 2053.2813,349.7813 Q2053.6094,349.7813 2053.8672,350.0391 Q2054.125,350.2969 2054.125,350.6406 Q2054.125,350.9844 2053.7813,351.3906 Q2053.2813,351.9688 2052.4844,352.2969 Q2051.4063,352.75 2050.1094,352.75 Q2048.5938,352.75 2047.3906,352.125 Q2046.4063,351.625 2045.7188,350.5547 Q2045.0313,349.4844 2045.0313,348.2031 L2045.0313,347.0469 Q2045.0313,345.7188 2045.6484,344.5703 Q2046.2656,343.4219 2047.3594,342.8047 Q2048.4531,342.1875 2049.6875,342.1875 Q2050.4219,342.1875 2051.0703,342.3516 Q2051.7188,342.5156 2052.2656,342.875 Z " fill="#000000"/><text fill="#000000" font-family="sans-serif" font-size="14" lengthAdjust="spacing" textLength="75" x="2063.5" y="352.7285">IOException</text><line style="stroke:#181818;stroke-width:0.5;" x1="2035.5" x2="2140.5" y1="363" y2="363"/><line style="stroke:#181818;stroke-width:0.5;" x1="2035.5" x2="2140.5" y1="371" y2="371"/></g><!--class DirectoryNotFoundException--><g id="elem_DirectoryNotFoundException"><rect fill="#F1F1F1" height="48" id="DirectoryNotFoundException" rx="2.5" ry="2.5" style="stroke:#181818;stroke-width:0.5;" width="212" x="1529" y="439"/><ellipse cx="1544" cy="455" fill="#ADD1B2" rx="11" ry="11" style="stroke:#181818;stroke-width:1.0;"/><path d="M1546.7656,450.875 Q1546.9219,450.6563 1547.1094,450.5469 Q1547.2969,450.4375 1547.5156,450.4375 Q1547.8906,450.4375 1548.125,450.6953 Q1548.3594,450.9531 1548.3594,451.5625 L1548.3594,453.0156 Q1548.3594,453.625 1548.125,453.8906 Q1547.8906,454.1563 1547.5156,454.1563 Q1547.1719,454.1563 1546.9688,453.9531 Q1546.7656,453.7656 1546.6563,453.25 Q1546.6094,452.8906 1546.4219,452.7031 Q1546.0938,452.3281 1545.4844,452.1094 Q1544.875,451.8906 1544.25,451.8906 Q1543.4844,451.8906 1542.8516,452.2188 Q1542.2188,452.5469 1541.7266,453.2969 Q1541.2344,454.0469 1541.2344,455.0781 L1541.2344,456.1719 Q1541.2344,457.4063 1542.125,458.2266 Q1543.0156,459.0469 1544.6094,459.0469 Q1545.5469,459.0469 1546.2031,458.7969 Q1546.5938,458.6406 1547.0156,458.2031 Q1547.2813,457.9375 1547.4297,457.8594 Q1547.5781,457.7813 1547.7813,457.7813 Q1548.1094,457.7813 1548.3672,458.0391 Q1548.625,458.2969 1548.625,458.6406 Q1548.625,458.9844 1548.2813,459.3906 Q1547.7813,459.9688 1546.9844,460.2969 Q1545.9063,460.75 1544.6094,460.75 Q1543.0938,460.75 1541.8906,460.125 Q1540.9063,459.625 1540.2188,458.5547 Q1539.5313,457.4844 1539.5313,456.2031 L1539.5313,455.0469 Q1539.5313,453.7188 1540.1484,452.5703 Q1540.7656,451.4219 1541.8594,450.8047 Q1542.9531,450.1875 1544.1875,450.1875 Q1544.9219,450.1875 1545.5703,450.3516 Q1546.2188,450.5156 1546.7656,450.875 Z " fill="#000000"/><text fill="#000000" font-family="sans-serif" font-size="14" lengthAdjust="spacing" textLength="180" x="1558" y="460.7285">DirectoryNotFoundException</text><line style="stroke:#181818;stroke-width:0.5;" x1="1530" x2="1740" y1="471" y2="471"/><line style="stroke:#181818;stroke-width:0.5;" x1="1530" x2="1740" y1="479" y2="479"/></g><!--class DriveNotFoundException--><g id="elem_DriveNotFoundException"><rect fill="#F1F1F1" height="48" id="DriveNotFoundException" rx="2.5" ry="2.5" style="stroke:#181818;stroke-width:0.5;" width="188" x="1776" y="439"/><ellipse cx="1791" cy="455" fill="#ADD1B2" rx="11" ry="11" style="stroke:#181818;stroke-width:1.0;"/><path d="M1793.7656,450.875 Q1793.9219,450.6563 1794.1094,450.5469 Q1794.2969,450.4375 1794.5156,450.4375 Q1794.8906,450.4375 1795.125,450.6953 Q1795.3594,450.9531 1795.3594,451.5625 L1795.3594,453.0156 Q1795.3594,453.625 1795.125,453.8906 Q1794.8906,454.1563 1794.5156,454.1563 Q1794.1719,454.1563 1793.9688,453.9531 Q1793.7656,453.7656 1793.6563,453.25 Q1793.6094,452.8906 1793.4219,452.7031 Q1793.0938,452.3281 1792.4844,452.1094 Q1791.875,451.8906 1791.25,451.8906 Q1790.4844,451.8906 1789.8516,452.2188 Q1789.2188,452.5469 1788.7266,453.2969 Q1788.2344,454.0469 1788.2344,455.0781 L1788.2344,456.1719 Q1788.2344,457.4063 1789.125,458.2266 Q1790.0156,459.0469 1791.6094,459.0469 Q1792.5469,459.0469 1793.2031,458.7969 Q1793.5938,458.6406 1794.0156,458.2031 Q1794.2813,457.9375 1794.4297,457.8594 Q1794.5781,457.7813 1794.7813,457.7813 Q1795.1094,457.7813 1795.3672,458.0391 Q1795.625,458.2969 1795.625,458.6406 Q1795.625,458.9844 1795.2813,459.3906 Q1794.7813,459.9688 1793.9844,460.2969 Q1792.9063,460.75 1791.6094,460.75 Q1790.0938,460.75 1788.8906,460.125 Q1787.9063,459.625 1787.2188,458.5547 Q1786.5313,457.4844 1786.5313,456.2031 L1786.5313,455.0469 Q1786.5313,453.7188 1787.1484,452.5703 Q1787.7656,451.4219 1788.8594,450.8047 Q1789.9531,450.1875 1791.1875,450.1875 Q1791.9219,450.1875 1792.5703,450.3516 Q1793.2188,450.5156 1793.7656,450.875 Z " fill="#000000"/><text fill="#000000" font-family="sans-serif" font-size="14" lengthAdjust="spacing" textLength="156" x="1805" y="460.7285">DriveNotFoundException</text><line style="stroke:#181818;stroke-width:0.5;" x1="1777" x2="1963" y1="471" y2="471"/><line style="stroke:#181818;stroke-width:0.5;" x1="1777" x2="1963" y1="479" y2="479"/></g><!--class EndOfStreamException--><g id="elem_EndOfStreamException"><rect fill="#F1F1F1" height="48" id="EndOfStreamException" rx="2.5" ry="2.5" style="stroke:#181818;stroke-width:0.5;" width="178" x="1999" y="439"/><ellipse cx="2014" cy="455" fill="#ADD1B2" rx="11" ry="11" style="stroke:#181818;stroke-width:1.0;"/><path d="M2016.7656,450.875 Q2016.9219,450.6563 2017.1094,450.5469 Q2017.2969,450.4375 2017.5156,450.4375 Q2017.8906,450.4375 2018.125,450.6953 Q2018.3594,450.9531 2018.3594,451.5625 L2018.3594,453.0156 Q2018.3594,453.625 2018.125,453.8906 Q2017.8906,454.1563 2017.5156,454.1563 Q2017.1719,454.1563 2016.9688,453.9531 Q2016.7656,453.7656 2016.6563,453.25 Q2016.6094,452.8906 2016.4219,452.7031 Q2016.0938,452.3281 2015.4844,452.1094 Q2014.875,451.8906 2014.25,451.8906 Q2013.4844,451.8906 2012.8516,452.2188 Q2012.2188,452.5469 2011.7266,453.2969 Q2011.2344,454.0469 2011.2344,455.0781 L2011.2344,456.1719 Q2011.2344,457.4063 2012.125,458.2266 Q2013.0156,459.0469 2014.6094,459.0469 Q2015.5469,459.0469 2016.2031,458.7969 Q2016.5938,458.6406 2017.0156,458.2031 Q2017.2813,457.9375 2017.4297,457.8594 Q2017.5781,457.7813 2017.7813,457.7813 Q2018.1094,457.7813 2018.3672,458.0391 Q2018.625,458.2969 2018.625,458.6406 Q2018.625,458.9844 2018.2813,459.3906 Q2017.7813,459.9688 2016.9844,460.2969 Q2015.9063,460.75 2014.6094,460.75 Q2013.0938,460.75 2011.8906,460.125 Q2010.9063,459.625 2010.2188,458.5547 Q2009.5313,457.4844 2009.5313,456.2031 L2009.5313,455.0469 Q2009.5313,453.7188 2010.1484,452.5703 Q2010.7656,451.4219 2011.8594,450.8047 Q2012.9531,450.1875 2014.1875,450.1875 Q2014.9219,450.1875 2015.5703,450.3516 Q2016.2188,450.5156 2016.7656,450.875 Z " fill="#000000"/><text fill="#000000" font-family="sans-serif" font-size="14" lengthAdjust="spacing" textLength="146" x="2028" y="460.7285">EndOfStreamException</text><line style="stroke:#181818;stroke-width:0.5;" x1="2000" x2="2176" y1="471" y2="471"/><line style="stroke:#181818;stroke-width:0.5;" x1="2000" x2="2176" y1="479" y2="479"/></g><!--class FileNotFoundException--><g id="elem_FileNotFoundException"><rect fill="#F1F1F1" height="48" id="FileNotFoundException" rx="2.5" ry="2.5" style="stroke:#181818;stroke-width:0.5;" width="178" x="2212" y="439"/><ellipse cx="2227" cy="455" fill="#ADD1B2" rx="11" ry="11" style="stroke:#181818;stroke-width:1.0;"/><path d="M2229.7656,450.875 Q2229.9219,450.6563 2230.1094,450.5469 Q2230.2969,450.4375 2230.5156,450.4375 Q2230.8906,450.4375 2231.125,450.6953 Q2231.3594,450.9531 2231.3594,451.5625 L2231.3594,453.0156 Q2231.3594,453.625 2231.125,453.8906 Q2230.8906,454.1563 2230.5156,454.1563 Q2230.1719,454.1563 2229.9688,453.9531 Q2229.7656,453.7656 2229.6563,453.25 Q2229.6094,452.8906 2229.4219,452.7031 Q2229.0938,452.3281 2228.4844,452.1094 Q2227.875,451.8906 2227.25,451.8906 Q2226.4844,451.8906 2225.8516,452.2188 Q2225.2188,452.5469 2224.7266,453.2969 Q2224.2344,454.0469 2224.2344,455.0781 L2224.2344,456.1719 Q2224.2344,457.4063 2225.125,458.2266 Q2226.0156,459.0469 2227.6094,459.0469 Q2228.5469,459.0469 2229.2031,458.7969 Q2229.5938,458.6406 2230.0156,458.2031 Q2230.2813,457.9375 2230.4297,457.8594 Q2230.5781,457.7813 2230.7813,457.7813 Q2231.1094,457.7813 2231.3672,458.0391 Q2231.625,458.2969 2231.625,458.6406 Q2231.625,458.9844 2231.2813,459.3906 Q2230.7813,459.9688 2229.9844,460.2969 Q2228.9063,460.75 2227.6094,460.75 Q2226.0938,460.75 2224.8906,460.125 Q2223.9063,459.625 2223.2188,458.5547 Q2222.5313,457.4844 2222.5313,456.2031 L2222.5313,455.0469 Q2222.5313,453.7188 2223.1484,452.5703 Q2223.7656,451.4219 2224.8594,450.8047 Q2225.9531,450.1875 2227.1875,450.1875 Q2227.9219,450.1875 2228.5703,450.3516 Q2229.2188,450.5156 2229.7656,450.875 Z " fill="#000000"/><text fill="#000000" font-family="sans-serif" font-size="14" lengthAdjust="spacing" textLength="146" x="2241" y="460.7285">FileNotFoundException</text><line style="stroke:#181818;stroke-width:0.5;" x1="2213" x2="2389" y1="471" y2="471"/><line style="stroke:#181818;stroke-width:0.5;" x1="2213" x2="2389" y1="479" y2="479"/></g><!--class PathTooLongException--><g id="elem_PathTooLongException"><rect fill="#F1F1F1" height="48" id="PathTooLongException" rx="2.5" ry="2.5" style="stroke:#181818;stroke-width:0.5;" width="179" x="2425.5" y="439"/><ellipse cx="2440.5" cy="455" fill="#ADD1B2" rx="11" ry="11" style="stroke:#181818;stroke-width:1.0;"/><path d="M2443.2656,450.875 Q2443.4219,450.6563 2443.6094,450.5469 Q2443.7969,450.4375 2444.0156,450.4375 Q2444.3906,450.4375 2444.625,450.6953 Q2444.8594,450.9531 2444.8594,451.5625 L2444.8594,453.0156 Q2444.8594,453.625 2444.625,453.8906 Q2444.3906,454.1563 2444.0156,454.1563 Q2443.6719,454.1563 2443.4688,453.9531 Q2443.2656,453.7656 2443.1563,453.25 Q2443.1094,452.8906 2442.9219,452.7031 Q2442.5938,452.3281 2441.9844,452.1094 Q2441.375,451.8906 2440.75,451.8906 Q2439.9844,451.8906 2439.3516,452.2188 Q2438.7188,452.5469 2438.2266,453.2969 Q2437.7344,454.0469 2437.7344,455.0781 L2437.7344,456.1719 Q2437.7344,457.4063 2438.625,458.2266 Q2439.5156,459.0469 2441.1094,459.0469 Q2442.0469,459.0469 2442.7031,458.7969 Q2443.0938,458.6406 2443.5156,458.2031 Q2443.7813,457.9375 2443.9297,457.8594 Q2444.0781,457.7813 2444.2813,457.7813 Q2444.6094,457.7813 2444.8672,458.0391 Q2445.125,458.2969 2445.125,458.6406 Q2445.125,458.9844 2444.7813,459.3906 Q2444.2813,459.9688 2443.4844,460.2969 Q2442.4063,460.75 2441.1094,460.75 Q2439.5938,460.75 2438.3906,460.125 Q2437.4063,459.625 2436.7188,458.5547 Q2436.0313,457.4844 2436.0313,456.2031 L2436.0313,455.0469 Q2436.0313,453.7188 2436.6484,452.5703 Q2437.2656,451.4219 2438.3594,450.8047 Q2439.4531,450.1875 2440.6875,450.1875 Q2441.4219,450.1875 2442.0703,450.3516 Q2442.7188,450.5156 2443.2656,450.875 Z " fill="#000000"/><text fill="#000000" font-family="sans-serif" font-size="14" lengthAdjust="spacing" textLength="147" x="2454.5" y="460.7285">PathTooLongException</text><line style="stroke:#181818;stroke-width:0.5;" x1="2426.5" x2="2603.5" y1="471" y2="471"/><line style="stroke:#181818;stroke-width:0.5;" x1="2426.5" x2="2603.5" y1="479" y2="479"/></g><!--class PipeException--><g id="elem_PipeException"><rect fill="#F1F1F1" height="48" id="PipeException" rx="2.5" ry="2.5" style="stroke:#181818;stroke-width:0.5;" width="121" x="2639.5" y="439"/><ellipse cx="2654.5" cy="455" fill="#ADD1B2" rx="11" ry="11" style="stroke:#181818;stroke-width:1.0;"/><path d="M2657.2656,450.875 Q2657.4219,450.6563 2657.6094,450.5469 Q2657.7969,450.4375 2658.0156,450.4375 Q2658.3906,450.4375 2658.625,450.6953 Q2658.8594,450.9531 2658.8594,451.5625 L2658.8594,453.0156 Q2658.8594,453.625 2658.625,453.8906 Q2658.3906,454.1563 2658.0156,454.1563 Q2657.6719,454.1563 2657.4688,453.9531 Q2657.2656,453.7656 2657.1563,453.25 Q2657.1094,452.8906 2656.9219,452.7031 Q2656.5938,452.3281 2655.9844,452.1094 Q2655.375,451.8906 2654.75,451.8906 Q2653.9844,451.8906 2653.3516,452.2188 Q2652.7188,452.5469 2652.2266,453.2969 Q2651.7344,454.0469 2651.7344,455.0781 L2651.7344,456.1719 Q2651.7344,457.4063 2652.625,458.2266 Q2653.5156,459.0469 2655.1094,459.0469 Q2656.0469,459.0469 2656.7031,458.7969 Q2657.0938,458.6406 2657.5156,458.2031 Q2657.7813,457.9375 2657.9297,457.8594 Q2658.0781,457.7813 2658.2813,457.7813 Q2658.6094,457.7813 2658.8672,458.0391 Q2659.125,458.2969 2659.125,458.6406 Q2659.125,458.9844 2658.7813,459.3906 Q2658.2813,459.9688 2657.4844,460.2969 Q2656.4063,460.75 2655.1094,460.75 Q2653.5938,460.75 2652.3906,460.125 Q2651.4063,459.625 2650.7188,458.5547 Q2650.0313,457.4844 2650.0313,456.2031 L2650.0313,455.0469 Q2650.0313,453.7188 2650.6484,452.5703 Q2651.2656,451.4219 2652.3594,450.8047 Q2653.4531,450.1875 2654.6875,450.1875 Q2655.4219,450.1875 2656.0703,450.3516 Q2656.7188,450.5156 2657.2656,450.875 Z " fill="#000000"/><text fill="#000000" font-family="sans-serif" font-size="14" lengthAdjust="spacing" textLength="89" x="2668.5" y="460.7285">PipeException</text><line style="stroke:#181818;stroke-width:0.5;" x1="2640.5" x2="2759.5" y1="471" y2="471"/><line style="stroke:#181818;stroke-width:0.5;" x1="2640.5" x2="2759.5" y1="479" y2="479"/></g><!--reverse link Object to Exception--><g id="link_Object_Exception"><path codeLine="2" d="M668,73 C668,90.66 668,96.94 668,114.68 " fill="none" id="Object-backto-Exception" style="stroke:#181818;stroke-width:1.0;"/><polygon fill="none" points="668,55,662,73,674,73,668,55" style="stroke:#181818;stroke-width:1.0;"/></g><!--reverse link Exception to SystemException--><g id="link_Exception_SystemException"><path codeLine="4" d="M668,181 C668,198.66 668,204.94 668,222.68 " fill="none" id="Exception-backto-SystemException" style="stroke:#181818;stroke-width:1.0;"/><polygon fill="none" points="668,163,662,181,674,181,668,163" style="stroke:#181818;stroke-width:1.0;"/></g><!--reverse link SystemException to IndexOutOfRangeException--><g id="link_SystemException_IndexOutOfRangeException"><path codeLine="6" d="M580.5129,264.5214 C494.0729,280.8514 360.01,306.22 230,331 C224.48,332.05 218.81,333.13 213.09,334.23 " fill="none" id="SystemException-backto-IndexOutOfRangeException" style="stroke:#181818;stroke-width:1.0;"/><polygon fill="none" points="598.2,261.18,579.3991,258.6257,581.6267,270.4171,598.2,261.18" style="stroke:#181818;stroke-width:1.0;"/></g><!--reverse link SystemException to NullReferenceException--><g id="link_SystemException_NullReferenceException"><path codeLine="7" d="M581.0977,276.0013 C525.9277,293.7813 466.32,312.98 410.66,330.91 " fill="none" id="SystemException-backto-NullReferenceException" style="stroke:#181818;stroke-width:1.0;"/><polygon fill="none" points="598.23,270.48,579.2573,270.2906,582.9382,281.7121,598.23,270.48" style="stroke:#181818;stroke-width:1.0;"/></g><!--reverse link SystemException to InvalidOperationException--><g id="link_SystemException_InvalidOperationException"><path codeLine="8" d="M632.5538,283.7893 C615.0638,301.4493 603.67,312.94 586.1,330.68 " fill="none" id="SystemException-backto-InvalidOperationException" style="stroke:#181818;stroke-width:1.0;"/><polygon fill="none" points="645.22,271,628.2907,279.5673,636.8169,288.0114,645.22,271" style="stroke:#181818;stroke-width:1.0;"/></g><!--reverse link SystemException to ArgumentException--><g id="link_SystemException_ArgumentException"><path codeLine="10" d="M703.4462,283.7893 C720.9362,301.4493 732.33,312.94 749.9,330.68 " fill="none" id="SystemException-backto-ArgumentException" style="stroke:#181818;stroke-width:1.0;"/><polygon fill="none" points="690.78,271,699.1831,288.0114,707.7093,279.5673,690.78,271" style="stroke:#181818;stroke-width:1.0;"/></g><!--reverse link ArgumentException to ArgumentNullException--><g id="link_ArgumentException_ArgumentNullException"><path codeLine="11" d="M698.5591,385.6643 C654.0991,403.3843 609.61,421.11 565.06,438.86 " fill="none" id="ArgumentException-backto-ArgumentNullException" style="stroke:#181818;stroke-width:1.0;"/><polygon fill="none" points="715.28,379,696.3377,380.0907,700.7806,391.2379,715.28,379" style="stroke:#181818;stroke-width:1.0;"/></g><!--reverse link ArgumentException to ArgumentOutOfRangeException--><g id="link_ArgumentException_ArgumentOutOfRangeException"><path codeLine="12" d="M763.4435,396.5183 C759.2735,414.1783 757.68,420.94 753.5,438.68 " fill="none" id="ArgumentException-backto-ArgumentOutOfRangeException" style="stroke:#181818;stroke-width:1.0;"/><polygon fill="none" points="767.58,379,757.6041,395.1394,769.2829,397.8971,767.58,379" style="stroke:#181818;stroke-width:1.0;"/></g><!--reverse link SystemException to ArithmeticException--><g id="link_SystemException_ArithmeticException"><path codeLine="14" d="M755.3716,269.439 C833.2216,288.539 941.25,315.05 1022.18,334.9 " fill="none" id="SystemException-backto-ArithmeticException" style="stroke:#181818;stroke-width:1.0;"/><polygon fill="none" points="737.89,265.15,753.9419,275.2662,756.8012,263.6118,737.89,265.15" style="stroke:#181818;stroke-width:1.0;"/></g><!--reverse link ArithmeticException to DivideByZeroException--><g id="link_ArithmeticException_DivideByZeroException"><path codeLine="15" d="M1062.8933,391.4324 C1044.4033,409.0924 1032,420.94 1013.42,438.68 " fill="none" id="ArithmeticException-backto-DivideByZeroException" style="stroke:#181818;stroke-width:1.0;"/><polygon fill="none" points="1075.91,379,1058.7491,387.0935,1067.0374,395.7713,1075.91,379" style="stroke:#181818;stroke-width:1.0;"/></g><!--reverse link ArithmeticException to NotFiniteNumberException--><g id="link_ArithmeticException_NotFiniteNumberException"><path codeLine="16" d="M1137.3734,391.3728 C1156.0334,409.0328 1168.62,420.94 1187.36,438.68 " fill="none" id="ArithmeticException-backto-NotFiniteNumberException" style="stroke:#181818;stroke-width:1.0;"/><polygon fill="none" points="1124.3,379,1133.2491,395.7306,1141.4977,387.015,1124.3,379" style="stroke:#181818;stroke-width:1.0;"/></g><!--reverse link ArithmeticException to OverflowException--><g id="link_ArithmeticException_OverflowException"><path codeLine="17" d="M1186.5268,384.6605 C1240.1068,402.4105 1296.81,421.19 1350.42,438.95 " fill="none" id="ArithmeticException-backto-OverflowException" style="stroke:#181818;stroke-width:1.0;"/><polygon fill="none" points="1169.44,379,1184.64,390.3561,1188.4136,378.9649,1169.44,379" style="stroke:#181818;stroke-width:1.0;"/></g><!--reverse link SystemException to IOException--><g id="link_SystemException_IOException"><path codeLine="19" d="M755.8801,254.5599 C1003.0401,273.0099 1814.35,333.57 2034.15,349.98 " fill="none" id="SystemException-backto-IOException" style="stroke:#181818;stroke-width:1.0;"/><polygon fill="none" points="737.93,253.22,755.4334,260.5433,756.3267,248.5766,737.93,253.22" style="stroke:#181818;stroke-width:1.0;"/></g><!--reverse link IOException to DirectoryNotFoundException--><g id="link_IOException_DirectoryNotFoundException"><path codeLine="20" d="M2016.7332,372.6802 C1942.7832,389.9802 1825.9,417.33 1733.61,438.93 " fill="none" id="IOException-backto-DirectoryNotFoundException" style="stroke:#181818;stroke-width:1.0;"/><polygon fill="none" points="2034.26,368.58,2015.3665,366.838,2018.1,378.5225,2034.26,368.58" style="stroke:#181818;stroke-width:1.0;"/></g><!--reverse link IOException to DriveNotFoundException--><g id="link_IOException_DriveNotFoundException"><path codeLine="21" d="M2024.5124,386.8717 C1988.0724,404.5917 1954.1,421.11 1917.59,438.86 " fill="none" id="IOException-backto-DriveNotFoundException" style="stroke:#181818;stroke-width:1.0;"/><polygon fill="none" points="2040.7,379,2021.8886,381.4758,2027.1363,392.2675,2040.7,379" style="stroke:#181818;stroke-width:1.0;"/></g><!--reverse link IOException to EndOfStreamException--><g id="link_IOException_EndOfStreamException"><path codeLine="22" d="M2088,397 C2088,414.66 2088,420.94 2088,438.68 " fill="none" id="IOException-backto-EndOfStreamException" style="stroke:#181818;stroke-width:1.0;"/><polygon fill="none" points="2088,379,2082,397,2094,397,2088,379" style="stroke:#181818;stroke-width:1.0;"/></g><!--reverse link IOException to FileNotFoundException--><g id="link_IOException_FileNotFoundException"><path codeLine="23" d="M2150.3341,387.0209 C2185.9341,404.7409 2218.83,421.11 2254.51,438.86 " fill="none" id="IOException-backto-FileNotFoundException" style="stroke:#181818;stroke-width:1.0;"/><polygon fill="none" points="2134.22,379,2147.6605,392.3922,2153.0078,381.6495,2134.22,379" style="stroke:#181818;stroke-width:1.0;"/></g><!--reverse link IOException to PathTooLongException--><g id="link_IOException_PathTooLongException"><path codeLine="24" d="M2159.1199,373.6562 C2230.3499,391.3362 2339.65,418.47 2425.49,439.78 " fill="none" id="IOException-backto-PathTooLongException" style="stroke:#181818;stroke-width:1.0;"/><polygon fill="none" points="2141.65,369.32,2157.6745,379.4795,2160.5653,367.8329,2141.65,369.32" style="stroke:#181818;stroke-width:1.0;"/></g><!--reverse link IOException to PipeException--><g id="link_IOException_PipeException"><path codeLine="25" d="M2159.7593,364.061 C2256.5893,375.331 2448.28,400.07 2622,439 C2627.65,440.27 2633.49,441.72 2639.31,443.26 " fill="none" id="IOException-backto-PipeException" style="stroke:#181818;stroke-width:1.0;"/><polygon fill="none" points="2141.88,361.98,2159.0657,370.0207,2160.453,358.1012,2141.88,361.98" style="stroke:#181818;stroke-width:1.0;"/></g><!--SRC=[ZTB1Ri8m303GEr_13_07N9W64X9g9k34BJHkyPJObN4AbVRnMrLjxGPhSxFi5yUHOyxlaEjy-R5OpDVt72f5fjdi9-mgX-Qg40RrFubERSd1tKGrnTvI2Jr_ghFe_HuA4A1yocwfjXwTgK1icvsQP2Lb343QkuVCRzWEauoVFV6_EL0l0HJpOVE7N8TViKO7Byq9X1Dunhf1GeKiXZD8mWbJWnIURvDxDBqOnDzJojU7OMdQ-pcI6xE2DIIuDJbJ75J0XX6rGP_IxCtgvSYyOoh755Q3xNq2]--></g></svg>