<?xml version="1.0" encoding="UTF-8" standalone="no"?><svg xmlns="http://www.w3.org/2000/svg" xmlns:xlink="http://www.w3.org/1999/xlink" contentScriptType="application/ecmascript" contentStyleType="text/css" height="499px" preserveAspectRatio="none" style="width:2590px;height:499px;" version="1.1" viewBox="0 0 2590 499" width="2590px" zoomAndPan="magnify"><defs><filter height="300%" id="f1jxgp5e0aok7a" width="300%" x="-1" y="-1"><feGaussianBlur result="blurOut" stdDeviation="2.0"/><feColorMatrix in="blurOut" result="blurOut2" type="matrix" values="0 0 0 0 0 0 0 0 0 0 0 0 0 0 0 0 0 0 .4 0"/><feOffset dx="4.0" dy="4.0" in="blurOut2" result="blurOut3"/><feBlend in="SourceGraphic" in2="blurOut3" mode="normal"/></filter></defs><g><!--MD5=[aa7f586532e18719e6cefa70fc650583]
class Object--><rect fill="#FEFECE" filter="url(#f1jxgp5e0aok7a)" height="48" id="Object" style="stroke: #A80036; stroke-width: 1.5;" width="70" x="588.5" y="8"/><ellipse cx="603.5" cy="24" fill="#ADD1B2" rx="11" ry="11" style="stroke: #A80036; stroke-width: 1.0;"/><path d="M605.9731,30.1431 Q605.3921,30.4419 604.7529,30.5913 Q604.1138,30.7407 603.4082,30.7407 Q600.9014,30.7407 599.5815,29.0889 Q598.2617,27.437 598.2617,24.3159 Q598.2617,21.1865 599.5815,19.5347 Q600.9014,17.8828 603.4082,17.8828 Q604.1138,17.8828 604.7612,18.0322 Q605.4087,18.1816 605.9731,18.4805 L605.9731,21.2031 Q605.3423,20.6221 604.7488,20.3523 Q604.1553,20.0825 603.5244,20.0825 Q602.1797,20.0825 601.4949,21.1492 Q600.8101,22.2158 600.8101,24.3159 Q600.8101,26.4077 601.4949,27.4744 Q602.1797,28.541 603.5244,28.541 Q604.1553,28.541 604.7488,28.2712 Q605.3423,28.0015 605.9731,27.4204 Z "/><text fill="#000000" font-family="sans-serif" font-size="12" lengthAdjust="spacingAndGlyphs" textLength="38" x="617.5" y="28.5352">Object</text><line style="stroke: #A80036; stroke-width: 1.5;" x1="589.5" x2="657.5" y1="40" y2="40"/><line style="stroke: #A80036; stroke-width: 1.5;" x1="589.5" x2="657.5" y1="48" y2="48"/><!--MD5=[8db60afef7a3447bbe27c5ed187fdac2]
class Exception--><rect fill="#FEFECE" filter="url(#f1jxgp5e0aok7a)" height="48" id="Exception" style="stroke: #A80036; stroke-width: 1.5;" width="88" x="579.5" y="116"/><ellipse cx="594.5" cy="132" fill="#ADD1B2" rx="11" ry="11" style="stroke: #A80036; stroke-width: 1.0;"/><path d="M596.9731,138.1431 Q596.3921,138.4419 595.7529,138.5913 Q595.1138,138.7407 594.4082,138.7407 Q591.9014,138.7407 590.5815,137.0889 Q589.2617,135.437 589.2617,132.3159 Q589.2617,129.1865 590.5815,127.5347 Q591.9014,125.8828 594.4082,125.8828 Q595.1138,125.8828 595.7612,126.0322 Q596.4087,126.1816 596.9731,126.4805 L596.9731,129.2031 Q596.3423,128.6221 595.7488,128.3523 Q595.1553,128.0825 594.5244,128.0825 Q593.1797,128.0825 592.4949,129.1492 Q591.8101,130.2158 591.8101,132.3159 Q591.8101,134.4077 592.4949,135.4744 Q593.1797,136.541 594.5244,136.541 Q595.1553,136.541 595.7488,136.2712 Q596.3423,136.0015 596.9731,135.4204 Z "/><text fill="#000000" font-family="sans-serif" font-size="12" lengthAdjust="spacingAndGlyphs" textLength="56" x="608.5" y="136.5352">Exception</text><line style="stroke: #A80036; stroke-width: 1.5;" x1="580.5" x2="666.5" y1="148" y2="148"/><line style="stroke: #A80036; stroke-width: 1.5;" x1="580.5" x2="666.5" y1="156" y2="156"/><!--MD5=[66422815084ba23d8870f01e7424f1b1]
class SystemException--><rect fill="#FEFECE" filter="url(#f1jxgp5e0aok7a)" height="48" id="SystemException" style="stroke: #A80036; stroke-width: 1.5;" width="128" x="559.5" y="224"/><ellipse cx="574.5" cy="240" fill="#ADD1B2" rx="11" ry="11" style="stroke: #A80036; stroke-width: 1.0;"/><path d="M576.9731,246.1431 Q576.3921,246.4419 575.7529,246.5913 Q575.1138,246.7407 574.4082,246.7407 Q571.9014,246.7407 570.5815,245.0889 Q569.2617,243.437 569.2617,240.3159 Q569.2617,237.1865 570.5815,235.5347 Q571.9014,233.8828 574.4082,233.8828 Q575.1138,233.8828 575.7612,234.0322 Q576.4087,234.1816 576.9731,234.4805 L576.9731,237.2031 Q576.3423,236.6221 575.7488,236.3523 Q575.1553,236.0825 574.5244,236.0825 Q573.1797,236.0825 572.4949,237.1492 Q571.8101,238.2158 571.8101,240.3159 Q571.8101,242.4077 572.4949,243.4744 Q573.1797,244.541 574.5244,244.541 Q575.1553,244.541 575.7488,244.2712 Q576.3423,244.0015 576.9731,243.4204 Z "/><text fill="#000000" font-family="sans-serif" font-size="12" lengthAdjust="spacingAndGlyphs" textLength="96" x="588.5" y="244.5352">SystemException</text><line style="stroke: #A80036; stroke-width: 1.5;" x1="560.5" x2="686.5" y1="256" y2="256"/><line style="stroke: #A80036; stroke-width: 1.5;" x1="560.5" x2="686.5" y1="264" y2="264"/><!--MD5=[f37177450992998d1423298c0cf8ccd7]
class IndexOutOfRangeException--><rect fill="#FEFECE" filter="url(#f1jxgp5e0aok7a)" height="48" id="IndexOutOfRangeException" style="stroke: #A80036; stroke-width: 1.5;" width="189" x="6" y="332"/><ellipse cx="21" cy="348" fill="#ADD1B2" rx="11" ry="11" style="stroke: #A80036; stroke-width: 1.0;"/><path d="M23.4731,354.1431 Q22.8921,354.4419 22.2529,354.5913 Q21.6138,354.7407 20.9082,354.7407 Q18.4014,354.7407 17.0815,353.0889 Q15.7617,351.437 15.7617,348.3159 Q15.7617,345.1865 17.0815,343.5347 Q18.4014,341.8828 20.9082,341.8828 Q21.6138,341.8828 22.2612,342.0322 Q22.9087,342.1816 23.4731,342.4805 L23.4731,345.2031 Q22.8423,344.6221 22.2488,344.3523 Q21.6553,344.0825 21.0244,344.0825 Q19.6797,344.0825 18.9949,345.1492 Q18.3101,346.2158 18.3101,348.3159 Q18.3101,350.4077 18.9949,351.4744 Q19.6797,352.541 21.0244,352.541 Q21.6553,352.541 22.2488,352.2712 Q22.8423,352.0015 23.4731,351.4204 Z "/><text fill="#000000" font-family="sans-serif" font-size="12" lengthAdjust="spacingAndGlyphs" textLength="157" x="35" y="352.5352">IndexOutOfRangeException</text><line style="stroke: #A80036; stroke-width: 1.5;" x1="7" x2="194" y1="364" y2="364"/><line style="stroke: #A80036; stroke-width: 1.5;" x1="7" x2="194" y1="372" y2="372"/><!--MD5=[5122ea168f8bb6a33869bf3b65a140b8]
class NullReferenceException--><rect fill="#FEFECE" filter="url(#f1jxgp5e0aok7a)" height="48" id="NullReferenceException" style="stroke: #A80036; stroke-width: 1.5;" width="168" x="230.5" y="332"/><ellipse cx="245.5" cy="348" fill="#ADD1B2" rx="11" ry="11" style="stroke: #A80036; stroke-width: 1.0;"/><path d="M247.9731,354.1431 Q247.3921,354.4419 246.7529,354.5913 Q246.1138,354.7407 245.4082,354.7407 Q242.9014,354.7407 241.5815,353.0889 Q240.2617,351.437 240.2617,348.3159 Q240.2617,345.1865 241.5815,343.5347 Q242.9014,341.8828 245.4082,341.8828 Q246.1138,341.8828 246.7612,342.0322 Q247.4087,342.1816 247.9731,342.4805 L247.9731,345.2031 Q247.3423,344.6221 246.7488,344.3523 Q246.1553,344.0825 245.5244,344.0825 Q244.1797,344.0825 243.4949,345.1492 Q242.8101,346.2158 242.8101,348.3159 Q242.8101,350.4077 243.4949,351.4744 Q244.1797,352.541 245.5244,352.541 Q246.1553,352.541 246.7488,352.2712 Q247.3423,352.0015 247.9731,351.4204 Z "/><text fill="#000000" font-family="sans-serif" font-size="12" lengthAdjust="spacingAndGlyphs" textLength="136" x="259.5" y="352.5352">NullReferenceException</text><line style="stroke: #A80036; stroke-width: 1.5;" x1="231.5" x2="397.5" y1="364" y2="364"/><line style="stroke: #A80036; stroke-width: 1.5;" x1="231.5" x2="397.5" y1="372" y2="372"/><!--MD5=[e85ab6a3f2258eff06ede6ec8714b2e3]
class InvalidOperationException--><rect fill="#FEFECE" filter="url(#f1jxgp5e0aok7a)" height="48" id="InvalidOperationException" style="stroke: #A80036; stroke-width: 1.5;" width="182" x="433.5" y="332"/><ellipse cx="448.5" cy="348" fill="#ADD1B2" rx="11" ry="11" style="stroke: #A80036; stroke-width: 1.0;"/><path d="M450.9731,354.1431 Q450.3921,354.4419 449.7529,354.5913 Q449.1138,354.7407 448.4082,354.7407 Q445.9014,354.7407 444.5815,353.0889 Q443.2617,351.437 443.2617,348.3159 Q443.2617,345.1865 444.5815,343.5347 Q445.9014,341.8828 448.4082,341.8828 Q449.1138,341.8828 449.7612,342.0322 Q450.4087,342.1816 450.9731,342.4805 L450.9731,345.2031 Q450.3423,344.6221 449.7488,344.3523 Q449.1553,344.0825 448.5244,344.0825 Q447.1797,344.0825 446.4949,345.1492 Q445.8101,346.2158 445.8101,348.3159 Q445.8101,350.4077 446.4949,351.4744 Q447.1797,352.541 448.5244,352.541 Q449.1553,352.541 449.7488,352.2712 Q450.3423,352.0015 450.9731,351.4204 Z "/><text fill="#000000" font-family="sans-serif" font-size="12" lengthAdjust="spacingAndGlyphs" textLength="150" x="462.5" y="352.5352">InvalidOperationException</text><line style="stroke: #A80036; stroke-width: 1.5;" x1="434.5" x2="614.5" y1="364" y2="364"/><line style="stroke: #A80036; stroke-width: 1.5;" x1="434.5" x2="614.5" y1="372" y2="372"/><!--MD5=[3f8f3a60cf04f4acd30b0a7952307371]
class ArgumentException--><rect fill="#FEFECE" filter="url(#f1jxgp5e0aok7a)" height="48" id="ArgumentException" style="stroke: #A80036; stroke-width: 1.5;" width="144" x="650.5" y="332"/><ellipse cx="665.5" cy="348" fill="#ADD1B2" rx="11" ry="11" style="stroke: #A80036; stroke-width: 1.0;"/><path d="M667.9731,354.1431 Q667.3921,354.4419 666.7529,354.5913 Q666.1138,354.7407 665.4082,354.7407 Q662.9014,354.7407 661.5815,353.0889 Q660.2617,351.437 660.2617,348.3159 Q660.2617,345.1865 661.5815,343.5347 Q662.9014,341.8828 665.4082,341.8828 Q666.1138,341.8828 666.7612,342.0322 Q667.4087,342.1816 667.9731,342.4805 L667.9731,345.2031 Q667.3423,344.6221 666.7488,344.3523 Q666.1553,344.0825 665.5244,344.0825 Q664.1797,344.0825 663.4949,345.1492 Q662.8101,346.2158 662.8101,348.3159 Q662.8101,350.4077 663.4949,351.4744 Q664.1797,352.541 665.5244,352.541 Q666.1553,352.541 666.7488,352.2712 Q667.3423,352.0015 667.9731,351.4204 Z "/><text fill="#000000" font-family="sans-serif" font-size="12" lengthAdjust="spacingAndGlyphs" textLength="112" x="679.5" y="352.5352">ArgumentException</text><line style="stroke: #A80036; stroke-width: 1.5;" x1="651.5" x2="793.5" y1="364" y2="364"/><line style="stroke: #A80036; stroke-width: 1.5;" x1="651.5" x2="793.5" y1="372" y2="372"/><!--MD5=[9d83c74ec39fdb51f163d2e734baecf3]
class ArgumentNullException--><rect fill="#FEFECE" filter="url(#f1jxgp5e0aok7a)" height="48" id="ArgumentNullException" style="stroke: #A80036; stroke-width: 1.5;" width="166" x="393.5" y="440"/><ellipse cx="408.5" cy="456" fill="#ADD1B2" rx="11" ry="11" style="stroke: #A80036; stroke-width: 1.0;"/><path d="M410.9731,462.1431 Q410.3921,462.4419 409.7529,462.5913 Q409.1138,462.7407 408.4082,462.7407 Q405.9014,462.7407 404.5815,461.0889 Q403.2617,459.437 403.2617,456.3159 Q403.2617,453.1865 404.5815,451.5347 Q405.9014,449.8828 408.4082,449.8828 Q409.1138,449.8828 409.7612,450.0322 Q410.4087,450.1816 410.9731,450.4805 L410.9731,453.2031 Q410.3423,452.6221 409.7488,452.3523 Q409.1553,452.0825 408.5244,452.0825 Q407.1797,452.0825 406.4949,453.1492 Q405.8101,454.2158 405.8101,456.3159 Q405.8101,458.4077 406.4949,459.4744 Q407.1797,460.541 408.5244,460.541 Q409.1553,460.541 409.7488,460.2712 Q410.3423,460.0015 410.9731,459.4204 Z "/><text fill="#000000" font-family="sans-serif" font-size="12" lengthAdjust="spacingAndGlyphs" textLength="134" x="422.5" y="460.5352">ArgumentNullException</text><line style="stroke: #A80036; stroke-width: 1.5;" x1="394.5" x2="558.5" y1="472" y2="472"/><line style="stroke: #A80036; stroke-width: 1.5;" x1="394.5" x2="558.5" y1="480" y2="480"/><!--MD5=[c5ebf42a2f0654b7dd1ef3a16500170d]
class ArgumentOutOfRangeException--><rect fill="#FEFECE" filter="url(#f1jxgp5e0aok7a)" height="48" id="ArgumentOutOfRangeException" style="stroke: #A80036; stroke-width: 1.5;" width="213" x="595" y="440"/><ellipse cx="610" cy="456" fill="#ADD1B2" rx="11" ry="11" style="stroke: #A80036; stroke-width: 1.0;"/><path d="M612.4731,462.1431 Q611.8921,462.4419 611.2529,462.5913 Q610.6138,462.7407 609.9082,462.7407 Q607.4014,462.7407 606.0815,461.0889 Q604.7617,459.437 604.7617,456.3159 Q604.7617,453.1865 606.0815,451.5347 Q607.4014,449.8828 609.9082,449.8828 Q610.6138,449.8828 611.2612,450.0322 Q611.9087,450.1816 612.4731,450.4805 L612.4731,453.2031 Q611.8423,452.6221 611.2488,452.3523 Q610.6553,452.0825 610.0244,452.0825 Q608.6797,452.0825 607.9949,453.1492 Q607.3101,454.2158 607.3101,456.3159 Q607.3101,458.4077 607.9949,459.4744 Q608.6797,460.541 610.0244,460.541 Q610.6553,460.541 611.2488,460.2712 Q611.8423,460.0015 612.4731,459.4204 Z "/><text fill="#000000" font-family="sans-serif" font-size="12" lengthAdjust="spacingAndGlyphs" textLength="181" x="624" y="460.5352">ArgumentOutOfRangeException</text><line style="stroke: #A80036; stroke-width: 1.5;" x1="596" x2="807" y1="472" y2="472"/><line style="stroke: #A80036; stroke-width: 1.5;" x1="596" x2="807" y1="480" y2="480"/><!--MD5=[c592f3252b7084a8ff6d06757de85840]
class ArithmeticException--><rect fill="#FEFECE" filter="url(#f1jxgp5e0aok7a)" height="48" id="ArithmeticException" style="stroke: #A80036; stroke-width: 1.5;" width="146" x="955.5" y="332"/><ellipse cx="970.5" cy="348" fill="#ADD1B2" rx="11" ry="11" style="stroke: #A80036; stroke-width: 1.0;"/><path d="M972.9731,354.1431 Q972.3921,354.4419 971.7529,354.5913 Q971.1138,354.7407 970.4082,354.7407 Q967.9014,354.7407 966.5815,353.0889 Q965.2617,351.437 965.2617,348.3159 Q965.2617,345.1865 966.5815,343.5347 Q967.9014,341.8828 970.4082,341.8828 Q971.1138,341.8828 971.7612,342.0322 Q972.4087,342.1816 972.9731,342.4805 L972.9731,345.2031 Q972.3423,344.6221 971.7488,344.3523 Q971.1553,344.0825 970.5244,344.0825 Q969.1797,344.0825 968.4949,345.1492 Q967.8101,346.2158 967.8101,348.3159 Q967.8101,350.4077 968.4949,351.4744 Q969.1797,352.541 970.5244,352.541 Q971.1553,352.541 971.7488,352.2712 Q972.3423,352.0015 972.9731,351.4204 Z "/><text fill="#000000" font-family="sans-serif" font-size="12" lengthAdjust="spacingAndGlyphs" textLength="114" x="984.5" y="352.5352">ArithmeticException</text><line style="stroke: #A80036; stroke-width: 1.5;" x1="956.5" x2="1100.5" y1="364" y2="364"/><line style="stroke: #A80036; stroke-width: 1.5;" x1="956.5" x2="1100.5" y1="372" y2="372"/><!--MD5=[40e7767338c39f6bef1e1d60444f7a6a]
class DivideByZeroException--><rect fill="#FEFECE" filter="url(#f1jxgp5e0aok7a)" height="48" id="DivideByZeroException" style="stroke: #A80036; stroke-width: 1.5;" width="163" x="843" y="440"/><ellipse cx="858" cy="456" fill="#ADD1B2" rx="11" ry="11" style="stroke: #A80036; stroke-width: 1.0;"/><path d="M860.4731,462.1431 Q859.8921,462.4419 859.2529,462.5913 Q858.6138,462.7407 857.9082,462.7407 Q855.4014,462.7407 854.0815,461.0889 Q852.7617,459.437 852.7617,456.3159 Q852.7617,453.1865 854.0815,451.5347 Q855.4014,449.8828 857.9082,449.8828 Q858.6138,449.8828 859.2612,450.0322 Q859.9087,450.1816 860.4731,450.4805 L860.4731,453.2031 Q859.8423,452.6221 859.2488,452.3523 Q858.6553,452.0825 858.0244,452.0825 Q856.6797,452.0825 855.9949,453.1492 Q855.3101,454.2158 855.3101,456.3159 Q855.3101,458.4077 855.9949,459.4744 Q856.6797,460.541 858.0244,460.541 Q858.6553,460.541 859.2488,460.2712 Q859.8423,460.0015 860.4731,459.4204 Z "/><text fill="#000000" font-family="sans-serif" font-size="12" lengthAdjust="spacingAndGlyphs" textLength="131" x="872" y="460.5352">DivideByZeroException</text><line style="stroke: #A80036; stroke-width: 1.5;" x1="844" x2="1005" y1="472" y2="472"/><line style="stroke: #A80036; stroke-width: 1.5;" x1="844" x2="1005" y1="480" y2="480"/><!--MD5=[8c6f5b07b996091597d21986e648eff6]
class NotFiniteNumberException--><rect fill="#FEFECE" filter="url(#f1jxgp5e0aok7a)" height="48" id="NotFiniteNumberException" style="stroke: #A80036; stroke-width: 1.5;" width="185" x="1041" y="440"/><ellipse cx="1056" cy="456" fill="#ADD1B2" rx="11" ry="11" style="stroke: #A80036; stroke-width: 1.0;"/><path d="M1058.4731,462.1431 Q1057.8921,462.4419 1057.2529,462.5913 Q1056.6138,462.7407 1055.9082,462.7407 Q1053.4014,462.7407 1052.0815,461.0889 Q1050.7617,459.437 1050.7617,456.3159 Q1050.7617,453.1865 1052.0815,451.5347 Q1053.4014,449.8828 1055.9082,449.8828 Q1056.6138,449.8828 1057.2612,450.0322 Q1057.9087,450.1816 1058.4731,450.4805 L1058.4731,453.2031 Q1057.8423,452.6221 1057.2488,452.3523 Q1056.6553,452.0825 1056.0244,452.0825 Q1054.6797,452.0825 1053.9949,453.1492 Q1053.3101,454.2158 1053.3101,456.3159 Q1053.3101,458.4077 1053.9949,459.4744 Q1054.6797,460.541 1056.0244,460.541 Q1056.6553,460.541 1057.2488,460.2712 Q1057.8423,460.0015 1058.4731,459.4204 Z "/><text fill="#000000" font-family="sans-serif" font-size="12" lengthAdjust="spacingAndGlyphs" textLength="153" x="1070" y="460.5352">NotFiniteNumberException</text><line style="stroke: #A80036; stroke-width: 1.5;" x1="1042" x2="1225" y1="472" y2="472"/><line style="stroke: #A80036; stroke-width: 1.5;" x1="1042" x2="1225" y1="480" y2="480"/><!--MD5=[8374a75df9c8376e97d3d53976b6da06]
class OverflowException--><rect fill="#FEFECE" filter="url(#f1jxgp5e0aok7a)" height="48" id="OverflowException" style="stroke: #A80036; stroke-width: 1.5;" width="138" x="1261.5" y="440"/><ellipse cx="1276.5" cy="456" fill="#ADD1B2" rx="11" ry="11" style="stroke: #A80036; stroke-width: 1.0;"/><path d="M1278.9731,462.1431 Q1278.3921,462.4419 1277.7529,462.5913 Q1277.1138,462.7407 1276.4082,462.7407 Q1273.9014,462.7407 1272.5815,461.0889 Q1271.2617,459.437 1271.2617,456.3159 Q1271.2617,453.1865 1272.5815,451.5347 Q1273.9014,449.8828 1276.4082,449.8828 Q1277.1138,449.8828 1277.7612,450.0322 Q1278.4087,450.1816 1278.9731,450.4805 L1278.9731,453.2031 Q1278.3423,452.6221 1277.7488,452.3523 Q1277.1553,452.0825 1276.5244,452.0825 Q1275.1797,452.0825 1274.4949,453.1492 Q1273.8101,454.2158 1273.8101,456.3159 Q1273.8101,458.4077 1274.4949,459.4744 Q1275.1797,460.541 1276.5244,460.541 Q1277.1553,460.541 1277.7488,460.2712 Q1278.3423,460.0015 1278.9731,459.4204 Z "/><text fill="#000000" font-family="sans-serif" font-size="12" lengthAdjust="spacingAndGlyphs" textLength="106" x="1290.5" y="460.5352">OverflowException</text><line style="stroke: #A80036; stroke-width: 1.5;" x1="1262.5" x2="1398.5" y1="472" y2="472"/><line style="stroke: #A80036; stroke-width: 1.5;" x1="1262.5" x2="1398.5" y1="480" y2="480"/><!--MD5=[1ece49953b1ba24a21a2daf00b0b04f7]
class IOException--><rect fill="#FEFECE" filter="url(#f1jxgp5e0aok7a)" height="48" id="IOException" style="stroke: #A80036; stroke-width: 1.5;" width="100" x="1904.5" y="332"/><ellipse cx="1919.5" cy="348" fill="#ADD1B2" rx="11" ry="11" style="stroke: #A80036; stroke-width: 1.0;"/><path d="M1921.9731,354.1431 Q1921.3921,354.4419 1920.7529,354.5913 Q1920.1138,354.7407 1919.4082,354.7407 Q1916.9014,354.7407 1915.5815,353.0889 Q1914.2617,351.437 1914.2617,348.3159 Q1914.2617,345.1865 1915.5815,343.5347 Q1916.9014,341.8828 1919.4082,341.8828 Q1920.1138,341.8828 1920.7612,342.0322 Q1921.4087,342.1816 1921.9731,342.4805 L1921.9731,345.2031 Q1921.3423,344.6221 1920.7488,344.3523 Q1920.1553,344.0825 1919.5244,344.0825 Q1918.1797,344.0825 1917.4949,345.1492 Q1916.8101,346.2158 1916.8101,348.3159 Q1916.8101,350.4077 1917.4949,351.4744 Q1918.1797,352.541 1919.5244,352.541 Q1920.1553,352.541 1920.7488,352.2712 Q1921.3423,352.0015 1921.9731,351.4204 Z "/><text fill="#000000" font-family="sans-serif" font-size="12" lengthAdjust="spacingAndGlyphs" textLength="68" x="1933.5" y="352.5352">IOException</text><line style="stroke: #A80036; stroke-width: 1.5;" x1="1905.5" x2="2003.5" y1="364" y2="364"/><line style="stroke: #A80036; stroke-width: 1.5;" x1="1905.5" x2="2003.5" y1="372" y2="372"/><!--MD5=[484984c078a0f5e2a0f84271d32a9c82]
class DirectoryNotFoundException--><rect fill="#FEFECE" filter="url(#f1jxgp5e0aok7a)" height="48" id="DirectoryNotFoundException" style="stroke: #A80036; stroke-width: 1.5;" width="195" x="1435" y="440"/><ellipse cx="1450" cy="456" fill="#ADD1B2" rx="11" ry="11" style="stroke: #A80036; stroke-width: 1.0;"/><path d="M1452.4731,462.1431 Q1451.8921,462.4419 1451.2529,462.5913 Q1450.6138,462.7407 1449.9082,462.7407 Q1447.4014,462.7407 1446.0815,461.0889 Q1444.7617,459.437 1444.7617,456.3159 Q1444.7617,453.1865 1446.0815,451.5347 Q1447.4014,449.8828 1449.9082,449.8828 Q1450.6138,449.8828 1451.2612,450.0322 Q1451.9087,450.1816 1452.4731,450.4805 L1452.4731,453.2031 Q1451.8423,452.6221 1451.2488,452.3523 Q1450.6553,452.0825 1450.0244,452.0825 Q1448.6797,452.0825 1447.9949,453.1492 Q1447.3101,454.2158 1447.3101,456.3159 Q1447.3101,458.4077 1447.9949,459.4744 Q1448.6797,460.541 1450.0244,460.541 Q1450.6553,460.541 1451.2488,460.2712 Q1451.8423,460.0015 1452.4731,459.4204 Z "/><text fill="#000000" font-family="sans-serif" font-size="12" lengthAdjust="spacingAndGlyphs" textLength="163" x="1464" y="460.5352">DirectoryNotFoundException</text><line style="stroke: #A80036; stroke-width: 1.5;" x1="1436" x2="1629" y1="472" y2="472"/><line style="stroke: #A80036; stroke-width: 1.5;" x1="1436" x2="1629" y1="480" y2="480"/><!--MD5=[615ed7eb771f956635c166f9b5da26c4]
class DriveNotFoundException--><rect fill="#FEFECE" filter="url(#f1jxgp5e0aok7a)" height="48" id="DriveNotFoundException" style="stroke: #A80036; stroke-width: 1.5;" width="173" x="1665" y="440"/><ellipse cx="1680" cy="456" fill="#ADD1B2" rx="11" ry="11" style="stroke: #A80036; stroke-width: 1.0;"/><path d="M1682.4731,462.1431 Q1681.8921,462.4419 1681.2529,462.5913 Q1680.6138,462.7407 1679.9082,462.7407 Q1677.4014,462.7407 1676.0815,461.0889 Q1674.7617,459.437 1674.7617,456.3159 Q1674.7617,453.1865 1676.0815,451.5347 Q1677.4014,449.8828 1679.9082,449.8828 Q1680.6138,449.8828 1681.2612,450.0322 Q1681.9087,450.1816 1682.4731,450.4805 L1682.4731,453.2031 Q1681.8423,452.6221 1681.2488,452.3523 Q1680.6553,452.0825 1680.0244,452.0825 Q1678.6797,452.0825 1677.9949,453.1492 Q1677.3101,454.2158 1677.3101,456.3159 Q1677.3101,458.4077 1677.9949,459.4744 Q1678.6797,460.541 1680.0244,460.541 Q1680.6553,460.541 1681.2488,460.2712 Q1681.8423,460.0015 1682.4731,459.4204 Z "/><text fill="#000000" font-family="sans-serif" font-size="12" lengthAdjust="spacingAndGlyphs" textLength="141" x="1694" y="460.5352">DriveNotFoundException</text><line style="stroke: #A80036; stroke-width: 1.5;" x1="1666" x2="1837" y1="472" y2="472"/><line style="stroke: #A80036; stroke-width: 1.5;" x1="1666" x2="1837" y1="480" y2="480"/><!--MD5=[0df6e1a6a6168341f201fcc0f95da47c]
class EndOfStreamException--><rect fill="#FEFECE" filter="url(#f1jxgp5e0aok7a)" height="48" id="EndOfStreamException" style="stroke: #A80036; stroke-width: 1.5;" width="163" x="1873" y="440"/><ellipse cx="1888" cy="456" fill="#ADD1B2" rx="11" ry="11" style="stroke: #A80036; stroke-width: 1.0;"/><path d="M1890.4731,462.1431 Q1889.8921,462.4419 1889.2529,462.5913 Q1888.6138,462.7407 1887.9082,462.7407 Q1885.4014,462.7407 1884.0815,461.0889 Q1882.7617,459.437 1882.7617,456.3159 Q1882.7617,453.1865 1884.0815,451.5347 Q1885.4014,449.8828 1887.9082,449.8828 Q1888.6138,449.8828 1889.2612,450.0322 Q1889.9087,450.1816 1890.4731,450.4805 L1890.4731,453.2031 Q1889.8423,452.6221 1889.2488,452.3523 Q1888.6553,452.0825 1888.0244,452.0825 Q1886.6797,452.0825 1885.9949,453.1492 Q1885.3101,454.2158 1885.3101,456.3159 Q1885.3101,458.4077 1885.9949,459.4744 Q1886.6797,460.541 1888.0244,460.541 Q1888.6553,460.541 1889.2488,460.2712 Q1889.8423,460.0015 1890.4731,459.4204 Z "/><text fill="#000000" font-family="sans-serif" font-size="12" lengthAdjust="spacingAndGlyphs" textLength="131" x="1902" y="460.5352">EndOfStreamException</text><line style="stroke: #A80036; stroke-width: 1.5;" x1="1874" x2="2035" y1="472" y2="472"/><line style="stroke: #A80036; stroke-width: 1.5;" x1="1874" x2="2035" y1="480" y2="480"/><!--MD5=[32cffa8fe315238a8dce9a3f94346e1a]
class FileNotFoundException--><rect fill="#FEFECE" filter="url(#f1jxgp5e0aok7a)" height="48" id="FileNotFoundException" style="stroke: #A80036; stroke-width: 1.5;" width="162" x="2071.5" y="440"/><ellipse cx="2086.5" cy="456" fill="#ADD1B2" rx="11" ry="11" style="stroke: #A80036; stroke-width: 1.0;"/><path d="M2088.9731,462.1431 Q2088.3921,462.4419 2087.7529,462.5913 Q2087.1138,462.7407 2086.4082,462.7407 Q2083.9014,462.7407 2082.5815,461.0889 Q2081.2617,459.437 2081.2617,456.3159 Q2081.2617,453.1865 2082.5815,451.5347 Q2083.9014,449.8828 2086.4082,449.8828 Q2087.1138,449.8828 2087.7612,450.0322 Q2088.4087,450.1816 2088.9731,450.4805 L2088.9731,453.2031 Q2088.3423,452.6221 2087.7488,452.3523 Q2087.1553,452.0825 2086.5244,452.0825 Q2085.1797,452.0825 2084.4949,453.1492 Q2083.8101,454.2158 2083.8101,456.3159 Q2083.8101,458.4077 2084.4949,459.4744 Q2085.1797,460.541 2086.5244,460.541 Q2087.1553,460.541 2087.7488,460.2712 Q2088.3423,460.0015 2088.9731,459.4204 Z "/><text fill="#000000" font-family="sans-serif" font-size="12" lengthAdjust="spacingAndGlyphs" textLength="130" x="2100.5" y="460.5352">FileNotFoundException</text><line style="stroke: #A80036; stroke-width: 1.5;" x1="2072.5" x2="2232.5" y1="472" y2="472"/><line style="stroke: #A80036; stroke-width: 1.5;" x1="2072.5" x2="2232.5" y1="480" y2="480"/><!--MD5=[0b31f646aa674464acd4851da7719df9]
class PathTooLongException--><rect fill="#FEFECE" filter="url(#f1jxgp5e0aok7a)" height="48" id="PathTooLongException" style="stroke: #A80036; stroke-width: 1.5;" width="162" x="2268.5" y="440"/><ellipse cx="2283.5" cy="456" fill="#ADD1B2" rx="11" ry="11" style="stroke: #A80036; stroke-width: 1.0;"/><path d="M2285.9731,462.1431 Q2285.3921,462.4419 2284.7529,462.5913 Q2284.1138,462.7407 2283.4082,462.7407 Q2280.9014,462.7407 2279.5815,461.0889 Q2278.2617,459.437 2278.2617,456.3159 Q2278.2617,453.1865 2279.5815,451.5347 Q2280.9014,449.8828 2283.4082,449.8828 Q2284.1138,449.8828 2284.7612,450.0322 Q2285.4087,450.1816 2285.9731,450.4805 L2285.9731,453.2031 Q2285.3423,452.6221 2284.7488,452.3523 Q2284.1553,452.0825 2283.5244,452.0825 Q2282.1797,452.0825 2281.4949,453.1492 Q2280.8101,454.2158 2280.8101,456.3159 Q2280.8101,458.4077 2281.4949,459.4744 Q2282.1797,460.541 2283.5244,460.541 Q2284.1553,460.541 2284.7488,460.2712 Q2285.3423,460.0015 2285.9731,459.4204 Z "/><text fill="#000000" font-family="sans-serif" font-size="12" lengthAdjust="spacingAndGlyphs" textLength="130" x="2297.5" y="460.5352">PathTooLongException</text><line style="stroke: #A80036; stroke-width: 1.5;" x1="2269.5" x2="2429.5" y1="472" y2="472"/><line style="stroke: #A80036; stroke-width: 1.5;" x1="2269.5" x2="2429.5" y1="480" y2="480"/><!--MD5=[1d64b46a045f19ce5c2cc1aed4abd017]
class PipeException--><rect fill="#FEFECE" filter="url(#f1jxgp5e0aok7a)" height="48" id="PipeException" style="stroke: #A80036; stroke-width: 1.5;" width="113" x="2466" y="440"/><ellipse cx="2481" cy="456" fill="#ADD1B2" rx="11" ry="11" style="stroke: #A80036; stroke-width: 1.0;"/><path d="M2483.4731,462.1431 Q2482.8921,462.4419 2482.2529,462.5913 Q2481.6138,462.7407 2480.9082,462.7407 Q2478.4014,462.7407 2477.0815,461.0889 Q2475.7617,459.437 2475.7617,456.3159 Q2475.7617,453.1865 2477.0815,451.5347 Q2478.4014,449.8828 2480.9082,449.8828 Q2481.6138,449.8828 2482.2612,450.0322 Q2482.9087,450.1816 2483.4731,450.4805 L2483.4731,453.2031 Q2482.8423,452.6221 2482.2488,452.3523 Q2481.6553,452.0825 2481.0244,452.0825 Q2479.6797,452.0825 2478.9949,453.1492 Q2478.3101,454.2158 2478.3101,456.3159 Q2478.3101,458.4077 2478.9949,459.4744 Q2479.6797,460.541 2481.0244,460.541 Q2481.6553,460.541 2482.2488,460.2712 Q2482.8423,460.0015 2483.4731,459.4204 Z "/><text fill="#000000" font-family="sans-serif" font-size="12" lengthAdjust="spacingAndGlyphs" textLength="81" x="2495" y="460.5352">PipeException</text><line style="stroke: #A80036; stroke-width: 1.5;" x1="2467" x2="2578" y1="472" y2="472"/><line style="stroke: #A80036; stroke-width: 1.5;" x1="2467" x2="2578" y1="480" y2="480"/><!--MD5=[a2dae70d4a967aac1c60a1174929b81b]
reverse link Object to Exception--><path d="M623.5,76.02 C623.5,89.58 623.5,104.04 623.5,115.68 " fill="none" id="Object&lt;-Exception" style="stroke: #A80036; stroke-width: 1.0;"/><polygon fill="none" points="616.5,76,623.5,56,630.5,76,616.5,76" style="stroke: #A80036; stroke-width: 1.0;"/><!--MD5=[3a6789b07d32143821c4b6dfc94386d2]
reverse link Exception to SystemException--><path d="M623.5,184.02 C623.5,197.58 623.5,212.04 623.5,223.68 " fill="none" id="Exception&lt;-SystemException" style="stroke: #A80036; stroke-width: 1.0;"/><polygon fill="none" points="616.5,184,623.5,164,630.5,184,616.5,184" style="stroke: #A80036; stroke-width: 1.0;"/><!--MD5=[c21b2f5c82144fae8d017739e83ba38b]
reverse link SystemException to IndexOutOfRangeException--><path d="M539.62,265.86 C456.55,282.57 325.72,308.94 212.5,332 C206.86,333.15 201.06,334.33 195.21,335.53 " fill="none" id="SystemException&lt;-IndexOutOfRangeException" style="stroke: #A80036; stroke-width: 1.0;"/><polygon fill="none" points="538.43,258.96,559.42,261.87,541.19,272.68,538.43,258.96" style="stroke: #A80036; stroke-width: 1.0;"/><!--MD5=[eb88fbda5eafae6989821e8aaaa5148f]
reverse link SystemException to NullReferenceException--><path d="M540.4,277.51 C490.66,294.57 428.26,315.98 381.65,331.96 " fill="none" id="SystemException&lt;-NullReferenceException" style="stroke: #A80036; stroke-width: 1.0;"/><polygon fill="none" points="538.29,270.83,559.48,270.96,542.83,284.07,538.29,270.83" style="stroke: #A80036; stroke-width: 1.0;"/><!--MD5=[3e6d0630283ca2c68befc4c3f5a9e9ad]
reverse link SystemException to InvalidOperationException--><path d="M588.24,286.75 C574.24,301.74 558.58,318.51 546.28,331.68 " fill="none" id="SystemException&lt;-InvalidOperationException" style="stroke: #A80036; stroke-width: 1.0;"/><polygon fill="none" points="583.25,281.84,602.02,272,593.48,291.39,583.25,281.84" style="stroke: #A80036; stroke-width: 1.0;"/><!--MD5=[16404263cc7bc2b51f0dd4f30a01eeb5]
reverse link SystemException to ArgumentException--><path d="M658.76,286.75 C672.76,301.74 688.42,318.51 700.72,331.68 " fill="none" id="SystemException&lt;-ArgumentException" style="stroke: #A80036; stroke-width: 1.0;"/><polygon fill="none" points="653.52,291.39,644.98,272,663.75,281.84,653.52,291.39" style="stroke: #A80036; stroke-width: 1.0;"/><!--MD5=[96b1726223554258b5b49f5fbcbb27c6]
reverse link ArgumentException to ArgumentNullException--><path d="M650.68,387.95 C612.17,404.54 565.53,424.64 530.2,439.86 " fill="none" id="ArgumentException&lt;-ArgumentNullException" style="stroke: #A80036; stroke-width: 1.0;"/><polygon fill="none" points="647.98,381.49,669.12,380,653.52,394.34,647.98,381.49" style="stroke: #A80036; stroke-width: 1.0;"/><!--MD5=[4452b43aa9f3c5a8e2cfc7f18b754d24]
reverse link ArgumentException to ArgumentOutOfRangeException--><path d="M713.98,400.02 C711.29,413.58 708.43,428.04 706.12,439.68 " fill="none" id="ArgumentException&lt;-ArgumentOutOfRangeException" style="stroke: #A80036; stroke-width: 1.0;"/><polygon fill="none" points="707.19,398.26,717.94,380,720.92,400.98,707.19,398.26" style="stroke: #A80036; stroke-width: 1.0;"/><!--MD5=[f427e7e2729da27699095e5b0f4748cc]
reverse link SystemException to ArithmeticException--><path d="M707.41,270.96 C780.56,290.11 885.6,317.6 955.38,335.86 " fill="none" id="SystemException&lt;-ArithmeticException" style="stroke: #A80036; stroke-width: 1.0;"/><polygon fill="none" points="705.25,277.63,687.67,265.8,708.79,264.09,705.25,277.63" style="stroke: #A80036; stroke-width: 1.0;"/><!--MD5=[92454d2b1cbfc7611f37a7a9b3909e2a]
reverse link ArithmeticException to DivideByZeroException--><path d="M991.92,394.28 C977.1,409.39 960.43,426.38 947.38,439.68 " fill="none" id="ArithmeticException&lt;-DivideByZeroException" style="stroke: #A80036; stroke-width: 1.0;"/><polygon fill="none" points="986.93,389.37,1005.93,380,996.92,399.18,986.93,389.37" style="stroke: #A80036; stroke-width: 1.0;"/><!--MD5=[4c6f66f6aabfff3b4f9f4c9fe69ba5e5]
reverse link ArithmeticException to NotFiniteNumberException--><path d="M1065.43,394.28 C1080.4,409.39 1097.22,426.38 1110.4,439.68 " fill="none" id="ArithmeticException&lt;-NotFiniteNumberException" style="stroke: #A80036; stroke-width: 1.0;"/><polygon fill="none" points="1060.39,399.14,1051.28,380,1070.33,389.28,1060.39,399.14" style="stroke: #A80036; stroke-width: 1.0;"/><!--MD5=[70b99b55c7cc727f4e237aed2ba291c2]
reverse link ArithmeticException to OverflowException--><path d="M1113.17,386.72 C1161.18,403.57 1220.36,424.34 1264.84,439.95 " fill="none" id="ArithmeticException&lt;-OverflowException" style="stroke: #A80036; stroke-width: 1.0;"/><polygon fill="none" points="1110.58,393.23,1094.03,380,1115.22,380.02,1110.58,393.23" style="stroke: #A80036; stroke-width: 1.0;"/><!--MD5=[a1d7e0ec5d5d2a89994ca5b63e3e5fae]
reverse link SystemException to IOException--><path d="M707.78,255.71 C959.98,275.8 1703.7,335.03 1904.21,351 " fill="none" id="SystemException&lt;-IOException" style="stroke: #A80036; stroke-width: 1.0;"/><polygon fill="none" points="707.08,262.68,687.7,254.11,708.19,248.72,707.08,262.68" style="stroke: #A80036; stroke-width: 1.0;"/><!--MD5=[2d91c64025d9166839055abe411511a1]
reverse link IOException to DirectoryNotFoundException--><path d="M1885.03,374.45 C1813.84,392.33 1702.78,420.23 1624.36,439.93 " fill="none" id="IOException&lt;-DirectoryNotFoundException" style="stroke: #A80036; stroke-width: 1.0;"/><polygon fill="none" points="1883.33,367.66,1904.43,369.58,1886.74,381.24,1883.33,367.66" style="stroke: #A80036; stroke-width: 1.0;"/><!--MD5=[d0dc2123b613c02a0011f6fd6980e668]
reverse link IOException to DriveNotFoundException--><path d="M1892.39,389.43 C1861.19,405.73 1824.1,425.09 1795.81,439.86 " fill="none" id="IOException&lt;-DriveNotFoundException" style="stroke: #A80036; stroke-width: 1.0;"/><polygon fill="none" points="1889.48,383.05,1910.45,380,1895.96,395.46,1889.48,383.05" style="stroke: #A80036; stroke-width: 1.0;"/><!--MD5=[0453e32089cdf476fbfcba2c8b236c84]
reverse link IOException to EndOfStreamException--><path d="M1954.5,400.02 C1954.5,413.58 1954.5,428.04 1954.5,439.68 " fill="none" id="IOException&lt;-EndOfStreamException" style="stroke: #A80036; stroke-width: 1.0;"/><polygon fill="none" points="1947.5,400,1954.5,380,1961.5,400,1947.5,400" style="stroke: #A80036; stroke-width: 1.0;"/><!--MD5=[97ee574d02ec8b7d213754e645fbf925]
reverse link IOException to FileNotFoundException--><path d="M2015.51,389.66 C2045.85,405.91 2081.82,425.16 2109.28,439.86 " fill="none" id="IOException&lt;-FileNotFoundException" style="stroke: #A80036; stroke-width: 1.0;"/><polygon fill="none" points="2011.79,395.61,1997.46,380,2018.4,383.27,2011.79,395.61" style="stroke: #A80036; stroke-width: 1.0;"/><!--MD5=[df3d1d611ca5d175552054f4f65ca3ae]
reverse link IOException to PathTooLongException--><path d="M2024.06,375.67 C2092.32,393.98 2196.38,421.91 2268.37,441.23 " fill="none" id="IOException&lt;-PathTooLongException" style="stroke: #A80036; stroke-width: 1.0;"/><polygon fill="none" points="2022.03,382.37,2004.53,370.42,2025.66,368.85,2022.03,382.37" style="stroke: #A80036; stroke-width: 1.0;"/><!--MD5=[68bdf3923aaf39c771daa10f59c07748]
reverse link IOException to PipeException--><path d="M2024.86,365.78 C2121.22,378.49 2299.3,404.45 2448.5,440 C2454.13,441.34 2459.95,442.88 2465.75,444.51 " fill="none" id="IOException&lt;-PipeException" style="stroke: #A80036; stroke-width: 1.0;"/><polygon fill="none" points="2023.66,372.68,2004.73,363.16,2025.47,358.8,2023.66,372.68" style="stroke: #A80036; stroke-width: 1.0;"/><!--MD5=[fa75006ad50089b4256f6118c29fe184]
@startuml Exception

Object <|- - Exception

Exception <|- - SystemException

SystemException <|- - IndexOutOfRangeException
SystemException <|- - NullReferenceException
SystemException <|- - InvalidOperationException

SystemException <|- - ArgumentException
ArgumentException <|- - ArgumentNullException
ArgumentException <|- - ArgumentOutOfRangeException

SystemException <|- - ArithmeticException
ArithmeticException <|- - DivideByZeroException
ArithmeticException <|- - NotFiniteNumberException
ArithmeticException <|- - OverflowException

SystemException <|- - IOException
IOException <|- - DirectoryNotFoundException
IOException <|- - DriveNotFoundException
IOException <|- - EndOfStreamException
IOException <|- - FileNotFoundException
IOException <|- - PathTooLongException
IOException <|- - PipeException

@enduml

PlantUML version 1.2020.10(Sun May 17 05:35:57 EDT 2020)
(GPL source distribution)
Java Runtime: OpenJDK Runtime Environment
JVM: OpenJDK 64-Bit Server VM
Java Version: 13.0.2+8
Operating System: Mac OS X
Default Encoding: UTF-8
Language: fr
Country: CA
--></g></svg>