<?xml version="1.0" encoding="UTF-8" standalone="no"?><svg xmlns="http://www.w3.org/2000/svg" xmlns:xlink="http://www.w3.org/1999/xlink" contentScriptType="application/ecmascript" contentStyleType="text/css" height="213px" preserveAspectRatio="none" style="width:1217px;height:213px;" version="1.1" viewBox="0 0 1217 213" width="1217px" zoomAndPan="magnify"><defs><filter height="300%" id="fzu4wsxw7ixk8" width="300%" x="-1" y="-1"><feGaussianBlur result="blurOut" stdDeviation="2.0"/><feColorMatrix in="blurOut" result="blurOut2" type="matrix" values="0 0 0 0 0 0 0 0 0 0 0 0 0 0 0 0 0 0 .4 0"/><feOffset dx="4.0" dy="4.0" in="blurOut2" result="blurOut3"/><feBlend in="SourceGraphic" in2="blurOut3" mode="normal"/></filter></defs><g><!--MD5=[aa7f586532e18719e6cefa70fc650583]
class Object--><rect fill="#FEFECE" filter="url(#fzu4wsxw7ixk8)" height="48" id="Object" style="stroke: #A80036; stroke-width: 1.5;" width="70" x="78" y="8"/><ellipse cx="93" cy="24" fill="#ADD1B2" rx="11" ry="11" style="stroke: #A80036; stroke-width: 1.0;"/><path d="M95.4731,30.1431 Q94.8921,30.4419 94.2529,30.5913 Q93.6138,30.7407 92.9082,30.7407 Q90.4014,30.7407 89.0815,29.0889 Q87.7617,27.437 87.7617,24.3159 Q87.7617,21.1865 89.0815,19.5347 Q90.4014,17.8828 92.9082,17.8828 Q93.6138,17.8828 94.2612,18.0322 Q94.9087,18.1816 95.4731,18.4805 L95.4731,21.2031 Q94.8423,20.6221 94.2488,20.3523 Q93.6553,20.0825 93.0244,20.0825 Q91.6797,20.0825 90.9949,21.1492 Q90.3101,22.2158 90.3101,24.3159 Q90.3101,26.4077 90.9949,27.4744 Q91.6797,28.541 93.0244,28.541 Q93.6553,28.541 94.2488,28.2712 Q94.8423,28.0015 95.4731,27.4204 Z "/><text fill="#000000" font-family="sans-serif" font-size="12" lengthAdjust="spacingAndGlyphs" textLength="38" x="107" y="28.5352">Object</text><line style="stroke: #A80036; stroke-width: 1.5;" x1="79" x2="147" y1="40" y2="40"/><line style="stroke: #A80036; stroke-width: 1.5;" x1="79" x2="147" y1="48" y2="48"/><!--MD5=[1d3308a050e4b472ad871965582028ae]
class Voiture--><rect fill="#FEFECE" filter="url(#fzu4wsxw7ixk8)" height="86.8652" id="Voiture" style="stroke: #A80036; stroke-width: 1.5;" width="214" x="6" y="116"/><ellipse cx="88.25" cy="132" fill="#ADD1B2" rx="11" ry="11" style="stroke: #A80036; stroke-width: 1.0;"/><path d="M90.7231,138.1431 Q90.1421,138.4419 89.5029,138.5913 Q88.8638,138.7407 88.1582,138.7407 Q85.6514,138.7407 84.3315,137.0889 Q83.0117,135.437 83.0117,132.3159 Q83.0117,129.1865 84.3315,127.5347 Q85.6514,125.8828 88.1582,125.8828 Q88.8638,125.8828 89.5112,126.0322 Q90.1587,126.1816 90.7231,126.4805 L90.7231,129.2031 Q90.0923,128.6221 89.4988,128.3523 Q88.9053,128.0825 88.2744,128.0825 Q86.9297,128.0825 86.2449,129.1492 Q85.5601,130.2158 85.5601,132.3159 Q85.5601,134.4077 86.2449,135.4744 Q86.9297,136.541 88.2744,136.541 Q88.9053,136.541 89.4988,136.2712 Q90.0923,136.0015 90.7231,135.4204 Z "/><text fill="#000000" font-family="sans-serif" font-size="12" lengthAdjust="spacingAndGlyphs" textLength="41" x="108.75" y="136.5352">Voiture</text><line style="stroke: #A80036; stroke-width: 1.5;" x1="7" x2="219" y1="148" y2="148"/><ellipse cx="17" cy="159" fill="none" rx="3" ry="3" style="stroke: #038048; stroke-width: 1.0;"/><text fill="#000000" font-family="sans-serif" font-size="11" lengthAdjust="spacingAndGlyphs" textLength="188" x="26" y="162.6348">Demarree : bool «get» «private set»</text><line style="stroke: #A80036; stroke-width: 1.5;" x1="7" x2="219" y1="168.9551" y2="168.9551"/><ellipse cx="17" cy="179.9551" fill="#84BE84" rx="3" ry="3" style="stroke: #038048; stroke-width: 1.0;"/><text fill="#000000" font-family="sans-serif" font-size="11" lengthAdjust="spacingAndGlyphs" textLength="59" x="26" y="183.5898">Demarrer()</text><ellipse cx="17" cy="192.9102" fill="#84BE84" rx="3" ry="3" style="stroke: #038048; stroke-width: 1.0;"/><text fill="#000000" font-family="sans-serif" font-size="11" lengthAdjust="spacingAndGlyphs" textLength="47" x="26" y="196.5449">Arreter()</text><!--MD5=[e85ab6a3f2258eff06ede6ec8714b2e3]
class InvalidOperationException--><rect fill="#FEFECE" filter="url(#fzu4wsxw7ixk8)" height="48" id="InvalidOperationException" style="stroke: #A80036; stroke-width: 1.5;" width="182" x="636" y="8"/><ellipse cx="651" cy="24" fill="#ADD1B2" rx="11" ry="11" style="stroke: #A80036; stroke-width: 1.0;"/><path d="M653.4731,30.1431 Q652.8921,30.4419 652.2529,30.5913 Q651.6138,30.7407 650.9082,30.7407 Q648.4014,30.7407 647.0815,29.0889 Q645.7617,27.437 645.7617,24.3159 Q645.7617,21.1865 647.0815,19.5347 Q648.4014,17.8828 650.9082,17.8828 Q651.6138,17.8828 652.2612,18.0322 Q652.9087,18.1816 653.4731,18.4805 L653.4731,21.2031 Q652.8423,20.6221 652.2488,20.3523 Q651.6553,20.0825 651.0244,20.0825 Q649.6797,20.0825 648.9949,21.1492 Q648.3101,22.2158 648.3101,24.3159 Q648.3101,26.4077 648.9949,27.4744 Q649.6797,28.541 651.0244,28.541 Q651.6553,28.541 652.2488,28.2712 Q652.8423,28.0015 653.4731,27.4204 Z "/><text fill="#000000" font-family="sans-serif" font-size="12" lengthAdjust="spacingAndGlyphs" textLength="150" x="665" y="28.5352">InvalidOperationException</text><line style="stroke: #A80036; stroke-width: 1.5;" x1="637" x2="817" y1="40" y2="40"/><line style="stroke: #A80036; stroke-width: 1.5;" x1="637" x2="817" y1="48" y2="48"/><!--MD5=[0cd075117e9713fdb063803b145701ed]
class VoitureDejaArreteeException--><rect fill="#FEFECE" filter="url(#fzu4wsxw7ixk8)" height="86.8652" id="VoitureDejaArreteeException" style="stroke: #A80036; stroke-width: 1.5;" width="452" x="255" y="116"/><ellipse cx="393.25" cy="132" fill="#ADD1B2" rx="11" ry="11" style="stroke: #A80036; stroke-width: 1.0;"/><path d="M395.7231,138.1431 Q395.1421,138.4419 394.5029,138.5913 Q393.8638,138.7407 393.1582,138.7407 Q390.6514,138.7407 389.3315,137.0889 Q388.0117,135.437 388.0117,132.3159 Q388.0117,129.1865 389.3315,127.5347 Q390.6514,125.8828 393.1582,125.8828 Q393.8638,125.8828 394.5112,126.0322 Q395.1587,126.1816 395.7231,126.4805 L395.7231,129.2031 Q395.0923,128.6221 394.4988,128.3523 Q393.9053,128.0825 393.2744,128.0825 Q391.9297,128.0825 391.2449,129.1492 Q390.5601,130.2158 390.5601,132.3159 Q390.5601,134.4077 391.2449,135.4744 Q391.9297,136.541 393.2744,136.541 Q393.9053,136.541 394.4988,136.2712 Q395.0923,136.0015 395.7231,135.4204 Z "/><text fill="#000000" font-family="sans-serif" font-size="12" lengthAdjust="spacingAndGlyphs" textLength="167" x="413.75" y="136.5352">VoitureDejaArreteeException</text><line style="stroke: #A80036; stroke-width: 1.5;" x1="256" x2="706" y1="148" y2="148"/><line style="stroke: #A80036; stroke-width: 1.5;" x1="256" x2="706" y1="156" y2="156"/><ellipse cx="266" cy="167" fill="#84BE84" rx="3" ry="3" style="stroke: #038048; stroke-width: 1.0;"/><text fill="#000000" font-family="sans-serif" font-size="11" lengthAdjust="spacingAndGlyphs" textLength="163" x="275" y="170.6348">VoitureDejaArreteeException()</text><ellipse cx="266" cy="179.9551" fill="#84BE84" rx="3" ry="3" style="stroke: #038048; stroke-width: 1.0;"/><text fill="#000000" font-family="sans-serif" font-size="11" lengthAdjust="spacingAndGlyphs" textLength="264" x="275" y="183.5898">VoitureDejaArreteeException(p_message : string)</text><ellipse cx="266" cy="192.9102" fill="#84BE84" rx="3" ry="3" style="stroke: #038048; stroke-width: 1.0;"/><text fill="#000000" font-family="sans-serif" font-size="11" lengthAdjust="spacingAndGlyphs" textLength="426" x="275" y="196.5449">VoitureDejaArreteeException(p_message : string, p_innerException : Exception)</text><!--MD5=[28012734ab0c51101fb4238a747f94c6]
class VoitureDejaDemarreeException--><rect fill="#FEFECE" filter="url(#fzu4wsxw7ixk8)" height="86.8652" id="VoitureDejaDemarreeException" style="stroke: #A80036; stroke-width: 1.5;" width="464" x="742" y="116"/><ellipse cx="878.75" cy="132" fill="#ADD1B2" rx="11" ry="11" style="stroke: #A80036; stroke-width: 1.0;"/><path d="M881.2231,138.1431 Q880.6421,138.4419 880.0029,138.5913 Q879.3638,138.7407 878.6582,138.7407 Q876.1514,138.7407 874.8315,137.0889 Q873.5117,135.437 873.5117,132.3159 Q873.5117,129.1865 874.8315,127.5347 Q876.1514,125.8828 878.6582,125.8828 Q879.3638,125.8828 880.0112,126.0322 Q880.6587,126.1816 881.2231,126.4805 L881.2231,129.2031 Q880.5923,128.6221 879.9988,128.3523 Q879.4053,128.0825 878.7744,128.0825 Q877.4297,128.0825 876.7449,129.1492 Q876.0601,130.2158 876.0601,132.3159 Q876.0601,134.4077 876.7449,135.4744 Q877.4297,136.541 878.7744,136.541 Q879.4053,136.541 879.9988,136.2712 Q880.5923,136.0015 881.2231,135.4204 Z "/><text fill="#000000" font-family="sans-serif" font-size="12" lengthAdjust="spacingAndGlyphs" textLength="182" x="899.25" y="136.5352">VoitureDejaDemarreeException</text><line style="stroke: #A80036; stroke-width: 1.5;" x1="743" x2="1205" y1="148" y2="148"/><line style="stroke: #A80036; stroke-width: 1.5;" x1="743" x2="1205" y1="156" y2="156"/><ellipse cx="753" cy="167" fill="#84BE84" rx="3" ry="3" style="stroke: #038048; stroke-width: 1.0;"/><text fill="#000000" font-family="sans-serif" font-size="11" lengthAdjust="spacingAndGlyphs" textLength="175" x="762" y="170.6348">VoitureDejaDemarreeException()</text><ellipse cx="753" cy="179.9551" fill="#84BE84" rx="3" ry="3" style="stroke: #038048; stroke-width: 1.0;"/><text fill="#000000" font-family="sans-serif" font-size="11" lengthAdjust="spacingAndGlyphs" textLength="276" x="762" y="183.5898">VoitureDejaDemarreeException(p_message : string)</text><ellipse cx="753" cy="192.9102" fill="#84BE84" rx="3" ry="3" style="stroke: #038048; stroke-width: 1.0;"/><text fill="#000000" font-family="sans-serif" font-size="11" lengthAdjust="spacingAndGlyphs" textLength="438" x="762" y="196.5449">VoitureDejaDemarreeException(p_message : string, p_innerException : Exception)</text><!--MD5=[c062e4a69dcaee748b95f5fe78371afc]
reverse link Object to Voiture--><path d="M113,76.06 C113,88.91 113,102.99 113,115.83 " fill="none" id="Object&lt;-Voiture" style="stroke: #A80036; stroke-width: 1.0;"/><polygon fill="none" points="106,76.02,113,56.02,120,76.02,106,76.02" style="stroke: #A80036; stroke-width: 1.0;"/><!--MD5=[302a7b9e78565e5c686e4a9e9c157f69]
reverse link InvalidOperationException to VoitureDejaArreteeException--><path d="M663.99,65.15 C633.77,80.56 597.16,99.24 564.65,115.83 " fill="none" id="InvalidOperationException&lt;-VoitureDejaArreteeException" style="stroke: #A80036; stroke-width: 1.0;"/><polygon fill="none" points="660.88,58.87,681.88,56.02,667.25,71.34,660.88,58.87" style="stroke: #A80036; stroke-width: 1.0;"/><!--MD5=[cfa464ef500676dc0dd4745788a296b8]
reverse link InvalidOperationException to VoitureDejaDemarreeException--><path d="M790.31,65.17 C820.72,80.62 857.57,99.34 890.26,115.95 " fill="none" id="InvalidOperationException&lt;-VoitureDejaDemarreeException" style="stroke: #A80036; stroke-width: 1.0;"/><polygon fill="none" points="786.96,71.32,772.3,56.02,793.3,58.84,786.96,71.32" style="stroke: #A80036; stroke-width: 1.0;"/><!--MD5=[bf465fb785a81ec56d9a32abb9cc4562]
@startuml ExceptionVoiture


Object <|- - Voiture

class Voiture {
    + Demarree : bool <<get>> <<private set>>
    + Demarrer()
    + Arreter()
}

' Exception <|- - SystemException

' SystemException <|- - InvalidOperationException

InvalidOperationException <|- - VoitureDejaArreteeException
InvalidOperationException <|- - VoitureDejaDemarreeException

class VoitureDejaDemarreeException {
    + VoitureDejaDemarreeException()
    + VoitureDejaDemarreeException(p_message : string)
    + VoitureDejaDemarreeException(p_message : string, p_innerException : Exception)
}

class VoitureDejaArreteeException {
    + VoitureDejaArreteeException()
    + VoitureDejaArreteeException(p_message : string)
    + VoitureDejaArreteeException(p_message : string, p_innerException : Exception)
}

@enduml

@startuml ExceptionVoiture


Object <|- - Voiture

class Voiture {
    + Demarree : bool <<get>> <<private set>>
    + Demarrer()
    + Arreter()
}



InvalidOperationException <|- - VoitureDejaArreteeException
InvalidOperationException <|- - VoitureDejaDemarreeException

class VoitureDejaDemarreeException {
    + VoitureDejaDemarreeException()
    + VoitureDejaDemarreeException(p_message : string)
    + VoitureDejaDemarreeException(p_message : string, p_innerException : Exception)
}

class VoitureDejaArreteeException {
    + VoitureDejaArreteeException()
    + VoitureDejaArreteeException(p_message : string)
    + VoitureDejaArreteeException(p_message : string, p_innerException : Exception)
}

@enduml

PlantUML version 1.2020.10(Sun May 17 05:35:57 EDT 2020)
(GPL source distribution)
Java Runtime: OpenJDK Runtime Environment
JVM: OpenJDK 64-Bit Server VM
Java Version: 13.0.2+8
Operating System: Mac OS X
Default Encoding: UTF-8
Language: fr
Country: CA
--></g></svg>