<?xml version="1.0" encoding="us-ascii" standalone="no"?><svg xmlns="http://www.w3.org/2000/svg" xmlns:xlink="http://www.w3.org/1999/xlink" contentStyleType="text/css" height="222px" preserveAspectRatio="none" style="width:1410px;height:222px;background:#FFFFFF;" version="1.1" viewBox="0 0 1410 222" width="1410px" zoomAndPan="magnify"><defs/><g><!--class Object--><g id="elem_Object"><rect fill="#F1F1F1" height="48" id="Object" rx="2.5" ry="2.5" style="stroke:#181818;stroke-width:0.5;" width="73" x="97.5" y="7"/><ellipse cx="112.5" cy="23" fill="#ADD1B2" rx="11" ry="11" style="stroke:#181818;stroke-width:1.0;"/><path d="M115.2656,18.875 Q115.4219,18.6563 115.6094,18.5469 Q115.7969,18.4375 116.0156,18.4375 Q116.3906,18.4375 116.625,18.6953 Q116.8594,18.9531 116.8594,19.5625 L116.8594,21.0156 Q116.8594,21.625 116.625,21.8906 Q116.3906,22.1563 116.0156,22.1563 Q115.6719,22.1563 115.4688,21.9531 Q115.2656,21.7656 115.1563,21.25 Q115.1094,20.8906 114.9219,20.7031 Q114.5938,20.3281 113.9844,20.1094 Q113.375,19.8906 112.75,19.8906 Q111.9844,19.8906 111.3516,20.2188 Q110.7188,20.5469 110.2266,21.2969 Q109.7344,22.0469 109.7344,23.0781 L109.7344,24.1719 Q109.7344,25.4063 110.625,26.2266 Q111.5156,27.0469 113.1094,27.0469 Q114.0469,27.0469 114.7031,26.7969 Q115.0938,26.6406 115.5156,26.2031 Q115.7813,25.9375 115.9297,25.8594 Q116.0781,25.7813 116.2813,25.7813 Q116.6094,25.7813 116.8672,26.0391 Q117.125,26.2969 117.125,26.6406 Q117.125,26.9844 116.7813,27.3906 Q116.2813,27.9688 115.4844,28.2969 Q114.4063,28.75 113.1094,28.75 Q111.5938,28.75 110.3906,28.125 Q109.4063,27.625 108.7188,26.5547 Q108.0313,25.4844 108.0313,24.2031 L108.0313,23.0469 Q108.0313,21.7188 108.6484,20.5703 Q109.2656,19.4219 110.3594,18.8047 Q111.4531,18.1875 112.6875,18.1875 Q113.4219,18.1875 114.0703,18.3516 Q114.7188,18.5156 115.2656,18.875 Z " fill="#000000"/><text fill="#000000" font-family="sans-serif" font-size="14" lengthAdjust="spacing" textLength="41" x="126.5" y="28.7285">Object</text><line style="stroke:#181818;stroke-width:0.5;" x1="98.5" x2="169.5" y1="39" y2="39"/><line style="stroke:#181818;stroke-width:0.5;" x1="98.5" x2="169.5" y1="47" y2="47"/></g><!--class Voiture--><g id="elem_Voiture"><rect codeLine="5" fill="#F1F1F1" height="100.8281" id="Voiture" rx="2.5" ry="2.5" style="stroke:#181818;stroke-width:0.5;" width="254" x="7" y="115"/><ellipse cx="107.25" cy="131" fill="#ADD1B2" rx="11" ry="11" style="stroke:#181818;stroke-width:1.0;"/><path d="M110.0156,126.875 Q110.1719,126.6563 110.3594,126.5469 Q110.5469,126.4375 110.7656,126.4375 Q111.1406,126.4375 111.375,126.6953 Q111.6094,126.9531 111.6094,127.5625 L111.6094,129.0156 Q111.6094,129.625 111.375,129.8906 Q111.1406,130.1563 110.7656,130.1563 Q110.4219,130.1563 110.2188,129.9531 Q110.0156,129.7656 109.9063,129.25 Q109.8594,128.8906 109.6719,128.7031 Q109.3438,128.3281 108.7344,128.1094 Q108.125,127.8906 107.5,127.8906 Q106.7344,127.8906 106.1016,128.2188 Q105.4688,128.5469 104.9766,129.2969 Q104.4844,130.0469 104.4844,131.0781 L104.4844,132.1719 Q104.4844,133.4063 105.375,134.2266 Q106.2656,135.0469 107.8594,135.0469 Q108.7969,135.0469 109.4531,134.7969 Q109.8438,134.6406 110.2656,134.2031 Q110.5313,133.9375 110.6797,133.8594 Q110.8281,133.7813 111.0313,133.7813 Q111.3594,133.7813 111.6172,134.0391 Q111.875,134.2969 111.875,134.6406 Q111.875,134.9844 111.5313,135.3906 Q111.0313,135.9688 110.2344,136.2969 Q109.1563,136.75 107.8594,136.75 Q106.3438,136.75 105.1406,136.125 Q104.1563,135.625 103.4688,134.5547 Q102.7813,133.4844 102.7813,132.2031 L102.7813,131.0469 Q102.7813,129.7188 103.3984,128.5703 Q104.0156,127.4219 105.1094,126.8047 Q106.2031,126.1875 107.4375,126.1875 Q108.1719,126.1875 108.8203,126.3516 Q109.4688,126.5156 110.0156,126.875 Z " fill="#000000"/><text fill="#000000" font-family="sans-serif" font-size="14" lengthAdjust="spacing" textLength="45" x="127.75" y="136.7285">Voiture</text><line style="stroke:#181818;stroke-width:0.5;" x1="8" x2="260" y1="147" y2="147"/><ellipse cx="18" cy="161.3047" fill="none" rx="3" ry="3" style="stroke:#038048;stroke-width:1.0;"/><text fill="#000000" font-family="sans-serif" font-size="14" lengthAdjust="spacing" textLength="228" x="27" y="165.5332">Demarree : bool &#171;get&#187; &#171;private set&#187;</text><line style="stroke:#181818;stroke-width:0.5;" x1="8" x2="260" y1="172.6094" y2="172.6094"/><ellipse cx="18" cy="186.9141" fill="#84BE84" rx="3" ry="3" style="stroke:#038048;stroke-width:1.0;"/><text fill="#000000" font-family="sans-serif" font-size="14" lengthAdjust="spacing" textLength="70" x="27" y="191.1426">Demarrer()</text><ellipse cx="18" cy="204.5234" fill="#84BE84" rx="3" ry="3" style="stroke:#038048;stroke-width:1.0;"/><text fill="#000000" font-family="sans-serif" font-size="14" lengthAdjust="spacing" textLength="54" x="27" y="208.752">Arreter()</text></g><!--class InvalidOperationException--><g id="elem_InvalidOperationException"><rect fill="#F1F1F1" height="48" id="InvalidOperationException" rx="2.5" ry="2.5" style="stroke:#181818;stroke-width:0.5;" width="196" x="747" y="7"/><ellipse cx="762" cy="23" fill="#ADD1B2" rx="11" ry="11" style="stroke:#181818;stroke-width:1.0;"/><path d="M764.7656,18.875 Q764.9219,18.6563 765.1094,18.5469 Q765.2969,18.4375 765.5156,18.4375 Q765.8906,18.4375 766.125,18.6953 Q766.3594,18.9531 766.3594,19.5625 L766.3594,21.0156 Q766.3594,21.625 766.125,21.8906 Q765.8906,22.1563 765.5156,22.1563 Q765.1719,22.1563 764.9688,21.9531 Q764.7656,21.7656 764.6563,21.25 Q764.6094,20.8906 764.4219,20.7031 Q764.0938,20.3281 763.4844,20.1094 Q762.875,19.8906 762.25,19.8906 Q761.4844,19.8906 760.8516,20.2188 Q760.2188,20.5469 759.7266,21.2969 Q759.2344,22.0469 759.2344,23.0781 L759.2344,24.1719 Q759.2344,25.4063 760.125,26.2266 Q761.0156,27.0469 762.6094,27.0469 Q763.5469,27.0469 764.2031,26.7969 Q764.5938,26.6406 765.0156,26.2031 Q765.2813,25.9375 765.4297,25.8594 Q765.5781,25.7813 765.7813,25.7813 Q766.1094,25.7813 766.3672,26.0391 Q766.625,26.2969 766.625,26.6406 Q766.625,26.9844 766.2813,27.3906 Q765.7813,27.9688 764.9844,28.2969 Q763.9063,28.75 762.6094,28.75 Q761.0938,28.75 759.8906,28.125 Q758.9063,27.625 758.2188,26.5547 Q757.5313,25.4844 757.5313,24.2031 L757.5313,23.0469 Q757.5313,21.7188 758.1484,20.5703 Q758.7656,19.4219 759.8594,18.8047 Q760.9531,18.1875 762.1875,18.1875 Q762.9219,18.1875 763.5703,18.3516 Q764.2188,18.5156 764.7656,18.875 Z " fill="#000000"/><text fill="#000000" font-family="sans-serif" font-size="14" lengthAdjust="spacing" textLength="164" x="776" y="28.7285">InvalidOperationException</text><line style="stroke:#181818;stroke-width:0.5;" x1="748" x2="942" y1="39" y2="39"/><line style="stroke:#181818;stroke-width:0.5;" x1="748" x2="942" y1="47" y2="47"/></g><!--class VoitureDejaArreteeException--><g id="elem_VoitureDejaArreteeException"><rect codeLine="24" fill="#F1F1F1" height="100.8281" id="VoitureDejaArreteeException" rx="2.5" ry="2.5" style="stroke:#181818;stroke-width:0.5;" width="528" x="296" y="115"/><ellipse cx="464.75" cy="131" fill="#ADD1B2" rx="11" ry="11" style="stroke:#181818;stroke-width:1.0;"/><path d="M467.5156,126.875 Q467.6719,126.6563 467.8594,126.5469 Q468.0469,126.4375 468.2656,126.4375 Q468.6406,126.4375 468.875,126.6953 Q469.1094,126.9531 469.1094,127.5625 L469.1094,129.0156 Q469.1094,129.625 468.875,129.8906 Q468.6406,130.1563 468.2656,130.1563 Q467.9219,130.1563 467.7188,129.9531 Q467.5156,129.7656 467.4063,129.25 Q467.3594,128.8906 467.1719,128.7031 Q466.8438,128.3281 466.2344,128.1094 Q465.625,127.8906 465,127.8906 Q464.2344,127.8906 463.6016,128.2188 Q462.9688,128.5469 462.4766,129.2969 Q461.9844,130.0469 461.9844,131.0781 L461.9844,132.1719 Q461.9844,133.4063 462.875,134.2266 Q463.7656,135.0469 465.3594,135.0469 Q466.2969,135.0469 466.9531,134.7969 Q467.3438,134.6406 467.7656,134.2031 Q468.0313,133.9375 468.1797,133.8594 Q468.3281,133.7813 468.5313,133.7813 Q468.8594,133.7813 469.1172,134.0391 Q469.375,134.2969 469.375,134.6406 Q469.375,134.9844 469.0313,135.3906 Q468.5313,135.9688 467.7344,136.2969 Q466.6563,136.75 465.3594,136.75 Q463.8438,136.75 462.6406,136.125 Q461.6563,135.625 460.9688,134.5547 Q460.2813,133.4844 460.2813,132.2031 L460.2813,131.0469 Q460.2813,129.7188 460.8984,128.5703 Q461.5156,127.4219 462.6094,126.8047 Q463.7031,126.1875 464.9375,126.1875 Q465.6719,126.1875 466.3203,126.3516 Q466.9688,126.5156 467.5156,126.875 Z " fill="#000000"/><text fill="#000000" font-family="sans-serif" font-size="14" lengthAdjust="spacing" textLength="182" x="485.25" y="136.7285">VoitureDejaArreteeException</text><line style="stroke:#181818;stroke-width:0.5;" x1="297" x2="823" y1="147" y2="147"/><line style="stroke:#181818;stroke-width:0.5;" x1="297" x2="823" y1="155" y2="155"/><ellipse cx="307" cy="169.3047" fill="#84BE84" rx="3" ry="3" style="stroke:#038048;stroke-width:1.0;"/><text fill="#000000" font-family="sans-serif" font-size="14" lengthAdjust="spacing" textLength="192" x="316" y="173.5332">VoitureDejaArreteeException()</text><ellipse cx="307" cy="186.9141" fill="#84BE84" rx="3" ry="3" style="stroke:#038048;stroke-width:1.0;"/><text fill="#000000" font-family="sans-serif" font-size="14" lengthAdjust="spacing" textLength="312" x="316" y="191.1426">VoitureDejaArreteeException(p_message : string)</text><ellipse cx="307" cy="204.5234" fill="#84BE84" rx="3" ry="3" style="stroke:#038048;stroke-width:1.0;"/><text fill="#000000" font-family="sans-serif" font-size="14" lengthAdjust="spacing" textLength="502" x="316" y="208.752">VoitureDejaArreteeException(p_message : string, p_innerException : Exception)</text></g><!--class VoitureDejaDemarreeException--><g id="elem_VoitureDejaDemarreeException"><rect codeLine="18" fill="#F1F1F1" height="100.8281" id="VoitureDejaDemarreeException" rx="2.5" ry="2.5" style="stroke:#181818;stroke-width:0.5;" width="544" x="859" y="115"/><ellipse cx="1027.75" cy="131" fill="#ADD1B2" rx="11" ry="11" style="stroke:#181818;stroke-width:1.0;"/><path d="M1030.5156,126.875 Q1030.6719,126.6563 1030.8594,126.5469 Q1031.0469,126.4375 1031.2656,126.4375 Q1031.6406,126.4375 1031.875,126.6953 Q1032.1094,126.9531 1032.1094,127.5625 L1032.1094,129.0156 Q1032.1094,129.625 1031.875,129.8906 Q1031.6406,130.1563 1031.2656,130.1563 Q1030.9219,130.1563 1030.7188,129.9531 Q1030.5156,129.7656 1030.4063,129.25 Q1030.3594,128.8906 1030.1719,128.7031 Q1029.8438,128.3281 1029.2344,128.1094 Q1028.625,127.8906 1028,127.8906 Q1027.2344,127.8906 1026.6016,128.2188 Q1025.9688,128.5469 1025.4766,129.2969 Q1024.9844,130.0469 1024.9844,131.0781 L1024.9844,132.1719 Q1024.9844,133.4063 1025.875,134.2266 Q1026.7656,135.0469 1028.3594,135.0469 Q1029.2969,135.0469 1029.9531,134.7969 Q1030.3438,134.6406 1030.7656,134.2031 Q1031.0313,133.9375 1031.1797,133.8594 Q1031.3281,133.7813 1031.5313,133.7813 Q1031.8594,133.7813 1032.1172,134.0391 Q1032.375,134.2969 1032.375,134.6406 Q1032.375,134.9844 1032.0313,135.3906 Q1031.5313,135.9688 1030.7344,136.2969 Q1029.6563,136.75 1028.3594,136.75 Q1026.8438,136.75 1025.6406,136.125 Q1024.6563,135.625 1023.9688,134.5547 Q1023.2813,133.4844 1023.2813,132.2031 L1023.2813,131.0469 Q1023.2813,129.7188 1023.8984,128.5703 Q1024.5156,127.4219 1025.6094,126.8047 Q1026.7031,126.1875 1027.9375,126.1875 Q1028.6719,126.1875 1029.3203,126.3516 Q1029.9688,126.5156 1030.5156,126.875 Z " fill="#000000"/><text fill="#000000" font-family="sans-serif" font-size="14" lengthAdjust="spacing" textLength="198" x="1048.25" y="136.7285">VoitureDejaDemarreeException</text><line style="stroke:#181818;stroke-width:0.5;" x1="860" x2="1402" y1="147" y2="147"/><line style="stroke:#181818;stroke-width:0.5;" x1="860" x2="1402" y1="155" y2="155"/><ellipse cx="870" cy="169.3047" fill="#84BE84" rx="3" ry="3" style="stroke:#038048;stroke-width:1.0;"/><text fill="#000000" font-family="sans-serif" font-size="14" lengthAdjust="spacing" textLength="208" x="879" y="173.5332">VoitureDejaDemarreeException()</text><ellipse cx="870" cy="186.9141" fill="#84BE84" rx="3" ry="3" style="stroke:#038048;stroke-width:1.0;"/><text fill="#000000" font-family="sans-serif" font-size="14" lengthAdjust="spacing" textLength="328" x="879" y="191.1426">VoitureDejaDemarreeException(p_message : string)</text><ellipse cx="870" cy="204.5234" fill="#84BE84" rx="3" ry="3" style="stroke:#038048;stroke-width:1.0;"/><text fill="#000000" font-family="sans-serif" font-size="14" lengthAdjust="spacing" textLength="518" x="879" y="208.752">VoitureDejaDemarreeException(p_message : string, p_innerException : Exception)</text></g><!--reverse link Object to Voiture--><g id="link_Object_Voiture"><path codeLine="3" d="M134,73.08 C134,89.54 134,94.3 134,114.8 " fill="none" id="Object-backto-Voiture" style="stroke:#181818;stroke-width:1.0;"/><polygon fill="none" points="134,55.08,128,73.08,140,73.08,134,55.08" style="stroke:#181818;stroke-width:1.0;"/></g><!--reverse link InvalidOperationException to VoitureDejaArreteeException--><g id="link_InvalidOperationException_VoitureDejaArreteeException"><path codeLine="15" d="M779.0378,62.6685 C743.5478,79.1685 710.78,94.4 666.61,114.94 " fill="none" id="InvalidOperationException-backto-VoitureDejaArreteeException" style="stroke:#181818;stroke-width:1.0;"/><polygon fill="none" points="795.36,55.08,776.5083,57.2278,781.5673,68.1093,795.36,55.08" style="stroke:#181818;stroke-width:1.0;"/></g><!--reverse link InvalidOperationException to VoitureDejaDemarreeException--><g id="link_InvalidOperationException_VoitureDejaDemarreeException"><path codeLine="16" d="M911.152,62.6475 C946.762,79.1475 979.69,94.4 1024.01,114.94 " fill="none" id="InvalidOperationException-backto-VoitureDejaDemarreeException" style="stroke:#181818;stroke-width:1.0;"/><polygon fill="none" points="894.82,55.08,908.6295,68.0915,913.6745,57.2035,894.82,55.08" style="stroke:#181818;stroke-width:1.0;"/></g><!--SRC=[dL7B3e8m4BptA_QcHla1GaXCyE29WubNKd13Ig0qRIKQzT_b8Mz4OY_DJ6UodLdNZp3GO3qD0yufqrU9X0GnLQg6y22Gdoquc50f4S44FqrZiAmGjMtdjv0ienf15RYlbklDXzZdI9VuHSWA3hS0XMOfhsQVxafZqf25Oa1LkYFFQCmkha192xRZ-FhKI-TWHAklOEjTRgrBwCpjjJMfQIgS4pL5pOg4bw1ID2oseBHaFFpJjWFXCSvHjhyqswMKIne56_OsbMkecOerqYnAjS3rEzGR]--></g></svg>