<?xml version="1.0" encoding="us-ascii" standalone="no"?><svg xmlns="http://www.w3.org/2000/svg" xmlns:xlink="http://www.w3.org/1999/xlink" contentStyleType="text/css" height="348px" preserveAspectRatio="none" style="width:243px;height:348px;background:#FFFFFF;" version="1.1" viewBox="0 0 243 348" width="243px" zoomAndPan="magnify"><defs/><g><!--class IFormeGeometriqueDessinable--><g id="elem_IFormeGeometriqueDessinable"><rect codeLine="13" fill="#FFFFFF" height="48" id="IFormeGeometriqueDessinable" rx="2.5" ry="2.5" style="stroke:#000000;stroke-width:0.5;" width="229" x="7" y="7"/><ellipse cx="22" cy="23" fill="#B4A7E5" rx="11" ry="11" style="stroke:#181818;stroke-width:1.0;"/><path d="M22.9531,19.6406 L22.9531,26.2969 L24.6719,26.2969 Q25.2813,26.2969 25.5469,26.5313 Q25.8125,26.7656 25.8125,27.1563 Q25.8125,27.5313 25.5469,27.7656 Q25.2813,28 24.6719,28 L19.5313,28 Q18.9219,28 18.6563,27.7656 Q18.3906,27.5313 18.3906,27.1406 Q18.3906,26.7656 18.6563,26.5313 Q18.9219,26.2969 19.5313,26.2969 L21.25,26.2969 L21.25,19.6406 L19.5313,19.6406 Q18.9219,19.6406 18.6563,19.4063 Q18.3906,19.1719 18.3906,18.7813 Q18.3906,18.4063 18.6563,18.1719 Q18.9219,17.9375 19.5313,17.9375 L24.6719,17.9375 Q25.2813,17.9375 25.5469,18.1719 Q25.8125,18.4063 25.8125,18.7813 Q25.8125,19.1719 25.5469,19.4063 Q25.2813,19.6406 24.6719,19.6406 L22.9531,19.6406 Z " fill="#000000"/><text fill="#000000" font-family="sans-serif" font-size="14" font-style="italic" lengthAdjust="spacing" textLength="197" x="36" y="28.7285">IFormeGeometriqueDessinable</text><line style="stroke:#000000;stroke-width:0.5;" x1="8" x2="235" y1="39" y2="39"/><line style="stroke:#000000;stroke-width:0.5;" x1="8" x2="235" y1="47" y2="47"/></g><!--class Rectangle--><g id="elem_Rectangle"><rect codeLine="17" fill="#FFFFFF" height="83.2188" id="Rectangle" rx="2.5" ry="2.5" style="stroke:#000000;stroke-width:0.5;" width="188" x="27.5" y="115"/><ellipse cx="85.25" cy="131" fill="#ADD1B2" rx="11" ry="11" style="stroke:#181818;stroke-width:1.0;"/><path d="M88.0156,126.875 Q88.1719,126.6563 88.3594,126.5469 Q88.5469,126.4375 88.7656,126.4375 Q89.1406,126.4375 89.375,126.6953 Q89.6094,126.9531 89.6094,127.5625 L89.6094,129.0156 Q89.6094,129.625 89.375,129.8906 Q89.1406,130.1563 88.7656,130.1563 Q88.4219,130.1563 88.2188,129.9531 Q88.0156,129.7656 87.9063,129.25 Q87.8594,128.8906 87.6719,128.7031 Q87.3438,128.3281 86.7344,128.1094 Q86.125,127.8906 85.5,127.8906 Q84.7344,127.8906 84.1016,128.2188 Q83.4688,128.5469 82.9766,129.2969 Q82.4844,130.0469 82.4844,131.0781 L82.4844,132.1719 Q82.4844,133.4063 83.375,134.2266 Q84.2656,135.0469 85.8594,135.0469 Q86.7969,135.0469 87.4531,134.7969 Q87.8438,134.6406 88.2656,134.2031 Q88.5313,133.9375 88.6797,133.8594 Q88.8281,133.7813 89.0313,133.7813 Q89.3594,133.7813 89.6172,134.0391 Q89.875,134.2969 89.875,134.6406 Q89.875,134.9844 89.5313,135.3906 Q89.0313,135.9688 88.2344,136.2969 Q87.1563,136.75 85.8594,136.75 Q84.3438,136.75 83.1406,136.125 Q82.1563,135.625 81.4688,134.5547 Q80.7813,133.4844 80.7813,132.2031 L80.7813,131.0469 Q80.7813,129.7188 81.3984,128.5703 Q82.0156,127.4219 83.1094,126.8047 Q84.2031,126.1875 85.4375,126.1875 Q86.1719,126.1875 86.8203,126.3516 Q87.4688,126.5156 88.0156,126.875 Z " fill="#000000"/><text fill="#000000" font-family="sans-serif" font-size="14" lengthAdjust="spacing" textLength="64" x="105.75" y="136.7285">Rectangle</text><line style="stroke:#000000;stroke-width:0.5;" x1="28.5" x2="214.5" y1="147" y2="147"/><text fill="#000000" font-family="sans-serif" font-size="14" lengthAdjust="spacing" textLength="176" x="33.5" y="165.5332">+Hauteur : float &#171;get&#187; &#171;set&#187;</text><text fill="#000000" font-family="sans-serif" font-size="14" lengthAdjust="spacing" textLength="176" x="33.5" y="183.1426">+Largeur : float &#171;get&#187; &#171;set&#187;</text><line style="stroke:#000000;stroke-width:0.5;" x1="28.5" x2="214.5" y1="190.2188" y2="190.2188"/></g><!--class Carre--><g id="elem_Carre"><rect codeLine="22" fill="#FFFFFF" height="83.2188" id="Carre" rx="2.5" ry="2.5" style="stroke:#000000;stroke-width:0.5;" width="188" x="27.5" y="258"/><ellipse cx="99.25" cy="274" fill="#ADD1B2" rx="11" ry="11" style="stroke:#181818;stroke-width:1.0;"/><path d="M102.0156,269.875 Q102.1719,269.6563 102.3594,269.5469 Q102.5469,269.4375 102.7656,269.4375 Q103.1406,269.4375 103.375,269.6953 Q103.6094,269.9531 103.6094,270.5625 L103.6094,272.0156 Q103.6094,272.625 103.375,272.8906 Q103.1406,273.1563 102.7656,273.1563 Q102.4219,273.1563 102.2188,272.9531 Q102.0156,272.7656 101.9063,272.25 Q101.8594,271.8906 101.6719,271.7031 Q101.3438,271.3281 100.7344,271.1094 Q100.125,270.8906 99.5,270.8906 Q98.7344,270.8906 98.1016,271.2188 Q97.4688,271.5469 96.9766,272.2969 Q96.4844,273.0469 96.4844,274.0781 L96.4844,275.1719 Q96.4844,276.4063 97.375,277.2266 Q98.2656,278.0469 99.8594,278.0469 Q100.7969,278.0469 101.4531,277.7969 Q101.8438,277.6406 102.2656,277.2031 Q102.5313,276.9375 102.6797,276.8594 Q102.8281,276.7813 103.0313,276.7813 Q103.3594,276.7813 103.6172,277.0391 Q103.875,277.2969 103.875,277.6406 Q103.875,277.9844 103.5313,278.3906 Q103.0313,278.9688 102.2344,279.2969 Q101.1563,279.75 99.8594,279.75 Q98.3438,279.75 97.1406,279.125 Q96.1563,278.625 95.4688,277.5547 Q94.7813,276.4844 94.7813,275.2031 L94.7813,274.0469 Q94.7813,272.7188 95.3984,271.5703 Q96.0156,270.4219 97.1094,269.8047 Q98.2031,269.1875 99.4375,269.1875 Q100.1719,269.1875 100.8203,269.3516 Q101.4688,269.5156 102.0156,269.875 Z " fill="#000000"/><text fill="#000000" font-family="sans-serif" font-size="14" lengthAdjust="spacing" textLength="36" x="119.75" y="279.7285">Carre</text><line style="stroke:#000000;stroke-width:0.5;" x1="28.5" x2="214.5" y1="290" y2="290"/><text fill="#000000" font-family="sans-serif" font-size="14" lengthAdjust="spacing" textLength="176" x="33.5" y="308.5332">+Hauteur : float &#171;get&#187; &#171;set&#187;</text><text fill="#000000" font-family="sans-serif" font-size="14" lengthAdjust="spacing" textLength="176" x="33.5" y="326.1426">+Largeur : float &#171;get&#187; &#171;set&#187;</text><line style="stroke:#000000;stroke-width:0.5;" x1="28.5" x2="214.5" y1="333.2188" y2="333.2188"/></g><!--reverse link IFormeGeometriqueDessinable to Rectangle--><g id="link_IFormeGeometriqueDessinable_Rectangle"><path codeLine="10" d="M121.5,73.23 C121.5,90 121.5,95.08 121.5,114.87 " fill="none" id="IFormeGeometriqueDessinable-backto-Rectangle" style="stroke:#181818;stroke-width:1.0;stroke-dasharray:7.0,7.0;"/><polygon fill="none" points="121.5,55.23,115.5,73.23,127.5,73.23,121.5,55.23" style="stroke:#181818;stroke-width:1.0;"/></g><!--reverse link Rectangle to Carre--><g id="link_Rectangle_Carre"><path codeLine="11" d="M121.5,216.28 C121.5,234.99 121.5,239.11 121.5,257.81 " fill="none" id="Rectangle-backto-Carre" style="stroke:#181818;stroke-width:1.0;"/><polygon fill="none" points="121.5,198.28,115.5,216.28,127.5,216.28,121.5,198.28" style="stroke:#181818;stroke-width:1.0;"/></g><!--SRC=[hK-xJWD13Epz5POeA52Ygz4f4WaAHAA2WjhPE1ihU-lWzOb7uDzPk2WHJIhSZEKPZMVALlAEZ3eCYKgvSJTPziwBeFb9FXWRA7ybk0UiCwMmZQPzNiqqgU7pHfm7Hct5DbmlcgQ1Bw2KzBMJDyaHBaz-IJBx-uvHpJSAi9YhTNp7sd6DyTBpBPSYcPQ9iVqSZ_6HWrEEYU6uLM8qmXcPCO1aPrjJO3ndjOSQ2OOo9v-XrXNUKwtV6rxZEYavjcradqmgbXyyg1x8uZdLyS5lidyt_mO0]--></g></svg>