<?xml version="1.0" encoding="UTF-8" standalone="no"?><svg xmlns="http://www.w3.org/2000/svg" xmlns:xlink="http://www.w3.org/1999/xlink" contentScriptType="application/ecmascript" contentStyleType="text/css" height="334px" preserveAspectRatio="none" style="width:226px;height:334px;" version="1.1" viewBox="0 0 226 334" width="226px" zoomAndPan="magnify"><defs><filter height="300%" id="f16g8f2okozzmp" width="300%" x="-1" y="-1"><feGaussianBlur result="blurOut" stdDeviation="2.0"/><feColorMatrix in="blurOut" result="blurOut2" type="matrix" values="0 0 0 0 0 0 0 0 0 0 0 0 0 0 0 0 0 0 .4 0"/><feOffset dx="4.0" dy="4.0" in="blurOut2" result="blurOut3"/><feBlend in="SourceGraphic" in2="blurOut3" mode="normal"/></filter></defs><g><!--MD5=[3abfc055aa2c519ebcfd2acfe702d4d6]
class IFormeGeometriqueDessinable--><rect fill="#FFFFFF" filter="url(#f16g8f2okozzmp)" height="48" id="IFormeGeometriqueDessinable" style="stroke: #000000; stroke-width: 1.5;" width="209" x="6" y="8"/><ellipse cx="21" cy="24" fill="#B4A7E5" rx="11" ry="11" style="stroke: #000000; stroke-width: 1.0;"/><path d="M17.4277,20.2651 L17.4277,18.1069 L24.8071,18.1069 L24.8071,20.2651 L22.3418,20.2651 L22.3418,28.3418 L24.8071,28.3418 L24.8071,30.5 L17.4277,30.5 L17.4277,28.3418 L19.8931,28.3418 L19.8931,20.2651 Z "/><text fill="#000000" font-family="sans-serif" font-size="12" font-style="italic" lengthAdjust="spacingAndGlyphs" textLength="177" x="35" y="28.5352">IFormeGeometriqueDessinable</text><line style="stroke: #000000; stroke-width: 1.5;" x1="7" x2="214" y1="40" y2="40"/><line style="stroke: #000000; stroke-width: 1.5;" x1="7" x2="214" y1="48" y2="48"/><!--MD5=[b5313cd49da22b0744b541f414f8445e]
class Rectangle--><rect fill="#FFFFFF" filter="url(#f16g8f2okozzmp)" height="73.9102" id="Rectangle" style="stroke: #000000; stroke-width: 1.5;" width="160" x="30.5" y="116"/><ellipse cx="78.25" cy="132" fill="#ADD1B2" rx="11" ry="11" style="stroke: #000000; stroke-width: 1.0;"/><path d="M80.7231,138.1431 Q80.1421,138.4419 79.5029,138.5913 Q78.8638,138.7407 78.1582,138.7407 Q75.6514,138.7407 74.3315,137.0889 Q73.0117,135.437 73.0117,132.3159 Q73.0117,129.1865 74.3315,127.5347 Q75.6514,125.8828 78.1582,125.8828 Q78.8638,125.8828 79.5112,126.0322 Q80.1587,126.1816 80.7231,126.4805 L80.7231,129.2031 Q80.0923,128.6221 79.4988,128.3523 Q78.9053,128.0825 78.2744,128.0825 Q76.9297,128.0825 76.2449,129.1492 Q75.5601,130.2158 75.5601,132.3159 Q75.5601,134.4077 76.2449,135.4744 Q76.9297,136.541 78.2744,136.541 Q78.9053,136.541 79.4988,136.2712 Q80.0923,136.0015 80.7231,135.4204 Z "/><text fill="#000000" font-family="sans-serif" font-size="12" lengthAdjust="spacingAndGlyphs" textLength="56" x="98.75" y="136.5352">Rectangle</text><line style="stroke: #000000; stroke-width: 1.5;" x1="31.5" x2="189.5" y1="148" y2="148"/><text fill="#000000" font-family="sans-serif" font-size="11" lengthAdjust="spacingAndGlyphs" textLength="148" x="36.5" y="162.6348">+Hauteur : float «get» «set»</text><text fill="#000000" font-family="sans-serif" font-size="11" lengthAdjust="spacingAndGlyphs" textLength="147" x="36.5" y="175.5898">+Largeur : float «get» «set»</text><line style="stroke: #000000; stroke-width: 1.5;" x1="31.5" x2="189.5" y1="181.9102" y2="181.9102"/><!--MD5=[271c9bd56a4dca82ed2c9fa58097638e]
class Carre--><rect fill="#FFFFFF" filter="url(#f16g8f2okozzmp)" height="73.9102" id="Carre" style="stroke: #000000; stroke-width: 1.5;" width="160" x="30.5" y="250"/><ellipse cx="90.25" cy="266" fill="#ADD1B2" rx="11" ry="11" style="stroke: #000000; stroke-width: 1.0;"/><path d="M92.7231,272.1431 Q92.1421,272.4419 91.5029,272.5913 Q90.8638,272.7407 90.1582,272.7407 Q87.6514,272.7407 86.3315,271.0889 Q85.0117,269.437 85.0117,266.3159 Q85.0117,263.1865 86.3315,261.5347 Q87.6514,259.8828 90.1582,259.8828 Q90.8638,259.8828 91.5112,260.0322 Q92.1587,260.1816 92.7231,260.4805 L92.7231,263.2031 Q92.0923,262.6221 91.4988,262.3523 Q90.9053,262.0825 90.2744,262.0825 Q88.9297,262.0825 88.2449,263.1492 Q87.5601,264.2158 87.5601,266.3159 Q87.5601,268.4077 88.2449,269.4744 Q88.9297,270.541 90.2744,270.541 Q90.9053,270.541 91.4988,270.2712 Q92.0923,270.0015 92.7231,269.4204 Z "/><text fill="#000000" font-family="sans-serif" font-size="12" lengthAdjust="spacingAndGlyphs" textLength="32" x="110.75" y="270.5352">Carre</text><line style="stroke: #000000; stroke-width: 1.5;" x1="31.5" x2="189.5" y1="282" y2="282"/><text fill="#000000" font-family="sans-serif" font-size="11" lengthAdjust="spacingAndGlyphs" textLength="148" x="36.5" y="296.6348">+Hauteur : float «get» «set»</text><text fill="#000000" font-family="sans-serif" font-size="11" lengthAdjust="spacingAndGlyphs" textLength="147" x="36.5" y="309.5898">+Largeur : float «get» «set»</text><line style="stroke: #000000; stroke-width: 1.5;" x1="31.5" x2="189.5" y1="315.9102" y2="315.9102"/><!--MD5=[fd22bedc954505ab2a9cf8e8144d5878]
reverse link IFormeGeometriqueDessinable to Rectangle--><path d="M110.5,76.43 C110.5,89.33 110.5,103.32 110.5,115.71 " fill="none" id="IFormeGeometriqueDessinable&lt;-Rectangle" style="stroke: #A80036; stroke-width: 1.0; stroke-dasharray: 7.0,7.0;"/><polygon fill="none" points="103.5,76.23,110.5,56.23,117.5,76.23,103.5,76.23" style="stroke: #A80036; stroke-width: 1.0;"/><!--MD5=[7c1a3067942dfe3ce41862c3a5ccf4c1]
reverse link Rectangle to Carre--><path d="M110.5,210.38 C110.5,223.8 110.5,237.76 110.5,249.97 " fill="none" id="Rectangle&lt;-Carre" style="stroke: #A80036; stroke-width: 1.0;"/><polygon fill="none" points="103.5,210.07,110.5,190.07,117.5,210.07,103.5,210.07" style="stroke: #A80036; stroke-width: 1.0;"/><!--MD5=[8f898a79b593ed25b9ffad76a7bec3d1]
@startuml LSP_v01

skinparam classAttributeIconSize 0
skinparam class {
    BackgroundColor White
    BorderColor #000
}
allowmixing
'skinparam linetype ortho

IFormeGeometriqueDessinable <|.. Rectangle
Rectangle <|- - Carre

interface IFormeGeometriqueDessinable {

}

class Rectangle {
    + Hauteur : float <<get>> <<set>>
    + Largeur : float <<get>> <<set>>
}

class Carre {
    + Hauteur : float <<get>> <<set>>
    + Largeur : float <<get>> <<set>>
}

@enduml

@startuml LSP_v01

skinparam classAttributeIconSize 0
skinparam class {
    BackgroundColor White
    BorderColor #000
}
allowmixing

IFormeGeometriqueDessinable <|.. Rectangle
Rectangle <|- - Carre

interface IFormeGeometriqueDessinable {

}

class Rectangle {
    + Hauteur : float <<get>> <<set>>
    + Largeur : float <<get>> <<set>>
}

class Carre {
    + Hauteur : float <<get>> <<set>>
    + Largeur : float <<get>> <<set>>
}

@enduml

PlantUML version 1.2020.10(Sun May 17 05:35:57 EDT 2020)
(GPL source distribution)
Java Runtime: OpenJDK Runtime Environment
JVM: OpenJDK 64-Bit Server VM
Java Version: 13.0.2+8
Operating System: Mac OS X
Default Encoding: UTF-8
Language: fr
Country: CA
--></g></svg>