<?xml version="1.0" encoding="us-ascii" standalone="no"?><svg xmlns="http://www.w3.org/2000/svg" xmlns:xlink="http://www.w3.org/1999/xlink" contentStyleType="text/css" height="275px" preserveAspectRatio="none" style="width:449px;height:275px;background:#FFFFFF;" version="1.1" viewBox="0 0 449 275" width="449px" zoomAndPan="magnify"><defs/><g><!--class ICommunication--><g id="elem_ICommunication"><rect codeLine="9" fill="#FFFFFF" height="83.2188" id="ICommunication" rx="2.5" ry="2.5" style="stroke:#000000;stroke-width:0.5;" width="257" x="7" y="7"/><ellipse cx="80.75" cy="23" fill="#B4A7E5" rx="11" ry="11" style="stroke:#181818;stroke-width:1.0;"/><path d="M81.7031,19.6406 L81.7031,26.2969 L83.4219,26.2969 Q84.0313,26.2969 84.2969,26.5313 Q84.5625,26.7656 84.5625,27.1563 Q84.5625,27.5313 84.2969,27.7656 Q84.0313,28 83.4219,28 L78.2813,28 Q77.6719,28 77.4063,27.7656 Q77.1406,27.5313 77.1406,27.1406 Q77.1406,26.7656 77.4063,26.5313 Q77.6719,26.2969 78.2813,26.2969 L80,26.2969 L80,19.6406 L78.2813,19.6406 Q77.6719,19.6406 77.4063,19.4063 Q77.1406,19.1719 77.1406,18.7813 Q77.1406,18.4063 77.4063,18.1719 Q77.6719,17.9375 78.2813,17.9375 L83.4219,17.9375 Q84.0313,17.9375 84.2969,18.1719 Q84.5625,18.4063 84.5625,18.7813 Q84.5625,19.1719 84.2969,19.4063 Q84.0313,19.6406 83.4219,19.6406 L81.7031,19.6406 Z " fill="#000000"/><text fill="#000000" font-family="sans-serif" font-size="14" font-style="italic" lengthAdjust="spacing" textLength="101" x="101.25" y="28.7285">ICommunication</text><line style="stroke:#000000;stroke-width:0.5;" x1="8" x2="263" y1="39" y2="39"/><line style="stroke:#000000;stroke-width:0.5;" x1="8" x2="263" y1="47" y2="47"/><text fill="#000000" font-family="sans-serif" font-size="14" lengthAdjust="spacing" textLength="245" x="13" y="65.5332">+EnvoyerDonnees(p_donnees : byte[])</text><text fill="#000000" font-family="sans-serif" font-size="14" lengthAdjust="spacing" textLength="178" x="13" y="83.1426">+RecevoirDonnees() : byte[]</text></g><!--class IConnexion--><g id="elem_IConnexion"><rect codeLine="14" fill="#FFFFFF" height="83.2188" id="IConnexion" rx="2.5" ry="2.5" style="stroke:#000000;stroke-width:0.5;" width="143" x="299" y="7"/><ellipse cx="332" cy="23" fill="#B4A7E5" rx="11" ry="11" style="stroke:#181818;stroke-width:1.0;"/><path d="M332.9531,19.6406 L332.9531,26.2969 L334.6719,26.2969 Q335.2813,26.2969 335.5469,26.5313 Q335.8125,26.7656 335.8125,27.1563 Q335.8125,27.5313 335.5469,27.7656 Q335.2813,28 334.6719,28 L329.5313,28 Q328.9219,28 328.6563,27.7656 Q328.3906,27.5313 328.3906,27.1406 Q328.3906,26.7656 328.6563,26.5313 Q328.9219,26.2969 329.5313,26.2969 L331.25,26.2969 L331.25,19.6406 L329.5313,19.6406 Q328.9219,19.6406 328.6563,19.4063 Q328.3906,19.1719 328.3906,18.7813 Q328.3906,18.4063 328.6563,18.1719 Q328.9219,17.9375 329.5313,17.9375 L334.6719,17.9375 Q335.2813,17.9375 335.5469,18.1719 Q335.8125,18.4063 335.8125,18.7813 Q335.8125,19.1719 335.5469,19.4063 Q335.2813,19.6406 334.6719,19.6406 L332.9531,19.6406 Z " fill="#000000"/><text fill="#000000" font-family="sans-serif" font-size="14" font-style="italic" lengthAdjust="spacing" textLength="71" x="350" y="28.7285">IConnexion</text><line style="stroke:#000000;stroke-width:0.5;" x1="300" x2="441" y1="39" y2="39"/><line style="stroke:#000000;stroke-width:0.5;" x1="300" x2="441" y1="47" y2="47"/><text fill="#000000" font-family="sans-serif" font-size="14" lengthAdjust="spacing" textLength="125" x="305" y="65.5332">+EtablirConnexion()</text><text fill="#000000" font-family="sans-serif" font-size="14" lengthAdjust="spacing" textLength="131" x="305" y="83.1426">+FermerConnexion()</text></g><!--class ModemRTC--><g id="elem_ModemRTC"><rect codeLine="19" fill="#FFFFFF" height="118.4375" id="ModemRTC" rx="2.5" ry="2.5" style="stroke:#000000;stroke-width:0.5;" width="257" x="124" y="150"/><ellipse cx="210.75" cy="166" fill="#ADD1B2" rx="11" ry="11" style="stroke:#181818;stroke-width:1.0;"/><path d="M213.5156,161.875 Q213.6719,161.6563 213.8594,161.5469 Q214.0469,161.4375 214.2656,161.4375 Q214.6406,161.4375 214.875,161.6953 Q215.1094,161.9531 215.1094,162.5625 L215.1094,164.0156 Q215.1094,164.625 214.875,164.8906 Q214.6406,165.1563 214.2656,165.1563 Q213.9219,165.1563 213.7188,164.9531 Q213.5156,164.7656 213.4063,164.25 Q213.3594,163.8906 213.1719,163.7031 Q212.8438,163.3281 212.2344,163.1094 Q211.625,162.8906 211,162.8906 Q210.2344,162.8906 209.6016,163.2188 Q208.9688,163.5469 208.4766,164.2969 Q207.9844,165.0469 207.9844,166.0781 L207.9844,167.1719 Q207.9844,168.4063 208.875,169.2266 Q209.7656,170.0469 211.3594,170.0469 Q212.2969,170.0469 212.9531,169.7969 Q213.3438,169.6406 213.7656,169.2031 Q214.0313,168.9375 214.1797,168.8594 Q214.3281,168.7813 214.5313,168.7813 Q214.8594,168.7813 215.1172,169.0391 Q215.375,169.2969 215.375,169.6406 Q215.375,169.9844 215.0313,170.3906 Q214.5313,170.9688 213.7344,171.2969 Q212.6563,171.75 211.3594,171.75 Q209.8438,171.75 208.6406,171.125 Q207.6563,170.625 206.9688,169.5547 Q206.2813,168.4844 206.2813,167.2031 L206.2813,166.0469 Q206.2813,164.7188 206.8984,163.5703 Q207.5156,162.4219 208.6094,161.8047 Q209.7031,161.1875 210.9375,161.1875 Q211.6719,161.1875 212.3203,161.3516 Q212.9688,161.5156 213.5156,161.875 Z " fill="#000000"/><text fill="#000000" font-family="sans-serif" font-size="14" lengthAdjust="spacing" textLength="75" x="231.25" y="171.7285">ModemRTC</text><line style="stroke:#000000;stroke-width:0.5;" x1="125" x2="380" y1="182" y2="182"/><line style="stroke:#000000;stroke-width:0.5;" x1="125" x2="380" y1="190" y2="190"/><text fill="#000000" font-family="sans-serif" font-size="14" lengthAdjust="spacing" textLength="125" x="130" y="208.5332">+EtablirConnexion()</text><text fill="#000000" font-family="sans-serif" font-size="14" lengthAdjust="spacing" textLength="131" x="130" y="226.1426">+FermerConnexion()</text><text fill="#000000" font-family="sans-serif" font-size="14" lengthAdjust="spacing" textLength="245" x="130" y="243.752">+EnvoyerDonnees(p_donnees : byte[])</text><text fill="#000000" font-family="sans-serif" font-size="14" lengthAdjust="spacing" textLength="178" x="130" y="261.3613">+RecevoirDonnees() : byte[]</text></g><!--reverse link IConnexion to ModemRTC--><g id="link_IConnexion_ModemRTC"><path codeLine="26" d="M329.361,104.7581 C315.841,122.9181 310.43,130.19 295.68,150 " fill="none" id="IConnexion-backto-ModemRTC" style="stroke:#181818;stroke-width:1.0;stroke-dasharray:7.0,7.0;"/><polygon fill="none" points="340.11,90.32,324.5483,101.1751,334.1736,108.3411,340.11,90.32" style="stroke:#181818;stroke-width:1.0;"/></g><!--reverse link ICommunication to ModemRTC--><g id="link_ICommunication_ModemRTC"><path codeLine="27" d="M176.3225,104.8 C189.7325,122.96 195.07,130.19 209.68,150 " fill="none" id="ICommunication-backto-ModemRTC" style="stroke:#181818;stroke-width:1.0;stroke-dasharray:7.0,7.0;"/><polygon fill="none" points="165.63,90.32,171.4959,108.3642,181.1492,101.2358,165.63,90.32" style="stroke:#181818;stroke-width:1.0;"/></g><!--SRC=[hP1FIyD04CNl-oa6Ucafb9p5YyOAFNYfWWSHsMp6TEZkJ9dTrCO_tzr0qk1w5ESqpFlnthwDU-A3LHl0UHlZLKfALPjmuuJlwHsXC357uCD0FzVMxHkLbkjIl2WyxYZXe8ZMgCDrLXI5-JBMUtaBT29kZ25EgA_M8MnA2Q5bSZQHy6YyX3KVfKEz4MR4E3-yrCC65r1r2P-U5oEuHOT7eObSJ4IVcUVqm2dBIBRof9CmFtlUeWRCxhtLKFnEQWpRX_8l9l_Qx4UVoy_LQdgO-VMXkVWD]--></g></svg>