<?xml version="1.0" encoding="us-ascii" standalone="no"?><svg xmlns="http://www.w3.org/2000/svg" xmlns:xlink="http://www.w3.org/1999/xlink" contentStyleType="text/css" height="366px" preserveAspectRatio="none" style="width:215px;height:366px;background:#FFFFFF;" version="1.1" viewBox="0 0 215 366" width="215px" zoomAndPan="magnify"><defs/><g><!--class Bouton--><g id="elem_Bouton"><rect codeLine="14" fill="#FFFFFF" height="65.6094" id="Bouton" rx="2.5" ry="2.5" style="stroke:#000000;stroke-width:0.5;" width="110" x="52.5" y="7"/><ellipse cx="82.35" cy="23" fill="#ADD1B2" rx="11" ry="11" style="stroke:#181818;stroke-width:1.0;"/><path d="M85.1156,18.875 Q85.2719,18.6563 85.4594,18.5469 Q85.6469,18.4375 85.8656,18.4375 Q86.2406,18.4375 86.475,18.6953 Q86.7094,18.9531 86.7094,19.5625 L86.7094,21.0156 Q86.7094,21.625 86.475,21.8906 Q86.2406,22.1563 85.8656,22.1563 Q85.5219,22.1563 85.3188,21.9531 Q85.1156,21.7656 85.0063,21.25 Q84.9594,20.8906 84.7719,20.7031 Q84.4438,20.3281 83.8344,20.1094 Q83.225,19.8906 82.6,19.8906 Q81.8344,19.8906 81.2016,20.2188 Q80.5688,20.5469 80.0766,21.2969 Q79.5844,22.0469 79.5844,23.0781 L79.5844,24.1719 Q79.5844,25.4063 80.475,26.2266 Q81.3656,27.0469 82.9594,27.0469 Q83.8969,27.0469 84.5531,26.7969 Q84.9438,26.6406 85.3656,26.2031 Q85.6313,25.9375 85.7797,25.8594 Q85.9281,25.7813 86.1313,25.7813 Q86.4594,25.7813 86.7172,26.0391 Q86.975,26.2969 86.975,26.6406 Q86.975,26.9844 86.6313,27.3906 Q86.1313,27.9688 85.3344,28.2969 Q84.2563,28.75 82.9594,28.75 Q81.4438,28.75 80.2406,28.125 Q79.2563,27.625 78.5688,26.5547 Q77.8813,25.4844 77.8813,24.2031 L77.8813,23.0469 Q77.8813,21.7188 78.4984,20.5703 Q79.1156,19.4219 80.2094,18.8047 Q81.3031,18.1875 82.5375,18.1875 Q83.2719,18.1875 83.9203,18.3516 Q84.5688,18.5156 85.1156,18.875 Z " fill="#000000"/><text fill="#000000" font-family="sans-serif" font-size="14" lengthAdjust="spacing" textLength="45" x="99.65" y="28.7285">Bouton</text><line style="stroke:#000000;stroke-width:0.5;" x1="53.5" x2="161.5" y1="39" y2="39"/><line style="stroke:#000000;stroke-width:0.5;" x1="53.5" x2="161.5" y1="47" y2="47"/><text fill="#000000" font-family="sans-serif" font-size="14" lengthAdjust="spacing" textLength="98" x="58.5" y="65.5332">+ChangerEtat()</text></g><!--class Commutable--><g id="elem_Commutable"><rect codeLine="18" fill="#FFFFFF" height="83.2188" id="Commutable" rx="2.5" ry="2.5" style="stroke:#000000;stroke-width:0.5;" width="111" x="52" y="133"/><ellipse cx="67" cy="149" fill="#B4A7E5" rx="11" ry="11" style="stroke:#181818;stroke-width:1.0;"/><path d="M67.9531,145.6406 L67.9531,152.2969 L69.6719,152.2969 Q70.2813,152.2969 70.5469,152.5313 Q70.8125,152.7656 70.8125,153.1563 Q70.8125,153.5313 70.5469,153.7656 Q70.2813,154 69.6719,154 L64.5313,154 Q63.9219,154 63.6563,153.7656 Q63.3906,153.5313 63.3906,153.1406 Q63.3906,152.7656 63.6563,152.5313 Q63.9219,152.2969 64.5313,152.2969 L66.25,152.2969 L66.25,145.6406 L64.5313,145.6406 Q63.9219,145.6406 63.6563,145.4063 Q63.3906,145.1719 63.3906,144.7813 Q63.3906,144.4063 63.6563,144.1719 Q63.9219,143.9375 64.5313,143.9375 L69.6719,143.9375 Q70.2813,143.9375 70.5469,144.1719 Q70.8125,144.4063 70.8125,144.7813 Q70.8125,145.1719 70.5469,145.4063 Q70.2813,145.6406 69.6719,145.6406 L67.9531,145.6406 Z " fill="#000000"/><text fill="#000000" font-family="sans-serif" font-size="14" font-style="italic" lengthAdjust="spacing" textLength="79" x="81" y="154.7285">Commutable</text><line style="stroke:#000000;stroke-width:0.5;" x1="53" x2="162" y1="165" y2="165"/><line style="stroke:#000000;stroke-width:0.5;" x1="53" x2="162" y1="173" y2="173"/><text fill="#000000" font-family="sans-serif" font-size="14" lengthAdjust="spacing" textLength="65" x="58" y="191.5332">+Allumer()</text><text fill="#000000" font-family="sans-serif" font-size="14" lengthAdjust="spacing" textLength="71" x="58" y="209.1426">+Eteindre()</text></g><!--class Lampe--><g id="elem_Lampe"><rect codeLine="23" fill="#FFFFFF" height="83.2188" id="Lampe" rx="2.5" ry="2.5" style="stroke:#000000;stroke-width:0.5;" width="83" x="7" y="276"/><ellipse cx="25.6" cy="292" fill="#ADD1B2" rx="11" ry="11" style="stroke:#181818;stroke-width:1.0;"/><path d="M28.3656,287.875 Q28.5219,287.6563 28.7094,287.5469 Q28.8969,287.4375 29.1156,287.4375 Q29.4906,287.4375 29.725,287.6953 Q29.9594,287.9531 29.9594,288.5625 L29.9594,290.0156 Q29.9594,290.625 29.725,290.8906 Q29.4906,291.1563 29.1156,291.1563 Q28.7719,291.1563 28.5688,290.9531 Q28.3656,290.7656 28.2563,290.25 Q28.2094,289.8906 28.0219,289.7031 Q27.6938,289.3281 27.0844,289.1094 Q26.475,288.8906 25.85,288.8906 Q25.0844,288.8906 24.4516,289.2188 Q23.8188,289.5469 23.3266,290.2969 Q22.8344,291.0469 22.8344,292.0781 L22.8344,293.1719 Q22.8344,294.4063 23.725,295.2266 Q24.6156,296.0469 26.2094,296.0469 Q27.1469,296.0469 27.8031,295.7969 Q28.1938,295.6406 28.6156,295.2031 Q28.8813,294.9375 29.0297,294.8594 Q29.1781,294.7813 29.3813,294.7813 Q29.7094,294.7813 29.9672,295.0391 Q30.225,295.2969 30.225,295.6406 Q30.225,295.9844 29.8813,296.3906 Q29.3813,296.9688 28.5844,297.2969 Q27.5063,297.75 26.2094,297.75 Q24.6938,297.75 23.4906,297.125 Q22.5063,296.625 21.8188,295.5547 Q21.1313,294.4844 21.1313,293.2031 L21.1313,292.0469 Q21.1313,290.7188 21.7484,289.5703 Q22.3656,288.4219 23.4594,287.8047 Q24.5531,287.1875 25.7875,287.1875 Q26.5219,287.1875 27.1703,287.3516 Q27.8188,287.5156 28.3656,287.875 Z " fill="#000000"/><text fill="#000000" font-family="sans-serif" font-size="14" lengthAdjust="spacing" textLength="43" x="40.4" y="297.7285">Lampe</text><line style="stroke:#000000;stroke-width:0.5;" x1="8" x2="89" y1="308" y2="308"/><line style="stroke:#000000;stroke-width:0.5;" x1="8" x2="89" y1="316" y2="316"/><text fill="#000000" font-family="sans-serif" font-size="14" lengthAdjust="spacing" textLength="65" x="13" y="334.5332">+Allumer()</text><text fill="#000000" font-family="sans-serif" font-size="14" lengthAdjust="spacing" textLength="71" x="13" y="352.1426">+Eteindre()</text></g><!--class TV--><g id="elem_TV"><rect codeLine="28" fill="#FFFFFF" height="83.2188" id="TV" rx="2.5" ry="2.5" style="stroke:#000000;stroke-width:0.5;" width="83" x="125" y="276"/><ellipse cx="154.85" cy="292" fill="#ADD1B2" rx="11" ry="11" style="stroke:#181818;stroke-width:1.0;"/><path d="M157.6156,287.875 Q157.7719,287.6563 157.9594,287.5469 Q158.1469,287.4375 158.3656,287.4375 Q158.7406,287.4375 158.975,287.6953 Q159.2094,287.9531 159.2094,288.5625 L159.2094,290.0156 Q159.2094,290.625 158.975,290.8906 Q158.7406,291.1563 158.3656,291.1563 Q158.0219,291.1563 157.8188,290.9531 Q157.6156,290.7656 157.5063,290.25 Q157.4594,289.8906 157.2719,289.7031 Q156.9438,289.3281 156.3344,289.1094 Q155.725,288.8906 155.1,288.8906 Q154.3344,288.8906 153.7016,289.2188 Q153.0688,289.5469 152.5766,290.2969 Q152.0844,291.0469 152.0844,292.0781 L152.0844,293.1719 Q152.0844,294.4063 152.975,295.2266 Q153.8656,296.0469 155.4594,296.0469 Q156.3969,296.0469 157.0531,295.7969 Q157.4438,295.6406 157.8656,295.2031 Q158.1313,294.9375 158.2797,294.8594 Q158.4281,294.7813 158.6313,294.7813 Q158.9594,294.7813 159.2172,295.0391 Q159.475,295.2969 159.475,295.6406 Q159.475,295.9844 159.1313,296.3906 Q158.6313,296.9688 157.8344,297.2969 Q156.7563,297.75 155.4594,297.75 Q153.9438,297.75 152.7406,297.125 Q151.7563,296.625 151.0688,295.5547 Q150.3813,294.4844 150.3813,293.2031 L150.3813,292.0469 Q150.3813,290.7188 150.9984,289.5703 Q151.6156,288.4219 152.7094,287.8047 Q153.8031,287.1875 155.0375,287.1875 Q155.7719,287.1875 156.4203,287.3516 Q157.0688,287.5156 157.6156,287.875 Z " fill="#000000"/><text fill="#000000" font-family="sans-serif" font-size="14" lengthAdjust="spacing" textLength="18" x="172.15" y="297.7285">TV</text><line style="stroke:#000000;stroke-width:0.5;" x1="126" x2="207" y1="308" y2="308"/><line style="stroke:#000000;stroke-width:0.5;" x1="126" x2="207" y1="316" y2="316"/><text fill="#000000" font-family="sans-serif" font-size="14" lengthAdjust="spacing" textLength="65" x="131" y="334.5332">+Allumer()</text><text fill="#000000" font-family="sans-serif" font-size="14" lengthAdjust="spacing" textLength="71" x="131" y="352.1426">+Eteindre()</text></g><!--link Bouton to Commutable--><g id="link_Bouton_Commutable"><path codeLine="10" d="M107.5,73.07 C107.5,91 107.5,107.51 107.5,126.68 " fill="none" id="Bouton-to-Commutable" style="stroke:#181818;stroke-width:1.0;"/><polygon fill="#181818" points="107.5,132.68,111.5,123.68,107.5,127.68,103.5,123.68,107.5,132.68" style="stroke:#181818;stroke-width:1.0;"/></g><!--reverse link Commutable to Lampe--><g id="link_Commutable_Lampe"><path codeLine="11" d="M83.4886,232.8878 C75.6686,251.5978 73.35,257.11 65.53,275.81 " fill="none" id="Commutable-backto-Lampe" style="stroke:#181818;stroke-width:1.0;stroke-dasharray:7.0,7.0;"/><polygon fill="none" points="90.43,216.28,77.9527,230.574,89.0246,235.2015,90.43,216.28" style="stroke:#181818;stroke-width:1.0;"/></g><!--reverse link Commutable to TV--><g id="link_Commutable_TV"><path codeLine="12" d="M131.5114,232.8878 C139.3314,251.5978 141.65,257.11 149.47,275.81 " fill="none" id="Commutable-backto-TV" style="stroke:#181818;stroke-width:1.0;stroke-dasharray:7.0,7.0;"/><polygon fill="none" points="124.57,216.28,125.9754,235.2015,137.0473,230.574,124.57,216.28" style="stroke:#181818;stroke-width:1.0;"/></g><!--SRC=[bKxDIWD13BxdAG8ULAHb7q24Tkb1y6Pfp-bkt0sTcIpP3DfMtzt54QjuqPoIBz_Vk9Sqa5749j0uBjnDTjdvlj7qA4V62iQV53m1JhEaPj-PvjJM6jHmsujp-QYrR0MzgAeAte12qESeBv8wkCIpOP34VXWOrRnNWALcruIpsHtM6cDssWM6yugth_CvFb0SVgFh3K0f-EbIUjvWtLFgs5PEVdKzbG59plP43NyB-M8lGiYHRMAMU-KigJKkqXBmKU1VYlNcZ_Ht]--></g></svg>