<?xml version="1.0" encoding="us-ascii" standalone="no"?><svg xmlns="http://www.w3.org/2000/svg" xmlns:xlink="http://www.w3.org/1999/xlink" contentStyleType="text/css" height="383px" preserveAspectRatio="none" style="width:429px;height:383px;background:#FFFFFF;" version="1.1" viewBox="0 0 429 383" width="429px" zoomAndPan="magnify"><defs/><g><!--class Panier--><g id="elem_Panier"><rect codeLine="16" fill="#FFFFFF" height="83.2188" id="Panier" rx="2.5" ry="2.5" style="stroke:#000000;stroke-width:0.5;" width="168" x="77" y="168"/><ellipse cx="136.25" cy="184" fill="#ADD1B2" rx="11" ry="11" style="stroke:#181818;stroke-width:1.0;"/><path d="M139.0156,179.875 Q139.1719,179.6563 139.3594,179.5469 Q139.5469,179.4375 139.7656,179.4375 Q140.1406,179.4375 140.375,179.6953 Q140.6094,179.9531 140.6094,180.5625 L140.6094,182.0156 Q140.6094,182.625 140.375,182.8906 Q140.1406,183.1563 139.7656,183.1563 Q139.4219,183.1563 139.2188,182.9531 Q139.0156,182.7656 138.9063,182.25 Q138.8594,181.8906 138.6719,181.7031 Q138.3438,181.3281 137.7344,181.1094 Q137.125,180.8906 136.5,180.8906 Q135.7344,180.8906 135.1016,181.2188 Q134.4688,181.5469 133.9766,182.2969 Q133.4844,183.0469 133.4844,184.0781 L133.4844,185.1719 Q133.4844,186.4063 134.375,187.2266 Q135.2656,188.0469 136.8594,188.0469 Q137.7969,188.0469 138.4531,187.7969 Q138.8438,187.6406 139.2656,187.2031 Q139.5313,186.9375 139.6797,186.8594 Q139.8281,186.7813 140.0313,186.7813 Q140.3594,186.7813 140.6172,187.0391 Q140.875,187.2969 140.875,187.6406 Q140.875,187.9844 140.5313,188.3906 Q140.0313,188.9688 139.2344,189.2969 Q138.1563,189.75 136.8594,189.75 Q135.3438,189.75 134.1406,189.125 Q133.1563,188.625 132.4688,187.5547 Q131.7813,186.4844 131.7813,185.2031 L131.7813,184.0469 Q131.7813,182.7188 132.3984,181.5703 Q133.0156,180.4219 134.1094,179.8047 Q135.2031,179.1875 136.4375,179.1875 Q137.1719,179.1875 137.8203,179.3516 Q138.4688,179.5156 139.0156,179.875 Z " fill="#000000"/><text fill="#000000" font-family="sans-serif" font-size="14" lengthAdjust="spacing" textLength="41" x="156.75" y="189.7285">Panier</text><line style="stroke:#000000;stroke-width:0.5;" x1="78" x2="244" y1="200" y2="200"/><line style="stroke:#000000;stroke-width:0.5;" x1="78" x2="244" y1="208" y2="208"/><text fill="#000000" font-family="sans-serif" font-size="14" lengthAdjust="spacing" textLength="152" x="83" y="226.5332">+Ajouter(article : Article)</text><text fill="#000000" font-family="sans-serif" font-size="14" lengthAdjust="spacing" textLength="156" x="83" y="244.1426">+Annuler(article : Article)</text></g><!--class Article--><g id="elem_Article"><rect codeLine="12" fill="#FFFFFF" height="65.6094" id="Article" rx="2.5" ry="2.5" style="stroke:#000000;stroke-width:0.5;" width="84" x="119" y="311"/><ellipse cx="139.85" cy="327" fill="#ADD1B2" rx="11" ry="11" style="stroke:#181818;stroke-width:1.0;"/><path d="M142.6156,322.875 Q142.7719,322.6563 142.9594,322.5469 Q143.1469,322.4375 143.3656,322.4375 Q143.7406,322.4375 143.975,322.6953 Q144.2094,322.9531 144.2094,323.5625 L144.2094,325.0156 Q144.2094,325.625 143.975,325.8906 Q143.7406,326.1563 143.3656,326.1563 Q143.0219,326.1563 142.8188,325.9531 Q142.6156,325.7656 142.5063,325.25 Q142.4594,324.8906 142.2719,324.7031 Q141.9438,324.3281 141.3344,324.1094 Q140.725,323.8906 140.1,323.8906 Q139.3344,323.8906 138.7016,324.2188 Q138.0688,324.5469 137.5766,325.2969 Q137.0844,326.0469 137.0844,327.0781 L137.0844,328.1719 Q137.0844,329.4063 137.975,330.2266 Q138.8656,331.0469 140.4594,331.0469 Q141.3969,331.0469 142.0531,330.7969 Q142.4438,330.6406 142.8656,330.2031 Q143.1313,329.9375 143.2797,329.8594 Q143.4281,329.7813 143.6313,329.7813 Q143.9594,329.7813 144.2172,330.0391 Q144.475,330.2969 144.475,330.6406 Q144.475,330.9844 144.1313,331.3906 Q143.6313,331.9688 142.8344,332.2969 Q141.7563,332.75 140.4594,332.75 Q138.9438,332.75 137.7406,332.125 Q136.7563,331.625 136.0688,330.5547 Q135.3813,329.4844 135.3813,328.2031 L135.3813,327.0469 Q135.3813,325.7188 135.9984,324.5703 Q136.6156,323.4219 137.7094,322.8047 Q138.8031,322.1875 140.0375,322.1875 Q140.7719,322.1875 141.4203,322.3516 Q142.0688,322.5156 142.6156,322.875 Z " fill="#000000"/><text fill="#000000" font-family="sans-serif" font-size="14" lengthAdjust="spacing" textLength="39" x="155.15" y="332.7285">Article</text><line style="stroke:#000000;stroke-width:0.5;" x1="120" x2="202" y1="343" y2="343"/><line style="stroke:#000000;stroke-width:0.5;" x1="120" x2="202" y1="351" y2="351"/><text fill="#000000" font-family="sans-serif" font-size="14" lengthAdjust="spacing" textLength="72" x="125" y="369.5332">+Imprimer()</text></g><!--class Facture--><g id="elem_Facture"><rect codeLine="21" fill="#FFFFFF" height="65.6094" id="Facture" rx="2.5" ry="2.5" style="stroke:#000000;stroke-width:0.5;" width="84" x="7" y="24.5"/><ellipse cx="23.35" cy="40.5" fill="#ADD1B2" rx="11" ry="11" style="stroke:#181818;stroke-width:1.0;"/><path d="M26.1156,36.375 Q26.2719,36.1563 26.4594,36.0469 Q26.6469,35.9375 26.8656,35.9375 Q27.2406,35.9375 27.475,36.1953 Q27.7094,36.4531 27.7094,37.0625 L27.7094,38.5156 Q27.7094,39.125 27.475,39.3906 Q27.2406,39.6563 26.8656,39.6563 Q26.5219,39.6563 26.3188,39.4531 Q26.1156,39.2656 26.0063,38.75 Q25.9594,38.3906 25.7719,38.2031 Q25.4438,37.8281 24.8344,37.6094 Q24.225,37.3906 23.6,37.3906 Q22.8344,37.3906 22.2016,37.7188 Q21.5688,38.0469 21.0766,38.7969 Q20.5844,39.5469 20.5844,40.5781 L20.5844,41.6719 Q20.5844,42.9063 21.475,43.7266 Q22.3656,44.5469 23.9594,44.5469 Q24.8969,44.5469 25.5531,44.2969 Q25.9438,44.1406 26.3656,43.7031 Q26.6313,43.4375 26.7797,43.3594 Q26.9281,43.2813 27.1313,43.2813 Q27.4594,43.2813 27.7172,43.5391 Q27.975,43.7969 27.975,44.1406 Q27.975,44.4844 27.6313,44.8906 Q27.1313,45.4688 26.3344,45.7969 Q25.2563,46.25 23.9594,46.25 Q22.4438,46.25 21.2406,45.625 Q20.2563,45.125 19.5688,44.0547 Q18.8813,42.9844 18.8813,41.7031 L18.8813,40.5469 Q18.8813,39.2188 19.4984,38.0703 Q20.1156,36.9219 21.2094,36.3047 Q22.3031,35.6875 23.5375,35.6875 Q24.2719,35.6875 24.9203,35.8516 Q25.5688,36.0156 26.1156,36.375 Z " fill="#000000"/><text fill="#000000" font-family="sans-serif" font-size="14" lengthAdjust="spacing" textLength="49" x="37.65" y="46.2285">Facture</text><line style="stroke:#000000;stroke-width:0.5;" x1="8" x2="90" y1="56.5" y2="56.5"/><line style="stroke:#000000;stroke-width:0.5;" x1="8" x2="90" y1="64.5" y2="64.5"/><text fill="#000000" font-family="sans-serif" font-size="14" lengthAdjust="spacing" textLength="72" x="13" y="83.0332">+Imprimer()</text></g><!--class DAOPanier--><g id="elem_DAOPanier"><rect codeLine="25" fill="#FFFFFF" height="100.8281" id="DAOPanier" rx="2.5" ry="2.5" style="stroke:#000000;stroke-width:0.5;" width="296" x="126" y="7"/><ellipse cx="234.25" cy="23" fill="#ADD1B2" rx="11" ry="11" style="stroke:#181818;stroke-width:1.0;"/><path d="M237.0156,18.875 Q237.1719,18.6563 237.3594,18.5469 Q237.5469,18.4375 237.7656,18.4375 Q238.1406,18.4375 238.375,18.6953 Q238.6094,18.9531 238.6094,19.5625 L238.6094,21.0156 Q238.6094,21.625 238.375,21.8906 Q238.1406,22.1563 237.7656,22.1563 Q237.4219,22.1563 237.2188,21.9531 Q237.0156,21.7656 236.9063,21.25 Q236.8594,20.8906 236.6719,20.7031 Q236.3438,20.3281 235.7344,20.1094 Q235.125,19.8906 234.5,19.8906 Q233.7344,19.8906 233.1016,20.2188 Q232.4688,20.5469 231.9766,21.2969 Q231.4844,22.0469 231.4844,23.0781 L231.4844,24.1719 Q231.4844,25.4063 232.375,26.2266 Q233.2656,27.0469 234.8594,27.0469 Q235.7969,27.0469 236.4531,26.7969 Q236.8438,26.6406 237.2656,26.2031 Q237.5313,25.9375 237.6797,25.8594 Q237.8281,25.7813 238.0313,25.7813 Q238.3594,25.7813 238.6172,26.0391 Q238.875,26.2969 238.875,26.6406 Q238.875,26.9844 238.5313,27.3906 Q238.0313,27.9688 237.2344,28.2969 Q236.1563,28.75 234.8594,28.75 Q233.3438,28.75 232.1406,28.125 Q231.1563,27.625 230.4688,26.5547 Q229.7813,25.4844 229.7813,24.2031 L229.7813,23.0469 Q229.7813,21.7188 230.3984,20.5703 Q231.0156,19.4219 232.1094,18.8047 Q233.2031,18.1875 234.4375,18.1875 Q235.1719,18.1875 235.8203,18.3516 Q236.4688,18.5156 237.0156,18.875 Z " fill="#000000"/><text fill="#000000" font-family="sans-serif" font-size="14" lengthAdjust="spacing" textLength="71" x="254.75" y="28.7285">DAOPanier</text><line style="stroke:#000000;stroke-width:0.5;" x1="127" x2="421" y1="39" y2="39"/><line style="stroke:#000000;stroke-width:0.5;" x1="127" x2="421" y1="47" y2="47"/><text fill="#000000" font-family="sans-serif" font-size="14" lengthAdjust="spacing" textLength="100" x="132" y="65.5332">+Sauvegarder()</text><text fill="#000000" font-family="sans-serif" font-size="14" lengthAdjust="spacing" textLength="284" x="132" y="83.1426">+Charger(numeroReference : string) : Panier</text><text fill="#000000" font-family="sans-serif" font-size="14" lengthAdjust="spacing" textLength="30" x="132" y="100.752">+...()</text></g><!--link Panier to Article--><g id="link_Panier_Article"><path codeLine="8" d="M161,251.34 C161,270.5 161,287 161,304.92 " fill="none" id="Panier-to-Article" style="stroke:#181818;stroke-width:1.0;"/><polygon fill="#181818" points="161,310.92,165,301.92,161,305.92,157,301.92,161,310.92" style="stroke:#181818;stroke-width:1.0;"/><text fill="#000000" font-family="sans-serif" font-size="13" lengthAdjust="spacing" textLength="5" x="155.4844" y="300.0189">*</text></g><!--link Facture to Panier--><g id="link_Facture_Panier"><path codeLine="9" d="M73.03,90.68 C89.87,113.23 108.9205,138.7522 127.0105,162.9822 " fill="none" id="Facture-to-Panier" style="stroke:#181818;stroke-width:1.0;"/><polygon fill="#181818" points="130.6,167.79,128.421,158.1852,127.6087,163.7835,122.0105,162.9712,130.6,167.79" style="stroke:#181818;stroke-width:1.0;"/><text fill="#000000" font-family="sans-serif" font-size="13" lengthAdjust="spacing" textLength="7" x="117.9853" y="157.0629">1</text></g><!--link DAOPanier to Panier--><g id="link_DAOPanier_Panier"><path codeLine="10" d="M236.69,108.03 C222.16,127.32 209.3208,144.3581 195.4708,162.7381 " fill="none" id="DAOPanier-to-Panier" style="stroke:#181818;stroke-width:1.0;stroke-dasharray:7.0,7.0;"/><polygon fill="#181818" points="191.86,167.53,200.4708,162.7494,194.869,163.5368,194.0817,157.935,191.86,167.53" style="stroke:#181818;stroke-width:1.0;"/></g><!--SRC=[VP0nJyGm38Nt_0ghB2teeh8od5GE8Tq4uWPcapEzSArpSX864F-Tb2GW94IcvELxVhRzqV891MSm4te_X23sAGRQ6iSx-qRGA_yRWNS5wLoZEOxY8kytRd82ZmSRAFyusPDazQplU_MXr3so9O7LQWtDUGE316icKhTeGXJA-cK36LCtmrqnQBskeihfnLgwk83jV18xaxJTafEPOgx8yEBIHD9YiLxL8bq5cEFqD_1TixRwN-vFtvNQONob4PU5j3LjSq0PqvjZihi7UYOXDakgJyldiKktCdCsQAs_KZu1]--></g></svg>