<?xml version="1.0" encoding="UTF-8" standalone="no"?><svg xmlns="http://www.w3.org/2000/svg" xmlns:xlink="http://www.w3.org/1999/xlink" contentScriptType="application/ecmascript" contentStyleType="text/css" height="374px" preserveAspectRatio="none" style="width:886px;height:374px;" version="1.1" viewBox="0 0 886 374" width="886px" zoomAndPan="magnify"><defs><filter height="300%" id="f168he3c64rg5t" width="300%" x="-1" y="-1"><feGaussianBlur result="blurOut" stdDeviation="2.0"/><feColorMatrix in="blurOut" result="blurOut2" type="matrix" values="0 0 0 0 0 0 0 0 0 0 0 0 0 0 0 0 0 0 .4 0"/><feOffset dx="4.0" dy="4.0" in="blurOut2" result="blurOut3"/><feBlend in="SourceGraphic" in2="blurOut3" mode="normal"/></filter></defs><g><!--MD5=[549ff358cecbd916f4ce2511ce44e009]
class ATM--><rect fill="#FFFFFF" filter="url(#f168he3c64rg5t)" height="99.8203" id="ATM" style="stroke: #000000; stroke-width: 1.5;" width="283" x="253" y="8"/><ellipse cx="377.25" cy="24" fill="#ADD1B2" rx="11" ry="11" style="stroke: #000000; stroke-width: 1.0;"/><path d="M379.7231,30.1431 Q379.1421,30.4419 378.5029,30.5913 Q377.8638,30.7407 377.1582,30.7407 Q374.6514,30.7407 373.3315,29.0889 Q372.0117,27.437 372.0117,24.3159 Q372.0117,21.1865 373.3315,19.5347 Q374.6514,17.8828 377.1582,17.8828 Q377.8638,17.8828 378.5112,18.0322 Q379.1587,18.1816 379.7231,18.4805 L379.7231,21.2031 Q379.0923,20.6221 378.4988,20.3523 Q377.9053,20.0825 377.2744,20.0825 Q375.9297,20.0825 375.2449,21.1492 Q374.5601,22.2158 374.5601,24.3159 Q374.5601,26.4077 375.2449,27.4744 Q375.9297,28.541 377.2744,28.541 Q377.9053,28.541 378.4988,28.2712 Q379.0923,28.0015 379.7231,27.4204 Z "/><text fill="#000000" font-family="sans-serif" font-size="12" lengthAdjust="spacingAndGlyphs" textLength="26" x="397.75" y="28.5352">ATM</text><line style="stroke: #000000; stroke-width: 1.5;" x1="254" x2="535" y1="40" y2="40"/><text fill="#000000" font-family="sans-serif" font-size="11" lengthAdjust="spacingAndGlyphs" textLength="145" x="259" y="54.6348">-m_typeTiroir : TypeTirroir</text><text fill="#000000" font-family="sans-serif" font-size="11" lengthAdjust="spacingAndGlyphs" textLength="165" x="259" y="67.5898">-m_tiroirArgent : ITiroirArgent</text><line style="stroke: #000000; stroke-width: 1.5;" x1="254" x2="535" y1="73.9102" y2="73.9102"/><text fill="#000000" font-family="sans-serif" font-size="11" lengthAdjust="spacingAndGlyphs" textLength="177" x="259" y="88.5449">+ATM(p_typeTiroir : TypeTirroir)</text><text fill="#000000" font-family="sans-serif" font-size="11" lengthAdjust="spacingAndGlyphs" textLength="271" x="259" y="101.5">+Retirer(p_compte : Compte, p_montant : decimal)</text><!--MD5=[a4e461e1469c6fcfa6bc47494d8d23ba]
class TypeTirroir--><rect fill="#FFFFFF" filter="url(#f168he3c64rg5t)" height="86.8652" id="TypeTirroir" style="stroke: #000000; stroke-width: 1.5;" width="97" x="6" y="168"/><ellipse cx="21" cy="184" fill="#EB937F" rx="11" ry="11" style="stroke: #000000; stroke-width: 1.0;"/><path d="M24.6143,190.5 L16.8945,190.5 L16.8945,178.1069 L24.6143,178.1069 L24.6143,180.2651 L19.3433,180.2651 L19.3433,182.938 L24.1162,182.938 L24.1162,185.0962 L19.3433,185.0962 L19.3433,188.3418 L24.6143,188.3418 Z "/><text fill="#000000" font-family="sans-serif" font-size="12" lengthAdjust="spacingAndGlyphs" textLength="65" x="35" y="188.5352">TypeTirroir</text><line style="stroke: #000000; stroke-width: 1.5;" x1="7" x2="102" y1="200" y2="200"/><text fill="#000000" font-family="sans-serif" font-size="11" lengthAdjust="spacingAndGlyphs" textLength="26" x="12" y="214.6348">COM</text><text fill="#000000" font-family="sans-serif" font-size="11" lengthAdjust="spacingAndGlyphs" textLength="19" x="12" y="227.5898">LPT</text><text fill="#000000" font-family="sans-serif" font-size="11" lengthAdjust="spacingAndGlyphs" textLength="20" x="12" y="240.5449">USB</text><line style="stroke: #000000; stroke-width: 1.5;" x1="7" x2="102" y1="246.8652" y2="246.8652"/><!--MD5=[dc348672d8ba7a00bad9c81946fd5fe3]
class ITiroirArgent--><rect fill="#FFFFFF" filter="url(#f168he3c64rg5t)" height="60.9551" id="ITiroirArgent" style="stroke: #000000; stroke-width: 1.5;" width="228" x="280.5" y="181"/><ellipse cx="354.25" cy="197" fill="#B4A7E5" rx="11" ry="11" style="stroke: #000000; stroke-width: 1.0;"/><path d="M350.6777,193.2651 L350.6777,191.1069 L358.0571,191.1069 L358.0571,193.2651 L355.5918,193.2651 L355.5918,201.3418 L358.0571,201.3418 L358.0571,203.5 L350.6777,203.5 L350.6777,201.3418 L353.1431,201.3418 L353.1431,193.2651 Z "/><text fill="#000000" font-family="sans-serif" font-size="12" font-style="italic" lengthAdjust="spacingAndGlyphs" textLength="72" x="374.75" y="201.5352">ITiroirArgent</text><line style="stroke: #000000; stroke-width: 1.5;" x1="281.5" x2="507.5" y1="213" y2="213"/><line style="stroke: #000000; stroke-width: 1.5;" x1="281.5" x2="507.5" y1="221" y2="221"/><text fill="#000000" font-family="sans-serif" font-size="11" lengthAdjust="spacingAndGlyphs" textLength="216" x="286.5" y="235.6348">+DistribuerArgent(p_montant : decimal)</text><!--MD5=[be62dc20b249d0ca4a916cfe69f0dc93]
class TiroirArgentCOM--><rect fill="#FFFFFF" filter="url(#f168he3c64rg5t)" height="48" id="TiroirArgentCOM" style="stroke: #000000; stroke-width: 1.5;" width="128" x="131.5" y="315"/><ellipse cx="146.5" cy="331" fill="#ADD1B2" rx="11" ry="11" style="stroke: #000000; stroke-width: 1.0;"/><path d="M148.9731,337.1431 Q148.3921,337.4419 147.7529,337.5913 Q147.1138,337.7407 146.4082,337.7407 Q143.9014,337.7407 142.5815,336.0889 Q141.2617,334.437 141.2617,331.3159 Q141.2617,328.1865 142.5815,326.5347 Q143.9014,324.8828 146.4082,324.8828 Q147.1138,324.8828 147.7612,325.0322 Q148.4087,325.1816 148.9731,325.4805 L148.9731,328.2031 Q148.3423,327.6221 147.7488,327.3523 Q147.1553,327.0825 146.5244,327.0825 Q145.1797,327.0825 144.4949,328.1492 Q143.8101,329.2158 143.8101,331.3159 Q143.8101,333.4077 144.4949,334.4744 Q145.1797,335.541 146.5244,335.541 Q147.1553,335.541 147.7488,335.2712 Q148.3423,335.0015 148.9731,334.4204 Z "/><text fill="#000000" font-family="sans-serif" font-size="12" lengthAdjust="spacingAndGlyphs" textLength="96" x="160.5" y="335.5352">TiroirArgentCOM</text><line style="stroke: #000000; stroke-width: 1.5;" x1="132.5" x2="258.5" y1="347" y2="347"/><line style="stroke: #000000; stroke-width: 1.5;" x1="132.5" x2="258.5" y1="355" y2="355"/><!--MD5=[a42bb2b4b977cb7af457966cc984d67d]
class TiroirArgentLPT--><rect fill="#FFFFFF" filter="url(#f168he3c64rg5t)" height="48" id="TiroirArgentLPT" style="stroke: #000000; stroke-width: 1.5;" width="122" x="313.5" y="315"/><ellipse cx="328.5" cy="331" fill="#ADD1B2" rx="11" ry="11" style="stroke: #000000; stroke-width: 1.0;"/><path d="M330.9731,337.1431 Q330.3921,337.4419 329.7529,337.5913 Q329.1138,337.7407 328.4082,337.7407 Q325.9014,337.7407 324.5815,336.0889 Q323.2617,334.437 323.2617,331.3159 Q323.2617,328.1865 324.5815,326.5347 Q325.9014,324.8828 328.4082,324.8828 Q329.1138,324.8828 329.7612,325.0322 Q330.4087,325.1816 330.9731,325.4805 L330.9731,328.2031 Q330.3423,327.6221 329.7488,327.3523 Q329.1553,327.0825 328.5244,327.0825 Q327.1797,327.0825 326.4949,328.1492 Q325.8101,329.2158 325.8101,331.3159 Q325.8101,333.4077 326.4949,334.4744 Q327.1797,335.541 328.5244,335.541 Q329.1553,335.541 329.7488,335.2712 Q330.3423,335.0015 330.9731,334.4204 Z "/><text fill="#000000" font-family="sans-serif" font-size="12" lengthAdjust="spacingAndGlyphs" textLength="90" x="342.5" y="335.5352">TiroirArgentLPT</text><line style="stroke: #000000; stroke-width: 1.5;" x1="314.5" x2="434.5" y1="347" y2="347"/><line style="stroke: #000000; stroke-width: 1.5;" x1="314.5" x2="434.5" y1="355" y2="355"/><!--MD5=[d16966432e5c9bc2f621fb2255af781d]
class TiroirArgentUSB--><rect fill="#FFFFFF" filter="url(#f168he3c64rg5t)" height="48" id="TiroirArgentUSB" style="stroke: #000000; stroke-width: 1.5;" width="122" x="485.5" y="315"/><ellipse cx="500.5" cy="331" fill="#ADD1B2" rx="11" ry="11" style="stroke: #000000; stroke-width: 1.0;"/><path d="M502.9731,337.1431 Q502.3921,337.4419 501.7529,337.5913 Q501.1138,337.7407 500.4082,337.7407 Q497.9014,337.7407 496.5815,336.0889 Q495.2617,334.437 495.2617,331.3159 Q495.2617,328.1865 496.5815,326.5347 Q497.9014,324.8828 500.4082,324.8828 Q501.1138,324.8828 501.7612,325.0322 Q502.4087,325.1816 502.9731,325.4805 L502.9731,328.2031 Q502.3423,327.6221 501.7488,327.3523 Q501.1553,327.0825 500.5244,327.0825 Q499.1797,327.0825 498.4949,328.1492 Q497.8101,329.2158 497.8101,331.3159 Q497.8101,333.4077 498.4949,334.4744 Q499.1797,335.541 500.5244,335.541 Q501.1553,335.541 501.7488,335.2712 Q502.3423,335.0015 502.9731,334.4204 Z "/><text fill="#000000" font-family="sans-serif" font-size="12" lengthAdjust="spacingAndGlyphs" textLength="90" x="514.5" y="335.5352">TiroirArgentUSB</text><line style="stroke: #000000; stroke-width: 1.5;" x1="486.5" x2="606.5" y1="347" y2="347"/><line style="stroke: #000000; stroke-width: 1.5;" x1="486.5" x2="606.5" y1="355" y2="355"/><!--MD5=[55a9f513ff876a6970678761cb3a400d]
class Compte--><rect fill="#FFFFFF" filter="url(#f168he3c64rg5t)" height="48" id="Compte" style="stroke: #000000; stroke-width: 1.5;" width="77" x="615" y="187.5"/><ellipse cx="630" cy="203.5" fill="#ADD1B2" rx="11" ry="11" style="stroke: #000000; stroke-width: 1.0;"/><path d="M632.4731,209.6431 Q631.8921,209.9419 631.2529,210.0913 Q630.6138,210.2407 629.9082,210.2407 Q627.4014,210.2407 626.0815,208.5889 Q624.7617,206.937 624.7617,203.8159 Q624.7617,200.6865 626.0815,199.0347 Q627.4014,197.3828 629.9082,197.3828 Q630.6138,197.3828 631.2612,197.5322 Q631.9087,197.6816 632.4731,197.9805 L632.4731,200.7031 Q631.8423,200.1221 631.2488,199.8523 Q630.6553,199.5825 630.0244,199.5825 Q628.6797,199.5825 627.9949,200.6492 Q627.3101,201.7158 627.3101,203.8159 Q627.3101,205.9077 627.9949,206.9744 Q628.6797,208.041 630.0244,208.041 Q630.6553,208.041 631.2488,207.7712 Q631.8423,207.5015 632.4731,206.9204 Z "/><text fill="#000000" font-family="sans-serif" font-size="12" lengthAdjust="spacingAndGlyphs" textLength="45" x="644" y="208.0352">Compte</text><line style="stroke: #000000; stroke-width: 1.5;" x1="616" x2="691" y1="219.5" y2="219.5"/><line style="stroke: #000000; stroke-width: 1.5;" x1="616" x2="691" y1="227.5" y2="227.5"/><!--MD5=[a61b5a58fa153427499d8717e23138e9]
class TransactionRetrait--><rect fill="#FFFFFF" filter="url(#f168he3c64rg5t)" height="86.8652" id="TransactionRetrait" style="stroke: #000000; stroke-width: 1.5;" width="148" x="727.5" y="168"/><ellipse cx="747.45" cy="184" fill="#ADD1B2" rx="11" ry="11" style="stroke: #000000; stroke-width: 1.0;"/><path d="M749.9231,190.1431 Q749.3421,190.4419 748.7029,190.5913 Q748.0638,190.7407 747.3582,190.7407 Q744.8514,190.7407 743.5315,189.0889 Q742.2117,187.437 742.2117,184.3159 Q742.2117,181.1865 743.5315,179.5347 Q744.8514,177.8828 747.3582,177.8828 Q748.0638,177.8828 748.7112,178.0322 Q749.3587,178.1816 749.9231,178.4805 L749.9231,181.2031 Q749.2923,180.6221 748.6988,180.3523 Q748.1053,180.0825 747.4744,180.0825 Q746.1297,180.0825 745.4449,181.1492 Q744.7601,182.2158 744.7601,184.3159 Q744.7601,186.4077 745.4449,187.4744 Q746.1297,188.541 747.4744,188.541 Q748.1053,188.541 748.6988,188.2712 Q749.2923,188.0015 749.9231,187.4204 Z "/><text fill="#000000" font-family="sans-serif" font-size="12" lengthAdjust="spacingAndGlyphs" textLength="105" x="762.55" y="188.5352">TransactionRetrait</text><line style="stroke: #000000; stroke-width: 1.5;" x1="728.5" x2="874.5" y1="200" y2="200"/><line style="stroke: #000000; stroke-width: 1.5;" x1="728.5" x2="874.5" y1="208" y2="208"/><text fill="#000000" font-family="sans-serif" font-size="11" lengthAdjust="spacingAndGlyphs" textLength="98" x="733.5" y="222.6348">+EstValide() : bool</text><text fill="#000000" font-family="sans-serif" font-size="11" lengthAdjust="spacingAndGlyphs" textLength="136" x="733.5" y="235.5898">+ConfirmerTransaction()</text><text fill="#000000" font-family="sans-serif" font-size="11" lengthAdjust="spacingAndGlyphs" textLength="60" x="733.5" y="248.5449">+Annuler()</text><!--MD5=[69f690a2d91a70d8c77308dd75561cc7]
link ATM to TypeTirroir--><path d="M266.93,108.12 C223.18,125.9 174.24,146.83 130.5,168 C123.06,171.6 115.34,175.6 107.78,179.66 " fill="none" id="ATM-&gt;TypeTirroir" style="stroke: #A80036; stroke-width: 1.0;"/><polygon fill="#A80036" points="103.11,182.2,112.9274,181.4131,107.5022,179.8108,109.1046,174.3856,103.11,182.2" style="stroke: #A80036; stroke-width: 1.0;"/><text fill="#000000" font-family="sans-serif" font-size="13" lengthAdjust="spacingAndGlyphs" textLength="8" x="241.2503" y="128.464">1</text><text fill="#000000" font-family="sans-serif" font-size="13" lengthAdjust="spacingAndGlyphs" textLength="8" x="110.8371" y="174.3961">1</text><!--MD5=[eb99c36f224d2c934f0f352a44b691e7]
link ATM to ITiroirArgent--><path d="M394.5,108.19 C394.5,130.24 394.5,155.72 394.5,175.74 " fill="none" id="ATM-&gt;ITiroirArgent" style="stroke: #A80036; stroke-width: 1.0;"/><polygon fill="#A80036" points="394.5,180.97,398.5,171.97,394.5,175.97,390.5,171.97,394.5,180.97" style="stroke: #A80036; stroke-width: 1.0;"/><text fill="#000000" font-family="sans-serif" font-size="13" lengthAdjust="spacingAndGlyphs" textLength="8" x="385.9625" y="128.5434">1</text><text fill="#000000" font-family="sans-serif" font-size="13" lengthAdjust="spacingAndGlyphs" textLength="8" x="385.625" y="170.2582">1</text><!--MD5=[2de4f67e4d909d26fe19a20672ae7cc5]
link ATM to TiroirArgentCOM--><path d="M304.76,108.22 C281.66,124.59 258.76,144.7 242.5,168 C212.19,211.44 201.38,273.8 197.56,309.67 " fill="none" id="ATM-&gt;TiroirArgentCOM" style="stroke: #A80036; stroke-width: 1.0; stroke-dasharray: 7.0,7.0;"/><polygon fill="#A80036" points="197.04,314.77,201.9206,306.2155,197.5403,309.7951,193.9607,305.4149,197.04,314.77" style="stroke: #A80036; stroke-width: 1.0;"/><!--MD5=[a3cafdef21b0a561d3d47af5d9704901]
link ATM to TiroirArgentLPT--><path d="M312.28,108.21 C292.29,124.53 273.52,144.61 262.5,168 C246.02,202.98 245.11,220.47 262.5,255 C274.85,279.52 298.24,298.61 320.47,312.26 " fill="none" id="ATM-&gt;TiroirArgentLPT" style="stroke: #A80036; stroke-width: 1.0; stroke-dasharray: 7.0,7.0;"/><polygon fill="#A80036" points="324.9,314.92,319.2287,306.8679,320.6088,312.3538,315.1228,313.7339,324.9,314.92" style="stroke: #A80036; stroke-width: 1.0;"/><!--MD5=[a2108d6ff7f5d95288741aa20d8d4c99]
link ATM to TiroirArgentUSB--><path d="M473.92,108.26 C494.26,124.75 513.92,144.9 526.5,168 C551.03,213.02 551.58,274.56 549.33,309.92 " fill="none" id="ATM-&gt;TiroirArgentUSB" style="stroke: #A80036; stroke-width: 1.0; stroke-dasharray: 7.0,7.0;"/><polygon fill="#A80036" points="548.98,314.94,553.588,306.2356,549.323,309.9518,545.6069,305.6868,548.98,314.94" style="stroke: #A80036; stroke-width: 1.0;"/><!--MD5=[15c705e43b623bf115bd8b0a18d80b15]
link ATM to Compte--><path d="M484,108.13 C516.8,126.5 554.06,147.81 587.5,168 C596.22,173.27 605.48,179.08 614.22,184.68 " fill="none" id="ATM-&gt;Compte" style="stroke: #A80036; stroke-width: 1.0; stroke-dasharray: 7.0,7.0;"/><polygon fill="#A80036" points="618.46,187.4,613.0524,179.1685,614.2541,184.6962,608.7264,185.8979,618.46,187.4" style="stroke: #A80036; stroke-width: 1.0;"/><!--MD5=[8061216a55457c2d26b6331e7f10ff2b]
link ATM to TransactionRetrait--><path d="M536.34,104.73 C590.92,123.2 653.54,145.46 709.5,168 C713.81,169.74 718.22,171.57 722.65,173.46 " fill="none" id="ATM-&gt;TransactionRetrait" style="stroke: #A80036; stroke-width: 1.0; stroke-dasharray: 7.0,7.0;"/><polygon fill="#A80036" points="727.46,175.53,720.7715,168.3006,722.8665,173.5552,717.6119,175.6502,727.46,175.53" style="stroke: #A80036; stroke-width: 1.0;"/><!--MD5=[446ae26c9307d255a2629afd4b6ae928]
reverse link ITiroirArgent to TiroirArgentCOM--><path d="M330.25,253.02 C297.79,273.49 259.58,297.59 232.16,314.88 " fill="none" id="ITiroirArgent&lt;-TiroirArgentCOM" style="stroke: #A80036; stroke-width: 1.0;"/><polygon fill="none" points="326.94,246.83,347.59,242.08,334.41,258.67,326.94,246.83" style="stroke: #A80036; stroke-width: 1.0;"/><!--MD5=[2ab151a01331497284c953cc2aeb3b74]
reverse link ITiroirArgent to TiroirArgentLPT--><path d="M386.59,262.11 C383.7,280.27 380.56,299.96 378.21,314.74 " fill="none" id="ITiroirArgent&lt;-TiroirArgentLPT" style="stroke: #A80036; stroke-width: 1.0;"/><polygon fill="none" points="379.7,260.89,389.76,242.24,393.53,263.09,379.7,260.89" style="stroke: #A80036; stroke-width: 1.0;"/><!--MD5=[5283b3e9ffb6821f47e8e2574e41101c]
reverse link ITiroirArgent to TiroirArgentUSB--><path d="M446.13,255.13 C470.29,275.07 498.11,298.05 518.33,314.74 " fill="none" id="ITiroirArgent&lt;-TiroirArgentUSB" style="stroke: #A80036; stroke-width: 1.0;"/><polygon fill="none" points="441.49,260.37,430.52,242.24,450.4,249.58,441.49,260.37" style="stroke: #A80036; stroke-width: 1.0;"/><!--MD5=[4826e354760a82b4cdfd802350a955bc]
@startuml DIP_v02_s01

skinparam classAttributeIconSize 0
skinparam class {
    BackgroundColor White
    BorderColor #000
}


ATM "1" - -> "1" TypeTirroir
ATM "1" - -> "1" ITiroirArgent

ATM ..> TiroirArgentCOM
ATM ..> TiroirArgentLPT
ATM ..> TiroirArgentUSB
ATM ..> Compte
ATM ..> TransactionRetrait

ITiroirArgent <|- - TiroirArgentCOM
ITiroirArgent <|- - TiroirArgentLPT
ITiroirArgent <|- - TiroirArgentUSB

enum TypeTirroir {
    COM
    LPT
    USB
}

class ATM {
    - m_typeTiroir : TypeTirroir
    - m_tiroirArgent : ITiroirArgent

    + ATM(p_typeTiroir : TypeTirroir)
    + Retirer(p_compte : Compte, p_montant : decimal)
}

class Compte {

}

interface ITiroirArgent {
    + DistribuerArgent(p_montant : decimal)
}

class TransactionRetrait {
   + EstValide() : bool
   + ConfirmerTransaction()
   + Annuler()
}

@enduml

PlantUML version 1.2020.10(Sun May 17 05:35:57 EDT 2020)
(GPL source distribution)
Java Runtime: OpenJDK Runtime Environment
JVM: OpenJDK 64-Bit Server VM
Java Version: 13.0.2+8
Operating System: Mac OS X
Default Encoding: UTF-8
Language: fr
Country: CA
--></g></svg>