<?xml version="1.0" encoding="us-ascii" standalone="no"?><svg xmlns="http://www.w3.org/2000/svg" xmlns:xlink="http://www.w3.org/1999/xlink" contentStyleType="text/css" height="401px" preserveAspectRatio="none" style="width:942px;height:401px;background:#FFFFFF;" version="1.1" viewBox="0 0 942 401" width="942px" zoomAndPan="magnify"><defs/><g><!--class ATM--><g id="elem_ATM"><rect codeLine="28" fill="#FFFFFF" height="118.4375" id="ATM" rx="2.5" ry="2.5" style="stroke:#000000;stroke-width:0.5;" width="331" x="250.5" y="7"/><ellipse cx="397.25" cy="23" fill="#ADD1B2" rx="11" ry="11" style="stroke:#181818;stroke-width:1.0;"/><path d="M400.0156,18.875 Q400.1719,18.6563 400.3594,18.5469 Q400.5469,18.4375 400.7656,18.4375 Q401.1406,18.4375 401.375,18.6953 Q401.6094,18.9531 401.6094,19.5625 L401.6094,21.0156 Q401.6094,21.625 401.375,21.8906 Q401.1406,22.1563 400.7656,22.1563 Q400.4219,22.1563 400.2188,21.9531 Q400.0156,21.7656 399.9063,21.25 Q399.8594,20.8906 399.6719,20.7031 Q399.3438,20.3281 398.7344,20.1094 Q398.125,19.8906 397.5,19.8906 Q396.7344,19.8906 396.1016,20.2188 Q395.4688,20.5469 394.9766,21.2969 Q394.4844,22.0469 394.4844,23.0781 L394.4844,24.1719 Q394.4844,25.4063 395.375,26.2266 Q396.2656,27.0469 397.8594,27.0469 Q398.7969,27.0469 399.4531,26.7969 Q399.8438,26.6406 400.2656,26.2031 Q400.5313,25.9375 400.6797,25.8594 Q400.8281,25.7813 401.0313,25.7813 Q401.3594,25.7813 401.6172,26.0391 Q401.875,26.2969 401.875,26.6406 Q401.875,26.9844 401.5313,27.3906 Q401.0313,27.9688 400.2344,28.2969 Q399.1563,28.75 397.8594,28.75 Q396.3438,28.75 395.1406,28.125 Q394.1563,27.625 393.4688,26.5547 Q392.7813,25.4844 392.7813,24.2031 L392.7813,23.0469 Q392.7813,21.7188 393.3984,20.5703 Q394.0156,19.4219 395.1094,18.8047 Q396.2031,18.1875 397.4375,18.1875 Q398.1719,18.1875 398.8203,18.3516 Q399.4688,18.5156 400.0156,18.875 Z " fill="#000000"/><text fill="#000000" font-family="sans-serif" font-size="14" lengthAdjust="spacing" textLength="29" x="417.75" y="28.7285">ATM</text><line style="stroke:#000000;stroke-width:0.5;" x1="251.5" x2="580.5" y1="39" y2="39"/><text fill="#000000" font-family="sans-serif" font-size="14" lengthAdjust="spacing" textLength="166" x="256.5" y="57.5332">-m_typeTiroir : TypeTirroir</text><text fill="#000000" font-family="sans-serif" font-size="14" lengthAdjust="spacing" textLength="184" x="256.5" y="75.1426">-m_tiroirArgent : ITiroirArgent</text><line style="stroke:#000000;stroke-width:0.5;" x1="251.5" x2="580.5" y1="82.2188" y2="82.2188"/><text fill="#000000" font-family="sans-serif" font-size="14" lengthAdjust="spacing" textLength="205" x="256.5" y="100.752">+ATM(p_typeTiroir : TypeTirroir)</text><text fill="#000000" font-family="sans-serif" font-size="14" lengthAdjust="spacing" textLength="319" x="256.5" y="118.3613">+Retirer(p_compte : Compte, p_montant : decimal)</text></g><!--class TypeTirroir--><g id="elem_TypeTirroir"><rect codeLine="22" fill="#FFFFFF" height="100.8281" id="TypeTirroir" rx="2.5" ry="2.5" style="stroke:#000000;stroke-width:0.5;" width="102" x="7" y="185"/><ellipse cx="22" cy="201" fill="#EB937F" rx="11" ry="11" style="stroke:#181818;stroke-width:1.0;"/><path d="M20.8594,201.7969 L20.8594,204.2969 L25.1875,204.2969 L25.1875,203.375 Q25.1875,202.7656 25.4297,202.5 Q25.6719,202.2344 26.0469,202.2344 Q26.4219,202.2344 26.6563,202.5 Q26.8906,202.7656 26.8906,203.375 L26.8906,206 L18.8906,206 Q18.2656,206 18.0078,205.7656 Q17.75,205.5313 17.75,205.1406 Q17.75,204.7656 18.0156,204.5313 Q18.2813,204.2969 18.8906,204.2969 L19.1563,204.2969 L19.1563,197.6406 L18.8906,197.6406 Q18.2656,197.6406 18.0078,197.4063 Q17.75,197.1719 17.75,196.7813 Q17.75,196.4063 18.0078,196.1719 Q18.2656,195.9375 18.8906,195.9375 L26.5156,195.9375 L26.5156,198.5313 Q26.5156,199.1406 26.2891,199.3984 Q26.0625,199.6563 25.6719,199.6563 Q25.2969,199.6563 25.0625,199.3984 Q24.8281,199.1406 24.8281,198.5313 L24.8281,197.6406 L20.8594,197.6406 L20.8594,200.0938 L22.3438,200.0938 Q22.3438,199.4375 22.4688,199.25 Q22.7344,198.8438 23.2031,198.8438 Q23.5781,198.8438 23.8125,199.1016 Q24.0469,199.3594 24.0469,199.9688 L24.0469,201.9375 Q24.0469,202.4844 23.9219,202.6719 Q23.6563,203.0625 23.2031,203.0625 Q22.7344,203.0625 22.4688,202.6563 Q22.3438,202.4688 22.3438,201.7969 L20.8594,201.7969 Z " fill="#000000"/><text fill="#000000" font-family="sans-serif" font-size="14" lengthAdjust="spacing" textLength="70" x="36" y="206.7285">TypeTirroir</text><line style="stroke:#000000;stroke-width:0.5;" x1="8" x2="108" y1="217" y2="217"/><text fill="#000000" font-family="sans-serif" font-size="14" lengthAdjust="spacing" textLength="32" x="13" y="235.5332">COM</text><text fill="#000000" font-family="sans-serif" font-size="14" lengthAdjust="spacing" textLength="26" x="13" y="253.1426">LPT</text><text fill="#000000" font-family="sans-serif" font-size="14" lengthAdjust="spacing" textLength="27" x="13" y="270.752">USB</text><line style="stroke:#000000;stroke-width:0.5;" x1="8" x2="108" y1="277.8281" y2="277.8281"/></g><!--class ITiroirArgent--><g id="elem_ITiroirArgent"><rect codeLine="40" fill="#FFFFFF" height="65.6094" id="ITiroirArgent" rx="2.5" ry="2.5" style="stroke:#000000;stroke-width:0.5;" width="260" x="286" y="202.5"/><ellipse cx="372.25" cy="218.5" fill="#B4A7E5" rx="11" ry="11" style="stroke:#181818;stroke-width:1.0;"/><path d="M373.2031,215.1406 L373.2031,221.7969 L374.9219,221.7969 Q375.5313,221.7969 375.7969,222.0313 Q376.0625,222.2656 376.0625,222.6563 Q376.0625,223.0313 375.7969,223.2656 Q375.5313,223.5 374.9219,223.5 L369.7813,223.5 Q369.1719,223.5 368.9063,223.2656 Q368.6406,223.0313 368.6406,222.6406 Q368.6406,222.2656 368.9063,222.0313 Q369.1719,221.7969 369.7813,221.7969 L371.5,221.7969 L371.5,215.1406 L369.7813,215.1406 Q369.1719,215.1406 368.9063,214.9063 Q368.6406,214.6719 368.6406,214.2813 Q368.6406,213.9063 368.9063,213.6719 Q369.1719,213.4375 369.7813,213.4375 L374.9219,213.4375 Q375.5313,213.4375 375.7969,213.6719 Q376.0625,213.9063 376.0625,214.2813 Q376.0625,214.6719 375.7969,214.9063 Q375.5313,215.1406 374.9219,215.1406 L373.2031,215.1406 Z " fill="#000000"/><text fill="#000000" font-family="sans-serif" font-size="14" font-style="italic" lengthAdjust="spacing" textLength="79" x="392.75" y="224.2285">ITiroirArgent</text><line style="stroke:#000000;stroke-width:0.5;" x1="287" x2="545" y1="234.5" y2="234.5"/><line style="stroke:#000000;stroke-width:0.5;" x1="287" x2="545" y1="242.5" y2="242.5"/><text fill="#000000" font-family="sans-serif" font-size="14" lengthAdjust="spacing" textLength="248" x="292" y="261.0332">+DistribuerArgent(p_montant : decimal)</text></g><!--class TiroirArgentCOM--><g id="elem_TiroirArgentCOM"><rect fill="#FFFFFF" height="48" id="TiroirArgentCOM" rx="2.5" ry="2.5" style="stroke:#000000;stroke-width:0.5;" width="139" x="133.5" y="346"/><ellipse cx="148.5" cy="362" fill="#ADD1B2" rx="11" ry="11" style="stroke:#181818;stroke-width:1.0;"/><path d="M151.2656,357.875 Q151.4219,357.6563 151.6094,357.5469 Q151.7969,357.4375 152.0156,357.4375 Q152.3906,357.4375 152.625,357.6953 Q152.8594,357.9531 152.8594,358.5625 L152.8594,360.0156 Q152.8594,360.625 152.625,360.8906 Q152.3906,361.1563 152.0156,361.1563 Q151.6719,361.1563 151.4688,360.9531 Q151.2656,360.7656 151.1563,360.25 Q151.1094,359.8906 150.9219,359.7031 Q150.5938,359.3281 149.9844,359.1094 Q149.375,358.8906 148.75,358.8906 Q147.9844,358.8906 147.3516,359.2188 Q146.7188,359.5469 146.2266,360.2969 Q145.7344,361.0469 145.7344,362.0781 L145.7344,363.1719 Q145.7344,364.4063 146.625,365.2266 Q147.5156,366.0469 149.1094,366.0469 Q150.0469,366.0469 150.7031,365.7969 Q151.0938,365.6406 151.5156,365.2031 Q151.7813,364.9375 151.9297,364.8594 Q152.0781,364.7813 152.2813,364.7813 Q152.6094,364.7813 152.8672,365.0391 Q153.125,365.2969 153.125,365.6406 Q153.125,365.9844 152.7813,366.3906 Q152.2813,366.9688 151.4844,367.2969 Q150.4063,367.75 149.1094,367.75 Q147.5938,367.75 146.3906,367.125 Q145.4063,366.625 144.7188,365.5547 Q144.0313,364.4844 144.0313,363.2031 L144.0313,362.0469 Q144.0313,360.7188 144.6484,359.5703 Q145.2656,358.4219 146.3594,357.8047 Q147.4531,357.1875 148.6875,357.1875 Q149.4219,357.1875 150.0703,357.3516 Q150.7188,357.5156 151.2656,357.875 Z " fill="#000000"/><text fill="#000000" font-family="sans-serif" font-size="14" lengthAdjust="spacing" textLength="107" x="162.5" y="367.7285">TiroirArgentCOM</text><line style="stroke:#000000;stroke-width:0.5;" x1="134.5" x2="271.5" y1="378" y2="378"/><line style="stroke:#000000;stroke-width:0.5;" x1="134.5" x2="271.5" y1="386" y2="386"/></g><!--class TiroirArgentLPT--><g id="elem_TiroirArgentLPT"><rect fill="#FFFFFF" height="48" id="TiroirArgentLPT" rx="2.5" ry="2.5" style="stroke:#000000;stroke-width:0.5;" width="133" x="328.5" y="346"/><ellipse cx="343.5" cy="362" fill="#ADD1B2" rx="11" ry="11" style="stroke:#181818;stroke-width:1.0;"/><path d="M346.2656,357.875 Q346.4219,357.6563 346.6094,357.5469 Q346.7969,357.4375 347.0156,357.4375 Q347.3906,357.4375 347.625,357.6953 Q347.8594,357.9531 347.8594,358.5625 L347.8594,360.0156 Q347.8594,360.625 347.625,360.8906 Q347.3906,361.1563 347.0156,361.1563 Q346.6719,361.1563 346.4688,360.9531 Q346.2656,360.7656 346.1563,360.25 Q346.1094,359.8906 345.9219,359.7031 Q345.5938,359.3281 344.9844,359.1094 Q344.375,358.8906 343.75,358.8906 Q342.9844,358.8906 342.3516,359.2188 Q341.7188,359.5469 341.2266,360.2969 Q340.7344,361.0469 340.7344,362.0781 L340.7344,363.1719 Q340.7344,364.4063 341.625,365.2266 Q342.5156,366.0469 344.1094,366.0469 Q345.0469,366.0469 345.7031,365.7969 Q346.0938,365.6406 346.5156,365.2031 Q346.7813,364.9375 346.9297,364.8594 Q347.0781,364.7813 347.2813,364.7813 Q347.6094,364.7813 347.8672,365.0391 Q348.125,365.2969 348.125,365.6406 Q348.125,365.9844 347.7813,366.3906 Q347.2813,366.9688 346.4844,367.2969 Q345.4063,367.75 344.1094,367.75 Q342.5938,367.75 341.3906,367.125 Q340.4063,366.625 339.7188,365.5547 Q339.0313,364.4844 339.0313,363.2031 L339.0313,362.0469 Q339.0313,360.7188 339.6484,359.5703 Q340.2656,358.4219 341.3594,357.8047 Q342.4531,357.1875 343.6875,357.1875 Q344.4219,357.1875 345.0703,357.3516 Q345.7188,357.5156 346.2656,357.875 Z " fill="#000000"/><text fill="#000000" font-family="sans-serif" font-size="14" lengthAdjust="spacing" textLength="101" x="357.5" y="367.7285">TiroirArgentLPT</text><line style="stroke:#000000;stroke-width:0.5;" x1="329.5" x2="460.5" y1="378" y2="378"/><line style="stroke:#000000;stroke-width:0.5;" x1="329.5" x2="460.5" y1="386" y2="386"/></g><!--class TiroirArgentUSB--><g id="elem_TiroirArgentUSB"><rect fill="#FFFFFF" height="48" id="TiroirArgentUSB" rx="2.5" ry="2.5" style="stroke:#000000;stroke-width:0.5;" width="134" x="514" y="346"/><ellipse cx="529" cy="362" fill="#ADD1B2" rx="11" ry="11" style="stroke:#181818;stroke-width:1.0;"/><path d="M531.7656,357.875 Q531.9219,357.6563 532.1094,357.5469 Q532.2969,357.4375 532.5156,357.4375 Q532.8906,357.4375 533.125,357.6953 Q533.3594,357.9531 533.3594,358.5625 L533.3594,360.0156 Q533.3594,360.625 533.125,360.8906 Q532.8906,361.1563 532.5156,361.1563 Q532.1719,361.1563 531.9688,360.9531 Q531.7656,360.7656 531.6563,360.25 Q531.6094,359.8906 531.4219,359.7031 Q531.0938,359.3281 530.4844,359.1094 Q529.875,358.8906 529.25,358.8906 Q528.4844,358.8906 527.8516,359.2188 Q527.2188,359.5469 526.7266,360.2969 Q526.2344,361.0469 526.2344,362.0781 L526.2344,363.1719 Q526.2344,364.4063 527.125,365.2266 Q528.0156,366.0469 529.6094,366.0469 Q530.5469,366.0469 531.2031,365.7969 Q531.5938,365.6406 532.0156,365.2031 Q532.2813,364.9375 532.4297,364.8594 Q532.5781,364.7813 532.7813,364.7813 Q533.1094,364.7813 533.3672,365.0391 Q533.625,365.2969 533.625,365.6406 Q533.625,365.9844 533.2813,366.3906 Q532.7813,366.9688 531.9844,367.2969 Q530.9063,367.75 529.6094,367.75 Q528.0938,367.75 526.8906,367.125 Q525.9063,366.625 525.2188,365.5547 Q524.5313,364.4844 524.5313,363.2031 L524.5313,362.0469 Q524.5313,360.7188 525.1484,359.5703 Q525.7656,358.4219 526.8594,357.8047 Q527.9531,357.1875 529.1875,357.1875 Q529.9219,357.1875 530.5703,357.3516 Q531.2188,357.5156 531.7656,357.875 Z " fill="#000000"/><text fill="#000000" font-family="sans-serif" font-size="14" lengthAdjust="spacing" textLength="102" x="543" y="367.7285">TiroirArgentUSB</text><line style="stroke:#000000;stroke-width:0.5;" x1="515" x2="647" y1="378" y2="378"/><line style="stroke:#000000;stroke-width:0.5;" x1="515" x2="647" y1="386" y2="386"/></g><!--class Compte--><g id="elem_Compte"><rect codeLine="36" fill="#FFFFFF" height="48" id="Compte" rx="2.5" ry="2.5" style="stroke:#000000;stroke-width:0.5;" width="81" x="652.5" y="211.5"/><ellipse cx="667.5" cy="227.5" fill="#ADD1B2" rx="11" ry="11" style="stroke:#181818;stroke-width:1.0;"/><path d="M670.2656,223.375 Q670.4219,223.1563 670.6094,223.0469 Q670.7969,222.9375 671.0156,222.9375 Q671.3906,222.9375 671.625,223.1953 Q671.8594,223.4531 671.8594,224.0625 L671.8594,225.5156 Q671.8594,226.125 671.625,226.3906 Q671.3906,226.6563 671.0156,226.6563 Q670.6719,226.6563 670.4688,226.4531 Q670.2656,226.2656 670.1563,225.75 Q670.1094,225.3906 669.9219,225.2031 Q669.5938,224.8281 668.9844,224.6094 Q668.375,224.3906 667.75,224.3906 Q666.9844,224.3906 666.3516,224.7188 Q665.7188,225.0469 665.2266,225.7969 Q664.7344,226.5469 664.7344,227.5781 L664.7344,228.6719 Q664.7344,229.9063 665.625,230.7266 Q666.5156,231.5469 668.1094,231.5469 Q669.0469,231.5469 669.7031,231.2969 Q670.0938,231.1406 670.5156,230.7031 Q670.7813,230.4375 670.9297,230.3594 Q671.0781,230.2813 671.2813,230.2813 Q671.6094,230.2813 671.8672,230.5391 Q672.125,230.7969 672.125,231.1406 Q672.125,231.4844 671.7813,231.8906 Q671.2813,232.4688 670.4844,232.7969 Q669.4063,233.25 668.1094,233.25 Q666.5938,233.25 665.3906,232.625 Q664.4063,232.125 663.7188,231.0547 Q663.0313,229.9844 663.0313,228.7031 L663.0313,227.5469 Q663.0313,226.2188 663.6484,225.0703 Q664.2656,223.9219 665.3594,223.3047 Q666.4531,222.6875 667.6875,222.6875 Q668.4219,222.6875 669.0703,222.8516 Q669.7188,223.0156 670.2656,223.375 Z " fill="#000000"/><text fill="#000000" font-family="sans-serif" font-size="14" lengthAdjust="spacing" textLength="49" x="681.5" y="233.2285">Compte</text><line style="stroke:#000000;stroke-width:0.5;" x1="653.5" x2="732.5" y1="243.5" y2="243.5"/><line style="stroke:#000000;stroke-width:0.5;" x1="653.5" x2="732.5" y1="251.5" y2="251.5"/></g><!--class TransactionRetrait--><g id="elem_TransactionRetrait"><rect codeLine="44" fill="#FFFFFF" height="100.8281" id="TransactionRetrait" rx="2.5" ry="2.5" style="stroke:#000000;stroke-width:0.5;" width="167" x="768.5" y="185"/><ellipse cx="791.6" cy="201" fill="#ADD1B2" rx="11" ry="11" style="stroke:#181818;stroke-width:1.0;"/><path d="M794.3656,196.875 Q794.5219,196.6563 794.7094,196.5469 Q794.8969,196.4375 795.1156,196.4375 Q795.4906,196.4375 795.725,196.6953 Q795.9594,196.9531 795.9594,197.5625 L795.9594,199.0156 Q795.9594,199.625 795.725,199.8906 Q795.4906,200.1563 795.1156,200.1563 Q794.7719,200.1563 794.5688,199.9531 Q794.3656,199.7656 794.2563,199.25 Q794.2094,198.8906 794.0219,198.7031 Q793.6938,198.3281 793.0844,198.1094 Q792.475,197.8906 791.85,197.8906 Q791.0844,197.8906 790.4516,198.2188 Q789.8188,198.5469 789.3266,199.2969 Q788.8344,200.0469 788.8344,201.0781 L788.8344,202.1719 Q788.8344,203.4063 789.725,204.2266 Q790.6156,205.0469 792.2094,205.0469 Q793.1469,205.0469 793.8031,204.7969 Q794.1938,204.6406 794.6156,204.2031 Q794.8813,203.9375 795.0297,203.8594 Q795.1781,203.7813 795.3813,203.7813 Q795.7094,203.7813 795.9672,204.0391 Q796.225,204.2969 796.225,204.6406 Q796.225,204.9844 795.8813,205.3906 Q795.3813,205.9688 794.5844,206.2969 Q793.5063,206.75 792.2094,206.75 Q790.6938,206.75 789.4906,206.125 Q788.5063,205.625 787.8188,204.5547 Q787.1313,203.4844 787.1313,202.2031 L787.1313,201.0469 Q787.1313,199.7188 787.7484,198.5703 Q788.3656,197.4219 789.4594,196.8047 Q790.5531,196.1875 791.7875,196.1875 Q792.5219,196.1875 793.1703,196.3516 Q793.8188,196.5156 794.3656,196.875 Z " fill="#000000"/><text fill="#000000" font-family="sans-serif" font-size="14" lengthAdjust="spacing" textLength="117" x="807.4" y="206.7285">TransactionRetrait</text><line style="stroke:#000000;stroke-width:0.5;" x1="769.5" x2="934.5" y1="217" y2="217"/><line style="stroke:#000000;stroke-width:0.5;" x1="769.5" x2="934.5" y1="225" y2="225"/><text fill="#000000" font-family="sans-serif" font-size="14" lengthAdjust="spacing" textLength="116" x="774.5" y="243.5332">+EstValide() : bool</text><text fill="#000000" font-family="sans-serif" font-size="14" lengthAdjust="spacing" textLength="155" x="774.5" y="261.1426">+ConfirmerTransaction()</text><text fill="#000000" font-family="sans-serif" font-size="14" lengthAdjust="spacing" textLength="67" x="774.5" y="278.752">+Annuler()</text></g><!--link ATM to TypeTirroir--><g id="link_ATM_TypeTirroir"><path codeLine="9" d="M265.29,125.1 C222.81,142.92 177.01,163.54 136,185 C127.19,189.61 123.188,191.7585 114.428,197.1185 " fill="none" id="ATM-to-TypeTirroir" style="stroke:#181818;stroke-width:1.0;"/><polygon fill="#181818" points="109.31,200.25,119.0746,198.9647,113.575,197.6404,114.8992,192.1407,109.31,200.25" style="stroke:#181818;stroke-width:1.0;"/><text fill="#000000" font-family="sans-serif" font-size="13" lengthAdjust="spacing" textLength="7" x="239.4957" y="146.7677">1</text><text fill="#000000" font-family="sans-serif" font-size="13" lengthAdjust="spacing" textLength="7" x="117.0177" y="191.6999">1</text></g><!--link ATM to ITiroirArgent--><g id="link_ATM_ITiroirArgent"><path codeLine="10" d="M416,125.11 C416,151 416,174.51 416,196.35 " fill="none" id="ATM-to-ITiroirArgent" style="stroke:#181818;stroke-width:1.0;"/><polygon fill="#181818" points="416,202.35,420,193.35,416,197.35,412,193.35,416,202.35" style="stroke:#181818;stroke-width:1.0;"/><text fill="#000000" font-family="sans-serif" font-size="13" lengthAdjust="spacing" textLength="7" x="408.5734" y="146.7789">1</text><text fill="#000000" font-family="sans-serif" font-size="13" lengthAdjust="spacing" textLength="7" x="408.2781" y="191.4345">1</text></g><!--link ATM to TiroirArgentCOM--><g id="link_ATM_TiroirArgentCOM"><path codeLine="12" d="M305.84,125.03 C282.82,141.66 260.78,161.71 245,185 C210.99,235.18 204.3861,302.9229 203.2361,339.9729 " fill="none" id="ATM-to-TiroirArgentCOM" style="stroke:#181818;stroke-width:1.0;stroke-dasharray:7.0,7.0;"/><polygon fill="#181818" points="203.05,345.97,207.3273,337.0984,203.2051,340.9724,199.3311,336.8502,203.05,345.97" style="stroke:#181818;stroke-width:1.0;"/></g><!--link ATM to TiroirArgentLPT--><g id="link_ATM_TiroirArgentLPT"><path codeLine="13" d="M316.98,125.32 C297.21,141.93 279.12,161.91 268,185 C248.52,225.44 246.64,246.52 268,286 C282.6,312.99 304.8942,329.8368 330.6442,343.1968 " fill="none" id="ATM-to-TiroirArgentLPT" style="stroke:#181818;stroke-width:1.0;stroke-dasharray:7.0,7.0;"/><polygon fill="#181818" points="335.97,345.96,329.8234,338.2646,331.5318,343.6573,326.1391,345.3657,335.97,345.96" style="stroke:#181818;stroke-width:1.0;"/></g><!--link ATM to TiroirArgentUSB--><g id="link_ATM_TiroirArgentUSB"><path codeLine="14" d="M512.35,125.14 C532.62,141.92 551.59,162.01 564,185 C592.04,236.95 589.2296,303.3086 585.0596,339.8886 " fill="none" id="ATM-to-TiroirArgentUSB" style="stroke:#181818;stroke-width:1.0;stroke-dasharray:7.0,7.0;"/><polygon fill="#181818" points="584.38,345.85,589.3736,337.361,584.9463,340.8822,581.4251,336.4549,584.38,345.85" style="stroke:#181818;stroke-width:1.0;"/></g><!--link ATM to Compte--><g id="link_ATM_Compte"><path codeLine="15" d="M524.27,125 C557.09,143.42 592.93,164.37 625,185 C637.65,193.14 646.3056,199.1727 657.8956,207.7427 " fill="none" id="ATM-to-Compte" style="stroke:#181818;stroke-width:1.0;stroke-dasharray:7.0,7.0;"/><polygon fill="#181818" points="662.72,211.31,657.8616,202.7428,658.6997,208.3373,653.1053,209.1753,662.72,211.31" style="stroke:#181818;stroke-width:1.0;"/></g><!--link ATM to TransactionRetrait--><g id="link_ATM_TransactionRetrait"><path codeLine="16" d="M581.89,121.13 C636.29,140.02 696.7,162.22 751,185 C756.67,187.38 757.0123,187.4492 762.8323,190.0792 " fill="none" id="ATM-to-TransactionRetrait" style="stroke:#181818;stroke-width:1.0;stroke-dasharray:7.0,7.0;"/><polygon fill="#181818" points="768.3,192.55,761.7457,185.1987,763.7436,190.491,758.4513,192.4889,768.3,192.55" style="stroke:#181818;stroke-width:1.0;"/></g><!--reverse link ITiroirArgent to TiroirArgentCOM--><g id="link_ITiroirArgent_TiroirArgentCOM"><path codeLine="18" d="M349.156,278.0778 C310.736,301.9778 274.48,324.53 240.07,345.94 " fill="none" id="ITiroirArgent-backto-TiroirArgentCOM" style="stroke:#181818;stroke-width:1.0;"/><polygon fill="none" points="364.44,268.57,345.9867,272.9831,352.3252,283.1725,364.44,268.57" style="stroke:#181818;stroke-width:1.0;"/></g><!--reverse link ITiroirArgent to TiroirArgentLPT--><g id="link_ITiroirArgent_TiroirArgentLPT"><path codeLine="19" d="M408.1008,286.3479 C404.3108,310.2479 402.05,324.53 398.65,345.94 " fill="none" id="ITiroirArgent-backto-TiroirArgentLPT" style="stroke:#181818;stroke-width:1.0;"/><polygon fill="none" points="410.92,268.57,402.1749,285.4081,414.0268,287.2876,410.92,268.57" style="stroke:#181818;stroke-width:1.0;"/></g><!--reverse link ITiroirArgent to TiroirArgentUSB--><g id="link_ITiroirArgent_TiroirArgentUSB"><path codeLine="20" d="M469.9744,279.8409 C499.7344,303.7409 525.63,324.53 552.28,345.94 " fill="none" id="ITiroirArgent-backto-TiroirArgentUSB" style="stroke:#181818;stroke-width:1.0;"/><polygon fill="none" points="455.94,268.57,466.2175,284.5191,473.7314,275.1628,455.94,268.57" style="stroke:#181818;stroke-width:1.0;"/></g><!--SRC=[XPBDJiCm48JlVWghN1ALLE5QeKffu5292aG372lNsHQhiHsjdGD_xuuTHoMXXUPYQVRRtV4uPYzKpP19oYjcJ6OjYarZOS6rMebte2anGuH-4Eg-EUFx7Uf6bRckDDANLs4XL3IMW46zIDEKV152ic99HrSZcYIpzYpUQYW4eXPuL5kuWjCpt86oeNKocT6-cjylJ-ft3yL9_MarF-YvbhMpUi2GASEu5LezWaKctCg10thzcIH7syyWtiWPn7iYe1hP3wDBrs_mfn_ZJy-w6CC3UES1IwXSsz3iUwU3M0z0tyNqTxgU6lkHKVtdgBYZN3u20Ht9smmT5SAyfFLQQcLPkw44BYIhuX_7WNAclIIK1Tmo3aChtPN6z4QOzYU4hX3zF_lu_SAaCRqrzfbLeeGeTfqRhQkWvrfj1Kh0NciKXrgcL5EvA_e5tm00]--></g></svg>