<?xml version="1.0" encoding="UTF-8" standalone="no"?><svg xmlns="http://www.w3.org/2000/svg" xmlns:xlink="http://www.w3.org/1999/xlink" contentScriptType="application/ecmascript" contentStyleType="text/css" height="187px" preserveAspectRatio="none" style="width:625px;height:187px;" version="1.1" viewBox="0 0 625 187" width="625px" zoomAndPan="magnify"><defs><filter height="300%" id="f15ijhuyj5kba1" width="300%" x="-1" y="-1"><feGaussianBlur result="blurOut" stdDeviation="2.0"/><feColorMatrix in="blurOut" result="blurOut2" type="matrix" values="0 0 0 0 0 0 0 0 0 0 0 0 0 0 0 0 0 0 .4 0"/><feOffset dx="4.0" dy="4.0" in="blurOut2" result="blurOut3"/><feBlend in="SourceGraphic" in2="blurOut3" mode="normal"/></filter></defs><g><!--MD5=[67d066aed5a9cc81c1776291781c31e5]
class ICalculInteret--><rect fill="#FFFFFF" filter="url(#f15ijhuyj5kba1)" height="48" id="ICalculInteret" style="stroke: #000000; stroke-width: 1.5;" width="106" x="252" y="8"/><ellipse cx="267" cy="24" fill="#B4A7E5" rx="11" ry="11" style="stroke: #000000; stroke-width: 1.0;"/><path d="M263.4277,20.2651 L263.4277,18.1069 L270.8071,18.1069 L270.8071,20.2651 L268.3418,20.2651 L268.3418,28.3418 L270.8071,28.3418 L270.8071,30.5 L263.4277,30.5 L263.4277,28.3418 L265.8931,28.3418 L265.8931,20.2651 Z "/><text fill="#000000" font-family="sans-serif" font-size="12" font-style="italic" lengthAdjust="spacingAndGlyphs" textLength="74" x="281" y="28.5352">ICalculInteret</text><line style="stroke: #000000; stroke-width: 1.5;" x1="253" x2="357" y1="40" y2="40"/><line style="stroke: #000000; stroke-width: 1.5;" x1="253" x2="357" y1="48" y2="48"/><!--MD5=[5fb9dfebcffd045efba9854ea9ae9cab]
class CalculInteretFixe--><rect fill="#FFFFFF" filter="url(#f15ijhuyj5kba1)" height="60.9551" id="CalculInteretFixe" style="stroke: #000000; stroke-width: 1.5;" width="276" x="6" y="116"/><ellipse cx="92.75" cy="132" fill="#ADD1B2" rx="11" ry="11" style="stroke: #000000; stroke-width: 1.0;"/><path d="M95.2231,138.1431 Q94.6421,138.4419 94.0029,138.5913 Q93.3638,138.7407 92.6582,138.7407 Q90.1514,138.7407 88.8315,137.0889 Q87.5117,135.437 87.5117,132.3159 Q87.5117,129.1865 88.8315,127.5347 Q90.1514,125.8828 92.6582,125.8828 Q93.3638,125.8828 94.0112,126.0322 Q94.6587,126.1816 95.2231,126.4805 L95.2231,129.2031 Q94.5923,128.6221 93.9988,128.3523 Q93.4053,128.0825 92.7744,128.0825 Q91.4297,128.0825 90.7449,129.1492 Q90.0601,130.2158 90.0601,132.3159 Q90.0601,134.4077 90.7449,135.4744 Q91.4297,136.541 92.7744,136.541 Q93.4053,136.541 93.9988,136.2712 Q94.5923,136.0015 95.2231,135.4204 Z "/><text fill="#000000" font-family="sans-serif" font-size="12" lengthAdjust="spacingAndGlyphs" textLength="94" x="113.25" y="136.5352">CalculInteretFixe</text><line style="stroke: #000000; stroke-width: 1.5;" x1="7" x2="281" y1="148" y2="148"/><line style="stroke: #000000; stroke-width: 1.5;" x1="7" x2="281" y1="156" y2="156"/><text fill="#000000" font-family="sans-serif" font-size="11" lengthAdjust="spacingAndGlyphs" textLength="264" x="12" y="170.6348">+CalculerMontantInteretFixeJournalier() : decimal</text><!--MD5=[ba797b6de342353fc38abb57dd56b81d]
class CalculInteretVariable--><rect fill="#FFFFFF" filter="url(#f15ijhuyj5kba1)" height="60.9551" id="CalculInteretVariable" style="stroke: #000000; stroke-width: 1.5;" width="297" x="317.5" y="116"/><ellipse cx="402.25" cy="132" fill="#ADD1B2" rx="11" ry="11" style="stroke: #000000; stroke-width: 1.0;"/><path d="M404.7231,138.1431 Q404.1421,138.4419 403.5029,138.5913 Q402.8638,138.7407 402.1582,138.7407 Q399.6514,138.7407 398.3315,137.0889 Q397.0117,135.437 397.0117,132.3159 Q397.0117,129.1865 398.3315,127.5347 Q399.6514,125.8828 402.1582,125.8828 Q402.8638,125.8828 403.5112,126.0322 Q404.1587,126.1816 404.7231,126.4805 L404.7231,129.2031 Q404.0923,128.6221 403.4988,128.3523 Q402.9053,128.0825 402.2744,128.0825 Q400.9297,128.0825 400.2449,129.1492 Q399.5601,130.2158 399.5601,132.3159 Q399.5601,134.4077 400.2449,135.4744 Q400.9297,136.541 402.2744,136.541 Q402.9053,136.541 403.4988,136.2712 Q404.0923,136.0015 404.7231,135.4204 Z "/><text fill="#000000" font-family="sans-serif" font-size="12" lengthAdjust="spacingAndGlyphs" textLength="119" x="422.75" y="136.5352">CalculInteretVariable</text><line style="stroke: #000000; stroke-width: 1.5;" x1="318.5" x2="613.5" y1="148" y2="148"/><line style="stroke: #000000; stroke-width: 1.5;" x1="318.5" x2="613.5" y1="156" y2="156"/><text fill="#000000" font-family="sans-serif" font-size="11" lengthAdjust="spacingAndGlyphs" textLength="285" x="323.5" y="170.6348">+CalculerMontantInteretVariableJournalier() : decimal</text><!--MD5=[08f422abea4a7b4dbd57062eb0af15b9]
reverse link ICalculInteret to CalculInteretFixe--><path d="M255.61,67.51 C233.48,82.97 207.66,101.02 186.42,115.86 " fill="none" id="ICalculInteret&lt;-CalculInteretFixe" style="stroke: #A80036; stroke-width: 1.0; stroke-dasharray: 7.0,7.0;"/><polygon fill="none" points="251.63,61.76,272.03,56.04,259.65,73.23,251.63,61.76" style="stroke: #A80036; stroke-width: 1.0;"/><!--MD5=[6d6e8501127204b25f59584e0ecee884]
reverse link ICalculInteret to CalculInteretVariable--><path d="M354.39,67.51 C376.52,82.97 402.34,101.02 423.58,115.86 " fill="none" id="ICalculInteret&lt;-CalculInteretVariable" style="stroke: #A80036; stroke-width: 1.0; stroke-dasharray: 7.0,7.0;"/><polygon fill="none" points="350.35,73.23,337.97,56.04,358.37,61.76,350.35,73.23" style="stroke: #A80036; stroke-width: 1.0;"/><!--MD5=[c93f8e27aa69835164af1628a7e6f4c8]
@startuml OCP_V01

skinparam classAttributeIconSize 0
skinparam class {
    BackgroundColor White
    BorderColor #000
}
allowmixing

interface ICalculInteret {

}

class CalculInteretFixe {
    + CalculerMontantInteretFixeJournalier() : decimal
}

class CalculInteretVariable {
    + CalculerMontantInteretVariableJournalier() : decimal
}

ICalculInteret <|.. CalculInteretFixe
ICalculInteret <|.. CalculInteretVariable

@enduml

PlantUML version 1.2020.10(Sun May 17 05:35:57 EDT 2020)
(GPL source distribution)
Java Runtime: OpenJDK Runtime Environment
JVM: OpenJDK 64-Bit Server VM
Java Version: 13.0.2+8
Operating System: Mac OS X
Default Encoding: UTF-8
Language: fr
Country: CA
--></g></svg>