<?xml version="1.0" encoding="us-ascii" standalone="no"?><svg xmlns="http://www.w3.org/2000/svg" xmlns:xlink="http://www.w3.org/1999/xlink" contentStyleType="text/css" height="187px" preserveAspectRatio="none" style="width:717px;height:187px;background:#FFFFFF;" version="1.1" viewBox="0 0 717 187" width="717px" zoomAndPan="magnify"><defs/><g><!--class ICalculInteret--><g id="elem_ICalculInteret"><rect codeLine="9" fill="#FFFFFF" height="48" id="ICalculInteret" rx="2.5" ry="2.5" style="stroke:#000000;stroke-width:0.5;" width="116" x="293.5" y="7"/><ellipse cx="308.5" cy="23" fill="#B4A7E5" rx="11" ry="11" style="stroke:#181818;stroke-width:1.0;"/><path d="M309.4531,19.6406 L309.4531,26.2969 L311.1719,26.2969 Q311.7813,26.2969 312.0469,26.5313 Q312.3125,26.7656 312.3125,27.1563 Q312.3125,27.5313 312.0469,27.7656 Q311.7813,28 311.1719,28 L306.0313,28 Q305.4219,28 305.1563,27.7656 Q304.8906,27.5313 304.8906,27.1406 Q304.8906,26.7656 305.1563,26.5313 Q305.4219,26.2969 306.0313,26.2969 L307.75,26.2969 L307.75,19.6406 L306.0313,19.6406 Q305.4219,19.6406 305.1563,19.4063 Q304.8906,19.1719 304.8906,18.7813 Q304.8906,18.4063 305.1563,18.1719 Q305.4219,17.9375 306.0313,17.9375 L311.1719,17.9375 Q311.7813,17.9375 312.0469,18.1719 Q312.3125,18.4063 312.3125,18.7813 Q312.3125,19.1719 312.0469,19.4063 Q311.7813,19.6406 311.1719,19.6406 L309.4531,19.6406 Z " fill="#000000"/><text fill="#000000" font-family="sans-serif" font-size="14" font-style="italic" lengthAdjust="spacing" textLength="84" x="322.5" y="28.7285">ICalculInteret</text><line style="stroke:#000000;stroke-width:0.5;" x1="294.5" x2="408.5" y1="39" y2="39"/><line style="stroke:#000000;stroke-width:0.5;" x1="294.5" x2="408.5" y1="47" y2="47"/></g><!--class CalculInteretFixe--><g id="elem_CalculInteretFixe"><rect codeLine="13" fill="#FFFFFF" height="65.6094" id="CalculInteretFixe" rx="2.5" ry="2.5" style="stroke:#000000;stroke-width:0.5;" width="321" x="7" y="115"/><ellipse cx="110.75" cy="131" fill="#ADD1B2" rx="11" ry="11" style="stroke:#181818;stroke-width:1.0;"/><path d="M113.5156,126.875 Q113.6719,126.6563 113.8594,126.5469 Q114.0469,126.4375 114.2656,126.4375 Q114.6406,126.4375 114.875,126.6953 Q115.1094,126.9531 115.1094,127.5625 L115.1094,129.0156 Q115.1094,129.625 114.875,129.8906 Q114.6406,130.1563 114.2656,130.1563 Q113.9219,130.1563 113.7188,129.9531 Q113.5156,129.7656 113.4063,129.25 Q113.3594,128.8906 113.1719,128.7031 Q112.8438,128.3281 112.2344,128.1094 Q111.625,127.8906 111,127.8906 Q110.2344,127.8906 109.6016,128.2188 Q108.9688,128.5469 108.4766,129.2969 Q107.9844,130.0469 107.9844,131.0781 L107.9844,132.1719 Q107.9844,133.4063 108.875,134.2266 Q109.7656,135.0469 111.3594,135.0469 Q112.2969,135.0469 112.9531,134.7969 Q113.3438,134.6406 113.7656,134.2031 Q114.0313,133.9375 114.1797,133.8594 Q114.3281,133.7813 114.5313,133.7813 Q114.8594,133.7813 115.1172,134.0391 Q115.375,134.2969 115.375,134.6406 Q115.375,134.9844 115.0313,135.3906 Q114.5313,135.9688 113.7344,136.2969 Q112.6563,136.75 111.3594,136.75 Q109.8438,136.75 108.6406,136.125 Q107.6563,135.625 106.9688,134.5547 Q106.2813,133.4844 106.2813,132.2031 L106.2813,131.0469 Q106.2813,129.7188 106.8984,128.5703 Q107.5156,127.4219 108.6094,126.8047 Q109.7031,126.1875 110.9375,126.1875 Q111.6719,126.1875 112.3203,126.3516 Q112.9688,126.5156 113.5156,126.875 Z " fill="#000000"/><text fill="#000000" font-family="sans-serif" font-size="14" lengthAdjust="spacing" textLength="105" x="131.25" y="136.7285">CalculInteretFixe</text><line style="stroke:#000000;stroke-width:0.5;" x1="8" x2="327" y1="147" y2="147"/><line style="stroke:#000000;stroke-width:0.5;" x1="8" x2="327" y1="155" y2="155"/><text fill="#000000" font-family="sans-serif" font-size="14" lengthAdjust="spacing" textLength="309" x="13" y="173.5332">+CalculerMontantInteretFixeJournalier() : decimal</text></g><!--class CalculInteretVariable--><g id="elem_CalculInteretVariable"><rect codeLine="17" fill="#FFFFFF" height="65.6094" id="CalculInteretVariable" rx="2.5" ry="2.5" style="stroke:#000000;stroke-width:0.5;" width="347" x="363" y="115"/><ellipse cx="466.75" cy="131" fill="#ADD1B2" rx="11" ry="11" style="stroke:#181818;stroke-width:1.0;"/><path d="M469.5156,126.875 Q469.6719,126.6563 469.8594,126.5469 Q470.0469,126.4375 470.2656,126.4375 Q470.6406,126.4375 470.875,126.6953 Q471.1094,126.9531 471.1094,127.5625 L471.1094,129.0156 Q471.1094,129.625 470.875,129.8906 Q470.6406,130.1563 470.2656,130.1563 Q469.9219,130.1563 469.7188,129.9531 Q469.5156,129.7656 469.4063,129.25 Q469.3594,128.8906 469.1719,128.7031 Q468.8438,128.3281 468.2344,128.1094 Q467.625,127.8906 467,127.8906 Q466.2344,127.8906 465.6016,128.2188 Q464.9688,128.5469 464.4766,129.2969 Q463.9844,130.0469 463.9844,131.0781 L463.9844,132.1719 Q463.9844,133.4063 464.875,134.2266 Q465.7656,135.0469 467.3594,135.0469 Q468.2969,135.0469 468.9531,134.7969 Q469.3438,134.6406 469.7656,134.2031 Q470.0313,133.9375 470.1797,133.8594 Q470.3281,133.7813 470.5313,133.7813 Q470.8594,133.7813 471.1172,134.0391 Q471.375,134.2969 471.375,134.6406 Q471.375,134.9844 471.0313,135.3906 Q470.5313,135.9688 469.7344,136.2969 Q468.6563,136.75 467.3594,136.75 Q465.8438,136.75 464.6406,136.125 Q463.6563,135.625 462.9688,134.5547 Q462.2813,133.4844 462.2813,132.2031 L462.2813,131.0469 Q462.2813,129.7188 462.8984,128.5703 Q463.5156,127.4219 464.6094,126.8047 Q465.7031,126.1875 466.9375,126.1875 Q467.6719,126.1875 468.3203,126.3516 Q468.9688,126.5156 469.5156,126.875 Z " fill="#000000"/><text fill="#000000" font-family="sans-serif" font-size="14" lengthAdjust="spacing" textLength="131" x="487.25" y="136.7285">CalculInteretVariable</text><line style="stroke:#000000;stroke-width:0.5;" x1="364" x2="709" y1="147" y2="147"/><line style="stroke:#000000;stroke-width:0.5;" x1="364" x2="709" y1="155" y2="155"/><text fill="#000000" font-family="sans-serif" font-size="14" lengthAdjust="spacing" textLength="335" x="369" y="173.5332">+CalculerMontantInteretVariableJournalier() : decimal</text></g><!--reverse link ICalculInteret to CalculInteretFixe--><g id="link_ICalculInteret_CalculInteretFixe"><path codeLine="21" d="M298.9973,64.812 C271.5973,81.942 249.25,95.9 218.97,114.83 " fill="none" id="ICalculInteret-backto-CalculInteretFixe" style="stroke:#181818;stroke-width:1.0;stroke-dasharray:7.0,7.0;"/><polygon fill="none" points="314.26,55.27,295.8166,59.7244,302.1779,69.8996,314.26,55.27" style="stroke:#181818;stroke-width:1.0;"/></g><!--reverse link ICalculInteret to CalculInteretVariable--><g id="link_ICalculInteret_CalculInteretVariable"><path codeLine="22" d="M404.2261,64.7745 C431.7761,81.9045 454.3,95.9 484.75,114.83 " fill="none" id="ICalculInteret-backto-CalculInteretVariable" style="stroke:#181818;stroke-width:1.0;stroke-dasharray:7.0,7.0;"/><polygon fill="none" points="388.94,55.27,401.0579,69.8699,407.3942,59.6792,388.94,55.27" style="stroke:#181818;stroke-width:1.0;"/></g><!--SRC=[XOzD2u9048Rl-oiMkXI1U8uk9GG6dO8wZ-jaG-DkZ2j97_yzGuKin3dE-_2yCyM5x1K4ScqOYcBblL1IUeoDitkwemvLqKVqG-bwrc0kcRZIff5Z9_fu9ezDuYH5QRQJC0pLIm6pk-LKaSsK8kjHJc1Gnn6mAJd-BD3NuXfLJKalsL25RUsyJL1spdgm_WlPkb8iCA5CPtgXKpIK0myu3o042OzvEspO_VF4yXa4_zUFKrsHUWC0]--></g></svg>