<?xml version="1.0" encoding="UTF-8" standalone="no"?><svg xmlns="http://www.w3.org/2000/svg" xmlns:xlink="http://www.w3.org/1999/xlink" contentScriptType="application/ecmascript" contentStyleType="text/css" height="412px" preserveAspectRatio="none" style="width:952px;height:412px;" version="1.1" viewBox="0 0 952 412" width="952px" zoomAndPan="magnify"><defs><filter height="300%" id="f58flaphbu7n9" width="300%" x="-1" y="-1"><feGaussianBlur result="blurOut" stdDeviation="2.0"/><feColorMatrix in="blurOut" result="blurOut2" type="matrix" values="0 0 0 0 0 0 0 0 0 0 0 0 0 0 0 0 0 0 .4 0"/><feOffset dx="4.0" dy="4.0" in="blurOut2" result="blurOut3"/><feBlend in="SourceGraphic" in2="blurOut3" mode="normal"/></filter></defs><g><!--MD5=[549ff358cecbd916f4ce2511ce44e009]
class ATM--><rect fill="#FFFFFF" filter="url(#f58flaphbu7n9)" height="99.8203" id="ATM" style="stroke: #000000; stroke-width: 1.5;" width="460" x="395" y="8"/><ellipse cx="607.75" cy="24" fill="#ADD1B2" rx="11" ry="11" style="stroke: #000000; stroke-width: 1.0;"/><path d="M610.2231,30.1431 Q609.6421,30.4419 609.0029,30.5913 Q608.3638,30.7407 607.6582,30.7407 Q605.1514,30.7407 603.8315,29.0889 Q602.5117,27.437 602.5117,24.3159 Q602.5117,21.1865 603.8315,19.5347 Q605.1514,17.8828 607.6582,17.8828 Q608.3638,17.8828 609.0112,18.0322 Q609.6587,18.1816 610.2231,18.4805 L610.2231,21.2031 Q609.5923,20.6221 608.9988,20.3523 Q608.4053,20.0825 607.7744,20.0825 Q606.4297,20.0825 605.7449,21.1492 Q605.0601,22.2158 605.0601,24.3159 Q605.0601,26.4077 605.7449,27.4744 Q606.4297,28.541 607.7744,28.541 Q608.4053,28.541 608.9988,28.2712 Q609.5923,28.0015 610.2231,27.4204 Z "/><text fill="#000000" font-family="sans-serif" font-size="12" lengthAdjust="spacingAndGlyphs" textLength="26" x="628.25" y="28.5352">ATM</text><line style="stroke: #000000; stroke-width: 1.5;" x1="396" x2="854" y1="40" y2="40"/><text fill="#000000" font-family="sans-serif" font-size="11" lengthAdjust="spacingAndGlyphs" textLength="254" x="401" y="54.6348">-m_createurTransaction : ICreateurTransaction</text><text fill="#000000" font-family="sans-serif" font-size="11" lengthAdjust="spacingAndGlyphs" textLength="165" x="401" y="67.5898">-m_tiroirArgent : ITiroirArgent</text><line style="stroke: #000000; stroke-width: 1.5;" x1="396" x2="854" y1="73.9102" y2="73.9102"/><text fill="#000000" font-family="sans-serif" font-size="11" lengthAdjust="spacingAndGlyphs" textLength="448" x="401" y="88.5449">+ATM(p_tiroirArgent : ITiroirArgent, p_createurTransaction : ICreateurTransaction)</text><text fill="#000000" font-family="sans-serif" font-size="11" lengthAdjust="spacingAndGlyphs" textLength="271" x="401" y="101.5">+Retirer(p_compte : Compte, p_montant : decimal)</text><!--MD5=[371277a0d048abdcbea9ae149ffe878a]
class ICreateurTransaction--><rect fill="#FFFFFF" filter="url(#f58flaphbu7n9)" height="60.9551" id="ICreateurTransaction" style="stroke: #000000; stroke-width: 1.5;" width="376" x="6" y="181"/><ellipse cx="129.75" cy="197" fill="#B4A7E5" rx="11" ry="11" style="stroke: #000000; stroke-width: 1.0;"/><path d="M126.1777,193.2651 L126.1777,191.1069 L133.5571,191.1069 L133.5571,193.2651 L131.0918,193.2651 L131.0918,201.3418 L133.5571,201.3418 L133.5571,203.5 L126.1777,203.5 L126.1777,201.3418 L128.6431,201.3418 L128.6431,193.2651 Z "/><text fill="#000000" font-family="sans-serif" font-size="12" font-style="italic" lengthAdjust="spacingAndGlyphs" textLength="120" x="150.25" y="201.5352">ICreateurTransaction</text><line style="stroke: #000000; stroke-width: 1.5;" x1="7" x2="381" y1="213" y2="213"/><line style="stroke: #000000; stroke-width: 1.5;" x1="7" x2="381" y1="221" y2="221"/><text fill="#000000" font-family="sans-serif" font-size="11" lengthAdjust="spacingAndGlyphs" textLength="364" x="12" y="235.6348">+CreerTransactionRetrait(p_compte : Compte, p_montant : decimal)</text><!--MD5=[dc348672d8ba7a00bad9c81946fd5fe3]
class ITiroirArgent--><rect fill="#FFFFFF" filter="url(#f58flaphbu7n9)" height="60.9551" id="ITiroirArgent" style="stroke: #000000; stroke-width: 1.5;" width="228" x="417" y="181"/><ellipse cx="490.75" cy="197" fill="#B4A7E5" rx="11" ry="11" style="stroke: #000000; stroke-width: 1.0;"/><path d="M487.1777,193.2651 L487.1777,191.1069 L494.5571,191.1069 L494.5571,193.2651 L492.0918,193.2651 L492.0918,201.3418 L494.5571,201.3418 L494.5571,203.5 L487.1777,203.5 L487.1777,201.3418 L489.6431,201.3418 L489.6431,193.2651 Z "/><text fill="#000000" font-family="sans-serif" font-size="12" font-style="italic" lengthAdjust="spacingAndGlyphs" textLength="72" x="511.25" y="201.5352">ITiroirArgent</text><line style="stroke: #000000; stroke-width: 1.5;" x1="418" x2="644" y1="213" y2="213"/><line style="stroke: #000000; stroke-width: 1.5;" x1="418" x2="644" y1="221" y2="221"/><text fill="#000000" font-family="sans-serif" font-size="11" lengthAdjust="spacingAndGlyphs" textLength="216" x="423" y="235.6348">+DistribuerArgent(p_montant : decimal)</text><!--MD5=[55a9f513ff876a6970678761cb3a400d]
class Compte--><rect fill="#FFFFFF" filter="url(#f58flaphbu7n9)" height="48" id="Compte" style="stroke: #000000; stroke-width: 1.5;" width="77" x="680.5" y="187.5"/><ellipse cx="695.5" cy="203.5" fill="#ADD1B2" rx="11" ry="11" style="stroke: #000000; stroke-width: 1.0;"/><path d="M697.9731,209.6431 Q697.3921,209.9419 696.7529,210.0913 Q696.1138,210.2407 695.4082,210.2407 Q692.9014,210.2407 691.5815,208.5889 Q690.2617,206.937 690.2617,203.8159 Q690.2617,200.6865 691.5815,199.0347 Q692.9014,197.3828 695.4082,197.3828 Q696.1138,197.3828 696.7612,197.5322 Q697.4087,197.6816 697.9731,197.9805 L697.9731,200.7031 Q697.3423,200.1221 696.7488,199.8523 Q696.1553,199.5825 695.5244,199.5825 Q694.1797,199.5825 693.4949,200.6492 Q692.8101,201.7158 692.8101,203.8159 Q692.8101,205.9077 693.4949,206.9744 Q694.1797,208.041 695.5244,208.041 Q696.1553,208.041 696.7488,207.7712 Q697.3423,207.5015 697.9731,206.9204 Z "/><text fill="#000000" font-family="sans-serif" font-size="12" lengthAdjust="spacingAndGlyphs" textLength="45" x="709.5" y="208.0352">Compte</text><line style="stroke: #000000; stroke-width: 1.5;" x1="681.5" x2="756.5" y1="219.5" y2="219.5"/><line style="stroke: #000000; stroke-width: 1.5;" x1="681.5" x2="756.5" y1="227.5" y2="227.5"/><!--MD5=[4555bb1b0911a5adf28ce6dbe60fed2e]
class Transaction--><rect fill="#FFFFFF" filter="url(#f58flaphbu7n9)" height="86.8652" id="Transaction" style="stroke: #000000; stroke-width: 1.5;" width="148" x="793" y="168"/><ellipse cx="830.05" cy="184" fill="#B4A7E5" rx="11" ry="11" style="stroke: #000000; stroke-width: 1.0;"/><path d="M826.4777,180.2651 L826.4777,178.1069 L833.8571,178.1069 L833.8571,180.2651 L831.3918,180.2651 L831.3918,188.3418 L833.8571,188.3418 L833.8571,190.5 L826.4777,190.5 L826.4777,188.3418 L828.9431,188.3418 L828.9431,180.2651 Z "/><text fill="#000000" font-family="sans-serif" font-size="12" font-style="italic" lengthAdjust="spacingAndGlyphs" textLength="67" x="848.95" y="188.5352">Transaction</text><line style="stroke: #000000; stroke-width: 1.5;" x1="794" x2="940" y1="200" y2="200"/><line style="stroke: #000000; stroke-width: 1.5;" x1="794" x2="940" y1="208" y2="208"/><text fill="#000000" font-family="sans-serif" font-size="11" lengthAdjust="spacingAndGlyphs" textLength="98" x="799" y="222.6348">+EstValide() : bool</text><text fill="#000000" font-family="sans-serif" font-size="11" lengthAdjust="spacingAndGlyphs" textLength="136" x="799" y="235.5898">+ConfirmerTransaction()</text><text fill="#000000" font-family="sans-serif" font-size="11" lengthAdjust="spacingAndGlyphs" textLength="60" x="799" y="248.5449">+Annuler()</text><!--MD5=[a61b5a58fa153427499d8717e23138e9]
class TransactionRetrait--><rect fill="#FFFFFF" filter="url(#f58flaphbu7n9)" height="86.8652" id="TransactionRetrait" style="stroke: #000000; stroke-width: 1.5;" width="148" x="793" y="315"/><ellipse cx="812.95" cy="331" fill="#ADD1B2" rx="11" ry="11" style="stroke: #000000; stroke-width: 1.0;"/><path d="M815.4231,337.1431 Q814.8421,337.4419 814.2029,337.5913 Q813.5638,337.7407 812.8582,337.7407 Q810.3514,337.7407 809.0315,336.0889 Q807.7117,334.437 807.7117,331.3159 Q807.7117,328.1865 809.0315,326.5347 Q810.3514,324.8828 812.8582,324.8828 Q813.5638,324.8828 814.2112,325.0322 Q814.8587,325.1816 815.4231,325.4805 L815.4231,328.2031 Q814.7923,327.6221 814.1988,327.3523 Q813.6053,327.0825 812.9744,327.0825 Q811.6297,327.0825 810.9449,328.1492 Q810.2601,329.2158 810.2601,331.3159 Q810.2601,333.4077 810.9449,334.4744 Q811.6297,335.541 812.9744,335.541 Q813.6053,335.541 814.1988,335.2712 Q814.7923,335.0015 815.4231,334.4204 Z "/><text fill="#000000" font-family="sans-serif" font-size="12" lengthAdjust="spacingAndGlyphs" textLength="105" x="828.05" y="335.5352">TransactionRetrait</text><line style="stroke: #000000; stroke-width: 1.5;" x1="794" x2="940" y1="347" y2="347"/><line style="stroke: #000000; stroke-width: 1.5;" x1="794" x2="940" y1="355" y2="355"/><text fill="#000000" font-family="sans-serif" font-size="11" lengthAdjust="spacingAndGlyphs" textLength="98" x="799" y="369.6348">+EstValide() : bool</text><text fill="#000000" font-family="sans-serif" font-size="11" lengthAdjust="spacingAndGlyphs" textLength="136" x="799" y="382.5898">+ConfirmerTransaction()</text><text fill="#000000" font-family="sans-serif" font-size="11" lengthAdjust="spacingAndGlyphs" textLength="60" x="799" y="395.5449">+Annuler()</text><!--MD5=[be62dc20b249d0ca4a916cfe69f0dc93]
class TiroirArgentCOM--><rect fill="#FFFFFF" filter="url(#f58flaphbu7n9)" height="48" id="TiroirArgentCOM" style="stroke: #000000; stroke-width: 1.5;" width="128" x="307" y="334.5"/><ellipse cx="322" cy="350.5" fill="#ADD1B2" rx="11" ry="11" style="stroke: #000000; stroke-width: 1.0;"/><path d="M324.4731,356.6431 Q323.8921,356.9419 323.2529,357.0913 Q322.6138,357.2407 321.9082,357.2407 Q319.4014,357.2407 318.0815,355.5889 Q316.7617,353.937 316.7617,350.8159 Q316.7617,347.6865 318.0815,346.0347 Q319.4014,344.3828 321.9082,344.3828 Q322.6138,344.3828 323.2612,344.5322 Q323.9087,344.6816 324.4731,344.9805 L324.4731,347.7031 Q323.8423,347.1221 323.2488,346.8523 Q322.6553,346.5825 322.0244,346.5825 Q320.6797,346.5825 319.9949,347.6492 Q319.3101,348.7158 319.3101,350.8159 Q319.3101,352.9077 319.9949,353.9744 Q320.6797,355.041 322.0244,355.041 Q322.6553,355.041 323.2488,354.7712 Q323.8423,354.5015 324.4731,353.9204 Z "/><text fill="#000000" font-family="sans-serif" font-size="12" lengthAdjust="spacingAndGlyphs" textLength="96" x="336" y="355.0352">TiroirArgentCOM</text><line style="stroke: #000000; stroke-width: 1.5;" x1="308" x2="434" y1="366.5" y2="366.5"/><line style="stroke: #000000; stroke-width: 1.5;" x1="308" x2="434" y1="374.5" y2="374.5"/><!--MD5=[a42bb2b4b977cb7af457966cc984d67d]
class TiroirArgentLPT--><rect fill="#FFFFFF" filter="url(#f58flaphbu7n9)" height="48" id="TiroirArgentLPT" style="stroke: #000000; stroke-width: 1.5;" width="122" x="470" y="334.5"/><ellipse cx="485" cy="350.5" fill="#ADD1B2" rx="11" ry="11" style="stroke: #000000; stroke-width: 1.0;"/><path d="M487.4731,356.6431 Q486.8921,356.9419 486.2529,357.0913 Q485.6138,357.2407 484.9082,357.2407 Q482.4014,357.2407 481.0815,355.5889 Q479.7617,353.937 479.7617,350.8159 Q479.7617,347.6865 481.0815,346.0347 Q482.4014,344.3828 484.9082,344.3828 Q485.6138,344.3828 486.2612,344.5322 Q486.9087,344.6816 487.4731,344.9805 L487.4731,347.7031 Q486.8423,347.1221 486.2488,346.8523 Q485.6553,346.5825 485.0244,346.5825 Q483.6797,346.5825 482.9949,347.6492 Q482.3101,348.7158 482.3101,350.8159 Q482.3101,352.9077 482.9949,353.9744 Q483.6797,355.041 485.0244,355.041 Q485.6553,355.041 486.2488,354.7712 Q486.8423,354.5015 487.4731,353.9204 Z "/><text fill="#000000" font-family="sans-serif" font-size="12" lengthAdjust="spacingAndGlyphs" textLength="90" x="499" y="355.0352">TiroirArgentLPT</text><line style="stroke: #000000; stroke-width: 1.5;" x1="471" x2="591" y1="366.5" y2="366.5"/><line style="stroke: #000000; stroke-width: 1.5;" x1="471" x2="591" y1="374.5" y2="374.5"/><!--MD5=[d16966432e5c9bc2f621fb2255af781d]
class TiroirArgentUSB--><rect fill="#FFFFFF" filter="url(#f58flaphbu7n9)" height="48" id="TiroirArgentUSB" style="stroke: #000000; stroke-width: 1.5;" width="122" x="627" y="334.5"/><ellipse cx="642" cy="350.5" fill="#ADD1B2" rx="11" ry="11" style="stroke: #000000; stroke-width: 1.0;"/><path d="M644.4731,356.6431 Q643.8921,356.9419 643.2529,357.0913 Q642.6138,357.2407 641.9082,357.2407 Q639.4014,357.2407 638.0815,355.5889 Q636.7617,353.937 636.7617,350.8159 Q636.7617,347.6865 638.0815,346.0347 Q639.4014,344.3828 641.9082,344.3828 Q642.6138,344.3828 643.2612,344.5322 Q643.9087,344.6816 644.4731,344.9805 L644.4731,347.7031 Q643.8423,347.1221 643.2488,346.8523 Q642.6553,346.5825 642.0244,346.5825 Q640.6797,346.5825 639.9949,347.6492 Q639.3101,348.7158 639.3101,350.8159 Q639.3101,352.9077 639.9949,353.9744 Q640.6797,355.041 642.0244,355.041 Q642.6553,355.041 643.2488,354.7712 Q643.8423,354.5015 644.4731,353.9204 Z "/><text fill="#000000" font-family="sans-serif" font-size="12" lengthAdjust="spacingAndGlyphs" textLength="90" x="656" y="355.0352">TiroirArgentUSB</text><line style="stroke: #000000; stroke-width: 1.5;" x1="628" x2="748" y1="366.5" y2="366.5"/><line style="stroke: #000000; stroke-width: 1.5;" x1="628" x2="748" y1="374.5" y2="374.5"/><!--MD5=[db7fb6444a68b83e01f8400cbde512d3]
link ATM to ICreateurTransaction--><path d="M485.36,108.08 C418.88,131.45 341.36,158.7 282.99,179.22 " fill="none" id="ATM-&gt;ICreateurTransaction" style="stroke: #A80036; stroke-width: 1.0;"/><polygon fill="#A80036" points="278.12,180.93,287.9372,181.719,282.8371,179.2719,285.2842,174.1717,278.12,180.93" style="stroke: #A80036; stroke-width: 1.0;"/><text fill="#000000" font-family="sans-serif" font-size="13" lengthAdjust="spacingAndGlyphs" textLength="8" x="458.0584" y="128.4186">1</text><text fill="#000000" font-family="sans-serif" font-size="13" lengthAdjust="spacingAndGlyphs" textLength="8" x="287.6463" y="170.2094">1</text><!--MD5=[eb99c36f224d2c934f0f352a44b691e7]
link ATM to ITiroirArgent--><path d="M594.48,108.19 C580.63,130.52 564.58,156.37 552.09,176.51 " fill="none" id="ATM-&gt;ITiroirArgent" style="stroke: #A80036; stroke-width: 1.0;"/><polygon fill="#A80036" points="549.32,180.97,557.4736,175.4457,551.9636,176.726,550.6832,171.2159,549.32,180.97" style="stroke: #A80036; stroke-width: 1.0;"/><text fill="#000000" font-family="sans-serif" font-size="13" lengthAdjust="spacingAndGlyphs" textLength="8" x="581.8414" y="128.5434">1</text><text fill="#000000" font-family="sans-serif" font-size="13" lengthAdjust="spacingAndGlyphs" textLength="8" x="544.4525" y="170.2582">1</text><!--MD5=[15c705e43b623bf115bd8b0a18d80b15]
link ATM to Compte--><path d="M655.52,108.19 C670.93,133.03 689.06,162.24 701.98,183.08 " fill="none" id="ATM-&gt;Compte" style="stroke: #A80036; stroke-width: 1.0; stroke-dasharray: 7.0,7.0;"/><polygon fill="#A80036" points="704.66,187.39,703.3205,177.6327,702.0267,183.1396,696.5198,181.8459,704.66,187.39" style="stroke: #A80036; stroke-width: 1.0;"/><!--MD5=[ae48d92779c10384a9b6a594986bcb28]
link ATM to Transaction--><path d="M703.57,108.19 C732.78,126.48 765.78,147.13 794.43,165.07 " fill="none" id="ATM-&gt;Transaction" style="stroke: #A80036; stroke-width: 1.0; stroke-dasharray: 7.0,7.0;"/><polygon fill="#A80036" points="798.99,167.92,793.4978,159.7447,794.7564,165.2597,789.2414,166.5184,798.99,167.92" style="stroke: #A80036; stroke-width: 1.0;"/><!--MD5=[8e6943342a8f158ad45e8308ed573d32]
reverse link Transaction to TransactionRetrait--><path d="M867,275.39 C867,288.62 867,302.29 867,314.58 " fill="none" id="Transaction&lt;-TransactionRetrait" style="stroke: #A80036; stroke-width: 1.0; stroke-dasharray: 7.0,7.0;"/><polygon fill="none" points="860,275.22,867,255.22,874,275.22,860,275.22" style="stroke: #A80036; stroke-width: 1.0;"/><!--MD5=[446ae26c9307d255a2629afd4b6ae928]
reverse link ITiroirArgent to TiroirArgentCOM--><path d="M483.28,255.74 C454.96,281.41 420.15,312.96 396.87,334.06 " fill="none" id="ITiroirArgent&lt;-TiroirArgentCOM" style="stroke: #A80036; stroke-width: 1.0;"/><polygon fill="none" points="478.72,250.44,498.24,242.19,488.12,260.81,478.72,250.44" style="stroke: #A80036; stroke-width: 1.0;"/><!--MD5=[2ab151a01331497284c953cc2aeb3b74]
reverse link ITiroirArgent to TiroirArgentLPT--><path d="M531,262.27 C531,286.6 531,314.71 531,334.06 " fill="none" id="ITiroirArgent&lt;-TiroirArgentLPT" style="stroke: #A80036; stroke-width: 1.0;"/><polygon fill="none" points="524,262.19,531,242.19,538,262.19,524,262.19" style="stroke: #A80036; stroke-width: 1.0;"/><!--MD5=[5283b3e9ffb6821f47e8e2574e41101c]
reverse link ITiroirArgent to TiroirArgentUSB--><path d="M578.21,256.1 C605.93,281.7 639.87,313.05 662.62,334.06 " fill="none" id="ITiroirArgent&lt;-TiroirArgentUSB" style="stroke: #A80036; stroke-width: 1.0;"/><polygon fill="none" points="573.09,260.9,563.15,242.19,582.59,250.62,573.09,260.9" style="stroke: #A80036; stroke-width: 1.0;"/><!--MD5=[c8cee0b6d699639a3adfe379cacf1162]
@startuml DIP_v02_s01

skinparam classAttributeIconSize 0
skinparam class {
    BackgroundColor White
    BorderColor #000
}


ATM "1" - -> "1" ICreateurTransaction
ATM "1" - -> "1" ITiroirArgent

ATM ..> Compte
ATM ..> Transaction

Transaction <|.. TransactionRetrait

ITiroirArgent <|- - TiroirArgentCOM
ITiroirArgent <|- - TiroirArgentLPT
ITiroirArgent <|- - TiroirArgentUSB

class ATM {

    - m_createurTransaction : ICreateurTransaction
    - m_tiroirArgent : ITiroirArgent

    + ATM(p_tiroirArgent : ITiroirArgent, p_createurTransaction : ICreateurTransaction)
    + Retirer(p_compte : Compte, p_montant : decimal)
}

class Compte {

}

interface ITiroirArgent {
    + DistribuerArgent(p_montant : decimal)
}

interface Transaction {
   + EstValide() : bool
   + ConfirmerTransaction()
   + Annuler()
}

interface ICreateurTransaction {
    + CreerTransactionRetrait(p_compte : Compte, p_montant : decimal)
}


class TransactionRetrait {
   + EstValide() : bool
   + ConfirmerTransaction()
   + Annuler()
}


@enduml

PlantUML version 1.2020.10(Sun May 17 05:35:57 EDT 2020)
(GPL source distribution)
Java Runtime: OpenJDK Runtime Environment
JVM: OpenJDK 64-Bit Server VM
Java Version: 13.0.2+8
Operating System: Mac OS X
Default Encoding: UTF-8
Language: fr
Country: CA
--></g></svg>