<?xml version="1.0" encoding="UTF-8" standalone="no"?><svg xmlns="http://www.w3.org/2000/svg" xmlns:xlink="http://www.w3.org/1999/xlink" contentScriptType="application/ecmascript" contentStyleType="text/css" height="412px" preserveAspectRatio="none" style="width:2187px;height:412px;" version="1.1" viewBox="0 0 2187 412" width="2187px" zoomAndPan="magnify"><defs><filter height="300%" id="f1fg1w13f4l8g7" width="300%" x="-1" y="-1"><feGaussianBlur result="blurOut" stdDeviation="2.0"/><feColorMatrix in="blurOut" result="blurOut2" type="matrix" values="0 0 0 0 0 0 0 0 0 0 0 0 0 0 0 0 0 0 .4 0"/><feOffset dx="4.0" dy="4.0" in="blurOut2" result="blurOut3"/><feBlend in="SourceGraphic" in2="blurOut3" mode="normal"/></filter></defs><g><!--MD5=[549ff358cecbd916f4ce2511ce44e009]
class ATM--><rect fill="#FFFFFF" filter="url(#f1fg1w13f4l8g7)" height="99.8203" id="ATM" style="stroke: #000000; stroke-width: 1.5;" width="460" x="1480" y="8"/><ellipse cx="1692.75" cy="24" fill="#ADD1B2" rx="11" ry="11" style="stroke: #000000; stroke-width: 1.0;"/><path d="M1695.2231,30.1431 Q1694.6421,30.4419 1694.0029,30.5913 Q1693.3638,30.7407 1692.6582,30.7407 Q1690.1514,30.7407 1688.8315,29.0889 Q1687.5117,27.437 1687.5117,24.3159 Q1687.5117,21.1865 1688.8315,19.5347 Q1690.1514,17.8828 1692.6582,17.8828 Q1693.3638,17.8828 1694.0112,18.0322 Q1694.6587,18.1816 1695.2231,18.4805 L1695.2231,21.2031 Q1694.5923,20.6221 1693.9988,20.3523 Q1693.4053,20.0825 1692.7744,20.0825 Q1691.4297,20.0825 1690.7449,21.1492 Q1690.0601,22.2158 1690.0601,24.3159 Q1690.0601,26.4077 1690.7449,27.4744 Q1691.4297,28.541 1692.7744,28.541 Q1693.4053,28.541 1693.9988,28.2712 Q1694.5923,28.0015 1695.2231,27.4204 Z "/><text fill="#000000" font-family="sans-serif" font-size="12" lengthAdjust="spacingAndGlyphs" textLength="26" x="1713.25" y="28.5352">ATM</text><line style="stroke: #000000; stroke-width: 1.5;" x1="1481" x2="1939" y1="40" y2="40"/><text fill="#000000" font-family="sans-serif" font-size="11" lengthAdjust="spacingAndGlyphs" textLength="254" x="1486" y="54.6348">-m_createurTransaction : ICreateurTransaction</text><text fill="#000000" font-family="sans-serif" font-size="11" lengthAdjust="spacingAndGlyphs" textLength="165" x="1486" y="67.5898">-m_tiroirArgent : ITiroirArgent</text><line style="stroke: #000000; stroke-width: 1.5;" x1="1481" x2="1939" y1="73.9102" y2="73.9102"/><text fill="#000000" font-family="sans-serif" font-size="11" lengthAdjust="spacingAndGlyphs" textLength="448" x="1486" y="88.5449">+ATM(p_tiroirArgent : ITiroirArgent, p_createurTransaction : ICreateurTransaction)</text><text fill="#000000" font-family="sans-serif" font-size="11" lengthAdjust="spacingAndGlyphs" textLength="271" x="1486" y="101.5">+Retirer(p_compte : Compte, p_montant : decimal)</text><!--MD5=[371277a0d048abdcbea9ae149ffe878a]
class ICreateurTransaction--><rect fill="#FFFFFF" filter="url(#f1fg1w13f4l8g7)" height="60.9551" id="ICreateurTransaction" style="stroke: #000000; stroke-width: 1.5;" width="376" x="623" y="181"/><ellipse cx="746.75" cy="197" fill="#B4A7E5" rx="11" ry="11" style="stroke: #000000; stroke-width: 1.0;"/><path d="M743.1777,193.2651 L743.1777,191.1069 L750.5571,191.1069 L750.5571,193.2651 L748.0918,193.2651 L748.0918,201.3418 L750.5571,201.3418 L750.5571,203.5 L743.1777,203.5 L743.1777,201.3418 L745.6431,201.3418 L745.6431,193.2651 Z "/><text fill="#000000" font-family="sans-serif" font-size="12" font-style="italic" lengthAdjust="spacingAndGlyphs" textLength="120" x="767.25" y="201.5352">ICreateurTransaction</text><line style="stroke: #000000; stroke-width: 1.5;" x1="624" x2="998" y1="213" y2="213"/><line style="stroke: #000000; stroke-width: 1.5;" x1="624" x2="998" y1="221" y2="221"/><text fill="#000000" font-family="sans-serif" font-size="11" lengthAdjust="spacingAndGlyphs" textLength="364" x="629" y="235.6348">+CreerTransactionRetrait(p_compte : Compte, p_montant : decimal)</text><!--MD5=[dc348672d8ba7a00bad9c81946fd5fe3]
class ITiroirArgent--><rect fill="#FFFFFF" filter="url(#f1fg1w13f4l8g7)" height="60.9551" id="ITiroirArgent" style="stroke: #000000; stroke-width: 1.5;" width="228" x="1502" y="181"/><ellipse cx="1575.75" cy="197" fill="#B4A7E5" rx="11" ry="11" style="stroke: #000000; stroke-width: 1.0;"/><path d="M1572.1777,193.2651 L1572.1777,191.1069 L1579.5571,191.1069 L1579.5571,193.2651 L1577.0918,193.2651 L1577.0918,201.3418 L1579.5571,201.3418 L1579.5571,203.5 L1572.1777,203.5 L1572.1777,201.3418 L1574.6431,201.3418 L1574.6431,193.2651 Z "/><text fill="#000000" font-family="sans-serif" font-size="12" font-style="italic" lengthAdjust="spacingAndGlyphs" textLength="72" x="1596.25" y="201.5352">ITiroirArgent</text><line style="stroke: #000000; stroke-width: 1.5;" x1="1503" x2="1729" y1="213" y2="213"/><line style="stroke: #000000; stroke-width: 1.5;" x1="1503" x2="1729" y1="221" y2="221"/><text fill="#000000" font-family="sans-serif" font-size="11" lengthAdjust="spacingAndGlyphs" textLength="216" x="1508" y="235.6348">+DistribuerArgent(p_montant : decimal)</text><!--MD5=[55a9f513ff876a6970678761cb3a400d]
class Compte--><rect fill="#FFFFFF" filter="url(#f1fg1w13f4l8g7)" height="48" id="Compte" style="stroke: #000000; stroke-width: 1.5;" width="77" x="1765.5" y="187.5"/><ellipse cx="1780.5" cy="203.5" fill="#ADD1B2" rx="11" ry="11" style="stroke: #000000; stroke-width: 1.0;"/><path d="M1782.9731,209.6431 Q1782.3921,209.9419 1781.7529,210.0913 Q1781.1138,210.2407 1780.4082,210.2407 Q1777.9014,210.2407 1776.5815,208.5889 Q1775.2617,206.937 1775.2617,203.8159 Q1775.2617,200.6865 1776.5815,199.0347 Q1777.9014,197.3828 1780.4082,197.3828 Q1781.1138,197.3828 1781.7612,197.5322 Q1782.4087,197.6816 1782.9731,197.9805 L1782.9731,200.7031 Q1782.3423,200.1221 1781.7488,199.8523 Q1781.1553,199.5825 1780.5244,199.5825 Q1779.1797,199.5825 1778.4949,200.6492 Q1777.8101,201.7158 1777.8101,203.8159 Q1777.8101,205.9077 1778.4949,206.9744 Q1779.1797,208.041 1780.5244,208.041 Q1781.1553,208.041 1781.7488,207.7712 Q1782.3423,207.5015 1782.9731,206.9204 Z "/><text fill="#000000" font-family="sans-serif" font-size="12" lengthAdjust="spacingAndGlyphs" textLength="45" x="1794.5" y="208.0352">Compte</text><line style="stroke: #000000; stroke-width: 1.5;" x1="1766.5" x2="1841.5" y1="219.5" y2="219.5"/><line style="stroke: #000000; stroke-width: 1.5;" x1="1766.5" x2="1841.5" y1="227.5" y2="227.5"/><!--MD5=[c29dde2030c32ee2161b3c3cd55c0b69]
class ITransaction--><rect fill="#FFFFFF" filter="url(#f1fg1w13f4l8g7)" height="86.8652" id="ITransaction" style="stroke: #000000; stroke-width: 1.5;" width="148" x="1953" y="168"/><ellipse cx="1988.7" cy="184" fill="#B4A7E5" rx="11" ry="11" style="stroke: #000000; stroke-width: 1.0;"/><path d="M1985.1277,180.2651 L1985.1277,178.1069 L1992.5071,178.1069 L1992.5071,180.2651 L1990.0418,180.2651 L1990.0418,188.3418 L1992.5071,188.3418 L1992.5071,190.5 L1985.1277,190.5 L1985.1277,188.3418 L1987.5931,188.3418 L1987.5931,180.2651 Z "/><text fill="#000000" font-family="sans-serif" font-size="12" font-style="italic" lengthAdjust="spacingAndGlyphs" textLength="70" x="2007.3" y="188.5352">ITransaction</text><line style="stroke: #000000; stroke-width: 1.5;" x1="1954" x2="2100" y1="200" y2="200"/><line style="stroke: #000000; stroke-width: 1.5;" x1="1954" x2="2100" y1="208" y2="208"/><text fill="#000000" font-family="sans-serif" font-size="11" lengthAdjust="spacingAndGlyphs" textLength="98" x="1959" y="222.6348">+EstValide() : bool</text><text fill="#000000" font-family="sans-serif" font-size="11" lengthAdjust="spacingAndGlyphs" textLength="136" x="1959" y="235.5898">+ConfirmerTransaction()</text><text fill="#000000" font-family="sans-serif" font-size="11" lengthAdjust="spacingAndGlyphs" textLength="60" x="1959" y="248.5449">+Annuler()</text><!--MD5=[a61b5a58fa153427499d8717e23138e9]
class TransactionRetrait--><rect fill="#FFFFFF" filter="url(#f1fg1w13f4l8g7)" height="86.8652" id="TransactionRetrait" style="stroke: #000000; stroke-width: 1.5;" width="148" x="2028" y="315"/><ellipse cx="2047.95" cy="331" fill="#ADD1B2" rx="11" ry="11" style="stroke: #000000; stroke-width: 1.0;"/><path d="M2050.4231,337.1431 Q2049.8421,337.4419 2049.2029,337.5913 Q2048.5638,337.7407 2047.8582,337.7407 Q2045.3514,337.7407 2044.0315,336.0889 Q2042.7117,334.437 2042.7117,331.3159 Q2042.7117,328.1865 2044.0315,326.5347 Q2045.3514,324.8828 2047.8582,324.8828 Q2048.5638,324.8828 2049.2112,325.0322 Q2049.8587,325.1816 2050.4231,325.4805 L2050.4231,328.2031 Q2049.7923,327.6221 2049.1988,327.3523 Q2048.6053,327.0825 2047.9744,327.0825 Q2046.6297,327.0825 2045.9449,328.1492 Q2045.2601,329.2158 2045.2601,331.3159 Q2045.2601,333.4077 2045.9449,334.4744 Q2046.6297,335.541 2047.9744,335.541 Q2048.6053,335.541 2049.1988,335.2712 Q2049.7923,335.0015 2050.4231,334.4204 Z "/><text fill="#000000" font-family="sans-serif" font-size="12" lengthAdjust="spacingAndGlyphs" textLength="105" x="2063.05" y="335.5352">TransactionRetrait</text><line style="stroke: #000000; stroke-width: 1.5;" x1="2029" x2="2175" y1="347" y2="347"/><line style="stroke: #000000; stroke-width: 1.5;" x1="2029" x2="2175" y1="355" y2="355"/><text fill="#000000" font-family="sans-serif" font-size="11" lengthAdjust="spacingAndGlyphs" textLength="98" x="2034" y="369.6348">+EstValide() : bool</text><text fill="#000000" font-family="sans-serif" font-size="11" lengthAdjust="spacingAndGlyphs" textLength="136" x="2034" y="382.5898">+ConfirmerTransaction()</text><text fill="#000000" font-family="sans-serif" font-size="11" lengthAdjust="spacingAndGlyphs" textLength="60" x="2034" y="395.5449">+Annuler()</text><!--MD5=[be62dc20b249d0ca4a916cfe69f0dc93]
class TiroirArgentCOM--><rect fill="#FFFFFF" filter="url(#f1fg1w13f4l8g7)" height="60.9551" id="TiroirArgentCOM" style="stroke: #000000; stroke-width: 1.5;" width="228" x="1239" y="328"/><ellipse cx="1300.75" cy="344" fill="#ADD1B2" rx="11" ry="11" style="stroke: #000000; stroke-width: 1.0;"/><path d="M1303.2231,350.1431 Q1302.6421,350.4419 1302.0029,350.5913 Q1301.3638,350.7407 1300.6582,350.7407 Q1298.1514,350.7407 1296.8315,349.0889 Q1295.5117,347.437 1295.5117,344.3159 Q1295.5117,341.1865 1296.8315,339.5347 Q1298.1514,337.8828 1300.6582,337.8828 Q1301.3638,337.8828 1302.0112,338.0322 Q1302.6587,338.1816 1303.2231,338.4805 L1303.2231,341.2031 Q1302.5923,340.6221 1301.9988,340.3523 Q1301.4053,340.0825 1300.7744,340.0825 Q1299.4297,340.0825 1298.7449,341.1492 Q1298.0601,342.2158 1298.0601,344.3159 Q1298.0601,346.4077 1298.7449,347.4744 Q1299.4297,348.541 1300.7744,348.541 Q1301.4053,348.541 1301.9988,348.2712 Q1302.5923,348.0015 1303.2231,347.4204 Z "/><text fill="#000000" font-family="sans-serif" font-size="12" lengthAdjust="spacingAndGlyphs" textLength="96" x="1321.25" y="348.5352">TiroirArgentCOM</text><line style="stroke: #000000; stroke-width: 1.5;" x1="1240" x2="1466" y1="360" y2="360"/><line style="stroke: #000000; stroke-width: 1.5;" x1="1240" x2="1466" y1="368" y2="368"/><text fill="#000000" font-family="sans-serif" font-size="11" lengthAdjust="spacingAndGlyphs" textLength="216" x="1245" y="382.6348">+DistribuerArgent(p_montant : decimal)</text><!--MD5=[a42bb2b4b977cb7af457966cc984d67d]
class TiroirArgentLPT--><rect fill="#FFFFFF" filter="url(#f1fg1w13f4l8g7)" height="60.9551" id="TiroirArgentLPT" style="stroke: #000000; stroke-width: 1.5;" width="228" x="1502" y="328"/><ellipse cx="1566.75" cy="344" fill="#ADD1B2" rx="11" ry="11" style="stroke: #000000; stroke-width: 1.0;"/><path d="M1569.2231,350.1431 Q1568.6421,350.4419 1568.0029,350.5913 Q1567.3638,350.7407 1566.6582,350.7407 Q1564.1514,350.7407 1562.8315,349.0889 Q1561.5117,347.437 1561.5117,344.3159 Q1561.5117,341.1865 1562.8315,339.5347 Q1564.1514,337.8828 1566.6582,337.8828 Q1567.3638,337.8828 1568.0112,338.0322 Q1568.6587,338.1816 1569.2231,338.4805 L1569.2231,341.2031 Q1568.5923,340.6221 1567.9988,340.3523 Q1567.4053,340.0825 1566.7744,340.0825 Q1565.4297,340.0825 1564.7449,341.1492 Q1564.0601,342.2158 1564.0601,344.3159 Q1564.0601,346.4077 1564.7449,347.4744 Q1565.4297,348.541 1566.7744,348.541 Q1567.4053,348.541 1567.9988,348.2712 Q1568.5923,348.0015 1569.2231,347.4204 Z "/><text fill="#000000" font-family="sans-serif" font-size="12" lengthAdjust="spacingAndGlyphs" textLength="90" x="1587.25" y="348.5352">TiroirArgentLPT</text><line style="stroke: #000000; stroke-width: 1.5;" x1="1503" x2="1729" y1="360" y2="360"/><line style="stroke: #000000; stroke-width: 1.5;" x1="1503" x2="1729" y1="368" y2="368"/><text fill="#000000" font-family="sans-serif" font-size="11" lengthAdjust="spacingAndGlyphs" textLength="216" x="1508" y="382.6348">+DistribuerArgent(p_montant : decimal)</text><!--MD5=[d16966432e5c9bc2f621fb2255af781d]
class TiroirArgentUSB--><rect fill="#FFFFFF" filter="url(#f1fg1w13f4l8g7)" height="60.9551" id="TiroirArgentUSB" style="stroke: #000000; stroke-width: 1.5;" width="228" x="1765" y="328"/><ellipse cx="1829.75" cy="344" fill="#ADD1B2" rx="11" ry="11" style="stroke: #000000; stroke-width: 1.0;"/><path d="M1832.2231,350.1431 Q1831.6421,350.4419 1831.0029,350.5913 Q1830.3638,350.7407 1829.6582,350.7407 Q1827.1514,350.7407 1825.8315,349.0889 Q1824.5117,347.437 1824.5117,344.3159 Q1824.5117,341.1865 1825.8315,339.5347 Q1827.1514,337.8828 1829.6582,337.8828 Q1830.3638,337.8828 1831.0112,338.0322 Q1831.6587,338.1816 1832.2231,338.4805 L1832.2231,341.2031 Q1831.5923,340.6221 1830.9988,340.3523 Q1830.4053,340.0825 1829.7744,340.0825 Q1828.4297,340.0825 1827.7449,341.1492 Q1827.0601,342.2158 1827.0601,344.3159 Q1827.0601,346.4077 1827.7449,347.4744 Q1828.4297,348.541 1829.7744,348.541 Q1830.4053,348.541 1830.9988,348.2712 Q1831.5923,348.0015 1832.2231,347.4204 Z "/><text fill="#000000" font-family="sans-serif" font-size="12" lengthAdjust="spacingAndGlyphs" textLength="90" x="1850.25" y="348.5352">TiroirArgentUSB</text><line style="stroke: #000000; stroke-width: 1.5;" x1="1766" x2="1992" y1="360" y2="360"/><line style="stroke: #000000; stroke-width: 1.5;" x1="1766" x2="1992" y1="368" y2="368"/><text fill="#000000" font-family="sans-serif" font-size="11" lengthAdjust="spacingAndGlyphs" textLength="216" x="1771" y="382.6348">+DistribuerArgent(p_montant : decimal)</text><!--MD5=[8a6ebacd9729d872c8b678efe093a852]
class CreateurTransactionDesjardins--><rect fill="#FFFFFF" filter="url(#f1fg1w13f4l8g7)" height="60.9551" id="CreateurTransactionDesjardins" style="stroke: #000000; stroke-width: 1.5;" width="376" x="6" y="328"/><ellipse cx="100.25" cy="344" fill="#ADD1B2" rx="11" ry="11" style="stroke: #000000; stroke-width: 1.0;"/><path d="M102.7231,350.1431 Q102.1421,350.4419 101.5029,350.5913 Q100.8638,350.7407 100.1582,350.7407 Q97.6514,350.7407 96.3315,349.0889 Q95.0117,347.437 95.0117,344.3159 Q95.0117,341.1865 96.3315,339.5347 Q97.6514,337.8828 100.1582,337.8828 Q100.8638,337.8828 101.5112,338.0322 Q102.1587,338.1816 102.7231,338.4805 L102.7231,341.2031 Q102.0923,340.6221 101.4988,340.3523 Q100.9053,340.0825 100.2744,340.0825 Q98.9297,340.0825 98.2449,341.1492 Q97.5601,342.2158 97.5601,344.3159 Q97.5601,346.4077 98.2449,347.4744 Q98.9297,348.541 100.2744,348.541 Q100.9053,348.541 101.4988,348.2712 Q102.0923,348.0015 102.7231,347.4204 Z "/><text fill="#000000" font-family="sans-serif" font-size="12" lengthAdjust="spacingAndGlyphs" textLength="179" x="120.75" y="348.5352">CreateurTransactionDesjardins</text><line style="stroke: #000000; stroke-width: 1.5;" x1="7" x2="381" y1="360" y2="360"/><line style="stroke: #000000; stroke-width: 1.5;" x1="7" x2="381" y1="368" y2="368"/><text fill="#000000" font-family="sans-serif" font-size="11" lengthAdjust="spacingAndGlyphs" textLength="364" x="12" y="382.6348">+CreerTransactionRetrait(p_compte : Compte, p_montant : decimal)</text><!--MD5=[2d16c1da871b6109e050ae4b2cbe363a]
class CreateurTransactionScotia--><rect fill="#FFFFFF" filter="url(#f1fg1w13f4l8g7)" height="60.9551" id="CreateurTransactionScotia" style="stroke: #000000; stroke-width: 1.5;" width="376" x="417" y="328"/><ellipse cx="525.75" cy="344" fill="#ADD1B2" rx="11" ry="11" style="stroke: #000000; stroke-width: 1.0;"/><path d="M528.2231,350.1431 Q527.6421,350.4419 527.0029,350.5913 Q526.3638,350.7407 525.6582,350.7407 Q523.1514,350.7407 521.8315,349.0889 Q520.5117,347.437 520.5117,344.3159 Q520.5117,341.1865 521.8315,339.5347 Q523.1514,337.8828 525.6582,337.8828 Q526.3638,337.8828 527.0112,338.0322 Q527.6587,338.1816 528.2231,338.4805 L528.2231,341.2031 Q527.5923,340.6221 526.9988,340.3523 Q526.4053,340.0825 525.7744,340.0825 Q524.4297,340.0825 523.7449,341.1492 Q523.0601,342.2158 523.0601,344.3159 Q523.0601,346.4077 523.7449,347.4744 Q524.4297,348.541 525.7744,348.541 Q526.4053,348.541 526.9988,348.2712 Q527.5923,348.0015 528.2231,347.4204 Z "/><text fill="#000000" font-family="sans-serif" font-size="12" lengthAdjust="spacingAndGlyphs" textLength="150" x="546.25" y="348.5352">CreateurTransactionScotia</text><line style="stroke: #000000; stroke-width: 1.5;" x1="418" x2="792" y1="360" y2="360"/><line style="stroke: #000000; stroke-width: 1.5;" x1="418" x2="792" y1="368" y2="368"/><text fill="#000000" font-family="sans-serif" font-size="11" lengthAdjust="spacingAndGlyphs" textLength="364" x="423" y="382.6348">+CreerTransactionRetrait(p_compte : Compte, p_montant : decimal)</text><!--MD5=[7fe97176a8e894112be237705c0e9bb6]
class CreateurTransactionCIBC--><rect fill="#FFFFFF" filter="url(#f1fg1w13f4l8g7)" height="60.9551" id="CreateurTransactionCIBC" style="stroke: #000000; stroke-width: 1.5;" width="376" x="828" y="328"/><ellipse cx="940.25" cy="344" fill="#ADD1B2" rx="11" ry="11" style="stroke: #000000; stroke-width: 1.0;"/><path d="M942.7231,350.1431 Q942.1421,350.4419 941.5029,350.5913 Q940.8638,350.7407 940.1582,350.7407 Q937.6514,350.7407 936.3315,349.0889 Q935.0117,347.437 935.0117,344.3159 Q935.0117,341.1865 936.3315,339.5347 Q937.6514,337.8828 940.1582,337.8828 Q940.8638,337.8828 941.5112,338.0322 Q942.1587,338.1816 942.7231,338.4805 L942.7231,341.2031 Q942.0923,340.6221 941.4988,340.3523 Q940.9053,340.0825 940.2744,340.0825 Q938.9297,340.0825 938.2449,341.1492 Q937.5601,342.2158 937.5601,344.3159 Q937.5601,346.4077 938.2449,347.4744 Q938.9297,348.541 940.2744,348.541 Q940.9053,348.541 941.4988,348.2712 Q942.0923,348.0015 942.7231,347.4204 Z "/><text fill="#000000" font-family="sans-serif" font-size="12" lengthAdjust="spacingAndGlyphs" textLength="143" x="960.75" y="348.5352">CreateurTransactionCIBC</text><line style="stroke: #000000; stroke-width: 1.5;" x1="829" x2="1203" y1="360" y2="360"/><line style="stroke: #000000; stroke-width: 1.5;" x1="829" x2="1203" y1="368" y2="368"/><text fill="#000000" font-family="sans-serif" font-size="11" lengthAdjust="spacingAndGlyphs" textLength="364" x="834" y="382.6348">+CreerTransactionRetrait(p_compte : Compte, p_montant : decimal)</text><!--MD5=[db7fb6444a68b83e01f8400cbde512d3]
link ATM to ICreateurTransaction--><path d="M1479.94,97.77 C1328.02,123.37 1131.77,156.44 991.19,180.13 " fill="none" id="ATM-&gt;ICreateurTransaction" style="stroke: #A80036; stroke-width: 1.0;"/><polygon fill="#A80036" points="986.21,180.97,995.7486,183.4225,991.1408,180.1411,994.4223,175.5333,986.21,180.97" style="stroke: #A80036; stroke-width: 1.0;"/><text fill="#000000" font-family="sans-serif" font-size="13" lengthAdjust="spacingAndGlyphs" textLength="8" x="1464.2599" y="96.4053">1</text><text fill="#000000" font-family="sans-serif" font-size="13" lengthAdjust="spacingAndGlyphs" textLength="8" x="1006.5667" y="172.2691">1</text><!--MD5=[eb99c36f224d2c934f0f352a44b691e7]
link ATM to ITiroirArgent--><path d="M1679.48,108.19 C1665.63,130.52 1649.58,156.37 1637.09,176.51 " fill="none" id="ATM-&gt;ITiroirArgent" style="stroke: #A80036; stroke-width: 1.0;"/><polygon fill="#A80036" points="1634.32,180.97,1642.4736,175.4457,1636.9636,176.726,1635.6832,171.2159,1634.32,180.97" style="stroke: #A80036; stroke-width: 1.0;"/><text fill="#000000" font-family="sans-serif" font-size="13" lengthAdjust="spacingAndGlyphs" textLength="8" x="1666.8414" y="128.5434">1</text><text fill="#000000" font-family="sans-serif" font-size="13" lengthAdjust="spacingAndGlyphs" textLength="8" x="1629.4525" y="170.2582">1</text><!--MD5=[15c705e43b623bf115bd8b0a18d80b15]
link ATM to Compte--><path d="M1740.52,108.19 C1755.93,133.03 1774.06,162.24 1786.98,183.08 " fill="none" id="ATM-&gt;Compte" style="stroke: #A80036; stroke-width: 1.0; stroke-dasharray: 7.0,7.0;"/><polygon fill="#A80036" points="1789.66,187.39,1788.3205,177.6327,1787.0267,183.1396,1781.5198,181.8459,1789.66,187.39" style="stroke: #A80036; stroke-width: 1.0;"/><!--MD5=[29c2ea4b86ccff9b70bb8c605d704a78]
link ATM to ITransaction--><path d="M1812.92,108.19 C1856.7,129.11 1906.95,153.13 1947.77,172.63 " fill="none" id="ATM-&gt;ITransaction" style="stroke: #A80036; stroke-width: 1.0; stroke-dasharray: 7.0,7.0;"/><polygon fill="#A80036" points="1952.7,174.99,1946.3041,167.5005,1948.1886,172.8342,1942.8549,174.7187,1952.7,174.99" style="stroke: #A80036; stroke-width: 1.0;"/><!--MD5=[ed3f9a6e3ba97e0d9e859f96f96a869f]
reverse link ITransaction to TransactionRetrait--><path d="M2058.31,273.04 C2065.53,286.99 2073.06,301.56 2079.8,314.58 " fill="none" id="ITransaction&lt;-TransactionRetrait" style="stroke: #A80036; stroke-width: 1.0; stroke-dasharray: 7.0,7.0;"/><polygon fill="none" points="2052.07,276.2,2049.1,255.22,2064.5,269.77,2052.07,276.2" style="stroke: #A80036; stroke-width: 1.0;"/><!--MD5=[446ae26c9307d255a2629afd4b6ae928]
reverse link ITiroirArgent to TiroirArgentCOM--><path d="M1544.91,251.69 C1501.47,275.65 1446.78,305.79 1406.91,327.78 " fill="none" id="ITiroirArgent&lt;-TiroirArgentCOM" style="stroke: #A80036; stroke-width: 1.0; stroke-dasharray: 7.0,7.0;"/><polygon fill="none" points="1541.57,245.54,1562.46,242.02,1548.33,257.8,1541.57,245.54" style="stroke: #A80036; stroke-width: 1.0;"/><!--MD5=[2ab151a01331497284c953cc2aeb3b74]
reverse link ITiroirArgent to TiroirArgentLPT--><path d="M1616,262.28 C1616,284.1 1616,308.99 1616,327.85 " fill="none" id="ITiroirArgent&lt;-TiroirArgentLPT" style="stroke: #A80036; stroke-width: 1.0; stroke-dasharray: 7.0,7.0;"/><polygon fill="none" points="1609,262.19,1616,242.19,1623,262.19,1609,262.19" style="stroke: #A80036; stroke-width: 1.0;"/><!--MD5=[5283b3e9ffb6821f47e8e2574e41101c]
reverse link ITiroirArgent to TiroirArgentUSB--><path d="M1687.09,251.69 C1730.53,275.65 1785.22,305.79 1825.09,327.78 " fill="none" id="ITiroirArgent&lt;-TiroirArgentUSB" style="stroke: #A80036; stroke-width: 1.0; stroke-dasharray: 7.0,7.0;"/><polygon fill="none" points="1683.67,257.8,1669.54,242.02,1690.43,245.54,1683.67,257.8" style="stroke: #A80036; stroke-width: 1.0;"/><!--MD5=[5c48882bb605109a4054ec3528324752]
reverse link ICreateurTransaction to CreateurTransactionDesjardins--><path d="M665.87,246.61 C560.74,271.31 420.03,304.38 319.69,327.96 " fill="none" id="ICreateurTransaction&lt;-CreateurTransactionDesjardins" style="stroke: #A80036; stroke-width: 1.0; stroke-dasharray: 7.0,7.0;"/><polygon fill="none" points="664.33,239.78,685.4,242.02,667.53,253.41,664.33,239.78" style="stroke: #A80036; stroke-width: 1.0;"/><!--MD5=[51a7aa975da97bcdf7be1df3d950e8d5]
reverse link ICreateurTransaction to CreateurTransactionScotia--><path d="M752.09,253.97 C718.58,277.56 677.39,306.55 647.13,327.85 " fill="none" id="ICreateurTransaction&lt;-CreateurTransactionScotia" style="stroke: #A80036; stroke-width: 1.0; stroke-dasharray: 7.0,7.0;"/><polygon fill="none" points="748.43,247.98,768.82,242.19,756.49,259.43,748.43,247.98" style="stroke: #A80036; stroke-width: 1.0;"/><!--MD5=[05436fafa37a1ff414daa8cdb28423cc]
reverse link ICreateurTransaction to CreateurTransactionCIBC--><path d="M869.63,253.97 C902.98,277.56 943.97,306.55 974.08,327.85 " fill="none" id="ICreateurTransaction&lt;-CreateurTransactionCIBC" style="stroke: #A80036; stroke-width: 1.0; stroke-dasharray: 7.0,7.0;"/><polygon fill="none" points="865.27,259.46,852.98,242.19,873.35,248.03,865.27,259.46" style="stroke: #A80036; stroke-width: 1.0;"/><!--MD5=[7723c3a14629dc81d7df9cd2694e5ca2]
@startuml Exercice03_PropSol

skinparam classAttributeIconSize 0
skinparam class {
    BackgroundColor White
    BorderColor #000
}


ATM "1" - -> "1" ICreateurTransaction
ATM "1" - -> "1" ITiroirArgent

ATM ..> Compte
ATM ..> ITransaction

ITransaction <|.. TransactionRetrait

ITiroirArgent <|.. TiroirArgentCOM
ITiroirArgent <|.. TiroirArgentLPT
ITiroirArgent <|.. TiroirArgentUSB

ICreateurTransaction <|.. CreateurTransactionDesjardins
ICreateurTransaction <|.. CreateurTransactionScotia
ICreateurTransaction <|.. CreateurTransactionCIBC

class ATM {

    - m_createurTransaction : ICreateurTransaction
    - m_tiroirArgent : ITiroirArgent

    + ATM(p_tiroirArgent : ITiroirArgent, p_createurTransaction : ICreateurTransaction)
    + Retirer(p_compte : Compte, p_montant : decimal)
}

class Compte {

}

interface ITiroirArgent {
    + DistribuerArgent(p_montant : decimal)
}

interface ITransaction {
   + EstValide() : bool
   + ConfirmerTransaction()
   + Annuler()
}

interface ICreateurTransaction {
    + CreerTransactionRetrait(p_compte : Compte, p_montant : decimal)
}

class CreateurTransactionDesjardins {
    + CreerTransactionRetrait(p_compte : Compte, p_montant : decimal)
}

class CreateurTransactionScotia {
    + CreerTransactionRetrait(p_compte : Compte, p_montant : decimal)
}

class CreateurTransactionCIBC {
    + CreerTransactionRetrait(p_compte : Compte, p_montant : decimal)
}

class TiroirArgentCOM {
    + DistribuerArgent(p_montant : decimal)
}

class TiroirArgentLPT {
    + DistribuerArgent(p_montant : decimal)
}

class TiroirArgentUSB {
    + DistribuerArgent(p_montant : decimal)
}

class TransactionRetrait {
   + EstValide() : bool
   + ConfirmerTransaction()
   + Annuler()
}


@enduml

PlantUML version 1.2020.10(Sun May 17 05:35:57 EDT 2020)
(GPL source distribution)
Java Runtime: OpenJDK Runtime Environment
JVM: OpenJDK 64-Bit Server VM
Java Version: 13.0.2+8
Operating System: Mac OS X
Default Encoding: UTF-8
Language: fr
Country: CA
--></g></svg>