<?xml version="1.0" encoding="us-ascii" standalone="no"?><svg xmlns="http://www.w3.org/2000/svg" xmlns:xlink="http://www.w3.org/1999/xlink" contentStyleType="text/css" height="579px" preserveAspectRatio="none" style="width:1996px;height:579px;background:#FFFFFF;" version="1.1" viewBox="0 0 1996 579" width="1996px" zoomAndPan="magnify"><defs/><g><!--class ATM--><g id="elem_ATM"><rect codeLine="26" fill="#FFFFFF" height="118.4375" id="ATM" rx="2.5" ry="2.5" style="stroke:#000000;stroke-width:0.5;" width="533" x="760.5" y="7"/><ellipse cx="1008.25" cy="23" fill="#ADD1B2" rx="11" ry="11" style="stroke:#181818;stroke-width:1.0;"/><path d="M1011.0156,18.875 Q1011.1719,18.6563 1011.3594,18.5469 Q1011.5469,18.4375 1011.7656,18.4375 Q1012.1406,18.4375 1012.375,18.6953 Q1012.6094,18.9531 1012.6094,19.5625 L1012.6094,21.0156 Q1012.6094,21.625 1012.375,21.8906 Q1012.1406,22.1563 1011.7656,22.1563 Q1011.4219,22.1563 1011.2188,21.9531 Q1011.0156,21.7656 1010.9063,21.25 Q1010.8594,20.8906 1010.6719,20.7031 Q1010.3438,20.3281 1009.7344,20.1094 Q1009.125,19.8906 1008.5,19.8906 Q1007.7344,19.8906 1007.1016,20.2188 Q1006.4688,20.5469 1005.9766,21.2969 Q1005.4844,22.0469 1005.4844,23.0781 L1005.4844,24.1719 Q1005.4844,25.4063 1006.375,26.2266 Q1007.2656,27.0469 1008.8594,27.0469 Q1009.7969,27.0469 1010.4531,26.7969 Q1010.8438,26.6406 1011.2656,26.2031 Q1011.5313,25.9375 1011.6797,25.8594 Q1011.8281,25.7813 1012.0313,25.7813 Q1012.3594,25.7813 1012.6172,26.0391 Q1012.875,26.2969 1012.875,26.6406 Q1012.875,26.9844 1012.5313,27.3906 Q1012.0313,27.9688 1011.2344,28.2969 Q1010.1563,28.75 1008.8594,28.75 Q1007.3438,28.75 1006.1406,28.125 Q1005.1563,27.625 1004.4688,26.5547 Q1003.7813,25.4844 1003.7813,24.2031 L1003.7813,23.0469 Q1003.7813,21.7188 1004.3984,20.5703 Q1005.0156,19.4219 1006.1094,18.8047 Q1007.2031,18.1875 1008.4375,18.1875 Q1009.1719,18.1875 1009.8203,18.3516 Q1010.4688,18.5156 1011.0156,18.875 Z " fill="#000000"/><text fill="#000000" font-family="sans-serif" font-size="14" lengthAdjust="spacing" textLength="29" x="1028.75" y="28.7285">ATM</text><line style="stroke:#000000;stroke-width:0.5;" x1="761.5" x2="1292.5" y1="39" y2="39"/><text fill="#000000" font-family="sans-serif" font-size="14" lengthAdjust="spacing" textLength="298" x="766.5" y="57.5332">-m_createurTransaction : ICreateurTransaction</text><text fill="#000000" font-family="sans-serif" font-size="14" lengthAdjust="spacing" textLength="184" x="766.5" y="75.1426">-m_tiroirArgent : ITiroirArgent</text><line style="stroke:#000000;stroke-width:0.5;" x1="761.5" x2="1292.5" y1="82.2188" y2="82.2188"/><text fill="#000000" font-family="sans-serif" font-size="14" lengthAdjust="spacing" textLength="521" x="766.5" y="100.752">+ATM(p_tiroirArgent : ITiroirArgent, p_createurTransaction : ICreateurTransaction)</text><text fill="#000000" font-family="sans-serif" font-size="14" lengthAdjust="spacing" textLength="319" x="766.5" y="118.3613">+Retirer(p_compte : Compte, p_montant : decimal)</text></g><!--class ICreateurTransaction--><g id="elem_ICreateurTransaction"><rect codeLine="49" fill="#FFFFFF" height="65.6094" id="ICreateurTransaction" rx="2.5" ry="2.5" style="stroke:#000000;stroke-width:0.5;" width="531" x="892.5" y="363.5"/><ellipse cx="1086.25" cy="379.5" fill="#B4A7E5" rx="11" ry="11" style="stroke:#181818;stroke-width:1.0;"/><path d="M1087.2031,376.1406 L1087.2031,382.7969 L1088.9219,382.7969 Q1089.5313,382.7969 1089.7969,383.0313 Q1090.0625,383.2656 1090.0625,383.6563 Q1090.0625,384.0313 1089.7969,384.2656 Q1089.5313,384.5 1088.9219,384.5 L1083.7813,384.5 Q1083.1719,384.5 1082.9063,384.2656 Q1082.6406,384.0313 1082.6406,383.6406 Q1082.6406,383.2656 1082.9063,383.0313 Q1083.1719,382.7969 1083.7813,382.7969 L1085.5,382.7969 L1085.5,376.1406 L1083.7813,376.1406 Q1083.1719,376.1406 1082.9063,375.9063 Q1082.6406,375.6719 1082.6406,375.2813 Q1082.6406,374.9063 1082.9063,374.6719 Q1083.1719,374.4375 1083.7813,374.4375 L1088.9219,374.4375 Q1089.5313,374.4375 1089.7969,374.6719 Q1090.0625,374.9063 1090.0625,375.2813 Q1090.0625,375.6719 1089.7969,375.9063 Q1089.5313,376.1406 1088.9219,376.1406 L1087.2031,376.1406 Z " fill="#000000"/><text fill="#000000" font-family="sans-serif" font-size="14" font-style="italic" lengthAdjust="spacing" textLength="135" x="1106.75" y="385.2285">ICreateurTransaction</text><line style="stroke:#000000;stroke-width:0.5;" x1="893.5" x2="1422.5" y1="395.5" y2="395.5"/><line style="stroke:#000000;stroke-width:0.5;" x1="893.5" x2="1422.5" y1="403.5" y2="403.5"/><text fill="#000000" font-family="sans-serif" font-size="14" lengthAdjust="spacing" textLength="519" x="898.5" y="422.0332">+CreerTransactionRetrait(p_compte : Compte, p_montant : decimal) : ITransaction</text></g><!--class ITiroirArgent--><g id="elem_ITiroirArgent"><rect codeLine="39" fill="#FFFFFF" height="65.6094" id="ITiroirArgent" rx="2.5" ry="2.5" style="stroke:#000000;stroke-width:0.5;" width="260" x="522" y="202.5"/><ellipse cx="608.25" cy="218.5" fill="#B4A7E5" rx="11" ry="11" style="stroke:#181818;stroke-width:1.0;"/><path d="M609.2031,215.1406 L609.2031,221.7969 L610.9219,221.7969 Q611.5313,221.7969 611.7969,222.0313 Q612.0625,222.2656 612.0625,222.6563 Q612.0625,223.0313 611.7969,223.2656 Q611.5313,223.5 610.9219,223.5 L605.7813,223.5 Q605.1719,223.5 604.9063,223.2656 Q604.6406,223.0313 604.6406,222.6406 Q604.6406,222.2656 604.9063,222.0313 Q605.1719,221.7969 605.7813,221.7969 L607.5,221.7969 L607.5,215.1406 L605.7813,215.1406 Q605.1719,215.1406 604.9063,214.9063 Q604.6406,214.6719 604.6406,214.2813 Q604.6406,213.9063 604.9063,213.6719 Q605.1719,213.4375 605.7813,213.4375 L610.9219,213.4375 Q611.5313,213.4375 611.7969,213.6719 Q612.0625,213.9063 612.0625,214.2813 Q612.0625,214.6719 611.7969,214.9063 Q611.5313,215.1406 610.9219,215.1406 L609.2031,215.1406 Z " fill="#000000"/><text fill="#000000" font-family="sans-serif" font-size="14" font-style="italic" lengthAdjust="spacing" textLength="79" x="628.75" y="224.2285">ITiroirArgent</text><line style="stroke:#000000;stroke-width:0.5;" x1="523" x2="781" y1="234.5" y2="234.5"/><line style="stroke:#000000;stroke-width:0.5;" x1="523" x2="781" y1="242.5" y2="242.5"/><text fill="#000000" font-family="sans-serif" font-size="14" lengthAdjust="spacing" textLength="248" x="528" y="261.0332">+DistribuerArgent(p_montant : decimal)</text></g><!--class Compte--><g id="elem_Compte"><rect codeLine="35" fill="#FFFFFF" height="48" id="Compte" rx="2.5" ry="2.5" style="stroke:#000000;stroke-width:0.5;" width="81" x="1033.5" y="211.5"/><ellipse cx="1048.5" cy="227.5" fill="#ADD1B2" rx="11" ry="11" style="stroke:#181818;stroke-width:1.0;"/><path d="M1051.2656,223.375 Q1051.4219,223.1563 1051.6094,223.0469 Q1051.7969,222.9375 1052.0156,222.9375 Q1052.3906,222.9375 1052.625,223.1953 Q1052.8594,223.4531 1052.8594,224.0625 L1052.8594,225.5156 Q1052.8594,226.125 1052.625,226.3906 Q1052.3906,226.6563 1052.0156,226.6563 Q1051.6719,226.6563 1051.4688,226.4531 Q1051.2656,226.2656 1051.1563,225.75 Q1051.1094,225.3906 1050.9219,225.2031 Q1050.5938,224.8281 1049.9844,224.6094 Q1049.375,224.3906 1048.75,224.3906 Q1047.9844,224.3906 1047.3516,224.7188 Q1046.7188,225.0469 1046.2266,225.7969 Q1045.7344,226.5469 1045.7344,227.5781 L1045.7344,228.6719 Q1045.7344,229.9063 1046.625,230.7266 Q1047.5156,231.5469 1049.1094,231.5469 Q1050.0469,231.5469 1050.7031,231.2969 Q1051.0938,231.1406 1051.5156,230.7031 Q1051.7813,230.4375 1051.9297,230.3594 Q1052.0781,230.2813 1052.2813,230.2813 Q1052.6094,230.2813 1052.8672,230.5391 Q1053.125,230.7969 1053.125,231.1406 Q1053.125,231.4844 1052.7813,231.8906 Q1052.2813,232.4688 1051.4844,232.7969 Q1050.4063,233.25 1049.1094,233.25 Q1047.5938,233.25 1046.3906,232.625 Q1045.4063,232.125 1044.7188,231.0547 Q1044.0313,229.9844 1044.0313,228.7031 L1044.0313,227.5469 Q1044.0313,226.2188 1044.6484,225.0703 Q1045.2656,223.9219 1046.3594,223.3047 Q1047.4531,222.6875 1048.6875,222.6875 Q1049.4219,222.6875 1050.0703,222.8516 Q1050.7188,223.0156 1051.2656,223.375 Z " fill="#000000"/><text fill="#000000" font-family="sans-serif" font-size="14" lengthAdjust="spacing" textLength="49" x="1062.5" y="233.2285">Compte</text><line style="stroke:#000000;stroke-width:0.5;" x1="1034.5" x2="1113.5" y1="243.5" y2="243.5"/><line style="stroke:#000000;stroke-width:0.5;" x1="1034.5" x2="1113.5" y1="251.5" y2="251.5"/></g><!--class ITransaction--><g id="elem_ITransaction"><rect codeLine="43" fill="#FFFFFF" height="100.8281" id="ITransaction" rx="2.5" ry="2.5" style="stroke:#000000;stroke-width:0.5;" width="167" x="1149.5" y="185"/><ellipse cx="1189.7" cy="201" fill="#B4A7E5" rx="11" ry="11" style="stroke:#181818;stroke-width:1.0;"/><path d="M1190.6531,197.6406 L1190.6531,204.2969 L1192.3719,204.2969 Q1192.9813,204.2969 1193.2469,204.5313 Q1193.5125,204.7656 1193.5125,205.1563 Q1193.5125,205.5313 1193.2469,205.7656 Q1192.9813,206 1192.3719,206 L1187.2313,206 Q1186.6219,206 1186.3563,205.7656 Q1186.0906,205.5313 1186.0906,205.1406 Q1186.0906,204.7656 1186.3563,204.5313 Q1186.6219,204.2969 1187.2313,204.2969 L1188.95,204.2969 L1188.95,197.6406 L1187.2313,197.6406 Q1186.6219,197.6406 1186.3563,197.4063 Q1186.0906,197.1719 1186.0906,196.7813 Q1186.0906,196.4063 1186.3563,196.1719 Q1186.6219,195.9375 1187.2313,195.9375 L1192.3719,195.9375 Q1192.9813,195.9375 1193.2469,196.1719 Q1193.5125,196.4063 1193.5125,196.7813 Q1193.5125,197.1719 1193.2469,197.4063 Q1192.9813,197.6406 1192.3719,197.6406 L1190.6531,197.6406 Z " fill="#000000"/><text fill="#000000" font-family="sans-serif" font-size="14" font-style="italic" lengthAdjust="spacing" textLength="79" x="1209.3" y="206.7285">ITransaction</text><line style="stroke:#000000;stroke-width:0.5;" x1="1150.5" x2="1315.5" y1="217" y2="217"/><line style="stroke:#000000;stroke-width:0.5;" x1="1150.5" x2="1315.5" y1="225" y2="225"/><text fill="#000000" font-family="sans-serif" font-size="14" lengthAdjust="spacing" textLength="116" x="1155.5" y="243.5332">+EstValide() : bool</text><text fill="#000000" font-family="sans-serif" font-size="14" lengthAdjust="spacing" textLength="155" x="1155.5" y="261.1426">+ConfirmerTransaction()</text><text fill="#000000" font-family="sans-serif" font-size="14" lengthAdjust="spacing" textLength="67" x="1155.5" y="278.752">+Annuler()</text></g><!--class TransactionRetrait--><g id="elem_TransactionRetrait"><rect codeLine="77" fill="#FFFFFF" height="100.8281" id="TransactionRetrait" rx="2.5" ry="2.5" style="stroke:#000000;stroke-width:0.5;" width="167" x="1458.5" y="346"/><ellipse cx="1481.6" cy="362" fill="#ADD1B2" rx="11" ry="11" style="stroke:#181818;stroke-width:1.0;"/><path d="M1484.3656,357.875 Q1484.5219,357.6563 1484.7094,357.5469 Q1484.8969,357.4375 1485.1156,357.4375 Q1485.4906,357.4375 1485.725,357.6953 Q1485.9594,357.9531 1485.9594,358.5625 L1485.9594,360.0156 Q1485.9594,360.625 1485.725,360.8906 Q1485.4906,361.1563 1485.1156,361.1563 Q1484.7719,361.1563 1484.5688,360.9531 Q1484.3656,360.7656 1484.2563,360.25 Q1484.2094,359.8906 1484.0219,359.7031 Q1483.6938,359.3281 1483.0844,359.1094 Q1482.475,358.8906 1481.85,358.8906 Q1481.0844,358.8906 1480.4516,359.2188 Q1479.8188,359.5469 1479.3266,360.2969 Q1478.8344,361.0469 1478.8344,362.0781 L1478.8344,363.1719 Q1478.8344,364.4063 1479.725,365.2266 Q1480.6156,366.0469 1482.2094,366.0469 Q1483.1469,366.0469 1483.8031,365.7969 Q1484.1938,365.6406 1484.6156,365.2031 Q1484.8813,364.9375 1485.0297,364.8594 Q1485.1781,364.7813 1485.3813,364.7813 Q1485.7094,364.7813 1485.9672,365.0391 Q1486.225,365.2969 1486.225,365.6406 Q1486.225,365.9844 1485.8813,366.3906 Q1485.3813,366.9688 1484.5844,367.2969 Q1483.5063,367.75 1482.2094,367.75 Q1480.6938,367.75 1479.4906,367.125 Q1478.5063,366.625 1477.8188,365.5547 Q1477.1313,364.4844 1477.1313,363.2031 L1477.1313,362.0469 Q1477.1313,360.7188 1477.7484,359.5703 Q1478.3656,358.4219 1479.4594,357.8047 Q1480.5531,357.1875 1481.7875,357.1875 Q1482.5219,357.1875 1483.1703,357.3516 Q1483.8188,357.5156 1484.3656,357.875 Z " fill="#000000"/><text fill="#000000" font-family="sans-serif" font-size="14" lengthAdjust="spacing" textLength="117" x="1497.4" y="367.7285">TransactionRetrait</text><line style="stroke:#000000;stroke-width:0.5;" x1="1459.5" x2="1624.5" y1="378" y2="378"/><line style="stroke:#000000;stroke-width:0.5;" x1="1459.5" x2="1624.5" y1="386" y2="386"/><text fill="#000000" font-family="sans-serif" font-size="14" lengthAdjust="spacing" textLength="116" x="1464.5" y="404.5332">+EstValide() : bool</text><text fill="#000000" font-family="sans-serif" font-size="14" lengthAdjust="spacing" textLength="155" x="1464.5" y="422.1426">+ConfirmerTransaction()</text><text fill="#000000" font-family="sans-serif" font-size="14" lengthAdjust="spacing" textLength="67" x="1464.5" y="439.752">+Annuler()</text></g><!--class TiroirArgentCOM--><g id="elem_TiroirArgentCOM"><rect codeLine="65" fill="#FFFFFF" height="65.6094" id="TiroirArgentCOM" rx="2.5" ry="2.5" style="stroke:#000000;stroke-width:0.5;" width="260" x="597" y="363.5"/><ellipse cx="669.25" cy="379.5" fill="#ADD1B2" rx="11" ry="11" style="stroke:#181818;stroke-width:1.0;"/><path d="M672.0156,375.375 Q672.1719,375.1563 672.3594,375.0469 Q672.5469,374.9375 672.7656,374.9375 Q673.1406,374.9375 673.375,375.1953 Q673.6094,375.4531 673.6094,376.0625 L673.6094,377.5156 Q673.6094,378.125 673.375,378.3906 Q673.1406,378.6563 672.7656,378.6563 Q672.4219,378.6563 672.2188,378.4531 Q672.0156,378.2656 671.9063,377.75 Q671.8594,377.3906 671.6719,377.2031 Q671.3438,376.8281 670.7344,376.6094 Q670.125,376.3906 669.5,376.3906 Q668.7344,376.3906 668.1016,376.7188 Q667.4688,377.0469 666.9766,377.7969 Q666.4844,378.5469 666.4844,379.5781 L666.4844,380.6719 Q666.4844,381.9063 667.375,382.7266 Q668.2656,383.5469 669.8594,383.5469 Q670.7969,383.5469 671.4531,383.2969 Q671.8438,383.1406 672.2656,382.7031 Q672.5313,382.4375 672.6797,382.3594 Q672.8281,382.2813 673.0313,382.2813 Q673.3594,382.2813 673.6172,382.5391 Q673.875,382.7969 673.875,383.1406 Q673.875,383.4844 673.5313,383.8906 Q673.0313,384.4688 672.2344,384.7969 Q671.1563,385.25 669.8594,385.25 Q668.3438,385.25 667.1406,384.625 Q666.1563,384.125 665.4688,383.0547 Q664.7813,381.9844 664.7813,380.7031 L664.7813,379.5469 Q664.7813,378.2188 665.3984,377.0703 Q666.0156,375.9219 667.1094,375.3047 Q668.2031,374.6875 669.4375,374.6875 Q670.1719,374.6875 670.8203,374.8516 Q671.4688,375.0156 672.0156,375.375 Z " fill="#000000"/><text fill="#000000" font-family="sans-serif" font-size="14" lengthAdjust="spacing" textLength="107" x="689.75" y="385.2285">TiroirArgentCOM</text><line style="stroke:#000000;stroke-width:0.5;" x1="598" x2="856" y1="395.5" y2="395.5"/><line style="stroke:#000000;stroke-width:0.5;" x1="598" x2="856" y1="403.5" y2="403.5"/><text fill="#000000" font-family="sans-serif" font-size="14" lengthAdjust="spacing" textLength="248" x="603" y="422.0332">+DistribuerArgent(p_montant : decimal)</text></g><!--class TiroirArgentLPT--><g id="elem_TiroirArgentLPT"><rect codeLine="69" fill="#FFFFFF" height="65.6094" id="TiroirArgentLPT" rx="2.5" ry="2.5" style="stroke:#000000;stroke-width:0.5;" width="260" x="7" y="363.5"/><ellipse cx="82.25" cy="379.5" fill="#ADD1B2" rx="11" ry="11" style="stroke:#181818;stroke-width:1.0;"/><path d="M85.0156,375.375 Q85.1719,375.1563 85.3594,375.0469 Q85.5469,374.9375 85.7656,374.9375 Q86.1406,374.9375 86.375,375.1953 Q86.6094,375.4531 86.6094,376.0625 L86.6094,377.5156 Q86.6094,378.125 86.375,378.3906 Q86.1406,378.6563 85.7656,378.6563 Q85.4219,378.6563 85.2188,378.4531 Q85.0156,378.2656 84.9063,377.75 Q84.8594,377.3906 84.6719,377.2031 Q84.3438,376.8281 83.7344,376.6094 Q83.125,376.3906 82.5,376.3906 Q81.7344,376.3906 81.1016,376.7188 Q80.4688,377.0469 79.9766,377.7969 Q79.4844,378.5469 79.4844,379.5781 L79.4844,380.6719 Q79.4844,381.9063 80.375,382.7266 Q81.2656,383.5469 82.8594,383.5469 Q83.7969,383.5469 84.4531,383.2969 Q84.8438,383.1406 85.2656,382.7031 Q85.5313,382.4375 85.6797,382.3594 Q85.8281,382.2813 86.0313,382.2813 Q86.3594,382.2813 86.6172,382.5391 Q86.875,382.7969 86.875,383.1406 Q86.875,383.4844 86.5313,383.8906 Q86.0313,384.4688 85.2344,384.7969 Q84.1563,385.25 82.8594,385.25 Q81.3438,385.25 80.1406,384.625 Q79.1563,384.125 78.4688,383.0547 Q77.7813,381.9844 77.7813,380.7031 L77.7813,379.5469 Q77.7813,378.2188 78.3984,377.0703 Q79.0156,375.9219 80.1094,375.3047 Q81.2031,374.6875 82.4375,374.6875 Q83.1719,374.6875 83.8203,374.8516 Q84.4688,375.0156 85.0156,375.375 Z " fill="#000000"/><text fill="#000000" font-family="sans-serif" font-size="14" lengthAdjust="spacing" textLength="101" x="102.75" y="385.2285">TiroirArgentLPT</text><line style="stroke:#000000;stroke-width:0.5;" x1="8" x2="266" y1="395.5" y2="395.5"/><line style="stroke:#000000;stroke-width:0.5;" x1="8" x2="266" y1="403.5" y2="403.5"/><text fill="#000000" font-family="sans-serif" font-size="14" lengthAdjust="spacing" textLength="248" x="13" y="422.0332">+DistribuerArgent(p_montant : decimal)</text></g><!--class TiroirArgentUSB--><g id="elem_TiroirArgentUSB"><rect codeLine="73" fill="#FFFFFF" height="65.6094" id="TiroirArgentUSB" rx="2.5" ry="2.5" style="stroke:#000000;stroke-width:0.5;" width="260" x="302" y="363.5"/><ellipse cx="376.75" cy="379.5" fill="#ADD1B2" rx="11" ry="11" style="stroke:#181818;stroke-width:1.0;"/><path d="M379.5156,375.375 Q379.6719,375.1563 379.8594,375.0469 Q380.0469,374.9375 380.2656,374.9375 Q380.6406,374.9375 380.875,375.1953 Q381.1094,375.4531 381.1094,376.0625 L381.1094,377.5156 Q381.1094,378.125 380.875,378.3906 Q380.6406,378.6563 380.2656,378.6563 Q379.9219,378.6563 379.7188,378.4531 Q379.5156,378.2656 379.4063,377.75 Q379.3594,377.3906 379.1719,377.2031 Q378.8438,376.8281 378.2344,376.6094 Q377.625,376.3906 377,376.3906 Q376.2344,376.3906 375.6016,376.7188 Q374.9688,377.0469 374.4766,377.7969 Q373.9844,378.5469 373.9844,379.5781 L373.9844,380.6719 Q373.9844,381.9063 374.875,382.7266 Q375.7656,383.5469 377.3594,383.5469 Q378.2969,383.5469 378.9531,383.2969 Q379.3438,383.1406 379.7656,382.7031 Q380.0313,382.4375 380.1797,382.3594 Q380.3281,382.2813 380.5313,382.2813 Q380.8594,382.2813 381.1172,382.5391 Q381.375,382.7969 381.375,383.1406 Q381.375,383.4844 381.0313,383.8906 Q380.5313,384.4688 379.7344,384.7969 Q378.6563,385.25 377.3594,385.25 Q375.8438,385.25 374.6406,384.625 Q373.6563,384.125 372.9688,383.0547 Q372.2813,381.9844 372.2813,380.7031 L372.2813,379.5469 Q372.2813,378.2188 372.8984,377.0703 Q373.5156,375.9219 374.6094,375.3047 Q375.7031,374.6875 376.9375,374.6875 Q377.6719,374.6875 378.3203,374.8516 Q378.9688,375.0156 379.5156,375.375 Z " fill="#000000"/><text fill="#000000" font-family="sans-serif" font-size="14" lengthAdjust="spacing" textLength="102" x="397.25" y="385.2285">TiroirArgentUSB</text><line style="stroke:#000000;stroke-width:0.5;" x1="303" x2="561" y1="395.5" y2="395.5"/><line style="stroke:#000000;stroke-width:0.5;" x1="303" x2="561" y1="403.5" y2="403.5"/><text fill="#000000" font-family="sans-serif" font-size="14" lengthAdjust="spacing" textLength="248" x="308" y="422.0332">+DistribuerArgent(p_montant : decimal)</text></g><!--class CreateurTransactionDesjardins--><g id="elem_CreateurTransactionDesjardins"><rect codeLine="53" fill="#FFFFFF" height="65.6094" id="CreateurTransactionDesjardins" rx="2.5" ry="2.5" style="stroke:#000000;stroke-width:0.5;" width="531" x="326.5" y="507"/><ellipse cx="488.75" cy="523" fill="#ADD1B2" rx="11" ry="11" style="stroke:#181818;stroke-width:1.0;"/><path d="M491.5156,518.875 Q491.6719,518.6563 491.8594,518.5469 Q492.0469,518.4375 492.2656,518.4375 Q492.6406,518.4375 492.875,518.6953 Q493.1094,518.9531 493.1094,519.5625 L493.1094,521.0156 Q493.1094,521.625 492.875,521.8906 Q492.6406,522.1563 492.2656,522.1563 Q491.9219,522.1563 491.7188,521.9531 Q491.5156,521.7656 491.4063,521.25 Q491.3594,520.8906 491.1719,520.7031 Q490.8438,520.3281 490.2344,520.1094 Q489.625,519.8906 489,519.8906 Q488.2344,519.8906 487.6016,520.2188 Q486.9688,520.5469 486.4766,521.2969 Q485.9844,522.0469 485.9844,523.0781 L485.9844,524.1719 Q485.9844,525.4063 486.875,526.2266 Q487.7656,527.0469 489.3594,527.0469 Q490.2969,527.0469 490.9531,526.7969 Q491.3438,526.6406 491.7656,526.2031 Q492.0313,525.9375 492.1797,525.8594 Q492.3281,525.7813 492.5313,525.7813 Q492.8594,525.7813 493.1172,526.0391 Q493.375,526.2969 493.375,526.6406 Q493.375,526.9844 493.0313,527.3906 Q492.5313,527.9688 491.7344,528.2969 Q490.6563,528.75 489.3594,528.75 Q487.8438,528.75 486.6406,528.125 Q485.6563,527.625 484.9688,526.5547 Q484.2813,525.4844 484.2813,524.2031 L484.2813,523.0469 Q484.2813,521.7188 484.8984,520.5703 Q485.5156,519.4219 486.6094,518.8047 Q487.7031,518.1875 488.9375,518.1875 Q489.6719,518.1875 490.3203,518.3516 Q490.9688,518.5156 491.5156,518.875 Z " fill="#000000"/><text fill="#000000" font-family="sans-serif" font-size="14" lengthAdjust="spacing" textLength="198" x="509.25" y="528.7285">CreateurTransactionDesjardins</text><line style="stroke:#000000;stroke-width:0.5;" x1="327.5" x2="856.5" y1="539" y2="539"/><line style="stroke:#000000;stroke-width:0.5;" x1="327.5" x2="856.5" y1="547" y2="547"/><text fill="#000000" font-family="sans-serif" font-size="14" lengthAdjust="spacing" textLength="519" x="332.5" y="565.5332">+CreerTransactionRetrait(p_compte : Compte, p_montant : decimal) : ITransaction</text></g><!--class CreateurTransactionScotia--><g id="elem_CreateurTransactionScotia"><rect codeLine="57" fill="#FFFFFF" height="65.6094" id="CreateurTransactionScotia" rx="2.5" ry="2.5" style="stroke:#000000;stroke-width:0.5;" width="531" x="892.5" y="507"/><ellipse cx="1068.75" cy="523" fill="#ADD1B2" rx="11" ry="11" style="stroke:#181818;stroke-width:1.0;"/><path d="M1071.5156,518.875 Q1071.6719,518.6563 1071.8594,518.5469 Q1072.0469,518.4375 1072.2656,518.4375 Q1072.6406,518.4375 1072.875,518.6953 Q1073.1094,518.9531 1073.1094,519.5625 L1073.1094,521.0156 Q1073.1094,521.625 1072.875,521.8906 Q1072.6406,522.1563 1072.2656,522.1563 Q1071.9219,522.1563 1071.7188,521.9531 Q1071.5156,521.7656 1071.4063,521.25 Q1071.3594,520.8906 1071.1719,520.7031 Q1070.8438,520.3281 1070.2344,520.1094 Q1069.625,519.8906 1069,519.8906 Q1068.2344,519.8906 1067.6016,520.2188 Q1066.9688,520.5469 1066.4766,521.2969 Q1065.9844,522.0469 1065.9844,523.0781 L1065.9844,524.1719 Q1065.9844,525.4063 1066.875,526.2266 Q1067.7656,527.0469 1069.3594,527.0469 Q1070.2969,527.0469 1070.9531,526.7969 Q1071.3438,526.6406 1071.7656,526.2031 Q1072.0313,525.9375 1072.1797,525.8594 Q1072.3281,525.7813 1072.5313,525.7813 Q1072.8594,525.7813 1073.1172,526.0391 Q1073.375,526.2969 1073.375,526.6406 Q1073.375,526.9844 1073.0313,527.3906 Q1072.5313,527.9688 1071.7344,528.2969 Q1070.6563,528.75 1069.3594,528.75 Q1067.8438,528.75 1066.6406,528.125 Q1065.6563,527.625 1064.9688,526.5547 Q1064.2813,525.4844 1064.2813,524.2031 L1064.2813,523.0469 Q1064.2813,521.7188 1064.8984,520.5703 Q1065.5156,519.4219 1066.6094,518.8047 Q1067.7031,518.1875 1068.9375,518.1875 Q1069.6719,518.1875 1070.3203,518.3516 Q1070.9688,518.5156 1071.5156,518.875 Z " fill="#000000"/><text fill="#000000" font-family="sans-serif" font-size="14" lengthAdjust="spacing" textLength="170" x="1089.25" y="528.7285">CreateurTransactionScotia</text><line style="stroke:#000000;stroke-width:0.5;" x1="893.5" x2="1422.5" y1="539" y2="539"/><line style="stroke:#000000;stroke-width:0.5;" x1="893.5" x2="1422.5" y1="547" y2="547"/><text fill="#000000" font-family="sans-serif" font-size="14" lengthAdjust="spacing" textLength="519" x="898.5" y="565.5332">+CreerTransactionRetrait(p_compte : Compte, p_montant : decimal) : ITransaction</text></g><!--class CreateurTransactionCIBC--><g id="elem_CreateurTransactionCIBC"><rect codeLine="61" fill="#FFFFFF" height="65.6094" id="CreateurTransactionCIBC" rx="2.5" ry="2.5" style="stroke:#000000;stroke-width:0.5;" width="531" x="1458.5" y="507"/><ellipse cx="1638.25" cy="523" fill="#ADD1B2" rx="11" ry="11" style="stroke:#181818;stroke-width:1.0;"/><path d="M1641.0156,518.875 Q1641.1719,518.6563 1641.3594,518.5469 Q1641.5469,518.4375 1641.7656,518.4375 Q1642.1406,518.4375 1642.375,518.6953 Q1642.6094,518.9531 1642.6094,519.5625 L1642.6094,521.0156 Q1642.6094,521.625 1642.375,521.8906 Q1642.1406,522.1563 1641.7656,522.1563 Q1641.4219,522.1563 1641.2188,521.9531 Q1641.0156,521.7656 1640.9063,521.25 Q1640.8594,520.8906 1640.6719,520.7031 Q1640.3438,520.3281 1639.7344,520.1094 Q1639.125,519.8906 1638.5,519.8906 Q1637.7344,519.8906 1637.1016,520.2188 Q1636.4688,520.5469 1635.9766,521.2969 Q1635.4844,522.0469 1635.4844,523.0781 L1635.4844,524.1719 Q1635.4844,525.4063 1636.375,526.2266 Q1637.2656,527.0469 1638.8594,527.0469 Q1639.7969,527.0469 1640.4531,526.7969 Q1640.8438,526.6406 1641.2656,526.2031 Q1641.5313,525.9375 1641.6797,525.8594 Q1641.8281,525.7813 1642.0313,525.7813 Q1642.3594,525.7813 1642.6172,526.0391 Q1642.875,526.2969 1642.875,526.6406 Q1642.875,526.9844 1642.5313,527.3906 Q1642.0313,527.9688 1641.2344,528.2969 Q1640.1563,528.75 1638.8594,528.75 Q1637.3438,528.75 1636.1406,528.125 Q1635.1563,527.625 1634.4688,526.5547 Q1633.7813,525.4844 1633.7813,524.2031 L1633.7813,523.0469 Q1633.7813,521.7188 1634.3984,520.5703 Q1635.0156,519.4219 1636.1094,518.8047 Q1637.2031,518.1875 1638.4375,518.1875 Q1639.1719,518.1875 1639.8203,518.3516 Q1640.4688,518.5156 1641.0156,518.875 Z " fill="#000000"/><text fill="#000000" font-family="sans-serif" font-size="14" lengthAdjust="spacing" textLength="163" x="1658.75" y="528.7285">CreateurTransactionCIBC</text><line style="stroke:#000000;stroke-width:0.5;" x1="1459.5" x2="1988.5" y1="539" y2="539"/><line style="stroke:#000000;stroke-width:0.5;" x1="1459.5" x2="1988.5" y1="547" y2="547"/><text fill="#000000" font-family="sans-serif" font-size="14" lengthAdjust="spacing" textLength="519" x="1464.5" y="565.5332">+CreerTransactionRetrait(p_compte : Compte, p_montant : decimal) : ITransaction</text></g><!--link ATM to ICreateurTransaction--><g id="link_ATM_ICreateurTransaction"><path codeLine="9" d="M1009.18,125.46 C998.55,171.47 991.39,235.95 1016,286 C1032.28,319.11 1058.8215,341.8408 1088.1115,360.1408 " fill="none" id="ATM-to-ICreateurTransaction" style="stroke:#181818;stroke-width:1.0;"/><polygon fill="#181818" points="1093.2,363.32,1087.6868,355.1589,1088.9596,360.6707,1083.4478,361.9435,1093.2,363.32" style="stroke:#181818;stroke-width:1.0;"/><text fill="#000000" font-family="sans-serif" font-size="13" lengthAdjust="spacing" textLength="7" x="999.7149" y="146.7502">1</text><text fill="#000000" font-family="sans-serif" font-size="13" lengthAdjust="spacing" textLength="7" x="1072.1131" y="352.3983">1</text></g><!--link ATM to ITiroirArgent--><g id="link_ATM_ITiroirArgent"><path codeLine="10" d="M896.9,125.11 C838.83,151.05 778.1084,178.1731 729.1884,200.0231 " fill="none" id="ATM-to-ITiroirArgent" style="stroke:#181818;stroke-width:1.0;"/><polygon fill="#181818" points="723.71,202.47,733.5588,202.4519,728.2753,200.4309,730.2963,195.1474,723.71,202.47" style="stroke:#181818;stroke-width:1.0;"/><text fill="#000000" font-family="sans-serif" font-size="13" lengthAdjust="spacing" textLength="7" x="873.6175" y="146.7789">1</text><text fill="#000000" font-family="sans-serif" font-size="13" lengthAdjust="spacing" textLength="7" x="730.7783" y="191.5792">1</text></g><!--link ATM to Compte--><g id="link_ATM_Compte"><path codeLine="12" d="M1043.31,125.11 C1051.63,154.78 1059.6706,183.4227 1065.8906,205.6127 " fill="none" id="ATM-to-Compte" style="stroke:#181818;stroke-width:1.0;stroke-dasharray:7.0,7.0;"/><polygon fill="#181818" points="1067.51,211.39,1068.9324,201.6444,1066.1605,206.5756,1061.2293,203.8036,1067.51,211.39" style="stroke:#181818;stroke-width:1.0;"/></g><!--link ATM to ITransaction--><g id="link_ATM_ITransaction"><path codeLine="13" d="M1098.47,125.11 C1122.41,144.58 1144.2039,162.3058 1167.2739,181.0558 " fill="none" id="ATM-to-ITransaction" style="stroke:#181818;stroke-width:1.0;stroke-dasharray:7.0,7.0;"/><polygon fill="#181818" points="1171.93,184.84,1167.4686,176.0596,1168.0499,181.6865,1162.423,182.2677,1171.93,184.84" style="stroke:#181818;stroke-width:1.0;"/></g><!--reverse link ITransaction to TransactionRetrait--><g id="link_ITransaction_TransactionRetrait"><path codeLine="15" d="M1332.6262,287.7642 C1376.5962,310.3842 1414.33,329.81 1458.31,352.44 " fill="none" id="ITransaction-backto-TransactionRetrait" style="stroke:#181818;stroke-width:1.0;stroke-dasharray:7.0,7.0;"/><polygon fill="none" points="1316.62,279.53,1329.8814,293.0996,1335.3709,282.4288,1316.62,279.53" style="stroke:#181818;stroke-width:1.0;"/></g><!--reverse link ITransaction to ICreateurTransaction--><g id="link_ITransaction_ICreateurTransaction"><path codeLine="16" d="M1206.92,291.7965 C1195.06,316.9365 1183.59,341.26 1173.17,363.34 " fill="none" id="ITransaction-backto-ICreateurTransaction" style="stroke:#181818;stroke-width:1.0;stroke-dasharray:7.0,7.0;"/><polygon fill="#181818" points="1209.48,286.37,1202.0224,292.803,1207.3467,290.8921,1209.2577,296.2163,1209.48,286.37" style="stroke:#181818;stroke-width:1.0;"/></g><!--reverse link ITiroirArgent to TiroirArgentCOM--><g id="link_ITiroirArgent_TiroirArgentCOM"><path codeLine="18" d="M674.8594,284.9596 C687.8694,312.5396 698.84,335.8 711.85,363.37 " fill="none" id="ITiroirArgent-backto-TiroirArgentCOM" style="stroke:#181818;stroke-width:1.0;stroke-dasharray:7.0,7.0;"/><polygon fill="none" points="667.18,268.68,669.4329,287.5194,680.286,282.3998,667.18,268.68" style="stroke:#181818;stroke-width:1.0;"/></g><!--reverse link ITiroirArgent to TiroirArgentLPT--><g id="link_ITiroirArgent_TiroirArgentLPT"><path codeLine="19" d="M523.2879,273.5729 C450.1479,294.8729 369.78,318.8 284,346 C266.67,351.49 248.26,357.53 230.55,363.44 " fill="none" id="ITiroirArgent-backto-TiroirArgentLPT" style="stroke:#181818;stroke-width:1.0;stroke-dasharray:7.0,7.0;"/><polygon fill="none" points="540.57,268.54,521.6103,267.8122,524.9656,279.3336,540.57,268.54" style="stroke:#181818;stroke-width:1.0;"/></g><!--reverse link ITiroirArgent to TiroirArgentUSB--><g id="link_ITiroirArgent_TiroirArgentUSB"><path codeLine="20" d="M592.8901,279.222 C554.7201,306.802 514.6,335.8 476.45,363.37 " fill="none" id="ITiroirArgent-backto-TiroirArgentUSB" style="stroke:#181818;stroke-width:1.0;stroke-dasharray:7.0,7.0;"/><polygon fill="none" points="607.48,268.68,589.3761,274.3587,596.4041,284.0853,607.48,268.68" style="stroke:#181818;stroke-width:1.0;"/></g><!--reverse link ICreateurTransaction to CreateurTransactionDesjardins--><g id="link_ICreateurTransaction_CreateurTransactionDesjardins"><path codeLine="22" d="M1012.4573,433.8852 C919.8473,457.0352 812.7,483.83 720.08,506.98 " fill="none" id="ICreateurTransaction-backto-CreateurTransactionDesjardins" style="stroke:#181818;stroke-width:1.0;stroke-dasharray:7.0,7.0;"/><polygon fill="none" points="1029.92,429.52,1011.0023,428.0643,1013.9124,439.7061,1029.92,429.52" style="stroke:#181818;stroke-width:1.0;"/></g><!--reverse link ICreateurTransaction to CreateurTransactionScotia--><g id="link_ICreateurTransaction_CreateurTransactionScotia"><path codeLine="23" d="M1158,447.61 C1158,470.6 1158,483.45 1158,506.53 " fill="none" id="ICreateurTransaction-backto-CreateurTransactionScotia" style="stroke:#181818;stroke-width:1.0;stroke-dasharray:7.0,7.0;"/><polygon fill="none" points="1158,429.61,1152,447.61,1164,447.61,1158,429.61" style="stroke:#181818;stroke-width:1.0;"/></g><!--reverse link ICreateurTransaction to CreateurTransactionCIBC--><g id="link_ICreateurTransaction_CreateurTransactionCIBC"><path codeLine="24" d="M1303.5427,433.8852 C1396.1527,457.0352 1503.3,483.83 1595.92,506.98 " fill="none" id="ICreateurTransaction-backto-CreateurTransactionCIBC" style="stroke:#181818;stroke-width:1.0;stroke-dasharray:7.0,7.0;"/><polygon fill="none" points="1286.08,429.52,1302.0876,439.7061,1304.9977,428.0643,1286.08,429.52" style="stroke:#181818;stroke-width:1.0;"/></g><!--SRC=[nLJFJy8m5BxthsZmiWKXU2M6P0mF91ADJ3sQqXMiREtosbr4_tUxTSHkJ123OPUbxttl-_f-LQsvo0YG5DE4A1Le3NoHQpQbKipvEyC3fEeGl47OV6D2rokGkOX3cKZ0pwzSC-kH43Emrel1O80-4K91DCETgmxkzKRbVne28vhb404HYb3DfTW5HHmaXm1MJ6ZBqU-FS2ZJp6XjZrEN0hadVFtHxsF7yC0q4AuR88DflGwgwLTaZYMycns2tDv7Xo2Fyx5HQj6tq1R7XAat0Z4NwhYuEPMQa-DYmkauHCWslYZu1fKzxk7qXRRG3DihkGtHRYM6pVuMg6wXucLxaPSuEqBShtXDxpamCDoqd1y3juDKqALIQ58gnOpob2H-CRKsROigCZScBZI39Q6iVgLgARfumbMvGQnoU3znkqHE3YLF5zye_KGI7ZFFDt4BAHDh3wLOSaYPcw3dMryWH9wO19lqRUtUNjVuQbpLWlosI6Ldd3v_rspVr9v3tSx-EPIB3VfttSQpTFmuxjAOf-iKDEPv-pFDJfrEjXvV]--></g></svg>