<?xml version="1.0" encoding="UTF-8" standalone="no"?><svg xmlns="http://www.w3.org/2000/svg" xmlns:xlink="http://www.w3.org/1999/xlink" contentScriptType="application/ecmascript" contentStyleType="text/css" height="533px" preserveAspectRatio="none" style="width:1745px;height:533px;" version="1.1" viewBox="0 0 1745 533" width="1745px" zoomAndPan="magnify"><defs><filter height="300%" id="f1xqwkk81h0bx" width="300%" x="-1" y="-1"><feGaussianBlur result="blurOut" stdDeviation="2.0"/><feColorMatrix in="blurOut" result="blurOut2" type="matrix" values="0 0 0 0 0 0 0 0 0 0 0 0 0 0 0 0 0 0 .4 0"/><feOffset dx="4.0" dy="4.0" in="blurOut2" result="blurOut3"/><feBlend in="SourceGraphic" in2="blurOut3" mode="normal"/></filter></defs><g><!--MD5=[549ff358cecbd916f4ce2511ce44e009]
class ATM--><rect fill="#FFFFFF" filter="url(#f1xqwkk81h0bx)" height="99.8203" id="ATM" style="stroke: #000000; stroke-width: 1.5;" width="460" x="670" y="8"/><ellipse cx="882.75" cy="24" fill="#ADD1B2" rx="11" ry="11" style="stroke: #000000; stroke-width: 1.0;"/><path d="M885.2231,30.1431 Q884.6421,30.4419 884.0029,30.5913 Q883.3638,30.7407 882.6582,30.7407 Q880.1514,30.7407 878.8315,29.0889 Q877.5117,27.437 877.5117,24.3159 Q877.5117,21.1865 878.8315,19.5347 Q880.1514,17.8828 882.6582,17.8828 Q883.3638,17.8828 884.0112,18.0322 Q884.6587,18.1816 885.2231,18.4805 L885.2231,21.2031 Q884.5923,20.6221 883.9988,20.3523 Q883.4053,20.0825 882.7744,20.0825 Q881.4297,20.0825 880.7449,21.1492 Q880.0601,22.2158 880.0601,24.3159 Q880.0601,26.4077 880.7449,27.4744 Q881.4297,28.541 882.7744,28.541 Q883.4053,28.541 883.9988,28.2712 Q884.5923,28.0015 885.2231,27.4204 Z "/><text fill="#000000" font-family="sans-serif" font-size="12" lengthAdjust="spacingAndGlyphs" textLength="26" x="903.25" y="28.5352">ATM</text><line style="stroke: #000000; stroke-width: 1.5;" x1="671" x2="1129" y1="40" y2="40"/><text fill="#000000" font-family="sans-serif" font-size="11" lengthAdjust="spacingAndGlyphs" textLength="254" x="676" y="54.6348">-m_createurTransaction : ICreateurTransaction</text><text fill="#000000" font-family="sans-serif" font-size="11" lengthAdjust="spacingAndGlyphs" textLength="165" x="676" y="67.5898">-m_tiroirArgent : ITiroirArgent</text><line style="stroke: #000000; stroke-width: 1.5;" x1="671" x2="1129" y1="73.9102" y2="73.9102"/><text fill="#000000" font-family="sans-serif" font-size="11" lengthAdjust="spacingAndGlyphs" textLength="448" x="676" y="88.5449">+ATM(p_tiroirArgent : ITiroirArgent, p_createurTransaction : ICreateurTransaction)</text><text fill="#000000" font-family="sans-serif" font-size="11" lengthAdjust="spacingAndGlyphs" textLength="271" x="676" y="101.5">+Retirer(p_compte : Compte, p_montant : decimal)</text><!--MD5=[371277a0d048abdcbea9ae149ffe878a]
class ICreateurTransaction--><rect fill="#FFFFFF" filter="url(#f1xqwkk81h0bx)" height="60.9551" id="ICreateurTransaction" style="stroke: #000000; stroke-width: 1.5;" width="452" x="795" y="328"/><ellipse cx="956.75" cy="344" fill="#B4A7E5" rx="11" ry="11" style="stroke: #000000; stroke-width: 1.0;"/><path d="M953.1777,340.2651 L953.1777,338.1069 L960.5571,338.1069 L960.5571,340.2651 L958.0918,340.2651 L958.0918,348.3418 L960.5571,348.3418 L960.5571,350.5 L953.1777,350.5 L953.1777,348.3418 L955.6431,348.3418 L955.6431,340.2651 Z "/><text fill="#000000" font-family="sans-serif" font-size="12" font-style="italic" lengthAdjust="spacingAndGlyphs" textLength="120" x="977.25" y="348.5352">ICreateurTransaction</text><line style="stroke: #000000; stroke-width: 1.5;" x1="796" x2="1246" y1="360" y2="360"/><line style="stroke: #000000; stroke-width: 1.5;" x1="796" x2="1246" y1="368" y2="368"/><text fill="#000000" font-family="sans-serif" font-size="11" lengthAdjust="spacingAndGlyphs" textLength="440" x="801" y="382.6348">+CreerTransactionRetrait(p_compte : Compte, p_montant : decimal) : ITransaction</text><!--MD5=[dc348672d8ba7a00bad9c81946fd5fe3]
class ITiroirArgent--><rect fill="#FFFFFF" filter="url(#f1xqwkk81h0bx)" height="60.9551" id="ITiroirArgent" style="stroke: #000000; stroke-width: 1.5;" width="228" x="458" y="181"/><ellipse cx="531.75" cy="197" fill="#B4A7E5" rx="11" ry="11" style="stroke: #000000; stroke-width: 1.0;"/><path d="M528.1777,193.2651 L528.1777,191.1069 L535.5571,191.1069 L535.5571,193.2651 L533.0918,193.2651 L533.0918,201.3418 L535.5571,201.3418 L535.5571,203.5 L528.1777,203.5 L528.1777,201.3418 L530.6431,201.3418 L530.6431,193.2651 Z "/><text fill="#000000" font-family="sans-serif" font-size="12" font-style="italic" lengthAdjust="spacingAndGlyphs" textLength="72" x="552.25" y="201.5352">ITiroirArgent</text><line style="stroke: #000000; stroke-width: 1.5;" x1="459" x2="685" y1="213" y2="213"/><line style="stroke: #000000; stroke-width: 1.5;" x1="459" x2="685" y1="221" y2="221"/><text fill="#000000" font-family="sans-serif" font-size="11" lengthAdjust="spacingAndGlyphs" textLength="216" x="464" y="235.6348">+DistribuerArgent(p_montant : decimal)</text><!--MD5=[55a9f513ff876a6970678761cb3a400d]
class Compte--><rect fill="#FFFFFF" filter="url(#f1xqwkk81h0bx)" height="48" id="Compte" style="stroke: #000000; stroke-width: 1.5;" width="77" x="907.5" y="187.5"/><ellipse cx="922.5" cy="203.5" fill="#ADD1B2" rx="11" ry="11" style="stroke: #000000; stroke-width: 1.0;"/><path d="M924.9731,209.6431 Q924.3921,209.9419 923.7529,210.0913 Q923.1138,210.2407 922.4082,210.2407 Q919.9014,210.2407 918.5815,208.5889 Q917.2617,206.937 917.2617,203.8159 Q917.2617,200.6865 918.5815,199.0347 Q919.9014,197.3828 922.4082,197.3828 Q923.1138,197.3828 923.7612,197.5322 Q924.4087,197.6816 924.9731,197.9805 L924.9731,200.7031 Q924.3423,200.1221 923.7488,199.8523 Q923.1553,199.5825 922.5244,199.5825 Q921.1797,199.5825 920.4949,200.6492 Q919.8101,201.7158 919.8101,203.8159 Q919.8101,205.9077 920.4949,206.9744 Q921.1797,208.041 922.5244,208.041 Q923.1553,208.041 923.7488,207.7712 Q924.3423,207.5015 924.9731,206.9204 Z "/><text fill="#000000" font-family="sans-serif" font-size="12" lengthAdjust="spacingAndGlyphs" textLength="45" x="936.5" y="208.0352">Compte</text><line style="stroke: #000000; stroke-width: 1.5;" x1="908.5" x2="983.5" y1="219.5" y2="219.5"/><line style="stroke: #000000; stroke-width: 1.5;" x1="908.5" x2="983.5" y1="227.5" y2="227.5"/><!--MD5=[c29dde2030c32ee2161b3c3cd55c0b69]
class ITransaction--><rect fill="#FFFFFF" filter="url(#f1xqwkk81h0bx)" height="86.8652" id="ITransaction" style="stroke: #000000; stroke-width: 1.5;" width="148" x="1020" y="168"/><ellipse cx="1055.7" cy="184" fill="#B4A7E5" rx="11" ry="11" style="stroke: #000000; stroke-width: 1.0;"/><path d="M1052.1277,180.2651 L1052.1277,178.1069 L1059.5071,178.1069 L1059.5071,180.2651 L1057.0418,180.2651 L1057.0418,188.3418 L1059.5071,188.3418 L1059.5071,190.5 L1052.1277,190.5 L1052.1277,188.3418 L1054.5931,188.3418 L1054.5931,180.2651 Z "/><text fill="#000000" font-family="sans-serif" font-size="12" font-style="italic" lengthAdjust="spacingAndGlyphs" textLength="70" x="1074.3" y="188.5352">ITransaction</text><line style="stroke: #000000; stroke-width: 1.5;" x1="1021" x2="1167" y1="200" y2="200"/><line style="stroke: #000000; stroke-width: 1.5;" x1="1021" x2="1167" y1="208" y2="208"/><text fill="#000000" font-family="sans-serif" font-size="11" lengthAdjust="spacingAndGlyphs" textLength="98" x="1026" y="222.6348">+EstValide() : bool</text><text fill="#000000" font-family="sans-serif" font-size="11" lengthAdjust="spacingAndGlyphs" textLength="136" x="1026" y="235.5898">+ConfirmerTransaction()</text><text fill="#000000" font-family="sans-serif" font-size="11" lengthAdjust="spacingAndGlyphs" textLength="60" x="1026" y="248.5449">+Annuler()</text><!--MD5=[a61b5a58fa153427499d8717e23138e9]
class TransactionRetrait--><rect fill="#FFFFFF" filter="url(#f1xqwkk81h0bx)" height="86.8652" id="TransactionRetrait" style="stroke: #000000; stroke-width: 1.5;" width="148" x="1282" y="315"/><ellipse cx="1301.95" cy="331" fill="#ADD1B2" rx="11" ry="11" style="stroke: #000000; stroke-width: 1.0;"/><path d="M1304.4231,337.1431 Q1303.8421,337.4419 1303.2029,337.5913 Q1302.5638,337.7407 1301.8582,337.7407 Q1299.3514,337.7407 1298.0315,336.0889 Q1296.7117,334.437 1296.7117,331.3159 Q1296.7117,328.1865 1298.0315,326.5347 Q1299.3514,324.8828 1301.8582,324.8828 Q1302.5638,324.8828 1303.2112,325.0322 Q1303.8587,325.1816 1304.4231,325.4805 L1304.4231,328.2031 Q1303.7923,327.6221 1303.1988,327.3523 Q1302.6053,327.0825 1301.9744,327.0825 Q1300.6297,327.0825 1299.9449,328.1492 Q1299.2601,329.2158 1299.2601,331.3159 Q1299.2601,333.4077 1299.9449,334.4744 Q1300.6297,335.541 1301.9744,335.541 Q1302.6053,335.541 1303.1988,335.2712 Q1303.7923,335.0015 1304.4231,334.4204 Z "/><text fill="#000000" font-family="sans-serif" font-size="12" lengthAdjust="spacingAndGlyphs" textLength="105" x="1317.05" y="335.5352">TransactionRetrait</text><line style="stroke: #000000; stroke-width: 1.5;" x1="1283" x2="1429" y1="347" y2="347"/><line style="stroke: #000000; stroke-width: 1.5;" x1="1283" x2="1429" y1="355" y2="355"/><text fill="#000000" font-family="sans-serif" font-size="11" lengthAdjust="spacingAndGlyphs" textLength="98" x="1288" y="369.6348">+EstValide() : bool</text><text fill="#000000" font-family="sans-serif" font-size="11" lengthAdjust="spacingAndGlyphs" textLength="136" x="1288" y="382.5898">+ConfirmerTransaction()</text><text fill="#000000" font-family="sans-serif" font-size="11" lengthAdjust="spacingAndGlyphs" textLength="60" x="1288" y="395.5449">+Annuler()</text><!--MD5=[be62dc20b249d0ca4a916cfe69f0dc93]
class TiroirArgentCOM--><rect fill="#FFFFFF" filter="url(#f1xqwkk81h0bx)" height="60.9551" id="TiroirArgentCOM" style="stroke: #000000; stroke-width: 1.5;" width="228" x="532" y="328"/><ellipse cx="593.75" cy="344" fill="#ADD1B2" rx="11" ry="11" style="stroke: #000000; stroke-width: 1.0;"/><path d="M596.2231,350.1431 Q595.6421,350.4419 595.0029,350.5913 Q594.3638,350.7407 593.6582,350.7407 Q591.1514,350.7407 589.8315,349.0889 Q588.5117,347.437 588.5117,344.3159 Q588.5117,341.1865 589.8315,339.5347 Q591.1514,337.8828 593.6582,337.8828 Q594.3638,337.8828 595.0112,338.0322 Q595.6587,338.1816 596.2231,338.4805 L596.2231,341.2031 Q595.5923,340.6221 594.9988,340.3523 Q594.4053,340.0825 593.7744,340.0825 Q592.4297,340.0825 591.7449,341.1492 Q591.0601,342.2158 591.0601,344.3159 Q591.0601,346.4077 591.7449,347.4744 Q592.4297,348.541 593.7744,348.541 Q594.4053,348.541 594.9988,348.2712 Q595.5923,348.0015 596.2231,347.4204 Z "/><text fill="#000000" font-family="sans-serif" font-size="12" lengthAdjust="spacingAndGlyphs" textLength="96" x="614.25" y="348.5352">TiroirArgentCOM</text><line style="stroke: #000000; stroke-width: 1.5;" x1="533" x2="759" y1="360" y2="360"/><line style="stroke: #000000; stroke-width: 1.5;" x1="533" x2="759" y1="368" y2="368"/><text fill="#000000" font-family="sans-serif" font-size="11" lengthAdjust="spacingAndGlyphs" textLength="216" x="538" y="382.6348">+DistribuerArgent(p_montant : decimal)</text><!--MD5=[a42bb2b4b977cb7af457966cc984d67d]
class TiroirArgentLPT--><rect fill="#FFFFFF" filter="url(#f1xqwkk81h0bx)" height="60.9551" id="TiroirArgentLPT" style="stroke: #000000; stroke-width: 1.5;" width="228" x="6" y="328"/><ellipse cx="70.75" cy="344" fill="#ADD1B2" rx="11" ry="11" style="stroke: #000000; stroke-width: 1.0;"/><path d="M73.2231,350.1431 Q72.6421,350.4419 72.0029,350.5913 Q71.3638,350.7407 70.6582,350.7407 Q68.1514,350.7407 66.8315,349.0889 Q65.5117,347.437 65.5117,344.3159 Q65.5117,341.1865 66.8315,339.5347 Q68.1514,337.8828 70.6582,337.8828 Q71.3638,337.8828 72.0112,338.0322 Q72.6587,338.1816 73.2231,338.4805 L73.2231,341.2031 Q72.5923,340.6221 71.9988,340.3523 Q71.4053,340.0825 70.7744,340.0825 Q69.4297,340.0825 68.7449,341.1492 Q68.0601,342.2158 68.0601,344.3159 Q68.0601,346.4077 68.7449,347.4744 Q69.4297,348.541 70.7744,348.541 Q71.4053,348.541 71.9988,348.2712 Q72.5923,348.0015 73.2231,347.4204 Z "/><text fill="#000000" font-family="sans-serif" font-size="12" lengthAdjust="spacingAndGlyphs" textLength="90" x="91.25" y="348.5352">TiroirArgentLPT</text><line style="stroke: #000000; stroke-width: 1.5;" x1="7" x2="233" y1="360" y2="360"/><line style="stroke: #000000; stroke-width: 1.5;" x1="7" x2="233" y1="368" y2="368"/><text fill="#000000" font-family="sans-serif" font-size="11" lengthAdjust="spacingAndGlyphs" textLength="216" x="12" y="382.6348">+DistribuerArgent(p_montant : decimal)</text><!--MD5=[d16966432e5c9bc2f621fb2255af781d]
class TiroirArgentUSB--><rect fill="#FFFFFF" filter="url(#f1xqwkk81h0bx)" height="60.9551" id="TiroirArgentUSB" style="stroke: #000000; stroke-width: 1.5;" width="228" x="269" y="328"/><ellipse cx="333.75" cy="344" fill="#ADD1B2" rx="11" ry="11" style="stroke: #000000; stroke-width: 1.0;"/><path d="M336.2231,350.1431 Q335.6421,350.4419 335.0029,350.5913 Q334.3638,350.7407 333.6582,350.7407 Q331.1514,350.7407 329.8315,349.0889 Q328.5117,347.437 328.5117,344.3159 Q328.5117,341.1865 329.8315,339.5347 Q331.1514,337.8828 333.6582,337.8828 Q334.3638,337.8828 335.0112,338.0322 Q335.6587,338.1816 336.2231,338.4805 L336.2231,341.2031 Q335.5923,340.6221 334.9988,340.3523 Q334.4053,340.0825 333.7744,340.0825 Q332.4297,340.0825 331.7449,341.1492 Q331.0601,342.2158 331.0601,344.3159 Q331.0601,346.4077 331.7449,347.4744 Q332.4297,348.541 333.7744,348.541 Q334.4053,348.541 334.9988,348.2712 Q335.5923,348.0015 336.2231,347.4204 Z "/><text fill="#000000" font-family="sans-serif" font-size="12" lengthAdjust="spacingAndGlyphs" textLength="90" x="354.25" y="348.5352">TiroirArgentUSB</text><line style="stroke: #000000; stroke-width: 1.5;" x1="270" x2="496" y1="360" y2="360"/><line style="stroke: #000000; stroke-width: 1.5;" x1="270" x2="496" y1="368" y2="368"/><text fill="#000000" font-family="sans-serif" font-size="11" lengthAdjust="spacingAndGlyphs" textLength="216" x="275" y="382.6348">+DistribuerArgent(p_montant : decimal)</text><!--MD5=[8a6ebacd9729d872c8b678efe093a852]
class CreateurTransactionDesjardins--><rect fill="#FFFFFF" filter="url(#f1xqwkk81h0bx)" height="60.9551" id="CreateurTransactionDesjardins" style="stroke: #000000; stroke-width: 1.5;" width="452" x="308" y="462"/><ellipse cx="440.25" cy="478" fill="#ADD1B2" rx="11" ry="11" style="stroke: #000000; stroke-width: 1.0;"/><path d="M442.7231,484.1431 Q442.1421,484.4419 441.5029,484.5913 Q440.8638,484.7407 440.1582,484.7407 Q437.6514,484.7407 436.3315,483.0889 Q435.0117,481.437 435.0117,478.3159 Q435.0117,475.1865 436.3315,473.5347 Q437.6514,471.8828 440.1582,471.8828 Q440.8638,471.8828 441.5112,472.0322 Q442.1587,472.1816 442.7231,472.4805 L442.7231,475.2031 Q442.0923,474.6221 441.4988,474.3523 Q440.9053,474.0825 440.2744,474.0825 Q438.9297,474.0825 438.2449,475.1492 Q437.5601,476.2158 437.5601,478.3159 Q437.5601,480.4077 438.2449,481.4744 Q438.9297,482.541 440.2744,482.541 Q440.9053,482.541 441.4988,482.2712 Q442.0923,482.0015 442.7231,481.4204 Z "/><text fill="#000000" font-family="sans-serif" font-size="12" lengthAdjust="spacingAndGlyphs" textLength="179" x="460.75" y="482.5352">CreateurTransactionDesjardins</text><line style="stroke: #000000; stroke-width: 1.5;" x1="309" x2="759" y1="494" y2="494"/><line style="stroke: #000000; stroke-width: 1.5;" x1="309" x2="759" y1="502" y2="502"/><text fill="#000000" font-family="sans-serif" font-size="11" lengthAdjust="spacingAndGlyphs" textLength="440" x="314" y="516.6348">+CreerTransactionRetrait(p_compte : Compte, p_montant : decimal) : ITransaction</text><!--MD5=[2d16c1da871b6109e050ae4b2cbe363a]
class CreateurTransactionScotia--><rect fill="#FFFFFF" filter="url(#f1xqwkk81h0bx)" height="60.9551" id="CreateurTransactionScotia" style="stroke: #000000; stroke-width: 1.5;" width="452" x="795" y="462"/><ellipse cx="941.75" cy="478" fill="#ADD1B2" rx="11" ry="11" style="stroke: #000000; stroke-width: 1.0;"/><path d="M944.2231,484.1431 Q943.6421,484.4419 943.0029,484.5913 Q942.3638,484.7407 941.6582,484.7407 Q939.1514,484.7407 937.8315,483.0889 Q936.5117,481.437 936.5117,478.3159 Q936.5117,475.1865 937.8315,473.5347 Q939.1514,471.8828 941.6582,471.8828 Q942.3638,471.8828 943.0112,472.0322 Q943.6587,472.1816 944.2231,472.4805 L944.2231,475.2031 Q943.5923,474.6221 942.9988,474.3523 Q942.4053,474.0825 941.7744,474.0825 Q940.4297,474.0825 939.7449,475.1492 Q939.0601,476.2158 939.0601,478.3159 Q939.0601,480.4077 939.7449,481.4744 Q940.4297,482.541 941.7744,482.541 Q942.4053,482.541 942.9988,482.2712 Q943.5923,482.0015 944.2231,481.4204 Z "/><text fill="#000000" font-family="sans-serif" font-size="12" lengthAdjust="spacingAndGlyphs" textLength="150" x="962.25" y="482.5352">CreateurTransactionScotia</text><line style="stroke: #000000; stroke-width: 1.5;" x1="796" x2="1246" y1="494" y2="494"/><line style="stroke: #000000; stroke-width: 1.5;" x1="796" x2="1246" y1="502" y2="502"/><text fill="#000000" font-family="sans-serif" font-size="11" lengthAdjust="spacingAndGlyphs" textLength="440" x="801" y="516.6348">+CreerTransactionRetrait(p_compte : Compte, p_montant : decimal) : ITransaction</text><!--MD5=[7fe97176a8e894112be237705c0e9bb6]
class CreateurTransactionCIBC--><rect fill="#FFFFFF" filter="url(#f1xqwkk81h0bx)" height="60.9551" id="CreateurTransactionCIBC" style="stroke: #000000; stroke-width: 1.5;" width="452" x="1282" y="462"/><ellipse cx="1432.25" cy="478" fill="#ADD1B2" rx="11" ry="11" style="stroke: #000000; stroke-width: 1.0;"/><path d="M1434.7231,484.1431 Q1434.1421,484.4419 1433.5029,484.5913 Q1432.8638,484.7407 1432.1582,484.7407 Q1429.6514,484.7407 1428.3315,483.0889 Q1427.0117,481.437 1427.0117,478.3159 Q1427.0117,475.1865 1428.3315,473.5347 Q1429.6514,471.8828 1432.1582,471.8828 Q1432.8638,471.8828 1433.5112,472.0322 Q1434.1587,472.1816 1434.7231,472.4805 L1434.7231,475.2031 Q1434.0923,474.6221 1433.4988,474.3523 Q1432.9053,474.0825 1432.2744,474.0825 Q1430.9297,474.0825 1430.2449,475.1492 Q1429.5601,476.2158 1429.5601,478.3159 Q1429.5601,480.4077 1430.2449,481.4744 Q1430.9297,482.541 1432.2744,482.541 Q1432.9053,482.541 1433.4988,482.2712 Q1434.0923,482.0015 1434.7231,481.4204 Z "/><text fill="#000000" font-family="sans-serif" font-size="12" lengthAdjust="spacingAndGlyphs" textLength="143" x="1452.75" y="482.5352">CreateurTransactionCIBC</text><line style="stroke: #000000; stroke-width: 1.5;" x1="1283" x2="1733" y1="494" y2="494"/><line style="stroke: #000000; stroke-width: 1.5;" x1="1283" x2="1733" y1="502" y2="502"/><text fill="#000000" font-family="sans-serif" font-size="11" lengthAdjust="spacingAndGlyphs" textLength="440" x="1288" y="516.6348">+CreerTransactionRetrait(p_compte : Compte, p_montant : decimal) : ITransaction</text><!--MD5=[db7fb6444a68b83e01f8400cbde512d3]
link ATM to ICreateurTransaction--><path d="M884.76,108.35 C874.89,149.66 867.61,209.06 890,255 C904.35,284.45 931.7,307.92 957.72,324.94 " fill="none" id="ATM-&gt;ICreateurTransaction" style="stroke: #A80036; stroke-width: 1.0;"/><polygon fill="#A80036" points="962.22,327.83,956.7997,319.6068,958.0099,325.1327,952.4841,326.3429,962.22,327.83" style="stroke: #A80036; stroke-width: 1.0;"/><text fill="#000000" font-family="sans-serif" font-size="13" lengthAdjust="spacingAndGlyphs" textLength="8" x="874.2949" y="128.3618">1</text><text fill="#000000" font-family="sans-serif" font-size="13" lengthAdjust="spacingAndGlyphs" textLength="8" x="940.4869" y="317.0876">1</text><!--MD5=[eb99c36f224d2c934f0f352a44b691e7]
link ATM to ITiroirArgent--><path d="M793.51,108.19 C743.33,131.36 684.94,158.34 640.7,178.77 " fill="none" id="ATM-&gt;ITiroirArgent" style="stroke: #A80036; stroke-width: 1.0;"/><polygon fill="#A80036" points="635.93,180.97,645.7778,180.8244,640.4685,178.872,642.421,173.5628,635.93,180.97" style="stroke: #A80036; stroke-width: 1.0;"/><text fill="#000000" font-family="sans-serif" font-size="13" lengthAdjust="spacingAndGlyphs" textLength="8" x="770.6629" y="128.5434">1</text><text fill="#000000" font-family="sans-serif" font-size="13" lengthAdjust="spacingAndGlyphs" textLength="8" x="641.0397" y="170.2582">1</text><!--MD5=[15c705e43b623bf115bd8b0a18d80b15]
link ATM to Compte--><path d="M914.93,108.19 C922.42,132.82 931.2,161.75 937.51,182.55 " fill="none" id="ATM-&gt;Compte" style="stroke: #A80036; stroke-width: 1.0; stroke-dasharray: 7.0,7.0;"/><polygon fill="#A80036" points="938.98,187.39,940.2037,177.6175,937.5327,182.604,932.5462,179.9331,938.98,187.39" style="stroke: #A80036; stroke-width: 1.0;"/><!--MD5=[29c2ea4b86ccff9b70bb8c605d704a78]
link ATM to ITransaction--><path d="M962.99,108.19 C986.21,126.33 1012.42,146.79 1035.26,164.62 " fill="none" id="ATM-&gt;ITransaction" style="stroke: #A80036; stroke-width: 1.0; stroke-dasharray: 7.0,7.0;"/><polygon fill="#A80036" points="1039.48,167.92,1034.8577,159.2232,1035.5425,164.8385,1029.9272,165.5232,1039.48,167.92" style="stroke: #A80036; stroke-width: 1.0;"/><!--MD5=[ed3f9a6e3ba97e0d9e859f96f96a869f]
reverse link ITransaction to TransactionRetrait--><path d="M1185.59,263.19 C1217.03,280.59 1251.81,299.84 1281.7,316.38 " fill="none" id="ITransaction&lt;-TransactionRetrait" style="stroke: #A80036; stroke-width: 1.0; stroke-dasharray: 7.0,7.0;"/><polygon fill="none" points="1182.14,269.28,1168.03,253.47,1188.92,257.03,1182.14,269.28" style="stroke: #A80036; stroke-width: 1.0;"/><!--MD5=[965ce52fa450b2fd150e2f222041f753]
reverse link ITransaction to ICreateurTransaction--><path d="M1070.11,259.94 C1058.83,282.35 1045.72,308.4 1035.88,327.94 " fill="none" id="ITransaction&lt;-ICreateurTransaction" style="stroke: #A80036; stroke-width: 1.0; stroke-dasharray: 7.0,7.0;"/><polygon fill="#A80036" points="1072.49,255.22,1064.8794,261.4713,1070.2482,259.6893,1072.0302,265.0581,1072.49,255.22" style="stroke: #A80036; stroke-width: 1.0;"/><!--MD5=[446ae26c9307d255a2629afd4b6ae928]
reverse link ITiroirArgent to TiroirArgentCOM--><path d="M596.37,260.25 C607.75,282.55 620.94,308.4 630.87,327.85 " fill="none" id="ITiroirArgent&lt;-TiroirArgentCOM" style="stroke: #A80036; stroke-width: 1.0; stroke-dasharray: 7.0,7.0;"/><polygon fill="none" points="590.01,263.19,587.15,242.19,602.48,256.83,590.01,263.19" style="stroke: #A80036; stroke-width: 1.0;"/><!--MD5=[2ab151a01331497284c953cc2aeb3b74]
reverse link ITiroirArgent to TiroirArgentLPT--><path d="M459.5,248.28 C397.9,267.91 320.22,292.72 251,315 C238.03,319.18 224.34,323.6 210.89,327.95 " fill="none" id="ITiroirArgent&lt;-TiroirArgentLPT" style="stroke: #A80036; stroke-width: 1.0; stroke-dasharray: 7.0,7.0;"/><polygon fill="none" points="457.72,241.5,478.9,242.1,461.97,254.84,457.72,241.5" style="stroke: #A80036; stroke-width: 1.0;"/><!--MD5=[5283b3e9ffb6821f47e8e2574e41101c]
reverse link ITiroirArgent to TiroirArgentUSB--><path d="M517.1,254.62 C486.51,278.09 449.16,306.74 421.65,327.85 " fill="none" id="ITiroirArgent&lt;-TiroirArgentUSB" style="stroke: #A80036; stroke-width: 1.0; stroke-dasharray: 7.0,7.0;"/><polygon fill="none" points="513.17,248.81,533.3,242.19,521.69,259.92,513.17,248.81" style="stroke: #A80036; stroke-width: 1.0;"/><!--MD5=[5c48882bb605109a4054ec3528324752]
reverse link ICreateurTransaction to CreateurTransactionDesjardins--><path d="M892.23,394.4 C814.62,415.44 716.85,441.94 643.06,461.94 " fill="none" id="ICreateurTransaction&lt;-CreateurTransactionDesjardins" style="stroke: #A80036; stroke-width: 1.0; stroke-dasharray: 7.0,7.0;"/><polygon fill="none" points="890.88,387.52,912.01,389.04,894.54,401.03,890.88,387.52" style="stroke: #A80036; stroke-width: 1.0;"/><!--MD5=[51a7aa975da97bcdf7be1df3d950e8d5]
reverse link ICreateurTransaction to CreateurTransactionScotia--><path d="M1021,409.23 C1021,427 1021,446.45 1021,461.98 " fill="none" id="ICreateurTransaction&lt;-CreateurTransactionScotia" style="stroke: #A80036; stroke-width: 1.0; stroke-dasharray: 7.0,7.0;"/><polygon fill="none" points="1014,409.12,1021,389.12,1028,409.12,1014,409.12" style="stroke: #A80036; stroke-width: 1.0;"/><!--MD5=[05436fafa37a1ff414daa8cdb28423cc]
reverse link ICreateurTransaction to CreateurTransactionCIBC--><path d="M1149.77,394.4 C1227.38,415.44 1325.15,441.94 1398.94,461.94 " fill="none" id="ICreateurTransaction&lt;-CreateurTransactionCIBC" style="stroke: #A80036; stroke-width: 1.0; stroke-dasharray: 7.0,7.0;"/><polygon fill="none" points="1147.46,401.03,1129.99,389.04,1151.12,387.52,1147.46,401.03" style="stroke: #A80036; stroke-width: 1.0;"/><!--MD5=[4cdd64dee99a1136f4a9c2cb21f04d55]
@startuml Exercice03_PropSol

skinparam classAttributeIconSize 0
skinparam class {
    BackgroundColor White
    BorderColor #000
}


ATM "1" - -> "1" ICreateurTransaction
ATM "1" - -> "1" ITiroirArgent

ATM ..> Compte
ATM ..> ITransaction

ITransaction <|.. TransactionRetrait
ITransaction <.. ICreateurTransaction

ITiroirArgent <|.. TiroirArgentCOM
ITiroirArgent <|.. TiroirArgentLPT
ITiroirArgent <|.. TiroirArgentUSB

ICreateurTransaction <|.. CreateurTransactionDesjardins
ICreateurTransaction <|.. CreateurTransactionScotia
ICreateurTransaction <|.. CreateurTransactionCIBC

class ATM {

    - m_createurTransaction : ICreateurTransaction
    - m_tiroirArgent : ITiroirArgent

    + ATM(p_tiroirArgent : ITiroirArgent, p_createurTransaction : ICreateurTransaction)
    + Retirer(p_compte : Compte, p_montant : decimal)
}

class Compte {

}

interface ITiroirArgent {
    + DistribuerArgent(p_montant : decimal)
}

interface ITransaction {
   + EstValide() : bool
   + ConfirmerTransaction()
   + Annuler()
}

interface ICreateurTransaction {
    + CreerTransactionRetrait(p_compte : Compte, p_montant : decimal) : ITransaction
}

class CreateurTransactionDesjardins {
    + CreerTransactionRetrait(p_compte : Compte, p_montant : decimal) : ITransaction
}

class CreateurTransactionScotia {
    + CreerTransactionRetrait(p_compte : Compte, p_montant : decimal) : ITransaction
}

class CreateurTransactionCIBC {
    + CreerTransactionRetrait(p_compte : Compte, p_montant : decimal) : ITransaction
}

class TiroirArgentCOM {
    + DistribuerArgent(p_montant : decimal)
}

class TiroirArgentLPT {
    + DistribuerArgent(p_montant : decimal)
}

class TiroirArgentUSB {
    + DistribuerArgent(p_montant : decimal)
}

class TransactionRetrait {
   + EstValide() : bool
   + ConfirmerTransaction()
   + Annuler()
}


@enduml

PlantUML version 1.2020.10(Sun May 17 05:35:57 EDT 2020)
(GPL source distribution)
Java Runtime: OpenJDK Runtime Environment
JVM: OpenJDK 64-Bit Server VM
Java Version: 13.0.2+8
Operating System: Mac OS X
Default Encoding: UTF-8
Language: fr
Country: CA
--></g></svg>