<?xml version="1.0" encoding="us-ascii" standalone="no"?><svg xmlns="http://www.w3.org/2000/svg" xmlns:xlink="http://www.w3.org/1999/xlink" contentStyleType="text/css" height="611px" preserveAspectRatio="none" style="width:833px;height:611px;background:#FFFFFF;" version="1.1" viewBox="0 0 833 611" width="833px" zoomAndPan="magnify"><defs/><g><!--class Cercle--><g id="elem_Cercle"><rect codeLine="1" fill="#F1F1F1" height="83.2188" id="Cercle" rx="2.5" ry="2.5" style="stroke:#181818;stroke-width:0.5;" width="208" x="7" y="299.5"/><ellipse cx="86.25" cy="315.5" fill="#ADD1B2" rx="11" ry="11" style="stroke:#181818;stroke-width:1.0;"/><path d="M89.0156,311.375 Q89.1719,311.1563 89.3594,311.0469 Q89.5469,310.9375 89.7656,310.9375 Q90.1406,310.9375 90.375,311.1953 Q90.6094,311.4531 90.6094,312.0625 L90.6094,313.5156 Q90.6094,314.125 90.375,314.3906 Q90.1406,314.6563 89.7656,314.6563 Q89.4219,314.6563 89.2188,314.4531 Q89.0156,314.2656 88.9063,313.75 Q88.8594,313.3906 88.6719,313.2031 Q88.3438,312.8281 87.7344,312.6094 Q87.125,312.3906 86.5,312.3906 Q85.7344,312.3906 85.1016,312.7188 Q84.4688,313.0469 83.9766,313.7969 Q83.4844,314.5469 83.4844,315.5781 L83.4844,316.6719 Q83.4844,317.9063 84.375,318.7266 Q85.2656,319.5469 86.8594,319.5469 Q87.7969,319.5469 88.4531,319.2969 Q88.8438,319.1406 89.2656,318.7031 Q89.5313,318.4375 89.6797,318.3594 Q89.8281,318.2813 90.0313,318.2813 Q90.3594,318.2813 90.6172,318.5391 Q90.875,318.7969 90.875,319.1406 Q90.875,319.4844 90.5313,319.8906 Q90.0313,320.4688 89.2344,320.7969 Q88.1563,321.25 86.8594,321.25 Q85.3438,321.25 84.1406,320.625 Q83.1563,320.125 82.4688,319.0547 Q81.7813,317.9844 81.7813,316.7031 L81.7813,315.5469 Q81.7813,314.2188 82.3984,313.0703 Q83.0156,311.9219 84.1094,311.3047 Q85.2031,310.6875 86.4375,310.6875 Q87.1719,310.6875 87.8203,310.8516 Q88.4688,311.0156 89.0156,311.375 Z " fill="#000000"/><text fill="#000000" font-family="sans-serif" font-size="14" lengthAdjust="spacing" textLength="41" x="106.75" y="321.2285">Cercle</text><line style="stroke:#181818;stroke-width:0.5;" x1="8" x2="214" y1="331.5" y2="331.5"/><ellipse cx="18" cy="345.8047" fill="none" rx="3" ry="3" style="stroke:#038048;stroke-width:1.0;"/><text fill="#000000" font-family="sans-serif" font-size="14" lengthAdjust="spacing" textLength="182" x="27" y="350.0332">Centre : Point3d &#171;get&#187; &#171;set&#187;</text><ellipse cx="18" cy="363.4141" fill="none" rx="3" ry="3" style="stroke:#038048;stroke-width:1.0;"/><text fill="#000000" font-family="sans-serif" font-size="14" lengthAdjust="spacing" textLength="159" x="27" y="367.6426">Rayon : float &#171;get&#187; &#171;set&#187;</text><line style="stroke:#181818;stroke-width:0.5;" x1="8" x2="214" y1="374.7188" y2="374.7188"/></g><!--class Point3d--><g id="elem_Point3d"><rect codeLine="8" fill="#F1F1F1" height="100.8281" id="Point3d" rx="2.5" ry="2.5" style="stroke:#181818;stroke-width:0.5;" width="169" x="183.5" y="504"/><ellipse cx="239.75" cy="520" fill="#ADD1B2" rx="11" ry="11" style="stroke:#181818;stroke-width:1.0;"/><path d="M242.5156,515.875 Q242.6719,515.6563 242.8594,515.5469 Q243.0469,515.4375 243.2656,515.4375 Q243.6406,515.4375 243.875,515.6953 Q244.1094,515.9531 244.1094,516.5625 L244.1094,518.0156 Q244.1094,518.625 243.875,518.8906 Q243.6406,519.1563 243.2656,519.1563 Q242.9219,519.1563 242.7188,518.9531 Q242.5156,518.7656 242.4063,518.25 Q242.3594,517.8906 242.1719,517.7031 Q241.8438,517.3281 241.2344,517.1094 Q240.625,516.8906 240,516.8906 Q239.2344,516.8906 238.6016,517.2188 Q237.9688,517.5469 237.4766,518.2969 Q236.9844,519.0469 236.9844,520.0781 L236.9844,521.1719 Q236.9844,522.4063 237.875,523.2266 Q238.7656,524.0469 240.3594,524.0469 Q241.2969,524.0469 241.9531,523.7969 Q242.3438,523.6406 242.7656,523.2031 Q243.0313,522.9375 243.1797,522.8594 Q243.3281,522.7813 243.5313,522.7813 Q243.8594,522.7813 244.1172,523.0391 Q244.375,523.2969 244.375,523.6406 Q244.375,523.9844 244.0313,524.3906 Q243.5313,524.9688 242.7344,525.2969 Q241.6563,525.75 240.3594,525.75 Q238.8438,525.75 237.6406,525.125 Q236.6563,524.625 235.9688,523.5547 Q235.2813,522.4844 235.2813,521.2031 L235.2813,520.0469 Q235.2813,518.7188 235.8984,517.5703 Q236.5156,516.4219 237.6094,515.8047 Q238.7031,515.1875 239.9375,515.1875 Q240.6719,515.1875 241.3203,515.3516 Q241.9688,515.5156 242.5156,515.875 Z " fill="#000000"/><text fill="#000000" font-family="sans-serif" font-size="14" lengthAdjust="spacing" textLength="48" x="260.25" y="525.7285">Point3d</text><line style="stroke:#181818;stroke-width:0.5;" x1="184.5" x2="351.5" y1="536" y2="536"/><ellipse cx="194.5" cy="550.3047" fill="none" rx="3" ry="3" style="stroke:#038048;stroke-width:1.0;"/><text fill="#000000" font-family="sans-serif" font-size="14" lengthAdjust="spacing" textLength="142" x="203.5" y="554.5332">X : double &#171;get&#187; &#171;set&#187;</text><ellipse cx="194.5" cy="567.9141" fill="none" rx="3" ry="3" style="stroke:#038048;stroke-width:1.0;"/><text fill="#000000" font-family="sans-serif" font-size="14" lengthAdjust="spacing" textLength="143" x="203.5" y="572.1426">Y : double &#171;get&#187; &#171;set&#187;</text><ellipse cx="194.5" cy="585.5234" fill="none" rx="3" ry="3" style="stroke:#038048;stroke-width:1.0;"/><text fill="#000000" font-family="sans-serif" font-size="14" lengthAdjust="spacing" textLength="142" x="203.5" y="589.752">Z : double &#171;get&#187; &#171;set&#187;</text><line style="stroke:#181818;stroke-width:0.5;" x1="184.5" x2="351.5" y1="596.8281" y2="596.8281"/></g><!--class Polygone--><g id="elem_Polygone"><rect codeLine="13" fill="#F1F1F1" height="83.2188" id="Polygone" rx="2.5" ry="2.5" style="stroke:#181818;stroke-width:0.5;" width="261" x="321.5" y="299.5"/><ellipse cx="418.25" cy="315.5" fill="#ADD1B2" rx="11" ry="11" style="stroke:#181818;stroke-width:1.0;"/><path d="M421.0156,311.375 Q421.1719,311.1563 421.3594,311.0469 Q421.5469,310.9375 421.7656,310.9375 Q422.1406,310.9375 422.375,311.1953 Q422.6094,311.4531 422.6094,312.0625 L422.6094,313.5156 Q422.6094,314.125 422.375,314.3906 Q422.1406,314.6563 421.7656,314.6563 Q421.4219,314.6563 421.2188,314.4531 Q421.0156,314.2656 420.9063,313.75 Q420.8594,313.3906 420.6719,313.2031 Q420.3438,312.8281 419.7344,312.6094 Q419.125,312.3906 418.5,312.3906 Q417.7344,312.3906 417.1016,312.7188 Q416.4688,313.0469 415.9766,313.7969 Q415.4844,314.5469 415.4844,315.5781 L415.4844,316.6719 Q415.4844,317.9063 416.375,318.7266 Q417.2656,319.5469 418.8594,319.5469 Q419.7969,319.5469 420.4531,319.2969 Q420.8438,319.1406 421.2656,318.7031 Q421.5313,318.4375 421.6797,318.3594 Q421.8281,318.2813 422.0313,318.2813 Q422.3594,318.2813 422.6172,318.5391 Q422.875,318.7969 422.875,319.1406 Q422.875,319.4844 422.5313,319.8906 Q422.0313,320.4688 421.2344,320.7969 Q420.1563,321.25 418.8594,321.25 Q417.3438,321.25 416.1406,320.625 Q415.1563,320.125 414.4688,319.0547 Q413.7813,317.9844 413.7813,316.7031 L413.7813,315.5469 Q413.7813,314.2188 414.3984,313.0703 Q415.0156,311.9219 416.1094,311.3047 Q417.2031,310.6875 418.4375,310.6875 Q419.1719,310.6875 419.8203,310.8516 Q420.4688,311.0156 421.0156,311.375 Z " fill="#000000"/><text fill="#000000" font-family="sans-serif" font-size="14" lengthAdjust="spacing" textLength="59" x="438.75" y="321.2285">Polygone</text><line style="stroke:#181818;stroke-width:0.5;" x1="322.5" x2="581.5" y1="331.5" y2="331.5"/><ellipse cx="332.5" cy="345.8047" fill="none" rx="3" ry="3" style="stroke:#038048;stroke-width:1.0;"/><text fill="#000000" font-family="sans-serif" font-size="14" lengthAdjust="spacing" textLength="235" x="341.5" y="350.0332">Sommets : List&lt;Point3d&gt; &#171;get&#187; &#171;set&#187;</text><line style="stroke:#181818;stroke-width:0.5;" x1="322.5" x2="581.5" y1="357.1094" y2="357.1094"/><ellipse cx="332.5" cy="371.4141" fill="#84BE84" rx="3" ry="3" style="stroke:#038048;stroke-width:1.0;"/><text fill="#000000" font-family="sans-serif" font-size="14" lengthAdjust="spacing" textLength="117" x="341.5" y="375.6426">AffConsole() : void</text></g><!--class Program--><g id="elem_Program"><rect codeLine="18" fill="#F1F1F1" height="171.2656" id="Program" rx="2.5" ry="2.5" style="stroke:#181818;stroke-width:0.5;" width="377" x="171.5" y="7"/><ellipse cx="328.75" cy="23" fill="#ADD1B2" rx="11" ry="11" style="stroke:#181818;stroke-width:1.0;"/><path d="M331.5156,18.875 Q331.6719,18.6563 331.8594,18.5469 Q332.0469,18.4375 332.2656,18.4375 Q332.6406,18.4375 332.875,18.6953 Q333.1094,18.9531 333.1094,19.5625 L333.1094,21.0156 Q333.1094,21.625 332.875,21.8906 Q332.6406,22.1563 332.2656,22.1563 Q331.9219,22.1563 331.7188,21.9531 Q331.5156,21.7656 331.4063,21.25 Q331.3594,20.8906 331.1719,20.7031 Q330.8438,20.3281 330.2344,20.1094 Q329.625,19.8906 329,19.8906 Q328.2344,19.8906 327.6016,20.2188 Q326.9688,20.5469 326.4766,21.2969 Q325.9844,22.0469 325.9844,23.0781 L325.9844,24.1719 Q325.9844,25.4063 326.875,26.2266 Q327.7656,27.0469 329.3594,27.0469 Q330.2969,27.0469 330.9531,26.7969 Q331.3438,26.6406 331.7656,26.2031 Q332.0313,25.9375 332.1797,25.8594 Q332.3281,25.7813 332.5313,25.7813 Q332.8594,25.7813 333.1172,26.0391 Q333.375,26.2969 333.375,26.6406 Q333.375,26.9844 333.0313,27.3906 Q332.5313,27.9688 331.7344,28.2969 Q330.6563,28.75 329.3594,28.75 Q327.8438,28.75 326.6406,28.125 Q325.6563,27.625 324.9688,26.5547 Q324.2813,25.4844 324.2813,24.2031 L324.2813,23.0469 Q324.2813,21.7188 324.8984,20.5703 Q325.5156,19.4219 326.6094,18.8047 Q327.7031,18.1875 328.9375,18.1875 Q329.6719,18.1875 330.3203,18.3516 Q330.9688,18.5156 331.5156,18.875 Z " fill="#000000"/><text fill="#000000" font-family="sans-serif" font-size="14" lengthAdjust="spacing" textLength="54" x="349.25" y="28.7285">Program</text><line style="stroke:#181818;stroke-width:0.5;" x1="172.5" x2="547.5" y1="39" y2="39"/><line style="stroke:#181818;stroke-width:0.5;" x1="172.5" x2="547.5" y1="47" y2="47"/><text fill="#000000" font-family="sans-serif" font-size="14" lengthAdjust="spacing" text-decoration="underline" textLength="153" x="191.5" y="65.5332">Main(args:string[]) : void</text><ellipse cx="182.5" cy="78.9141" fill="#84BE84" rx="3" ry="3" style="stroke:#038048;stroke-width:1.0;"/><text fill="#000000" font-family="sans-serif" font-size="14" lengthAdjust="spacing" text-decoration="underline" textLength="215" x="191.5" y="83.1426">dist(a:Point3d, b:Point3d) : double</text><ellipse cx="182.5" cy="96.5234" fill="#84BE84" rx="3" ry="3" style="stroke:#038048;stroke-width:1.0;"/><text fill="#000000" font-family="sans-serif" font-size="14" lengthAdjust="spacing" text-decoration="underline" textLength="158" x="191.5" y="100.752">airee(obj:object) : double</text><ellipse cx="182.5" cy="114.1328" fill="#84BE84" rx="3" ry="3" style="stroke:#038048;stroke-width:1.0;"/><text fill="#000000" font-family="sans-serif" font-size="14" lengthAdjust="spacing" text-decoration="underline" textLength="186" x="191.5" y="118.3613">aTriangle(obj:object) : double</text><ellipse cx="182.5" cy="131.7422" fill="#84BE84" rx="3" ry="3" style="stroke:#038048;stroke-width:1.0;"/><text fill="#000000" font-family="sans-serif" font-size="14" lengthAdjust="spacing" text-decoration="underline" textLength="227" x="191.5" y="135.9707">affichage_forme_g(obj:object) : void</text><rect fill="#F24D5C" height="6" style="stroke:#C82930;stroke-width:1.0;" width="6" x="179.5" y="146.3516"/><text fill="#000000" font-family="sans-serif" font-size="14" lengthAdjust="spacing" text-decoration="underline" textLength="275" x="191.5" y="153.5801">trigle(sommets:List&lt;Point3d&gt;) : List&lt;object&gt;</text><rect fill="#F24D5C" height="6" style="stroke:#C82930;stroke-width:1.0;" width="6" x="179.5" y="163.9609"/><text fill="#000000" font-family="sans-serif" font-size="14" lengthAdjust="spacing" text-decoration="underline" textLength="351" x="191.5" y="171.1895">bary(ss:List&lt;Point3d&gt;) : Tuple&lt;double,&#160;double,&#160;double&gt;</text></g><!--class Triangle--><g id="elem_Triangle"><rect codeLine="31" fill="#F1F1F1" height="206.4844" id="Triangle" rx="2.5" ry="2.5" style="stroke:#181818;stroke-width:0.5;" width="209" x="617.5" y="238"/><ellipse cx="691.75" cy="254" fill="#ADD1B2" rx="11" ry="11" style="stroke:#181818;stroke-width:1.0;"/><path d="M694.5156,249.875 Q694.6719,249.6563 694.8594,249.5469 Q695.0469,249.4375 695.2656,249.4375 Q695.6406,249.4375 695.875,249.6953 Q696.1094,249.9531 696.1094,250.5625 L696.1094,252.0156 Q696.1094,252.625 695.875,252.8906 Q695.6406,253.1563 695.2656,253.1563 Q694.9219,253.1563 694.7188,252.9531 Q694.5156,252.7656 694.4063,252.25 Q694.3594,251.8906 694.1719,251.7031 Q693.8438,251.3281 693.2344,251.1094 Q692.625,250.8906 692,250.8906 Q691.2344,250.8906 690.6016,251.2188 Q689.9688,251.5469 689.4766,252.2969 Q688.9844,253.0469 688.9844,254.0781 L688.9844,255.1719 Q688.9844,256.4063 689.875,257.2266 Q690.7656,258.0469 692.3594,258.0469 Q693.2969,258.0469 693.9531,257.7969 Q694.3438,257.6406 694.7656,257.2031 Q695.0313,256.9375 695.1797,256.8594 Q695.3281,256.7813 695.5313,256.7813 Q695.8594,256.7813 696.1172,257.0391 Q696.375,257.2969 696.375,257.6406 Q696.375,257.9844 696.0313,258.3906 Q695.5313,258.9688 694.7344,259.2969 Q693.6563,259.75 692.3594,259.75 Q690.8438,259.75 689.6406,259.125 Q688.6563,258.625 687.9688,257.5547 Q687.2813,256.4844 687.2813,255.2031 L687.2813,254.0469 Q687.2813,252.7188 687.8984,251.5703 Q688.5156,250.4219 689.6094,249.8047 Q690.7031,249.1875 691.9375,249.1875 Q692.6719,249.1875 693.3203,249.3516 Q693.9688,249.5156 694.5156,249.875 Z " fill="#000000"/><text fill="#000000" font-family="sans-serif" font-size="14" lengthAdjust="spacing" textLength="52" x="712.25" y="259.7285">Triangle</text><line style="stroke:#181818;stroke-width:0.5;" x1="618.5" x2="825.5" y1="270" y2="270"/><ellipse cx="628.5" cy="284.3047" fill="none" rx="3" ry="3" style="stroke:#038048;stroke-width:1.0;"/><text fill="#000000" font-family="sans-serif" font-size="14" lengthAdjust="spacing" textLength="182" x="637.5" y="288.5332">Point1X : double &#171;get&#187; &#171;set&#187;</text><ellipse cx="628.5" cy="301.9141" fill="none" rx="3" ry="3" style="stroke:#038048;stroke-width:1.0;"/><text fill="#000000" font-family="sans-serif" font-size="14" lengthAdjust="spacing" textLength="183" x="637.5" y="306.1426">Point1Y : double &#171;get&#187; &#171;set&#187;</text><ellipse cx="628.5" cy="319.5234" fill="none" rx="3" ry="3" style="stroke:#038048;stroke-width:1.0;"/><text fill="#000000" font-family="sans-serif" font-size="14" lengthAdjust="spacing" textLength="182" x="637.5" y="323.752">Point1Z : double &#171;get&#187; &#171;set&#187;</text><ellipse cx="628.5" cy="337.1328" fill="none" rx="3" ry="3" style="stroke:#038048;stroke-width:1.0;"/><text fill="#000000" font-family="sans-serif" font-size="14" lengthAdjust="spacing" textLength="182" x="637.5" y="341.3613">Point2X : double &#171;get&#187; &#171;set&#187;</text><ellipse cx="628.5" cy="354.7422" fill="none" rx="3" ry="3" style="stroke:#038048;stroke-width:1.0;"/><text fill="#000000" font-family="sans-serif" font-size="14" lengthAdjust="spacing" textLength="183" x="637.5" y="358.9707">Point2Y : double &#171;get&#187; &#171;set&#187;</text><ellipse cx="628.5" cy="372.3516" fill="none" rx="3" ry="3" style="stroke:#038048;stroke-width:1.0;"/><text fill="#000000" font-family="sans-serif" font-size="14" lengthAdjust="spacing" textLength="182" x="637.5" y="376.5801">Point2Z : double &#171;get&#187; &#171;set&#187;</text><ellipse cx="628.5" cy="389.9609" fill="none" rx="3" ry="3" style="stroke:#038048;stroke-width:1.0;"/><text fill="#000000" font-family="sans-serif" font-size="14" lengthAdjust="spacing" textLength="182" x="637.5" y="394.1895">Point3X : double &#171;get&#187; &#171;set&#187;</text><ellipse cx="628.5" cy="407.5703" fill="none" rx="3" ry="3" style="stroke:#038048;stroke-width:1.0;"/><text fill="#000000" font-family="sans-serif" font-size="14" lengthAdjust="spacing" textLength="183" x="637.5" y="411.7988">Point3Y : double &#171;get&#187; &#171;set&#187;</text><ellipse cx="628.5" cy="425.1797" fill="none" rx="3" ry="3" style="stroke:#038048;stroke-width:1.0;"/><text fill="#000000" font-family="sans-serif" font-size="14" lengthAdjust="spacing" textLength="182" x="637.5" y="429.4082">Point3Z : double &#171;get&#187; &#171;set&#187;</text><line style="stroke:#181818;stroke-width:0.5;" x1="618.5" x2="825.5" y1="436.4844" y2="436.4844"/></g><!--link Cercle to Point3d--><g id="link_Cercle_Point3d"><path codeLine="6" d="M141.27,382.78 C166.93,417.35 200.243,462.2328 227.613,499.0928 " fill="none" id="Cercle-to-Point3d" style="stroke:#181818;stroke-width:1.0;"/><polygon fill="#181818" points="231.19,503.91,229.036,494.2996,228.2092,499.8957,222.6131,499.0688,231.19,503.91" style="stroke:#181818;stroke-width:1.0;"/></g><!--link Polygone to Point3d--><g id="link_Polygone_Point3d"><path codeLine="17" d="M416.52,382.78 C386.45,417.35 347.1483,462.5235 315.0783,499.3835 " fill="none" id="Polygone-to-Point3d" style="stroke:#181818;stroke-width:1.0;"/><polygon fill="#181818" points="311.14,503.91,320.0652,499.7457,314.4219,500.1379,314.0298,494.4946,311.14,503.91" style="stroke:#181818;stroke-width:1.0;"/></g><!--link Program to Point3d--><g id="link_Program_Point3d"><path codeLine="27" d="M322.99,178.29 C315.73,197.62 308.86,218.28 304,238 C281.27,330.2 273.1251,435.1673 270.0351,497.9073 " fill="none" id="Program-to-Point3d" style="stroke:#181818;stroke-width:1.0;stroke-dasharray:7.0,7.0;"/><polygon fill="#181818" points="269.74,503.9,274.1779,495.1077,269.986,498.9061,266.1876,494.7141,269.74,503.9" style="stroke:#181818;stroke-width:1.0;"/></g><!--link Program to Triangle--><g id="link_Program_Triangle"><path codeLine="28" d="M508.58,178.06 C539.37,196.93 571.19,217.47 600,238 C605.73,242.09 606.7499,242.7437 612.5499,247.1437 " fill="none" id="Program-to-Triangle" style="stroke:#181818;stroke-width:1.0;stroke-dasharray:7.0,7.0;"/><polygon fill="#181818" points="617.33,250.77,612.5773,242.1438,613.3465,247.7481,607.7422,248.5173,617.33,250.77" style="stroke:#181818;stroke-width:1.0;"/></g><!--link Program to Polygone--><g id="link_Program_Polygone"><path codeLine="29" d="M391.66,178.33 C406.94,219.28 422.4723,260.8787 434.7123,293.6787 " fill="none" id="Program-to-Polygone" style="stroke:#181818;stroke-width:1.0;stroke-dasharray:7.0,7.0;"/><polygon fill="#181818" points="436.81,299.3,437.411,289.4695,435.0619,294.6155,429.9159,292.2665,436.81,299.3" style="stroke:#181818;stroke-width:1.0;"/></g><!--link Program to Cercle--><g id="link_Program_Cercle"><path codeLine="30" d="M274.31,178.33 C232.95,219.28 189.5038,262.2786 156.3738,295.0786 " fill="none" id="Program-to-Cercle" style="stroke:#181818;stroke-width:1.0;stroke-dasharray:7.0,7.0;"/><polygon fill="#181818" points="152.11,299.3,161.32,295.8105,155.6632,295.7822,155.6915,290.1254,152.11,299.3" style="stroke:#181818;stroke-width:1.0;"/></g><!--SRC=[ZLFRQiCW6BxFKtYPiAQmvYw4mEZj1cFhnTenYacCSnWTQWUbz5tsB7kosNf8cvuKH2FVuJ-bfb1AC4MYfWXi8g3NdVvaIY2GWsTEcCeQK1GOgRBKfzoT5lO2rvnfL4ivL2UORHHPsJGjdL8KrNj39-mStxHCmrULHf_tcjy2B2u3jjwKhZ5dVPwllEkGafhvIAGgR53b1OU7jfro9Zb5SQ8fFvmqMjgB7cPf_GJ70dRMRYCLLAJUWYT8M0m5bhbKWZ3y_k7bZ957DZgg6EPMTGGgTqryiaCA90AXc5TVkTweLbUGCq4WmpGGtRQa_eGOBLikEhJ40vOFF-qvEhkTl3HLpezgdBYY6ubooAsWMCVo36cs-gQeC46E_du7brspNTd7uxuXXsykxm7GjF7eqSolxQQZ-UdPQz_Vd5m3cuV15a6mIPZf9Cnq4cQQXPbcOQRPjV_r7m00]--></g></svg>