<?xml version="1.0" encoding="UTF-8" standalone="no"?><svg xmlns="http://www.w3.org/2000/svg" xmlns:xlink="http://www.w3.org/1999/xlink" contentScriptType="application/ecmascript" contentStyleType="text/css" height="531px" preserveAspectRatio="none" style="width:739px;height:531px;background:#FFFFFF;" version="1.1" viewBox="0 0 739 531" width="739px" zoomAndPan="magnify"><defs><filter height="300%" id="f4otr1z3dgwz1" width="300%" x="-1" y="-1"><feGaussianBlur result="blurOut" stdDeviation="2.0"/><feColorMatrix in="blurOut" result="blurOut2" type="matrix" values="0 0 0 0 0 0 0 0 0 0 0 0 0 0 0 0 0 0 .4 0"/><feOffset dx="4.0" dy="4.0" in="blurOut2" result="blurOut3"/><feBlend in="SourceGraphic" in2="blurOut3" mode="normal"/></filter></defs><g><!--MD5=[36301a564b4c56d542208ba8d5f25649]
class Cercle--><rect codeLine="1" fill="#FEFECE" filter="url(#f4otr1z3dgwz1)" height="73.9102" id="Cercle" style="stroke:#A80036;stroke-width:1.5;" width="175" x="7" y="251.5"/><ellipse cx="72.25" cy="267.5" fill="#ADD1B2" rx="11" ry="11" style="stroke:#A80036;stroke-width:1.0;"/><path d="M74.7231,273.6431 Q74.1421,273.9419 73.5029,274.0913 Q72.8638,274.2407 72.1582,274.2407 Q69.6514,274.2407 68.3315,272.5889 Q67.0117,270.937 67.0117,267.8159 Q67.0117,264.6865 68.3315,263.0347 Q69.6514,261.3828 72.1582,261.3828 Q72.8638,261.3828 73.5112,261.5322 Q74.1587,261.6816 74.7231,261.9805 L74.7231,264.7031 Q74.0923,264.1221 73.4988,263.8523 Q72.9053,263.5825 72.2744,263.5825 Q70.9297,263.5825 70.2449,264.6492 Q69.5601,265.7158 69.5601,267.8159 Q69.5601,269.9077 70.2449,270.9744 Q70.9297,272.041 72.2744,272.041 Q72.9053,272.041 73.4988,271.7712 Q74.0923,271.5015 74.7231,270.9204 Z " fill="#000000"/><text fill="#000000" font-family="sans-serif" font-size="12" lengthAdjust="spacing" textLength="36" x="92.75" y="272.0352">Cercle</text><line style="stroke:#A80036;stroke-width:1.5;" x1="8" x2="181" y1="283.5" y2="283.5"/><ellipse cx="18" cy="294.5" rx="3" ry="3" style="stroke:#038048;stroke-width:1.0;fill:none;"/><text fill="#000000" font-family="sans-serif" font-size="11" lengthAdjust="spacing" textLength="149" x="27" y="298.1348">Centre : Point3d «get» «set»</text><ellipse cx="18" cy="307.4551" rx="3" ry="3" style="stroke:#038048;stroke-width:1.0;fill:none;"/><text fill="#000000" font-family="sans-serif" font-size="11" lengthAdjust="spacing" textLength="129" x="27" y="311.0898">Rayon : float «get» «set»</text><line style="stroke:#A80036;stroke-width:1.5;" x1="8" x2="181" y1="317.4102" y2="317.4102"/><!--MD5=[bf6426d4d0f992f5be606485a0175cf6]
class Point3d--><rect codeLine="8" fill="#FEFECE" filter="url(#f4otr1z3dgwz1)" height="86.8652" id="Point3d" style="stroke:#A80036;stroke-width:1.5;" width="142" x="164.5" y="431"/><ellipse cx="209.25" cy="447" fill="#ADD1B2" rx="11" ry="11" style="stroke:#A80036;stroke-width:1.0;"/><path d="M211.7231,453.1431 Q211.1421,453.4419 210.5029,453.5913 Q209.8638,453.7407 209.1582,453.7407 Q206.6514,453.7407 205.3315,452.0889 Q204.0117,450.437 204.0117,447.3159 Q204.0117,444.1865 205.3315,442.5347 Q206.6514,440.8828 209.1582,440.8828 Q209.8638,440.8828 210.5112,441.0322 Q211.1587,441.1816 211.7231,441.4805 L211.7231,444.2031 Q211.0923,443.6221 210.4988,443.3523 Q209.9053,443.0825 209.2744,443.0825 Q207.9297,443.0825 207.2449,444.1492 Q206.5601,445.2158 206.5601,447.3159 Q206.5601,449.4077 207.2449,450.4744 Q207.9297,451.541 209.2744,451.541 Q209.9053,451.541 210.4988,451.2712 Q211.0923,451.0015 211.7231,450.4204 Z " fill="#000000"/><text fill="#000000" font-family="sans-serif" font-size="12" lengthAdjust="spacing" textLength="44" x="229.75" y="451.5352">Point3d</text><line style="stroke:#A80036;stroke-width:1.5;" x1="165.5" x2="305.5" y1="463" y2="463"/><ellipse cx="175.5" cy="474" rx="3" ry="3" style="stroke:#038048;stroke-width:1.0;fill:none;"/><text fill="#000000" font-family="sans-serif" font-size="11" lengthAdjust="spacing" textLength="116" x="184.5" y="477.6348">X : double «get» «set»</text><ellipse cx="175.5" cy="486.9551" rx="3" ry="3" style="stroke:#038048;stroke-width:1.0;fill:none;"/><text fill="#000000" font-family="sans-serif" font-size="11" lengthAdjust="spacing" textLength="116" x="184.5" y="490.5898">Y : double «get» «set»</text><ellipse cx="175.5" cy="499.9102" rx="3" ry="3" style="stroke:#038048;stroke-width:1.0;fill:none;"/><text fill="#000000" font-family="sans-serif" font-size="11" lengthAdjust="spacing" textLength="116" x="184.5" y="503.5449">Z : double «get» «set»</text><line style="stroke:#A80036;stroke-width:1.5;" x1="165.5" x2="305.5" y1="509.8652" y2="509.8652"/><!--MD5=[83b429478e251c85bc5118a1037c5362]
class Polygone--><rect codeLine="13" fill="#FEFECE" filter="url(#f4otr1z3dgwz1)" height="73.9102" id="Polygone" style="stroke:#A80036;stroke-width:1.5;" width="225" x="289" y="251.5"/><ellipse cx="371.75" cy="267.5" fill="#ADD1B2" rx="11" ry="11" style="stroke:#A80036;stroke-width:1.0;"/><path d="M374.2231,273.6431 Q373.6421,273.9419 373.0029,274.0913 Q372.3638,274.2407 371.6582,274.2407 Q369.1514,274.2407 367.8315,272.5889 Q366.5117,270.937 366.5117,267.8159 Q366.5117,264.6865 367.8315,263.0347 Q369.1514,261.3828 371.6582,261.3828 Q372.3638,261.3828 373.0112,261.5322 Q373.6587,261.6816 374.2231,261.9805 L374.2231,264.7031 Q373.5923,264.1221 372.9988,263.8523 Q372.4053,263.5825 371.7744,263.5825 Q370.4297,263.5825 369.7449,264.6492 Q369.0601,265.7158 369.0601,267.8159 Q369.0601,269.9077 369.7449,270.9744 Q370.4297,272.041 371.7744,272.041 Q372.4053,272.041 372.9988,271.7712 Q373.5923,271.5015 374.2231,270.9204 Z " fill="#000000"/><text fill="#000000" font-family="sans-serif" font-size="12" lengthAdjust="spacing" textLength="51" x="392.25" y="272.0352">Polygone</text><line style="stroke:#A80036;stroke-width:1.5;" x1="290" x2="513" y1="283.5" y2="283.5"/><ellipse cx="300" cy="294.5" rx="3" ry="3" style="stroke:#038048;stroke-width:1.0;fill:none;"/><text fill="#000000" font-family="sans-serif" font-size="11" lengthAdjust="spacing" textLength="199" x="309" y="298.1348">Sommets : List&lt;Point3d&gt; «get» «set»</text><line style="stroke:#A80036;stroke-width:1.5;" x1="290" x2="513" y1="304.4551" y2="304.4551"/><ellipse cx="300" cy="315.4551" fill="#84BE84" rx="3" ry="3" style="stroke:#038048;stroke-width:1.0;"/><text fill="#000000" font-family="sans-serif" font-size="11" lengthAdjust="spacing" textLength="100" x="309" y="319.0898">AffConsole() : void</text><!--MD5=[175f95e045c1a44aed0b30df3abe0e5c]
class Program--><rect codeLine="18" fill="#FEFECE" filter="url(#f4otr1z3dgwz1)" height="138.6855" id="Program" style="stroke:#A80036;stroke-width:1.5;" width="331" x="153" y="7"/><ellipse cx="289.75" cy="23" fill="#ADD1B2" rx="11" ry="11" style="stroke:#A80036;stroke-width:1.0;"/><path d="M292.2231,29.1431 Q291.6421,29.4419 291.0029,29.5913 Q290.3638,29.7407 289.6582,29.7407 Q287.1514,29.7407 285.8315,28.0889 Q284.5117,26.437 284.5117,23.3159 Q284.5117,20.1865 285.8315,18.5347 Q287.1514,16.8828 289.6582,16.8828 Q290.3638,16.8828 291.0112,17.0322 Q291.6587,17.1816 292.2231,17.4805 L292.2231,20.2031 Q291.5923,19.6221 290.9988,19.3523 Q290.4053,19.0825 289.7744,19.0825 Q288.4297,19.0825 287.7449,20.1492 Q287.0601,21.2158 287.0601,23.3159 Q287.0601,25.4077 287.7449,26.4744 Q288.4297,27.541 289.7744,27.541 Q290.4053,27.541 290.9988,27.2712 Q291.5923,27.0015 292.2231,26.4204 Z " fill="#000000"/><text fill="#000000" font-family="sans-serif" font-size="12" lengthAdjust="spacing" textLength="49" x="310.25" y="27.5352">Program</text><line style="stroke:#A80036;stroke-width:1.5;" x1="154" x2="483" y1="39" y2="39"/><line style="stroke:#A80036;stroke-width:1.5;" x1="154" x2="483" y1="47" y2="47"/><text fill="#000000" font-family="sans-serif" font-size="11" lengthAdjust="spacing" text-decoration="underline" textLength="132" x="173" y="61.6348">Main(args:string[]) : void</text><ellipse cx="164" cy="70.9551" fill="#84BE84" rx="3" ry="3" style="stroke:#038048;stroke-width:1.0;"/><text fill="#000000" font-family="sans-serif" font-size="11" lengthAdjust="spacing" text-decoration="underline" textLength="181" x="173" y="74.5898">dist(a:Point3d, b:Point3d) : double</text><ellipse cx="164" cy="83.9102" fill="#84BE84" rx="3" ry="3" style="stroke:#038048;stroke-width:1.0;"/><text fill="#000000" font-family="sans-serif" font-size="11" lengthAdjust="spacing" text-decoration="underline" textLength="133" x="173" y="87.5449">airee(obj:object) : double</text><ellipse cx="164" cy="96.8652" fill="#84BE84" rx="3" ry="3" style="stroke:#038048;stroke-width:1.0;"/><text fill="#000000" font-family="sans-serif" font-size="11" lengthAdjust="spacing" text-decoration="underline" textLength="157" x="173" y="100.5">aTriangle(obj:object) : double</text><ellipse cx="164" cy="109.8203" fill="#84BE84" rx="3" ry="3" style="stroke:#038048;stroke-width:1.0;"/><text fill="#000000" font-family="sans-serif" font-size="11" lengthAdjust="spacing" text-decoration="underline" textLength="193" x="173" y="113.4551">affichage_forme_g(obj:object) : void</text><rect fill="#F24D5C" height="6" style="stroke:#C82930;stroke-width:1.0;" width="6" x="161" y="119.7754"/><text fill="#000000" font-family="sans-serif" font-size="11" lengthAdjust="spacing" text-decoration="underline" textLength="245" x="173" y="126.4102">trigle(sommets:List&lt;Point3d&gt;) : List&lt;object&gt;</text><rect fill="#F24D5C" height="6" style="stroke:#C82930;stroke-width:1.0;" width="6" x="161" y="132.7305"/><text fill="#000000" font-family="sans-serif" font-size="11" lengthAdjust="spacing" text-decoration="underline" textLength="305" x="173" y="139.3652">bary(ss:List&lt;Point3d&gt;) : Tuple&lt;double, double, double&gt;</text><!--MD5=[40b067e448d061f8c1f714bff454de58]
class Triangle--><rect codeLine="31" fill="#FEFECE" filter="url(#f4otr1z3dgwz1)" height="164.5957" id="Triangle" style="stroke:#A80036;stroke-width:1.5;" width="176" x="549.5" y="206"/><ellipse cx="609.75" cy="222" fill="#ADD1B2" rx="11" ry="11" style="stroke:#A80036;stroke-width:1.0;"/><path d="M612.2231,228.1431 Q611.6421,228.4419 611.0029,228.5913 Q610.3638,228.7407 609.6582,228.7407 Q607.1514,228.7407 605.8315,227.0889 Q604.5117,225.437 604.5117,222.3159 Q604.5117,219.1865 605.8315,217.5347 Q607.1514,215.8828 609.6582,215.8828 Q610.3638,215.8828 611.0112,216.0322 Q611.6587,216.1816 612.2231,216.4805 L612.2231,219.2031 Q611.5923,218.6221 610.9988,218.3523 Q610.4053,218.0825 609.7744,218.0825 Q608.4297,218.0825 607.7449,219.1492 Q607.0601,220.2158 607.0601,222.3159 Q607.0601,224.4077 607.7449,225.4744 Q608.4297,226.541 609.7744,226.541 Q610.4053,226.541 610.9988,226.2712 Q611.5923,226.0015 612.2231,225.4204 Z " fill="#000000"/><text fill="#000000" font-family="sans-serif" font-size="12" lengthAdjust="spacing" textLength="47" x="630.25" y="226.5352">Triangle</text><line style="stroke:#A80036;stroke-width:1.5;" x1="550.5" x2="724.5" y1="238" y2="238"/><ellipse cx="560.5" cy="249" rx="3" ry="3" style="stroke:#038048;stroke-width:1.0;fill:none;"/><text fill="#000000" font-family="sans-serif" font-size="11" lengthAdjust="spacing" textLength="150" x="569.5" y="252.6348">Point1X : double «get» «set»</text><ellipse cx="560.5" cy="261.9551" rx="3" ry="3" style="stroke:#038048;stroke-width:1.0;fill:none;"/><text fill="#000000" font-family="sans-serif" font-size="11" lengthAdjust="spacing" textLength="150" x="569.5" y="265.5898">Point1Y : double «get» «set»</text><ellipse cx="560.5" cy="274.9102" rx="3" ry="3" style="stroke:#038048;stroke-width:1.0;fill:none;"/><text fill="#000000" font-family="sans-serif" font-size="11" lengthAdjust="spacing" textLength="150" x="569.5" y="278.5449">Point1Z : double «get» «set»</text><ellipse cx="560.5" cy="287.8652" rx="3" ry="3" style="stroke:#038048;stroke-width:1.0;fill:none;"/><text fill="#000000" font-family="sans-serif" font-size="11" lengthAdjust="spacing" textLength="150" x="569.5" y="291.5">Point2X : double «get» «set»</text><ellipse cx="560.5" cy="300.8203" rx="3" ry="3" style="stroke:#038048;stroke-width:1.0;fill:none;"/><text fill="#000000" font-family="sans-serif" font-size="11" lengthAdjust="spacing" textLength="150" x="569.5" y="304.4551">Point2Y : double «get» «set»</text><ellipse cx="560.5" cy="313.7754" rx="3" ry="3" style="stroke:#038048;stroke-width:1.0;fill:none;"/><text fill="#000000" font-family="sans-serif" font-size="11" lengthAdjust="spacing" textLength="150" x="569.5" y="317.4102">Point2Z : double «get» «set»</text><ellipse cx="560.5" cy="326.7305" rx="3" ry="3" style="stroke:#038048;stroke-width:1.0;fill:none;"/><text fill="#000000" font-family="sans-serif" font-size="11" lengthAdjust="spacing" textLength="150" x="569.5" y="330.3652">Point3X : double «get» «set»</text><ellipse cx="560.5" cy="339.6855" rx="3" ry="3" style="stroke:#038048;stroke-width:1.0;fill:none;"/><text fill="#000000" font-family="sans-serif" font-size="11" lengthAdjust="spacing" textLength="150" x="569.5" y="343.3203">Point3Y : double «get» «set»</text><ellipse cx="560.5" cy="352.6406" rx="3" ry="3" style="stroke:#038048;stroke-width:1.0;fill:none;"/><text fill="#000000" font-family="sans-serif" font-size="11" lengthAdjust="spacing" textLength="150" x="569.5" y="356.2754">Point3Z : double «get» «set»</text><line style="stroke:#A80036;stroke-width:1.5;" x1="550.5" x2="724.5" y1="362.5957" y2="362.5957"/><!--MD5=[2352777304aa60c2a93b87f8fc0a7718]
link Cercle to Point3d--><path codeLine="6" d="M122.36,325.85 C144.48,354.72 175.57,395.29 199.57,426.61 " fill="none" id="Cercle-to-Point3d" style="stroke:#A80036;stroke-width:1.0;"/><polygon fill="#A80036" points="202.75,430.77,200.4514,421.1931,199.709,426.801,194.1011,426.0587,202.75,430.77" style="stroke:#A80036;stroke-width:1.0;"/><!--MD5=[5ac9a5ed43144ac540d628d667ac062b]
link Polygone to Point3d--><path codeLine="17" d="M368.7,325.85 C342.55,354.84 305.76,395.63 277.46,426.99 " fill="none" id="Polygone-to-Point3d" style="stroke:#A80036;stroke-width:1.0;"/><polygon fill="#A80036" points="274.05,430.77,283.0524,426.7753,277.4027,427.0606,277.1174,421.411,274.05,430.77" style="stroke:#A80036;stroke-width:1.0;"/><!--MD5=[6ad38e6aeb13da03e674e78e027ade43]
link Program to Point3d--><path codeLine="27" d="M290.33,146 C283.31,165.16 276.4,186.17 271.5,206 C252.83,281.58 243.23,371.73 238.79,425.7 " fill="none" id="Program-to-Point3d" style="stroke:#A80036;stroke-width:1.0;stroke-dasharray:7.0,7.0;"/><polygon fill="#A80036" points="238.38,430.81,243.0869,422.1587,238.7799,425.826,235.1126,421.5189,238.38,430.81" style="stroke:#A80036;stroke-width:1.0;"/><!--MD5=[363390d682186de65a4ac94e12862f9d]
link Program to Triangle--><path codeLine="28" d="M437.46,146.04 C468.51,164.8 501.63,185.6 531.5,206 C535.98,209.06 540.52,212.23 545.08,215.48 " fill="none" id="Program-to-Triangle" style="stroke:#A80036;stroke-width:1.0;stroke-dasharray:7.0,7.0;"/><polygon fill="#A80036" points="549.27,218.49,544.2798,209.999,545.2042,215.5798,539.6234,216.5042,549.27,218.49" style="stroke:#A80036;stroke-width:1.0;"/><!--MD5=[cde85c867adcdcdd7638a3ca4857578f]
link Program to Polygone--><path codeLine="29" d="M345.68,146.26 C358.77,179.39 374.04,218.01 385.29,246.48 " fill="none" id="Program-to-Polygone" style="stroke:#A80036;stroke-width:1.0;stroke-dasharray:7.0,7.0;"/><polygon fill="#A80036" points="387.2,251.32,387.6237,241.4803,385.3678,246.6678,380.1802,244.4119,387.2,251.32" style="stroke:#A80036;stroke-width:1.0;"/><!--MD5=[ea5dd2f62b4213a499b92cd040250391]
link Program to Cercle--><path codeLine="30" d="M245.15,146.26 C209.23,179.94 167.26,219.29 136.75,247.89 " fill="none" id="Program-to-Cercle" style="stroke:#A80036;stroke-width:1.0;stroke-dasharray:7.0,7.0;"/><polygon fill="#A80036" points="133.09,251.32,142.3916,248.0827,136.7377,247.9003,136.9201,242.2464,133.09,251.32" style="stroke:#A80036;stroke-width:1.0;"/><!--MD5=[125098194a8e8d0a2822bc4397a5eba4]
@startuml
class Cercle {
    + Centre : Point3d <<get>> <<set>>
    + Rayon : float <<get>> <<set>>
}

Cercle - -> Point3d

class Point3d {
    + X : double <<get>> <<set>>
    + Y : double <<get>> <<set>>
    + Z : double <<get>> <<set>>
}
class Polygone {
    + Sommets : List<Point3d> <<get>> <<set>>
    + AffConsole() : void
}
Polygone - -> Point3d
class Program {
    {static} Main(args:string[]) : void
    + {static} dist(a:Point3d, b:Point3d) : double
    + {static} airee(obj:object) : double
    + {static} aTriangle(obj:object) : double
    + {static} affichage_forme_g(obj:object) : void
    - {static} trigle(sommets:List<Point3d>) : List<object>
    - {static} bary(ss:List<Point3d>) : Tuple<double, double, double>
}
Program ..> Point3d
Program ..> Triangle
Program ..> Polygone
Program ..> Cercle
class Triangle {
    + Point1X : double <<get>> <<set>>
    + Point1Y : double <<get>> <<set>>
    + Point1Z : double <<get>> <<set>>
    + Point2X : double <<get>> <<set>>
    + Point2Y : double <<get>> <<set>>
    + Point2Z : double <<get>> <<set>>
    + Point3X : double <<get>> <<set>>
    + Point3Y : double <<get>> <<set>>
    + Point3Z : double <<get>> <<set>>
}
@enduml

PlantUML version 1.2022.0(Tue Jan 11 11:16:42 EST 2022)
(GPL source distribution)
Java Runtime: OpenJDK Runtime Environment
JVM: OpenJDK 64-Bit Server VM
Default Encoding: UTF-8
Language: fr
Country: CA
--></g></svg>