<?xml version="1.0" encoding="us-ascii" standalone="no"?><svg xmlns="http://www.w3.org/2000/svg" xmlns:xlink="http://www.w3.org/1999/xlink" contentStyleType="text/css" height="313px" preserveAspectRatio="none" style="width:623px;height:313px;background:#FFFFFF;" version="1.1" viewBox="0 0 623 313" width="623px" zoomAndPan="magnify"><defs/><g><!--class RectangleGeometrique--><g id="elem_RectangleGeometrique"><rect codeLine="9" fill="#FFFFFF" height="65.6094" id="RectangleGeometrique" rx="2.5" ry="2.5" style="stroke:#000000;stroke-width:0.5;" width="178" x="118" y="241"/><ellipse cx="133" cy="257" fill="#ADD1B2" rx="11" ry="11" style="stroke:#181818;stroke-width:1.0;"/><path d="M135.7656,252.875 Q135.9219,252.6563 136.1094,252.5469 Q136.2969,252.4375 136.5156,252.4375 Q136.8906,252.4375 137.125,252.6953 Q137.3594,252.9531 137.3594,253.5625 L137.3594,255.0156 Q137.3594,255.625 137.125,255.8906 Q136.8906,256.1563 136.5156,256.1563 Q136.1719,256.1563 135.9688,255.9531 Q135.7656,255.7656 135.6563,255.25 Q135.6094,254.8906 135.4219,254.7031 Q135.0938,254.3281 134.4844,254.1094 Q133.875,253.8906 133.25,253.8906 Q132.4844,253.8906 131.8516,254.2188 Q131.2188,254.5469 130.7266,255.2969 Q130.2344,256.0469 130.2344,257.0781 L130.2344,258.1719 Q130.2344,259.4063 131.125,260.2266 Q132.0156,261.0469 133.6094,261.0469 Q134.5469,261.0469 135.2031,260.7969 Q135.5938,260.6406 136.0156,260.2031 Q136.2813,259.9375 136.4297,259.8594 Q136.5781,259.7813 136.7813,259.7813 Q137.1094,259.7813 137.3672,260.0391 Q137.625,260.2969 137.625,260.6406 Q137.625,260.9844 137.2813,261.3906 Q136.7813,261.9688 135.9844,262.2969 Q134.9063,262.75 133.6094,262.75 Q132.0938,262.75 130.8906,262.125 Q129.9063,261.625 129.2188,260.5547 Q128.5313,259.4844 128.5313,258.2031 L128.5313,257.0469 Q128.5313,255.7188 129.1484,254.5703 Q129.7656,253.4219 130.8594,252.8047 Q131.9531,252.1875 133.1875,252.1875 Q133.9219,252.1875 134.5703,252.3516 Q135.2188,252.5156 135.7656,252.875 Z " fill="#000000"/><text fill="#000000" font-family="sans-serif" font-size="14" lengthAdjust="spacing" textLength="146" x="147" y="262.7285">RectangleGeometrique</text><line style="stroke:#000000;stroke-width:0.5;" x1="119" x2="295" y1="273" y2="273"/><line style="stroke:#000000;stroke-width:0.5;" x1="119" x2="295" y1="281" y2="281"/><text fill="#000000" font-family="sans-serif" font-size="14" lengthAdjust="spacing" textLength="127" x="124" y="299.5332">+Surface() : decimal</text></g><!--class RectangleGraphique--><g id="elem_RectangleGraphique"><rect codeLine="13" fill="#FFFFFF" height="65.6094" id="RectangleGraphique" rx="2.5" ry="2.5" style="stroke:#000000;stroke-width:0.5;" width="163" x="308.5" y="115"/><ellipse cx="323.5" cy="131" fill="#ADD1B2" rx="11" ry="11" style="stroke:#181818;stroke-width:1.0;"/><path d="M326.2656,126.875 Q326.4219,126.6563 326.6094,126.5469 Q326.7969,126.4375 327.0156,126.4375 Q327.3906,126.4375 327.625,126.6953 Q327.8594,126.9531 327.8594,127.5625 L327.8594,129.0156 Q327.8594,129.625 327.625,129.8906 Q327.3906,130.1563 327.0156,130.1563 Q326.6719,130.1563 326.4688,129.9531 Q326.2656,129.7656 326.1563,129.25 Q326.1094,128.8906 325.9219,128.7031 Q325.5938,128.3281 324.9844,128.1094 Q324.375,127.8906 323.75,127.8906 Q322.9844,127.8906 322.3516,128.2188 Q321.7188,128.5469 321.2266,129.2969 Q320.7344,130.0469 320.7344,131.0781 L320.7344,132.1719 Q320.7344,133.4063 321.625,134.2266 Q322.5156,135.0469 324.1094,135.0469 Q325.0469,135.0469 325.7031,134.7969 Q326.0938,134.6406 326.5156,134.2031 Q326.7813,133.9375 326.9297,133.8594 Q327.0781,133.7813 327.2813,133.7813 Q327.6094,133.7813 327.8672,134.0391 Q328.125,134.2969 328.125,134.6406 Q328.125,134.9844 327.7813,135.3906 Q327.2813,135.9688 326.4844,136.2969 Q325.4063,136.75 324.1094,136.75 Q322.5938,136.75 321.3906,136.125 Q320.4063,135.625 319.7188,134.5547 Q319.0313,133.4844 319.0313,132.2031 L319.0313,131.0469 Q319.0313,129.7188 319.6484,128.5703 Q320.2656,127.4219 321.3594,126.8047 Q322.4531,126.1875 323.6875,126.1875 Q324.4219,126.1875 325.0703,126.3516 Q325.7188,126.5156 326.2656,126.875 Z " fill="#000000"/><text fill="#000000" font-family="sans-serif" font-size="14" lengthAdjust="spacing" textLength="131" x="337.5" y="136.7285">RectangleGraphique</text><line style="stroke:#000000;stroke-width:0.5;" x1="309.5" x2="470.5" y1="147" y2="147"/><line style="stroke:#000000;stroke-width:0.5;" x1="309.5" x2="470.5" y1="155" y2="155"/><text fill="#000000" font-family="sans-serif" font-size="14" lengthAdjust="spacing" textLength="74" x="314.5" y="173.5332">+Dessiner()</text></g><!--entity AppCalcGeo--><g id="elem_AppCalcGeo"><rect fill="#F1F1F1" height="47.6094" rx="2.5" ry="2.5" style="stroke:#181818;stroke-width:0.5;" width="266" x="7" y="124"/><rect fill="#F1F1F1" height="10" style="stroke:#181818;stroke-width:0.5;" width="15" x="253" y="129"/><rect fill="#F1F1F1" height="2" style="stroke:#181818;stroke-width:0.5;" width="4" x="251" y="131"/><rect fill="#F1F1F1" height="2" style="stroke:#181818;stroke-width:0.5;" width="4" x="251" y="135"/><text fill="#000000" font-family="sans-serif" font-size="14" lengthAdjust="spacing" textLength="226" x="22" y="158.5332">Application de calculs g&#233;om&#233;triques</text></g><!--entity AppDessinGeo--><g id="elem_AppDessinGeo"><rect fill="#F1F1F1" height="47.6094" rx="2.5" ry="2.5" style="stroke:#181818;stroke-width:0.5;" width="257" x="328.5" y="7"/><rect fill="#F1F1F1" height="10" style="stroke:#181818;stroke-width:0.5;" width="15" x="565.5" y="12"/><rect fill="#F1F1F1" height="2" style="stroke:#181818;stroke-width:0.5;" width="4" x="563.5" y="14"/><rect fill="#F1F1F1" height="2" style="stroke:#181818;stroke-width:0.5;" width="4" x="563.5" y="18"/><text fill="#000000" font-family="sans-serif" font-size="14" lengthAdjust="spacing" textLength="217" x="343.5" y="41.5332">Application g&#233;om&#233;trique de dessin</text></g><!--entity SurfaceDessinable--><g id="elem_SurfaceDessinable"><rect fill="#F1F1F1" height="47.6094" rx="2.5" ry="2.5" style="stroke:#181818;stroke-width:0.5;" width="252" x="365" y="250"/><rect fill="#F1F1F1" height="10" style="stroke:#181818;stroke-width:0.5;" width="15" x="597" y="255"/><rect fill="#F1F1F1" height="2" style="stroke:#181818;stroke-width:0.5;" width="4" x="595" y="257"/><rect fill="#F1F1F1" height="2" style="stroke:#181818;stroke-width:0.5;" width="4" x="595" y="261"/><text fill="#000000" font-family="sans-serif" font-size="14" lengthAdjust="spacing" textLength="212" x="380" y="284.5332">Cadriciel avec surface dessinable</text></g><!--link AppCalcGeo to RectangleGeometrique--><g id="link_AppCalcGeo_RectangleGeometrique"><path codeLine="21" d="M152.45,172.03 C162.89,191.36 175.0785,213.9109 186.7185,235.4609 " fill="none" id="AppCalcGeo-to-RectangleGeometrique" style="stroke:#181818;stroke-width:1.0;"/><polygon fill="#181818" points="189.57,240.74,188.8122,230.9203,187.1938,236.3407,181.7734,234.7223,189.57,240.74" style="stroke:#181818;stroke-width:1.0;"/></g><!--link AppDessinGeo to RectangleGraphique--><g id="link_AppDessinGeo_RectangleGraphique"><path codeLine="22" d="M443.44,55.27 C433.5,72.34 422.8893,90.535 411.8893,109.425 " fill="none" id="AppDessinGeo-to-RectangleGraphique" style="stroke:#181818;stroke-width:1.0;"/><polygon fill="#181818" points="408.87,114.61,416.8556,108.8454,411.3861,110.2892,409.9423,104.8197,408.87,114.61" style="stroke:#181818;stroke-width:1.0;"/></g><!--link RectangleGraphique to RectangleGeometrique--><g id="link_RectangleGraphique_RectangleGeometrique"><path codeLine="23" d="M342.4,181.26 C315.29,199.63 286.4065,219.1934 259.3365,237.5434 " fill="none" id="RectangleGraphique-to-RectangleGeometrique" style="stroke:#181818;stroke-width:1.0;"/><polygon fill="#181818" points="254.37,240.91,264.0641,239.171,258.5087,238.1045,259.5753,232.5491,254.37,240.91" style="stroke:#181818;stroke-width:1.0;"/></g><!--link AppDessinGeo to SurfaceDessinable--><g id="link_AppDessinGeo_SurfaceDessinable"><path codeLine="25" d="M468.56,55.31 C475.98,71.59 484.97,94.07 489,115 C498.11,162.28 496.141,213.0085 493.701,243.9985 " fill="none" id="AppDessinGeo-to-SurfaceDessinable" style="stroke:#181818;stroke-width:1.0;stroke-dasharray:7.0,7.0;"/><polygon fill="#181818" points="493.23,249.98,497.9241,241.3217,493.6225,244.9954,489.9488,240.6938,493.23,249.98" style="stroke:#181818;stroke-width:1.0;"/></g><!--link RectangleGraphique to SurfaceDessinable--><g id="link_RectangleGraphique_SurfaceDessinable"><path codeLine="26" d="M416.27,181.26 C433.81,202.78 452.6615,225.9274 468.4015,245.2574 " fill="none" id="RectangleGraphique-to-SurfaceDessinable" style="stroke:#181818;stroke-width:1.0;stroke-dasharray:7.0,7.0;"/><polygon fill="#181818" points="472.19,249.91,469.6089,240.4054,469.0329,246.0328,463.4054,245.4567,472.19,249.91" style="stroke:#181818;stroke-width:1.0;"/></g><!--SRC=[TP11JiCm44NtFiL8R5gXLbcpg5HI2R6b2nQ8nTGPqb5jJx0TG20Er7FqOfWu1L9IByV__VzdmevTWnujQ8CXB6Fql6aZtMfnQtudA5GOIk13GNhNg7UrbzPLfHZnSB_bIFb7V4K-Jo-Aeb2V2esHLyjlx6gbiiiTwOYkDdH3OYcbFhVKMr_2klLFg6aoXIkeIBD5arp-aHwRxO1RKGZio4-cdLni8uvSX8TbqnZM65bSCWIDHhScG7tOYptiStfu10oGb6NwJQtEyGFeswtgKezqxd32brXvram6y8KqXBnVJ-B6K4VtQwz-fahzre7PR35wDVKtz4Hrl90QETfPlw7XVBuOAJRYDovKNm00]--></g></svg>