<?xml version="1.0" encoding="us-ascii" standalone="no"?><svg xmlns="http://www.w3.org/2000/svg" xmlns:xlink="http://www.w3.org/1999/xlink" contentStyleType="text/css" height="207px" preserveAspectRatio="none" style="width:1010px;height:207px;background:#FFFFFF;" version="1.1" viewBox="0 0 1010 207" width="1010px" zoomAndPan="magnify"><defs/><g><!--cluster CoucheAccesDonnees--><g id="cluster_CoucheAccesDonnees"><path d="M125.5,85.86 L285.5,85.86 A3.75,3.75 0 0 1 288,88.36 L295,109.4694 L295.5,109.4694 A2.5,2.5 0 0 1 298,111.9694 L298,190.36 A2.5,2.5 0 0 1 295.5,192.86 L125.5,192.86 A2.5,2.5 0 0 1 123,190.36 L123,88.36 A2.5,2.5 0 0 1 125.5,85.86 " fill="none" style="stroke:#000000;stroke-width:1.5;"/><line style="stroke:#000000;stroke-width:1.5;" x1="123" x2="295" y1="109.4694" y2="109.4694"/><text fill="#000000" font-family="sans-serif" font-size="14" font-weight="bold" lengthAdjust="spacing" textLength="159" x="127" y="102.3932">CoucheAccesDonnees</text></g><!--cluster TraitementsLots--><g id="cluster_TraitementsLots"><path d="M332.5,6 L446.5,6 A3.75,3.75 0 0 1 449,8.5 L456,29.6094 L1000.5,29.6094 A2.5,2.5 0 0 1 1003,32.1094 L1003,198.36 A2.5,2.5 0 0 1 1000.5,200.86 L332.5,200.86 A2.5,2.5 0 0 1 330,198.36 L330,8.5 A2.5,2.5 0 0 1 332.5,6 " fill="none" style="stroke:#000000;stroke-width:1.5;"/><line style="stroke:#000000;stroke-width:1.5;" x1="330" x2="456" y1="29.6094" y2="29.6094"/><text fill="#000000" font-family="sans-serif" font-size="14" font-weight="bold" lengthAdjust="spacing" textLength="113" x="334" y="22.5332">TraitementsLots</text></g><path d="M221,6.86 L271,6.86 A3.75,3.75 0 0 1 273.5,9.36 L280.5,30.4694 L285,30.4694 A2.5,2.5 0 0 1 287.5,32.9694 L287.5,59.5788 A2.5,2.5 0 0 1 285,62.0788 L221,62.0788 A2.5,2.5 0 0 1 218.5,59.5788 L218.5,9.36 A2.5,2.5 0 0 1 221,6.86 " fill="#F1F1F1" style="stroke:#181818;stroke-width:0.5;"/><line style="stroke:#181818;stroke-width:0.5;" x1="218.5" x2="280.5" y1="30.4694" y2="30.4694"/><text fill="#000000" font-family="sans-serif" font-size="14" font-weight="bold" lengthAdjust="spacing" textLength="49" x="222.5" y="23.3932">Entites</text><path d="M226.5,121.86 L265.5,121.86 A3.75,3.75 0 0 1 268,124.36 L275,145.4694 L279.5,145.4694 A2.5,2.5 0 0 1 282,147.9694 L282,174.5788 A2.5,2.5 0 0 1 279.5,177.0788 L226.5,177.0788 A2.5,2.5 0 0 1 224,174.5788 L224,124.36 A2.5,2.5 0 0 1 226.5,121.86 " fill="#F1F1F1" style="stroke:#181818;stroke-width:0.5;"/><line style="stroke:#181818;stroke-width:0.5;" x1="224" x2="275" y1="145.4694" y2="145.4694"/><text fill="#000000" font-family="sans-serif" font-size="14" font-weight="bold" lengthAdjust="spacing" textLength="38" x="228" y="138.3932">JSON</text><path d="M141.5,121.86 L172.5,121.86 A3.75,3.75 0 0 1 175,124.36 L182,145.4694 L186.5,145.4694 A2.5,2.5 0 0 1 189,147.9694 L189,174.5788 A2.5,2.5 0 0 1 186.5,177.0788 L141.5,177.0788 A2.5,2.5 0 0 1 139,174.5788 L139,124.36 A2.5,2.5 0 0 1 141.5,121.86 " fill="#F1F1F1" style="stroke:#181818;stroke-width:0.5;"/><line style="stroke:#181818;stroke-width:0.5;" x1="139" x2="182" y1="145.4694" y2="145.4694"/><text fill="#000000" font-family="sans-serif" font-size="14" font-weight="bold" lengthAdjust="spacing" textLength="30" x="143" y="138.3932">XML</text><path d="M8.5,121.86 L87.5,121.86 A3.75,3.75 0 0 1 90,124.36 L97,145.4694 L101.5,145.4694 A2.5,2.5 0 0 1 104,147.9694 L104,174.5788 A2.5,2.5 0 0 1 101.5,177.0788 L8.5,177.0788 A2.5,2.5 0 0 1 6,174.5788 L6,124.36 A2.5,2.5 0 0 1 8.5,121.86 " fill="#F1F1F1" style="stroke:#181818;stroke-width:0.5;"/><line style="stroke:#181818;stroke-width:0.5;" x1="6" x2="97" y1="145.4694" y2="145.4694"/><text fill="#000000" font-family="sans-serif" font-size="14" font-weight="bold" lengthAdjust="spacing" textLength="78" x="10" y="138.3932">Application</text><path d="M631.5,121.86 L962.5,121.86 A3.75,3.75 0 0 1 965,124.36 L972,145.4694 L976.5,145.4694 A2.5,2.5 0 0 1 979,147.9694 L979,174.5788 A2.5,2.5 0 0 1 976.5,177.0788 L631.5,177.0788 A2.5,2.5 0 0 1 629,174.5788 L629,124.36 A2.5,2.5 0 0 1 631.5,121.86 " fill="#F1F1F1" style="stroke:#181818;stroke-width:0.5;"/><line style="stroke:#181818;stroke-width:0.5;" x1="629" x2="972" y1="145.4694" y2="145.4694"/><text fill="#000000" font-family="sans-serif" font-size="14" font-weight="bold" lengthAdjust="spacing" textLength="330" x="633" y="138.3932">ModifierNomPrenomPremiereLettreMajuscules</text><path d="M356.5,121.86 L577.5,121.86 A3.75,3.75 0 0 1 580,124.36 L587,145.4694 L591.5,145.4694 A2.5,2.5 0 0 1 594,147.9694 L594,174.5788 A2.5,2.5 0 0 1 591.5,177.0788 L356.5,177.0788 A2.5,2.5 0 0 1 354,174.5788 L354,124.36 A2.5,2.5 0 0 1 356.5,121.86 " fill="#F1F1F1" style="stroke:#181818;stroke-width:0.5;"/><line style="stroke:#181818;stroke-width:0.5;" x1="354" x2="587" y1="145.4694" y2="145.4694"/><text fill="#000000" font-family="sans-serif" font-size="14" font-weight="bold" lengthAdjust="spacing" textLength="220" x="358" y="138.3932">ModifierPaysMajusculesClients</text><!--reverse link TraitementsLots to ModifierNomPrenomPremiereLettreMajuscules--><g id="link_TraitementsLots_ModifierNomPrenomPremiereLettreMajuscules"><path codeLine="37" d="M644.0693,38.8318 C647.4693,41.1618 717.47,89.1 765.13,121.74 " fill="none" id="TraitementsLots-backto-ModifierNomPrenomPremiereLettreMajuscules" style="stroke:#181818;stroke-width:1.0;stroke-dasharray:7.0,7.0;"/><polygon fill="#181818" points="639.12,35.44,644.2828,43.8272,643.2445,38.2665,648.8052,37.2281,639.12,35.44" style="stroke:#181818;stroke-width:1.0;"/></g><!--reverse link TraitementsLots to ModifierPaysMajusculesClients--><g id="link_TraitementsLots_ModifierPaysMajusculesClients"><path codeLine="38" d="M633.9307,38.8318 C630.5307,41.1618 560.53,89.1 512.87,121.74 " fill="none" id="TraitementsLots-backto-ModifierPaysMajusculesClients" style="stroke:#181818;stroke-width:1.0;stroke-dasharray:7.0,7.0;"/><polygon fill="#181818" points="638.88,35.44,629.1948,37.2281,634.7555,38.2665,633.7172,43.8272,638.88,35.44" style="stroke:#181818;stroke-width:1.0;"/></g><!--reverse link Entites to JSON--><g id="link_Entites_JSON"><path codeLine="40" d="M253,68.14 C253,86.15 253,103.8 253,121.77 " fill="none" id="Entites-backto-JSON" style="stroke:#181818;stroke-width:1.0;stroke-dasharray:7.0,7.0;"/><polygon fill="#181818" points="253,62.14,249,71.14,253,67.14,257,71.14,253,62.14" style="stroke:#181818;stroke-width:1.0;"/></g><!--reverse link Entites to XML--><g id="link_Entites_XML"><path codeLine="41" d="M217.325,66.3194 C212.185,71.3094 211.41,72.48 207,77.86 C195.92,91.39 185.63,108.04 177.9,121.75 " fill="none" id="Entites-backto-XML" style="stroke:#181818;stroke-width:1.0;stroke-dasharray:7.0,7.0;"/><polygon fill="#181818" points="221.63,62.14,212.3863,65.539,218.0425,65.6228,217.9588,71.279,221.63,62.14" style="stroke:#181818;stroke-width:1.0;"/></g><!--reverse link Entites to Application--><g id="link_Entites_Application"><path codeLine="42" d="M212.5998,43.1623 C185.1998,49.4023 152.58,59.33 123,77.86 C104.55,89.42 87.55,107.04 75.17,121.78 " fill="none" id="Entites-backto-Application" style="stroke:#181818;stroke-width:1.0;stroke-dasharray:7.0,7.0;"/><polygon fill="#181818" points="218.45,41.83,208.7865,39.9283,213.5748,42.9403,210.5629,47.7286,218.45,41.83" style="stroke:#181818;stroke-width:1.0;"/></g><!--reverse link Entites to ModifierNomPrenomPremiereLettreMajuscules--><g id="link_Entites_ModifierNomPrenomPremiereLettreMajuscules"><path codeLine="43" d="M293.3968,53.338 C304.1468,57.548 310.58,59.42 322,61.86 C448.22,88.88 485.58,51.77 612,77.86 C658.25,87.41 708.27,106.06 745.65,121.78 " fill="none" id="Entites-backto-ModifierNomPrenomPremiereLettreMajuscules" style="stroke:#181818;stroke-width:1.0;stroke-dasharray:7.0,7.0;"/><polygon fill="#181818" points="287.81,51.15,294.7316,58.1565,292.4657,52.9733,297.6489,50.7074,287.81,51.15" style="stroke:#181818;stroke-width:1.0;"/></g><!--reverse link Entites to ModifierPaysMajusculesClients--><g id="link_Entites_ModifierPaysMajusculesClients"><path codeLine="44" d="M292.8726,55.7506 C328.9326,74.1806 380.56,100.58 422.05,121.8 " fill="none" id="Entites-backto-ModifierPaysMajusculesClients" style="stroke:#181818;stroke-width:1.0;stroke-dasharray:7.0,7.0;"/><polygon fill="#181818" points="287.53,53.02,293.7236,60.6776,291.9822,55.2955,297.3644,53.5541,287.53,53.02" style="stroke:#181818;stroke-width:1.0;"/></g><!--SRC=[dP71JiCm38RlUOf8tAi-09VIxG1gnwGXZQkNcYqijQiuEMo8ToTbJD1giB4S8kNtvpzEVjbQwi13guq3aI84RrSnuBrXMjWzwbp94D5lIgTr1sQxzXofATcnrykD3NYei6_G7zIRFC_LkrAgIpYiKKyf9AutwUMZMd8q6ooCGPam4Q9a3ul7sNdgkQv6KD5rpXe8bcbKUVAGhcwHWbGSvEzgLdDZNopw6RTpZ_Ivj-cC5QO_mXfUevZey5AVEUpakwbqjYU-UiUJtMRPzVFyo-taL4eTK-fRVydc79EI6I0_SXderx_p4fVJx_i0]--></g></svg>