<?xml version="1.0" encoding="UTF-8" standalone="no"?><svg xmlns="http://www.w3.org/2000/svg" xmlns:xlink="http://www.w3.org/1999/xlink" contentScriptType="application/ecmascript" contentStyleType="text/css" height="185px" preserveAspectRatio="none" style="width:1538px;height:185px;" version="1.1" viewBox="0 0 1538 185" width="1538px" zoomAndPan="magnify"><defs><filter height="300%" id="f8sdnbzhfh2ot" width="300%" x="-1" y="-1"><feGaussianBlur result="blurOut" stdDeviation="2.0"/><feColorMatrix in="blurOut" result="blurOut2" type="matrix" values="0 0 0 0 0 0 0 0 0 0 0 0 0 0 0 0 0 0 .4 0"/><feOffset dx="4.0" dy="4.0" in="blurOut2" result="blurOut3"/><feBlend in="SourceGraphic" in2="blurOut3" mode="normal"/></filter></defs><g><polygon fill="#FFFFFF" filter="url(#f8sdnbzhfh2ot)" points="514,8,570,8,577,30.4883,584,30.4883,584,60.9766,514,60.9766,514,8" style="stroke: #000000; stroke-width: 1.5;"/><line style="stroke: #000000; stroke-width: 1.5;" x1="514" x2="577" y1="30.4883" y2="30.4883"/><text fill="#000000" font-family="sans-serif" font-size="14" font-weight="bold" lengthAdjust="spacingAndGlyphs" textLength="50" x="518" y="23.5352">Entites</text><polygon fill="#FFFFFF" filter="url(#f8sdnbzhfh2ot)" points="6,121,206,121,213,143.4883,220,143.4883,220,173.9766,6,173.9766,6,121" style="stroke: #000000; stroke-width: 1.5;"/><line style="stroke: #000000; stroke-width: 1.5;" x1="6" x2="213" y1="143.4883" y2="143.4883"/><text fill="#000000" font-family="sans-serif" font-size="14" font-weight="bold" lengthAdjust="spacingAndGlyphs" textLength="194" x="10" y="136.5352">CoucheAccesDonnees.JSON</text><polygon fill="#FFFFFF" filter="url(#f8sdnbzhfh2ot)" points="255.5,121,448.5,121,455.5,143.4883,462.5,143.4883,462.5,173.9766,255.5,173.9766,255.5,121" style="stroke: #000000; stroke-width: 1.5;"/><line style="stroke: #000000; stroke-width: 1.5;" x1="255.5" x2="455.5" y1="143.4883" y2="143.4883"/><text fill="#000000" font-family="sans-serif" font-size="14" font-weight="bold" lengthAdjust="spacingAndGlyphs" textLength="187" x="259.5" y="136.5352">CoucheAccesDonnees.XML</text><polygon fill="#FFFFFF" filter="url(#f8sdnbzhfh2ot)" points="498,121,586,121,593,143.4883,600,143.4883,600,173.9766,498,173.9766,498,121" style="stroke: #000000; stroke-width: 1.5;"/><line style="stroke: #000000; stroke-width: 1.5;" x1="498" x2="593" y1="143.4883" y2="143.4883"/><text fill="#000000" font-family="sans-serif" font-size="14" font-weight="bold" lengthAdjust="spacingAndGlyphs" textLength="82" x="502" y="136.5352">Application</text><polygon fill="#FFFFFF" filter="url(#f8sdnbzhfh2ot)" points="978.5,8,1103.5,8,1110.5,30.4883,1117.5,30.4883,1117.5,60.9766,978.5,60.9766,978.5,8" style="stroke: #000000; stroke-width: 1.5;"/><line style="stroke: #000000; stroke-width: 1.5;" x1="978.5" x2="1110.5" y1="30.4883" y2="30.4883"/><text fill="#000000" font-family="sans-serif" font-size="14" font-weight="bold" lengthAdjust="spacingAndGlyphs" textLength="119" x="982.5" y="23.5352">TraitementsLots</text><polygon fill="#FFFFFF" filter="url(#f8sdnbzhfh2ot)" points="1038,121,1502,121,1509,143.4883,1516,143.4883,1516,173.9766,1038,173.9766,1038,121" style="stroke: #000000; stroke-width: 1.5;"/><line style="stroke: #000000; stroke-width: 1.5;" x1="1038" x2="1509" y1="143.4883" y2="143.4883"/><text fill="#000000" font-family="sans-serif" font-size="14" font-weight="bold" lengthAdjust="spacingAndGlyphs" textLength="458" x="1042" y="136.5352">TraitementsLots.ModifierNomPrenomPremiereLettreMajuscules</text><polygon fill="#FFFFFF" filter="url(#f8sdnbzhfh2ot)" points="635.5,121,988.5,121,995.5,143.4883,1002.5,143.4883,1002.5,173.9766,635.5,173.9766,635.5,121" style="stroke: #000000; stroke-width: 1.5;"/><line style="stroke: #000000; stroke-width: 1.5;" x1="635.5" x2="995.5" y1="143.4883" y2="143.4883"/><text fill="#000000" font-family="sans-serif" font-size="14" font-weight="bold" lengthAdjust="spacingAndGlyphs" textLength="347" x="639.5" y="136.5352">TraitementsLots.ModifierPaysMajusculesClients</text><!--MD5=[328ca96f865dc40e47b2bef46ed63e09]
reverse link TraitementsLots to TraitementsLots.ModifierNomPrenomPremiereLettreMajuscules--><path d="M1105.66,63.45 C1142.02,81.07 1188.62,103.66 1224.04,120.83 " fill="none" id="TraitementsLots&lt;-TraitementsLots.ModifierNomPrenomPremiereLettreMajuscules" style="stroke: #A80036; stroke-width: 1.0; stroke-dasharray: 7.0,7.0;"/><polygon fill="#A80036" points="1100.82,61.11,1107.168,68.6402,1105.3175,63.2945,1110.6632,61.4441,1100.82,61.11" style="stroke: #A80036; stroke-width: 1.0;"/><!--MD5=[4240b647bd3c276cf1c6c52e1aa1068d]
reverse link TraitementsLots to TraitementsLots.ModifierPaysMajusculesClients--><path d="M990.34,63.45 C953.98,81.07 907.38,103.66 871.96,120.83 " fill="none" id="TraitementsLots&lt;-TraitementsLots.ModifierPaysMajusculesClients" style="stroke: #A80036; stroke-width: 1.0; stroke-dasharray: 7.0,7.0;"/><polygon fill="#A80036" points="995.18,61.11,985.3368,61.4441,990.6825,63.2945,988.832,68.6402,995.18,61.11" style="stroke: #A80036; stroke-width: 1.0;"/><!--MD5=[5a31d2f7b9035a593baf9452917a0f00]
reverse link Entites to CoucheAccesDonnees.JSON--><path d="M508.62,45.78 C441.96,62.75 306.95,97.12 213.31,120.96 " fill="none" id="Entites&lt;-CoucheAccesDonnees.JSON" style="stroke: #A80036; stroke-width: 1.0; stroke-dasharray: 7.0,7.0;"/><polygon fill="#A80036" points="513.69,44.49,503.9782,42.8528,508.8469,45.7329,505.9668,50.6017,513.69,44.49" style="stroke: #A80036; stroke-width: 1.0;"/><!--MD5=[1e3561f4031f90a33b529bb19e794ea3]
reverse link Entites to CoucheAccesDonnees.XML--><path d="M509.21,58.75 C478.09,76.92 434.88,102.17 402.79,120.92 " fill="none" id="Entites&lt;-CoucheAccesDonnees.XML" style="stroke: #A80036; stroke-width: 1.0; stroke-dasharray: 7.0,7.0;"/><polygon fill="#A80036" points="513.71,56.12,503.9201,57.1957,509.3901,58.6376,507.9482,64.1076,513.71,56.12" style="stroke: #A80036; stroke-width: 1.0;"/><!--MD5=[2ae8f4fa82f04e73b666b51189105dee]
reverse link Entites to Application--><path d="M549,66.43 C549,83.59 549,104.67 549,120.89 " fill="none" id="Entites&lt;-Application" style="stroke: #A80036; stroke-width: 1.0; stroke-dasharray: 7.0,7.0;"/><polygon fill="#A80036" points="549,61.24,545,70.24,549,66.24,553,70.24,549,61.24" style="stroke: #A80036; stroke-width: 1.0;"/><!--MD5=[663fe4d414452b16f2bb5e0b8be8ed3c]
reverse link Entites to TraitementsLots.ModifierNomPrenomPremiereLettreMajuscules--><path d="M589.19,41.63 C686.49,56.46 939.27,95.01 1109.75,121 " fill="none" id="Entites&lt;-TraitementsLots.ModifierNomPrenomPremiereLettreMajuscules" style="stroke: #A80036; stroke-width: 1.0; stroke-dasharray: 7.0,7.0;"/><polygon fill="#A80036" points="584.11,40.85,592.4006,46.1666,589.0524,41.6071,593.6119,38.2588,584.11,40.85" style="stroke: #A80036; stroke-width: 1.0;"/><!--MD5=[d5ae7f255d7b8402144732fa1d35385b]
reverse link Entites to TraitementsLots.ModifierPaysMajusculesClients--><path d="M588.75,51.84 C633.04,70.05 705.22,99.72 756.96,120.99 " fill="none" id="Entites&lt;-TraitementsLots.ModifierPaysMajusculesClients" style="stroke: #A80036; stroke-width: 1.0; stroke-dasharray: 7.0,7.0;"/><polygon fill="#A80036" points="584.02,49.9,590.8268,57.0181,588.6455,51.7987,593.8648,49.6173,584.02,49.9" style="stroke: #A80036; stroke-width: 1.0;"/><!--MD5=[37c3eb4356f9be93176b9a010056332d]
@startuml DiagClassesClientsPkg

skinparam classAttributeIconSize 0
skinparam class {
    BackgroundColor White
    BorderColor #000
}


package Entites {

}

package CoucheAccesDonnees.JSON {

}

package CoucheAccesDonnees.XML {

}

package Application {

}

package TraitementsLots {

}

package TraitementsLots.ModifierNomPrenomPremiereLettreMajuscules {

}

package TraitementsLots.ModifierPaysMajusculesClients {

}

TraitementsLots <.. TraitementsLots.ModifierNomPrenomPremiereLettreMajuscules
TraitementsLots <.. TraitementsLots.ModifierPaysMajusculesClients

Entites <.. CoucheAccesDonnees.JSON
Entites <.. CoucheAccesDonnees.XML
Entites <.. Application
Entites <.. TraitementsLots.ModifierNomPrenomPremiereLettreMajuscules
Entites <.. TraitementsLots.ModifierPaysMajusculesClients

@enduml

PlantUML version 1.2020.10(Sun May 17 05:35:57 EDT 2020)
(GPL source distribution)
Java Runtime: OpenJDK Runtime Environment
JVM: OpenJDK 64-Bit Server VM
Java Version: 13.0.2+8
Operating System: Mac OS X
Default Encoding: UTF-8
Language: fr
Country: CA
--></g></svg>