<?xml version="1.0" encoding="UTF-8" standalone="no"?><svg xmlns="http://www.w3.org/2000/svg" xmlns:xlink="http://www.w3.org/1999/xlink" contentScriptType="application/ecmascript" contentStyleType="text/css" height="298px" preserveAspectRatio="none" style="width:1139px;height:298px;" version="1.1" viewBox="0 0 1139 298" width="1139px" zoomAndPan="magnify"><defs><filter height="300%" id="f1q0m4yi4p28fd" width="300%" x="-1" y="-1"><feGaussianBlur result="blurOut" stdDeviation="2.0"/><feColorMatrix in="blurOut" result="blurOut2" type="matrix" values="0 0 0 0 0 0 0 0 0 0 0 0 0 0 0 0 0 0 .4 0"/><feOffset dx="4.0" dy="4.0" in="blurOut2" result="blurOut3"/><feBlend in="SourceGraphic" in2="blurOut3" mode="normal"/></filter></defs><g><polygon fill="#FFFFFF" filter="url(#f1q0m4yi4p28fd)" points="419,8,475,8,482,30.4883,489,30.4883,489,60.9766,419,60.9766,419,8" style="stroke: #000000; stroke-width: 1.5;"/><line style="stroke: #000000; stroke-width: 1.5;" x1="419" x2="482" y1="30.4883" y2="30.4883"/><text fill="#000000" font-family="sans-serif" font-size="14" font-weight="bold" lengthAdjust="spacingAndGlyphs" textLength="50" x="423" y="23.5352">Entites</text><polygon fill="#FFFFFF" filter="url(#f1q0m4yi4p28fd)" points="6,121,206,121,213,143.4883,220,143.4883,220,173.9766,6,173.9766,6,121" style="stroke: #000000; stroke-width: 1.5;"/><line style="stroke: #000000; stroke-width: 1.5;" x1="6" x2="213" y1="143.4883" y2="143.4883"/><text fill="#000000" font-family="sans-serif" font-size="14" font-weight="bold" lengthAdjust="spacingAndGlyphs" textLength="194" x="10" y="136.5352">CoucheAccesDonnees.JSON</text><polygon fill="#FFFFFF" filter="url(#f1q0m4yi4p28fd)" points="255.5,121,448.5,121,455.5,143.4883,462.5,143.4883,462.5,173.9766,255.5,173.9766,255.5,121" style="stroke: #000000; stroke-width: 1.5;"/><line style="stroke: #000000; stroke-width: 1.5;" x1="255.5" x2="455.5" y1="143.4883" y2="143.4883"/><text fill="#000000" font-family="sans-serif" font-size="14" font-weight="bold" lengthAdjust="spacingAndGlyphs" textLength="187" x="259.5" y="136.5352">CoucheAccesDonnees.XML</text><polygon fill="#FFFFFF" filter="url(#f1q0m4yi4p28fd)" points="498,121,586,121,593,143.4883,600,143.4883,600,173.9766,498,173.9766,498,121" style="stroke: #000000; stroke-width: 1.5;"/><line style="stroke: #000000; stroke-width: 1.5;" x1="498" x2="593" y1="143.4883" y2="143.4883"/><text fill="#000000" font-family="sans-serif" font-size="14" font-weight="bold" lengthAdjust="spacingAndGlyphs" textLength="82" x="502" y="136.5352">Application</text><polygon fill="#FFFFFF" filter="url(#f1q0m4yi4p28fd)" points="635.5,121,760.5,121,767.5,143.4883,774.5,143.4883,774.5,173.9766,635.5,173.9766,635.5,121" style="stroke: #000000; stroke-width: 1.5;"/><line style="stroke: #000000; stroke-width: 1.5;" x1="635.5" x2="767.5" y1="143.4883" y2="143.4883"/><text fill="#000000" font-family="sans-serif" font-size="14" font-weight="bold" lengthAdjust="spacingAndGlyphs" textLength="119" x="639.5" y="136.5352">TraitementsLots</text><polygon fill="#FFFFFF" filter="url(#f1q0m4yi4p28fd)" points="237,234,701,234,708,256.4883,715,256.4883,715,286.9766,237,286.9766,237,234" style="stroke: #000000; stroke-width: 1.5;"/><line style="stroke: #000000; stroke-width: 1.5;" x1="237" x2="708" y1="256.4883" y2="256.4883"/><text fill="#000000" font-family="sans-serif" font-size="14" font-weight="bold" lengthAdjust="spacingAndGlyphs" textLength="458" x="241" y="249.5352">TraitementsLots.ModifierNomPrenomPremiereLettreMajuscules</text><polygon fill="#FFFFFF" filter="url(#f1q0m4yi4p28fd)" points="750.5,234,1103.5,234,1110.5,256.4883,1117.5,256.4883,1117.5,286.9766,750.5,286.9766,750.5,234" style="stroke: #000000; stroke-width: 1.5;"/><line style="stroke: #000000; stroke-width: 1.5;" x1="750.5" x2="1110.5" y1="256.4883" y2="256.4883"/><text fill="#000000" font-family="sans-serif" font-size="14" font-weight="bold" lengthAdjust="spacingAndGlyphs" textLength="347" x="754.5" y="249.5352">TraitementsLots.ModifierPaysMajusculesClients</text><!--MD5=[328ca96f865dc40e47b2bef46ed63e09]
reverse link TraitementsLots to TraitementsLots.ModifierNomPrenomPremiereLettreMajuscules--><path d="M647.34,176.45 C610.98,194.07 564.38,216.66 528.96,233.83 " fill="none" id="TraitementsLots&lt;-TraitementsLots.ModifierNomPrenomPremiereLettreMajuscules" style="stroke: #A80036; stroke-width: 1.0; stroke-dasharray: 7.0,7.0;"/><polygon fill="#A80036" points="652.18,174.11,642.3368,174.4441,647.6825,176.2945,645.832,181.6402,652.18,174.11" style="stroke: #A80036; stroke-width: 1.0;"/><!--MD5=[4240b647bd3c276cf1c6c52e1aa1068d]
reverse link TraitementsLots to TraitementsLots.ModifierPaysMajusculesClients--><path d="M762.66,176.45 C799.02,194.07 845.62,216.66 881.04,233.83 " fill="none" id="TraitementsLots&lt;-TraitementsLots.ModifierPaysMajusculesClients" style="stroke: #A80036; stroke-width: 1.0; stroke-dasharray: 7.0,7.0;"/><polygon fill="#A80036" points="757.82,174.11,764.168,181.6402,762.3175,176.2945,767.6632,174.4441,757.82,174.11" style="stroke: #A80036; stroke-width: 1.0;"/><!--MD5=[5a31d2f7b9035a593baf9452917a0f00]
reverse link Entites to CoucheAccesDonnees.JSON--><path d="M413.99,48.53 C359.55,66.24 261.01,98.32 191.54,120.94 " fill="none" id="Entites&lt;-CoucheAccesDonnees.JSON" style="stroke: #A80036; stroke-width: 1.0; stroke-dasharray: 7.0,7.0;"/><polygon fill="#A80036" points="418.79,46.96,408.995,45.9317,414.0339,48.5025,411.463,53.5414,418.79,46.96" style="stroke: #A80036; stroke-width: 1.0;"/><!--MD5=[1e3561f4031f90a33b529bb19e794ea3]
reverse link Entites to CoucheAccesDonnees.XML--><path d="M428.66,65.11 C413.78,82.5 395.16,104.25 380.91,120.89 " fill="none" id="Entites&lt;-CoucheAccesDonnees.XML" style="stroke: #A80036; stroke-width: 1.0; stroke-dasharray: 7.0,7.0;"/><polygon fill="#A80036" points="431.97,61.24,423.0772,65.4729,428.7172,65.0373,429.1528,70.6774,431.97,61.24" style="stroke: #A80036; stroke-width: 1.0;"/><!--MD5=[2ae8f4fa82f04e73b666b51189105dee]
reverse link Entites to Application--><path d="M479.34,65.11 C494.22,82.5 512.84,104.25 527.09,120.89 " fill="none" id="Entites&lt;-Application" style="stroke: #A80036; stroke-width: 1.0; stroke-dasharray: 7.0,7.0;"/><polygon fill="#A80036" points="476.03,61.24,478.8472,70.6774,479.2828,65.0373,484.9228,65.4729,476.03,61.24" style="stroke: #A80036; stroke-width: 1.0;"/><!--MD5=[0221dac72cb354b56cd55d49e8b71160]
reverse link Entites to TraitementsLots--><path d="M493.83,53.11 C535.07,71.35 599.94,100.04 646.9,120.81 " fill="none" id="Entites&lt;-TraitementsLots" style="stroke: #A80036; stroke-width: 1.0; stroke-dasharray: 7.0,7.0;"/><polygon fill="#A80036" points="489.16,51.05,495.764,58.3567,493.7302,53.078,499.0089,51.0443,489.16,51.05" style="stroke: #A80036; stroke-width: 1.0;"/><!--MD5=[3a0e018450fb35f99b0550f8218fb7d6]
@startuml DiagClassesClientsPkg

skinparam classAttributeIconSize 0
skinparam class {
    BackgroundColor White
    BorderColor #000
}


package Entites {

}

package CoucheAccesDonnees.JSON {

}

package CoucheAccesDonnees.XML {

}

package Application {

}

package TraitementsLots {

}

package TraitementsLots.ModifierNomPrenomPremiereLettreMajuscules {

}

package TraitementsLots.ModifierPaysMajusculesClients {

}

TraitementsLots <.. TraitementsLots.ModifierNomPrenomPremiereLettreMajuscules
TraitementsLots <.. TraitementsLots.ModifierPaysMajusculesClients

Entites <.. CoucheAccesDonnees.JSON
Entites <.. CoucheAccesDonnees.XML
Entites <.. Application
Entites <.. TraitementsLots

@enduml

PlantUML version 1.2020.10(Sun May 17 05:35:57 EDT 2020)
(GPL source distribution)
Java Runtime: OpenJDK Runtime Environment
JVM: OpenJDK 64-Bit Server VM
Java Version: 13.0.2+8
Operating System: Mac OS X
Default Encoding: UTF-8
Language: fr
Country: CA
--></g></svg>