<?xml version="1.0" encoding="us-ascii" standalone="no"?><svg xmlns="http://www.w3.org/2000/svg" xmlns:xlink="http://www.w3.org/1999/xlink" contentStyleType="text/css" height="456px" preserveAspectRatio="none" style="width:506px;height:456px;background:#FFFFFF;" version="1.1" viewBox="0 0 506 456" width="506px" zoomAndPan="magnify"><defs/><g><!--class Dessin--><g id="elem_Dessin"><rect fill="#FFFFFF" height="48" id="Dessin" rx="2.5" ry="2.5" style="stroke:#000000;stroke-width:0.5;" width="75" x="201.5" y="7"/><ellipse cx="216.5" cy="23" fill="#ADD1B2" rx="11" ry="11" style="stroke:#181818;stroke-width:1.0;"/><path d="M219.2656,18.875 Q219.4219,18.6563 219.6094,18.5469 Q219.7969,18.4375 220.0156,18.4375 Q220.3906,18.4375 220.625,18.6953 Q220.8594,18.9531 220.8594,19.5625 L220.8594,21.0156 Q220.8594,21.625 220.625,21.8906 Q220.3906,22.1563 220.0156,22.1563 Q219.6719,22.1563 219.4688,21.9531 Q219.2656,21.7656 219.1563,21.25 Q219.1094,20.8906 218.9219,20.7031 Q218.5938,20.3281 217.9844,20.1094 Q217.375,19.8906 216.75,19.8906 Q215.9844,19.8906 215.3516,20.2188 Q214.7188,20.5469 214.2266,21.2969 Q213.7344,22.0469 213.7344,23.0781 L213.7344,24.1719 Q213.7344,25.4063 214.625,26.2266 Q215.5156,27.0469 217.1094,27.0469 Q218.0469,27.0469 218.7031,26.7969 Q219.0938,26.6406 219.5156,26.2031 Q219.7813,25.9375 219.9297,25.8594 Q220.0781,25.7813 220.2813,25.7813 Q220.6094,25.7813 220.8672,26.0391 Q221.125,26.2969 221.125,26.6406 Q221.125,26.9844 220.7813,27.3906 Q220.2813,27.9688 219.4844,28.2969 Q218.4063,28.75 217.1094,28.75 Q215.5938,28.75 214.3906,28.125 Q213.4063,27.625 212.7188,26.5547 Q212.0313,25.4844 212.0313,24.2031 L212.0313,23.0469 Q212.0313,21.7188 212.6484,20.5703 Q213.2656,19.4219 214.3594,18.8047 Q215.4531,18.1875 216.6875,18.1875 Q217.4219,18.1875 218.0703,18.3516 Q218.7188,18.5156 219.2656,18.875 Z " fill="#000000"/><text fill="#000000" font-family="sans-serif" font-size="14" lengthAdjust="spacing" textLength="43" x="230.5" y="28.7285">Dessin</text><line style="stroke:#000000;stroke-width:0.5;" x1="202.5" x2="275.5" y1="39" y2="39"/><line style="stroke:#000000;stroke-width:0.5;" x1="202.5" x2="275.5" y1="47" y2="47"/></g><!--class Forme--><g id="elem_Forme"><rect codeLine="19" fill="#FFFFFF" height="48" id="Forme" rx="2.5" ry="2.5" style="stroke:#000000;stroke-width:0.5;" width="73" x="202.5" y="115"/><ellipse cx="217.5" cy="131" fill="#A9DCDF" rx="11" ry="11" style="stroke:#181818;stroke-width:1.0;"/><path d="M219.6875,132.7656 L215.5469,132.7656 L215.125,133.7969 L215.5469,133.7969 Q216.1563,133.7969 216.4219,134.0313 Q216.6875,134.2656 216.6875,134.6563 Q216.6875,135.0313 216.4219,135.2656 Q216.1563,135.5 215.5469,135.5 L213.25,135.5 Q212.6406,135.5 212.3828,135.2656 Q212.125,135.0313 212.125,134.6406 Q212.125,134.2656 212.3984,134.0234 Q212.6719,133.7813 213.2969,133.7969 L215.9688,127.1406 L214.8594,127.1406 Q214.25,127.1406 213.9844,126.9063 Q213.7188,126.6719 213.7188,126.2813 Q213.7188,125.9063 213.9844,125.6719 Q214.25,125.4375 214.8594,125.4375 L218.5313,125.4375 L221.9219,133.7969 Q222.5156,133.7969 222.7031,133.9375 Q223.0938,134.2031 223.0938,134.6563 Q223.0938,135.0313 222.8359,135.2656 Q222.5781,135.5 221.9688,135.5 L219.6719,135.5 Q219.0625,135.5 218.7969,135.2656 Q218.5313,135.0313 218.5313,134.6406 Q218.5313,134.2656 218.7969,134.0313 Q219.0625,133.7969 219.6719,133.7969 L220.0938,133.7969 L219.6875,132.7656 Z M218.9688,131.0625 L217.6094,127.6875 L216.2344,131.0625 L218.9688,131.0625 Z " fill="#000000"/><text fill="#000000" font-family="sans-serif" font-size="14" font-style="italic" lengthAdjust="spacing" textLength="41" x="231.5" y="136.7285">Forme</text><line style="stroke:#000000;stroke-width:0.5;" x1="203.5" x2="274.5" y1="147" y2="147"/><line style="stroke:#000000;stroke-width:0.5;" x1="203.5" x2="274.5" y1="155" y2="155"/></g><!--class Cercle--><g id="elem_Cercle"><rect codeLine="23" fill="#FFFFFF" height="83.2188" id="Cercle" rx="2.5" ry="2.5" style="stroke:#000000;stroke-width:0.5;" width="200" x="7" y="223"/><ellipse cx="82.25" cy="239" fill="#ADD1B2" rx="11" ry="11" style="stroke:#181818;stroke-width:1.0;"/><path d="M85.0156,234.875 Q85.1719,234.6563 85.3594,234.5469 Q85.5469,234.4375 85.7656,234.4375 Q86.1406,234.4375 86.375,234.6953 Q86.6094,234.9531 86.6094,235.5625 L86.6094,237.0156 Q86.6094,237.625 86.375,237.8906 Q86.1406,238.1563 85.7656,238.1563 Q85.4219,238.1563 85.2188,237.9531 Q85.0156,237.7656 84.9063,237.25 Q84.8594,236.8906 84.6719,236.7031 Q84.3438,236.3281 83.7344,236.1094 Q83.125,235.8906 82.5,235.8906 Q81.7344,235.8906 81.1016,236.2188 Q80.4688,236.5469 79.9766,237.2969 Q79.4844,238.0469 79.4844,239.0781 L79.4844,240.1719 Q79.4844,241.4063 80.375,242.2266 Q81.2656,243.0469 82.8594,243.0469 Q83.7969,243.0469 84.4531,242.7969 Q84.8438,242.6406 85.2656,242.2031 Q85.5313,241.9375 85.6797,241.8594 Q85.8281,241.7813 86.0313,241.7813 Q86.3594,241.7813 86.6172,242.0391 Q86.875,242.2969 86.875,242.6406 Q86.875,242.9844 86.5313,243.3906 Q86.0313,243.9688 85.2344,244.2969 Q84.1563,244.75 82.8594,244.75 Q81.3438,244.75 80.1406,244.125 Q79.1563,243.625 78.4688,242.5547 Q77.7813,241.4844 77.7813,240.2031 L77.7813,239.0469 Q77.7813,237.7188 78.3984,236.5703 Q79.0156,235.4219 80.1094,234.8047 Q81.2031,234.1875 82.4375,234.1875 Q83.1719,234.1875 83.8203,234.3516 Q84.4688,234.5156 85.0156,234.875 Z " fill="#000000"/><text fill="#000000" font-family="sans-serif" font-size="14" lengthAdjust="spacing" textLength="41" x="102.75" y="244.7285">Cercle</text><line style="stroke:#000000;stroke-width:0.5;" x1="8" x2="206" y1="255" y2="255"/><text fill="#000000" font-family="sans-serif" font-size="14" lengthAdjust="spacing" textLength="155" x="13" y="273.5332">+Rayon : int &#171;get&#187; &#171;set&#187;</text><text fill="#000000" font-family="sans-serif" font-size="14" lengthAdjust="spacing" textLength="188" x="13" y="291.1426">+Centre : Point2D&#171;get&#187; &#171;set&#187;</text><line style="stroke:#000000;stroke-width:0.5;" x1="8" x2="206" y1="298.2188" y2="298.2188"/></g><!--class Polygone--><g id="elem_Polygone"><rect codeLine="28" fill="#FFFFFF" height="65.6094" id="Polygone" rx="2.5" ry="2.5" style="stroke:#000000;stroke-width:0.5;" width="257" x="242.5" y="231.5"/><ellipse cx="337.25" cy="247.5" fill="#ADD1B2" rx="11" ry="11" style="stroke:#181818;stroke-width:1.0;"/><path d="M340.0156,243.375 Q340.1719,243.1563 340.3594,243.0469 Q340.5469,242.9375 340.7656,242.9375 Q341.1406,242.9375 341.375,243.1953 Q341.6094,243.4531 341.6094,244.0625 L341.6094,245.5156 Q341.6094,246.125 341.375,246.3906 Q341.1406,246.6563 340.7656,246.6563 Q340.4219,246.6563 340.2188,246.4531 Q340.0156,246.2656 339.9063,245.75 Q339.8594,245.3906 339.6719,245.2031 Q339.3438,244.8281 338.7344,244.6094 Q338.125,244.3906 337.5,244.3906 Q336.7344,244.3906 336.1016,244.7188 Q335.4688,245.0469 334.9766,245.7969 Q334.4844,246.5469 334.4844,247.5781 L334.4844,248.6719 Q334.4844,249.9063 335.375,250.7266 Q336.2656,251.5469 337.8594,251.5469 Q338.7969,251.5469 339.4531,251.2969 Q339.8438,251.1406 340.2656,250.7031 Q340.5313,250.4375 340.6797,250.3594 Q340.8281,250.2813 341.0313,250.2813 Q341.3594,250.2813 341.6172,250.5391 Q341.875,250.7969 341.875,251.1406 Q341.875,251.4844 341.5313,251.8906 Q341.0313,252.4688 340.2344,252.7969 Q339.1563,253.25 337.8594,253.25 Q336.3438,253.25 335.1406,252.625 Q334.1563,252.125 333.4688,251.0547 Q332.7813,249.9844 332.7813,248.7031 L332.7813,247.5469 Q332.7813,246.2188 333.3984,245.0703 Q334.0156,243.9219 335.1094,243.3047 Q336.2031,242.6875 337.4375,242.6875 Q338.1719,242.6875 338.8203,242.8516 Q339.4688,243.0156 340.0156,243.375 Z " fill="#000000"/><text fill="#000000" font-family="sans-serif" font-size="14" lengthAdjust="spacing" textLength="59" x="357.75" y="253.2285">Polygone</text><line style="stroke:#000000;stroke-width:0.5;" x1="243.5" x2="498.5" y1="263.5" y2="263.5"/><text fill="#000000" font-family="sans-serif" font-size="14" lengthAdjust="spacing" textLength="245" x="248.5" y="282.0332">+Sommets : List&lt;Point2D&gt; &#171;get&#187; &#171;set&#187;</text><line style="stroke:#000000;stroke-width:0.5;" x1="243.5" x2="498.5" y1="289.1094" y2="289.1094"/></g><!--class Point2D--><g id="elem_Point2D"><rect codeLine="14" fill="#FFFFFF" height="83.2188" id="Point2D" rx="2.5" ry="2.5" style="stroke:#000000;stroke-width:0.5;" width="135" x="171.5" y="366"/><ellipse cx="210.35" cy="382" fill="#ADD1B2" rx="11" ry="11" style="stroke:#181818;stroke-width:1.0;"/><path d="M213.1156,377.875 Q213.2719,377.6563 213.4594,377.5469 Q213.6469,377.4375 213.8656,377.4375 Q214.2406,377.4375 214.475,377.6953 Q214.7094,377.9531 214.7094,378.5625 L214.7094,380.0156 Q214.7094,380.625 214.475,380.8906 Q214.2406,381.1563 213.8656,381.1563 Q213.5219,381.1563 213.3188,380.9531 Q213.1156,380.7656 213.0063,380.25 Q212.9594,379.8906 212.7719,379.7031 Q212.4438,379.3281 211.8344,379.1094 Q211.225,378.8906 210.6,378.8906 Q209.8344,378.8906 209.2016,379.2188 Q208.5688,379.5469 208.0766,380.2969 Q207.5844,381.0469 207.5844,382.0781 L207.5844,383.1719 Q207.5844,384.4063 208.475,385.2266 Q209.3656,386.0469 210.9594,386.0469 Q211.8969,386.0469 212.5531,385.7969 Q212.9438,385.6406 213.3656,385.2031 Q213.6313,384.9375 213.7797,384.8594 Q213.9281,384.7813 214.1313,384.7813 Q214.4594,384.7813 214.7172,385.0391 Q214.975,385.2969 214.975,385.6406 Q214.975,385.9844 214.6313,386.3906 Q214.1313,386.9688 213.3344,387.2969 Q212.2563,387.75 210.9594,387.75 Q209.4438,387.75 208.2406,387.125 Q207.2563,386.625 206.5688,385.5547 Q205.8813,384.4844 205.8813,383.2031 L205.8813,382.0469 Q205.8813,380.7188 206.4984,379.5703 Q207.1156,378.4219 208.2094,377.8047 Q209.3031,377.1875 210.5375,377.1875 Q211.2719,377.1875 211.9203,377.3516 Q212.5688,377.5156 213.1156,377.875 Z " fill="#000000"/><text fill="#000000" font-family="sans-serif" font-size="14" lengthAdjust="spacing" textLength="50" x="229.65" y="387.7285">Point2D</text><line style="stroke:#000000;stroke-width:0.5;" x1="172.5" x2="305.5" y1="398" y2="398"/><text fill="#000000" font-family="sans-serif" font-size="14" lengthAdjust="spacing" textLength="122" x="177.5" y="416.5332">+X : int &#171;get&#187; &#171;set&#187;</text><text fill="#000000" font-family="sans-serif" font-size="14" lengthAdjust="spacing" textLength="123" x="177.5" y="434.1426">+Y : int &#171;get&#187; &#171;set&#187;</text><line style="stroke:#000000;stroke-width:0.5;" x1="172.5" x2="305.5" y1="441.2188" y2="441.2188"/></g><!--link Dessin to Forme--><g id="link_Dessin_Forme"><path codeLine="8" d="M239,55 C239,72.66 239,90.94 239,108.68 " fill="none" id="Dessin-to-Forme" style="stroke:#181818;stroke-width:1.0;"/><polygon fill="#181818" points="239,114.68,243,105.68,239,109.68,235,105.68,239,114.68" style="stroke:#181818;stroke-width:1.0;"/><text fill="#000000" font-family="sans-serif" font-size="13" lengthAdjust="spacing" textLength="5" x="233.3906" y="104.34">*</text></g><!--reverse link Forme to Cercle--><g id="link_Forme_Cercle"><path codeLine="9" d="M201.0274,175.5292 C183.1074,192.2992 171.58,203.08 150.43,222.87 " fill="none" id="Forme-backto-Cercle" style="stroke:#181818;stroke-width:1.0;"/><polygon fill="none" points="214.17,163.23,196.9276,171.1483,205.1271,179.9101,214.17,163.23" style="stroke:#181818;stroke-width:1.0;"/></g><!--reverse link Forme to Polygone--><g id="link_Forme_Polygone"><path codeLine="10" d="M276.9749,175.5268 C297.4349,194.6668 313.55,209.75 336.32,231.05 " fill="none" id="Forme-backto-Polygone" style="stroke:#181818;stroke-width:1.0;"/><polygon fill="none" points="263.83,163.23,272.8759,179.9085,281.0738,171.1452,263.83,163.23" style="stroke:#181818;stroke-width:1.0;"/></g><!--link Cercle to Point2D--><g id="link_Cercle_Point2D"><path codeLine="11" d="M145.18,306.28 C162.69,324.99 179.299,342.7303 196.809,361.4303 " fill="none" id="Cercle-to-Point2D" style="stroke:#181818;stroke-width:1.0;"/><polygon fill="#181818" points="200.91,365.81,197.6783,356.5064,197.4925,362.1602,191.8387,361.9744,200.91,365.81" style="stroke:#181818;stroke-width:1.0;"/><text fill="#000000" font-family="sans-serif" font-size="13" lengthAdjust="spacing" textLength="7" x="187.0217" y="355.0862">1</text></g><!--link Polygone to Point2D--><g id="link_Polygone_Point2D"><path codeLine="12" d="M340.72,297.85 C321.76,318.09 301.2906,339.9599 281.0406,361.5899 " fill="none" id="Polygone-to-Point2D" style="stroke:#181818;stroke-width:1.0;"/><polygon fill="#181818" points="276.94,365.97,286.011,362.1336,280.3572,362.3199,280.1709,356.6662,276.94,365.97" style="stroke:#181818;stroke-width:1.0;"/><text fill="#000000" font-family="sans-serif" font-size="13" lengthAdjust="spacing" textLength="22" x="259.4019" y="355.2727">3..n</text></g><!--SRC=[VOzFJyCm3CNl-HHMTmDrAd13LINeD6aI1yGEWsEMMILQ6q-sTnX_lZlPaWeD0JaaollPVi-ozM5dsGxWUYjofyf-lLTSE0fB_uPG6JalWNS3yTnRj-sOzc7JKayCgrUlc0Zn1ZcfawggpASnCnJn0SgoWUAYW3dnWEPqG_rHbj0Yk_vCUQJ-q550ar1glIgYxeDUpyp84xYPJiCtCobe_kR0b_0Cjn0LgEiEjMdYAyStqvS_Q4nlrw9idQRSUTuH99-SSBHviWSA_rgr69GnbkI4lrYE6-GbnzbB6WPKYQqFNhJE_SrFdvpl2m00]--></g></svg>