<?xml version="1.0" encoding="us-ascii" standalone="no"?><svg xmlns="http://www.w3.org/2000/svg" xmlns:xlink="http://www.w3.org/1999/xlink" contentStyleType="text/css" height="205px" preserveAspectRatio="none" style="width:639px;height:205px;background:#FFFFFF;" version="1.1" viewBox="0 0 639 205" width="639px" zoomAndPan="magnify"><defs/><g><!--class ICalculInteret--><g id="elem_ICalculInteret"><rect codeLine="9" fill="#FFFFFF" height="65.6094" id="ICalculInteret" rx="2.5" ry="2.5" style="stroke:#000000;stroke-width:0.5;" width="295" x="172" y="7"/><ellipse cx="273.25" cy="23" fill="#B4A7E5" rx="11" ry="11" style="stroke:#181818;stroke-width:1.0;"/><path d="M274.2031,19.6406 L274.2031,26.2969 L275.9219,26.2969 Q276.5313,26.2969 276.7969,26.5313 Q277.0625,26.7656 277.0625,27.1563 Q277.0625,27.5313 276.7969,27.7656 Q276.5313,28 275.9219,28 L270.7813,28 Q270.1719,28 269.9063,27.7656 Q269.6406,27.5313 269.6406,27.1406 Q269.6406,26.7656 269.9063,26.5313 Q270.1719,26.2969 270.7813,26.2969 L272.5,26.2969 L272.5,19.6406 L270.7813,19.6406 Q270.1719,19.6406 269.9063,19.4063 Q269.6406,19.1719 269.6406,18.7813 Q269.6406,18.4063 269.9063,18.1719 Q270.1719,17.9375 270.7813,17.9375 L275.9219,17.9375 Q276.5313,17.9375 276.7969,18.1719 Q277.0625,18.4063 277.0625,18.7813 Q277.0625,19.1719 276.7969,19.4063 Q276.5313,19.6406 275.9219,19.6406 L274.2031,19.6406 Z " fill="#000000"/><text fill="#000000" font-family="sans-serif" font-size="14" font-style="italic" lengthAdjust="spacing" textLength="84" x="293.75" y="28.7285">ICalculInteret</text><line style="stroke:#000000;stroke-width:0.5;" x1="173" x2="466" y1="39" y2="39"/><line style="stroke:#000000;stroke-width:0.5;" x1="173" x2="466" y1="47" y2="47"/><text fill="#000000" font-family="sans-serif" font-size="14" lengthAdjust="spacing" textLength="283" x="178" y="65.5332">+CalculerMontantInteretJournalier() : decimal</text></g><!--class CalculInteretFixe--><g id="elem_CalculInteretFixe"><rect codeLine="13" fill="#FFFFFF" height="65.6094" id="CalculInteretFixe" rx="2.5" ry="2.5" style="stroke:#000000;stroke-width:0.5;" width="295" x="7" y="133"/><ellipse cx="97.75" cy="149" fill="#ADD1B2" rx="11" ry="11" style="stroke:#181818;stroke-width:1.0;"/><path d="M100.5156,144.875 Q100.6719,144.6563 100.8594,144.5469 Q101.0469,144.4375 101.2656,144.4375 Q101.6406,144.4375 101.875,144.6953 Q102.1094,144.9531 102.1094,145.5625 L102.1094,147.0156 Q102.1094,147.625 101.875,147.8906 Q101.6406,148.1563 101.2656,148.1563 Q100.9219,148.1563 100.7188,147.9531 Q100.5156,147.7656 100.4063,147.25 Q100.3594,146.8906 100.1719,146.7031 Q99.8438,146.3281 99.2344,146.1094 Q98.625,145.8906 98,145.8906 Q97.2344,145.8906 96.6016,146.2188 Q95.9688,146.5469 95.4766,147.2969 Q94.9844,148.0469 94.9844,149.0781 L94.9844,150.1719 Q94.9844,151.4063 95.875,152.2266 Q96.7656,153.0469 98.3594,153.0469 Q99.2969,153.0469 99.9531,152.7969 Q100.3438,152.6406 100.7656,152.2031 Q101.0313,151.9375 101.1797,151.8594 Q101.3281,151.7813 101.5313,151.7813 Q101.8594,151.7813 102.1172,152.0391 Q102.375,152.2969 102.375,152.6406 Q102.375,152.9844 102.0313,153.3906 Q101.5313,153.9688 100.7344,154.2969 Q99.6563,154.75 98.3594,154.75 Q96.8438,154.75 95.6406,154.125 Q94.6563,153.625 93.9688,152.5547 Q93.2813,151.4844 93.2813,150.2031 L93.2813,149.0469 Q93.2813,147.7188 93.8984,146.5703 Q94.5156,145.4219 95.6094,144.8047 Q96.7031,144.1875 97.9375,144.1875 Q98.6719,144.1875 99.3203,144.3516 Q99.9688,144.5156 100.5156,144.875 Z " fill="#000000"/><text fill="#000000" font-family="sans-serif" font-size="14" lengthAdjust="spacing" textLength="105" x="118.25" y="154.7285">CalculInteretFixe</text><line style="stroke:#000000;stroke-width:0.5;" x1="8" x2="301" y1="165" y2="165"/><line style="stroke:#000000;stroke-width:0.5;" x1="8" x2="301" y1="173" y2="173"/><text fill="#000000" font-family="sans-serif" font-size="14" lengthAdjust="spacing" textLength="283" x="13" y="191.5332">+CalculerMontantInteretJournalier() : decimal</text></g><!--class CalculInteretVariable--><g id="elem_CalculInteretVariable"><rect codeLine="17" fill="#FFFFFF" height="65.6094" id="CalculInteretVariable" rx="2.5" ry="2.5" style="stroke:#000000;stroke-width:0.5;" width="295" x="337" y="133"/><ellipse cx="414.75" cy="149" fill="#ADD1B2" rx="11" ry="11" style="stroke:#181818;stroke-width:1.0;"/><path d="M417.5156,144.875 Q417.6719,144.6563 417.8594,144.5469 Q418.0469,144.4375 418.2656,144.4375 Q418.6406,144.4375 418.875,144.6953 Q419.1094,144.9531 419.1094,145.5625 L419.1094,147.0156 Q419.1094,147.625 418.875,147.8906 Q418.6406,148.1563 418.2656,148.1563 Q417.9219,148.1563 417.7188,147.9531 Q417.5156,147.7656 417.4063,147.25 Q417.3594,146.8906 417.1719,146.7031 Q416.8438,146.3281 416.2344,146.1094 Q415.625,145.8906 415,145.8906 Q414.2344,145.8906 413.6016,146.2188 Q412.9688,146.5469 412.4766,147.2969 Q411.9844,148.0469 411.9844,149.0781 L411.9844,150.1719 Q411.9844,151.4063 412.875,152.2266 Q413.7656,153.0469 415.3594,153.0469 Q416.2969,153.0469 416.9531,152.7969 Q417.3438,152.6406 417.7656,152.2031 Q418.0313,151.9375 418.1797,151.8594 Q418.3281,151.7813 418.5313,151.7813 Q418.8594,151.7813 419.1172,152.0391 Q419.375,152.2969 419.375,152.6406 Q419.375,152.9844 419.0313,153.3906 Q418.5313,153.9688 417.7344,154.2969 Q416.6563,154.75 415.3594,154.75 Q413.8438,154.75 412.6406,154.125 Q411.6563,153.625 410.9688,152.5547 Q410.2813,151.4844 410.2813,150.2031 L410.2813,149.0469 Q410.2813,147.7188 410.8984,146.5703 Q411.5156,145.4219 412.6094,144.8047 Q413.7031,144.1875 414.9375,144.1875 Q415.6719,144.1875 416.3203,144.3516 Q416.9688,144.5156 417.5156,144.875 Z " fill="#000000"/><text fill="#000000" font-family="sans-serif" font-size="14" lengthAdjust="spacing" textLength="131" x="435.25" y="154.7285">CalculInteretVariable</text><line style="stroke:#000000;stroke-width:0.5;" x1="338" x2="631" y1="165" y2="165"/><line style="stroke:#000000;stroke-width:0.5;" x1="338" x2="631" y1="173" y2="173"/><text fill="#000000" font-family="sans-serif" font-size="14" lengthAdjust="spacing" textLength="283" x="343" y="191.5332">+CalculerMontantInteretJournalier() : decimal</text></g><!--reverse link ICalculInteret to CalculInteretFixe--><g id="link_ICalculInteret_CalculInteretFixe"><path codeLine="21" d="M262.1892,84.0722 C237.7392,102.4422 221.61,114.56 197.21,132.91 " fill="none" id="ICalculInteret-backto-CalculInteretFixe" style="stroke:#181818;stroke-width:1.0;stroke-dasharray:7.0,7.0;"/><polygon fill="none" points="276.58,73.26,258.5851,79.2753,265.7933,88.8692,276.58,73.26" style="stroke:#181818;stroke-width:1.0;"/></g><!--reverse link ICalculInteret to CalculInteretVariable--><g id="link_ICalculInteret_CalculInteretVariable"><path codeLine="22" d="M376.8108,84.0722 C401.2608,102.4422 417.39,114.56 441.79,132.91 " fill="none" id="ICalculInteret-backto-CalculInteretVariable" style="stroke:#181818;stroke-width:1.0;stroke-dasharray:7.0,7.0;"/><polygon fill="none" points="362.42,73.26,373.2067,88.8692,380.4149,79.2753,362.42,73.26" style="stroke:#181818;stroke-width:1.0;"/></g><!--SRC=[hO-x2i9044Nx_Oe16qK8MukD2a84Aq7hSJFgaCckJ3OOVFoxIc8HBGHnodClXpjbplw8YWKumRASnAYyhIAbBlWLdmciARiLk1Xut1HTljTG-MmM92Xi3XofIO9cf0tjMMlDpQ18E1LSizyRmpwIxj0Hf3CKLqdw11HRyH0QIheCFgAFRRm8bNeK9kqFO0GPEIvG7dBJpEguvbpJFtrhLCQj_EvyUtLyJPBFnTzRhntc3W00]--></g></svg>