<?xml version="1.0" encoding="UTF-8" standalone="no"?><svg xmlns="http://www.w3.org/2000/svg" xmlns:xlink="http://www.w3.org/1999/xlink" contentScriptType="application/ecmascript" contentStyleType="text/css" height="239px" preserveAspectRatio="none" style="width:655px;height:239px;" version="1.1" viewBox="0 0 655 239" width="655px" zoomAndPan="magnify"><defs><filter height="300%" id="fhy4bqr92bckj" width="300%" x="-1" y="-1"><feGaussianBlur result="blurOut" stdDeviation="2.0"/><feColorMatrix in="blurOut" result="blurOut2" type="matrix" values="0 0 0 0 0 0 0 0 0 0 0 0 0 0 0 0 0 0 .4 0"/><feOffset dx="4.0" dy="4.0" in="blurOut2" result="blurOut3"/><feBlend in="SourceGraphic" in2="blurOut3" mode="normal"/></filter></defs><g><!--MD5=[eefaf226b5f13521cbb360b7fa75b52a]
class DepotFacture--><rect fill="#FFFFFF" filter="url(#fhy4bqr92bckj)" height="86.8652" id="DepotFacture" style="stroke: #000000; stroke-width: 1.5;" width="272" x="6" y="8"/><ellipse cx="99.25" cy="24" fill="#B4A7E5" rx="11" ry="11" style="stroke: #000000; stroke-width: 1.0;"/><path d="M95.6777,20.2651 L95.6777,18.1069 L103.0571,18.1069 L103.0571,20.2651 L100.5918,20.2651 L100.5918,28.3418 L103.0571,28.3418 L103.0571,30.5 L95.6777,30.5 L95.6777,28.3418 L98.1431,28.3418 L98.1431,20.2651 Z "/><text fill="#000000" font-family="sans-serif" font-size="12" font-style="italic" lengthAdjust="spacingAndGlyphs" textLength="77" x="119.75" y="28.5352">DepotFacture</text><line style="stroke: #000000; stroke-width: 1.5;" x1="7" x2="277" y1="40" y2="40"/><line style="stroke: #000000; stroke-width: 1.5;" x1="7" x2="277" y1="48" y2="48"/><text fill="#000000" font-family="sans-serif" font-size="11" lengthAdjust="spacingAndGlyphs" textLength="248" x="12" y="62.6348">+Obtenir(p_identifiantFacture : Guid) : Facture</text><text fill="#000000" font-family="sans-serif" font-size="11" lengthAdjust="spacingAndGlyphs" textLength="177" x="12" y="75.5898">+Enregistrer(p_facture : Facture)</text><text fill="#000000" font-family="sans-serif" font-size="11" lengthAdjust="spacingAndGlyphs" textLength="260" x="12" y="88.5449">+Rechercher(p_motClef : string) : List&lt;Facture&gt;</text><!--MD5=[35685f3a7cfa9b8c7e0d937a7282288f]
class Facture--><rect fill="#FFFFFF" filter="url(#fhy4bqr92bckj)" height="48" id="Facture" style="stroke: #000000; stroke-width: 1.5;" width="74" x="313" y="27.5"/><ellipse cx="328" cy="43.5" fill="#ADD1B2" rx="11" ry="11" style="stroke: #000000; stroke-width: 1.0;"/><path d="M330.4731,49.6431 Q329.8921,49.9419 329.2529,50.0913 Q328.6138,50.2407 327.9082,50.2407 Q325.4014,50.2407 324.0815,48.5889 Q322.7617,46.937 322.7617,43.8159 Q322.7617,40.6865 324.0815,39.0347 Q325.4014,37.3828 327.9082,37.3828 Q328.6138,37.3828 329.2612,37.5322 Q329.9087,37.6816 330.4731,37.9805 L330.4731,40.7031 Q329.8423,40.1221 329.2488,39.8523 Q328.6553,39.5825 328.0244,39.5825 Q326.6797,39.5825 325.9949,40.6492 Q325.3101,41.7158 325.3101,43.8159 Q325.3101,45.9077 325.9949,46.9744 Q326.6797,48.041 328.0244,48.041 Q328.6553,48.041 329.2488,47.7712 Q329.8423,47.5015 330.4731,46.9204 Z "/><text fill="#000000" font-family="sans-serif" font-size="12" lengthAdjust="spacingAndGlyphs" textLength="42" x="342" y="48.0352">Facture</text><line style="stroke: #000000; stroke-width: 1.5;" x1="314" x2="386" y1="59.5" y2="59.5"/><line style="stroke: #000000; stroke-width: 1.5;" x1="314" x2="386" y1="67.5" y2="67.5"/><!--MD5=[202b5d08f935039fd73ecb649c6a2ad7]
class Imprimable--><rect fill="#FFFFFF" filter="url(#fhy4bqr92bckj)" height="60.9551" id="Imprimable" style="stroke: #000000; stroke-width: 1.5;" width="98" x="422" y="21"/><ellipse cx="437" cy="37" fill="#B4A7E5" rx="11" ry="11" style="stroke: #000000; stroke-width: 1.0;"/><path d="M433.4277,33.2651 L433.4277,31.1069 L440.8071,31.1069 L440.8071,33.2651 L438.3418,33.2651 L438.3418,41.3418 L440.8071,41.3418 L440.8071,43.5 L433.4277,43.5 L433.4277,41.3418 L435.8931,41.3418 L435.8931,33.2651 Z "/><text fill="#000000" font-family="sans-serif" font-size="12" font-style="italic" lengthAdjust="spacingAndGlyphs" textLength="66" x="451" y="41.5352">Imprimable</text><line style="stroke: #000000; stroke-width: 1.5;" x1="423" x2="519" y1="53" y2="53"/><line style="stroke: #000000; stroke-width: 1.5;" x1="423" x2="519" y1="61" y2="61"/><text fill="#000000" font-family="sans-serif" font-size="11" lengthAdjust="spacingAndGlyphs" textLength="66" x="428" y="75.6348">+Imprimer()</text><!--MD5=[b4efb0c1763c6ac43c39e00406976915]
class Affichable--><rect fill="#FFFFFF" filter="url(#fhy4bqr92bckj)" height="60.9551" id="Affichable" style="stroke: #000000; stroke-width: 1.5;" width="89" x="555.5" y="21"/><ellipse cx="570.5" cy="37" fill="#B4A7E5" rx="11" ry="11" style="stroke: #000000; stroke-width: 1.0;"/><path d="M566.9277,33.2651 L566.9277,31.1069 L574.3071,31.1069 L574.3071,33.2651 L571.8418,33.2651 L571.8418,41.3418 L574.3071,41.3418 L574.3071,43.5 L566.9277,43.5 L566.9277,41.3418 L569.3931,41.3418 L569.3931,33.2651 Z "/><text fill="#000000" font-family="sans-serif" font-size="12" font-style="italic" lengthAdjust="spacingAndGlyphs" textLength="57" x="584.5" y="41.5352">Affichable</text><line style="stroke: #000000; stroke-width: 1.5;" x1="556.5" x2="643.5" y1="53" y2="53"/><line style="stroke: #000000; stroke-width: 1.5;" x1="556.5" x2="643.5" y1="61" y2="61"/><text fill="#000000" font-family="sans-serif" font-size="11" lengthAdjust="spacingAndGlyphs" textLength="60" x="561.5" y="75.6348">+Afficher()</text><!--MD5=[2e505685da318ab5cc2bec66ebec941b]
class FactureMagasinXYZ--><rect fill="#FFFFFF" filter="url(#fhy4bqr92bckj)" height="73.9102" id="FactureMagasinXYZ" style="stroke: #000000; stroke-width: 1.5;" width="143" x="399.5" y="155"/><ellipse cx="414.5" cy="171" fill="#ADD1B2" rx="11" ry="11" style="stroke: #000000; stroke-width: 1.0;"/><path d="M416.9731,177.1431 Q416.3921,177.4419 415.7529,177.5913 Q415.1138,177.7407 414.4082,177.7407 Q411.9014,177.7407 410.5815,176.0889 Q409.2617,174.437 409.2617,171.3159 Q409.2617,168.1865 410.5815,166.5347 Q411.9014,164.8828 414.4082,164.8828 Q415.1138,164.8828 415.7612,165.0322 Q416.4087,165.1816 416.9731,165.4805 L416.9731,168.2031 Q416.3423,167.6221 415.7488,167.3523 Q415.1553,167.0825 414.5244,167.0825 Q413.1797,167.0825 412.4949,168.1492 Q411.8101,169.2158 411.8101,171.3159 Q411.8101,173.4077 412.4949,174.4744 Q413.1797,175.541 414.5244,175.541 Q415.1553,175.541 415.7488,175.2712 Q416.3423,175.0015 416.9731,174.4204 Z "/><text fill="#000000" font-family="sans-serif" font-size="12" lengthAdjust="spacingAndGlyphs" textLength="111" x="428.5" y="175.5352">FactureMagasinXYZ</text><line style="stroke: #000000; stroke-width: 1.5;" x1="400.5" x2="541.5" y1="187" y2="187"/><line style="stroke: #000000; stroke-width: 1.5;" x1="400.5" x2="541.5" y1="195" y2="195"/><text fill="#000000" font-family="sans-serif" font-size="11" lengthAdjust="spacingAndGlyphs" textLength="66" x="405.5" y="209.6348">+Imprimer()</text><text fill="#000000" font-family="sans-serif" font-size="11" lengthAdjust="spacingAndGlyphs" textLength="60" x="405.5" y="222.5898">+Afficher()</text><!--MD5=[43b2dfd094b181523fd5fe9abf8b98b1]
reverse link Imprimable to FactureMagasinXYZ--><path d="M471,102.24 C471,119.65 471,138.86 471,154.94 " fill="none" id="Imprimable&lt;-FactureMagasinXYZ" style="stroke: #A80036; stroke-width: 1.0; stroke-dasharray: 7.0,7.0;"/><polygon fill="none" points="464,102.21,471,82.21,478,102.21,464,102.21" style="stroke: #A80036; stroke-width: 1.0;"/><!--MD5=[48460b442ddfda133f6a3bc29d367389]
reverse link Affichable to FactureMagasinXYZ--><path d="M558.44,97.13 C541.02,115.82 521.04,137.27 504.59,154.94 " fill="none" id="Affichable&lt;-FactureMagasinXYZ" style="stroke: #A80036; stroke-width: 1.0; stroke-dasharray: 7.0,7.0;"/><polygon fill="none" points="553.57,92.08,572.33,82.21,563.82,101.62,553.57,92.08" style="stroke: #A80036; stroke-width: 1.0;"/><!--MD5=[dce851f05567999dbef349fe75dd536e]
reverse link Facture to FactureMagasinXYZ--><path d="M373.67,79.59 C392.47,101.12 418.94,131.41 439.53,154.97 " fill="none" id="Facture&lt;-FactureMagasinXYZ" style="stroke: #A80036; stroke-width: 1.0;"/><polygon fill="#A80036" points="370.25,75.68,373.146,85.0935,373.5344,79.45,379.1779,79.8384,370.25,75.68" style="stroke: #A80036; stroke-width: 1.0;"/><!--MD5=[06fe2b04caf44482fcba29ad27d32faf]
@startuml ISP_v01_s01

skinparam classAttributeIconSize 0
skinparam class {
    BackgroundColor White
    BorderColor #000
}
allowmixing
'skinparam linetype ortho

interface DepotFacture {
    + Obtenir(p_identifiantFacture : Guid) : Facture
    + Enregistrer(p_facture : Facture)
    + Rechercher(p_motClef : string) : List<Facture>
}

class Facture {

}

interface Imprimable {
    + Imprimer()
}

interface Affichable {
    + Afficher()
}



class FactureMagasinXYZ {
    + Imprimer()
    + Afficher()

}



Imprimable <|.. FactureMagasinXYZ
Affichable <|.. FactureMagasinXYZ
Facture  <- - FactureMagasinXYZ

@enduml

@startuml ISP_v01_s01

skinparam classAttributeIconSize 0
skinparam class {
    BackgroundColor White
    BorderColor #000
}
allowmixing

interface DepotFacture {
    + Obtenir(p_identifiantFacture : Guid) : Facture
    + Enregistrer(p_facture : Facture)
    + Rechercher(p_motClef : string) : List<Facture>
}

class Facture {

}

interface Imprimable {
    + Imprimer()
}

interface Affichable {
    + Afficher()
}



class FactureMagasinXYZ {
    + Imprimer()
    + Afficher()

}



Imprimable <|.. FactureMagasinXYZ
Affichable <|.. FactureMagasinXYZ
Facture  <- - FactureMagasinXYZ

@enduml

PlantUML version 1.2020.10(Sun May 17 05:35:57 EDT 2020)
(GPL source distribution)
Java Runtime: OpenJDK Runtime Environment
JVM: OpenJDK 64-Bit Server VM
Java Version: 13.0.2+8
Operating System: Mac OS X
Default Encoding: UTF-8
Language: fr
Country: CA
--></g></svg>