<?xml version="1.0" encoding="us-ascii" standalone="no"?><svg xmlns="http://www.w3.org/2000/svg" xmlns:xlink="http://www.w3.org/1999/xlink" contentStyleType="text/css" height="258px" preserveAspectRatio="none" style="width:710px;height:258px;background:#FFFFFF;" version="1.1" viewBox="0 0 710 258" width="710px" zoomAndPan="magnify"><defs/><g><!--class DepotFacture--><g id="elem_DepotFacture"><rect codeLine="10" fill="#FFFFFF" height="100.8281" id="DepotFacture" rx="2.5" ry="2.5" style="stroke:#000000;stroke-width:0.5;" width="314" x="7" y="7"/><ellipse cx="116.25" cy="23" fill="#B4A7E5" rx="11" ry="11" style="stroke:#181818;stroke-width:1.0;"/><path d="M117.2031,19.6406 L117.2031,26.2969 L118.9219,26.2969 Q119.5313,26.2969 119.7969,26.5313 Q120.0625,26.7656 120.0625,27.1563 Q120.0625,27.5313 119.7969,27.7656 Q119.5313,28 118.9219,28 L113.7813,28 Q113.1719,28 112.9063,27.7656 Q112.6406,27.5313 112.6406,27.1406 Q112.6406,26.7656 112.9063,26.5313 Q113.1719,26.2969 113.7813,26.2969 L115.5,26.2969 L115.5,19.6406 L113.7813,19.6406 Q113.1719,19.6406 112.9063,19.4063 Q112.6406,19.1719 112.6406,18.7813 Q112.6406,18.4063 112.9063,18.1719 Q113.1719,17.9375 113.7813,17.9375 L118.9219,17.9375 Q119.5313,17.9375 119.7969,18.1719 Q120.0625,18.4063 120.0625,18.7813 Q120.0625,19.1719 119.7969,19.4063 Q119.5313,19.6406 118.9219,19.6406 L117.2031,19.6406 Z " fill="#000000"/><text fill="#000000" font-family="sans-serif" font-size="14" font-style="italic" lengthAdjust="spacing" textLength="87" x="136.75" y="28.7285">DepotFacture</text><line style="stroke:#000000;stroke-width:0.5;" x1="8" x2="320" y1="39" y2="39"/><line style="stroke:#000000;stroke-width:0.5;" x1="8" x2="320" y1="47" y2="47"/><text fill="#000000" font-family="sans-serif" font-size="14" lengthAdjust="spacing" textLength="294" x="13" y="65.5332">+Obtenir(p_identifiantFacture : Guid) : Facture</text><text fill="#000000" font-family="sans-serif" font-size="14" lengthAdjust="spacing" textLength="209" x="13" y="83.1426">+Enregistrer(p_facture : Facture)</text><text fill="#000000" font-family="sans-serif" font-size="14" lengthAdjust="spacing" textLength="302" x="13" y="100.752">+Rechercher(p_motClef : string) : List&lt;Facture&gt;</text></g><!--class Facture--><g id="elem_Facture"><rect codeLine="16" fill="#FFFFFF" height="48" id="Facture" rx="2.5" ry="2.5" style="stroke:#000000;stroke-width:0.5;" width="81" x="356.5" y="33.5"/><ellipse cx="371.5" cy="49.5" fill="#ADD1B2" rx="11" ry="11" style="stroke:#181818;stroke-width:1.0;"/><path d="M374.2656,45.375 Q374.4219,45.1563 374.6094,45.0469 Q374.7969,44.9375 375.0156,44.9375 Q375.3906,44.9375 375.625,45.1953 Q375.8594,45.4531 375.8594,46.0625 L375.8594,47.5156 Q375.8594,48.125 375.625,48.3906 Q375.3906,48.6563 375.0156,48.6563 Q374.6719,48.6563 374.4688,48.4531 Q374.2656,48.2656 374.1563,47.75 Q374.1094,47.3906 373.9219,47.2031 Q373.5938,46.8281 372.9844,46.6094 Q372.375,46.3906 371.75,46.3906 Q370.9844,46.3906 370.3516,46.7188 Q369.7188,47.0469 369.2266,47.7969 Q368.7344,48.5469 368.7344,49.5781 L368.7344,50.6719 Q368.7344,51.9063 369.625,52.7266 Q370.5156,53.5469 372.1094,53.5469 Q373.0469,53.5469 373.7031,53.2969 Q374.0938,53.1406 374.5156,52.7031 Q374.7813,52.4375 374.9297,52.3594 Q375.0781,52.2813 375.2813,52.2813 Q375.6094,52.2813 375.8672,52.5391 Q376.125,52.7969 376.125,53.1406 Q376.125,53.4844 375.7813,53.8906 Q375.2813,54.4688 374.4844,54.7969 Q373.4063,55.25 372.1094,55.25 Q370.5938,55.25 369.3906,54.625 Q368.4063,54.125 367.7188,53.0547 Q367.0313,51.9844 367.0313,50.7031 L367.0313,49.5469 Q367.0313,48.2188 367.6484,47.0703 Q368.2656,45.9219 369.3594,45.3047 Q370.4531,44.6875 371.6875,44.6875 Q372.4219,44.6875 373.0703,44.8516 Q373.7188,45.0156 374.2656,45.375 Z " fill="#000000"/><text fill="#000000" font-family="sans-serif" font-size="14" lengthAdjust="spacing" textLength="49" x="385.5" y="55.2285">Facture</text><line style="stroke:#000000;stroke-width:0.5;" x1="357.5" x2="436.5" y1="65.5" y2="65.5"/><line style="stroke:#000000;stroke-width:0.5;" x1="357.5" x2="436.5" y1="73.5" y2="73.5"/></g><!--class Imprimable--><g id="elem_Imprimable"><rect codeLine="20" fill="#FFFFFF" height="65.6094" id="Imprimable" rx="2.5" ry="2.5" style="stroke:#000000;stroke-width:0.5;" width="101" x="472.5" y="24.5"/><ellipse cx="487.5" cy="40.5" fill="#B4A7E5" rx="11" ry="11" style="stroke:#181818;stroke-width:1.0;"/><path d="M488.4531,37.1406 L488.4531,43.7969 L490.1719,43.7969 Q490.7813,43.7969 491.0469,44.0313 Q491.3125,44.2656 491.3125,44.6563 Q491.3125,45.0313 491.0469,45.2656 Q490.7813,45.5 490.1719,45.5 L485.0313,45.5 Q484.4219,45.5 484.1563,45.2656 Q483.8906,45.0313 483.8906,44.6406 Q483.8906,44.2656 484.1563,44.0313 Q484.4219,43.7969 485.0313,43.7969 L486.75,43.7969 L486.75,37.1406 L485.0313,37.1406 Q484.4219,37.1406 484.1563,36.9063 Q483.8906,36.6719 483.8906,36.2813 Q483.8906,35.9063 484.1563,35.6719 Q484.4219,35.4375 485.0313,35.4375 L490.1719,35.4375 Q490.7813,35.4375 491.0469,35.6719 Q491.3125,35.9063 491.3125,36.2813 Q491.3125,36.6719 491.0469,36.9063 Q490.7813,37.1406 490.1719,37.1406 L488.4531,37.1406 Z " fill="#000000"/><text fill="#000000" font-family="sans-serif" font-size="14" font-style="italic" lengthAdjust="spacing" textLength="69" x="501.5" y="46.2285">Imprimable</text><line style="stroke:#000000;stroke-width:0.5;" x1="473.5" x2="572.5" y1="56.5" y2="56.5"/><line style="stroke:#000000;stroke-width:0.5;" x1="473.5" x2="572.5" y1="64.5" y2="64.5"/><text fill="#000000" font-family="sans-serif" font-size="14" lengthAdjust="spacing" textLength="72" x="478.5" y="83.0332">+Imprimer()</text></g><!--class Affichable--><g id="elem_Affichable"><rect codeLine="24" fill="#FFFFFF" height="65.6094" id="Affichable" rx="2.5" ry="2.5" style="stroke:#000000;stroke-width:0.5;" width="94" x="609" y="24.5"/><ellipse cx="624" cy="40.5" fill="#B4A7E5" rx="11" ry="11" style="stroke:#181818;stroke-width:1.0;"/><path d="M624.9531,37.1406 L624.9531,43.7969 L626.6719,43.7969 Q627.2813,43.7969 627.5469,44.0313 Q627.8125,44.2656 627.8125,44.6563 Q627.8125,45.0313 627.5469,45.2656 Q627.2813,45.5 626.6719,45.5 L621.5313,45.5 Q620.9219,45.5 620.6563,45.2656 Q620.3906,45.0313 620.3906,44.6406 Q620.3906,44.2656 620.6563,44.0313 Q620.9219,43.7969 621.5313,43.7969 L623.25,43.7969 L623.25,37.1406 L621.5313,37.1406 Q620.9219,37.1406 620.6563,36.9063 Q620.3906,36.6719 620.3906,36.2813 Q620.3906,35.9063 620.6563,35.6719 Q620.9219,35.4375 621.5313,35.4375 L626.6719,35.4375 Q627.2813,35.4375 627.5469,35.6719 Q627.8125,35.9063 627.8125,36.2813 Q627.8125,36.6719 627.5469,36.9063 Q627.2813,37.1406 626.6719,37.1406 L624.9531,37.1406 Z " fill="#000000"/><text fill="#000000" font-family="sans-serif" font-size="14" font-style="italic" lengthAdjust="spacing" textLength="62" x="638" y="46.2285">Affichable</text><line style="stroke:#000000;stroke-width:0.5;" x1="610" x2="702" y1="56.5" y2="56.5"/><line style="stroke:#000000;stroke-width:0.5;" x1="610" x2="702" y1="64.5" y2="64.5"/><text fill="#000000" font-family="sans-serif" font-size="14" lengthAdjust="spacing" textLength="66" x="615" y="83.0332">+Afficher()</text></g><!--class FactureMagasinXYZ--><g id="elem_FactureMagasinXYZ"><rect codeLine="30" fill="#FFFFFF" height="83.2188" id="FactureMagasinXYZ" rx="2.5" ry="2.5" style="stroke:#000000;stroke-width:0.5;" width="159" x="443.5" y="168"/><ellipse cx="458.5" cy="184" fill="#ADD1B2" rx="11" ry="11" style="stroke:#181818;stroke-width:1.0;"/><path d="M461.2656,179.875 Q461.4219,179.6563 461.6094,179.5469 Q461.7969,179.4375 462.0156,179.4375 Q462.3906,179.4375 462.625,179.6953 Q462.8594,179.9531 462.8594,180.5625 L462.8594,182.0156 Q462.8594,182.625 462.625,182.8906 Q462.3906,183.1563 462.0156,183.1563 Q461.6719,183.1563 461.4688,182.9531 Q461.2656,182.7656 461.1563,182.25 Q461.1094,181.8906 460.9219,181.7031 Q460.5938,181.3281 459.9844,181.1094 Q459.375,180.8906 458.75,180.8906 Q457.9844,180.8906 457.3516,181.2188 Q456.7188,181.5469 456.2266,182.2969 Q455.7344,183.0469 455.7344,184.0781 L455.7344,185.1719 Q455.7344,186.4063 456.625,187.2266 Q457.5156,188.0469 459.1094,188.0469 Q460.0469,188.0469 460.7031,187.7969 Q461.0938,187.6406 461.5156,187.2031 Q461.7813,186.9375 461.9297,186.8594 Q462.0781,186.7813 462.2813,186.7813 Q462.6094,186.7813 462.8672,187.0391 Q463.125,187.2969 463.125,187.6406 Q463.125,187.9844 462.7813,188.3906 Q462.2813,188.9688 461.4844,189.2969 Q460.4063,189.75 459.1094,189.75 Q457.5938,189.75 456.3906,189.125 Q455.4063,188.625 454.7188,187.5547 Q454.0313,186.4844 454.0313,185.2031 L454.0313,184.0469 Q454.0313,182.7188 454.6484,181.5703 Q455.2656,180.4219 456.3594,179.8047 Q457.4531,179.1875 458.6875,179.1875 Q459.4219,179.1875 460.0703,179.3516 Q460.7188,179.5156 461.2656,179.875 Z " fill="#000000"/><text fill="#000000" font-family="sans-serif" font-size="14" lengthAdjust="spacing" textLength="127" x="472.5" y="189.7285">FactureMagasinXYZ</text><line style="stroke:#000000;stroke-width:0.5;" x1="444.5" x2="601.5" y1="200" y2="200"/><line style="stroke:#000000;stroke-width:0.5;" x1="444.5" x2="601.5" y1="208" y2="208"/><text fill="#000000" font-family="sans-serif" font-size="14" lengthAdjust="spacing" textLength="72" x="449.5" y="226.5332">+Imprimer()</text><text fill="#000000" font-family="sans-serif" font-size="14" lengthAdjust="spacing" textLength="66" x="449.5" y="244.1426">+Afficher()</text></g><!--reverse link Imprimable to FactureMagasinXYZ--><g id="link_Imprimable_FactureMagasinXYZ"><path codeLine="38" d="M523,108.68 C523,131.23 523,143.56 523,167.79 " fill="none" id="Imprimable-backto-FactureMagasinXYZ" style="stroke:#181818;stroke-width:1.0;stroke-dasharray:7.0,7.0;"/><polygon fill="none" points="523,90.68,517,108.68,529,108.68,523,90.68" style="stroke:#181818;stroke-width:1.0;"/></g><!--reverse link Affichable to FactureMagasinXYZ--><g id="link_Affichable_FactureMagasinXYZ"><path codeLine="39" d="M615.5263,104.1465 C595.5263,126.6965 580.58,143.56 559.09,167.79 " fill="none" id="Affichable-backto-FactureMagasinXYZ" style="stroke:#181818;stroke-width:1.0;stroke-dasharray:7.0,7.0;"/><polygon fill="none" points="627.47,90.68,611.0374,100.1653,620.0151,108.1278,627.47,90.68" style="stroke:#181818;stroke-width:1.0;"/></g><!--reverse link Facture to FactureMagasinXYZ--><g id="link_Facture_FactureMagasinXYZ"><path codeLine="40" d="M420.269,86.2043 C439.529,109.1343 465.59,140.16 488.83,167.83 " fill="none" id="Facture-backto-FactureMagasinXYZ" style="stroke:#181818;stroke-width:1.0;"/><polygon fill="#181818" points="416.41,81.61,419.1356,91.0742,419.6258,85.4386,425.2614,85.9288,416.41,81.61" style="stroke:#181818;stroke-width:1.0;"/></g><!--SRC=[TP3BQiCm44Nt-Wf15sqe2LuNKqZJ1u6MGhleOrDaUMmFaIKp6jFtlrV6IXmdgK08xfovSqT-XRPHf6gfZV9-paoOjGnBxUmZVe5CX1yZybl8S2wKNfNaMfild74adofaw2kESg1UFKgIHFmAPOnxh_43RIcE1p-35lYp0Uc8AoS4MWOgb0Pv2OtZQwMv9OW3J-Lznc2HJfetpC4o5gZi1ZgJDotca_169JPTMO8IFHDqZSM6ZjGaOW-WAw3k1gfsl31G12hqXSoTwstmI6FJULX9z9ynPEoqOO5btH3MAZD3_5uA0oPZT5uKgAiHsajhT6VMdIgLH_lyydh8Ui-WTzZAa_xCPljUOYl6FyHwLvbEfmVAVm00]--></g></svg>