<?xml version="1.0" encoding="UTF-8" standalone="no"?><svg xmlns="http://www.w3.org/2000/svg" xmlns:xlink="http://www.w3.org/1999/xlink" contentScriptType="application/ecmascript" contentStyleType="text/css" height="278px" preserveAspectRatio="none" style="width:847px;height:278px;" version="1.1" viewBox="0 0 847 278" width="847px" zoomAndPan="magnify"><defs><filter height="300%" id="f1qmq0zg2mwond" width="300%" x="-1" y="-1"><feGaussianBlur result="blurOut" stdDeviation="2.0"/><feColorMatrix in="blurOut" result="blurOut2" type="matrix" values="0 0 0 0 0 0 0 0 0 0 0 0 0 0 0 0 0 0 .4 0"/><feOffset dx="4.0" dy="4.0" in="blurOut2" result="blurOut3"/><feBlend in="SourceGraphic" in2="blurOut3" mode="normal"/></filter></defs><g><!--MD5=[22d4027e885d823f9a1056087fb224a7]
class DepotArticle--><rect fill="#FFFFFF" filter="url(#f1qmq0zg2mwond)" height="99.8203" id="DepotArticle" style="stroke: #000000; stroke-width: 1.5;" width="277" x="247.5" y="8"/><ellipse cx="346.25" cy="24" fill="#B4A7E5" rx="11" ry="11" style="stroke: #000000; stroke-width: 1.0;"/><path d="M342.6777,20.2651 L342.6777,18.1069 L350.0571,18.1069 L350.0571,20.2651 L347.5918,20.2651 L347.5918,28.3418 L350.0571,28.3418 L350.0571,30.5 L342.6777,30.5 L342.6777,28.3418 L345.1431,28.3418 L345.1431,20.2651 Z "/><text fill="#000000" font-family="sans-serif" font-size="12" font-style="italic" lengthAdjust="spacingAndGlyphs" textLength="71" x="366.75" y="28.5352">DepotArticle</text><line style="stroke: #000000; stroke-width: 1.5;" x1="248.5" x2="523.5" y1="40" y2="40"/><line style="stroke: #000000; stroke-width: 1.5;" x1="248.5" x2="523.5" y1="48" y2="48"/><text fill="#000000" font-family="sans-serif" font-size="11" lengthAdjust="spacingAndGlyphs" textLength="265" x="253.5" y="62.6348">+Rechercher(p_motCles : string[]) : List&lt;Article&gt;</text><text fill="#000000" font-family="sans-serif" font-size="11" lengthAdjust="spacingAndGlyphs" textLength="167" x="253.5" y="75.5898">+Enregistrer(p_article : Article)</text><text fill="#000000" font-family="sans-serif" font-size="11" lengthAdjust="spacingAndGlyphs" textLength="235" x="253.5" y="88.5449">+Obtenir(p_identifiantArticle: Guid) : Article</text><text fill="#000000" font-family="sans-serif" font-size="11" lengthAdjust="spacingAndGlyphs" textLength="250" x="253.5" y="101.5">+Supprimer(p_identifiantArticle: Guid) : Article</text><!--MD5=[69f39c98b910ab356626cb51e90db7a7]
class Inventaire--><rect fill="#FFFFFF" filter="url(#f1qmq0zg2mwond)" height="60.9551" id="Inventaire" style="stroke: #000000; stroke-width: 1.5;" width="206" x="6" y="187.5"/><ellipse cx="76.75" cy="203.5" fill="#ADD1B2" rx="11" ry="11" style="stroke: #000000; stroke-width: 1.0;"/><path d="M79.2231,209.6431 Q78.6421,209.9419 78.0029,210.0913 Q77.3638,210.2407 76.6582,210.2407 Q74.1514,210.2407 72.8315,208.5889 Q71.5117,206.937 71.5117,203.8159 Q71.5117,200.6865 72.8315,199.0347 Q74.1514,197.3828 76.6582,197.3828 Q77.3638,197.3828 78.0112,197.5322 Q78.6587,197.6816 79.2231,197.9805 L79.2231,200.7031 Q78.5923,200.1221 77.9988,199.8523 Q77.4053,199.5825 76.7744,199.5825 Q75.4297,199.5825 74.7449,200.6492 Q74.0601,201.7158 74.0601,203.8159 Q74.0601,205.9077 74.7449,206.9744 Q75.4297,208.041 76.7744,208.041 Q77.4053,208.041 77.9988,207.7712 Q78.5923,207.5015 79.2231,206.9204 Z "/><text fill="#000000" font-family="sans-serif" font-size="12" lengthAdjust="spacingAndGlyphs" textLength="56" x="97.25" y="208.0352">Inventaire</text><line style="stroke: #000000; stroke-width: 1.5;" x1="7" x2="211" y1="219.5" y2="219.5"/><line style="stroke: #000000; stroke-width: 1.5;" x1="7" x2="211" y1="227.5" y2="227.5"/><text fill="#000000" font-family="sans-serif" font-size="11" lengthAdjust="spacingAndGlyphs" textLength="194" x="12" y="242.1348">+ctor(p_depotArticle : DepotArticle)</text><!--MD5=[5a7d681d5c40f4305476c30498d6c30f]
class DepotArticleCSV--><rect fill="#FFFFFF" filter="url(#f1qmq0zg2mwond)" height="99.8203" id="DepotArticleCSV" style="stroke: #000000; stroke-width: 1.5;" width="277" x="247.5" y="168"/><ellipse cx="335.25" cy="184" fill="#ADD1B2" rx="11" ry="11" style="stroke: #000000; stroke-width: 1.0;"/><path d="M337.7231,190.1431 Q337.1421,190.4419 336.5029,190.5913 Q335.8638,190.7407 335.1582,190.7407 Q332.6514,190.7407 331.3315,189.0889 Q330.0117,187.437 330.0117,184.3159 Q330.0117,181.1865 331.3315,179.5347 Q332.6514,177.8828 335.1582,177.8828 Q335.8638,177.8828 336.5112,178.0322 Q337.1587,178.1816 337.7231,178.4805 L337.7231,181.2031 Q337.0923,180.6221 336.4988,180.3523 Q335.9053,180.0825 335.2744,180.0825 Q333.9297,180.0825 333.2449,181.1492 Q332.5601,182.2158 332.5601,184.3159 Q332.5601,186.4077 333.2449,187.4744 Q333.9297,188.541 335.2744,188.541 Q335.9053,188.541 336.4988,188.2712 Q337.0923,188.0015 337.7231,187.4204 Z "/><text fill="#000000" font-family="sans-serif" font-size="12" lengthAdjust="spacingAndGlyphs" textLength="93" x="355.75" y="188.5352">DepotArticleCSV</text><line style="stroke: #000000; stroke-width: 1.5;" x1="248.5" x2="523.5" y1="200" y2="200"/><line style="stroke: #000000; stroke-width: 1.5;" x1="248.5" x2="523.5" y1="208" y2="208"/><text fill="#000000" font-family="sans-serif" font-size="11" lengthAdjust="spacingAndGlyphs" textLength="265" x="253.5" y="222.6348">+Rechercher(p_motCles : string[]) : List&lt;Article&gt;</text><text fill="#000000" font-family="sans-serif" font-size="11" lengthAdjust="spacingAndGlyphs" textLength="167" x="253.5" y="235.5898">+Enregistrer(p_article : Article)</text><text fill="#000000" font-family="sans-serif" font-size="11" lengthAdjust="spacingAndGlyphs" textLength="235" x="253.5" y="248.5449">+Obtenir(p_identifiantArticle: Guid) : Article</text><text fill="#000000" font-family="sans-serif" font-size="11" lengthAdjust="spacingAndGlyphs" textLength="250" x="253.5" y="261.5">+Supprimer(p_identifiantArticle: Guid) : Article</text><!--MD5=[ac07786003e17263790142ea24ec1f2f]
class DepotArticleSQL--><rect fill="#FFFFFF" filter="url(#f1qmq0zg2mwond)" height="99.8203" id="DepotArticleSQL" style="stroke: #000000; stroke-width: 1.5;" width="277" x="559.5" y="168"/><ellipse cx="647.75" cy="184" fill="#ADD1B2" rx="11" ry="11" style="stroke: #000000; stroke-width: 1.0;"/><path d="M650.2231,190.1431 Q649.6421,190.4419 649.0029,190.5913 Q648.3638,190.7407 647.6582,190.7407 Q645.1514,190.7407 643.8315,189.0889 Q642.5117,187.437 642.5117,184.3159 Q642.5117,181.1865 643.8315,179.5347 Q645.1514,177.8828 647.6582,177.8828 Q648.3638,177.8828 649.0112,178.0322 Q649.6587,178.1816 650.2231,178.4805 L650.2231,181.2031 Q649.5923,180.6221 648.9988,180.3523 Q648.4053,180.0825 647.7744,180.0825 Q646.4297,180.0825 645.7449,181.1492 Q645.0601,182.2158 645.0601,184.3159 Q645.0601,186.4077 645.7449,187.4744 Q646.4297,188.541 647.7744,188.541 Q648.4053,188.541 648.9988,188.2712 Q649.5923,188.0015 650.2231,187.4204 Z "/><text fill="#000000" font-family="sans-serif" font-size="12" lengthAdjust="spacingAndGlyphs" textLength="92" x="668.25" y="188.5352">DepotArticleSQL</text><line style="stroke: #000000; stroke-width: 1.5;" x1="560.5" x2="835.5" y1="200" y2="200"/><line style="stroke: #000000; stroke-width: 1.5;" x1="560.5" x2="835.5" y1="208" y2="208"/><text fill="#000000" font-family="sans-serif" font-size="11" lengthAdjust="spacingAndGlyphs" textLength="265" x="565.5" y="222.6348">+Rechercher(p_motCles : string[]) : List&lt;Article&gt;</text><text fill="#000000" font-family="sans-serif" font-size="11" lengthAdjust="spacingAndGlyphs" textLength="167" x="565.5" y="235.5898">+Enregistrer(p_article : Article)</text><text fill="#000000" font-family="sans-serif" font-size="11" lengthAdjust="spacingAndGlyphs" textLength="235" x="565.5" y="248.5449">+Obtenir(p_identifiantArticle: Guid) : Article</text><text fill="#000000" font-family="sans-serif" font-size="11" lengthAdjust="spacingAndGlyphs" textLength="250" x="565.5" y="261.5">+Supprimer(p_identifiantArticle: Guid) : Article</text><!--MD5=[a357f1b5a44da34ed1645ba61335a887]
reverse link DepotArticle to Inventaire--><path d="M295.31,110.73 C250.69,136.18 198.54,165.93 160.78,187.47 " fill="none" id="DepotArticle&lt;-Inventaire" style="stroke: #A80036; stroke-width: 1.0;"/><polygon fill="#A80036" points="299.87,108.13,290.072,109.1292,295.5305,110.6138,294.046,116.0723,299.87,108.13" style="stroke: #A80036; stroke-width: 1.0;"/><!--MD5=[e2768c2fea54c15b93d72ebd0b08f366]
reverse link DepotArticle to DepotArticleCSV--><path d="M386,128.48 C386,141.77 386,155.42 386,167.9 " fill="none" id="DepotArticle&lt;-DepotArticleCSV" style="stroke: #A80036; stroke-width: 1.0; stroke-dasharray: 7.0,7.0;"/><polygon fill="none" points="379,128.13,386,108.13,393,128.13,379,128.13" style="stroke: #A80036; stroke-width: 1.0;"/><!--MD5=[531864fedc6a1dea8ce35abff5bb3779]
reverse link DepotArticle to DepotArticleSQL--><path d="M500.97,117.22 C533.85,133.88 569.36,151.86 601.05,167.9 " fill="none" id="DepotArticle&lt;-DepotArticleSQL" style="stroke: #A80036; stroke-width: 1.0; stroke-dasharray: 7.0,7.0;"/><polygon fill="none" points="497.69,123.41,483.01,108.13,504.01,110.92,497.69,123.41" style="stroke: #A80036; stroke-width: 1.0;"/><!--MD5=[0495ca88776ec78f4baee697b10b9e76]
@startuml DIP_v01_s01

skinparam classAttributeIconSize 0
skinparam class {
    BackgroundColor White
    BorderColor #000
}
allowmixing
' skinparam linetype ortho

DepotArticle <- - Inventaire
DepotArticle <|.. DepotArticleCSV
DepotArticle <|.. DepotArticleSQL

class Inventaire {
    + ctor(p_depotArticle : DepotArticle)
}

interface DepotArticle {
    + Rechercher(p_motCles : string[]) : List<Article>
    + Enregistrer(p_article : Article)
    + Obtenir(p_identifiantArticle: Guid) : Article
    + Supprimer(p_identifiantArticle: Guid) : Article
}

class DepotArticleCSV {
    + Rechercher(p_motCles : string[]) : List<Article>
    + Enregistrer(p_article : Article)
    + Obtenir(p_identifiantArticle: Guid) : Article
    + Supprimer(p_identifiantArticle: Guid) : Article
}

class DepotArticleSQL {
    + Rechercher(p_motCles : string[]) : List<Article>
    + Enregistrer(p_article : Article)
    + Obtenir(p_identifiantArticle: Guid) : Article
    + Supprimer(p_identifiantArticle: Guid) : Article
}



@enduml

@startuml DIP_v01_s01

skinparam classAttributeIconSize 0
skinparam class {
    BackgroundColor White
    BorderColor #000
}
allowmixing

DepotArticle <- - Inventaire
DepotArticle <|.. DepotArticleCSV
DepotArticle <|.. DepotArticleSQL

class Inventaire {
    + ctor(p_depotArticle : DepotArticle)
}

interface DepotArticle {
    + Rechercher(p_motCles : string[]) : List<Article>
    + Enregistrer(p_article : Article)
    + Obtenir(p_identifiantArticle: Guid) : Article
    + Supprimer(p_identifiantArticle: Guid) : Article
}

class DepotArticleCSV {
    + Rechercher(p_motCles : string[]) : List<Article>
    + Enregistrer(p_article : Article)
    + Obtenir(p_identifiantArticle: Guid) : Article
    + Supprimer(p_identifiantArticle: Guid) : Article
}

class DepotArticleSQL {
    + Rechercher(p_motCles : string[]) : List<Article>
    + Enregistrer(p_article : Article)
    + Obtenir(p_identifiantArticle: Guid) : Article
    + Supprimer(p_identifiantArticle: Guid) : Article
}



@enduml

PlantUML version 1.2020.10(Sun May 17 05:35:57 EDT 2020)
(GPL source distribution)
Java Runtime: OpenJDK Runtime Environment
JVM: OpenJDK 64-Bit Server VM
Java Version: 13.0.2+8
Operating System: Mac OS X
Default Encoding: UTF-8
Language: fr
Country: CA
--></g></svg>