<?xml version="1.0" encoding="us-ascii" standalone="no"?><svg xmlns="http://www.w3.org/2000/svg" xmlns:xlink="http://www.w3.org/1999/xlink" contentStyleType="text/css" height="310px" preserveAspectRatio="none" style="width:948px;height:310px;background:#FFFFFF;" version="1.1" viewBox="0 0 948 310" width="948px" zoomAndPan="magnify"><defs/><g><!--class DepotArticle--><g id="elem_DepotArticle"><rect codeLine="18" fill="#FFFFFF" height="118.4375" id="DepotArticle" rx="2.5" ry="2.5" style="stroke:#000000;stroke-width:0.5;" width="315" x="276.5" y="7"/><ellipse cx="391.25" cy="23" fill="#B4A7E5" rx="11" ry="11" style="stroke:#181818;stroke-width:1.0;"/><path d="M392.2031,19.6406 L392.2031,26.2969 L393.9219,26.2969 Q394.5313,26.2969 394.7969,26.5313 Q395.0625,26.7656 395.0625,27.1563 Q395.0625,27.5313 394.7969,27.7656 Q394.5313,28 393.9219,28 L388.7813,28 Q388.1719,28 387.9063,27.7656 Q387.6406,27.5313 387.6406,27.1406 Q387.6406,26.7656 387.9063,26.5313 Q388.1719,26.2969 388.7813,26.2969 L390.5,26.2969 L390.5,19.6406 L388.7813,19.6406 Q388.1719,19.6406 387.9063,19.4063 Q387.6406,19.1719 387.6406,18.7813 Q387.6406,18.4063 387.9063,18.1719 Q388.1719,17.9375 388.7813,17.9375 L393.9219,17.9375 Q394.5313,17.9375 394.7969,18.1719 Q395.0625,18.4063 395.0625,18.7813 Q395.0625,19.1719 394.7969,19.4063 Q394.5313,19.6406 393.9219,19.6406 L392.2031,19.6406 Z " fill="#000000"/><text fill="#000000" font-family="sans-serif" font-size="14" font-style="italic" lengthAdjust="spacing" textLength="77" x="411.75" y="28.7285">DepotArticle</text><line style="stroke:#000000;stroke-width:0.5;" x1="277.5" x2="590.5" y1="39" y2="39"/><line style="stroke:#000000;stroke-width:0.5;" x1="277.5" x2="590.5" y1="47" y2="47"/><text fill="#000000" font-family="sans-serif" font-size="14" lengthAdjust="spacing" textLength="303" x="282.5" y="65.5332">+Rechercher(p_motCles : string[]) : List&lt;Article&gt;</text><text fill="#000000" font-family="sans-serif" font-size="14" lengthAdjust="spacing" textLength="193" x="282.5" y="83.1426">+Enregistrer(p_article : Article)</text><text fill="#000000" font-family="sans-serif" font-size="14" lengthAdjust="spacing" textLength="270" x="282.5" y="100.752">+Obtenir(p_identifiantArticle: Guid) : Article</text><text fill="#000000" font-family="sans-serif" font-size="14" lengthAdjust="spacing" textLength="288" x="282.5" y="118.3613">+Supprimer(p_identifiantArticle: Guid) : Article</text></g><!--class Inventaire--><g id="elem_Inventaire"><rect codeLine="14" fill="#FFFFFF" height="65.6094" id="Inventaire" rx="2.5" ry="2.5" style="stroke:#000000;stroke-width:0.5;" width="234" x="7" y="211"/><ellipse cx="88.75" cy="227" fill="#ADD1B2" rx="11" ry="11" style="stroke:#181818;stroke-width:1.0;"/><path d="M91.5156,222.875 Q91.6719,222.6563 91.8594,222.5469 Q92.0469,222.4375 92.2656,222.4375 Q92.6406,222.4375 92.875,222.6953 Q93.1094,222.9531 93.1094,223.5625 L93.1094,225.0156 Q93.1094,225.625 92.875,225.8906 Q92.6406,226.1563 92.2656,226.1563 Q91.9219,226.1563 91.7188,225.9531 Q91.5156,225.7656 91.4063,225.25 Q91.3594,224.8906 91.1719,224.7031 Q90.8438,224.3281 90.2344,224.1094 Q89.625,223.8906 89,223.8906 Q88.2344,223.8906 87.6016,224.2188 Q86.9688,224.5469 86.4766,225.2969 Q85.9844,226.0469 85.9844,227.0781 L85.9844,228.1719 Q85.9844,229.4063 86.875,230.2266 Q87.7656,231.0469 89.3594,231.0469 Q90.2969,231.0469 90.9531,230.7969 Q91.3438,230.6406 91.7656,230.2031 Q92.0313,229.9375 92.1797,229.8594 Q92.3281,229.7813 92.5313,229.7813 Q92.8594,229.7813 93.1172,230.0391 Q93.375,230.2969 93.375,230.6406 Q93.375,230.9844 93.0313,231.3906 Q92.5313,231.9688 91.7344,232.2969 Q90.6563,232.75 89.3594,232.75 Q87.8438,232.75 86.6406,232.125 Q85.6563,231.625 84.9688,230.5547 Q84.2813,229.4844 84.2813,228.2031 L84.2813,227.0469 Q84.2813,225.7188 84.8984,224.5703 Q85.5156,223.4219 86.6094,222.8047 Q87.7031,222.1875 88.9375,222.1875 Q89.6719,222.1875 90.3203,222.3516 Q90.9688,222.5156 91.5156,222.875 Z " fill="#000000"/><text fill="#000000" font-family="sans-serif" font-size="14" lengthAdjust="spacing" textLength="62" x="109.25" y="232.7285">Inventaire</text><line style="stroke:#000000;stroke-width:0.5;" x1="8" x2="240" y1="243" y2="243"/><line style="stroke:#000000;stroke-width:0.5;" x1="8" x2="240" y1="251" y2="251"/><text fill="#000000" font-family="sans-serif" font-size="14" lengthAdjust="spacing" textLength="222" x="13" y="269.5332">+ctor(p_depotArticle : DepotArticle)</text></g><!--class DepotArticleCSV--><g id="elem_DepotArticleCSV"><rect codeLine="25" fill="#FFFFFF" height="118.4375" id="DepotArticleCSV" rx="2.5" ry="2.5" style="stroke:#000000;stroke-width:0.5;" width="315" x="276.5" y="185"/><ellipse cx="377.25" cy="201" fill="#ADD1B2" rx="11" ry="11" style="stroke:#181818;stroke-width:1.0;"/><path d="M380.0156,196.875 Q380.1719,196.6563 380.3594,196.5469 Q380.5469,196.4375 380.7656,196.4375 Q381.1406,196.4375 381.375,196.6953 Q381.6094,196.9531 381.6094,197.5625 L381.6094,199.0156 Q381.6094,199.625 381.375,199.8906 Q381.1406,200.1563 380.7656,200.1563 Q380.4219,200.1563 380.2188,199.9531 Q380.0156,199.7656 379.9063,199.25 Q379.8594,198.8906 379.6719,198.7031 Q379.3438,198.3281 378.7344,198.1094 Q378.125,197.8906 377.5,197.8906 Q376.7344,197.8906 376.1016,198.2188 Q375.4688,198.5469 374.9766,199.2969 Q374.4844,200.0469 374.4844,201.0781 L374.4844,202.1719 Q374.4844,203.4063 375.375,204.2266 Q376.2656,205.0469 377.8594,205.0469 Q378.7969,205.0469 379.4531,204.7969 Q379.8438,204.6406 380.2656,204.2031 Q380.5313,203.9375 380.6797,203.8594 Q380.8281,203.7813 381.0313,203.7813 Q381.3594,203.7813 381.6172,204.0391 Q381.875,204.2969 381.875,204.6406 Q381.875,204.9844 381.5313,205.3906 Q381.0313,205.9688 380.2344,206.2969 Q379.1563,206.75 377.8594,206.75 Q376.3438,206.75 375.1406,206.125 Q374.1563,205.625 373.4688,204.5547 Q372.7813,203.4844 372.7813,202.2031 L372.7813,201.0469 Q372.7813,199.7188 373.3984,198.5703 Q374.0156,197.4219 375.1094,196.8047 Q376.2031,196.1875 377.4375,196.1875 Q378.1719,196.1875 378.8203,196.3516 Q379.4688,196.5156 380.0156,196.875 Z " fill="#000000"/><text fill="#000000" font-family="sans-serif" font-size="14" lengthAdjust="spacing" textLength="105" x="397.75" y="206.7285">DepotArticleCSV</text><line style="stroke:#000000;stroke-width:0.5;" x1="277.5" x2="590.5" y1="217" y2="217"/><line style="stroke:#000000;stroke-width:0.5;" x1="277.5" x2="590.5" y1="225" y2="225"/><text fill="#000000" font-family="sans-serif" font-size="14" lengthAdjust="spacing" textLength="303" x="282.5" y="243.5332">+Rechercher(p_motCles : string[]) : List&lt;Article&gt;</text><text fill="#000000" font-family="sans-serif" font-size="14" lengthAdjust="spacing" textLength="193" x="282.5" y="261.1426">+Enregistrer(p_article : Article)</text><text fill="#000000" font-family="sans-serif" font-size="14" lengthAdjust="spacing" textLength="270" x="282.5" y="278.752">+Obtenir(p_identifiantArticle: Guid) : Article</text><text fill="#000000" font-family="sans-serif" font-size="14" lengthAdjust="spacing" textLength="288" x="282.5" y="296.3613">+Supprimer(p_identifiantArticle: Guid) : Article</text></g><!--class DepotArticleSQL--><g id="elem_DepotArticleSQL"><rect codeLine="32" fill="#FFFFFF" height="118.4375" id="DepotArticleSQL" rx="2.5" ry="2.5" style="stroke:#000000;stroke-width:0.5;" width="315" x="626.5" y="185"/><ellipse cx="727.25" cy="201" fill="#ADD1B2" rx="11" ry="11" style="stroke:#181818;stroke-width:1.0;"/><path d="M730.0156,196.875 Q730.1719,196.6563 730.3594,196.5469 Q730.5469,196.4375 730.7656,196.4375 Q731.1406,196.4375 731.375,196.6953 Q731.6094,196.9531 731.6094,197.5625 L731.6094,199.0156 Q731.6094,199.625 731.375,199.8906 Q731.1406,200.1563 730.7656,200.1563 Q730.4219,200.1563 730.2188,199.9531 Q730.0156,199.7656 729.9063,199.25 Q729.8594,198.8906 729.6719,198.7031 Q729.3438,198.3281 728.7344,198.1094 Q728.125,197.8906 727.5,197.8906 Q726.7344,197.8906 726.1016,198.2188 Q725.4688,198.5469 724.9766,199.2969 Q724.4844,200.0469 724.4844,201.0781 L724.4844,202.1719 Q724.4844,203.4063 725.375,204.2266 Q726.2656,205.0469 727.8594,205.0469 Q728.7969,205.0469 729.4531,204.7969 Q729.8438,204.6406 730.2656,204.2031 Q730.5313,203.9375 730.6797,203.8594 Q730.8281,203.7813 731.0313,203.7813 Q731.3594,203.7813 731.6172,204.0391 Q731.875,204.2969 731.875,204.6406 Q731.875,204.9844 731.5313,205.3906 Q731.0313,205.9688 730.2344,206.2969 Q729.1563,206.75 727.8594,206.75 Q726.3438,206.75 725.1406,206.125 Q724.1563,205.625 723.4688,204.5547 Q722.7813,203.4844 722.7813,202.2031 L722.7813,201.0469 Q722.7813,199.7188 723.3984,198.5703 Q724.0156,197.4219 725.1094,196.8047 Q726.2031,196.1875 727.4375,196.1875 Q728.1719,196.1875 728.8203,196.3516 Q729.4688,196.5156 730.0156,196.875 Z " fill="#000000"/><text fill="#000000" font-family="sans-serif" font-size="14" lengthAdjust="spacing" textLength="105" x="747.75" y="206.7285">DepotArticleSQL</text><line style="stroke:#000000;stroke-width:0.5;" x1="627.5" x2="940.5" y1="217" y2="217"/><line style="stroke:#000000;stroke-width:0.5;" x1="627.5" x2="940.5" y1="225" y2="225"/><text fill="#000000" font-family="sans-serif" font-size="14" lengthAdjust="spacing" textLength="303" x="632.5" y="243.5332">+Rechercher(p_motCles : string[]) : List&lt;Article&gt;</text><text fill="#000000" font-family="sans-serif" font-size="14" lengthAdjust="spacing" textLength="193" x="632.5" y="261.1426">+Enregistrer(p_article : Article)</text><text fill="#000000" font-family="sans-serif" font-size="14" lengthAdjust="spacing" textLength="270" x="632.5" y="278.752">+Obtenir(p_identifiantArticle: Guid) : Article</text><text fill="#000000" font-family="sans-serif" font-size="14" lengthAdjust="spacing" textLength="288" x="632.5" y="296.3613">+Supprimer(p_identifiantArticle: Guid) : Article</text></g><!--reverse link DepotArticle to Inventaire--><g id="link_DepotArticle_Inventaire"><path codeLine="10" d="M326.4218,128.0815 C276.1518,156.6115 222.73,186.95 180.61,210.86 " fill="none" id="DepotArticle-backto-Inventaire" style="stroke:#181818;stroke-width:1.0;"/><polygon fill="#181818" points="331.64,125.12,321.8384,126.0835,327.2915,127.5879,325.7871,133.0411,331.64,125.12" style="stroke:#181818;stroke-width:1.0;"/></g><!--reverse link DepotArticle to DepotArticleCSV--><g id="link_DepotArticle_DepotArticleCSV"><path codeLine="11" d="M434,143.12 C434,162.34 434,165.72 434,184.94 " fill="none" id="DepotArticle-backto-DepotArticleCSV" style="stroke:#181818;stroke-width:1.0;stroke-dasharray:7.0,7.0;"/><polygon fill="none" points="434,125.12,428,143.12,440,143.12,434,125.12" style="stroke:#181818;stroke-width:1.0;"/></g><!--reverse link DepotArticle to DepotArticleSQL--><g id="link_DepotArticle_DepotArticleSQL"><path codeLine="12" d="M565.652,133.2052 C603.882,152.4252 630.33,165.72 668.55,184.94 " fill="none" id="DepotArticle-backto-DepotArticleSQL" style="stroke:#181818;stroke-width:1.0;stroke-dasharray:7.0,7.0;"/><polygon fill="none" points="549.57,125.12,562.9569,138.5658,568.347,127.8445,549.57,125.12" style="stroke:#181818;stroke-width:1.0;"/></g><!--SRC=[tL9DIyD04BtlhrZme45QSYv5g56aK10Dw454jfjfCdIp6sOdVlU_kpLfqlIYvouiB6_UUpDlMBz6MobIfTH6UJzZ9bpM37FjR8gV86FXXnJv9MGubqglStArpH9d7Cd70XcQYgCCg45FuZWM6w6CSMyblgFDnQdi3GrQu8yAf2Ckd11NK3cU4QCs8AUZaPpRLx2iaE2WzZqUotqaIH_-OAHt2o6Q1Brh6-PSQdPqLhra-nQJWJuAEGHQ1bef3ODIvt8FkW3Qtk1LEauC-63Zmr9j_lGSXVS2FKzRtKKhkxO4US3fLwUwzbtdXdQxPB2ufM0MviSLAhiROI9lQioYNjHgqhgg24luhsgpsz71SeyzOlWTnnLH_000]--></g></svg>