<?xml version="1.0" encoding="UTF-8" standalone="no"?><svg xmlns="http://www.w3.org/2000/svg" xmlns:xlink="http://www.w3.org/1999/xlink" contentScriptType="application/ecmascript" contentStyleType="text/css" height="200px" preserveAspectRatio="none" style="width:607px;height:200px;" version="1.1" viewBox="0 0 607 200" width="607px" zoomAndPan="magnify"><defs><filter height="300%" id="f1f78syogwhb8u" width="300%" x="-1" y="-1"><feGaussianBlur result="blurOut" stdDeviation="2.0"/><feColorMatrix in="blurOut" result="blurOut2" type="matrix" values="0 0 0 0 0 0 0 0 0 0 0 0 0 0 0 0 0 0 .4 0"/><feOffset dx="4.0" dy="4.0" in="blurOut2" result="blurOut3"/><feBlend in="SourceGraphic" in2="blurOut3" mode="normal"/></filter></defs><g><!--MD5=[bca097896a4a28c51096bc5860f847f2]
class ApplicationGraphique--><rect fill="#FFFFFF" filter="url(#f1f78syogwhb8u)" height="73.9102" id="ApplicationGraphique" style="stroke: #000000; stroke-width: 1.5;" width="282" x="6" y="116"/><ellipse cx="80.25" cy="132" fill="#ADD1B2" rx="11" ry="11" style="stroke: #000000; stroke-width: 1.0;"/><path d="M82.7231,138.1431 Q82.1421,138.4419 81.5029,138.5913 Q80.8638,138.7407 80.1582,138.7407 Q77.6514,138.7407 76.3315,137.0889 Q75.0117,135.437 75.0117,132.3159 Q75.0117,129.1865 76.3315,127.5347 Q77.6514,125.8828 80.1582,125.8828 Q80.8638,125.8828 81.5112,126.0322 Q82.1587,126.1816 82.7231,126.4805 L82.7231,129.2031 Q82.0923,128.6221 81.4988,128.3523 Q80.9053,128.0825 80.2744,128.0825 Q78.9297,128.0825 78.2449,129.1492 Q77.5601,130.2158 77.5601,132.3159 Q77.5601,134.4077 78.2449,135.4744 Q78.9297,136.541 80.2744,136.541 Q80.9053,136.541 81.4988,136.2712 Q82.0923,136.0015 82.7231,135.4204 Z "/><text fill="#000000" font-family="sans-serif" font-size="12" lengthAdjust="spacingAndGlyphs" textLength="125" x="100.75" y="136.5352">ApplicationGraphique</text><line style="stroke: #000000; stroke-width: 1.5;" x1="7" x2="287" y1="148" y2="148"/><text fill="#000000" font-family="sans-serif" font-size="11" lengthAdjust="spacingAndGlyphs" textLength="270" x="12" y="162.6348">-FormesGeometriques : List&lt;FormeGeometrique&gt;</text><line style="stroke: #000000; stroke-width: 1.5;" x1="7" x2="287" y1="168.9551" y2="168.9551"/><text fill="#000000" font-family="sans-serif" font-size="11" lengthAdjust="spacingAndGlyphs" textLength="122" x="12" y="183.5898">+DessinerLesFormes()</text><!--MD5=[c4ef6a0a409ec15a705c18016ac8f980]
class IFormeGeometrique--><rect fill="#FFFFFF" filter="url(#f1f78syogwhb8u)" height="48" id="IFormeGeometrique" style="stroke: #000000; stroke-width: 1.5;" width="146" x="314" y="8"/><ellipse cx="329" cy="24" fill="#B4A7E5" rx="11" ry="11" style="stroke: #000000; stroke-width: 1.0;"/><path d="M325.4277,20.2651 L325.4277,18.1069 L332.8071,18.1069 L332.8071,20.2651 L330.3418,20.2651 L330.3418,28.3418 L332.8071,28.3418 L332.8071,30.5 L325.4277,30.5 L325.4277,28.3418 L327.8931,28.3418 L327.8931,20.2651 Z "/><text fill="#000000" font-family="sans-serif" font-size="12" font-style="italic" lengthAdjust="spacingAndGlyphs" textLength="114" x="343" y="28.5352">IFormeGeometrique</text><line style="stroke: #000000; stroke-width: 1.5;" x1="315" x2="459" y1="40" y2="40"/><line style="stroke: #000000; stroke-width: 1.5;" x1="315" x2="459" y1="48" y2="48"/><!--MD5=[b5313cd49da22b0744b541f414f8445e]
class Rectangle--><rect fill="#FFFFFF" filter="url(#f1f78syogwhb8u)" height="60.9551" id="Rectangle" style="stroke: #000000; stroke-width: 1.5;" width="128" x="323" y="122.5"/><ellipse cx="356" cy="138.5" fill="#ADD1B2" rx="11" ry="11" style="stroke: #000000; stroke-width: 1.0;"/><path d="M358.4731,144.6431 Q357.8921,144.9419 357.2529,145.0913 Q356.6138,145.2407 355.9082,145.2407 Q353.4014,145.2407 352.0815,143.5889 Q350.7617,141.937 350.7617,138.8159 Q350.7617,135.6865 352.0815,134.0347 Q353.4014,132.3828 355.9082,132.3828 Q356.6138,132.3828 357.2612,132.5322 Q357.9087,132.6816 358.4731,132.9805 L358.4731,135.7031 Q357.8423,135.1221 357.2488,134.8523 Q356.6553,134.5825 356.0244,134.5825 Q354.6797,134.5825 353.9949,135.6492 Q353.3101,136.7158 353.3101,138.8159 Q353.3101,140.9077 353.9949,141.9744 Q354.6797,143.041 356.0244,143.041 Q356.6553,143.041 357.2488,142.7712 Q357.8423,142.5015 358.4731,141.9204 Z "/><text fill="#000000" font-family="sans-serif" font-size="12" lengthAdjust="spacingAndGlyphs" textLength="56" x="374" y="143.0352">Rectangle</text><line style="stroke: #000000; stroke-width: 1.5;" x1="324" x2="450" y1="154.5" y2="154.5"/><line style="stroke: #000000; stroke-width: 1.5;" x1="324" x2="450" y1="162.5" y2="162.5"/><text fill="#000000" font-family="sans-serif" font-size="11" lengthAdjust="spacingAndGlyphs" textLength="116" x="329" y="177.1348">+DessinerRectangle()</text><!--MD5=[36301a564b4c56d542208ba8d5f25649]
class Cercle--><rect fill="#FFFFFF" filter="url(#f1f78syogwhb8u)" height="60.9551" id="Cercle" style="stroke: #000000; stroke-width: 1.5;" width="110" x="486" y="122.5"/><ellipse cx="519.9" cy="138.5" fill="#ADD1B2" rx="11" ry="11" style="stroke: #000000; stroke-width: 1.0;"/><path d="M522.3731,144.6431 Q521.7921,144.9419 521.1529,145.0913 Q520.5138,145.2407 519.8082,145.2407 Q517.3014,145.2407 515.9815,143.5889 Q514.6617,141.937 514.6617,138.8159 Q514.6617,135.6865 515.9815,134.0347 Q517.3014,132.3828 519.8082,132.3828 Q520.5138,132.3828 521.1612,132.5322 Q521.8087,132.6816 522.3731,132.9805 L522.3731,135.7031 Q521.7423,135.1221 521.1488,134.8523 Q520.5553,134.5825 519.9244,134.5825 Q518.5797,134.5825 517.8949,135.6492 Q517.2101,136.7158 517.2101,138.8159 Q517.2101,140.9077 517.8949,141.9744 Q518.5797,143.041 519.9244,143.041 Q520.5553,143.041 521.1488,142.7712 Q521.7423,142.5015 522.3731,141.9204 Z "/><text fill="#000000" font-family="sans-serif" font-size="12" lengthAdjust="spacingAndGlyphs" textLength="36" x="538.1" y="143.0352">Cercle</text><line style="stroke: #000000; stroke-width: 1.5;" x1="487" x2="595" y1="154.5" y2="154.5"/><line style="stroke: #000000; stroke-width: 1.5;" x1="487" x2="595" y1="162.5" y2="162.5"/><text fill="#000000" font-family="sans-serif" font-size="11" lengthAdjust="spacingAndGlyphs" textLength="98" x="492" y="177.1348">+DessinerCercle()</text><!--MD5=[93b83919f6c304bb1029077aa42147ce]
reverse link IFormeGeometrique to ApplicationGraphique--><path d="M335.96,58.31 C302.19,75.05 257.38,97.27 219.88,115.86 " fill="none" id="IFormeGeometrique&lt;-ApplicationGraphique" style="stroke: #A80036; stroke-width: 1.0;"/><polygon fill="#A80036" points="340.44,56.09,330.6007,56.5246,335.965,58.3203,334.1693,63.6846,340.44,56.09" style="stroke: #A80036; stroke-width: 1.0;"/><text fill="#000000" font-family="sans-serif" font-size="13" lengthAdjust="spacingAndGlyphs" textLength="6" x="322.3598" y="76.3963">*</text><!--MD5=[b8435740abc0ac84ecb8dbc05ec1abaa]
reverse link IFormeGeometrique to Rectangle--><path d="M387,76.4 C387,91.72 387,108.59 387,122.49 " fill="none" id="IFormeGeometrique&lt;-Rectangle" style="stroke: #A80036; stroke-width: 1.0; stroke-dasharray: 7.0,7.0;"/><polygon fill="none" points="380,76.23,387,56.23,394,76.23,380,76.23" style="stroke: #A80036; stroke-width: 1.0;"/><!--MD5=[808e11fcc26b2aabb5c19dbc9bae2cb6]
reverse link IFormeGeometrique to Cercle--><path d="M433.11,68.63 C455.35,85.82 481.72,106.19 502.82,122.49 " fill="none" id="IFormeGeometrique&lt;-Cercle" style="stroke: #A80036; stroke-width: 1.0; stroke-dasharray: 7.0,7.0;"/><polygon fill="none" points="428.6,73.99,417.06,56.23,437.16,62.92,428.6,73.99" style="stroke: #A80036; stroke-width: 1.0;"/><!--MD5=[a6dba3e16d20f7b354b86cb8bc6a3e8c]
@startuml OCP_V02

skinparam classAttributeIconSize 0
skinparam class {
    BackgroundColor White
    BorderColor #000
}
allowmixing
'skinparam linetype ortho

class ApplicationGraphique {
    - FormesGeometriques : List<FormeGeometrique>
    + DessinerLesFormes()
}

'ApplicationGraphique - -> "*" FormeGeometrique
IFormeGeometrique "*" <- -  ApplicationGraphique

interface IFormeGeometrique {

}

class Rectangle {
    + DessinerRectangle()
}

class Cercle {
    + DessinerCercle()
}

IFormeGeometrique <|.. Rectangle
IFormeGeometrique <|.. Cercle

@enduml

@startuml OCP_V02

skinparam classAttributeIconSize 0
skinparam class {
    BackgroundColor White
    BorderColor #000
}
allowmixing

class ApplicationGraphique {
    - FormesGeometriques : List<FormeGeometrique>
    + DessinerLesFormes()
}

IFormeGeometrique "*" <- -  ApplicationGraphique

interface IFormeGeometrique {

}

class Rectangle {
    + DessinerRectangle()
}

class Cercle {
    + DessinerCercle()
}

IFormeGeometrique <|.. Rectangle
IFormeGeometrique <|.. Cercle

@enduml

PlantUML version 1.2020.10(Sun May 17 05:35:57 EDT 2020)
(GPL source distribution)
Java Runtime: OpenJDK Runtime Environment
JVM: OpenJDK 64-Bit Server VM
Java Version: 13.0.2+8
Operating System: Mac OS X
Default Encoding: UTF-8
Language: fr
Country: CA
--></g></svg>