<?xml version="1.0" encoding="UTF-8" standalone="no"?><svg xmlns="http://www.w3.org/2000/svg" xmlns:xlink="http://www.w3.org/1999/xlink" contentScriptType="application/ecmascript" contentStyleType="text/css" height="200px" preserveAspectRatio="none" style="width:610px;height:200px;" version="1.1" viewBox="0 0 610 200" width="610px" zoomAndPan="magnify"><defs><filter height="300%" id="f6xvmu9puvwm9" width="300%" x="-1" y="-1"><feGaussianBlur result="blurOut" stdDeviation="2.0"/><feColorMatrix in="blurOut" result="blurOut2" type="matrix" values="0 0 0 0 0 0 0 0 0 0 0 0 0 0 0 0 0 0 .4 0"/><feOffset dx="4.0" dy="4.0" in="blurOut2" result="blurOut3"/><feBlend in="SourceGraphic" in2="blurOut3" mode="normal"/></filter></defs><g><!--MD5=[bca097896a4a28c51096bc5860f847f2]
class ApplicationGraphique--><rect fill="#FFFFFF" filter="url(#f6xvmu9puvwm9)" height="73.9102" id="ApplicationGraphique" style="stroke: #000000; stroke-width: 1.5;" width="285" x="6" y="116"/><ellipse cx="81.75" cy="132" fill="#ADD1B2" rx="11" ry="11" style="stroke: #000000; stroke-width: 1.0;"/><path d="M84.2231,138.1431 Q83.6421,138.4419 83.0029,138.5913 Q82.3638,138.7407 81.6582,138.7407 Q79.1514,138.7407 77.8315,137.0889 Q76.5117,135.437 76.5117,132.3159 Q76.5117,129.1865 77.8315,127.5347 Q79.1514,125.8828 81.6582,125.8828 Q82.3638,125.8828 83.0112,126.0322 Q83.6587,126.1816 84.2231,126.4805 L84.2231,129.2031 Q83.5923,128.6221 82.9988,128.3523 Q82.4053,128.0825 81.7744,128.0825 Q80.4297,128.0825 79.7449,129.1492 Q79.0601,130.2158 79.0601,132.3159 Q79.0601,134.4077 79.7449,135.4744 Q80.4297,136.541 81.7744,136.541 Q82.4053,136.541 82.9988,136.2712 Q83.5923,136.0015 84.2231,135.4204 Z "/><text fill="#000000" font-family="sans-serif" font-size="12" lengthAdjust="spacingAndGlyphs" textLength="125" x="102.25" y="136.5352">ApplicationGraphique</text><line style="stroke: #000000; stroke-width: 1.5;" x1="7" x2="290" y1="148" y2="148"/><text fill="#000000" font-family="sans-serif" font-size="11" lengthAdjust="spacingAndGlyphs" textLength="273" x="12" y="162.6348">-FormesGeometriques : List&lt;IFormeGeometrique&gt;</text><line style="stroke: #000000; stroke-width: 1.5;" x1="7" x2="290" y1="168.9551" y2="168.9551"/><text fill="#000000" font-family="sans-serif" font-size="11" lengthAdjust="spacingAndGlyphs" textLength="122" x="12" y="183.5898">+DessinerLesFormes()</text><!--MD5=[c4ef6a0a409ec15a705c18016ac8f980]
class IFormeGeometrique--><rect fill="#FFFFFF" filter="url(#f6xvmu9puvwm9)" height="48" id="IFormeGeometrique" style="stroke: #000000; stroke-width: 1.5;" width="146" x="317.5" y="8"/><ellipse cx="332.5" cy="24" fill="#B4A7E5" rx="11" ry="11" style="stroke: #000000; stroke-width: 1.0;"/><path d="M328.9277,20.2651 L328.9277,18.1069 L336.3071,18.1069 L336.3071,20.2651 L333.8418,20.2651 L333.8418,28.3418 L336.3071,28.3418 L336.3071,30.5 L328.9277,30.5 L328.9277,28.3418 L331.3931,28.3418 L331.3931,20.2651 Z "/><text fill="#000000" font-family="sans-serif" font-size="12" font-style="italic" lengthAdjust="spacingAndGlyphs" textLength="114" x="346.5" y="28.5352">IFormeGeometrique</text><line style="stroke: #000000; stroke-width: 1.5;" x1="318.5" x2="462.5" y1="40" y2="40"/><line style="stroke: #000000; stroke-width: 1.5;" x1="318.5" x2="462.5" y1="48" y2="48"/><!--MD5=[b5313cd49da22b0744b541f414f8445e]
class Rectangle--><rect fill="#FFFFFF" filter="url(#f6xvmu9puvwm9)" height="60.9551" id="Rectangle" style="stroke: #000000; stroke-width: 1.5;" width="128" x="326.5" y="122.5"/><ellipse cx="359.5" cy="138.5" fill="#ADD1B2" rx="11" ry="11" style="stroke: #000000; stroke-width: 1.0;"/><path d="M361.9731,144.6431 Q361.3921,144.9419 360.7529,145.0913 Q360.1138,145.2407 359.4082,145.2407 Q356.9014,145.2407 355.5815,143.5889 Q354.2617,141.937 354.2617,138.8159 Q354.2617,135.6865 355.5815,134.0347 Q356.9014,132.3828 359.4082,132.3828 Q360.1138,132.3828 360.7612,132.5322 Q361.4087,132.6816 361.9731,132.9805 L361.9731,135.7031 Q361.3423,135.1221 360.7488,134.8523 Q360.1553,134.5825 359.5244,134.5825 Q358.1797,134.5825 357.4949,135.6492 Q356.8101,136.7158 356.8101,138.8159 Q356.8101,140.9077 357.4949,141.9744 Q358.1797,143.041 359.5244,143.041 Q360.1553,143.041 360.7488,142.7712 Q361.3423,142.5015 361.9731,141.9204 Z "/><text fill="#000000" font-family="sans-serif" font-size="12" lengthAdjust="spacingAndGlyphs" textLength="56" x="377.5" y="143.0352">Rectangle</text><line style="stroke: #000000; stroke-width: 1.5;" x1="327.5" x2="453.5" y1="154.5" y2="154.5"/><line style="stroke: #000000; stroke-width: 1.5;" x1="327.5" x2="453.5" y1="162.5" y2="162.5"/><text fill="#000000" font-family="sans-serif" font-size="11" lengthAdjust="spacingAndGlyphs" textLength="116" x="332.5" y="177.1348">+DessinerRectangle()</text><!--MD5=[36301a564b4c56d542208ba8d5f25649]
class Cercle--><rect fill="#FFFFFF" filter="url(#f6xvmu9puvwm9)" height="60.9551" id="Cercle" style="stroke: #000000; stroke-width: 1.5;" width="110" x="489.5" y="122.5"/><ellipse cx="523.4" cy="138.5" fill="#ADD1B2" rx="11" ry="11" style="stroke: #000000; stroke-width: 1.0;"/><path d="M525.8731,144.6431 Q525.2921,144.9419 524.6529,145.0913 Q524.0138,145.2407 523.3082,145.2407 Q520.8014,145.2407 519.4815,143.5889 Q518.1617,141.937 518.1617,138.8159 Q518.1617,135.6865 519.4815,134.0347 Q520.8014,132.3828 523.3082,132.3828 Q524.0138,132.3828 524.6612,132.5322 Q525.3087,132.6816 525.8731,132.9805 L525.8731,135.7031 Q525.2423,135.1221 524.6488,134.8523 Q524.0553,134.5825 523.4244,134.5825 Q522.0797,134.5825 521.3949,135.6492 Q520.7101,136.7158 520.7101,138.8159 Q520.7101,140.9077 521.3949,141.9744 Q522.0797,143.041 523.4244,143.041 Q524.0553,143.041 524.6488,142.7712 Q525.2423,142.5015 525.8731,141.9204 Z "/><text fill="#000000" font-family="sans-serif" font-size="12" lengthAdjust="spacingAndGlyphs" textLength="36" x="541.6" y="143.0352">Cercle</text><line style="stroke: #000000; stroke-width: 1.5;" x1="490.5" x2="598.5" y1="154.5" y2="154.5"/><line style="stroke: #000000; stroke-width: 1.5;" x1="490.5" x2="598.5" y1="162.5" y2="162.5"/><text fill="#000000" font-family="sans-serif" font-size="11" lengthAdjust="spacingAndGlyphs" textLength="98" x="495.5" y="177.1348">+DessinerCercle()</text><!--MD5=[93b83919f6c304bb1029077aa42147ce]
reverse link IFormeGeometrique to ApplicationGraphique--><path d="M339.04,58.31 C304.98,75.05 259.8,97.27 221.99,115.86 " fill="none" id="IFormeGeometrique&lt;-ApplicationGraphique" style="stroke: #A80036; stroke-width: 1.0;"/><polygon fill="#A80036" points="343.55,56.09,333.7091,56.4869,339.0665,58.3032,337.2503,63.6605,343.55,56.09" style="stroke: #A80036; stroke-width: 1.0;"/><text fill="#000000" font-family="sans-serif" font-size="13" lengthAdjust="spacingAndGlyphs" textLength="6" x="325.3747" y="76.3963">*</text><!--MD5=[b8435740abc0ac84ecb8dbc05ec1abaa]
reverse link IFormeGeometrique to Rectangle--><path d="M390.5,76.4 C390.5,91.72 390.5,108.59 390.5,122.49 " fill="none" id="IFormeGeometrique&lt;-Rectangle" style="stroke: #A80036; stroke-width: 1.0; stroke-dasharray: 7.0,7.0;"/><polygon fill="none" points="383.5,76.23,390.5,56.23,397.5,76.23,383.5,76.23" style="stroke: #A80036; stroke-width: 1.0;"/><!--MD5=[808e11fcc26b2aabb5c19dbc9bae2cb6]
reverse link IFormeGeometrique to Cercle--><path d="M436.61,68.63 C458.85,85.82 485.22,106.19 506.32,122.49 " fill="none" id="IFormeGeometrique&lt;-Cercle" style="stroke: #A80036; stroke-width: 1.0; stroke-dasharray: 7.0,7.0;"/><polygon fill="none" points="432.1,73.99,420.56,56.23,440.66,62.92,432.1,73.99" style="stroke: #A80036; stroke-width: 1.0;"/><!--MD5=[faf2f25e80e5159d4033940f08f6d949]
@startuml OCP_V02

skinparam classAttributeIconSize 0
skinparam class {
    BackgroundColor White
    BorderColor #000
}
allowmixing
'skinparam linetype ortho

class ApplicationGraphique {
    - FormesGeometriques : List<IFormeGeometrique>
    + DessinerLesFormes()
}

'ApplicationGraphique - -> "*" FormeGeometrique
IFormeGeometrique "*" <- -  ApplicationGraphique

interface IFormeGeometrique {

}

class Rectangle {
    + DessinerRectangle()
}

class Cercle {
    + DessinerCercle()
}

IFormeGeometrique <|.. Rectangle
IFormeGeometrique <|.. Cercle

@enduml

@startuml OCP_V02

skinparam classAttributeIconSize 0
skinparam class {
    BackgroundColor White
    BorderColor #000
}
allowmixing

class ApplicationGraphique {
    - FormesGeometriques : List<IFormeGeometrique>
    + DessinerLesFormes()
}

IFormeGeometrique "*" <- -  ApplicationGraphique

interface IFormeGeometrique {

}

class Rectangle {
    + DessinerRectangle()
}

class Cercle {
    + DessinerCercle()
}

IFormeGeometrique <|.. Rectangle
IFormeGeometrique <|.. Cercle

@enduml

PlantUML version 1.2020.10(Sun May 17 05:35:57 EDT 2020)
(GPL source distribution)
Java Runtime: OpenJDK Runtime Environment
JVM: OpenJDK 64-Bit Server VM
Java Version: 13.0.2+8
Operating System: Mac OS X
Default Encoding: UTF-8
Language: fr
Country: CA
--></g></svg>