<?xml version="1.0" encoding="us-ascii" standalone="no"?><svg xmlns="http://www.w3.org/2000/svg" xmlns:xlink="http://www.w3.org/1999/xlink" contentStyleType="text/css" height="205px" preserveAspectRatio="none" style="width:691px;height:205px;background:#FFFFFF;" version="1.1" viewBox="0 0 691 205" width="691px" zoomAndPan="magnify"><defs/><g><!--class ApplicationGraphique--><g id="elem_ApplicationGraphique"><rect codeLine="10" fill="#FFFFFF" height="83.2188" id="ApplicationGraphique" rx="2.5" ry="2.5" style="stroke:#000000;stroke-width:0.5;" width="330" x="7" y="115"/><ellipse cx="99.75" cy="131" fill="#ADD1B2" rx="11" ry="11" style="stroke:#181818;stroke-width:1.0;"/><path d="M102.5156,126.875 Q102.6719,126.6563 102.8594,126.5469 Q103.0469,126.4375 103.2656,126.4375 Q103.6406,126.4375 103.875,126.6953 Q104.1094,126.9531 104.1094,127.5625 L104.1094,129.0156 Q104.1094,129.625 103.875,129.8906 Q103.6406,130.1563 103.2656,130.1563 Q102.9219,130.1563 102.7188,129.9531 Q102.5156,129.7656 102.4063,129.25 Q102.3594,128.8906 102.1719,128.7031 Q101.8438,128.3281 101.2344,128.1094 Q100.625,127.8906 100,127.8906 Q99.2344,127.8906 98.6016,128.2188 Q97.9688,128.5469 97.4766,129.2969 Q96.9844,130.0469 96.9844,131.0781 L96.9844,132.1719 Q96.9844,133.4063 97.875,134.2266 Q98.7656,135.0469 100.3594,135.0469 Q101.2969,135.0469 101.9531,134.7969 Q102.3438,134.6406 102.7656,134.2031 Q103.0313,133.9375 103.1797,133.8594 Q103.3281,133.7813 103.5313,133.7813 Q103.8594,133.7813 104.1172,134.0391 Q104.375,134.2969 104.375,134.6406 Q104.375,134.9844 104.0313,135.3906 Q103.5313,135.9688 102.7344,136.2969 Q101.6563,136.75 100.3594,136.75 Q98.8438,136.75 97.6406,136.125 Q96.6563,135.625 95.9688,134.5547 Q95.2813,133.4844 95.2813,132.2031 L95.2813,131.0469 Q95.2813,129.7188 95.8984,128.5703 Q96.5156,127.4219 97.6094,126.8047 Q98.7031,126.1875 99.9375,126.1875 Q100.6719,126.1875 101.3203,126.3516 Q101.9688,126.5156 102.5156,126.875 Z " fill="#000000"/><text fill="#000000" font-family="sans-serif" font-size="14" lengthAdjust="spacing" textLength="136" x="120.25" y="136.7285">ApplicationGraphique</text><line style="stroke:#000000;stroke-width:0.5;" x1="8" x2="336" y1="147" y2="147"/><text fill="#000000" font-family="sans-serif" font-size="14" lengthAdjust="spacing" textLength="318" x="13" y="165.5332">-FormesGeometriques : List&lt;IFormeGeometrique&gt;</text><line style="stroke:#000000;stroke-width:0.5;" x1="8" x2="336" y1="172.6094" y2="172.6094"/><text fill="#000000" font-family="sans-serif" font-size="14" lengthAdjust="spacing" textLength="145" x="13" y="191.1426">+DessinerLesFormes()</text></g><!--class IFormeGeometrique--><g id="elem_IFormeGeometrique"><rect codeLine="18" fill="#FFFFFF" height="48" id="IFormeGeometrique" rx="2.5" ry="2.5" style="stroke:#000000;stroke-width:0.5;" width="159" x="367.5" y="7"/><ellipse cx="382.5" cy="23" fill="#B4A7E5" rx="11" ry="11" style="stroke:#181818;stroke-width:1.0;"/><path d="M383.4531,19.6406 L383.4531,26.2969 L385.1719,26.2969 Q385.7813,26.2969 386.0469,26.5313 Q386.3125,26.7656 386.3125,27.1563 Q386.3125,27.5313 386.0469,27.7656 Q385.7813,28 385.1719,28 L380.0313,28 Q379.4219,28 379.1563,27.7656 Q378.8906,27.5313 378.8906,27.1406 Q378.8906,26.7656 379.1563,26.5313 Q379.4219,26.2969 380.0313,26.2969 L381.75,26.2969 L381.75,19.6406 L380.0313,19.6406 Q379.4219,19.6406 379.1563,19.4063 Q378.8906,19.1719 378.8906,18.7813 Q378.8906,18.4063 379.1563,18.1719 Q379.4219,17.9375 380.0313,17.9375 L385.1719,17.9375 Q385.7813,17.9375 386.0469,18.1719 Q386.3125,18.4063 386.3125,18.7813 Q386.3125,19.1719 386.0469,19.4063 Q385.7813,19.6406 385.1719,19.6406 L383.4531,19.6406 Z " fill="#000000"/><text fill="#000000" font-family="sans-serif" font-size="14" font-style="italic" lengthAdjust="spacing" textLength="127" x="396.5" y="28.7285">IFormeGeometrique</text><line style="stroke:#000000;stroke-width:0.5;" x1="368.5" x2="525.5" y1="39" y2="39"/><line style="stroke:#000000;stroke-width:0.5;" x1="368.5" x2="525.5" y1="47" y2="47"/></g><!--class Rectangle--><g id="elem_Rectangle"><rect codeLine="22" fill="#FFFFFF" height="65.6094" id="Rectangle" rx="2.5" ry="2.5" style="stroke:#000000;stroke-width:0.5;" width="150" x="372" y="123.5"/><ellipse cx="411.3" cy="139.5" fill="#ADD1B2" rx="11" ry="11" style="stroke:#181818;stroke-width:1.0;"/><path d="M414.0656,135.375 Q414.2219,135.1563 414.4094,135.0469 Q414.5969,134.9375 414.8156,134.9375 Q415.1906,134.9375 415.425,135.1953 Q415.6594,135.4531 415.6594,136.0625 L415.6594,137.5156 Q415.6594,138.125 415.425,138.3906 Q415.1906,138.6563 414.8156,138.6563 Q414.4719,138.6563 414.2688,138.4531 Q414.0656,138.2656 413.9563,137.75 Q413.9094,137.3906 413.7219,137.2031 Q413.3938,136.8281 412.7844,136.6094 Q412.175,136.3906 411.55,136.3906 Q410.7844,136.3906 410.1516,136.7188 Q409.5188,137.0469 409.0266,137.7969 Q408.5344,138.5469 408.5344,139.5781 L408.5344,140.6719 Q408.5344,141.9063 409.425,142.7266 Q410.3156,143.5469 411.9094,143.5469 Q412.8469,143.5469 413.5031,143.2969 Q413.8938,143.1406 414.3156,142.7031 Q414.5813,142.4375 414.7297,142.3594 Q414.8781,142.2813 415.0813,142.2813 Q415.4094,142.2813 415.6672,142.5391 Q415.925,142.7969 415.925,143.1406 Q415.925,143.4844 415.5813,143.8906 Q415.0813,144.4688 414.2844,144.7969 Q413.2063,145.25 411.9094,145.25 Q410.3938,145.25 409.1906,144.625 Q408.2063,144.125 407.5188,143.0547 Q406.8313,141.9844 406.8313,140.7031 L406.8313,139.5469 Q406.8313,138.2188 407.4484,137.0703 Q408.0656,135.9219 409.1594,135.3047 Q410.2531,134.6875 411.4875,134.6875 Q412.2219,134.6875 412.8703,134.8516 Q413.5188,135.0156 414.0656,135.375 Z " fill="#000000"/><text fill="#000000" font-family="sans-serif" font-size="14" lengthAdjust="spacing" textLength="64" x="430.7" y="145.2285">Rectangle</text><line style="stroke:#000000;stroke-width:0.5;" x1="373" x2="521" y1="155.5" y2="155.5"/><line style="stroke:#000000;stroke-width:0.5;" x1="373" x2="521" y1="163.5" y2="163.5"/><text fill="#000000" font-family="sans-serif" font-size="14" lengthAdjust="spacing" textLength="138" x="378" y="182.0332">+DessinerRectangle()</text></g><!--class Cercle--><g id="elem_Cercle"><rect codeLine="26" fill="#FFFFFF" height="65.6094" id="Cercle" rx="2.5" ry="2.5" style="stroke:#000000;stroke-width:0.5;" width="127" x="557.5" y="123.5"/><ellipse cx="596.8" cy="139.5" fill="#ADD1B2" rx="11" ry="11" style="stroke:#181818;stroke-width:1.0;"/><path d="M599.5656,135.375 Q599.7219,135.1563 599.9094,135.0469 Q600.0969,134.9375 600.3156,134.9375 Q600.6906,134.9375 600.925,135.1953 Q601.1594,135.4531 601.1594,136.0625 L601.1594,137.5156 Q601.1594,138.125 600.925,138.3906 Q600.6906,138.6563 600.3156,138.6563 Q599.9719,138.6563 599.7688,138.4531 Q599.5656,138.2656 599.4563,137.75 Q599.4094,137.3906 599.2219,137.2031 Q598.8938,136.8281 598.2844,136.6094 Q597.675,136.3906 597.05,136.3906 Q596.2844,136.3906 595.6516,136.7188 Q595.0188,137.0469 594.5266,137.7969 Q594.0344,138.5469 594.0344,139.5781 L594.0344,140.6719 Q594.0344,141.9063 594.925,142.7266 Q595.8156,143.5469 597.4094,143.5469 Q598.3469,143.5469 599.0031,143.2969 Q599.3938,143.1406 599.8156,142.7031 Q600.0813,142.4375 600.2297,142.3594 Q600.3781,142.2813 600.5813,142.2813 Q600.9094,142.2813 601.1672,142.5391 Q601.425,142.7969 601.425,143.1406 Q601.425,143.4844 601.0813,143.8906 Q600.5813,144.4688 599.7844,144.7969 Q598.7063,145.25 597.4094,145.25 Q595.8938,145.25 594.6906,144.625 Q593.7063,144.125 593.0188,143.0547 Q592.3313,141.9844 592.3313,140.7031 L592.3313,139.5469 Q592.3313,138.2188 592.9484,137.0703 Q593.5656,135.9219 594.6594,135.3047 Q595.7531,134.6875 596.9875,134.6875 Q597.7219,134.6875 598.3703,134.8516 Q599.0188,135.0156 599.5656,135.375 Z " fill="#000000"/><text fill="#000000" font-family="sans-serif" font-size="14" lengthAdjust="spacing" textLength="41" x="616.2" y="145.2285">Cercle</text><line style="stroke:#000000;stroke-width:0.5;" x1="558.5" x2="683.5" y1="155.5" y2="155.5"/><line style="stroke:#000000;stroke-width:0.5;" x1="558.5" x2="683.5" y1="163.5" y2="163.5"/><text fill="#000000" font-family="sans-serif" font-size="14" lengthAdjust="spacing" textLength="115" x="563.5" y="182.0332">+DessinerCercle()</text></g><!--reverse link IFormeGeometrique to ApplicationGraphique--><g id="link_IFormeGeometrique_ApplicationGraphique"><path codeLine="16" d="M390.1271,57.5391 C352.7371,74.3391 306.61,95.05 262.4,114.9 " fill="none" id="IFormeGeometrique-backto-ApplicationGraphique" style="stroke:#181818;stroke-width:1.0;"/><polygon fill="#181818" points="395.6,55.08,385.7512,55.12,391.0392,57.1292,389.03,62.4172,395.6,55.08" style="stroke:#181818;stroke-width:1.0;"/><text fill="#000000" font-family="sans-serif" font-size="13" lengthAdjust="spacing" textLength="5" x="377.4619" y="76.4375">*</text></g><!--reverse link IFormeGeometrique to Rectangle--><g id="link_IFormeGeometrique_Rectangle"><path codeLine="30" d="M447,73.23 C447,92.37 447,101.75 447,123.05 " fill="none" id="IFormeGeometrique-backto-Rectangle" style="stroke:#181818;stroke-width:1.0;stroke-dasharray:7.0,7.0;"/><polygon fill="none" points="447,55.23,441,73.23,453,73.23,447,55.23" style="stroke:#181818;stroke-width:1.0;"/></g><!--reverse link IFormeGeometrique to Cercle--><g id="link_IFormeGeometrique_Cercle"><path codeLine="31" d="M494.4094,65.6471 C521.4794,84.8571 545.55,101.95 575.62,123.29 " fill="none" id="IFormeGeometrique-backto-Cercle" style="stroke:#181818;stroke-width:1.0;stroke-dasharray:7.0,7.0;"/><polygon fill="none" points="479.73,55.23,490.937,70.5402,497.8817,60.754,479.73,55.23" style="stroke:#181818;stroke-width:1.0;"/></g><!--SRC=[TOzBJyD038Jl_XLMEPI7KkMCeagbYAfIJt3Wl6nDQdMp3jwDU1J-Eo4B14ZmqVDvPXpsx6kZfaBhJ0YB69NlcaXhA_w6NmXp2ByHF02sSs7ilbHf_7OfJXHlTnmfAQ9RqhGzolCSti0u9uyLFx4lOThxEVOKdsj2qRWJWEI_g6l7raGMlr9Jx_YXeS_G3Az4AmehaehQfgqIy1mt76AnxgGVohmxESDB2g4DqWs5T7ryqbQ2wMXEbirnSZh1lsOmiE-m8ijmj300-qXwRopXyFG07mtIkzTae_6b-_gnB_ojfC89NvBQ4JQj4pZCArvdipxeFo1vm3i0]--></g></svg>